<?xml version="1.0" encoding="utf-8" standalone="no"?>
<!DOCTYPE svg PUBLIC "-//W3C//DTD SVG 1.1//EN"
  "http://www.w3.org/Graphics/SVG/1.1/DTD/svg11.dtd">
<!-- Created with matplotlib (http://matplotlib.org/) -->
<svg height="144pt" version="1.1" viewBox="0 0 720 144" width="720pt" xmlns="http://www.w3.org/2000/svg" xmlns:xlink="http://www.w3.org/1999/xlink">
 <defs>
  <style type="text/css">
*{stroke-linecap:butt;stroke-linejoin:round;}
  </style>
 </defs>
 <g id="figure_1">
  <g id="patch_1">
   <path d="
M0 144
L720 144
L720 0
L0 0
z
" style="fill:#ffffff;"/>
  </g>
  <g id="axes_1">
   <g id="patch_2">
    <path d="
M54.5288 98.64
L707.04 98.64
L707.04 12.96
L54.5288 12.96
z
" style="fill:#ffffff;"/>
   </g>
   <g id="PolyCollection_1">
    <defs>
     <path d="
M54.5288 -45.36
L54.5288 -74.6523
L54.9848 -74.6523
L55.4761 -74.6523
L55.9811 -75.318
L57.3115 -75.9838
L57.9138 -76.6495
L59.233 -77.981
L60.1604 -79.3124
L61.1983 -77.981
L65.2101 -73.9866
L66.4708 -73.3208
L66.993 -73.3208
L67.6171 -73.3208
L69.2407 -72.6551
L70.9084 -72.6551
L71.8541 -71.9894
L77.4423 -71.3236
L78.3539 -71.3236
L79.6041 -71.3236
L80.708 -71.3236
L82.2094 -71.9894
L83.9838 -73.3208
L86.3115 -75.318
L87.2428 -75.9838
L87.9129 -76.6495
L99.1029 -88.6327
L99.7669 -89.9642
L99.7884 -89.9642
L101.826 -93.2929
L102.608 -95.2901
L103.811 -99.2845
L106.132 -106.608
L107.994 -109.27
L108.66 -110.602
L111.603 -112.599
L113.41 -111.933
L114.99 -111.933
L116.432 -111.268
L119.64 -109.936
L122.149 -109.936
L122.733 -109.27
L123.307 -109.27
L128.553 -106.608
L131.016 -105.942
L133.016 -108.605
L133.016 -108.605
L135.402 -110.602
L136.381 -108.605
L137.394 -106.608
L141.138 -107.273
L146.224 -111.933
L147.105 -111.268
L161.927 -111.268
L163.106 -110.602
L164.898 -109.936
L168.363 -112.599
L171.787 -115.262
L173.585 -115.262
L174.328 -115.928
L174.328 -115.928
L175.814 -113.931
L177.658 -111.933
L178.505 -112.599
L181.882 -117.925
L182.159 -117.925
L186.459 -119.257
L189.063 -118.591
L191.219 -116.594
L191.986 -117.259
L194.146 -119.257
L196.008 -121.919
L196.914 -123.251
L197.676 -121.919
L199.962 -117.925
L200.253 -117.259
L203.157 -117.259
L203.595 -117.259
L204.251 -117.925
L206.928 -119.922
L210.504 -114.596
L218.185 -102.613
L218.202 -101.947
L221.801 -97.2873
L221.98 -97.2873
L223.362 -97.953
L232.812 -103.945
L236.038 -105.942
L238.754 -107.939
L252.472 -107.273
L261.327 -110.602
L261.327 -110.602
L262.322 -110.602
L263.389 -110.602
L269.704 -111.268
L272.306 -111.933
L274.525 -110.602
L276.992 -108.605
L278.371 -109.27
L279.621 -109.936
L280.956 -109.936
L283.66 -110.602
L284.57 -109.27
L286.459 -107.939
L287.191 -107.273
L288.37 -106.608
L288.762 -106.608
L290.646 -102.613
L291.305 -101.282
L292.176 -100.616
L293.635 -99.9502
L299.737 -102.613
L300.197 -101.282
L300.628 -100.616
L302.143 -97.953
L302.766 -97.2873
L303.699 -97.2873
L304.938 -97.2873
L306.491 -97.2873
L310.568 -97.2873
L312.388 -97.2873
L312.388 -97.2873
L318.159 -98.6187
L323.307 -96.6215
L325.437 -92.6271
L327.332 -90.6299
L332.036 -87.967
L338.496 -87.967
L339.599 -87.3013
L340.943 -86.6355
L342.931 -85.9698
L344.602 -83.9726
L348.911 -79.9782
L351.8 -80.6439
L352.6 -80.6439
L352.617 -80.6439
L353.206 -80.6439
L354.001 -80.6439
L354.943 -80.6439
L355.941 -80.6439
L357.374 -81.9754
L358.11 -83.9726
L364.608 -106.608
L374.677 -117.259
L374.677 -117.259
L381.952 -122.585
L386.727 -112.599
L387.423 -110.602
L387.883 -109.936
L390.883 -104.61
L392.825 -99.9502
L392.842 -99.2845
L404.316 -87.967
L404.984 -87.967
L407.113 -89.9642
L408.442 -89.2985
L416.553 -87.967
L417.883 -86.6355
L419.7 -85.3041
L420.547 -83.9726
L421.328 -82.6411
L421.956 -81.9754
L423.496 -78.6467
L424.254 -77.3152
L424.254 -77.3152
L425.006 -77.981
L426.228 -80.6439
L426.775 -79.9782
L427.653 -79.9782
L428.202 -79.9782
L428.968 -80.6439
L432.813 -85.3041
L436.433 -89.2985
L440.482 -86.6355
L444.176 -82.6411
L452.52 -87.3013
L453.181 -87.3013
L454.099 -87.967
L454.995 -89.2985
L457.898 -89.9642
L458.449 -89.2985
L460.778 -87.967
L463.534 -83.9726
L471.421 -86.6355
L471.437 -85.9698
L484.324 -83.3069
L485.68 -83.3069
L488.225 -83.3069
L490.514 -81.9754
L493.12 -82.6411
L497.203 -81.3097
L506.772 -77.981
L510.72 -79.9782
L516.203 -79.3124
L516.695 -79.3124
L518.055 -79.3124
L518.923 -79.3124
L519.692 -80.6439
L521.213 -83.9726
L521.535 -83.3069
L521.862 -82.6411
L522.247 -81.9754
L526.738 -75.9838
L526.755 -75.9838
L534.841 -82.6411
L535.232 -81.9754
L536.036 -81.3097
L536.381 -81.3097
L541.58 -77.981
L542.327 -78.6467
L546.857 -83.9726
L547.482 -83.9726
L549.552 -86.6355
L550.487 -86.6355
L556.507 -90.6299
L556.963 -90.6299
L557.286 -90.6299
L558.107 -90.6299
L559.643 -90.6299
L561.167 -90.6299
L562.352 -90.6299
L563.454 -90.6299
L564.918 -89.9642
L567.673 -89.9642
L568.72 -89.2985
L572.266 -87.3013
L573.181 -85.9698
L574.019 -84.6383
L576.522 -81.9754
L577.103 -81.9754
L577.742 -82.6411
L578.002 -82.6411
L581.241 -85.3041
L581.241 -85.3041
L586.397 -89.9642
L586.621 -89.9642
L586.851 -89.9642
L587.949 -89.9642
L589.895 -89.9642
L590.43 -88.6327
L594.874 -83.3069
L598.808 -73.9866
L600.647 -70.6579
L601.013 -70.6579
L611.476 -79.3124
L611.91 -79.3124
L613.358 -79.3124
L613.711 -79.3124
L618.834 -75.318
L621.178 -71.9894
L621.675 -71.9894
L625.036 -71.9894
L626.077 -71.9894
L626.782 -71.9894
L628.792 -71.9894
L633.021 -83.9726
L634.026 -84.6383
L634.638 -85.3041
L634.966 -85.3041
L635.631 -86.6355
L645.379 -68.6607
L646.127 -68.6607
L647.866 -68.6607
L649.46 -66.6635
L652.86 -64.0006
L653.655 -64.0006
L655.559 -64.0006
L656.581 -64.6663
L657.161 -65.332
L660.102 -69.3264
L664.968 -70.6579
L666.841 -70.6579
L666.858 -69.9922
L674.964 -65.332
L686.311 -75.318
L686.311 -75.318
L691.97 -74.6523
L694.432 -71.9894
L694.679 -71.9894
L695.184 -71.9894
L696.734 -72.6551
L698.68 -73.3208
L699.501 -73.3208
L700.552 -73.3208
L707.04 -74.6523
L707.04 -45.36
L707.04 -45.36
L700.552 -45.36
L699.501 -45.36
L698.68 -45.36
L696.734 -45.36
L695.184 -45.36
L694.679 -45.36
L694.432 -45.36
L691.97 -45.36
L686.311 -45.36
L686.311 -45.36
L674.964 -45.36
L666.858 -45.36
L666.841 -45.36
L664.968 -45.36
L660.102 -45.36
L657.161 -45.36
L656.581 -45.36
L655.559 -45.36
L653.655 -45.36
L652.86 -45.36
L649.46 -45.36
L647.866 -45.36
L646.127 -45.36
L645.379 -45.36
L635.631 -45.36
L634.966 -45.36
L634.638 -45.36
L634.026 -45.36
L633.021 -45.36
L628.792 -45.36
L626.782 -45.36
L626.077 -45.36
L625.036 -45.36
L621.675 -45.36
L621.178 -45.36
L618.834 -45.36
L613.711 -45.36
L613.358 -45.36
L611.91 -45.36
L611.476 -45.36
L601.013 -45.36
L600.647 -45.36
L598.808 -45.36
L594.874 -45.36
L590.43 -45.36
L589.895 -45.36
L587.949 -45.36
L586.851 -45.36
L586.621 -45.36
L586.397 -45.36
L581.241 -45.36
L581.241 -45.36
L578.002 -45.36
L577.742 -45.36
L577.103 -45.36
L576.522 -45.36
L574.019 -45.36
L573.181 -45.36
L572.266 -45.36
L568.72 -45.36
L567.673 -45.36
L564.918 -45.36
L563.454 -45.36
L562.352 -45.36
L561.167 -45.36
L559.643 -45.36
L558.107 -45.36
L557.286 -45.36
L556.963 -45.36
L556.507 -45.36
L550.487 -45.36
L549.552 -45.36
L547.482 -45.36
L546.857 -45.36
L542.327 -45.36
L541.58 -45.36
L536.381 -45.36
L536.036 -45.36
L535.232 -45.36
L534.841 -45.36
L526.755 -45.36
L526.738 -45.36
L522.247 -45.36
L521.862 -45.36
L521.535 -45.36
L521.213 -45.36
L519.692 -45.36
L518.923 -45.36
L518.055 -45.36
L516.695 -45.36
L516.203 -45.36
L510.72 -45.36
L506.772 -45.36
L497.203 -45.36
L493.12 -45.36
L490.514 -45.36
L488.225 -45.36
L485.68 -45.36
L484.324 -45.36
L471.437 -45.36
L471.421 -45.36
L463.534 -45.36
L460.778 -45.36
L458.449 -45.36
L457.898 -45.36
L454.995 -45.36
L454.099 -45.36
L453.181 -45.36
L452.52 -45.36
L444.176 -45.36
L440.482 -45.36
L436.433 -45.36
L432.813 -45.36
L428.968 -45.36
L428.202 -45.36
L427.653 -45.36
L426.775 -45.36
L426.228 -45.36
L425.006 -45.36
L424.254 -45.36
L424.254 -45.36
L423.496 -45.36
L421.956 -45.36
L421.328 -45.36
L420.547 -45.36
L419.7 -45.36
L417.883 -45.36
L416.553 -45.36
L408.442 -45.36
L407.113 -45.36
L404.984 -45.36
L404.316 -45.36
L392.842 -45.36
L392.825 -45.36
L390.883 -45.36
L387.883 -45.36
L387.423 -45.36
L386.727 -45.36
L381.952 -45.36
L374.677 -45.36
L374.677 -45.36
L364.608 -45.36
L358.11 -45.36
L357.374 -45.36
L355.941 -45.36
L354.943 -45.36
L354.001 -45.36
L353.206 -45.36
L352.617 -45.36
L352.6 -45.36
L351.8 -45.36
L348.911 -45.36
L344.602 -45.36
L342.931 -45.36
L340.943 -45.36
L339.599 -45.36
L338.496 -45.36
L332.036 -45.36
L327.332 -45.36
L325.437 -45.36
L323.307 -45.36
L318.159 -45.36
L312.388 -45.36
L312.388 -45.36
L310.568 -45.36
L306.491 -45.36
L304.938 -45.36
L303.699 -45.36
L302.766 -45.36
L302.143 -45.36
L300.628 -45.36
L300.197 -45.36
L299.737 -45.36
L293.635 -45.36
L292.176 -45.36
L291.305 -45.36
L290.646 -45.36
L288.762 -45.36
L288.37 -45.36
L287.191 -45.36
L286.459 -45.36
L284.57 -45.36
L283.66 -45.36
L280.956 -45.36
L279.621 -45.36
L278.371 -45.36
L276.992 -45.36
L274.525 -45.36
L272.306 -45.36
L269.704 -45.36
L263.389 -45.36
L262.322 -45.36
L261.327 -45.36
L261.327 -45.36
L252.472 -45.36
L238.754 -45.36
L236.038 -45.36
L232.812 -45.36
L223.362 -45.36
L221.98 -45.36
L221.801 -45.36
L218.202 -45.36
L218.185 -45.36
L210.504 -45.36
L206.928 -45.36
L204.251 -45.36
L203.595 -45.36
L203.157 -45.36
L200.253 -45.36
L199.962 -45.36
L197.676 -45.36
L196.914 -45.36
L196.008 -45.36
L194.146 -45.36
L191.986 -45.36
L191.219 -45.36
L189.063 -45.36
L186.459 -45.36
L182.159 -45.36
L181.882 -45.36
L178.505 -45.36
L177.658 -45.36
L175.814 -45.36
L174.328 -45.36
L174.328 -45.36
L173.585 -45.36
L171.787 -45.36
L168.363 -45.36
L164.898 -45.36
L163.106 -45.36
L161.927 -45.36
L147.105 -45.36
L146.224 -45.36
L141.138 -45.36
L137.394 -45.36
L136.381 -45.36
L135.402 -45.36
L133.016 -45.36
L133.016 -45.36
L131.016 -45.36
L128.553 -45.36
L123.307 -45.36
L122.733 -45.36
L122.149 -45.36
L119.64 -45.36
L116.432 -45.36
L114.99 -45.36
L113.41 -45.36
L111.603 -45.36
L108.66 -45.36
L107.994 -45.36
L106.132 -45.36
L103.811 -45.36
L102.608 -45.36
L101.826 -45.36
L99.7884 -45.36
L99.7669 -45.36
L99.1029 -45.36
L87.9129 -45.36
L87.2428 -45.36
L86.3115 -45.36
L83.9838 -45.36
L82.2094 -45.36
L80.708 -45.36
L79.6041 -45.36
L78.3539 -45.36
L77.4423 -45.36
L71.8541 -45.36
L70.9084 -45.36
L69.2407 -45.36
L67.6171 -45.36
L66.993 -45.36
L66.4708 -45.36
L65.2101 -45.36
L61.1983 -45.36
L60.1604 -45.36
L59.233 -45.36
L57.9138 -45.36
L57.3115 -45.36
L55.9811 -45.36
L55.4761 -45.36
L54.9848 -45.36
L54.5288 -45.36
z
" id="C0_0_c18e631b47"/>
    </defs>
    <g clip-path="url(#pf0090d736b)">
     <use style="fill:#0000ff;fill-opacity:0.3;stroke:#0000ff;stroke-opacity:0.3;" x="0.0" xlink:href="#C0_0_c18e631b47" y="144.0"/>
    </g>
   </g>
   <g id="line2d_1">
    <path clip-path="url(#pf0090d736b)" d="
M54.5288 69.3477
L55.4761 69.3477
L55.9811 68.682
L57.3115 68.0162
L59.233 66.019
L60.1604 64.6876
L61.1983 66.019
L65.2101 70.0134
L66.4708 70.6792
L67.6171 70.6792
L69.2407 71.3449
L70.9084 71.3449
L71.8541 72.0106
L78.3539 72.6764
L80.708 72.6764
L82.2094 72.0106
L83.9838 70.6792
L87.9129 67.3505
L99.1029 55.3673
L99.7884 54.0358
L101.826 50.7071
L102.608 48.7099
L106.132 37.3924
L107.994 34.7295
L108.66 33.398
L111.603 31.4008
L113.41 32.0666
L114.99 32.0666
L116.432 32.7323
L119.64 34.0638
L122.149 34.0638
L122.733 34.7295
L123.307 34.7295
L128.553 37.3924
L131.016 38.0582
L133.016 35.3952
L133.016 35.3952
L135.402 33.398
L137.394 37.3924
L141.138 36.7267
L146.224 32.0666
L147.105 32.7323
L161.927 32.7323
L163.106 33.398
L164.898 34.0638
L171.787 28.7379
L173.585 28.7379
L174.328 28.0722
L174.328 28.0722
L175.814 30.0694
L177.658 32.0666
L178.505 31.4008
L181.882 26.075
L182.159 26.075
L186.459 24.7435
L189.063 25.4092
L191.219 27.4064
L194.146 24.7435
L196.914 20.7491
L200.253 26.7407
L203.595 26.7407
L204.251 26.075
L206.928 24.0778
L210.504 29.4036
L218.185 41.3869
L218.202 42.0526
L221.801 46.7127
L221.98 46.7127
L223.362 46.047
L236.038 38.0582
L238.754 36.061
L252.472 36.7267
L261.327 33.398
L261.327 33.398
L263.389 33.398
L269.704 32.7323
L272.306 32.0666
L274.525 33.398
L276.992 35.3952
L279.621 34.0638
L280.956 34.0638
L283.66 33.398
L284.57 34.7295
L286.459 36.061
L287.191 36.7267
L288.37 37.3924
L288.762 37.3924
L291.305 42.7183
L292.176 43.3841
L293.635 44.0498
L299.737 41.3869
L300.197 42.7183
L300.628 43.3841
L302.143 46.047
L302.766 46.7127
L312.388 46.7127
L312.388 46.7127
L318.159 45.3813
L323.307 47.3785
L325.437 51.3729
L327.332 53.3701
L332.036 56.033
L338.496 56.033
L339.599 56.6987
L340.943 57.3645
L342.931 58.0302
L344.602 60.0274
L348.911 64.0218
L351.8 63.3561
L355.941 63.3561
L357.374 62.0246
L358.11 60.0274
L364.608 37.3924
L374.677 26.7407
L374.677 26.7407
L381.952 21.4148
L386.727 31.4008
L387.423 33.398
L387.883 34.0638
L390.883 39.3897
L392.825 44.0498
L392.842 44.7155
L404.316 56.033
L404.984 56.033
L407.113 54.0358
L408.442 54.7015
L416.553 56.033
L417.883 57.3645
L419.7 58.6959
L421.328 61.3589
L421.956 62.0246
L423.496 65.3533
L424.254 66.6848
L424.254 66.6848
L425.006 66.019
L426.228 63.3561
L426.775 64.0218
L428.202 64.0218
L428.968 63.3561
L432.813 58.6959
L436.433 54.7015
L440.482 57.3645
L444.176 61.3589
L452.52 56.6987
L453.181 56.6987
L454.099 56.033
L454.995 54.7015
L457.898 54.0358
L458.449 54.7015
L460.778 56.033
L463.534 60.0274
L471.421 57.3645
L471.437 58.0302
L484.324 60.6931
L488.225 60.6931
L490.514 62.0246
L493.12 61.3589
L497.203 62.6903
L506.772 66.019
L510.72 64.0218
L516.695 64.6876
L518.923 64.6876
L519.692 63.3561
L521.213 60.0274
L522.247 62.0246
L526.755 68.0162
L534.841 61.3589
L535.232 62.0246
L536.036 62.6903
L536.381 62.6903
L541.58 66.019
L542.327 65.3533
L546.857 60.0274
L547.482 60.0274
L549.552 57.3645
L550.487 57.3645
L556.507 53.3701
L563.454 53.3701
L564.918 54.0358
L567.673 54.0358
L568.72 54.7015
L572.266 56.6987
L574.019 59.3617
L576.522 62.0246
L577.103 62.0246
L577.742 61.3589
L578.002 61.3589
L581.241 58.6959
L581.241 58.6959
L586.397 54.0358
L589.895 54.0358
L590.43 55.3673
L594.874 60.6931
L598.808 70.0134
L600.647 73.3421
L601.013 73.3421
L611.476 64.6876
L613.711 64.6876
L618.834 68.682
L621.178 72.0106
L628.792 72.0106
L633.021 60.0274
L634.026 59.3617
L634.638 58.6959
L634.966 58.6959
L635.631 57.3645
L645.379 75.3393
L647.866 75.3393
L649.46 77.3365
L652.86 79.9994
L655.559 79.9994
L656.581 79.3337
L657.161 78.668
L660.102 74.6736
L664.968 73.3421
L666.841 73.3421
L666.858 74.0078
L674.964 78.668
L686.311 68.682
L686.311 68.682
L691.97 69.3477
L694.432 72.0106
L695.184 72.0106
L696.734 71.3449
L698.68 70.6792
L700.552 70.6792
L707.04 69.3477
L707.04 69.3477" style="fill:none;stroke:#0000ff;stroke-linecap:square;stroke-width:2;"/>
   </g>
   <g id="matplotlib.axis_1">
    <g id="xtick_1">
     <g id="line2d_2">
      <defs>
       <path d="
M0 0
L0 -4" id="m93b0483c22" style="stroke:#000000;stroke-width:0.5;"/>
      </defs>
      <g>
       <use style="stroke:#000000;stroke-width:0.5;" x="54.52875" xlink:href="#m93b0483c22" y="98.64"/>
      </g>
     </g>
     <g id="line2d_3">
      <defs>
       <path d="
M0 0
L0 4" id="m741efc42ff" style="stroke:#000000;stroke-width:0.5;"/>
      </defs>
      <g>
       <use style="stroke:#000000;stroke-width:0.5;" x="54.52875" xlink:href="#m741efc42ff" y="12.96"/>
      </g>
     </g>
     <g id="text_1">
      <!-- 0 -->
      <defs>
       <path d="
M31.7812 66.4062
Q24.1719 66.4062 20.3281 58.9062
Q16.5 51.4219 16.5 36.375
Q16.5 21.3906 20.3281 13.8906
Q24.1719 6.39062 31.7812 6.39062
Q39.4531 6.39062 43.2812 13.8906
Q47.125 21.3906 47.125 36.375
Q47.125 51.4219 43.2812 58.9062
Q39.4531 66.4062 31.7812 66.4062
M31.7812 74.2188
Q44.0469 74.2188 50.5156 64.5156
Q56.9844 54.8281 56.9844 36.375
Q56.9844 17.9688 50.5156 8.26562
Q44.0469 -1.42188 31.7812 -1.42188
Q19.5312 -1.42188 13.0625 8.26562
Q6.59375 17.9688 6.59375 36.375
Q6.59375 54.8281 13.0625 64.5156
Q19.5312 74.2188 31.7812 74.2188" id="BitstreamVeraSans-Roman-30"/>
      </defs>
      <g transform="translate(51.5053125 111.758125)scale(0.12 -0.12)">
       <use xlink:href="#BitstreamVeraSans-Roman-30"/>
      </g>
     </g>
    </g>
    <g id="xtick_2">
     <g id="line2d_4">
      <g>
       <use style="stroke:#000000;stroke-width:0.5;" x="151.160771062" xlink:href="#m93b0483c22" y="98.64"/>
      </g>
     </g>
     <g id="line2d_5">
      <g>
       <use style="stroke:#000000;stroke-width:0.5;" x="151.160771062" xlink:href="#m741efc42ff" y="12.96"/>
      </g>
     </g>
     <g id="text_2">
      <!-- 5 -->
      <defs>
       <path d="
M10.7969 72.9062
L49.5156 72.9062
L49.5156 64.5938
L19.8281 64.5938
L19.8281 46.7344
Q21.9688 47.4688 24.1094 47.8281
Q26.2656 48.1875 28.4219 48.1875
Q40.625 48.1875 47.75 41.5
Q54.8906 34.8125 54.8906 23.3906
Q54.8906 11.625 47.5625 5.09375
Q40.2344 -1.42188 26.9062 -1.42188
Q22.3125 -1.42188 17.5469 -0.640625
Q12.7969 0.140625 7.71875 1.70312
L7.71875 11.625
Q12.1094 9.23438 16.7969 8.0625
Q21.4844 6.89062 26.7031 6.89062
Q35.1562 6.89062 40.0781 11.3281
Q45.0156 15.7656 45.0156 23.3906
Q45.0156 31 40.0781 35.4375
Q35.1562 39.8906 26.7031 39.8906
Q22.75 39.8906 18.8125 39.0156
Q14.8906 38.1406 10.7969 36.2812
z
" id="BitstreamVeraSans-Roman-35"/>
      </defs>
      <g transform="translate(148.330458562 111.758125)scale(0.12 -0.12)">
       <use xlink:href="#BitstreamVeraSans-Roman-35"/>
      </g>
     </g>
    </g>
    <g id="xtick_3">
     <g id="line2d_6">
      <g>
       <use style="stroke:#000000;stroke-width:0.5;" x="247.792792124" xlink:href="#m93b0483c22" y="98.64"/>
      </g>
     </g>
     <g id="line2d_7">
      <g>
       <use style="stroke:#000000;stroke-width:0.5;" x="247.792792124" xlink:href="#m741efc42ff" y="12.96"/>
      </g>
     </g>
     <g id="text_3">
      <!-- 10 -->
      <defs>
       <path d="
M12.4062 8.29688
L28.5156 8.29688
L28.5156 63.9219
L10.9844 60.4062
L10.9844 69.3906
L28.4219 72.9062
L38.2812 72.9062
L38.2812 8.29688
L54.3906 8.29688
L54.3906 0
L12.4062 0
z
" id="BitstreamVeraSans-Roman-31"/>
      </defs>
      <g transform="translate(241.215292124 111.758125)scale(0.12 -0.12)">
       <use xlink:href="#BitstreamVeraSans-Roman-31"/>
       <use x="63.623046875" xlink:href="#BitstreamVeraSans-Roman-30"/>
      </g>
     </g>
    </g>
    <g id="xtick_4">
     <g id="line2d_8">
      <g>
       <use style="stroke:#000000;stroke-width:0.5;" x="344.424813186" xlink:href="#m93b0483c22" y="98.64"/>
      </g>
     </g>
     <g id="line2d_9">
      <g>
       <use style="stroke:#000000;stroke-width:0.5;" x="344.424813186" xlink:href="#m741efc42ff" y="12.96"/>
      </g>
     </g>
     <g id="text_4">
      <!-- 15 -->
      <g transform="translate(337.972938186 111.758125)scale(0.12 -0.12)">
       <use xlink:href="#BitstreamVeraSans-Roman-31"/>
       <use x="63.623046875" xlink:href="#BitstreamVeraSans-Roman-35"/>
      </g>
     </g>
    </g>
    <g id="xtick_5">
     <g id="line2d_10">
      <g>
       <use style="stroke:#000000;stroke-width:0.5;" x="441.056834248" xlink:href="#m93b0483c22" y="98.64"/>
      </g>
     </g>
     <g id="line2d_11">
      <g>
       <use style="stroke:#000000;stroke-width:0.5;" x="441.056834248" xlink:href="#m741efc42ff" y="12.96"/>
      </g>
     </g>
     <g id="text_5">
      <!-- 20 -->
      <defs>
       <path d="
M19.1875 8.29688
L53.6094 8.29688
L53.6094 0
L7.32812 0
L7.32812 8.29688
Q12.9375 14.1094 22.625 23.8906
Q32.3281 33.6875 34.8125 36.5312
Q39.5469 41.8438 41.4219 45.5312
Q43.3125 49.2188 43.3125 52.7812
Q43.3125 58.5938 39.2344 62.25
Q35.1562 65.9219 28.6094 65.9219
Q23.9688 65.9219 18.8125 64.3125
Q13.6719 62.7031 7.8125 59.4219
L7.8125 69.3906
Q13.7656 71.7812 18.9375 73
Q24.125 74.2188 28.4219 74.2188
Q39.75 74.2188 46.4844 68.5469
Q53.2188 62.8906 53.2188 53.4219
Q53.2188 48.9219 51.5312 44.8906
Q49.8594 40.875 45.4062 35.4062
Q44.1875 33.9844 37.6406 27.2188
Q31.1094 20.4531 19.1875 8.29688" id="BitstreamVeraSans-Roman-32"/>
      </defs>
      <g transform="translate(434.259959248 111.758125)scale(0.12 -0.12)">
       <use xlink:href="#BitstreamVeraSans-Roman-32"/>
       <use x="63.623046875" xlink:href="#BitstreamVeraSans-Roman-30"/>
      </g>
     </g>
    </g>
    <g id="xtick_6">
     <g id="line2d_12">
      <g>
       <use style="stroke:#000000;stroke-width:0.5;" x="537.68885531" xlink:href="#m93b0483c22" y="98.64"/>
      </g>
     </g>
     <g id="line2d_13">
      <g>
       <use style="stroke:#000000;stroke-width:0.5;" x="537.68885531" xlink:href="#m741efc42ff" y="12.96"/>
      </g>
     </g>
     <g id="text_6">
      <!-- 25 -->
      <g transform="translate(531.01760531 111.758125)scale(0.12 -0.12)">
       <use xlink:href="#BitstreamVeraSans-Roman-32"/>
       <use x="63.623046875" xlink:href="#BitstreamVeraSans-Roman-35"/>
      </g>
     </g>
    </g>
    <g id="xtick_7">
     <g id="line2d_14">
      <g>
       <use style="stroke:#000000;stroke-width:0.5;" x="634.320876372" xlink:href="#m93b0483c22" y="98.64"/>
      </g>
     </g>
     <g id="line2d_15">
      <g>
       <use style="stroke:#000000;stroke-width:0.5;" x="634.320876372" xlink:href="#m741efc42ff" y="12.96"/>
      </g>
     </g>
     <g id="text_7">
      <!-- 30 -->
      <defs>
       <path d="
M40.5781 39.3125
Q47.6562 37.7969 51.625 33
Q55.6094 28.2188 55.6094 21.1875
Q55.6094 10.4062 48.1875 4.48438
Q40.7656 -1.42188 27.0938 -1.42188
Q22.5156 -1.42188 17.6562 -0.515625
Q12.7969 0.390625 7.625 2.20312
L7.625 11.7188
Q11.7188 9.32812 16.5938 8.10938
Q21.4844 6.89062 26.8125 6.89062
Q36.0781 6.89062 40.9375 10.5469
Q45.7969 14.2031 45.7969 21.1875
Q45.7969 27.6406 41.2812 31.2656
Q36.7656 34.9062 28.7188 34.9062
L20.2188 34.9062
L20.2188 43.0156
L29.1094 43.0156
Q36.375 43.0156 40.2344 45.9219
Q44.0938 48.8281 44.0938 54.2969
Q44.0938 59.9062 40.1094 62.9062
Q36.1406 65.9219 28.7188 65.9219
Q24.6562 65.9219 20.0156 65.0312
Q15.375 64.1562 9.8125 62.3125
L9.8125 71.0938
Q15.4375 72.6562 20.3438 73.4375
Q25.25 74.2188 29.5938 74.2188
Q40.8281 74.2188 47.3594 69.1094
Q53.9062 64.0156 53.9062 55.3281
Q53.9062 49.2656 50.4375 45.0938
Q46.9688 40.9219 40.5781 39.3125" id="BitstreamVeraSans-Roman-33"/>
      </defs>
      <g transform="translate(627.541813872 111.758125)scale(0.12 -0.12)">
       <use xlink:href="#BitstreamVeraSans-Roman-33"/>
       <use x="63.623046875" xlink:href="#BitstreamVeraSans-Roman-30"/>
      </g>
     </g>
    </g>
    <g id="text_8">
     <!-- Distance, km -->
     <defs>
      <path id="BitstreamVeraSans-Roman-20"/>
      <path d="
M54.8906 33.0156
L54.8906 0
L45.9062 0
L45.9062 32.7188
Q45.9062 40.4844 42.875 44.3281
Q39.8438 48.1875 33.7969 48.1875
Q26.5156 48.1875 22.3125 43.5469
Q18.1094 38.9219 18.1094 30.9062
L18.1094 0
L9.07812 0
L9.07812 54.6875
L18.1094 54.6875
L18.1094 46.1875
Q21.3438 51.125 25.7031 53.5625
Q30.0781 56 35.7969 56
Q45.2188 56 50.0469 50.1719
Q54.8906 44.3438 54.8906 33.0156" id="BitstreamVeraSans-Roman-6e"/>
      <path d="
M52 44.1875
Q55.375 50.25 60.0625 53.125
Q64.75 56 71.0938 56
Q79.6406 56 84.2812 50.0156
Q88.9219 44.0469 88.9219 33.0156
L88.9219 0
L79.8906 0
L79.8906 32.7188
Q79.8906 40.5781 77.0938 44.375
Q74.3125 48.1875 68.6094 48.1875
Q61.625 48.1875 57.5625 43.5469
Q53.5156 38.9219 53.5156 30.9062
L53.5156 0
L44.4844 0
L44.4844 32.7188
Q44.4844 40.625 41.7031 44.4062
Q38.9219 48.1875 33.1094 48.1875
Q26.2188 48.1875 22.1562 43.5312
Q18.1094 38.875 18.1094 30.9062
L18.1094 0
L9.07812 0
L9.07812 54.6875
L18.1094 54.6875
L18.1094 46.1875
Q21.1875 51.2188 25.4844 53.6094
Q29.7812 56 35.6875 56
Q41.6562 56 45.8281 52.9688
Q50 49.9531 52 44.1875" id="BitstreamVeraSans-Roman-6d"/>
      <path d="
M9.07812 75.9844
L18.1094 75.9844
L18.1094 31.1094
L44.9219 54.6875
L56.3906 54.6875
L27.3906 29.1094
L57.625 0
L45.9062 0
L18.1094 26.7031
L18.1094 0
L9.07812 0
z
" id="BitstreamVeraSans-Roman-6b"/>
      <path d="
M11.7188 12.4062
L22.0156 12.4062
L22.0156 4
L14.0156 -11.625
L7.71875 -11.625
L11.7188 4
z
" id="BitstreamVeraSans-Roman-2c"/>
      <path d="
M19.6719 64.7969
L19.6719 8.10938
L31.5938 8.10938
Q46.6875 8.10938 53.6875 14.9375
Q60.6875 21.7812 60.6875 36.5312
Q60.6875 51.1719 53.6875 57.9844
Q46.6875 64.7969 31.5938 64.7969
z

M9.8125 72.9062
L30.0781 72.9062
Q51.2656 72.9062 61.1719 64.0938
Q71.0938 55.2812 71.0938 36.5312
Q71.0938 17.6719 61.125 8.82812
Q51.1719 0 30.0781 0
L9.8125 0
z
" id="BitstreamVeraSans-Roman-44"/>
      <path d="
M9.42188 54.6875
L18.4062 54.6875
L18.4062 0
L9.42188 0
z

M9.42188 75.9844
L18.4062 75.9844
L18.4062 64.5938
L9.42188 64.5938
z
" id="BitstreamVeraSans-Roman-69"/>
      <path d="
M56.2031 29.5938
L56.2031 25.2031
L14.8906 25.2031
Q15.4844 15.9219 20.4844 11.0625
Q25.4844 6.20312 34.4219 6.20312
Q39.5938 6.20312 44.4531 7.46875
Q49.3125 8.73438 54.1094 11.2812
L54.1094 2.78125
Q49.2656 0.734375 44.1875 -0.34375
Q39.1094 -1.42188 33.8906 -1.42188
Q20.7969 -1.42188 13.1562 6.1875
Q5.51562 13.8125 5.51562 26.8125
Q5.51562 40.2344 12.7656 48.1094
Q20.0156 56 32.3281 56
Q43.3594 56 49.7812 48.8906
Q56.2031 41.7969 56.2031 29.5938
M47.2188 32.2344
Q47.125 39.5938 43.0938 43.9844
Q39.0625 48.3906 32.4219 48.3906
Q24.9062 48.3906 20.3906 44.1406
Q15.875 39.8906 15.1875 32.1719
z
" id="BitstreamVeraSans-Roman-65"/>
      <path d="
M18.3125 70.2188
L18.3125 54.6875
L36.8125 54.6875
L36.8125 47.7031
L18.3125 47.7031
L18.3125 18.0156
Q18.3125 11.3281 20.1406 9.42188
Q21.9688 7.51562 27.5938 7.51562
L36.8125 7.51562
L36.8125 0
L27.5938 0
Q17.1875 0 13.2344 3.875
Q9.28125 7.76562 9.28125 18.0156
L9.28125 47.7031
L2.6875 47.7031
L2.6875 54.6875
L9.28125 54.6875
L9.28125 70.2188
z
" id="BitstreamVeraSans-Roman-74"/>
      <path d="
M34.2812 27.4844
Q23.3906 27.4844 19.1875 25
Q14.9844 22.5156 14.9844 16.5
Q14.9844 11.7188 18.1406 8.90625
Q21.2969 6.10938 26.7031 6.10938
Q34.1875 6.10938 38.7031 11.4062
Q43.2188 16.7031 43.2188 25.4844
L43.2188 27.4844
z

M52.2031 31.2031
L52.2031 0
L43.2188 0
L43.2188 8.29688
Q40.1406 3.32812 35.5469 0.953125
Q30.9531 -1.42188 24.3125 -1.42188
Q15.9219 -1.42188 10.9531 3.29688
Q6 8.01562 6 15.9219
Q6 25.1406 12.1719 29.8281
Q18.3594 34.5156 30.6094 34.5156
L43.2188 34.5156
L43.2188 35.4062
Q43.2188 41.6094 39.1406 45
Q35.0625 48.3906 27.6875 48.3906
Q23 48.3906 18.5469 47.2656
Q14.1094 46.1406 10.0156 43.8906
L10.0156 52.2031
Q14.9375 54.1094 19.5781 55.0469
Q24.2188 56 28.6094 56
Q40.4844 56 46.3438 49.8438
Q52.2031 43.7031 52.2031 31.2031" id="BitstreamVeraSans-Roman-61"/>
      <path d="
M44.2812 53.0781
L44.2812 44.5781
Q40.4844 46.5312 36.375 47.5
Q32.2812 48.4844 27.875 48.4844
Q21.1875 48.4844 17.8438 46.4375
Q14.5 44.3906 14.5 40.2812
Q14.5 37.1562 16.8906 35.375
Q19.2812 33.5938 26.5156 31.9844
L29.5938 31.2969
Q39.1562 29.25 43.1875 25.5156
Q47.2188 21.7812 47.2188 15.0938
Q47.2188 7.46875 41.1875 3.01562
Q35.1562 -1.42188 24.6094 -1.42188
Q20.2188 -1.42188 15.4531 -0.5625
Q10.6875 0.296875 5.42188 2
L5.42188 11.2812
Q10.4062 8.6875 15.2344 7.39062
Q20.0625 6.10938 24.8125 6.10938
Q31.1562 6.10938 34.5625 8.28125
Q37.9844 10.4531 37.9844 14.4062
Q37.9844 18.0625 35.5156 20.0156
Q33.0625 21.9688 24.7031 23.7812
L21.5781 24.5156
Q13.2344 26.2656 9.51562 29.9062
Q5.8125 33.5469 5.8125 39.8906
Q5.8125 47.6094 11.2812 51.7969
Q16.75 56 26.8125 56
Q31.7812 56 36.1719 55.2656
Q40.5781 54.5469 44.2812 53.0781" id="BitstreamVeraSans-Roman-73"/>
      <path d="
M48.7812 52.5938
L48.7812 44.1875
Q44.9688 46.2969 41.1406 47.3438
Q37.3125 48.3906 33.4062 48.3906
Q24.6562 48.3906 19.8125 42.8438
Q14.9844 37.3125 14.9844 27.2969
Q14.9844 17.2812 19.8125 11.7344
Q24.6562 6.20312 33.4062 6.20312
Q37.3125 6.20312 41.1406 7.25
Q44.9688 8.29688 48.7812 10.4062
L48.7812 2.09375
Q45.0156 0.34375 40.9844 -0.53125
Q36.9688 -1.42188 32.4219 -1.42188
Q20.0625 -1.42188 12.7812 6.34375
Q5.51562 14.1094 5.51562 27.2969
Q5.51562 40.6719 12.8594 48.3281
Q20.2188 56 33.0156 56
Q37.1562 56 41.1094 55.1406
Q45.0625 54.2969 48.7812 52.5938" id="BitstreamVeraSans-Roman-63"/>
     </defs>
     <g transform="translate(341.9259375 128.371875)scale(0.12 -0.12)">
      <use xlink:href="#BitstreamVeraSans-Roman-44"/>
      <use x="77.001953125" xlink:href="#BitstreamVeraSans-Roman-69"/>
      <use x="104.78515625" xlink:href="#BitstreamVeraSans-Roman-73"/>
      <use x="156.884765625" xlink:href="#BitstreamVeraSans-Roman-74"/>
      <use x="196.09375" xlink:href="#BitstreamVeraSans-Roman-61"/>
      <use x="257.373046875" xlink:href="#BitstreamVeraSans-Roman-6e"/>
      <use x="320.751953125" xlink:href="#BitstreamVeraSans-Roman-63"/>
      <use x="375.732421875" xlink:href="#BitstreamVeraSans-Roman-65"/>
      <use x="437.255859375" xlink:href="#BitstreamVeraSans-Roman-2c"/>
      <use x="469.04296875" xlink:href="#BitstreamVeraSans-Roman-20"/>
      <use x="500.830078125" xlink:href="#BitstreamVeraSans-Roman-6b"/>
      <use x="558.740234375" xlink:href="#BitstreamVeraSans-Roman-6d"/>
     </g>
    </g>
   </g>
   <g id="matplotlib.axis_2">
    <g id="ytick_1">
     <g id="line2d_16">
      <defs>
       <path d="
M0 0
L4 0" id="m728421d6d4" style="stroke:#000000;stroke-width:0.5;"/>
      </defs>
      <g>
       <use style="stroke:#000000;stroke-width:0.5;" x="54.52875" xlink:href="#m728421d6d4" y="98.64"/>
      </g>
     </g>
     <g id="line2d_17">
      <defs>
       <path d="
M0 0
L-4 0" id="mcb0005524f" style="stroke:#000000;stroke-width:0.5;"/>
      </defs>
      <g>
       <use style="stroke:#000000;stroke-width:0.5;" x="707.04" xlink:href="#mcb0005524f" y="98.64"/>
      </g>
     </g>
     <g id="text_9">
      <!-- 0 -->
      <g transform="translate(44.481875 101.95125)scale(0.12 -0.12)">
       <use xlink:href="#BitstreamVeraSans-Roman-30"/>
      </g>
     </g>
    </g>
    <g id="ytick_2">
     <g id="line2d_18">
      <g>
       <use style="stroke:#000000;stroke-width:0.5;" x="54.52875" xlink:href="#m728421d6d4" y="85.3253146853"/>
      </g>
     </g>
     <g id="line2d_19">
      <g>
       <use style="stroke:#000000;stroke-width:0.5;" x="707.04" xlink:href="#mcb0005524f" y="85.3253146853"/>
      </g>
     </g>
     <g id="text_10">
      <!-- 20 -->
      <g transform="translate(36.935 88.6365646853)scale(0.12 -0.12)">
       <use xlink:href="#BitstreamVeraSans-Roman-32"/>
       <use x="63.623046875" xlink:href="#BitstreamVeraSans-Roman-30"/>
      </g>
     </g>
    </g>
    <g id="ytick_3">
     <g id="line2d_20">
      <g>
       <use style="stroke:#000000;stroke-width:0.5;" x="54.52875" xlink:href="#m728421d6d4" y="72.0106293706"/>
      </g>
     </g>
     <g id="line2d_21">
      <g>
       <use style="stroke:#000000;stroke-width:0.5;" x="707.04" xlink:href="#mcb0005524f" y="72.0106293706"/>
      </g>
     </g>
     <g id="text_11">
      <!-- 40 -->
      <defs>
       <path d="
M37.7969 64.3125
L12.8906 25.3906
L37.7969 25.3906
z

M35.2031 72.9062
L47.6094 72.9062
L47.6094 25.3906
L58.0156 25.3906
L58.0156 17.1875
L47.6094 17.1875
L47.6094 0
L37.7969 0
L37.7969 17.1875
L4.89062 17.1875
L4.89062 26.7031
z
" id="BitstreamVeraSans-Roman-34"/>
      </defs>
      <g transform="translate(36.6425 75.3218793706)scale(0.12 -0.12)">
       <use xlink:href="#BitstreamVeraSans-Roman-34"/>
       <use x="63.623046875" xlink:href="#BitstreamVeraSans-Roman-30"/>
      </g>
     </g>
    </g>
    <g id="ytick_4">
     <g id="line2d_22">
      <g>
       <use style="stroke:#000000;stroke-width:0.5;" x="54.52875" xlink:href="#m728421d6d4" y="58.6959440559"/>
      </g>
     </g>
     <g id="line2d_23">
      <g>
       <use style="stroke:#000000;stroke-width:0.5;" x="707.04" xlink:href="#mcb0005524f" y="58.6959440559"/>
      </g>
     </g>
     <g id="text_12">
      <!-- 60 -->
      <defs>
       <path d="
M33.0156 40.375
Q26.375 40.375 22.4844 35.8281
Q18.6094 31.2969 18.6094 23.3906
Q18.6094 15.5312 22.4844 10.9531
Q26.375 6.39062 33.0156 6.39062
Q39.6562 6.39062 43.5312 10.9531
Q47.4062 15.5312 47.4062 23.3906
Q47.4062 31.2969 43.5312 35.8281
Q39.6562 40.375 33.0156 40.375
M52.5938 71.2969
L52.5938 62.3125
Q48.875 64.0625 45.0938 64.9844
Q41.3125 65.9219 37.5938 65.9219
Q27.8281 65.9219 22.6719 59.3281
Q17.5312 52.7344 16.7969 39.4062
Q19.6719 43.6562 24.0156 45.9219
Q28.375 48.1875 33.5938 48.1875
Q44.5781 48.1875 50.9531 41.5156
Q57.3281 34.8594 57.3281 23.3906
Q57.3281 12.1562 50.6875 5.35938
Q44.0469 -1.42188 33.0156 -1.42188
Q20.3594 -1.42188 13.6719 8.26562
Q6.98438 17.9688 6.98438 36.375
Q6.98438 53.6562 15.1875 63.9375
Q23.3906 74.2188 37.2031 74.2188
Q40.9219 74.2188 44.7031 73.4844
Q48.4844 72.75 52.5938 71.2969" id="BitstreamVeraSans-Roman-36"/>
      </defs>
      <g transform="translate(36.89375 62.0071940559)scale(0.12 -0.12)">
       <use xlink:href="#BitstreamVeraSans-Roman-36"/>
       <use x="63.623046875" xlink:href="#BitstreamVeraSans-Roman-30"/>
      </g>
     </g>
    </g>
    <g id="ytick_5">
     <g id="line2d_24">
      <g>
       <use style="stroke:#000000;stroke-width:0.5;" x="54.52875" xlink:href="#m728421d6d4" y="45.3812587413"/>
      </g>
     </g>
     <g id="line2d_25">
      <g>
       <use style="stroke:#000000;stroke-width:0.5;" x="707.04" xlink:href="#mcb0005524f" y="45.3812587413"/>
      </g>
     </g>
     <g id="text_13">
      <!-- 80 -->
      <defs>
       <path d="
M31.7812 34.625
Q24.75 34.625 20.7188 30.8594
Q16.7031 27.0938 16.7031 20.5156
Q16.7031 13.9219 20.7188 10.1562
Q24.75 6.39062 31.7812 6.39062
Q38.8125 6.39062 42.8594 10.1719
Q46.9219 13.9688 46.9219 20.5156
Q46.9219 27.0938 42.8906 30.8594
Q38.875 34.625 31.7812 34.625
M21.9219 38.8125
Q15.5781 40.375 12.0312 44.7188
Q8.5 49.0781 8.5 55.3281
Q8.5 64.0625 14.7188 69.1406
Q20.9531 74.2188 31.7812 74.2188
Q42.6719 74.2188 48.875 69.1406
Q55.0781 64.0625 55.0781 55.3281
Q55.0781 49.0781 51.5312 44.7188
Q48 40.375 41.7031 38.8125
Q48.8281 37.1562 52.7969 32.3125
Q56.7812 27.4844 56.7812 20.5156
Q56.7812 9.90625 50.3125 4.23438
Q43.8438 -1.42188 31.7812 -1.42188
Q19.7344 -1.42188 13.25 4.23438
Q6.78125 9.90625 6.78125 20.5156
Q6.78125 27.4844 10.7812 32.3125
Q14.7969 37.1562 21.9219 38.8125
M18.3125 54.3906
Q18.3125 48.7344 21.8438 45.5625
Q25.3906 42.3906 31.7812 42.3906
Q38.1406 42.3906 41.7188 45.5625
Q45.3125 48.7344 45.3125 54.3906
Q45.3125 60.0625 41.7188 63.2344
Q38.1406 66.4062 31.7812 66.4062
Q25.3906 66.4062 21.8438 63.2344
Q18.3125 60.0625 18.3125 54.3906" id="BitstreamVeraSans-Roman-38"/>
      </defs>
      <g transform="translate(36.869375 48.6925087413)scale(0.12 -0.12)">
       <use xlink:href="#BitstreamVeraSans-Roman-38"/>
       <use x="63.623046875" xlink:href="#BitstreamVeraSans-Roman-30"/>
      </g>
     </g>
    </g>
    <g id="ytick_6">
     <g id="line2d_26">
      <g>
       <use style="stroke:#000000;stroke-width:0.5;" x="54.52875" xlink:href="#m728421d6d4" y="32.0665734266"/>
      </g>
     </g>
     <g id="line2d_27">
      <g>
       <use style="stroke:#000000;stroke-width:0.5;" x="707.04" xlink:href="#mcb0005524f" y="32.0665734266"/>
      </g>
     </g>
     <g id="text_14">
      <!-- 100 -->
      <g transform="translate(29.73875 35.3778234266)scale(0.12 -0.12)">
       <use xlink:href="#BitstreamVeraSans-Roman-31"/>
       <use x="63.623046875" xlink:href="#BitstreamVeraSans-Roman-30"/>
       <use x="127.24609375" xlink:href="#BitstreamVeraSans-Roman-30"/>
      </g>
     </g>
    </g>
    <g id="ytick_7">
     <g id="line2d_28">
      <g>
       <use style="stroke:#000000;stroke-width:0.5;" x="54.52875" xlink:href="#m728421d6d4" y="18.7518881119"/>
      </g>
     </g>
     <g id="line2d_29">
      <g>
       <use style="stroke:#000000;stroke-width:0.5;" x="707.04" xlink:href="#mcb0005524f" y="18.7518881119"/>
      </g>
     </g>
     <g id="text_15">
      <!-- 120 -->
      <g transform="translate(29.73875 22.0631381119)scale(0.12 -0.12)">
       <use xlink:href="#BitstreamVeraSans-Roman-31"/>
       <use x="63.623046875" xlink:href="#BitstreamVeraSans-Roman-32"/>
       <use x="127.24609375" xlink:href="#BitstreamVeraSans-Roman-30"/>
      </g>
     </g>
    </g>
    <g id="text_16">
     <!-- Elevation, m -->
     <defs>
      <path d="
M2.98438 54.6875
L12.5 54.6875
L29.5938 8.79688
L46.6875 54.6875
L56.2031 54.6875
L35.6875 0
L23.4844 0
z
" id="BitstreamVeraSans-Roman-76"/>
      <path d="
M9.8125 72.9062
L55.9062 72.9062
L55.9062 64.5938
L19.6719 64.5938
L19.6719 43.0156
L54.3906 43.0156
L54.3906 34.7188
L19.6719 34.7188
L19.6719 8.29688
L56.7812 8.29688
L56.7812 0
L9.8125 0
z
" id="BitstreamVeraSans-Roman-45"/>
      <path d="
M30.6094 48.3906
Q23.3906 48.3906 19.1875 42.75
Q14.9844 37.1094 14.9844 27.2969
Q14.9844 17.4844 19.1562 11.8438
Q23.3438 6.20312 30.6094 6.20312
Q37.7969 6.20312 41.9844 11.8594
Q46.1875 17.5312 46.1875 27.2969
Q46.1875 37.0156 41.9844 42.7031
Q37.7969 48.3906 30.6094 48.3906
M30.6094 56
Q42.3281 56 49.0156 48.375
Q55.7188 40.7656 55.7188 27.2969
Q55.7188 13.875 49.0156 6.21875
Q42.3281 -1.42188 30.6094 -1.42188
Q18.8438 -1.42188 12.1719 6.21875
Q5.51562 13.875 5.51562 27.2969
Q5.51562 40.7656 12.1719 48.375
Q18.8438 56 30.6094 56" id="BitstreamVeraSans-Roman-6f"/>
      <path d="
M9.42188 75.9844
L18.4062 75.9844
L18.4062 0
L9.42188 0
z
" id="BitstreamVeraSans-Roman-6c"/>
     </defs>
     <g transform="translate(22.243125 92.82)rotate(-90.0)scale(0.12 -0.12)">
      <use xlink:href="#BitstreamVeraSans-Roman-45"/>
      <use x="63.18359375" xlink:href="#BitstreamVeraSans-Roman-6c"/>
      <use x="90.966796875" xlink:href="#BitstreamVeraSans-Roman-65"/>
      <use x="152.490234375" xlink:href="#BitstreamVeraSans-Roman-76"/>
      <use x="211.669921875" xlink:href="#BitstreamVeraSans-Roman-61"/>
      <use x="272.94921875" xlink:href="#BitstreamVeraSans-Roman-74"/>
      <use x="312.158203125" xlink:href="#BitstreamVeraSans-Roman-69"/>
      <use x="339.94140625" xlink:href="#BitstreamVeraSans-Roman-6f"/>
      <use x="401.123046875" xlink:href="#BitstreamVeraSans-Roman-6e"/>
      <use x="464.501953125" xlink:href="#BitstreamVeraSans-Roman-2c"/>
      <use x="496.2890625" xlink:href="#BitstreamVeraSans-Roman-20"/>
      <use x="528.076171875" xlink:href="#BitstreamVeraSans-Roman-6d"/>
     </g>
    </g>
   </g>
   <g id="patch_3">
    <path d="
M54.5288 12.96
L707.04 12.96" style="fill:none;stroke:#000000;"/>
   </g>
   <g id="patch_4">
    <path d="
M707.04 98.64
L707.04 12.96" style="fill:none;stroke:#000000;"/>
   </g>
   <g id="patch_5">
    <path d="
M54.5288 98.64
L707.04 98.64" style="fill:none;stroke:#000000;"/>
   </g>
   <g id="patch_6">
    <path d="
M54.5288 98.64
L54.5288 12.96" style="fill:none;stroke:#000000;"/>
   </g>
  </g>
 </g>
 <defs>
  <clipPath id="pf0090d736b">
   <rect height="85.68" width="652.51125" x="54.52875" y="12.96"/>
  </clipPath>
 </defs>
</svg>
