<?xml version="1.0" encoding="utf-8" standalone="no"?>
<!DOCTYPE svg PUBLIC "-//W3C//DTD SVG 1.1//EN"
  "http://www.w3.org/Graphics/SVG/1.1/DTD/svg11.dtd">
<!-- Created with matplotlib (http://matplotlib.org/) -->
<svg height="144pt" version="1.1" viewBox="0 0 720 144" width="720pt" xmlns="http://www.w3.org/2000/svg" xmlns:xlink="http://www.w3.org/1999/xlink">
 <defs>
  <style type="text/css">
*{stroke-linecap:butt;stroke-linejoin:round;}
  </style>
 </defs>
 <g id="figure_1">
  <g id="patch_1">
   <path d="
M0 144
L720 144
L720 0
L0 0
z
" style="fill:#ffffff;"/>
  </g>
  <g id="axes_1">
   <g id="patch_2">
    <path d="
M51.1234 101.135
L707.04 101.135
L707.04 12.96
L51.1234 12.96
z
" style="fill:#ffffff;"/>
   </g>
   <g id="PolyCollection_1">
    <defs>
     <path d="
M51.5818 -42.8647
L51.5818 -56.5672
L52.0756 -56.5672
L52.5833 -56.5672
L53.9206 -56.5672
L54.5261 -56.5672
L55.8521 -56.5672
L56.7844 -56.5672
L57.8277 -56.5672
L61.8605 -56.5672
L63.1277 -56.5672
L63.6527 -56.5672
L64.28 -56.5672
L65.9121 -56.5672
L67.5885 -56.5672
L68.5391 -56.5672
L74.1565 -56.5672
L75.0728 -56.5672
L76.3296 -56.5672
L77.4392 -56.5672
L78.9485 -56.5672
L80.7321 -56.5672
L83.072 -56.5672
L84.0081 -56.5672
L84.6817 -56.5672
L95.9302 -56.5672
L96.5977 -56.5672
L96.6193 -56.5672
L98.6671 -56.5672
L99.4532 -56.5672
L100.663 -56.5672
L102.995 -56.5672
L104.867 -56.5672
L105.537 -56.5672
L108.496 -56.5672
L110.311 -56.5672
L111.9 -56.5672
L113.35 -56.5672
L116.575 -56.5672
L119.096 -56.5672
L119.684 -56.5672
L120.261 -56.5672
L125.534 -56.5672
L128.01 -56.5672
L130.021 -56.5672
L130.021 -56.5672
L132.419 -56.5672
L133.403 -56.5672
L134.421 -56.5672
L138.184 -56.5672
L143.297 -56.5672
L144.182 -56.5672
L159.082 -56.5672
L160.267 -56.5672
L162.068 -56.5672
L165.552 -56.5672
L168.994 -56.5672
L170.801 -56.5672
L171.548 -56.5672
L171.548 -56.5672
L173.041 -56.5672
L174.895 -56.5672
L175.747 -56.5672
L179.141 -56.5672
L179.42 -56.5672
L183.742 -56.5672
L186.36 -56.5672
L188.527 -56.5672
L189.298 -56.5672
L191.469 -56.5672
L193.341 -56.5672
L194.252 -56.5672
L195.017 -56.5672
L197.315 -56.5672
L197.608 -56.5672
L200.528 -56.5672
L200.968 -56.5672
L201.627 -56.5672
L204.318 -56.5672
L207.913 -56.5672
L215.634 -56.5672
L215.65 -56.5672
L219.268 -56.5672
L219.449 -56.5672
L220.838 -56.5672
L230.337 -56.5672
L233.58 -56.5672
L236.31 -56.5672
L250.099 -56.5672
L259.001 -56.5672
L259.001 -56.5672
L260.001 -56.5672
L261.074 -56.5672
L267.421 -56.5672
L270.037 -56.5672
L272.267 -56.5672
L274.748 -56.5672
L276.134 -56.5672
L277.39 -56.5672
L278.732 -56.5672
L281.45 -56.5672
L282.365 -56.5672
L284.265 -56.5672
L285 -56.5672
L286.185 -56.5672
L286.579 -56.5672
L288.473 -56.5672
L289.135 -56.5672
L290.011 -56.5672
L291.477 -56.5672
L297.611 -56.5672
L298.074 -56.5672
L298.507 -56.5672
L300.03 -56.5672
L300.656 -56.5672
L301.594 -56.5672
L302.84 -56.5672
L304.4 -56.5672
L308.499 -56.5672
L310.328 -56.5672
L310.328 -56.5672
L316.13 -56.5672
L321.305 -56.5672
L323.446 -56.5672
L325.351 -56.5672
L330.079 -56.5672
L336.572 -56.5672
L337.682 -56.5672
L339.033 -56.5672
L341.031 -56.5672
L342.711 -56.5672
L347.042 -56.5672
L349.946 -56.5672
L350.751 -56.5672
L350.767 -56.5672
L351.359 -56.5672
L352.158 -56.5672
L353.106 -56.5672
L354.108 -56.5672
L355.549 -56.5672
L356.289 -56.5672
L362.821 -56.5672
L372.942 -56.5672
L372.942 -56.5672
L380.255 -56.5672
L385.055 -56.5672
L385.755 -56.5672
L386.217 -56.5672
L389.233 -56.5672
L391.185 -56.5672
L391.202 -56.5672
L402.736 -56.5672
L403.408 -56.5672
L405.548 -56.5672
L406.884 -56.5672
L415.037 -56.5672
L416.374 -56.5672
L418.201 -56.5672
L419.052 -56.5672
L419.837 -56.5672
L420.468 -56.5672
L422.016 -56.5672
L422.778 -56.5672
L422.778 -56.5672
L423.534 -56.5672
L424.762 -56.5672
L425.312 -56.5672
L426.195 -56.5672
L426.747 -56.5672
L427.517 -56.5672
L431.382 -56.5672
L435.021 -56.5672
L439.091 -56.5672
L442.804 -56.5672
L451.192 -56.5672
L451.856 -56.5672
L452.779 -56.5672
L453.679 -56.5672
L456.597 -56.5672
L457.151 -56.5672
L459.492 -56.5672
L462.263 -56.5672
L470.191 -56.5672
L470.208 -56.5672
L483.162 -56.5672
L484.525 -56.5672
L487.083 -56.5672
L489.384 -56.5672
L492.004 -56.5672
L496.108 -56.5672
L505.727 -56.5672
L509.696 -56.5672
L515.207 -56.5672
L515.702 -56.5672
L517.068 -56.5672
L517.941 -56.5672
L518.715 -56.5672
L520.243 -56.5672
L520.567 -56.5672
L520.896 -56.5672
L521.282 -56.5672
L525.797 -56.5672
L525.814 -56.5672
L533.942 -56.5672
L534.336 -56.5672
L535.143 -56.5672
L535.49 -56.5672
L540.717 -56.5672
L541.467 -56.5672
L546.021 -56.5672
L546.65 -56.5672
L548.73 -56.5672
L549.67 -56.5672
L555.721 -56.5672
L556.18 -56.5672
L556.504 -56.5672
L557.329 -56.5672
L558.873 -56.5672
L560.406 -56.5672
L561.597 -56.5672
L562.705 -56.5672
L564.176 -56.5672
L566.946 -56.5672
L567.998 -56.5672
L571.563 -56.5672
L572.482 -56.5672
L573.325 -56.5672
L575.841 -56.5672
L576.425 -56.5672
L577.067 -56.5672
L577.329 -56.5672
L580.584 -56.5672
L580.584 -56.5672
L585.768 -56.5672
L585.993 -56.5672
L586.224 -56.5672
L587.327 -56.5672
L589.284 -56.5672
L589.821 -56.5672
L594.289 -56.5672
L598.243 -56.5672
L600.091 -56.5672
L600.459 -56.5672
L610.977 -56.5672
L611.413 -56.5672
L612.869 -56.5672
L613.224 -56.5672
L618.373 -56.5672
L620.729 -56.5672
L621.23 -56.5672
L624.608 -56.5672
L625.654 -56.5672
L626.363 -56.5672
L628.384 -56.5672
L632.635 -56.5672
L633.645 -56.5672
L634.26 -56.5672
L634.59 -56.5672
L635.259 -56.5672
L645.057 -56.5672
L645.809 -56.5672
L647.557 -56.5672
L649.159 -56.5672
L652.577 -56.5672
L653.377 -56.5672
L655.291 -56.5672
L656.318 -56.5672
L656.901 -56.5672
L659.857 -56.5672
L664.749 -56.5672
L666.632 -56.5672
L666.648 -56.5672
L674.796 -56.5672
L686.203 -56.5672
L686.203 -56.5672
L691.891 -56.5672
L694.367 -56.5672
L694.614 -56.5672
L695.122 -56.5672
L696.68 -56.5672
L698.636 -56.5672
L699.461 -56.5672
L700.518 -56.5672
L707.04 -56.5672
L707.04 -42.8647
L707.04 -42.8647
L700.518 -42.8647
L699.461 -42.8647
L698.636 -42.8647
L696.68 -42.8647
L695.122 -42.8647
L694.614 -42.8647
L694.367 -42.8647
L691.891 -42.8647
L686.203 -42.8647
L686.203 -42.8647
L674.796 -42.8647
L666.648 -42.8647
L666.632 -42.8647
L664.749 -42.8647
L659.857 -42.8647
L656.901 -42.8647
L656.318 -42.8647
L655.291 -42.8647
L653.377 -42.8647
L652.577 -42.8647
L649.159 -42.8647
L647.557 -42.8647
L645.809 -42.8647
L645.057 -42.8647
L635.259 -42.8647
L634.59 -42.8647
L634.26 -42.8647
L633.645 -42.8647
L632.635 -42.8647
L628.384 -42.8647
L626.363 -42.8647
L625.654 -42.8647
L624.608 -42.8647
L621.23 -42.8647
L620.729 -42.8647
L618.373 -42.8647
L613.224 -42.8647
L612.869 -42.8647
L611.413 -42.8647
L610.977 -42.8647
L600.459 -42.8647
L600.091 -42.8647
L598.243 -42.8647
L594.289 -42.8647
L589.821 -42.8647
L589.284 -42.8647
L587.327 -42.8647
L586.224 -42.8647
L585.993 -42.8647
L585.768 -42.8647
L580.584 -42.8647
L580.584 -42.8647
L577.329 -42.8647
L577.067 -42.8647
L576.425 -42.8647
L575.841 -42.8647
L573.325 -42.8647
L572.482 -42.8647
L571.563 -42.8647
L567.998 -42.8647
L566.946 -42.8647
L564.176 -42.8647
L562.705 -42.8647
L561.597 -42.8647
L560.406 -42.8647
L558.873 -42.8647
L557.329 -42.8647
L556.504 -42.8647
L556.18 -42.8647
L555.721 -42.8647
L549.67 -42.8647
L548.73 -42.8647
L546.65 -42.8647
L546.021 -42.8647
L541.467 -42.8647
L540.717 -42.8647
L535.49 -42.8647
L535.143 -42.8647
L534.336 -42.8647
L533.942 -42.8647
L525.814 -42.8647
L525.797 -42.8647
L521.282 -42.8647
L520.896 -42.8647
L520.567 -42.8647
L520.243 -42.8647
L518.715 -42.8647
L517.941 -42.8647
L517.068 -42.8647
L515.702 -42.8647
L515.207 -42.8647
L509.696 -42.8647
L505.727 -42.8647
L496.108 -42.8647
L492.004 -42.8647
L489.384 -42.8647
L487.083 -42.8647
L484.525 -42.8647
L483.162 -42.8647
L470.208 -42.8647
L470.191 -42.8647
L462.263 -42.8647
L459.492 -42.8647
L457.151 -42.8647
L456.597 -42.8647
L453.679 -42.8647
L452.779 -42.8647
L451.856 -42.8647
L451.192 -42.8647
L442.804 -42.8647
L439.091 -42.8647
L435.021 -42.8647
L431.382 -42.8647
L427.517 -42.8647
L426.747 -42.8647
L426.195 -42.8647
L425.312 -42.8647
L424.762 -42.8647
L423.534 -42.8647
L422.778 -42.8647
L422.778 -42.8647
L422.016 -42.8647
L420.468 -42.8647
L419.837 -42.8647
L419.052 -42.8647
L418.201 -42.8647
L416.374 -42.8647
L415.037 -42.8647
L406.884 -42.8647
L405.548 -42.8647
L403.408 -42.8647
L402.736 -42.8647
L391.202 -42.8647
L391.185 -42.8647
L389.233 -42.8647
L386.217 -42.8647
L385.755 -42.8647
L385.055 -42.8647
L380.255 -42.8647
L372.942 -42.8647
L372.942 -42.8647
L362.821 -42.8647
L356.289 -42.8647
L355.549 -42.8647
L354.108 -42.8647
L353.106 -42.8647
L352.158 -42.8647
L351.359 -42.8647
L350.767 -42.8647
L350.751 -42.8647
L349.946 -42.8647
L347.042 -42.8647
L342.711 -42.8647
L341.031 -42.8647
L339.033 -42.8647
L337.682 -42.8647
L336.572 -42.8647
L330.079 -42.8647
L325.351 -42.8647
L323.446 -42.8647
L321.305 -42.8647
L316.13 -42.8647
L310.328 -42.8647
L310.328 -42.8647
L308.499 -42.8647
L304.4 -42.8647
L302.84 -42.8647
L301.594 -42.8647
L300.656 -42.8647
L300.03 -42.8647
L298.507 -42.8647
L298.074 -42.8647
L297.611 -42.8647
L291.477 -42.8647
L290.011 -42.8647
L289.135 -42.8647
L288.473 -42.8647
L286.579 -42.8647
L286.185 -42.8647
L285 -42.8647
L284.265 -42.8647
L282.365 -42.8647
L281.45 -42.8647
L278.732 -42.8647
L277.39 -42.8647
L276.134 -42.8647
L274.748 -42.8647
L272.267 -42.8647
L270.037 -42.8647
L267.421 -42.8647
L261.074 -42.8647
L260.001 -42.8647
L259.001 -42.8647
L259.001 -42.8647
L250.099 -42.8647
L236.31 -42.8647
L233.58 -42.8647
L230.337 -42.8647
L220.838 -42.8647
L219.449 -42.8647
L219.268 -42.8647
L215.65 -42.8647
L215.634 -42.8647
L207.913 -42.8647
L204.318 -42.8647
L201.627 -42.8647
L200.968 -42.8647
L200.528 -42.8647
L197.608 -42.8647
L197.315 -42.8647
L195.017 -42.8647
L194.252 -42.8647
L193.341 -42.8647
L191.469 -42.8647
L189.298 -42.8647
L188.527 -42.8647
L186.36 -42.8647
L183.742 -42.8647
L179.42 -42.8647
L179.141 -42.8647
L175.747 -42.8647
L174.895 -42.8647
L173.041 -42.8647
L171.548 -42.8647
L171.548 -42.8647
L170.801 -42.8647
L168.994 -42.8647
L165.552 -42.8647
L162.068 -42.8647
L160.267 -42.8647
L159.082 -42.8647
L144.182 -42.8647
L143.297 -42.8647
L138.184 -42.8647
L134.421 -42.8647
L133.403 -42.8647
L132.419 -42.8647
L130.021 -42.8647
L130.021 -42.8647
L128.01 -42.8647
L125.534 -42.8647
L120.261 -42.8647
L119.684 -42.8647
L119.096 -42.8647
L116.575 -42.8647
L113.35 -42.8647
L111.9 -42.8647
L110.311 -42.8647
L108.496 -42.8647
L105.537 -42.8647
L104.867 -42.8647
L102.995 -42.8647
L100.663 -42.8647
L99.4532 -42.8647
L98.6671 -42.8647
L96.6193 -42.8647
L96.5977 -42.8647
L95.9302 -42.8647
L84.6817 -42.8647
L84.0081 -42.8647
L83.072 -42.8647
L80.7321 -42.8647
L78.9485 -42.8647
L77.4392 -42.8647
L76.3296 -42.8647
L75.0728 -42.8647
L74.1565 -42.8647
L68.5391 -42.8647
L67.5885 -42.8647
L65.9121 -42.8647
L64.28 -42.8647
L63.6527 -42.8647
L63.1277 -42.8647
L61.8605 -42.8647
L57.8277 -42.8647
L56.7844 -42.8647
L55.8521 -42.8647
L54.5261 -42.8647
L53.9206 -42.8647
L52.5833 -42.8647
L52.0756 -42.8647
L51.5818 -42.8647
z
" id="C0_0_83d790fbe8"/>
    </defs>
    <g clip-path="url(#pcc590e6ce2)">
     <use style="fill:#0000ff;fill-opacity:0.05;stroke:#0000ff;stroke-opacity:0.05;" x="0.0" xlink:href="#C0_0_83d790fbe8" y="144.0"/>
    </g>
   </g>
   <g id="PolyCollection_2">
    <defs>
     <path d="
M51.5818 -42.8647
L51.5818 -70.2696
L52.0756 -70.2696
L52.5833 -70.2696
L53.9206 -70.2696
L54.5261 -70.2696
L55.8521 -70.2696
L56.7844 -70.2696
L57.8277 -70.2696
L61.8605 -70.2696
L63.1277 -70.2696
L63.6527 -70.2696
L64.28 -70.2696
L65.9121 -70.2696
L67.5885 -70.2696
L68.5391 -70.2696
L74.1565 -69.5845
L75.0728 -69.5845
L76.3296 -69.5845
L77.4392 -69.5845
L78.9485 -70.2696
L80.7321 -70.2696
L83.072 -70.2696
L84.0081 -70.2696
L84.6817 -70.2696
L95.9302 -70.2696
L96.5977 -70.2696
L96.6193 -70.2696
L98.6671 -70.2696
L99.4532 -70.2696
L100.663 -70.2696
L102.995 -70.2696
L104.867 -70.2696
L105.537 -70.2696
L108.496 -70.2696
L110.311 -70.2696
L111.9 -70.2696
L113.35 -70.2696
L116.575 -70.2696
L119.096 -70.2696
L119.684 -70.2696
L120.261 -70.2696
L125.534 -70.2696
L128.01 -70.2696
L130.021 -70.2696
L130.021 -70.2696
L132.419 -70.2696
L133.403 -70.2696
L134.421 -70.2696
L138.184 -70.2696
L143.297 -70.2696
L144.182 -70.2696
L159.082 -70.2696
L160.267 -70.2696
L162.068 -70.2696
L165.552 -70.2696
L168.994 -70.2696
L170.801 -70.2696
L171.548 -70.2696
L171.548 -70.2696
L173.041 -70.2696
L174.895 -70.2696
L175.747 -70.2696
L179.141 -70.2696
L179.42 -70.2696
L183.742 -70.2696
L186.36 -70.2696
L188.527 -70.2696
L189.298 -70.2696
L191.469 -70.2696
L193.341 -70.2696
L194.252 -70.2696
L195.017 -70.2696
L197.315 -70.2696
L197.608 -70.2696
L200.528 -70.2696
L200.968 -70.2696
L201.627 -70.2696
L204.318 -70.2696
L207.913 -70.2696
L215.634 -70.2696
L215.65 -70.2696
L219.268 -70.2696
L219.449 -70.2696
L220.838 -70.2696
L230.337 -70.2696
L233.58 -70.2696
L236.31 -70.2696
L250.099 -70.2696
L259.001 -70.2696
L259.001 -70.2696
L260.001 -70.2696
L261.074 -70.2696
L267.421 -70.2696
L270.037 -70.2696
L272.267 -70.2696
L274.748 -70.2696
L276.134 -70.2696
L277.39 -70.2696
L278.732 -70.2696
L281.45 -70.2696
L282.365 -70.2696
L284.265 -70.2696
L285 -70.2696
L286.185 -70.2696
L286.579 -70.2696
L288.473 -70.2696
L289.135 -70.2696
L290.011 -70.2696
L291.477 -70.2696
L297.611 -70.2696
L298.074 -70.2696
L298.507 -70.2696
L300.03 -70.2696
L300.656 -70.2696
L301.594 -70.2696
L302.84 -70.2696
L304.4 -70.2696
L308.499 -70.2696
L310.328 -70.2696
L310.328 -70.2696
L316.13 -70.2696
L321.305 -70.2696
L323.446 -70.2696
L325.351 -70.2696
L330.079 -70.2696
L336.572 -70.2696
L337.682 -70.2696
L339.033 -70.2696
L341.031 -70.2696
L342.711 -70.2696
L347.042 -70.2696
L349.946 -70.2696
L350.751 -70.2696
L350.767 -70.2696
L351.359 -70.2696
L352.158 -70.2696
L353.106 -70.2696
L354.108 -70.2696
L355.549 -70.2696
L356.289 -70.2696
L362.821 -70.2696
L372.942 -70.2696
L372.942 -70.2696
L380.255 -70.2696
L385.055 -70.2696
L385.755 -70.2696
L386.217 -70.2696
L389.233 -70.2696
L391.185 -70.2696
L391.202 -70.2696
L402.736 -70.2696
L403.408 -70.2696
L405.548 -70.2696
L406.884 -70.2696
L415.037 -70.2696
L416.374 -70.2696
L418.201 -70.2696
L419.052 -70.2696
L419.837 -70.2696
L420.468 -70.2696
L422.016 -70.2696
L422.778 -70.2696
L422.778 -70.2696
L423.534 -70.2696
L424.762 -70.2696
L425.312 -70.2696
L426.195 -70.2696
L426.747 -70.2696
L427.517 -70.2696
L431.382 -70.2696
L435.021 -70.2696
L439.091 -70.2696
L442.804 -70.2696
L451.192 -70.2696
L451.856 -70.2696
L452.779 -70.2696
L453.679 -70.2696
L456.597 -70.2696
L457.151 -70.2696
L459.492 -70.2696
L462.263 -70.2696
L470.191 -70.2696
L470.208 -70.2696
L483.162 -70.2696
L484.525 -70.2696
L487.083 -70.2696
L489.384 -70.2696
L492.004 -70.2696
L496.108 -70.2696
L505.727 -70.2696
L509.696 -70.2696
L515.207 -70.2696
L515.702 -70.2696
L517.068 -70.2696
L517.941 -70.2696
L518.715 -70.2696
L520.243 -70.2696
L520.567 -70.2696
L520.896 -70.2696
L521.282 -70.2696
L525.797 -70.2696
L525.814 -70.2696
L533.942 -70.2696
L534.336 -70.2696
L535.143 -70.2696
L535.49 -70.2696
L540.717 -70.2696
L541.467 -70.2696
L546.021 -70.2696
L546.65 -70.2696
L548.73 -70.2696
L549.67 -70.2696
L555.721 -70.2696
L556.18 -70.2696
L556.504 -70.2696
L557.329 -70.2696
L558.873 -70.2696
L560.406 -70.2696
L561.597 -70.2696
L562.705 -70.2696
L564.176 -70.2696
L566.946 -70.2696
L567.998 -70.2696
L571.563 -70.2696
L572.482 -70.2696
L573.325 -70.2696
L575.841 -70.2696
L576.425 -70.2696
L577.067 -70.2696
L577.329 -70.2696
L580.584 -70.2696
L580.584 -70.2696
L585.768 -70.2696
L585.993 -70.2696
L586.224 -70.2696
L587.327 -70.2696
L589.284 -70.2696
L589.821 -70.2696
L594.289 -70.2696
L598.243 -70.2696
L600.091 -68.8994
L600.459 -68.8994
L610.977 -70.2696
L611.413 -70.2696
L612.869 -70.2696
L613.224 -70.2696
L618.373 -70.2696
L620.729 -70.2696
L621.23 -70.2696
L624.608 -70.2696
L625.654 -70.2696
L626.363 -70.2696
L628.384 -70.2696
L632.635 -70.2696
L633.645 -70.2696
L634.26 -70.2696
L634.59 -70.2696
L635.259 -70.2696
L645.057 -66.844
L645.809 -66.844
L647.557 -66.844
L649.159 -64.7887
L652.577 -62.0482
L653.377 -62.0482
L655.291 -62.0482
L656.318 -62.7333
L656.901 -63.4184
L659.857 -67.5292
L664.749 -68.8994
L666.632 -68.8994
L666.648 -68.2143
L674.796 -63.4184
L686.203 -70.2696
L686.203 -70.2696
L691.891 -70.2696
L694.367 -70.2696
L694.614 -70.2696
L695.122 -70.2696
L696.68 -70.2696
L698.636 -70.2696
L699.461 -70.2696
L700.518 -70.2696
L707.04 -70.2696
L707.04 -42.8647
L707.04 -42.8647
L700.518 -42.8647
L699.461 -42.8647
L698.636 -42.8647
L696.68 -42.8647
L695.122 -42.8647
L694.614 -42.8647
L694.367 -42.8647
L691.891 -42.8647
L686.203 -42.8647
L686.203 -42.8647
L674.796 -42.8647
L666.648 -42.8647
L666.632 -42.8647
L664.749 -42.8647
L659.857 -42.8647
L656.901 -42.8647
L656.318 -42.8647
L655.291 -42.8647
L653.377 -42.8647
L652.577 -42.8647
L649.159 -42.8647
L647.557 -42.8647
L645.809 -42.8647
L645.057 -42.8647
L635.259 -42.8647
L634.59 -42.8647
L634.26 -42.8647
L633.645 -42.8647
L632.635 -42.8647
L628.384 -42.8647
L626.363 -42.8647
L625.654 -42.8647
L624.608 -42.8647
L621.23 -42.8647
L620.729 -42.8647
L618.373 -42.8647
L613.224 -42.8647
L612.869 -42.8647
L611.413 -42.8647
L610.977 -42.8647
L600.459 -42.8647
L600.091 -42.8647
L598.243 -42.8647
L594.289 -42.8647
L589.821 -42.8647
L589.284 -42.8647
L587.327 -42.8647
L586.224 -42.8647
L585.993 -42.8647
L585.768 -42.8647
L580.584 -42.8647
L580.584 -42.8647
L577.329 -42.8647
L577.067 -42.8647
L576.425 -42.8647
L575.841 -42.8647
L573.325 -42.8647
L572.482 -42.8647
L571.563 -42.8647
L567.998 -42.8647
L566.946 -42.8647
L564.176 -42.8647
L562.705 -42.8647
L561.597 -42.8647
L560.406 -42.8647
L558.873 -42.8647
L557.329 -42.8647
L556.504 -42.8647
L556.18 -42.8647
L555.721 -42.8647
L549.67 -42.8647
L548.73 -42.8647
L546.65 -42.8647
L546.021 -42.8647
L541.467 -42.8647
L540.717 -42.8647
L535.49 -42.8647
L535.143 -42.8647
L534.336 -42.8647
L533.942 -42.8647
L525.814 -42.8647
L525.797 -42.8647
L521.282 -42.8647
L520.896 -42.8647
L520.567 -42.8647
L520.243 -42.8647
L518.715 -42.8647
L517.941 -42.8647
L517.068 -42.8647
L515.702 -42.8647
L515.207 -42.8647
L509.696 -42.8647
L505.727 -42.8647
L496.108 -42.8647
L492.004 -42.8647
L489.384 -42.8647
L487.083 -42.8647
L484.525 -42.8647
L483.162 -42.8647
L470.208 -42.8647
L470.191 -42.8647
L462.263 -42.8647
L459.492 -42.8647
L457.151 -42.8647
L456.597 -42.8647
L453.679 -42.8647
L452.779 -42.8647
L451.856 -42.8647
L451.192 -42.8647
L442.804 -42.8647
L439.091 -42.8647
L435.021 -42.8647
L431.382 -42.8647
L427.517 -42.8647
L426.747 -42.8647
L426.195 -42.8647
L425.312 -42.8647
L424.762 -42.8647
L423.534 -42.8647
L422.778 -42.8647
L422.778 -42.8647
L422.016 -42.8647
L420.468 -42.8647
L419.837 -42.8647
L419.052 -42.8647
L418.201 -42.8647
L416.374 -42.8647
L415.037 -42.8647
L406.884 -42.8647
L405.548 -42.8647
L403.408 -42.8647
L402.736 -42.8647
L391.202 -42.8647
L391.185 -42.8647
L389.233 -42.8647
L386.217 -42.8647
L385.755 -42.8647
L385.055 -42.8647
L380.255 -42.8647
L372.942 -42.8647
L372.942 -42.8647
L362.821 -42.8647
L356.289 -42.8647
L355.549 -42.8647
L354.108 -42.8647
L353.106 -42.8647
L352.158 -42.8647
L351.359 -42.8647
L350.767 -42.8647
L350.751 -42.8647
L349.946 -42.8647
L347.042 -42.8647
L342.711 -42.8647
L341.031 -42.8647
L339.033 -42.8647
L337.682 -42.8647
L336.572 -42.8647
L330.079 -42.8647
L325.351 -42.8647
L323.446 -42.8647
L321.305 -42.8647
L316.13 -42.8647
L310.328 -42.8647
L310.328 -42.8647
L308.499 -42.8647
L304.4 -42.8647
L302.84 -42.8647
L301.594 -42.8647
L300.656 -42.8647
L300.03 -42.8647
L298.507 -42.8647
L298.074 -42.8647
L297.611 -42.8647
L291.477 -42.8647
L290.011 -42.8647
L289.135 -42.8647
L288.473 -42.8647
L286.579 -42.8647
L286.185 -42.8647
L285 -42.8647
L284.265 -42.8647
L282.365 -42.8647
L281.45 -42.8647
L278.732 -42.8647
L277.39 -42.8647
L276.134 -42.8647
L274.748 -42.8647
L272.267 -42.8647
L270.037 -42.8647
L267.421 -42.8647
L261.074 -42.8647
L260.001 -42.8647
L259.001 -42.8647
L259.001 -42.8647
L250.099 -42.8647
L236.31 -42.8647
L233.58 -42.8647
L230.337 -42.8647
L220.838 -42.8647
L219.449 -42.8647
L219.268 -42.8647
L215.65 -42.8647
L215.634 -42.8647
L207.913 -42.8647
L204.318 -42.8647
L201.627 -42.8647
L200.968 -42.8647
L200.528 -42.8647
L197.608 -42.8647
L197.315 -42.8647
L195.017 -42.8647
L194.252 -42.8647
L193.341 -42.8647
L191.469 -42.8647
L189.298 -42.8647
L188.527 -42.8647
L186.36 -42.8647
L183.742 -42.8647
L179.42 -42.8647
L179.141 -42.8647
L175.747 -42.8647
L174.895 -42.8647
L173.041 -42.8647
L171.548 -42.8647
L171.548 -42.8647
L170.801 -42.8647
L168.994 -42.8647
L165.552 -42.8647
L162.068 -42.8647
L160.267 -42.8647
L159.082 -42.8647
L144.182 -42.8647
L143.297 -42.8647
L138.184 -42.8647
L134.421 -42.8647
L133.403 -42.8647
L132.419 -42.8647
L130.021 -42.8647
L130.021 -42.8647
L128.01 -42.8647
L125.534 -42.8647
L120.261 -42.8647
L119.684 -42.8647
L119.096 -42.8647
L116.575 -42.8647
L113.35 -42.8647
L111.9 -42.8647
L110.311 -42.8647
L108.496 -42.8647
L105.537 -42.8647
L104.867 -42.8647
L102.995 -42.8647
L100.663 -42.8647
L99.4532 -42.8647
L98.6671 -42.8647
L96.6193 -42.8647
L96.5977 -42.8647
L95.9302 -42.8647
L84.6817 -42.8647
L84.0081 -42.8647
L83.072 -42.8647
L80.7321 -42.8647
L78.9485 -42.8647
L77.4392 -42.8647
L76.3296 -42.8647
L75.0728 -42.8647
L74.1565 -42.8647
L68.5391 -42.8647
L67.5885 -42.8647
L65.9121 -42.8647
L64.28 -42.8647
L63.6527 -42.8647
L63.1277 -42.8647
L61.8605 -42.8647
L57.8277 -42.8647
L56.7844 -42.8647
L55.8521 -42.8647
L54.5261 -42.8647
L53.9206 -42.8647
L52.5833 -42.8647
L52.0756 -42.8647
L51.5818 -42.8647
z
" id="C1_0_3dcb23de7d"/>
    </defs>
    <g clip-path="url(#pcc590e6ce2)">
     <use style="fill:#0000ff;fill-opacity:0.05;stroke:#0000ff;stroke-opacity:0.05;" x="0.0" xlink:href="#C1_0_3dcb23de7d" y="144.0"/>
    </g>
   </g>
   <g id="PolyCollection_3">
    <defs>
     <path d="
M51.5818 -42.8647
L51.5818 -73.0101
L52.0756 -73.0101
L52.5833 -73.6953
L53.9206 -74.3804
L54.5261 -75.0655
L55.8521 -76.4357
L56.7844 -77.806
L57.8277 -76.4357
L61.8605 -72.325
L63.1277 -71.6399
L63.6527 -71.6399
L64.28 -71.6399
L65.9121 -70.9548
L67.5885 -70.9548
L68.5391 -70.2696
L74.1565 -69.5845
L75.0728 -69.5845
L76.3296 -69.5845
L77.4392 -69.5845
L78.9485 -70.2696
L80.7321 -71.6399
L83.072 -73.6953
L84.0081 -74.3804
L84.6817 -75.0655
L95.9302 -83.9721
L96.5977 -83.9721
L96.6193 -83.9721
L98.6671 -83.9721
L99.4532 -83.9721
L100.663 -83.9721
L102.995 -83.9721
L104.867 -83.9721
L105.537 -83.9721
L108.496 -83.9721
L110.311 -83.9721
L111.9 -83.9721
L113.35 -83.9721
L116.575 -83.9721
L119.096 -83.9721
L119.684 -83.9721
L120.261 -83.9721
L125.534 -83.9721
L128.01 -83.9721
L130.021 -83.9721
L130.021 -83.9721
L132.419 -83.9721
L133.403 -83.9721
L134.421 -83.9721
L138.184 -83.9721
L143.297 -83.9721
L144.182 -83.9721
L159.082 -83.9721
L160.267 -83.9721
L162.068 -83.9721
L165.552 -83.9721
L168.994 -83.9721
L170.801 -83.9721
L171.548 -83.9721
L171.548 -83.9721
L173.041 -83.9721
L174.895 -83.9721
L175.747 -83.9721
L179.141 -83.9721
L179.42 -83.9721
L183.742 -83.9721
L186.36 -83.9721
L188.527 -83.9721
L189.298 -83.9721
L191.469 -83.9721
L193.341 -83.9721
L194.252 -83.9721
L195.017 -83.9721
L197.315 -83.9721
L197.608 -83.9721
L200.528 -83.9721
L200.968 -83.9721
L201.627 -83.9721
L204.318 -83.9721
L207.913 -83.9721
L215.634 -83.9721
L215.65 -83.9721
L219.268 -83.9721
L219.449 -83.9721
L220.838 -83.9721
L230.337 -83.9721
L233.58 -83.9721
L236.31 -83.9721
L250.099 -83.9721
L259.001 -83.9721
L259.001 -83.9721
L260.001 -83.9721
L261.074 -83.9721
L267.421 -83.9721
L270.037 -83.9721
L272.267 -83.9721
L274.748 -83.9721
L276.134 -83.9721
L277.39 -83.9721
L278.732 -83.9721
L281.45 -83.9721
L282.365 -83.9721
L284.265 -83.9721
L285 -83.9721
L286.185 -83.9721
L286.579 -83.9721
L288.473 -83.9721
L289.135 -83.9721
L290.011 -83.9721
L291.477 -83.9721
L297.611 -83.9721
L298.074 -83.9721
L298.507 -83.9721
L300.03 -83.9721
L300.656 -83.9721
L301.594 -83.9721
L302.84 -83.9721
L304.4 -83.9721
L308.499 -83.9721
L310.328 -83.9721
L310.328 -83.9721
L316.13 -83.9721
L321.305 -83.9721
L323.446 -83.9721
L325.351 -83.9721
L330.079 -83.9721
L336.572 -83.9721
L337.682 -83.9721
L339.033 -83.9721
L341.031 -83.9721
L342.711 -82.6018
L347.042 -78.4911
L349.946 -79.1762
L350.751 -79.1762
L350.767 -79.1762
L351.359 -79.1762
L352.158 -79.1762
L353.106 -79.1762
L354.108 -79.1762
L355.549 -80.5465
L356.289 -82.6018
L362.821 -83.9721
L372.942 -83.9721
L372.942 -83.9721
L380.255 -83.9721
L385.055 -83.9721
L385.755 -83.9721
L386.217 -83.9721
L389.233 -83.9721
L391.185 -83.9721
L391.202 -83.9721
L402.736 -83.9721
L403.408 -83.9721
L405.548 -83.9721
L406.884 -83.9721
L415.037 -83.9721
L416.374 -83.9721
L418.201 -83.9721
L419.052 -82.6018
L419.837 -81.2316
L420.468 -80.5465
L422.016 -77.1209
L422.778 -75.7506
L422.778 -75.7506
L423.534 -76.4357
L424.762 -79.1762
L425.312 -78.4911
L426.195 -78.4911
L426.747 -78.4911
L427.517 -79.1762
L431.382 -83.9721
L435.021 -83.9721
L439.091 -83.9721
L442.804 -81.2316
L451.192 -83.9721
L451.856 -83.9721
L452.779 -83.9721
L453.679 -83.9721
L456.597 -83.9721
L457.151 -83.9721
L459.492 -83.9721
L462.263 -82.6018
L470.191 -83.9721
L470.208 -83.9721
L483.162 -81.9167
L484.525 -81.9167
L487.083 -81.9167
L489.384 -80.5465
L492.004 -81.2316
L496.108 -79.8614
L505.727 -76.4357
L509.696 -78.4911
L515.207 -77.806
L515.702 -77.806
L517.068 -77.806
L517.941 -77.806
L518.715 -79.1762
L520.243 -82.6018
L520.567 -81.9167
L520.896 -81.2316
L521.282 -80.5465
L525.797 -74.3804
L525.814 -74.3804
L533.942 -81.2316
L534.336 -80.5465
L535.143 -79.8614
L535.49 -79.8614
L540.717 -76.4357
L541.467 -77.1209
L546.021 -82.6018
L546.65 -82.6018
L548.73 -83.9721
L549.67 -83.9721
L555.721 -83.9721
L556.18 -83.9721
L556.504 -83.9721
L557.329 -83.9721
L558.873 -83.9721
L560.406 -83.9721
L561.597 -83.9721
L562.705 -83.9721
L564.176 -83.9721
L566.946 -83.9721
L567.998 -83.9721
L571.563 -83.9721
L572.482 -83.9721
L573.325 -83.287
L575.841 -80.5465
L576.425 -80.5465
L577.067 -81.2316
L577.329 -81.2316
L580.584 -83.9721
L580.584 -83.9721
L585.768 -83.9721
L585.993 -83.9721
L586.224 -83.9721
L587.327 -83.9721
L589.284 -83.9721
L589.821 -83.9721
L594.289 -81.9167
L598.243 -72.325
L600.091 -68.8994
L600.459 -68.8994
L610.977 -77.806
L611.413 -77.806
L612.869 -77.806
L613.224 -77.806
L618.373 -73.6953
L620.729 -70.2696
L621.23 -70.2696
L624.608 -70.2696
L625.654 -70.2696
L626.363 -70.2696
L628.384 -70.2696
L632.635 -82.6018
L633.645 -83.287
L634.26 -83.9721
L634.59 -83.9721
L635.259 -83.9721
L645.057 -66.844
L645.809 -66.844
L647.557 -66.844
L649.159 -64.7887
L652.577 -62.0482
L653.377 -62.0482
L655.291 -62.0482
L656.318 -62.7333
L656.901 -63.4184
L659.857 -67.5292
L664.749 -68.8994
L666.632 -68.8994
L666.648 -68.2143
L674.796 -63.4184
L686.203 -73.6953
L686.203 -73.6953
L691.891 -73.0101
L694.367 -70.2696
L694.614 -70.2696
L695.122 -70.2696
L696.68 -70.9548
L698.636 -71.6399
L699.461 -71.6399
L700.518 -71.6399
L707.04 -73.0101
L707.04 -42.8647
L707.04 -42.8647
L700.518 -42.8647
L699.461 -42.8647
L698.636 -42.8647
L696.68 -42.8647
L695.122 -42.8647
L694.614 -42.8647
L694.367 -42.8647
L691.891 -42.8647
L686.203 -42.8647
L686.203 -42.8647
L674.796 -42.8647
L666.648 -42.8647
L666.632 -42.8647
L664.749 -42.8647
L659.857 -42.8647
L656.901 -42.8647
L656.318 -42.8647
L655.291 -42.8647
L653.377 -42.8647
L652.577 -42.8647
L649.159 -42.8647
L647.557 -42.8647
L645.809 -42.8647
L645.057 -42.8647
L635.259 -42.8647
L634.59 -42.8647
L634.26 -42.8647
L633.645 -42.8647
L632.635 -42.8647
L628.384 -42.8647
L626.363 -42.8647
L625.654 -42.8647
L624.608 -42.8647
L621.23 -42.8647
L620.729 -42.8647
L618.373 -42.8647
L613.224 -42.8647
L612.869 -42.8647
L611.413 -42.8647
L610.977 -42.8647
L600.459 -42.8647
L600.091 -42.8647
L598.243 -42.8647
L594.289 -42.8647
L589.821 -42.8647
L589.284 -42.8647
L587.327 -42.8647
L586.224 -42.8647
L585.993 -42.8647
L585.768 -42.8647
L580.584 -42.8647
L580.584 -42.8647
L577.329 -42.8647
L577.067 -42.8647
L576.425 -42.8647
L575.841 -42.8647
L573.325 -42.8647
L572.482 -42.8647
L571.563 -42.8647
L567.998 -42.8647
L566.946 -42.8647
L564.176 -42.8647
L562.705 -42.8647
L561.597 -42.8647
L560.406 -42.8647
L558.873 -42.8647
L557.329 -42.8647
L556.504 -42.8647
L556.18 -42.8647
L555.721 -42.8647
L549.67 -42.8647
L548.73 -42.8647
L546.65 -42.8647
L546.021 -42.8647
L541.467 -42.8647
L540.717 -42.8647
L535.49 -42.8647
L535.143 -42.8647
L534.336 -42.8647
L533.942 -42.8647
L525.814 -42.8647
L525.797 -42.8647
L521.282 -42.8647
L520.896 -42.8647
L520.567 -42.8647
L520.243 -42.8647
L518.715 -42.8647
L517.941 -42.8647
L517.068 -42.8647
L515.702 -42.8647
L515.207 -42.8647
L509.696 -42.8647
L505.727 -42.8647
L496.108 -42.8647
L492.004 -42.8647
L489.384 -42.8647
L487.083 -42.8647
L484.525 -42.8647
L483.162 -42.8647
L470.208 -42.8647
L470.191 -42.8647
L462.263 -42.8647
L459.492 -42.8647
L457.151 -42.8647
L456.597 -42.8647
L453.679 -42.8647
L452.779 -42.8647
L451.856 -42.8647
L451.192 -42.8647
L442.804 -42.8647
L439.091 -42.8647
L435.021 -42.8647
L431.382 -42.8647
L427.517 -42.8647
L426.747 -42.8647
L426.195 -42.8647
L425.312 -42.8647
L424.762 -42.8647
L423.534 -42.8647
L422.778 -42.8647
L422.778 -42.8647
L422.016 -42.8647
L420.468 -42.8647
L419.837 -42.8647
L419.052 -42.8647
L418.201 -42.8647
L416.374 -42.8647
L415.037 -42.8647
L406.884 -42.8647
L405.548 -42.8647
L403.408 -42.8647
L402.736 -42.8647
L391.202 -42.8647
L391.185 -42.8647
L389.233 -42.8647
L386.217 -42.8647
L385.755 -42.8647
L385.055 -42.8647
L380.255 -42.8647
L372.942 -42.8647
L372.942 -42.8647
L362.821 -42.8647
L356.289 -42.8647
L355.549 -42.8647
L354.108 -42.8647
L353.106 -42.8647
L352.158 -42.8647
L351.359 -42.8647
L350.767 -42.8647
L350.751 -42.8647
L349.946 -42.8647
L347.042 -42.8647
L342.711 -42.8647
L341.031 -42.8647
L339.033 -42.8647
L337.682 -42.8647
L336.572 -42.8647
L330.079 -42.8647
L325.351 -42.8647
L323.446 -42.8647
L321.305 -42.8647
L316.13 -42.8647
L310.328 -42.8647
L310.328 -42.8647
L308.499 -42.8647
L304.4 -42.8647
L302.84 -42.8647
L301.594 -42.8647
L300.656 -42.8647
L300.03 -42.8647
L298.507 -42.8647
L298.074 -42.8647
L297.611 -42.8647
L291.477 -42.8647
L290.011 -42.8647
L289.135 -42.8647
L288.473 -42.8647
L286.579 -42.8647
L286.185 -42.8647
L285 -42.8647
L284.265 -42.8647
L282.365 -42.8647
L281.45 -42.8647
L278.732 -42.8647
L277.39 -42.8647
L276.134 -42.8647
L274.748 -42.8647
L272.267 -42.8647
L270.037 -42.8647
L267.421 -42.8647
L261.074 -42.8647
L260.001 -42.8647
L259.001 -42.8647
L259.001 -42.8647
L250.099 -42.8647
L236.31 -42.8647
L233.58 -42.8647
L230.337 -42.8647
L220.838 -42.8647
L219.449 -42.8647
L219.268 -42.8647
L215.65 -42.8647
L215.634 -42.8647
L207.913 -42.8647
L204.318 -42.8647
L201.627 -42.8647
L200.968 -42.8647
L200.528 -42.8647
L197.608 -42.8647
L197.315 -42.8647
L195.017 -42.8647
L194.252 -42.8647
L193.341 -42.8647
L191.469 -42.8647
L189.298 -42.8647
L188.527 -42.8647
L186.36 -42.8647
L183.742 -42.8647
L179.42 -42.8647
L179.141 -42.8647
L175.747 -42.8647
L174.895 -42.8647
L173.041 -42.8647
L171.548 -42.8647
L171.548 -42.8647
L170.801 -42.8647
L168.994 -42.8647
L165.552 -42.8647
L162.068 -42.8647
L160.267 -42.8647
L159.082 -42.8647
L144.182 -42.8647
L143.297 -42.8647
L138.184 -42.8647
L134.421 -42.8647
L133.403 -42.8647
L132.419 -42.8647
L130.021 -42.8647
L130.021 -42.8647
L128.01 -42.8647
L125.534 -42.8647
L120.261 -42.8647
L119.684 -42.8647
L119.096 -42.8647
L116.575 -42.8647
L113.35 -42.8647
L111.9 -42.8647
L110.311 -42.8647
L108.496 -42.8647
L105.537 -42.8647
L104.867 -42.8647
L102.995 -42.8647
L100.663 -42.8647
L99.4532 -42.8647
L98.6671 -42.8647
L96.6193 -42.8647
L96.5977 -42.8647
L95.9302 -42.8647
L84.6817 -42.8647
L84.0081 -42.8647
L83.072 -42.8647
L80.7321 -42.8647
L78.9485 -42.8647
L77.4392 -42.8647
L76.3296 -42.8647
L75.0728 -42.8647
L74.1565 -42.8647
L68.5391 -42.8647
L67.5885 -42.8647
L65.9121 -42.8647
L64.28 -42.8647
L63.6527 -42.8647
L63.1277 -42.8647
L61.8605 -42.8647
L57.8277 -42.8647
L56.7844 -42.8647
L55.8521 -42.8647
L54.5261 -42.8647
L53.9206 -42.8647
L52.5833 -42.8647
L52.0756 -42.8647
L51.5818 -42.8647
z
" id="C2_0_a6ee462cb2"/>
    </defs>
    <g clip-path="url(#pcc590e6ce2)">
     <use style="fill:#0000ff;fill-opacity:0.05;stroke:#0000ff;stroke-opacity:0.05;" x="0.0" xlink:href="#C2_0_a6ee462cb2" y="144.0"/>
    </g>
   </g>
   <g id="PolyCollection_4">
    <defs>
     <path d="
M51.5818 -42.8647
L51.5818 -73.0101
L52.0756 -73.0101
L52.5833 -73.6953
L53.9206 -74.3804
L54.5261 -75.0655
L55.8521 -76.4357
L56.7844 -77.806
L57.8277 -76.4357
L61.8605 -72.325
L63.1277 -71.6399
L63.6527 -71.6399
L64.28 -71.6399
L65.9121 -70.9548
L67.5885 -70.9548
L68.5391 -70.2696
L74.1565 -69.5845
L75.0728 -69.5845
L76.3296 -69.5845
L77.4392 -69.5845
L78.9485 -70.2696
L80.7321 -71.6399
L83.072 -73.6953
L84.0081 -74.3804
L84.6817 -75.0655
L95.9302 -87.3977
L96.5977 -88.7679
L96.6193 -88.7679
L98.6671 -92.1936
L99.4532 -94.2489
L100.663 -97.6745
L102.995 -97.6745
L104.867 -97.6745
L105.537 -97.6745
L108.496 -97.6745
L110.311 -97.6745
L111.9 -97.6745
L113.35 -97.6745
L116.575 -97.6745
L119.096 -97.6745
L119.684 -97.6745
L120.261 -97.6745
L125.534 -97.6745
L128.01 -97.6745
L130.021 -97.6745
L130.021 -97.6745
L132.419 -97.6745
L133.403 -97.6745
L134.421 -97.6745
L138.184 -97.6745
L143.297 -97.6745
L144.182 -97.6745
L159.082 -97.6745
L160.267 -97.6745
L162.068 -97.6745
L165.552 -97.6745
L168.994 -97.6745
L170.801 -97.6745
L171.548 -97.6745
L171.548 -97.6745
L173.041 -97.6745
L174.895 -97.6745
L175.747 -97.6745
L179.141 -97.6745
L179.42 -97.6745
L183.742 -97.6745
L186.36 -97.6745
L188.527 -97.6745
L189.298 -97.6745
L191.469 -97.6745
L193.341 -97.6745
L194.252 -97.6745
L195.017 -97.6745
L197.315 -97.6745
L197.608 -97.6745
L200.528 -97.6745
L200.968 -97.6745
L201.627 -97.6745
L204.318 -97.6745
L207.913 -97.6745
L215.634 -97.6745
L215.65 -97.6745
L219.268 -96.3043
L219.449 -96.3043
L220.838 -96.9894
L230.337 -97.6745
L233.58 -97.6745
L236.31 -97.6745
L250.099 -97.6745
L259.001 -97.6745
L259.001 -97.6745
L260.001 -97.6745
L261.074 -97.6745
L267.421 -97.6745
L270.037 -97.6745
L272.267 -97.6745
L274.748 -97.6745
L276.134 -97.6745
L277.39 -97.6745
L278.732 -97.6745
L281.45 -97.6745
L282.365 -97.6745
L284.265 -97.6745
L285 -97.6745
L286.185 -97.6745
L286.579 -97.6745
L288.473 -97.6745
L289.135 -97.6745
L290.011 -97.6745
L291.477 -97.6745
L297.611 -97.6745
L298.074 -97.6745
L298.507 -97.6745
L300.03 -96.9894
L300.656 -96.3043
L301.594 -96.3043
L302.84 -96.3043
L304.4 -96.3043
L308.499 -96.3043
L310.328 -96.3043
L310.328 -96.3043
L316.13 -97.6745
L321.305 -95.6192
L323.446 -91.5084
L325.351 -89.4531
L330.079 -86.7126
L336.572 -86.7126
L337.682 -86.0275
L339.033 -85.3423
L341.031 -84.6572
L342.711 -82.6018
L347.042 -78.4911
L349.946 -79.1762
L350.751 -79.1762
L350.767 -79.1762
L351.359 -79.1762
L352.158 -79.1762
L353.106 -79.1762
L354.108 -79.1762
L355.549 -80.5465
L356.289 -82.6018
L362.821 -97.6745
L372.942 -97.6745
L372.942 -97.6745
L380.255 -97.6745
L385.055 -97.6745
L385.755 -97.6745
L386.217 -97.6745
L389.233 -97.6745
L391.185 -97.6745
L391.202 -97.6745
L402.736 -86.7126
L403.408 -86.7126
L405.548 -88.7679
L406.884 -88.0828
L415.037 -86.7126
L416.374 -85.3423
L418.201 -83.9721
L419.052 -82.6018
L419.837 -81.2316
L420.468 -80.5465
L422.016 -77.1209
L422.778 -75.7506
L422.778 -75.7506
L423.534 -76.4357
L424.762 -79.1762
L425.312 -78.4911
L426.195 -78.4911
L426.747 -78.4911
L427.517 -79.1762
L431.382 -83.9721
L435.021 -88.0828
L439.091 -85.3423
L442.804 -81.2316
L451.192 -86.0275
L451.856 -86.0275
L452.779 -86.7126
L453.679 -88.0828
L456.597 -88.7679
L457.151 -88.0828
L459.492 -86.7126
L462.263 -82.6018
L470.191 -85.3423
L470.208 -84.6572
L483.162 -81.9167
L484.525 -81.9167
L487.083 -81.9167
L489.384 -80.5465
L492.004 -81.2316
L496.108 -79.8614
L505.727 -76.4357
L509.696 -78.4911
L515.207 -77.806
L515.702 -77.806
L517.068 -77.806
L517.941 -77.806
L518.715 -79.1762
L520.243 -82.6018
L520.567 -81.9167
L520.896 -81.2316
L521.282 -80.5465
L525.797 -74.3804
L525.814 -74.3804
L533.942 -81.2316
L534.336 -80.5465
L535.143 -79.8614
L535.49 -79.8614
L540.717 -76.4357
L541.467 -77.1209
L546.021 -82.6018
L546.65 -82.6018
L548.73 -85.3423
L549.67 -85.3423
L555.721 -89.4531
L556.18 -89.4531
L556.504 -89.4531
L557.329 -89.4531
L558.873 -89.4531
L560.406 -89.4531
L561.597 -89.4531
L562.705 -89.4531
L564.176 -88.7679
L566.946 -88.7679
L567.998 -88.0828
L571.563 -86.0275
L572.482 -84.6572
L573.325 -83.287
L575.841 -80.5465
L576.425 -80.5465
L577.067 -81.2316
L577.329 -81.2316
L580.584 -83.9721
L580.584 -83.9721
L585.768 -88.7679
L585.993 -88.7679
L586.224 -88.7679
L587.327 -88.7679
L589.284 -88.7679
L589.821 -87.3977
L594.289 -81.9167
L598.243 -72.325
L600.091 -68.8994
L600.459 -68.8994
L610.977 -77.806
L611.413 -77.806
L612.869 -77.806
L613.224 -77.806
L618.373 -73.6953
L620.729 -70.2696
L621.23 -70.2696
L624.608 -70.2696
L625.654 -70.2696
L626.363 -70.2696
L628.384 -70.2696
L632.635 -82.6018
L633.645 -83.287
L634.26 -83.9721
L634.59 -83.9721
L635.259 -85.3423
L645.057 -66.844
L645.809 -66.844
L647.557 -66.844
L649.159 -64.7887
L652.577 -62.0482
L653.377 -62.0482
L655.291 -62.0482
L656.318 -62.7333
L656.901 -63.4184
L659.857 -67.5292
L664.749 -68.8994
L666.632 -68.8994
L666.648 -68.2143
L674.796 -63.4184
L686.203 -73.6953
L686.203 -73.6953
L691.891 -73.0101
L694.367 -70.2696
L694.614 -70.2696
L695.122 -70.2696
L696.68 -70.9548
L698.636 -71.6399
L699.461 -71.6399
L700.518 -71.6399
L707.04 -73.0101
L707.04 -42.8647
L707.04 -42.8647
L700.518 -42.8647
L699.461 -42.8647
L698.636 -42.8647
L696.68 -42.8647
L695.122 -42.8647
L694.614 -42.8647
L694.367 -42.8647
L691.891 -42.8647
L686.203 -42.8647
L686.203 -42.8647
L674.796 -42.8647
L666.648 -42.8647
L666.632 -42.8647
L664.749 -42.8647
L659.857 -42.8647
L656.901 -42.8647
L656.318 -42.8647
L655.291 -42.8647
L653.377 -42.8647
L652.577 -42.8647
L649.159 -42.8647
L647.557 -42.8647
L645.809 -42.8647
L645.057 -42.8647
L635.259 -42.8647
L634.59 -42.8647
L634.26 -42.8647
L633.645 -42.8647
L632.635 -42.8647
L628.384 -42.8647
L626.363 -42.8647
L625.654 -42.8647
L624.608 -42.8647
L621.23 -42.8647
L620.729 -42.8647
L618.373 -42.8647
L613.224 -42.8647
L612.869 -42.8647
L611.413 -42.8647
L610.977 -42.8647
L600.459 -42.8647
L600.091 -42.8647
L598.243 -42.8647
L594.289 -42.8647
L589.821 -42.8647
L589.284 -42.8647
L587.327 -42.8647
L586.224 -42.8647
L585.993 -42.8647
L585.768 -42.8647
L580.584 -42.8647
L580.584 -42.8647
L577.329 -42.8647
L577.067 -42.8647
L576.425 -42.8647
L575.841 -42.8647
L573.325 -42.8647
L572.482 -42.8647
L571.563 -42.8647
L567.998 -42.8647
L566.946 -42.8647
L564.176 -42.8647
L562.705 -42.8647
L561.597 -42.8647
L560.406 -42.8647
L558.873 -42.8647
L557.329 -42.8647
L556.504 -42.8647
L556.18 -42.8647
L555.721 -42.8647
L549.67 -42.8647
L548.73 -42.8647
L546.65 -42.8647
L546.021 -42.8647
L541.467 -42.8647
L540.717 -42.8647
L535.49 -42.8647
L535.143 -42.8647
L534.336 -42.8647
L533.942 -42.8647
L525.814 -42.8647
L525.797 -42.8647
L521.282 -42.8647
L520.896 -42.8647
L520.567 -42.8647
L520.243 -42.8647
L518.715 -42.8647
L517.941 -42.8647
L517.068 -42.8647
L515.702 -42.8647
L515.207 -42.8647
L509.696 -42.8647
L505.727 -42.8647
L496.108 -42.8647
L492.004 -42.8647
L489.384 -42.8647
L487.083 -42.8647
L484.525 -42.8647
L483.162 -42.8647
L470.208 -42.8647
L470.191 -42.8647
L462.263 -42.8647
L459.492 -42.8647
L457.151 -42.8647
L456.597 -42.8647
L453.679 -42.8647
L452.779 -42.8647
L451.856 -42.8647
L451.192 -42.8647
L442.804 -42.8647
L439.091 -42.8647
L435.021 -42.8647
L431.382 -42.8647
L427.517 -42.8647
L426.747 -42.8647
L426.195 -42.8647
L425.312 -42.8647
L424.762 -42.8647
L423.534 -42.8647
L422.778 -42.8647
L422.778 -42.8647
L422.016 -42.8647
L420.468 -42.8647
L419.837 -42.8647
L419.052 -42.8647
L418.201 -42.8647
L416.374 -42.8647
L415.037 -42.8647
L406.884 -42.8647
L405.548 -42.8647
L403.408 -42.8647
L402.736 -42.8647
L391.202 -42.8647
L391.185 -42.8647
L389.233 -42.8647
L386.217 -42.8647
L385.755 -42.8647
L385.055 -42.8647
L380.255 -42.8647
L372.942 -42.8647
L372.942 -42.8647
L362.821 -42.8647
L356.289 -42.8647
L355.549 -42.8647
L354.108 -42.8647
L353.106 -42.8647
L352.158 -42.8647
L351.359 -42.8647
L350.767 -42.8647
L350.751 -42.8647
L349.946 -42.8647
L347.042 -42.8647
L342.711 -42.8647
L341.031 -42.8647
L339.033 -42.8647
L337.682 -42.8647
L336.572 -42.8647
L330.079 -42.8647
L325.351 -42.8647
L323.446 -42.8647
L321.305 -42.8647
L316.13 -42.8647
L310.328 -42.8647
L310.328 -42.8647
L308.499 -42.8647
L304.4 -42.8647
L302.84 -42.8647
L301.594 -42.8647
L300.656 -42.8647
L300.03 -42.8647
L298.507 -42.8647
L298.074 -42.8647
L297.611 -42.8647
L291.477 -42.8647
L290.011 -42.8647
L289.135 -42.8647
L288.473 -42.8647
L286.579 -42.8647
L286.185 -42.8647
L285 -42.8647
L284.265 -42.8647
L282.365 -42.8647
L281.45 -42.8647
L278.732 -42.8647
L277.39 -42.8647
L276.134 -42.8647
L274.748 -42.8647
L272.267 -42.8647
L270.037 -42.8647
L267.421 -42.8647
L261.074 -42.8647
L260.001 -42.8647
L259.001 -42.8647
L259.001 -42.8647
L250.099 -42.8647
L236.31 -42.8647
L233.58 -42.8647
L230.337 -42.8647
L220.838 -42.8647
L219.449 -42.8647
L219.268 -42.8647
L215.65 -42.8647
L215.634 -42.8647
L207.913 -42.8647
L204.318 -42.8647
L201.627 -42.8647
L200.968 -42.8647
L200.528 -42.8647
L197.608 -42.8647
L197.315 -42.8647
L195.017 -42.8647
L194.252 -42.8647
L193.341 -42.8647
L191.469 -42.8647
L189.298 -42.8647
L188.527 -42.8647
L186.36 -42.8647
L183.742 -42.8647
L179.42 -42.8647
L179.141 -42.8647
L175.747 -42.8647
L174.895 -42.8647
L173.041 -42.8647
L171.548 -42.8647
L171.548 -42.8647
L170.801 -42.8647
L168.994 -42.8647
L165.552 -42.8647
L162.068 -42.8647
L160.267 -42.8647
L159.082 -42.8647
L144.182 -42.8647
L143.297 -42.8647
L138.184 -42.8647
L134.421 -42.8647
L133.403 -42.8647
L132.419 -42.8647
L130.021 -42.8647
L130.021 -42.8647
L128.01 -42.8647
L125.534 -42.8647
L120.261 -42.8647
L119.684 -42.8647
L119.096 -42.8647
L116.575 -42.8647
L113.35 -42.8647
L111.9 -42.8647
L110.311 -42.8647
L108.496 -42.8647
L105.537 -42.8647
L104.867 -42.8647
L102.995 -42.8647
L100.663 -42.8647
L99.4532 -42.8647
L98.6671 -42.8647
L96.6193 -42.8647
L96.5977 -42.8647
L95.9302 -42.8647
L84.6817 -42.8647
L84.0081 -42.8647
L83.072 -42.8647
L80.7321 -42.8647
L78.9485 -42.8647
L77.4392 -42.8647
L76.3296 -42.8647
L75.0728 -42.8647
L74.1565 -42.8647
L68.5391 -42.8647
L67.5885 -42.8647
L65.9121 -42.8647
L64.28 -42.8647
L63.6527 -42.8647
L63.1277 -42.8647
L61.8605 -42.8647
L57.8277 -42.8647
L56.7844 -42.8647
L55.8521 -42.8647
L54.5261 -42.8647
L53.9206 -42.8647
L52.5833 -42.8647
L52.0756 -42.8647
L51.5818 -42.8647
z
" id="C3_0_74d5e9f509"/>
    </defs>
    <g clip-path="url(#pcc590e6ce2)">
     <use style="fill:#0000ff;fill-opacity:0.05;stroke:#0000ff;stroke-opacity:0.05;" x="0.0" xlink:href="#C3_0_74d5e9f509" y="144.0"/>
    </g>
   </g>
   <g id="PolyCollection_5">
    <defs>
     <path d="
M51.5818 -42.8647
L51.5818 -73.0101
L52.0756 -73.0101
L52.5833 -73.6953
L53.9206 -74.3804
L54.5261 -75.0655
L55.8521 -76.4357
L56.7844 -77.806
L57.8277 -76.4357
L61.8605 -72.325
L63.1277 -71.6399
L63.6527 -71.6399
L64.28 -71.6399
L65.9121 -70.9548
L67.5885 -70.9548
L68.5391 -70.2696
L74.1565 -69.5845
L75.0728 -69.5845
L76.3296 -69.5845
L77.4392 -69.5845
L78.9485 -70.2696
L80.7321 -71.6399
L83.072 -73.6953
L84.0081 -74.3804
L84.6817 -75.0655
L95.9302 -87.3977
L96.5977 -88.7679
L96.6193 -88.7679
L98.6671 -92.1936
L99.4532 -94.2489
L100.663 -98.3597
L102.995 -105.896
L104.867 -108.636
L105.537 -110.007
L108.496 -111.377
L110.311 -111.377
L111.9 -111.377
L113.35 -110.692
L116.575 -109.322
L119.096 -109.322
L119.684 -108.636
L120.261 -108.636
L125.534 -105.896
L128.01 -105.211
L130.021 -107.951
L130.021 -107.951
L132.419 -110.007
L133.403 -107.951
L134.421 -105.896
L138.184 -106.581
L143.297 -111.377
L144.182 -110.692
L159.082 -110.692
L160.267 -110.007
L162.068 -109.322
L165.552 -111.377
L168.994 -111.377
L170.801 -111.377
L171.548 -111.377
L171.548 -111.377
L173.041 -111.377
L174.895 -111.377
L175.747 -111.377
L179.141 -111.377
L179.42 -111.377
L183.742 -111.377
L186.36 -111.377
L188.527 -111.377
L189.298 -111.377
L191.469 -111.377
L193.341 -111.377
L194.252 -111.377
L195.017 -111.377
L197.315 -111.377
L197.608 -111.377
L200.528 -111.377
L200.968 -111.377
L201.627 -111.377
L204.318 -111.377
L207.913 -111.377
L215.634 -101.785
L215.65 -101.1
L219.268 -96.3043
L219.449 -96.3043
L220.838 -96.9894
L230.337 -103.156
L233.58 -105.211
L236.31 -107.266
L250.099 -106.581
L259.001 -110.007
L259.001 -110.007
L260.001 -110.007
L261.074 -110.007
L267.421 -110.692
L270.037 -111.377
L272.267 -110.007
L274.748 -107.951
L276.134 -108.636
L277.39 -109.322
L278.732 -109.322
L281.45 -110.007
L282.365 -108.636
L284.265 -107.266
L285 -106.581
L286.185 -105.896
L286.579 -105.896
L288.473 -101.785
L289.135 -100.415
L290.011 -99.7299
L291.477 -99.0448
L297.611 -101.785
L298.074 -100.415
L298.507 -99.7299
L300.03 -96.9894
L300.656 -96.3043
L301.594 -96.3043
L302.84 -96.3043
L304.4 -96.3043
L308.499 -96.3043
L310.328 -96.3043
L310.328 -96.3043
L316.13 -97.6745
L321.305 -95.6192
L323.446 -91.5084
L325.351 -89.4531
L330.079 -86.7126
L336.572 -86.7126
L337.682 -86.0275
L339.033 -85.3423
L341.031 -84.6572
L342.711 -82.6018
L347.042 -78.4911
L349.946 -79.1762
L350.751 -79.1762
L350.767 -79.1762
L351.359 -79.1762
L352.158 -79.1762
L353.106 -79.1762
L354.108 -79.1762
L355.549 -80.5465
L356.289 -82.6018
L362.821 -105.896
L372.942 -111.377
L372.942 -111.377
L380.255 -111.377
L385.055 -111.377
L385.755 -110.007
L386.217 -109.322
L389.233 -103.841
L391.185 -99.0448
L391.202 -98.3597
L402.736 -86.7126
L403.408 -86.7126
L405.548 -88.7679
L406.884 -88.0828
L415.037 -86.7126
L416.374 -85.3423
L418.201 -83.9721
L419.052 -82.6018
L419.837 -81.2316
L420.468 -80.5465
L422.016 -77.1209
L422.778 -75.7506
L422.778 -75.7506
L423.534 -76.4357
L424.762 -79.1762
L425.312 -78.4911
L426.195 -78.4911
L426.747 -78.4911
L427.517 -79.1762
L431.382 -83.9721
L435.021 -88.0828
L439.091 -85.3423
L442.804 -81.2316
L451.192 -86.0275
L451.856 -86.0275
L452.779 -86.7126
L453.679 -88.0828
L456.597 -88.7679
L457.151 -88.0828
L459.492 -86.7126
L462.263 -82.6018
L470.191 -85.3423
L470.208 -84.6572
L483.162 -81.9167
L484.525 -81.9167
L487.083 -81.9167
L489.384 -80.5465
L492.004 -81.2316
L496.108 -79.8614
L505.727 -76.4357
L509.696 -78.4911
L515.207 -77.806
L515.702 -77.806
L517.068 -77.806
L517.941 -77.806
L518.715 -79.1762
L520.243 -82.6018
L520.567 -81.9167
L520.896 -81.2316
L521.282 -80.5465
L525.797 -74.3804
L525.814 -74.3804
L533.942 -81.2316
L534.336 -80.5465
L535.143 -79.8614
L535.49 -79.8614
L540.717 -76.4357
L541.467 -77.1209
L546.021 -82.6018
L546.65 -82.6018
L548.73 -85.3423
L549.67 -85.3423
L555.721 -89.4531
L556.18 -89.4531
L556.504 -89.4531
L557.329 -89.4531
L558.873 -89.4531
L560.406 -89.4531
L561.597 -89.4531
L562.705 -89.4531
L564.176 -88.7679
L566.946 -88.7679
L567.998 -88.0828
L571.563 -86.0275
L572.482 -84.6572
L573.325 -83.287
L575.841 -80.5465
L576.425 -80.5465
L577.067 -81.2316
L577.329 -81.2316
L580.584 -83.9721
L580.584 -83.9721
L585.768 -88.7679
L585.993 -88.7679
L586.224 -88.7679
L587.327 -88.7679
L589.284 -88.7679
L589.821 -87.3977
L594.289 -81.9167
L598.243 -72.325
L600.091 -68.8994
L600.459 -68.8994
L610.977 -77.806
L611.413 -77.806
L612.869 -77.806
L613.224 -77.806
L618.373 -73.6953
L620.729 -70.2696
L621.23 -70.2696
L624.608 -70.2696
L625.654 -70.2696
L626.363 -70.2696
L628.384 -70.2696
L632.635 -82.6018
L633.645 -83.287
L634.26 -83.9721
L634.59 -83.9721
L635.259 -85.3423
L645.057 -66.844
L645.809 -66.844
L647.557 -66.844
L649.159 -64.7887
L652.577 -62.0482
L653.377 -62.0482
L655.291 -62.0482
L656.318 -62.7333
L656.901 -63.4184
L659.857 -67.5292
L664.749 -68.8994
L666.632 -68.8994
L666.648 -68.2143
L674.796 -63.4184
L686.203 -73.6953
L686.203 -73.6953
L691.891 -73.0101
L694.367 -70.2696
L694.614 -70.2696
L695.122 -70.2696
L696.68 -70.9548
L698.636 -71.6399
L699.461 -71.6399
L700.518 -71.6399
L707.04 -73.0101
L707.04 -42.8647
L707.04 -42.8647
L700.518 -42.8647
L699.461 -42.8647
L698.636 -42.8647
L696.68 -42.8647
L695.122 -42.8647
L694.614 -42.8647
L694.367 -42.8647
L691.891 -42.8647
L686.203 -42.8647
L686.203 -42.8647
L674.796 -42.8647
L666.648 -42.8647
L666.632 -42.8647
L664.749 -42.8647
L659.857 -42.8647
L656.901 -42.8647
L656.318 -42.8647
L655.291 -42.8647
L653.377 -42.8647
L652.577 -42.8647
L649.159 -42.8647
L647.557 -42.8647
L645.809 -42.8647
L645.057 -42.8647
L635.259 -42.8647
L634.59 -42.8647
L634.26 -42.8647
L633.645 -42.8647
L632.635 -42.8647
L628.384 -42.8647
L626.363 -42.8647
L625.654 -42.8647
L624.608 -42.8647
L621.23 -42.8647
L620.729 -42.8647
L618.373 -42.8647
L613.224 -42.8647
L612.869 -42.8647
L611.413 -42.8647
L610.977 -42.8647
L600.459 -42.8647
L600.091 -42.8647
L598.243 -42.8647
L594.289 -42.8647
L589.821 -42.8647
L589.284 -42.8647
L587.327 -42.8647
L586.224 -42.8647
L585.993 -42.8647
L585.768 -42.8647
L580.584 -42.8647
L580.584 -42.8647
L577.329 -42.8647
L577.067 -42.8647
L576.425 -42.8647
L575.841 -42.8647
L573.325 -42.8647
L572.482 -42.8647
L571.563 -42.8647
L567.998 -42.8647
L566.946 -42.8647
L564.176 -42.8647
L562.705 -42.8647
L561.597 -42.8647
L560.406 -42.8647
L558.873 -42.8647
L557.329 -42.8647
L556.504 -42.8647
L556.18 -42.8647
L555.721 -42.8647
L549.67 -42.8647
L548.73 -42.8647
L546.65 -42.8647
L546.021 -42.8647
L541.467 -42.8647
L540.717 -42.8647
L535.49 -42.8647
L535.143 -42.8647
L534.336 -42.8647
L533.942 -42.8647
L525.814 -42.8647
L525.797 -42.8647
L521.282 -42.8647
L520.896 -42.8647
L520.567 -42.8647
L520.243 -42.8647
L518.715 -42.8647
L517.941 -42.8647
L517.068 -42.8647
L515.702 -42.8647
L515.207 -42.8647
L509.696 -42.8647
L505.727 -42.8647
L496.108 -42.8647
L492.004 -42.8647
L489.384 -42.8647
L487.083 -42.8647
L484.525 -42.8647
L483.162 -42.8647
L470.208 -42.8647
L470.191 -42.8647
L462.263 -42.8647
L459.492 -42.8647
L457.151 -42.8647
L456.597 -42.8647
L453.679 -42.8647
L452.779 -42.8647
L451.856 -42.8647
L451.192 -42.8647
L442.804 -42.8647
L439.091 -42.8647
L435.021 -42.8647
L431.382 -42.8647
L427.517 -42.8647
L426.747 -42.8647
L426.195 -42.8647
L425.312 -42.8647
L424.762 -42.8647
L423.534 -42.8647
L422.778 -42.8647
L422.778 -42.8647
L422.016 -42.8647
L420.468 -42.8647
L419.837 -42.8647
L419.052 -42.8647
L418.201 -42.8647
L416.374 -42.8647
L415.037 -42.8647
L406.884 -42.8647
L405.548 -42.8647
L403.408 -42.8647
L402.736 -42.8647
L391.202 -42.8647
L391.185 -42.8647
L389.233 -42.8647
L386.217 -42.8647
L385.755 -42.8647
L385.055 -42.8647
L380.255 -42.8647
L372.942 -42.8647
L372.942 -42.8647
L362.821 -42.8647
L356.289 -42.8647
L355.549 -42.8647
L354.108 -42.8647
L353.106 -42.8647
L352.158 -42.8647
L351.359 -42.8647
L350.767 -42.8647
L350.751 -42.8647
L349.946 -42.8647
L347.042 -42.8647
L342.711 -42.8647
L341.031 -42.8647
L339.033 -42.8647
L337.682 -42.8647
L336.572 -42.8647
L330.079 -42.8647
L325.351 -42.8647
L323.446 -42.8647
L321.305 -42.8647
L316.13 -42.8647
L310.328 -42.8647
L310.328 -42.8647
L308.499 -42.8647
L304.4 -42.8647
L302.84 -42.8647
L301.594 -42.8647
L300.656 -42.8647
L300.03 -42.8647
L298.507 -42.8647
L298.074 -42.8647
L297.611 -42.8647
L291.477 -42.8647
L290.011 -42.8647
L289.135 -42.8647
L288.473 -42.8647
L286.579 -42.8647
L286.185 -42.8647
L285 -42.8647
L284.265 -42.8647
L282.365 -42.8647
L281.45 -42.8647
L278.732 -42.8647
L277.39 -42.8647
L276.134 -42.8647
L274.748 -42.8647
L272.267 -42.8647
L270.037 -42.8647
L267.421 -42.8647
L261.074 -42.8647
L260.001 -42.8647
L259.001 -42.8647
L259.001 -42.8647
L250.099 -42.8647
L236.31 -42.8647
L233.58 -42.8647
L230.337 -42.8647
L220.838 -42.8647
L219.449 -42.8647
L219.268 -42.8647
L215.65 -42.8647
L215.634 -42.8647
L207.913 -42.8647
L204.318 -42.8647
L201.627 -42.8647
L200.968 -42.8647
L200.528 -42.8647
L197.608 -42.8647
L197.315 -42.8647
L195.017 -42.8647
L194.252 -42.8647
L193.341 -42.8647
L191.469 -42.8647
L189.298 -42.8647
L188.527 -42.8647
L186.36 -42.8647
L183.742 -42.8647
L179.42 -42.8647
L179.141 -42.8647
L175.747 -42.8647
L174.895 -42.8647
L173.041 -42.8647
L171.548 -42.8647
L171.548 -42.8647
L170.801 -42.8647
L168.994 -42.8647
L165.552 -42.8647
L162.068 -42.8647
L160.267 -42.8647
L159.082 -42.8647
L144.182 -42.8647
L143.297 -42.8647
L138.184 -42.8647
L134.421 -42.8647
L133.403 -42.8647
L132.419 -42.8647
L130.021 -42.8647
L130.021 -42.8647
L128.01 -42.8647
L125.534 -42.8647
L120.261 -42.8647
L119.684 -42.8647
L119.096 -42.8647
L116.575 -42.8647
L113.35 -42.8647
L111.9 -42.8647
L110.311 -42.8647
L108.496 -42.8647
L105.537 -42.8647
L104.867 -42.8647
L102.995 -42.8647
L100.663 -42.8647
L99.4532 -42.8647
L98.6671 -42.8647
L96.6193 -42.8647
L96.5977 -42.8647
L95.9302 -42.8647
L84.6817 -42.8647
L84.0081 -42.8647
L83.072 -42.8647
L80.7321 -42.8647
L78.9485 -42.8647
L77.4392 -42.8647
L76.3296 -42.8647
L75.0728 -42.8647
L74.1565 -42.8647
L68.5391 -42.8647
L67.5885 -42.8647
L65.9121 -42.8647
L64.28 -42.8647
L63.6527 -42.8647
L63.1277 -42.8647
L61.8605 -42.8647
L57.8277 -42.8647
L56.7844 -42.8647
L55.8521 -42.8647
L54.5261 -42.8647
L53.9206 -42.8647
L52.5833 -42.8647
L52.0756 -42.8647
L51.5818 -42.8647
z
" id="C4_0_8d1f57c6c5"/>
    </defs>
    <g clip-path="url(#pcc590e6ce2)">
     <use style="fill:#0000ff;fill-opacity:0.05;stroke:#0000ff;stroke-opacity:0.05;" x="0.0" xlink:href="#C4_0_8d1f57c6c5" y="144.0"/>
    </g>
   </g>
   <g id="PolyCollection_6">
    <defs>
     <path d="
M51.5818 -42.8647
L51.5818 -73.0101
L52.0756 -73.0101
L52.5833 -73.6953
L53.9206 -74.3804
L54.5261 -75.0655
L55.8521 -76.4357
L56.7844 -77.806
L57.8277 -76.4357
L61.8605 -72.325
L63.1277 -71.6399
L63.6527 -71.6399
L64.28 -71.6399
L65.9121 -70.9548
L67.5885 -70.9548
L68.5391 -70.2696
L74.1565 -69.5845
L75.0728 -69.5845
L76.3296 -69.5845
L77.4392 -69.5845
L78.9485 -70.2696
L80.7321 -71.6399
L83.072 -73.6953
L84.0081 -74.3804
L84.6817 -75.0655
L95.9302 -87.3977
L96.5977 -88.7679
L96.6193 -88.7679
L98.6671 -92.1936
L99.4532 -94.2489
L100.663 -98.3597
L102.995 -105.896
L104.867 -108.636
L105.537 -110.007
L108.496 -112.062
L110.311 -111.377
L111.9 -111.377
L113.35 -110.692
L116.575 -109.322
L119.096 -109.322
L119.684 -108.636
L120.261 -108.636
L125.534 -105.896
L128.01 -105.211
L130.021 -107.951
L130.021 -107.951
L132.419 -110.007
L133.403 -107.951
L134.421 -105.896
L138.184 -106.581
L143.297 -111.377
L144.182 -110.692
L159.082 -110.692
L160.267 -110.007
L162.068 -109.322
L165.552 -112.062
L168.994 -114.803
L170.801 -114.803
L171.548 -115.488
L171.548 -115.488
L173.041 -113.432
L174.895 -111.377
L175.747 -112.062
L179.141 -117.543
L179.42 -117.543
L183.742 -118.913
L186.36 -118.228
L188.527 -116.173
L189.298 -116.858
L191.469 -118.913
L193.341 -121.654
L194.252 -123.024
L195.017 -121.654
L197.315 -117.543
L197.608 -116.858
L200.528 -116.858
L200.968 -116.858
L201.627 -117.543
L204.318 -119.598
L207.913 -114.117
L215.634 -101.785
L215.65 -101.1
L219.268 -96.3043
L219.449 -96.3043
L220.838 -96.9894
L230.337 -103.156
L233.58 -105.211
L236.31 -107.266
L250.099 -106.581
L259.001 -110.007
L259.001 -110.007
L260.001 -110.007
L261.074 -110.007
L267.421 -110.692
L270.037 -111.377
L272.267 -110.007
L274.748 -107.951
L276.134 -108.636
L277.39 -109.322
L278.732 -109.322
L281.45 -110.007
L282.365 -108.636
L284.265 -107.266
L285 -106.581
L286.185 -105.896
L286.579 -105.896
L288.473 -101.785
L289.135 -100.415
L290.011 -99.7299
L291.477 -99.0448
L297.611 -101.785
L298.074 -100.415
L298.507 -99.7299
L300.03 -96.9894
L300.656 -96.3043
L301.594 -96.3043
L302.84 -96.3043
L304.4 -96.3043
L308.499 -96.3043
L310.328 -96.3043
L310.328 -96.3043
L316.13 -97.6745
L321.305 -95.6192
L323.446 -91.5084
L325.351 -89.4531
L330.079 -86.7126
L336.572 -86.7126
L337.682 -86.0275
L339.033 -85.3423
L341.031 -84.6572
L342.711 -82.6018
L347.042 -78.4911
L349.946 -79.1762
L350.751 -79.1762
L350.767 -79.1762
L351.359 -79.1762
L352.158 -79.1762
L353.106 -79.1762
L354.108 -79.1762
L355.549 -80.5465
L356.289 -82.6018
L362.821 -105.896
L372.942 -116.858
L372.942 -116.858
L380.255 -122.339
L385.055 -112.062
L385.755 -110.007
L386.217 -109.322
L389.233 -103.841
L391.185 -99.0448
L391.202 -98.3597
L402.736 -86.7126
L403.408 -86.7126
L405.548 -88.7679
L406.884 -88.0828
L415.037 -86.7126
L416.374 -85.3423
L418.201 -83.9721
L419.052 -82.6018
L419.837 -81.2316
L420.468 -80.5465
L422.016 -77.1209
L422.778 -75.7506
L422.778 -75.7506
L423.534 -76.4357
L424.762 -79.1762
L425.312 -78.4911
L426.195 -78.4911
L426.747 -78.4911
L427.517 -79.1762
L431.382 -83.9721
L435.021 -88.0828
L439.091 -85.3423
L442.804 -81.2316
L451.192 -86.0275
L451.856 -86.0275
L452.779 -86.7126
L453.679 -88.0828
L456.597 -88.7679
L457.151 -88.0828
L459.492 -86.7126
L462.263 -82.6018
L470.191 -85.3423
L470.208 -84.6572
L483.162 -81.9167
L484.525 -81.9167
L487.083 -81.9167
L489.384 -80.5465
L492.004 -81.2316
L496.108 -79.8614
L505.727 -76.4357
L509.696 -78.4911
L515.207 -77.806
L515.702 -77.806
L517.068 -77.806
L517.941 -77.806
L518.715 -79.1762
L520.243 -82.6018
L520.567 -81.9167
L520.896 -81.2316
L521.282 -80.5465
L525.797 -74.3804
L525.814 -74.3804
L533.942 -81.2316
L534.336 -80.5465
L535.143 -79.8614
L535.49 -79.8614
L540.717 -76.4357
L541.467 -77.1209
L546.021 -82.6018
L546.65 -82.6018
L548.73 -85.3423
L549.67 -85.3423
L555.721 -89.4531
L556.18 -89.4531
L556.504 -89.4531
L557.329 -89.4531
L558.873 -89.4531
L560.406 -89.4531
L561.597 -89.4531
L562.705 -89.4531
L564.176 -88.7679
L566.946 -88.7679
L567.998 -88.0828
L571.563 -86.0275
L572.482 -84.6572
L573.325 -83.287
L575.841 -80.5465
L576.425 -80.5465
L577.067 -81.2316
L577.329 -81.2316
L580.584 -83.9721
L580.584 -83.9721
L585.768 -88.7679
L585.993 -88.7679
L586.224 -88.7679
L587.327 -88.7679
L589.284 -88.7679
L589.821 -87.3977
L594.289 -81.9167
L598.243 -72.325
L600.091 -68.8994
L600.459 -68.8994
L610.977 -77.806
L611.413 -77.806
L612.869 -77.806
L613.224 -77.806
L618.373 -73.6953
L620.729 -70.2696
L621.23 -70.2696
L624.608 -70.2696
L625.654 -70.2696
L626.363 -70.2696
L628.384 -70.2696
L632.635 -82.6018
L633.645 -83.287
L634.26 -83.9721
L634.59 -83.9721
L635.259 -85.3423
L645.057 -66.844
L645.809 -66.844
L647.557 -66.844
L649.159 -64.7887
L652.577 -62.0482
L653.377 -62.0482
L655.291 -62.0482
L656.318 -62.7333
L656.901 -63.4184
L659.857 -67.5292
L664.749 -68.8994
L666.632 -68.8994
L666.648 -68.2143
L674.796 -63.4184
L686.203 -73.6953
L686.203 -73.6953
L691.891 -73.0101
L694.367 -70.2696
L694.614 -70.2696
L695.122 -70.2696
L696.68 -70.9548
L698.636 -71.6399
L699.461 -71.6399
L700.518 -71.6399
L707.04 -73.0101
L707.04 -42.8647
L707.04 -42.8647
L700.518 -42.8647
L699.461 -42.8647
L698.636 -42.8647
L696.68 -42.8647
L695.122 -42.8647
L694.614 -42.8647
L694.367 -42.8647
L691.891 -42.8647
L686.203 -42.8647
L686.203 -42.8647
L674.796 -42.8647
L666.648 -42.8647
L666.632 -42.8647
L664.749 -42.8647
L659.857 -42.8647
L656.901 -42.8647
L656.318 -42.8647
L655.291 -42.8647
L653.377 -42.8647
L652.577 -42.8647
L649.159 -42.8647
L647.557 -42.8647
L645.809 -42.8647
L645.057 -42.8647
L635.259 -42.8647
L634.59 -42.8647
L634.26 -42.8647
L633.645 -42.8647
L632.635 -42.8647
L628.384 -42.8647
L626.363 -42.8647
L625.654 -42.8647
L624.608 -42.8647
L621.23 -42.8647
L620.729 -42.8647
L618.373 -42.8647
L613.224 -42.8647
L612.869 -42.8647
L611.413 -42.8647
L610.977 -42.8647
L600.459 -42.8647
L600.091 -42.8647
L598.243 -42.8647
L594.289 -42.8647
L589.821 -42.8647
L589.284 -42.8647
L587.327 -42.8647
L586.224 -42.8647
L585.993 -42.8647
L585.768 -42.8647
L580.584 -42.8647
L580.584 -42.8647
L577.329 -42.8647
L577.067 -42.8647
L576.425 -42.8647
L575.841 -42.8647
L573.325 -42.8647
L572.482 -42.8647
L571.563 -42.8647
L567.998 -42.8647
L566.946 -42.8647
L564.176 -42.8647
L562.705 -42.8647
L561.597 -42.8647
L560.406 -42.8647
L558.873 -42.8647
L557.329 -42.8647
L556.504 -42.8647
L556.18 -42.8647
L555.721 -42.8647
L549.67 -42.8647
L548.73 -42.8647
L546.65 -42.8647
L546.021 -42.8647
L541.467 -42.8647
L540.717 -42.8647
L535.49 -42.8647
L535.143 -42.8647
L534.336 -42.8647
L533.942 -42.8647
L525.814 -42.8647
L525.797 -42.8647
L521.282 -42.8647
L520.896 -42.8647
L520.567 -42.8647
L520.243 -42.8647
L518.715 -42.8647
L517.941 -42.8647
L517.068 -42.8647
L515.702 -42.8647
L515.207 -42.8647
L509.696 -42.8647
L505.727 -42.8647
L496.108 -42.8647
L492.004 -42.8647
L489.384 -42.8647
L487.083 -42.8647
L484.525 -42.8647
L483.162 -42.8647
L470.208 -42.8647
L470.191 -42.8647
L462.263 -42.8647
L459.492 -42.8647
L457.151 -42.8647
L456.597 -42.8647
L453.679 -42.8647
L452.779 -42.8647
L451.856 -42.8647
L451.192 -42.8647
L442.804 -42.8647
L439.091 -42.8647
L435.021 -42.8647
L431.382 -42.8647
L427.517 -42.8647
L426.747 -42.8647
L426.195 -42.8647
L425.312 -42.8647
L424.762 -42.8647
L423.534 -42.8647
L422.778 -42.8647
L422.778 -42.8647
L422.016 -42.8647
L420.468 -42.8647
L419.837 -42.8647
L419.052 -42.8647
L418.201 -42.8647
L416.374 -42.8647
L415.037 -42.8647
L406.884 -42.8647
L405.548 -42.8647
L403.408 -42.8647
L402.736 -42.8647
L391.202 -42.8647
L391.185 -42.8647
L389.233 -42.8647
L386.217 -42.8647
L385.755 -42.8647
L385.055 -42.8647
L380.255 -42.8647
L372.942 -42.8647
L372.942 -42.8647
L362.821 -42.8647
L356.289 -42.8647
L355.549 -42.8647
L354.108 -42.8647
L353.106 -42.8647
L352.158 -42.8647
L351.359 -42.8647
L350.767 -42.8647
L350.751 -42.8647
L349.946 -42.8647
L347.042 -42.8647
L342.711 -42.8647
L341.031 -42.8647
L339.033 -42.8647
L337.682 -42.8647
L336.572 -42.8647
L330.079 -42.8647
L325.351 -42.8647
L323.446 -42.8647
L321.305 -42.8647
L316.13 -42.8647
L310.328 -42.8647
L310.328 -42.8647
L308.499 -42.8647
L304.4 -42.8647
L302.84 -42.8647
L301.594 -42.8647
L300.656 -42.8647
L300.03 -42.8647
L298.507 -42.8647
L298.074 -42.8647
L297.611 -42.8647
L291.477 -42.8647
L290.011 -42.8647
L289.135 -42.8647
L288.473 -42.8647
L286.579 -42.8647
L286.185 -42.8647
L285 -42.8647
L284.265 -42.8647
L282.365 -42.8647
L281.45 -42.8647
L278.732 -42.8647
L277.39 -42.8647
L276.134 -42.8647
L274.748 -42.8647
L272.267 -42.8647
L270.037 -42.8647
L267.421 -42.8647
L261.074 -42.8647
L260.001 -42.8647
L259.001 -42.8647
L259.001 -42.8647
L250.099 -42.8647
L236.31 -42.8647
L233.58 -42.8647
L230.337 -42.8647
L220.838 -42.8647
L219.449 -42.8647
L219.268 -42.8647
L215.65 -42.8647
L215.634 -42.8647
L207.913 -42.8647
L204.318 -42.8647
L201.627 -42.8647
L200.968 -42.8647
L200.528 -42.8647
L197.608 -42.8647
L197.315 -42.8647
L195.017 -42.8647
L194.252 -42.8647
L193.341 -42.8647
L191.469 -42.8647
L189.298 -42.8647
L188.527 -42.8647
L186.36 -42.8647
L183.742 -42.8647
L179.42 -42.8647
L179.141 -42.8647
L175.747 -42.8647
L174.895 -42.8647
L173.041 -42.8647
L171.548 -42.8647
L171.548 -42.8647
L170.801 -42.8647
L168.994 -42.8647
L165.552 -42.8647
L162.068 -42.8647
L160.267 -42.8647
L159.082 -42.8647
L144.182 -42.8647
L143.297 -42.8647
L138.184 -42.8647
L134.421 -42.8647
L133.403 -42.8647
L132.419 -42.8647
L130.021 -42.8647
L130.021 -42.8647
L128.01 -42.8647
L125.534 -42.8647
L120.261 -42.8647
L119.684 -42.8647
L119.096 -42.8647
L116.575 -42.8647
L113.35 -42.8647
L111.9 -42.8647
L110.311 -42.8647
L108.496 -42.8647
L105.537 -42.8647
L104.867 -42.8647
L102.995 -42.8647
L100.663 -42.8647
L99.4532 -42.8647
L98.6671 -42.8647
L96.6193 -42.8647
L96.5977 -42.8647
L95.9302 -42.8647
L84.6817 -42.8647
L84.0081 -42.8647
L83.072 -42.8647
L80.7321 -42.8647
L78.9485 -42.8647
L77.4392 -42.8647
L76.3296 -42.8647
L75.0728 -42.8647
L74.1565 -42.8647
L68.5391 -42.8647
L67.5885 -42.8647
L65.9121 -42.8647
L64.28 -42.8647
L63.6527 -42.8647
L63.1277 -42.8647
L61.8605 -42.8647
L57.8277 -42.8647
L56.7844 -42.8647
L55.8521 -42.8647
L54.5261 -42.8647
L53.9206 -42.8647
L52.5833 -42.8647
L52.0756 -42.8647
L51.5818 -42.8647
z
" id="C5_0_7a62d490f7"/>
    </defs>
    <g clip-path="url(#pcc590e6ce2)">
     <use style="fill:#0000ff;fill-opacity:0.05;stroke:#0000ff;stroke-opacity:0.05;" x="0.0" xlink:href="#C5_0_7a62d490f7" y="144.0"/>
    </g>
   </g>
   <g id="line2d_1">
    <path clip-path="url(#pcc590e6ce2)" d="
M51.5818 70.9899
L52.0756 70.9899
L52.5833 70.3047
L53.9206 69.6196
L55.8521 67.5643
L56.7844 66.194
L57.8277 67.5643
L61.8605 71.675
L63.1277 72.3601
L64.28 72.3601
L65.9121 73.0452
L67.5885 73.0452
L68.5391 73.7304
L75.0728 74.4155
L77.4392 74.4155
L78.9485 73.7304
L80.7321 72.3601
L84.6817 68.9345
L95.9302 56.6023
L96.6193 55.2321
L98.6671 51.8064
L99.4532 49.7511
L102.995 38.104
L104.867 35.3635
L105.537 33.9933
L108.496 31.9379
L110.311 32.623
L111.9 32.623
L113.35 33.3081
L116.575 34.6784
L119.096 34.6784
L119.684 35.3635
L120.261 35.3635
L125.534 38.104
L128.01 38.7891
L130.021 36.0486
L130.021 36.0486
L132.419 33.9933
L134.421 38.104
L138.184 37.4189
L143.297 32.623
L144.182 33.3081
L159.082 33.3081
L160.267 33.9933
L162.068 34.6784
L168.994 29.1974
L170.801 29.1974
L171.548 28.5123
L171.548 28.5123
L173.041 30.5676
L174.895 32.623
L175.747 31.9379
L179.141 26.4569
L179.42 26.4569
L183.742 25.0867
L186.36 25.7718
L188.527 27.8272
L191.469 25.0867
L194.252 20.9759
L197.608 27.142
L200.968 27.142
L201.627 26.4569
L204.318 24.4015
L207.913 29.8825
L215.634 42.2147
L215.65 42.8998
L219.268 47.6957
L219.449 47.6957
L220.838 47.0106
L233.58 38.7891
L236.31 36.7337
L250.099 37.4189
L259.001 33.9933
L259.001 33.9933
L261.074 33.9933
L267.421 33.3081
L270.037 32.623
L272.267 33.9933
L274.748 36.0486
L277.39 34.6784
L278.732 34.6784
L281.45 33.9933
L282.365 35.3635
L284.265 36.7337
L285 37.4189
L286.185 38.104
L286.579 38.104
L289.135 43.585
L290.011 44.2701
L291.477 44.9552
L297.611 42.2147
L298.074 43.585
L298.507 44.2701
L300.03 47.0106
L300.656 47.6957
L310.328 47.6957
L310.328 47.6957
L316.13 46.3255
L321.305 48.3808
L323.446 52.4916
L325.351 54.5469
L330.079 57.2874
L336.572 57.2874
L337.682 57.9725
L339.033 58.6577
L341.031 59.3428
L342.711 61.3982
L347.042 65.5089
L349.946 64.8238
L354.108 64.8238
L355.549 63.4535
L356.289 61.3982
L362.821 38.104
L372.942 27.142
L372.942 27.142
L380.255 21.6611
L385.055 31.9379
L385.755 33.9933
L386.217 34.6784
L389.233 40.1594
L391.185 44.9552
L391.202 45.6403
L402.736 57.2874
L403.408 57.2874
L405.548 55.2321
L406.884 55.9172
L415.037 57.2874
L416.374 58.6577
L418.201 60.0279
L419.837 62.7684
L420.468 63.4535
L422.016 66.8791
L422.778 68.2494
L422.778 68.2494
L423.534 67.5643
L424.762 64.8238
L425.312 65.5089
L426.747 65.5089
L427.517 64.8238
L431.382 60.0279
L435.021 55.9172
L439.091 58.6577
L442.804 62.7684
L451.192 57.9725
L451.856 57.9725
L452.779 57.2874
L453.679 55.9172
L456.597 55.2321
L457.151 55.9172
L459.492 57.2874
L462.263 61.3982
L470.191 58.6577
L470.208 59.3428
L483.162 62.0833
L487.083 62.0833
L489.384 63.4535
L492.004 62.7684
L496.108 64.1386
L505.727 67.5643
L509.696 65.5089
L515.702 66.194
L517.941 66.194
L518.715 64.8238
L520.243 61.3982
L521.282 63.4535
L525.814 69.6196
L533.942 62.7684
L534.336 63.4535
L535.143 64.1386
L535.49 64.1386
L540.717 67.5643
L541.467 66.8791
L546.021 61.3982
L546.65 61.3982
L548.73 58.6577
L549.67 58.6577
L555.721 54.5469
L562.705 54.5469
L564.176 55.2321
L566.946 55.2321
L567.998 55.9172
L571.563 57.9725
L573.325 60.713
L575.841 63.4535
L576.425 63.4535
L577.067 62.7684
L577.329 62.7684
L580.584 60.0279
L580.584 60.0279
L585.768 55.2321
L589.284 55.2321
L589.821 56.6023
L594.289 62.0833
L598.243 71.675
L600.091 75.1006
L600.459 75.1006
L610.977 66.194
L613.224 66.194
L618.373 70.3047
L620.729 73.7304
L628.384 73.7304
L632.635 61.3982
L633.645 60.713
L634.26 60.0279
L634.59 60.0279
L635.259 58.6577
L645.057 77.156
L647.557 77.156
L649.159 79.2113
L652.577 81.9518
L655.291 81.9518
L656.318 81.2667
L656.901 80.5816
L659.857 76.4708
L664.749 75.1006
L666.632 75.1006
L666.648 75.7857
L674.796 80.5816
L686.203 70.3047
L686.203 70.3047
L691.891 70.9899
L694.367 73.7304
L695.122 73.7304
L696.68 73.0452
L698.636 72.3601
L700.518 72.3601
L707.04 70.9899
L707.04 70.9899" style="fill:none;stroke:#0000ff;stroke-linecap:square;stroke-width:2;"/>
   </g>
   <g id="matplotlib.axis_1">
    <g id="xtick_1">
     <g id="line2d_2">
      <defs>
       <path d="
M0 0
L0 -4" id="m93b0483c22" style="stroke:#000000;stroke-width:0.5;"/>
      </defs>
      <g>
       <use style="stroke:#000000;stroke-width:0.5;" x="51.123375" xlink:href="#m93b0483c22" y="101.13525"/>
      </g>
     </g>
     <g id="line2d_3">
      <defs>
       <path d="
M0 0
L0 4" id="m741efc42ff" style="stroke:#000000;stroke-width:0.5;"/>
      </defs>
      <g>
       <use style="stroke:#000000;stroke-width:0.5;" x="51.123375" xlink:href="#m741efc42ff" y="12.96"/>
      </g>
     </g>
     <g id="text_1">
      <!-- 0 -->
      <defs>
       <path d="
M31.7812 66.4062
Q24.1719 66.4062 20.3281 58.9062
Q16.5 51.4219 16.5 36.375
Q16.5 21.3906 20.3281 13.8906
Q24.1719 6.39062 31.7812 6.39062
Q39.4531 6.39062 43.2812 13.8906
Q47.125 21.3906 47.125 36.375
Q47.125 51.4219 43.2812 58.9062
Q39.4531 66.4062 31.7812 66.4062
M31.7812 74.2188
Q44.0469 74.2188 50.5156 64.5156
Q56.9844 54.8281 56.9844 36.375
Q56.9844 17.9688 50.5156 8.26562
Q44.0469 -1.42188 31.7812 -1.42188
Q19.5312 -1.42188 13.0625 8.26562
Q6.59375 17.9688 6.59375 36.375
Q6.59375 54.8281 13.0625 64.5156
Q19.5312 74.2188 31.7812 74.2188" id="BitstreamVeraSans-Roman-30"/>
      </defs>
      <g transform="translate(48.0999375 114.253375)scale(0.12 -0.12)">
       <use xlink:href="#BitstreamVeraSans-Roman-30"/>
      </g>
     </g>
    </g>
    <g id="xtick_2">
     <g id="line2d_4">
      <g>
       <use style="stroke:#000000;stroke-width:0.5;" x="148.15309722" xlink:href="#m93b0483c22" y="101.13525"/>
      </g>
     </g>
     <g id="line2d_5">
      <g>
       <use style="stroke:#000000;stroke-width:0.5;" x="148.15309722" xlink:href="#m741efc42ff" y="12.96"/>
      </g>
     </g>
     <g id="text_2">
      <!-- 5 -->
      <defs>
       <path d="
M10.7969 72.9062
L49.5156 72.9062
L49.5156 64.5938
L19.8281 64.5938
L19.8281 46.7344
Q21.9688 47.4688 24.1094 47.8281
Q26.2656 48.1875 28.4219 48.1875
Q40.625 48.1875 47.75 41.5
Q54.8906 34.8125 54.8906 23.3906
Q54.8906 11.625 47.5625 5.09375
Q40.2344 -1.42188 26.9062 -1.42188
Q22.3125 -1.42188 17.5469 -0.640625
Q12.7969 0.140625 7.71875 1.70312
L7.71875 11.625
Q12.1094 9.23438 16.7969 8.0625
Q21.4844 6.89062 26.7031 6.89062
Q35.1562 6.89062 40.0781 11.3281
Q45.0156 15.7656 45.0156 23.3906
Q45.0156 31 40.0781 35.4375
Q35.1562 39.8906 26.7031 39.8906
Q22.75 39.8906 18.8125 39.0156
Q14.8906 38.1406 10.7969 36.2812
z
" id="BitstreamVeraSans-Roman-35"/>
      </defs>
      <g transform="translate(145.32278472 114.253375)scale(0.12 -0.12)">
       <use xlink:href="#BitstreamVeraSans-Roman-35"/>
      </g>
     </g>
    </g>
    <g id="xtick_3">
     <g id="line2d_6">
      <g>
       <use style="stroke:#000000;stroke-width:0.5;" x="245.182819441" xlink:href="#m93b0483c22" y="101.13525"/>
      </g>
     </g>
     <g id="line2d_7">
      <g>
       <use style="stroke:#000000;stroke-width:0.5;" x="245.182819441" xlink:href="#m741efc42ff" y="12.96"/>
      </g>
     </g>
     <g id="text_3">
      <!-- 10 -->
      <defs>
       <path d="
M12.4062 8.29688
L28.5156 8.29688
L28.5156 63.9219
L10.9844 60.4062
L10.9844 69.3906
L28.4219 72.9062
L38.2812 72.9062
L38.2812 8.29688
L54.3906 8.29688
L54.3906 0
L12.4062 0
z
" id="BitstreamVeraSans-Roman-31"/>
      </defs>
      <g transform="translate(238.605319441 114.253375)scale(0.12 -0.12)">
       <use xlink:href="#BitstreamVeraSans-Roman-31"/>
       <use x="63.623046875" xlink:href="#BitstreamVeraSans-Roman-30"/>
      </g>
     </g>
    </g>
    <g id="xtick_4">
     <g id="line2d_8">
      <g>
       <use style="stroke:#000000;stroke-width:0.5;" x="342.212541661" xlink:href="#m93b0483c22" y="101.13525"/>
      </g>
     </g>
     <g id="line2d_9">
      <g>
       <use style="stroke:#000000;stroke-width:0.5;" x="342.212541661" xlink:href="#m741efc42ff" y="12.96"/>
      </g>
     </g>
     <g id="text_4">
      <!-- 15 -->
      <g transform="translate(335.760666661 114.253375)scale(0.12 -0.12)">
       <use xlink:href="#BitstreamVeraSans-Roman-31"/>
       <use x="63.623046875" xlink:href="#BitstreamVeraSans-Roman-35"/>
      </g>
     </g>
    </g>
    <g id="xtick_5">
     <g id="line2d_10">
      <g>
       <use style="stroke:#000000;stroke-width:0.5;" x="439.242263882" xlink:href="#m93b0483c22" y="101.13525"/>
      </g>
     </g>
     <g id="line2d_11">
      <g>
       <use style="stroke:#000000;stroke-width:0.5;" x="439.242263882" xlink:href="#m741efc42ff" y="12.96"/>
      </g>
     </g>
     <g id="text_5">
      <!-- 20 -->
      <defs>
       <path d="
M19.1875 8.29688
L53.6094 8.29688
L53.6094 0
L7.32812 0
L7.32812 8.29688
Q12.9375 14.1094 22.625 23.8906
Q32.3281 33.6875 34.8125 36.5312
Q39.5469 41.8438 41.4219 45.5312
Q43.3125 49.2188 43.3125 52.7812
Q43.3125 58.5938 39.2344 62.25
Q35.1562 65.9219 28.6094 65.9219
Q23.9688 65.9219 18.8125 64.3125
Q13.6719 62.7031 7.8125 59.4219
L7.8125 69.3906
Q13.7656 71.7812 18.9375 73
Q24.125 74.2188 28.4219 74.2188
Q39.75 74.2188 46.4844 68.5469
Q53.2188 62.8906 53.2188 53.4219
Q53.2188 48.9219 51.5312 44.8906
Q49.8594 40.875 45.4062 35.4062
Q44.1875 33.9844 37.6406 27.2188
Q31.1094 20.4531 19.1875 8.29688" id="BitstreamVeraSans-Roman-32"/>
      </defs>
      <g transform="translate(432.445388882 114.253375)scale(0.12 -0.12)">
       <use xlink:href="#BitstreamVeraSans-Roman-32"/>
       <use x="63.623046875" xlink:href="#BitstreamVeraSans-Roman-30"/>
      </g>
     </g>
    </g>
    <g id="xtick_6">
     <g id="line2d_12">
      <g>
       <use style="stroke:#000000;stroke-width:0.5;" x="536.271986102" xlink:href="#m93b0483c22" y="101.13525"/>
      </g>
     </g>
     <g id="line2d_13">
      <g>
       <use style="stroke:#000000;stroke-width:0.5;" x="536.271986102" xlink:href="#m741efc42ff" y="12.96"/>
      </g>
     </g>
     <g id="text_6">
      <!-- 25 -->
      <g transform="translate(529.600736102 114.253375)scale(0.12 -0.12)">
       <use xlink:href="#BitstreamVeraSans-Roman-32"/>
       <use x="63.623046875" xlink:href="#BitstreamVeraSans-Roman-35"/>
      </g>
     </g>
    </g>
    <g id="xtick_7">
     <g id="line2d_14">
      <g>
       <use style="stroke:#000000;stroke-width:0.5;" x="633.301708323" xlink:href="#m93b0483c22" y="101.13525"/>
      </g>
     </g>
     <g id="line2d_15">
      <g>
       <use style="stroke:#000000;stroke-width:0.5;" x="633.301708323" xlink:href="#m741efc42ff" y="12.96"/>
      </g>
     </g>
     <g id="text_7">
      <!-- 30 -->
      <defs>
       <path d="
M40.5781 39.3125
Q47.6562 37.7969 51.625 33
Q55.6094 28.2188 55.6094 21.1875
Q55.6094 10.4062 48.1875 4.48438
Q40.7656 -1.42188 27.0938 -1.42188
Q22.5156 -1.42188 17.6562 -0.515625
Q12.7969 0.390625 7.625 2.20312
L7.625 11.7188
Q11.7188 9.32812 16.5938 8.10938
Q21.4844 6.89062 26.8125 6.89062
Q36.0781 6.89062 40.9375 10.5469
Q45.7969 14.2031 45.7969 21.1875
Q45.7969 27.6406 41.2812 31.2656
Q36.7656 34.9062 28.7188 34.9062
L20.2188 34.9062
L20.2188 43.0156
L29.1094 43.0156
Q36.375 43.0156 40.2344 45.9219
Q44.0938 48.8281 44.0938 54.2969
Q44.0938 59.9062 40.1094 62.9062
Q36.1406 65.9219 28.7188 65.9219
Q24.6562 65.9219 20.0156 65.0312
Q15.375 64.1562 9.8125 62.3125
L9.8125 71.0938
Q15.4375 72.6562 20.3438 73.4375
Q25.25 74.2188 29.5938 74.2188
Q40.8281 74.2188 47.3594 69.1094
Q53.9062 64.0156 53.9062 55.3281
Q53.9062 49.2656 50.4375 45.0938
Q46.9688 40.9219 40.5781 39.3125" id="BitstreamVeraSans-Roman-33"/>
      </defs>
      <g transform="translate(626.522645823 114.253375)scale(0.12 -0.12)">
       <use xlink:href="#BitstreamVeraSans-Roman-33"/>
       <use x="63.623046875" xlink:href="#BitstreamVeraSans-Roman-30"/>
      </g>
     </g>
    </g>
    <g id="text_8">
     <!-- Distance, km -->
     <defs>
      <path id="BitstreamVeraSans-Roman-20"/>
      <path d="
M54.8906 33.0156
L54.8906 0
L45.9062 0
L45.9062 32.7188
Q45.9062 40.4844 42.875 44.3281
Q39.8438 48.1875 33.7969 48.1875
Q26.5156 48.1875 22.3125 43.5469
Q18.1094 38.9219 18.1094 30.9062
L18.1094 0
L9.07812 0
L9.07812 54.6875
L18.1094 54.6875
L18.1094 46.1875
Q21.3438 51.125 25.7031 53.5625
Q30.0781 56 35.7969 56
Q45.2188 56 50.0469 50.1719
Q54.8906 44.3438 54.8906 33.0156" id="BitstreamVeraSans-Roman-6e"/>
      <path d="
M52 44.1875
Q55.375 50.25 60.0625 53.125
Q64.75 56 71.0938 56
Q79.6406 56 84.2812 50.0156
Q88.9219 44.0469 88.9219 33.0156
L88.9219 0
L79.8906 0
L79.8906 32.7188
Q79.8906 40.5781 77.0938 44.375
Q74.3125 48.1875 68.6094 48.1875
Q61.625 48.1875 57.5625 43.5469
Q53.5156 38.9219 53.5156 30.9062
L53.5156 0
L44.4844 0
L44.4844 32.7188
Q44.4844 40.625 41.7031 44.4062
Q38.9219 48.1875 33.1094 48.1875
Q26.2188 48.1875 22.1562 43.5312
Q18.1094 38.875 18.1094 30.9062
L18.1094 0
L9.07812 0
L9.07812 54.6875
L18.1094 54.6875
L18.1094 46.1875
Q21.1875 51.2188 25.4844 53.6094
Q29.7812 56 35.6875 56
Q41.6562 56 45.8281 52.9688
Q50 49.9531 52 44.1875" id="BitstreamVeraSans-Roman-6d"/>
      <path d="
M9.07812 75.9844
L18.1094 75.9844
L18.1094 31.1094
L44.9219 54.6875
L56.3906 54.6875
L27.3906 29.1094
L57.625 0
L45.9062 0
L18.1094 26.7031
L18.1094 0
L9.07812 0
z
" id="BitstreamVeraSans-Roman-6b"/>
      <path d="
M11.7188 12.4062
L22.0156 12.4062
L22.0156 4
L14.0156 -11.625
L7.71875 -11.625
L11.7188 4
z
" id="BitstreamVeraSans-Roman-2c"/>
      <path d="
M19.6719 64.7969
L19.6719 8.10938
L31.5938 8.10938
Q46.6875 8.10938 53.6875 14.9375
Q60.6875 21.7812 60.6875 36.5312
Q60.6875 51.1719 53.6875 57.9844
Q46.6875 64.7969 31.5938 64.7969
z

M9.8125 72.9062
L30.0781 72.9062
Q51.2656 72.9062 61.1719 64.0938
Q71.0938 55.2812 71.0938 36.5312
Q71.0938 17.6719 61.125 8.82812
Q51.1719 0 30.0781 0
L9.8125 0
z
" id="BitstreamVeraSans-Roman-44"/>
      <path d="
M9.42188 54.6875
L18.4062 54.6875
L18.4062 0
L9.42188 0
z

M9.42188 75.9844
L18.4062 75.9844
L18.4062 64.5938
L9.42188 64.5938
z
" id="BitstreamVeraSans-Roman-69"/>
      <path d="
M56.2031 29.5938
L56.2031 25.2031
L14.8906 25.2031
Q15.4844 15.9219 20.4844 11.0625
Q25.4844 6.20312 34.4219 6.20312
Q39.5938 6.20312 44.4531 7.46875
Q49.3125 8.73438 54.1094 11.2812
L54.1094 2.78125
Q49.2656 0.734375 44.1875 -0.34375
Q39.1094 -1.42188 33.8906 -1.42188
Q20.7969 -1.42188 13.1562 6.1875
Q5.51562 13.8125 5.51562 26.8125
Q5.51562 40.2344 12.7656 48.1094
Q20.0156 56 32.3281 56
Q43.3594 56 49.7812 48.8906
Q56.2031 41.7969 56.2031 29.5938
M47.2188 32.2344
Q47.125 39.5938 43.0938 43.9844
Q39.0625 48.3906 32.4219 48.3906
Q24.9062 48.3906 20.3906 44.1406
Q15.875 39.8906 15.1875 32.1719
z
" id="BitstreamVeraSans-Roman-65"/>
      <path d="
M18.3125 70.2188
L18.3125 54.6875
L36.8125 54.6875
L36.8125 47.7031
L18.3125 47.7031
L18.3125 18.0156
Q18.3125 11.3281 20.1406 9.42188
Q21.9688 7.51562 27.5938 7.51562
L36.8125 7.51562
L36.8125 0
L27.5938 0
Q17.1875 0 13.2344 3.875
Q9.28125 7.76562 9.28125 18.0156
L9.28125 47.7031
L2.6875 47.7031
L2.6875 54.6875
L9.28125 54.6875
L9.28125 70.2188
z
" id="BitstreamVeraSans-Roman-74"/>
      <path d="
M34.2812 27.4844
Q23.3906 27.4844 19.1875 25
Q14.9844 22.5156 14.9844 16.5
Q14.9844 11.7188 18.1406 8.90625
Q21.2969 6.10938 26.7031 6.10938
Q34.1875 6.10938 38.7031 11.4062
Q43.2188 16.7031 43.2188 25.4844
L43.2188 27.4844
z

M52.2031 31.2031
L52.2031 0
L43.2188 0
L43.2188 8.29688
Q40.1406 3.32812 35.5469 0.953125
Q30.9531 -1.42188 24.3125 -1.42188
Q15.9219 -1.42188 10.9531 3.29688
Q6 8.01562 6 15.9219
Q6 25.1406 12.1719 29.8281
Q18.3594 34.5156 30.6094 34.5156
L43.2188 34.5156
L43.2188 35.4062
Q43.2188 41.6094 39.1406 45
Q35.0625 48.3906 27.6875 48.3906
Q23 48.3906 18.5469 47.2656
Q14.1094 46.1406 10.0156 43.8906
L10.0156 52.2031
Q14.9375 54.1094 19.5781 55.0469
Q24.2188 56 28.6094 56
Q40.4844 56 46.3438 49.8438
Q52.2031 43.7031 52.2031 31.2031" id="BitstreamVeraSans-Roman-61"/>
      <path d="
M44.2812 53.0781
L44.2812 44.5781
Q40.4844 46.5312 36.375 47.5
Q32.2812 48.4844 27.875 48.4844
Q21.1875 48.4844 17.8438 46.4375
Q14.5 44.3906 14.5 40.2812
Q14.5 37.1562 16.8906 35.375
Q19.2812 33.5938 26.5156 31.9844
L29.5938 31.2969
Q39.1562 29.25 43.1875 25.5156
Q47.2188 21.7812 47.2188 15.0938
Q47.2188 7.46875 41.1875 3.01562
Q35.1562 -1.42188 24.6094 -1.42188
Q20.2188 -1.42188 15.4531 -0.5625
Q10.6875 0.296875 5.42188 2
L5.42188 11.2812
Q10.4062 8.6875 15.2344 7.39062
Q20.0625 6.10938 24.8125 6.10938
Q31.1562 6.10938 34.5625 8.28125
Q37.9844 10.4531 37.9844 14.4062
Q37.9844 18.0625 35.5156 20.0156
Q33.0625 21.9688 24.7031 23.7812
L21.5781 24.5156
Q13.2344 26.2656 9.51562 29.9062
Q5.8125 33.5469 5.8125 39.8906
Q5.8125 47.6094 11.2812 51.7969
Q16.75 56 26.8125 56
Q31.7812 56 36.1719 55.2656
Q40.5781 54.5469 44.2812 53.0781" id="BitstreamVeraSans-Roman-73"/>
      <path d="
M48.7812 52.5938
L48.7812 44.1875
Q44.9688 46.2969 41.1406 47.3438
Q37.3125 48.3906 33.4062 48.3906
Q24.6562 48.3906 19.8125 42.8438
Q14.9844 37.3125 14.9844 27.2969
Q14.9844 17.2812 19.8125 11.7344
Q24.6562 6.20312 33.4062 6.20312
Q37.3125 6.20312 41.1406 7.25
Q44.9688 8.29688 48.7812 10.4062
L48.7812 2.09375
Q45.0156 0.34375 40.9844 -0.53125
Q36.9688 -1.42188 32.4219 -1.42188
Q20.0625 -1.42188 12.7812 6.34375
Q5.51562 14.1094 5.51562 27.2969
Q5.51562 40.6719 12.8594 48.3281
Q20.2188 56 33.0156 56
Q37.1562 56 41.1094 55.1406
Q45.0625 54.2969 48.7812 52.5938" id="BitstreamVeraSans-Roman-63"/>
     </defs>
     <g transform="translate(340.22325 130.867125)scale(0.12 -0.12)">
      <use xlink:href="#BitstreamVeraSans-Roman-44"/>
      <use x="77.001953125" xlink:href="#BitstreamVeraSans-Roman-69"/>
      <use x="104.78515625" xlink:href="#BitstreamVeraSans-Roman-73"/>
      <use x="156.884765625" xlink:href="#BitstreamVeraSans-Roman-74"/>
      <use x="196.09375" xlink:href="#BitstreamVeraSans-Roman-61"/>
      <use x="257.373046875" xlink:href="#BitstreamVeraSans-Roman-6e"/>
      <use x="320.751953125" xlink:href="#BitstreamVeraSans-Roman-63"/>
      <use x="375.732421875" xlink:href="#BitstreamVeraSans-Roman-65"/>
      <use x="437.255859375" xlink:href="#BitstreamVeraSans-Roman-2c"/>
      <use x="469.04296875" xlink:href="#BitstreamVeraSans-Roman-20"/>
      <use x="500.830078125" xlink:href="#BitstreamVeraSans-Roman-6b"/>
      <use x="558.740234375" xlink:href="#BitstreamVeraSans-Roman-6d"/>
     </g>
    </g>
   </g>
   <g id="matplotlib.axis_2">
    <g id="ytick_1">
     <g id="line2d_16">
      <defs>
       <path d="
M0 0
L4 0" id="m728421d6d4" style="stroke:#000000;stroke-width:0.5;"/>
      </defs>
      <g>
       <use style="stroke:#000000;stroke-width:0.5;" x="51.123375" xlink:href="#m728421d6d4" y="101.13525"/>
      </g>
     </g>
     <g id="line2d_17">
      <defs>
       <path d="
M0 0
L-4 0" id="mcb0005524f" style="stroke:#000000;stroke-width:0.5;"/>
      </defs>
      <g>
       <use style="stroke:#000000;stroke-width:0.5;" x="707.04" xlink:href="#mcb0005524f" y="101.13525"/>
      </g>
     </g>
     <g id="text_9">
      <!-- 0 -->
      <g transform="translate(41.0765 104.4465)scale(0.12 -0.12)">
       <use xlink:href="#BitstreamVeraSans-Roman-30"/>
      </g>
     </g>
    </g>
    <g id="ytick_2">
     <g id="line2d_18">
      <g>
       <use style="stroke:#000000;stroke-width:0.5;" x="51.123375" xlink:href="#m728421d6d4" y="87.4328024476"/>
      </g>
     </g>
     <g id="line2d_19">
      <g>
       <use style="stroke:#000000;stroke-width:0.5;" x="707.04" xlink:href="#mcb0005524f" y="87.4328024476"/>
      </g>
     </g>
     <g id="text_10">
      <!-- 20 -->
      <g transform="translate(33.529625 90.7440524476)scale(0.12 -0.12)">
       <use xlink:href="#BitstreamVeraSans-Roman-32"/>
       <use x="63.623046875" xlink:href="#BitstreamVeraSans-Roman-30"/>
      </g>
     </g>
    </g>
    <g id="ytick_3">
     <g id="line2d_20">
      <g>
       <use style="stroke:#000000;stroke-width:0.5;" x="51.123375" xlink:href="#m728421d6d4" y="73.7303548951"/>
      </g>
     </g>
     <g id="line2d_21">
      <g>
       <use style="stroke:#000000;stroke-width:0.5;" x="707.04" xlink:href="#mcb0005524f" y="73.7303548951"/>
      </g>
     </g>
     <g id="text_11">
      <!-- 40 -->
      <defs>
       <path d="
M37.7969 64.3125
L12.8906 25.3906
L37.7969 25.3906
z

M35.2031 72.9062
L47.6094 72.9062
L47.6094 25.3906
L58.0156 25.3906
L58.0156 17.1875
L47.6094 17.1875
L47.6094 0
L37.7969 0
L37.7969 17.1875
L4.89062 17.1875
L4.89062 26.7031
z
" id="BitstreamVeraSans-Roman-34"/>
      </defs>
      <g transform="translate(33.237125 77.0416048951)scale(0.12 -0.12)">
       <use xlink:href="#BitstreamVeraSans-Roman-34"/>
       <use x="63.623046875" xlink:href="#BitstreamVeraSans-Roman-30"/>
      </g>
     </g>
    </g>
    <g id="ytick_4">
     <g id="line2d_22">
      <g>
       <use style="stroke:#000000;stroke-width:0.5;" x="51.123375" xlink:href="#m728421d6d4" y="60.0279073427"/>
      </g>
     </g>
     <g id="line2d_23">
      <g>
       <use style="stroke:#000000;stroke-width:0.5;" x="707.04" xlink:href="#mcb0005524f" y="60.0279073427"/>
      </g>
     </g>
     <g id="text_12">
      <!-- 60 -->
      <defs>
       <path d="
M33.0156 40.375
Q26.375 40.375 22.4844 35.8281
Q18.6094 31.2969 18.6094 23.3906
Q18.6094 15.5312 22.4844 10.9531
Q26.375 6.39062 33.0156 6.39062
Q39.6562 6.39062 43.5312 10.9531
Q47.4062 15.5312 47.4062 23.3906
Q47.4062 31.2969 43.5312 35.8281
Q39.6562 40.375 33.0156 40.375
M52.5938 71.2969
L52.5938 62.3125
Q48.875 64.0625 45.0938 64.9844
Q41.3125 65.9219 37.5938 65.9219
Q27.8281 65.9219 22.6719 59.3281
Q17.5312 52.7344 16.7969 39.4062
Q19.6719 43.6562 24.0156 45.9219
Q28.375 48.1875 33.5938 48.1875
Q44.5781 48.1875 50.9531 41.5156
Q57.3281 34.8594 57.3281 23.3906
Q57.3281 12.1562 50.6875 5.35938
Q44.0469 -1.42188 33.0156 -1.42188
Q20.3594 -1.42188 13.6719 8.26562
Q6.98438 17.9688 6.98438 36.375
Q6.98438 53.6562 15.1875 63.9375
Q23.3906 74.2188 37.2031 74.2188
Q40.9219 74.2188 44.7031 73.4844
Q48.4844 72.75 52.5938 71.2969" id="BitstreamVeraSans-Roman-36"/>
      </defs>
      <g transform="translate(33.488375 63.3391573427)scale(0.12 -0.12)">
       <use xlink:href="#BitstreamVeraSans-Roman-36"/>
       <use x="63.623046875" xlink:href="#BitstreamVeraSans-Roman-30"/>
      </g>
     </g>
    </g>
    <g id="ytick_5">
     <g id="line2d_24">
      <g>
       <use style="stroke:#000000;stroke-width:0.5;" x="51.123375" xlink:href="#m728421d6d4" y="46.3254597902"/>
      </g>
     </g>
     <g id="line2d_25">
      <g>
       <use style="stroke:#000000;stroke-width:0.5;" x="707.04" xlink:href="#mcb0005524f" y="46.3254597902"/>
      </g>
     </g>
     <g id="text_13">
      <!-- 80 -->
      <defs>
       <path d="
M31.7812 34.625
Q24.75 34.625 20.7188 30.8594
Q16.7031 27.0938 16.7031 20.5156
Q16.7031 13.9219 20.7188 10.1562
Q24.75 6.39062 31.7812 6.39062
Q38.8125 6.39062 42.8594 10.1719
Q46.9219 13.9688 46.9219 20.5156
Q46.9219 27.0938 42.8906 30.8594
Q38.875 34.625 31.7812 34.625
M21.9219 38.8125
Q15.5781 40.375 12.0312 44.7188
Q8.5 49.0781 8.5 55.3281
Q8.5 64.0625 14.7188 69.1406
Q20.9531 74.2188 31.7812 74.2188
Q42.6719 74.2188 48.875 69.1406
Q55.0781 64.0625 55.0781 55.3281
Q55.0781 49.0781 51.5312 44.7188
Q48 40.375 41.7031 38.8125
Q48.8281 37.1562 52.7969 32.3125
Q56.7812 27.4844 56.7812 20.5156
Q56.7812 9.90625 50.3125 4.23438
Q43.8438 -1.42188 31.7812 -1.42188
Q19.7344 -1.42188 13.25 4.23438
Q6.78125 9.90625 6.78125 20.5156
Q6.78125 27.4844 10.7812 32.3125
Q14.7969 37.1562 21.9219 38.8125
M18.3125 54.3906
Q18.3125 48.7344 21.8438 45.5625
Q25.3906 42.3906 31.7812 42.3906
Q38.1406 42.3906 41.7188 45.5625
Q45.3125 48.7344 45.3125 54.3906
Q45.3125 60.0625 41.7188 63.2344
Q38.1406 66.4062 31.7812 66.4062
Q25.3906 66.4062 21.8438 63.2344
Q18.3125 60.0625 18.3125 54.3906" id="BitstreamVeraSans-Roman-38"/>
      </defs>
      <g transform="translate(33.464 49.6367097902)scale(0.12 -0.12)">
       <use xlink:href="#BitstreamVeraSans-Roman-38"/>
       <use x="63.623046875" xlink:href="#BitstreamVeraSans-Roman-30"/>
      </g>
     </g>
    </g>
    <g id="ytick_6">
     <g id="line2d_26">
      <g>
       <use style="stroke:#000000;stroke-width:0.5;" x="51.123375" xlink:href="#m728421d6d4" y="32.6230122378"/>
      </g>
     </g>
     <g id="line2d_27">
      <g>
       <use style="stroke:#000000;stroke-width:0.5;" x="707.04" xlink:href="#mcb0005524f" y="32.6230122378"/>
      </g>
     </g>
     <g id="text_14">
      <!-- 100 -->
      <g transform="translate(26.333375 35.9342622378)scale(0.12 -0.12)">
       <use xlink:href="#BitstreamVeraSans-Roman-31"/>
       <use x="63.623046875" xlink:href="#BitstreamVeraSans-Roman-30"/>
       <use x="127.24609375" xlink:href="#BitstreamVeraSans-Roman-30"/>
      </g>
     </g>
    </g>
    <g id="ytick_7">
     <g id="line2d_28">
      <g>
       <use style="stroke:#000000;stroke-width:0.5;" x="51.123375" xlink:href="#m728421d6d4" y="18.9205646853"/>
      </g>
     </g>
     <g id="line2d_29">
      <g>
       <use style="stroke:#000000;stroke-width:0.5;" x="707.04" xlink:href="#mcb0005524f" y="18.9205646853"/>
      </g>
     </g>
     <g id="text_15">
      <!-- 120 -->
      <g transform="translate(26.333375 22.2318146853)scale(0.12 -0.12)">
       <use xlink:href="#BitstreamVeraSans-Roman-31"/>
       <use x="63.623046875" xlink:href="#BitstreamVeraSans-Roman-32"/>
       <use x="127.24609375" xlink:href="#BitstreamVeraSans-Roman-30"/>
      </g>
     </g>
    </g>
    <g id="text_16">
     <!-- Elevation, m -->
     <defs>
      <path d="
M2.98438 54.6875
L12.5 54.6875
L29.5938 8.79688
L46.6875 54.6875
L56.2031 54.6875
L35.6875 0
L23.4844 0
z
" id="BitstreamVeraSans-Roman-76"/>
      <path d="
M9.8125 72.9062
L55.9062 72.9062
L55.9062 64.5938
L19.6719 64.5938
L19.6719 43.0156
L54.3906 43.0156
L54.3906 34.7188
L19.6719 34.7188
L19.6719 8.29688
L56.7812 8.29688
L56.7812 0
L9.8125 0
z
" id="BitstreamVeraSans-Roman-45"/>
      <path d="
M30.6094 48.3906
Q23.3906 48.3906 19.1875 42.75
Q14.9844 37.1094 14.9844 27.2969
Q14.9844 17.4844 19.1562 11.8438
Q23.3438 6.20312 30.6094 6.20312
Q37.7969 6.20312 41.9844 11.8594
Q46.1875 17.5312 46.1875 27.2969
Q46.1875 37.0156 41.9844 42.7031
Q37.7969 48.3906 30.6094 48.3906
M30.6094 56
Q42.3281 56 49.0156 48.375
Q55.7188 40.7656 55.7188 27.2969
Q55.7188 13.875 49.0156 6.21875
Q42.3281 -1.42188 30.6094 -1.42188
Q18.8438 -1.42188 12.1719 6.21875
Q5.51562 13.875 5.51562 27.2969
Q5.51562 40.7656 12.1719 48.375
Q18.8438 56 30.6094 56" id="BitstreamVeraSans-Roman-6f"/>
      <path d="
M9.42188 75.9844
L18.4062 75.9844
L18.4062 0
L9.42188 0
z
" id="BitstreamVeraSans-Roman-6c"/>
     </defs>
     <g transform="translate(18.83775 94.067625)rotate(-90.0)scale(0.12 -0.12)">
      <use xlink:href="#BitstreamVeraSans-Roman-45"/>
      <use x="63.18359375" xlink:href="#BitstreamVeraSans-Roman-6c"/>
      <use x="90.966796875" xlink:href="#BitstreamVeraSans-Roman-65"/>
      <use x="152.490234375" xlink:href="#BitstreamVeraSans-Roman-76"/>
      <use x="211.669921875" xlink:href="#BitstreamVeraSans-Roman-61"/>
      <use x="272.94921875" xlink:href="#BitstreamVeraSans-Roman-74"/>
      <use x="312.158203125" xlink:href="#BitstreamVeraSans-Roman-69"/>
      <use x="339.94140625" xlink:href="#BitstreamVeraSans-Roman-6f"/>
      <use x="401.123046875" xlink:href="#BitstreamVeraSans-Roman-6e"/>
      <use x="464.501953125" xlink:href="#BitstreamVeraSans-Roman-2c"/>
      <use x="496.2890625" xlink:href="#BitstreamVeraSans-Roman-20"/>
      <use x="528.076171875" xlink:href="#BitstreamVeraSans-Roman-6d"/>
     </g>
    </g>
   </g>
   <g id="patch_3">
    <path d="
M51.1234 12.96
L707.04 12.96" style="fill:none;stroke:#000000;"/>
   </g>
   <g id="patch_4">
    <path d="
M707.04 101.135
L707.04 12.96" style="fill:none;stroke:#000000;"/>
   </g>
   <g id="patch_5">
    <path d="
M51.1234 101.135
L707.04 101.135" style="fill:none;stroke:#000000;"/>
   </g>
   <g id="patch_6">
    <path d="
M51.1234 101.135
L51.1234 12.96" style="fill:none;stroke:#000000;"/>
   </g>
  </g>
 </g>
 <defs>
  <clipPath id="pcc590e6ce2">
   <rect height="88.17525" width="655.916625" x="51.123375" y="12.96"/>
  </clipPath>
 </defs>
</svg>
