<?xml version="1.0" encoding="utf-8" standalone="no"?>
<!DOCTYPE svg PUBLIC "-//W3C//DTD SVG 1.1//EN"
  "http://www.w3.org/Graphics/SVG/1.1/DTD/svg11.dtd">
<!-- Created with matplotlib (http://matplotlib.org/) -->
<svg height="144pt" version="1.1" viewBox="0 0 720 144" width="720pt" xmlns="http://www.w3.org/2000/svg" xmlns:xlink="http://www.w3.org/1999/xlink">
 <defs>
  <style type="text/css">
*{stroke-linecap:square;stroke-linejoin:round;}
  </style>
 </defs>
 <g id="figure_1">
  <g id="patch_1">
   <path d="
M0 144
L720 144
L720 0
L0 0
z
" style="fill:#ffffff;"/>
  </g>
  <g id="axes_1">
   <g id="patch_2">
    <path d="
M54.4303 101.34
L707.04 101.34
L707.04 12.96
L54.4303 12.96
z
" style="fill:#ffffff;"/>
   </g>
   <g id="PolyCollection_1">
    <defs>
     <path d="
M54.8865 -42.66
L54.8865 -56.3943
L55.3779 -56.3943
L55.8832 -56.3943
L57.214 -56.3943
L57.8165 -56.3943
L59.136 -56.3943
L60.0638 -56.3943
L61.102 -56.3943
L65.1151 -56.3943
L66.3762 -56.3943
L66.8986 -56.3943
L67.5228 -56.3943
L69.147 -56.3943
L70.8153 -56.3943
L71.7612 -56.3943
L77.3512 -56.3943
L78.2631 -56.3943
L79.5138 -56.3943
L80.618 -56.3943
L82.1199 -56.3943
L83.8948 -56.3943
L86.2233 -56.3943
L87.1549 -56.3943
L87.8252 -56.3943
L99.0188 -56.3943
L99.6831 -56.3943
L101.7 -56.3943
L102.482 -56.3943
L103.686 -56.3943
L106.007 -56.3943
L107.87 -56.3943
L108.537 -56.3943
L111.481 -56.3943
L113.288 -56.3943
L114.869 -56.3943
L116.311 -56.3943
L119.52 -56.3943
L122.03 -56.3943
L122.614 -56.3943
L123.188 -56.3943
L128.436 -56.3943
L130.9 -56.3943
L132.901 -56.3943
L135.288 -56.3943
L136.267 -56.3943
L137.28 -56.3943
L141.025 -56.3943
L146.113 -56.3943
L146.994 -56.3943
L161.82 -56.3943
L163 -56.3943
L164.792 -56.3943
L168.259 -56.3943
L171.684 -56.3943
L173.483 -56.3943
L174.226 -56.3943
L175.712 -56.3943
L177.557 -56.3943
L178.404 -56.3943
L181.782 -56.3943
L182.06 -56.3943
L186.361 -56.3943
L188.965 -56.3943
L191.122 -56.3943
L191.89 -56.3943
L194.05 -56.3943
L195.913 -56.3943
L196.819 -56.3943
L197.581 -56.3943
L199.868 -56.3943
L200.159 -56.3943
L203.064 -56.3943
L203.503 -56.3943
L204.159 -56.3943
L206.836 -56.3943
L210.414 -56.3943
L221.692 -56.3943
L221.871 -56.3943
L223.254 -56.3943
L232.706 -56.3943
L235.934 -56.3943
L238.65 -56.3943
L252.372 -56.3943
L261.231 -56.3943
L262.226 -56.3943
L263.294 -56.3943
L269.61 -56.3943
L272.213 -56.3943
L274.432 -56.3943
L276.901 -56.3943
L278.28 -56.3943
L279.53 -56.3943
L280.865 -56.3943
L283.571 -56.3943
L284.481 -56.3943
L286.371 -56.3943
L287.103 -56.3943
L288.282 -56.3943
L288.674 -56.3943
L290.559 -56.3943
L291.218 -56.3943
L292.09 -56.3943
L293.549 -56.3943
L299.653 -56.3943
L300.113 -56.3943
L300.544 -56.3943
L302.059 -56.3943
L302.683 -56.3943
L303.616 -56.3943
L304.856 -56.3943
L306.409 -56.3943
L310.487 -56.3943
L318.081 -56.3943
L323.231 -56.3943
L325.361 -56.3943
L327.257 -56.3943
L331.962 -56.3943
L338.424 -56.3943
L339.528 -56.3943
L340.872 -56.3943
L342.86 -56.3943
L344.532 -56.3943
L348.843 -56.3943
L351.733 -56.3943
L352.533 -56.3943
L353.107 -56.3943
L353.902 -56.3943
L354.845 -56.3943
L355.843 -56.3943
L357.277 -56.3943
L358.012 -56.3943
L364.512 -56.3943
L374.585 -56.3943
L381.862 -56.3943
L386.638 -56.3943
L387.335 -56.3943
L387.795 -56.3943
L390.796 -56.3943
L392.739 -56.3943
L404.232 -56.3943
L404.901 -56.3943
L407.03 -56.3943
L408.36 -56.3943
L416.473 -56.3943
L417.804 -56.3943
L419.621 -56.3943
L420.469 -56.3943
L421.25 -56.3943
L421.878 -56.3943
L423.418 -56.3943
L424.176 -56.3943
L424.929 -56.3943
L426.151 -56.3943
L426.698 -56.3943
L427.577 -56.3943
L428.126 -56.3943
L428.892 -56.3943
L432.738 -56.3943
L436.359 -56.3943
L440.41 -56.3943
L444.105 -56.3943
L453.112 -56.3943
L454.03 -56.3943
L454.927 -56.3943
L457.83 -56.3943
L458.382 -56.3943
L460.711 -56.3943
L463.468 -56.3943
L484.265 -56.3943
L485.621 -56.3943
L488.167 -56.3943
L490.457 -56.3943
L493.064 -56.3943
L497.148 -56.3943
L506.72 -56.3943
L510.67 -56.3943
L516.154 -56.3943
L516.646 -56.3943
L518.006 -56.3943
L518.874 -56.3943
L519.645 -56.3943
L521.166 -56.3943
L521.487 -56.3943
L521.815 -56.3943
L522.2 -56.3943
L534.794 -56.3943
L535.185 -56.3943
L535.989 -56.3943
L536.334 -56.3943
L541.535 -56.3943
L542.282 -56.3943
L546.814 -56.3943
L547.439 -56.3943
L549.509 -56.3943
L550.445 -56.3943
L556.467 -56.3943
L556.923 -56.3943
L557.246 -56.3943
L558.067 -56.3943
L559.604 -56.3943
L561.128 -56.3943
L562.313 -56.3943
L563.417 -56.3943
L564.881 -56.3943
L567.637 -56.3943
L568.684 -56.3943
L572.231 -56.3943
L573.146 -56.3943
L573.985 -56.3943
L576.488 -56.3943
L577.07 -56.3943
L577.709 -56.3943
L577.969 -56.3943
L586.367 -56.3943
L586.591 -56.3943
L586.821 -56.3943
L587.919 -56.3943
L589.866 -56.3943
L590.401 -56.3943
L594.847 -56.3943
L598.782 -56.3943
L600.621 -56.3943
L600.987 -56.3943
L611.453 -56.3943
L611.887 -56.3943
L613.336 -56.3943
L613.689 -56.3943
L618.814 -56.3943
L621.158 -56.3943
L621.656 -56.3943
L625.018 -56.3943
L626.059 -56.3943
L626.764 -56.3943
L628.775 -56.3943
L633.005 -56.3943
L634.01 -56.3943
L634.623 -56.3943
L634.951 -56.3943
L635.617 -56.3943
L645.367 -56.3943
L646.116 -56.3943
L647.855 -56.3943
L649.45 -56.3943
L652.851 -56.3943
L653.647 -56.3943
L655.551 -56.3943
L656.573 -56.3943
L657.153 -56.3943
L660.095 -56.3943
L664.963 -56.3943
L674.953 -56.3943
L691.965 -56.3943
L694.428 -56.3943
L694.675 -56.3943
L695.18 -56.3943
L696.73 -56.3943
L698.677 -56.3943
L699.498 -56.3943
L700.549 -56.3943
L707.04 -56.3943
L707.04 -42.66
L707.04 -42.66
L700.549 -42.66
L699.498 -42.66
L698.677 -42.66
L696.73 -42.66
L695.18 -42.66
L694.675 -42.66
L694.428 -42.66
L691.965 -42.66
L674.953 -42.66
L664.963 -42.66
L660.095 -42.66
L657.153 -42.66
L656.573 -42.66
L655.551 -42.66
L653.647 -42.66
L652.851 -42.66
L649.45 -42.66
L647.855 -42.66
L646.116 -42.66
L645.367 -42.66
L635.617 -42.66
L634.951 -42.66
L634.623 -42.66
L634.01 -42.66
L633.005 -42.66
L628.775 -42.66
L626.764 -42.66
L626.059 -42.66
L625.018 -42.66
L621.656 -42.66
L621.158 -42.66
L618.814 -42.66
L613.689 -42.66
L613.336 -42.66
L611.887 -42.66
L611.453 -42.66
L600.987 -42.66
L600.621 -42.66
L598.782 -42.66
L594.847 -42.66
L590.401 -42.66
L589.866 -42.66
L587.919 -42.66
L586.821 -42.66
L586.591 -42.66
L586.367 -42.66
L577.969 -42.66
L577.709 -42.66
L577.07 -42.66
L576.488 -42.66
L573.985 -42.66
L573.146 -42.66
L572.231 -42.66
L568.684 -42.66
L567.637 -42.66
L564.881 -42.66
L563.417 -42.66
L562.313 -42.66
L561.128 -42.66
L559.604 -42.66
L558.067 -42.66
L557.246 -42.66
L556.923 -42.66
L556.467 -42.66
L550.445 -42.66
L549.509 -42.66
L547.439 -42.66
L546.814 -42.66
L542.282 -42.66
L541.535 -42.66
L536.334 -42.66
L535.989 -42.66
L535.185 -42.66
L534.794 -42.66
L522.2 -42.66
L521.815 -42.66
L521.487 -42.66
L521.166 -42.66
L519.645 -42.66
L518.874 -42.66
L518.006 -42.66
L516.646 -42.66
L516.154 -42.66
L510.67 -42.66
L506.72 -42.66
L497.148 -42.66
L493.064 -42.66
L490.457 -42.66
L488.167 -42.66
L485.621 -42.66
L484.265 -42.66
L463.468 -42.66
L460.711 -42.66
L458.382 -42.66
L457.83 -42.66
L454.927 -42.66
L454.03 -42.66
L453.112 -42.66
L444.105 -42.66
L440.41 -42.66
L436.359 -42.66
L432.738 -42.66
L428.892 -42.66
L428.126 -42.66
L427.577 -42.66
L426.698 -42.66
L426.151 -42.66
L424.929 -42.66
L424.176 -42.66
L423.418 -42.66
L421.878 -42.66
L421.25 -42.66
L420.469 -42.66
L419.621 -42.66
L417.804 -42.66
L416.473 -42.66
L408.36 -42.66
L407.03 -42.66
L404.901 -42.66
L404.232 -42.66
L392.739 -42.66
L390.796 -42.66
L387.795 -42.66
L387.335 -42.66
L386.638 -42.66
L381.862 -42.66
L374.585 -42.66
L364.512 -42.66
L358.012 -42.66
L357.277 -42.66
L355.843 -42.66
L354.845 -42.66
L353.902 -42.66
L353.107 -42.66
L352.533 -42.66
L351.733 -42.66
L348.843 -42.66
L344.532 -42.66
L342.86 -42.66
L340.872 -42.66
L339.528 -42.66
L338.424 -42.66
L331.962 -42.66
L327.257 -42.66
L325.361 -42.66
L323.231 -42.66
L318.081 -42.66
L310.487 -42.66
L306.409 -42.66
L304.856 -42.66
L303.616 -42.66
L302.683 -42.66
L302.059 -42.66
L300.544 -42.66
L300.113 -42.66
L299.653 -42.66
L293.549 -42.66
L292.09 -42.66
L291.218 -42.66
L290.559 -42.66
L288.674 -42.66
L288.282 -42.66
L287.103 -42.66
L286.371 -42.66
L284.481 -42.66
L283.571 -42.66
L280.865 -42.66
L279.53 -42.66
L278.28 -42.66
L276.901 -42.66
L274.432 -42.66
L272.213 -42.66
L269.61 -42.66
L263.294 -42.66
L262.226 -42.66
L261.231 -42.66
L252.372 -42.66
L238.65 -42.66
L235.934 -42.66
L232.706 -42.66
L223.254 -42.66
L221.871 -42.66
L221.692 -42.66
L210.414 -42.66
L206.836 -42.66
L204.159 -42.66
L203.503 -42.66
L203.064 -42.66
L200.159 -42.66
L199.868 -42.66
L197.581 -42.66
L196.819 -42.66
L195.913 -42.66
L194.05 -42.66
L191.89 -42.66
L191.122 -42.66
L188.965 -42.66
L186.361 -42.66
L182.06 -42.66
L181.782 -42.66
L178.404 -42.66
L177.557 -42.66
L175.712 -42.66
L174.226 -42.66
L173.483 -42.66
L171.684 -42.66
L168.259 -42.66
L164.792 -42.66
L163 -42.66
L161.82 -42.66
L146.994 -42.66
L146.113 -42.66
L141.025 -42.66
L137.28 -42.66
L136.267 -42.66
L135.288 -42.66
L132.901 -42.66
L130.9 -42.66
L128.436 -42.66
L123.188 -42.66
L122.614 -42.66
L122.03 -42.66
L119.52 -42.66
L116.311 -42.66
L114.869 -42.66
L113.288 -42.66
L111.481 -42.66
L108.537 -42.66
L107.87 -42.66
L106.007 -42.66
L103.686 -42.66
L102.482 -42.66
L101.7 -42.66
L99.6831 -42.66
L99.0188 -42.66
L87.8252 -42.66
L87.1549 -42.66
L86.2233 -42.66
L83.8948 -42.66
L82.1199 -42.66
L80.618 -42.66
L79.5138 -42.66
L78.2631 -42.66
L77.3512 -42.66
L71.7612 -42.66
L70.8153 -42.66
L69.147 -42.66
L67.5228 -42.66
L66.8986 -42.66
L66.3762 -42.66
L65.1151 -42.66
L61.102 -42.66
L60.0638 -42.66
L59.136 -42.66
L57.8165 -42.66
L57.214 -42.66
L55.8832 -42.66
L55.3779 -42.66
L54.8865 -42.66
z
" id="C0_0_63820c4f40"/>
    </defs>
    <g clip-path="url(#pa8176fee34)">
     <use style="fill:#0000ff;opacity:0.05;stroke:#0000ff;stroke-linecap:butt;" x="0" xlink:href="#C0_0_63820c4f40" y="144.0"/>
    </g>
   </g>
   <g id="PolyCollection_2">
    <defs>
     <path d="
M54.8865 -42.66
L54.8865 -70.1285
L55.3779 -70.1285
L55.8832 -70.1285
L57.214 -70.1285
L57.8165 -70.1285
L59.136 -70.1285
L60.0638 -70.1285
L61.102 -70.1285
L65.1151 -70.1285
L66.3762 -70.1285
L66.8986 -70.1285
L67.5228 -70.1285
L69.147 -70.1285
L70.8153 -70.1285
L71.7612 -70.1285
L77.3512 -69.4418
L78.2631 -69.4418
L79.5138 -69.4418
L80.618 -69.4418
L82.1199 -70.1285
L83.8948 -70.1285
L86.2233 -70.1285
L87.1549 -70.1285
L87.8252 -70.1285
L99.0188 -70.1285
L99.6831 -70.1285
L101.7 -70.1285
L102.482 -70.1285
L103.686 -70.1285
L106.007 -70.1285
L107.87 -70.1285
L108.537 -70.1285
L111.481 -70.1285
L113.288 -70.1285
L114.869 -70.1285
L116.311 -70.1285
L119.52 -70.1285
L122.03 -70.1285
L122.614 -70.1285
L123.188 -70.1285
L128.436 -70.1285
L130.9 -70.1285
L132.901 -70.1285
L135.288 -70.1285
L136.267 -70.1285
L137.28 -70.1285
L141.025 -70.1285
L146.113 -70.1285
L146.994 -70.1285
L161.82 -70.1285
L163 -70.1285
L164.792 -70.1285
L168.259 -70.1285
L171.684 -70.1285
L173.483 -70.1285
L174.226 -70.1285
L175.712 -70.1285
L177.557 -70.1285
L178.404 -70.1285
L181.782 -70.1285
L182.06 -70.1285
L186.361 -70.1285
L188.965 -70.1285
L191.122 -70.1285
L191.89 -70.1285
L194.05 -70.1285
L195.913 -70.1285
L196.819 -70.1285
L197.581 -70.1285
L199.868 -70.1285
L200.159 -70.1285
L203.064 -70.1285
L203.503 -70.1285
L204.159 -70.1285
L206.836 -70.1285
L210.414 -70.1285
L221.692 -70.1285
L221.871 -70.1285
L223.254 -70.1285
L232.706 -70.1285
L235.934 -70.1285
L238.65 -70.1285
L252.372 -70.1285
L261.231 -70.1285
L262.226 -70.1285
L263.294 -70.1285
L269.61 -70.1285
L272.213 -70.1285
L274.432 -70.1285
L276.901 -70.1285
L278.28 -70.1285
L279.53 -70.1285
L280.865 -70.1285
L283.571 -70.1285
L284.481 -70.1285
L286.371 -70.1285
L287.103 -70.1285
L288.282 -70.1285
L288.674 -70.1285
L290.559 -70.1285
L291.218 -70.1285
L292.09 -70.1285
L293.549 -70.1285
L299.653 -70.1285
L300.113 -70.1285
L300.544 -70.1285
L302.059 -70.1285
L302.683 -70.1285
L303.616 -70.1285
L304.856 -70.1285
L306.409 -70.1285
L310.487 -70.1285
L318.081 -70.1285
L323.231 -70.1285
L325.361 -70.1285
L327.257 -70.1285
L331.962 -70.1285
L338.424 -70.1285
L339.528 -70.1285
L340.872 -70.1285
L342.86 -70.1285
L344.532 -70.1285
L348.843 -70.1285
L351.733 -70.1285
L352.533 -70.1285
L353.107 -70.1285
L353.902 -70.1285
L354.845 -70.1285
L355.843 -70.1285
L357.277 -70.1285
L358.012 -70.1285
L364.512 -70.1285
L374.585 -70.1285
L381.862 -70.1285
L386.638 -70.1285
L387.335 -70.1285
L387.795 -70.1285
L390.796 -70.1285
L392.739 -70.1285
L404.232 -70.1285
L404.901 -70.1285
L407.03 -70.1285
L408.36 -70.1285
L416.473 -70.1285
L417.804 -70.1285
L419.621 -70.1285
L420.469 -70.1285
L421.25 -70.1285
L421.878 -70.1285
L423.418 -70.1285
L424.176 -70.1285
L424.929 -70.1285
L426.151 -70.1285
L426.698 -70.1285
L427.577 -70.1285
L428.126 -70.1285
L428.892 -70.1285
L432.738 -70.1285
L436.359 -70.1285
L440.41 -70.1285
L444.105 -70.1285
L453.112 -70.1285
L454.03 -70.1285
L454.927 -70.1285
L457.83 -70.1285
L458.382 -70.1285
L460.711 -70.1285
L463.468 -70.1285
L484.265 -70.1285
L485.621 -70.1285
L488.167 -70.1285
L490.457 -70.1285
L493.064 -70.1285
L497.148 -70.1285
L506.72 -70.1285
L510.67 -70.1285
L516.154 -70.1285
L516.646 -70.1285
L518.006 -70.1285
L518.874 -70.1285
L519.645 -70.1285
L521.166 -70.1285
L521.487 -70.1285
L521.815 -70.1285
L522.2 -70.1285
L534.794 -70.1285
L535.185 -70.1285
L535.989 -70.1285
L536.334 -70.1285
L541.535 -70.1285
L542.282 -70.1285
L546.814 -70.1285
L547.439 -70.1285
L549.509 -70.1285
L550.445 -70.1285
L556.467 -70.1285
L556.923 -70.1285
L557.246 -70.1285
L558.067 -70.1285
L559.604 -70.1285
L561.128 -70.1285
L562.313 -70.1285
L563.417 -70.1285
L564.881 -70.1285
L567.637 -70.1285
L568.684 -70.1285
L572.231 -70.1285
L573.146 -70.1285
L573.985 -70.1285
L576.488 -70.1285
L577.07 -70.1285
L577.709 -70.1285
L577.969 -70.1285
L586.367 -70.1285
L586.591 -70.1285
L586.821 -70.1285
L587.919 -70.1285
L589.866 -70.1285
L590.401 -70.1285
L594.847 -70.1285
L598.782 -70.1285
L600.621 -68.7551
L600.987 -68.7551
L611.453 -70.1285
L611.887 -70.1285
L613.336 -70.1285
L613.689 -70.1285
L618.814 -70.1285
L621.158 -70.1285
L621.656 -70.1285
L625.018 -70.1285
L626.059 -70.1285
L626.764 -70.1285
L628.775 -70.1285
L633.005 -70.1285
L634.01 -70.1285
L634.623 -70.1285
L634.951 -70.1285
L635.617 -70.1285
L645.367 -66.695
L646.116 -66.695
L647.855 -66.695
L649.45 -64.6348
L652.851 -61.888
L653.647 -61.888
L655.551 -61.888
L656.573 -62.5747
L657.153 -63.2614
L660.095 -67.3817
L664.963 -68.7551
L674.953 -63.2614
L691.965 -70.1285
L694.428 -70.1285
L694.675 -70.1285
L695.18 -70.1285
L696.73 -70.1285
L698.677 -70.1285
L699.498 -70.1285
L700.549 -70.1285
L707.04 -70.1285
L707.04 -42.66
L707.04 -42.66
L700.549 -42.66
L699.498 -42.66
L698.677 -42.66
L696.73 -42.66
L695.18 -42.66
L694.675 -42.66
L694.428 -42.66
L691.965 -42.66
L674.953 -42.66
L664.963 -42.66
L660.095 -42.66
L657.153 -42.66
L656.573 -42.66
L655.551 -42.66
L653.647 -42.66
L652.851 -42.66
L649.45 -42.66
L647.855 -42.66
L646.116 -42.66
L645.367 -42.66
L635.617 -42.66
L634.951 -42.66
L634.623 -42.66
L634.01 -42.66
L633.005 -42.66
L628.775 -42.66
L626.764 -42.66
L626.059 -42.66
L625.018 -42.66
L621.656 -42.66
L621.158 -42.66
L618.814 -42.66
L613.689 -42.66
L613.336 -42.66
L611.887 -42.66
L611.453 -42.66
L600.987 -42.66
L600.621 -42.66
L598.782 -42.66
L594.847 -42.66
L590.401 -42.66
L589.866 -42.66
L587.919 -42.66
L586.821 -42.66
L586.591 -42.66
L586.367 -42.66
L577.969 -42.66
L577.709 -42.66
L577.07 -42.66
L576.488 -42.66
L573.985 -42.66
L573.146 -42.66
L572.231 -42.66
L568.684 -42.66
L567.637 -42.66
L564.881 -42.66
L563.417 -42.66
L562.313 -42.66
L561.128 -42.66
L559.604 -42.66
L558.067 -42.66
L557.246 -42.66
L556.923 -42.66
L556.467 -42.66
L550.445 -42.66
L549.509 -42.66
L547.439 -42.66
L546.814 -42.66
L542.282 -42.66
L541.535 -42.66
L536.334 -42.66
L535.989 -42.66
L535.185 -42.66
L534.794 -42.66
L522.2 -42.66
L521.815 -42.66
L521.487 -42.66
L521.166 -42.66
L519.645 -42.66
L518.874 -42.66
L518.006 -42.66
L516.646 -42.66
L516.154 -42.66
L510.67 -42.66
L506.72 -42.66
L497.148 -42.66
L493.064 -42.66
L490.457 -42.66
L488.167 -42.66
L485.621 -42.66
L484.265 -42.66
L463.468 -42.66
L460.711 -42.66
L458.382 -42.66
L457.83 -42.66
L454.927 -42.66
L454.03 -42.66
L453.112 -42.66
L444.105 -42.66
L440.41 -42.66
L436.359 -42.66
L432.738 -42.66
L428.892 -42.66
L428.126 -42.66
L427.577 -42.66
L426.698 -42.66
L426.151 -42.66
L424.929 -42.66
L424.176 -42.66
L423.418 -42.66
L421.878 -42.66
L421.25 -42.66
L420.469 -42.66
L419.621 -42.66
L417.804 -42.66
L416.473 -42.66
L408.36 -42.66
L407.03 -42.66
L404.901 -42.66
L404.232 -42.66
L392.739 -42.66
L390.796 -42.66
L387.795 -42.66
L387.335 -42.66
L386.638 -42.66
L381.862 -42.66
L374.585 -42.66
L364.512 -42.66
L358.012 -42.66
L357.277 -42.66
L355.843 -42.66
L354.845 -42.66
L353.902 -42.66
L353.107 -42.66
L352.533 -42.66
L351.733 -42.66
L348.843 -42.66
L344.532 -42.66
L342.86 -42.66
L340.872 -42.66
L339.528 -42.66
L338.424 -42.66
L331.962 -42.66
L327.257 -42.66
L325.361 -42.66
L323.231 -42.66
L318.081 -42.66
L310.487 -42.66
L306.409 -42.66
L304.856 -42.66
L303.616 -42.66
L302.683 -42.66
L302.059 -42.66
L300.544 -42.66
L300.113 -42.66
L299.653 -42.66
L293.549 -42.66
L292.09 -42.66
L291.218 -42.66
L290.559 -42.66
L288.674 -42.66
L288.282 -42.66
L287.103 -42.66
L286.371 -42.66
L284.481 -42.66
L283.571 -42.66
L280.865 -42.66
L279.53 -42.66
L278.28 -42.66
L276.901 -42.66
L274.432 -42.66
L272.213 -42.66
L269.61 -42.66
L263.294 -42.66
L262.226 -42.66
L261.231 -42.66
L252.372 -42.66
L238.65 -42.66
L235.934 -42.66
L232.706 -42.66
L223.254 -42.66
L221.871 -42.66
L221.692 -42.66
L210.414 -42.66
L206.836 -42.66
L204.159 -42.66
L203.503 -42.66
L203.064 -42.66
L200.159 -42.66
L199.868 -42.66
L197.581 -42.66
L196.819 -42.66
L195.913 -42.66
L194.05 -42.66
L191.89 -42.66
L191.122 -42.66
L188.965 -42.66
L186.361 -42.66
L182.06 -42.66
L181.782 -42.66
L178.404 -42.66
L177.557 -42.66
L175.712 -42.66
L174.226 -42.66
L173.483 -42.66
L171.684 -42.66
L168.259 -42.66
L164.792 -42.66
L163 -42.66
L161.82 -42.66
L146.994 -42.66
L146.113 -42.66
L141.025 -42.66
L137.28 -42.66
L136.267 -42.66
L135.288 -42.66
L132.901 -42.66
L130.9 -42.66
L128.436 -42.66
L123.188 -42.66
L122.614 -42.66
L122.03 -42.66
L119.52 -42.66
L116.311 -42.66
L114.869 -42.66
L113.288 -42.66
L111.481 -42.66
L108.537 -42.66
L107.87 -42.66
L106.007 -42.66
L103.686 -42.66
L102.482 -42.66
L101.7 -42.66
L99.6831 -42.66
L99.0188 -42.66
L87.8252 -42.66
L87.1549 -42.66
L86.2233 -42.66
L83.8948 -42.66
L82.1199 -42.66
L80.618 -42.66
L79.5138 -42.66
L78.2631 -42.66
L77.3512 -42.66
L71.7612 -42.66
L70.8153 -42.66
L69.147 -42.66
L67.5228 -42.66
L66.8986 -42.66
L66.3762 -42.66
L65.1151 -42.66
L61.102 -42.66
L60.0638 -42.66
L59.136 -42.66
L57.8165 -42.66
L57.214 -42.66
L55.8832 -42.66
L55.3779 -42.66
L54.8865 -42.66
z
" id="C1_0_285c37df5c"/>
    </defs>
    <g clip-path="url(#pa8176fee34)">
     <use style="fill:#0000ff;opacity:0.05;stroke:#0000ff;stroke-linecap:butt;" x="0" xlink:href="#C1_0_285c37df5c" y="144.0"/>
    </g>
   </g>
   <g id="PolyCollection_3">
    <defs>
     <path d="
M54.8865 -42.66
L54.8865 -72.8754
L55.3779 -72.8754
L55.8832 -73.5621
L57.214 -74.2488
L57.8165 -74.9355
L59.136 -76.309
L60.0638 -77.6824
L61.102 -76.309
L65.1151 -72.1887
L66.3762 -71.502
L66.8986 -71.502
L67.5228 -71.502
L69.147 -70.8152
L70.8153 -70.8152
L71.7612 -70.1285
L77.3512 -69.4418
L78.2631 -69.4418
L79.5138 -69.4418
L80.618 -69.4418
L82.1199 -70.1285
L83.8948 -71.502
L86.2233 -73.5621
L87.1549 -74.2488
L87.8252 -74.9355
L99.0188 -83.8628
L99.6831 -83.8628
L101.7 -83.8628
L102.482 -83.8628
L103.686 -83.8628
L106.007 -83.8628
L107.87 -83.8628
L108.537 -83.8628
L111.481 -83.8628
L113.288 -83.8628
L114.869 -83.8628
L116.311 -83.8628
L119.52 -83.8628
L122.03 -83.8628
L122.614 -83.8628
L123.188 -83.8628
L128.436 -83.8628
L130.9 -83.8628
L132.901 -83.8628
L135.288 -83.8628
L136.267 -83.8628
L137.28 -83.8628
L141.025 -83.8628
L146.113 -83.8628
L146.994 -83.8628
L161.82 -83.8628
L163 -83.8628
L164.792 -83.8628
L168.259 -83.8628
L171.684 -83.8628
L173.483 -83.8628
L174.226 -83.8628
L175.712 -83.8628
L177.557 -83.8628
L178.404 -83.8628
L181.782 -83.8628
L182.06 -83.8628
L186.361 -83.8628
L188.965 -83.8628
L191.122 -83.8628
L191.89 -83.8628
L194.05 -83.8628
L195.913 -83.8628
L196.819 -83.8628
L197.581 -83.8628
L199.868 -83.8628
L200.159 -83.8628
L203.064 -83.8628
L203.503 -83.8628
L204.159 -83.8628
L206.836 -83.8628
L210.414 -83.8628
L221.692 -83.8628
L221.871 -83.8628
L223.254 -83.8628
L232.706 -83.8628
L235.934 -83.8628
L238.65 -83.8628
L252.372 -83.8628
L261.231 -83.8628
L262.226 -83.8628
L263.294 -83.8628
L269.61 -83.8628
L272.213 -83.8628
L274.432 -83.8628
L276.901 -83.8628
L278.28 -83.8628
L279.53 -83.8628
L280.865 -83.8628
L283.571 -83.8628
L284.481 -83.8628
L286.371 -83.8628
L287.103 -83.8628
L288.282 -83.8628
L288.674 -83.8628
L290.559 -83.8628
L291.218 -83.8628
L292.09 -83.8628
L293.549 -83.8628
L299.653 -83.8628
L300.113 -83.8628
L300.544 -83.8628
L302.059 -83.8628
L302.683 -83.8628
L303.616 -83.8628
L304.856 -83.8628
L306.409 -83.8628
L310.487 -83.8628
L318.081 -83.8628
L323.231 -83.8628
L325.361 -83.8628
L327.257 -83.8628
L331.962 -83.8628
L338.424 -83.8628
L339.528 -83.8628
L340.872 -83.8628
L342.86 -83.8628
L344.532 -82.4894
L348.843 -78.3691
L351.733 -79.0558
L352.533 -79.0558
L353.107 -79.0558
L353.902 -79.0558
L354.845 -79.0558
L355.843 -79.0558
L357.277 -80.4292
L358.012 -82.4894
L364.512 -83.8628
L374.585 -83.8628
L381.862 -83.8628
L386.638 -83.8628
L387.335 -83.8628
L387.795 -83.8628
L390.796 -83.8628
L392.739 -83.8628
L404.232 -83.8628
L404.901 -83.8628
L407.03 -83.8628
L408.36 -83.8628
L416.473 -83.8628
L417.804 -83.8628
L419.621 -83.8628
L420.469 -82.4894
L421.25 -81.1159
L421.878 -80.4292
L423.418 -76.9957
L424.176 -75.6222
L424.929 -76.309
L426.151 -79.0558
L426.698 -78.3691
L427.577 -78.3691
L428.126 -78.3691
L428.892 -79.0558
L432.738 -83.8628
L436.359 -83.8628
L440.41 -83.8628
L444.105 -81.1159
L453.112 -83.8628
L454.03 -83.8628
L454.927 -83.8628
L457.83 -83.8628
L458.382 -83.8628
L460.711 -83.8628
L463.468 -82.4894
L484.265 -81.8027
L485.621 -81.8027
L488.167 -81.8027
L490.457 -80.4292
L493.064 -81.1159
L497.148 -79.7425
L506.72 -76.309
L510.67 -78.3691
L516.154 -77.6824
L516.646 -77.6824
L518.006 -77.6824
L518.874 -77.6824
L519.645 -79.0558
L521.166 -82.4894
L521.487 -81.8027
L521.815 -81.1159
L522.2 -80.4292
L534.794 -81.1159
L535.185 -80.4292
L535.989 -79.7425
L536.334 -79.7425
L541.535 -76.309
L542.282 -76.9957
L546.814 -82.4894
L547.439 -82.4894
L549.509 -83.8628
L550.445 -83.8628
L556.467 -83.8628
L556.923 -83.8628
L557.246 -83.8628
L558.067 -83.8628
L559.604 -83.8628
L561.128 -83.8628
L562.313 -83.8628
L563.417 -83.8628
L564.881 -83.8628
L567.637 -83.8628
L568.684 -83.8628
L572.231 -83.8628
L573.146 -83.8628
L573.985 -83.1761
L576.488 -80.4292
L577.07 -80.4292
L577.709 -81.1159
L577.969 -81.1159
L586.367 -83.8628
L586.591 -83.8628
L586.821 -83.8628
L587.919 -83.8628
L589.866 -83.8628
L590.401 -83.8628
L594.847 -81.8027
L598.782 -72.1887
L600.621 -68.7551
L600.987 -68.7551
L611.453 -77.6824
L611.887 -77.6824
L613.336 -77.6824
L613.689 -77.6824
L618.814 -73.5621
L621.158 -70.1285
L621.656 -70.1285
L625.018 -70.1285
L626.059 -70.1285
L626.764 -70.1285
L628.775 -70.1285
L633.005 -82.4894
L634.01 -83.1761
L634.623 -83.8628
L634.951 -83.8628
L635.617 -83.8628
L645.367 -66.695
L646.116 -66.695
L647.855 -66.695
L649.45 -64.6348
L652.851 -61.888
L653.647 -61.888
L655.551 -61.888
L656.573 -62.5747
L657.153 -63.2614
L660.095 -67.3817
L664.963 -68.7551
L674.953 -63.2614
L691.965 -72.8754
L694.428 -70.1285
L694.675 -70.1285
L695.18 -70.1285
L696.73 -70.8152
L698.677 -71.502
L699.498 -71.502
L700.549 -71.502
L707.04 -72.8754
L707.04 -42.66
L707.04 -42.66
L700.549 -42.66
L699.498 -42.66
L698.677 -42.66
L696.73 -42.66
L695.18 -42.66
L694.675 -42.66
L694.428 -42.66
L691.965 -42.66
L674.953 -42.66
L664.963 -42.66
L660.095 -42.66
L657.153 -42.66
L656.573 -42.66
L655.551 -42.66
L653.647 -42.66
L652.851 -42.66
L649.45 -42.66
L647.855 -42.66
L646.116 -42.66
L645.367 -42.66
L635.617 -42.66
L634.951 -42.66
L634.623 -42.66
L634.01 -42.66
L633.005 -42.66
L628.775 -42.66
L626.764 -42.66
L626.059 -42.66
L625.018 -42.66
L621.656 -42.66
L621.158 -42.66
L618.814 -42.66
L613.689 -42.66
L613.336 -42.66
L611.887 -42.66
L611.453 -42.66
L600.987 -42.66
L600.621 -42.66
L598.782 -42.66
L594.847 -42.66
L590.401 -42.66
L589.866 -42.66
L587.919 -42.66
L586.821 -42.66
L586.591 -42.66
L586.367 -42.66
L577.969 -42.66
L577.709 -42.66
L577.07 -42.66
L576.488 -42.66
L573.985 -42.66
L573.146 -42.66
L572.231 -42.66
L568.684 -42.66
L567.637 -42.66
L564.881 -42.66
L563.417 -42.66
L562.313 -42.66
L561.128 -42.66
L559.604 -42.66
L558.067 -42.66
L557.246 -42.66
L556.923 -42.66
L556.467 -42.66
L550.445 -42.66
L549.509 -42.66
L547.439 -42.66
L546.814 -42.66
L542.282 -42.66
L541.535 -42.66
L536.334 -42.66
L535.989 -42.66
L535.185 -42.66
L534.794 -42.66
L522.2 -42.66
L521.815 -42.66
L521.487 -42.66
L521.166 -42.66
L519.645 -42.66
L518.874 -42.66
L518.006 -42.66
L516.646 -42.66
L516.154 -42.66
L510.67 -42.66
L506.72 -42.66
L497.148 -42.66
L493.064 -42.66
L490.457 -42.66
L488.167 -42.66
L485.621 -42.66
L484.265 -42.66
L463.468 -42.66
L460.711 -42.66
L458.382 -42.66
L457.83 -42.66
L454.927 -42.66
L454.03 -42.66
L453.112 -42.66
L444.105 -42.66
L440.41 -42.66
L436.359 -42.66
L432.738 -42.66
L428.892 -42.66
L428.126 -42.66
L427.577 -42.66
L426.698 -42.66
L426.151 -42.66
L424.929 -42.66
L424.176 -42.66
L423.418 -42.66
L421.878 -42.66
L421.25 -42.66
L420.469 -42.66
L419.621 -42.66
L417.804 -42.66
L416.473 -42.66
L408.36 -42.66
L407.03 -42.66
L404.901 -42.66
L404.232 -42.66
L392.739 -42.66
L390.796 -42.66
L387.795 -42.66
L387.335 -42.66
L386.638 -42.66
L381.862 -42.66
L374.585 -42.66
L364.512 -42.66
L358.012 -42.66
L357.277 -42.66
L355.843 -42.66
L354.845 -42.66
L353.902 -42.66
L353.107 -42.66
L352.533 -42.66
L351.733 -42.66
L348.843 -42.66
L344.532 -42.66
L342.86 -42.66
L340.872 -42.66
L339.528 -42.66
L338.424 -42.66
L331.962 -42.66
L327.257 -42.66
L325.361 -42.66
L323.231 -42.66
L318.081 -42.66
L310.487 -42.66
L306.409 -42.66
L304.856 -42.66
L303.616 -42.66
L302.683 -42.66
L302.059 -42.66
L300.544 -42.66
L300.113 -42.66
L299.653 -42.66
L293.549 -42.66
L292.09 -42.66
L291.218 -42.66
L290.559 -42.66
L288.674 -42.66
L288.282 -42.66
L287.103 -42.66
L286.371 -42.66
L284.481 -42.66
L283.571 -42.66
L280.865 -42.66
L279.53 -42.66
L278.28 -42.66
L276.901 -42.66
L274.432 -42.66
L272.213 -42.66
L269.61 -42.66
L263.294 -42.66
L262.226 -42.66
L261.231 -42.66
L252.372 -42.66
L238.65 -42.66
L235.934 -42.66
L232.706 -42.66
L223.254 -42.66
L221.871 -42.66
L221.692 -42.66
L210.414 -42.66
L206.836 -42.66
L204.159 -42.66
L203.503 -42.66
L203.064 -42.66
L200.159 -42.66
L199.868 -42.66
L197.581 -42.66
L196.819 -42.66
L195.913 -42.66
L194.05 -42.66
L191.89 -42.66
L191.122 -42.66
L188.965 -42.66
L186.361 -42.66
L182.06 -42.66
L181.782 -42.66
L178.404 -42.66
L177.557 -42.66
L175.712 -42.66
L174.226 -42.66
L173.483 -42.66
L171.684 -42.66
L168.259 -42.66
L164.792 -42.66
L163 -42.66
L161.82 -42.66
L146.994 -42.66
L146.113 -42.66
L141.025 -42.66
L137.28 -42.66
L136.267 -42.66
L135.288 -42.66
L132.901 -42.66
L130.9 -42.66
L128.436 -42.66
L123.188 -42.66
L122.614 -42.66
L122.03 -42.66
L119.52 -42.66
L116.311 -42.66
L114.869 -42.66
L113.288 -42.66
L111.481 -42.66
L108.537 -42.66
L107.87 -42.66
L106.007 -42.66
L103.686 -42.66
L102.482 -42.66
L101.7 -42.66
L99.6831 -42.66
L99.0188 -42.66
L87.8252 -42.66
L87.1549 -42.66
L86.2233 -42.66
L83.8948 -42.66
L82.1199 -42.66
L80.618 -42.66
L79.5138 -42.66
L78.2631 -42.66
L77.3512 -42.66
L71.7612 -42.66
L70.8153 -42.66
L69.147 -42.66
L67.5228 -42.66
L66.8986 -42.66
L66.3762 -42.66
L65.1151 -42.66
L61.102 -42.66
L60.0638 -42.66
L59.136 -42.66
L57.8165 -42.66
L57.214 -42.66
L55.8832 -42.66
L55.3779 -42.66
L54.8865 -42.66
z
" id="C2_0_2eab420c07"/>
    </defs>
    <g clip-path="url(#pa8176fee34)">
     <use style="fill:#0000ff;opacity:0.05;stroke:#0000ff;stroke-linecap:butt;" x="0" xlink:href="#C2_0_2eab420c07" y="144.0"/>
    </g>
   </g>
   <g id="PolyCollection_4">
    <defs>
     <path d="
M54.8865 -42.66
L54.8865 -72.8754
L55.3779 -72.8754
L55.8832 -73.5621
L57.214 -74.2488
L57.8165 -74.9355
L59.136 -76.309
L60.0638 -77.6824
L61.102 -76.309
L65.1151 -72.1887
L66.3762 -71.502
L66.8986 -71.502
L67.5228 -71.502
L69.147 -70.8152
L70.8153 -70.8152
L71.7612 -70.1285
L77.3512 -69.4418
L78.2631 -69.4418
L79.5138 -69.4418
L80.618 -69.4418
L82.1199 -70.1285
L83.8948 -71.502
L86.2233 -73.5621
L87.1549 -74.2488
L87.8252 -74.9355
L99.0188 -87.2964
L99.6831 -88.6698
L101.7 -92.1034
L102.482 -94.1635
L103.686 -97.5971
L106.007 -97.5971
L107.87 -97.5971
L108.537 -97.5971
L111.481 -97.5971
L113.288 -97.5971
L114.869 -97.5971
L116.311 -97.5971
L119.52 -97.5971
L122.03 -97.5971
L122.614 -97.5971
L123.188 -97.5971
L128.436 -97.5971
L130.9 -97.5971
L132.901 -97.5971
L135.288 -97.5971
L136.267 -97.5971
L137.28 -97.5971
L141.025 -97.5971
L146.113 -97.5971
L146.994 -97.5971
L161.82 -97.5971
L163 -97.5971
L164.792 -97.5971
L168.259 -97.5971
L171.684 -97.5971
L173.483 -97.5971
L174.226 -97.5971
L175.712 -97.5971
L177.557 -97.5971
L178.404 -97.5971
L181.782 -97.5971
L182.06 -97.5971
L186.361 -97.5971
L188.965 -97.5971
L191.122 -97.5971
L191.89 -97.5971
L194.05 -97.5971
L195.913 -97.5971
L196.819 -97.5971
L197.581 -97.5971
L199.868 -97.5971
L200.159 -97.5971
L203.064 -97.5971
L203.503 -97.5971
L204.159 -97.5971
L206.836 -97.5971
L210.414 -97.5971
L221.692 -96.2236
L221.871 -96.2236
L223.254 -96.9103
L232.706 -97.5971
L235.934 -97.5971
L238.65 -97.5971
L252.372 -97.5971
L261.231 -97.5971
L262.226 -97.5971
L263.294 -97.5971
L269.61 -97.5971
L272.213 -97.5971
L274.432 -97.5971
L276.901 -97.5971
L278.28 -97.5971
L279.53 -97.5971
L280.865 -97.5971
L283.571 -97.5971
L284.481 -97.5971
L286.371 -97.5971
L287.103 -97.5971
L288.282 -97.5971
L288.674 -97.5971
L290.559 -97.5971
L291.218 -97.5971
L292.09 -97.5971
L293.549 -97.5971
L299.653 -97.5971
L300.113 -97.5971
L300.544 -97.5971
L302.059 -96.9103
L302.683 -96.2236
L303.616 -96.2236
L304.856 -96.2236
L306.409 -96.2236
L310.487 -96.2236
L318.081 -97.5971
L323.231 -95.5369
L325.361 -91.4166
L327.257 -89.3565
L331.962 -86.6097
L338.424 -86.6097
L339.528 -85.9229
L340.872 -85.2362
L342.86 -84.5495
L344.532 -82.4894
L348.843 -78.3691
L351.733 -79.0558
L352.533 -79.0558
L353.107 -79.0558
L353.902 -79.0558
L354.845 -79.0558
L355.843 -79.0558
L357.277 -80.4292
L358.012 -82.4894
L364.512 -97.5971
L374.585 -97.5971
L381.862 -97.5971
L386.638 -97.5971
L387.335 -97.5971
L387.795 -97.5971
L390.796 -97.5971
L392.739 -97.5971
L404.232 -86.6097
L404.901 -86.6097
L407.03 -88.6698
L408.36 -87.9831
L416.473 -86.6097
L417.804 -85.2362
L419.621 -83.8628
L420.469 -82.4894
L421.25 -81.1159
L421.878 -80.4292
L423.418 -76.9957
L424.176 -75.6222
L424.929 -76.309
L426.151 -79.0558
L426.698 -78.3691
L427.577 -78.3691
L428.126 -78.3691
L428.892 -79.0558
L432.738 -83.8628
L436.359 -87.9831
L440.41 -85.2362
L444.105 -81.1159
L453.112 -85.9229
L454.03 -86.6097
L454.927 -87.9831
L457.83 -88.6698
L458.382 -87.9831
L460.711 -86.6097
L463.468 -82.4894
L484.265 -81.8027
L485.621 -81.8027
L488.167 -81.8027
L490.457 -80.4292
L493.064 -81.1159
L497.148 -79.7425
L506.72 -76.309
L510.67 -78.3691
L516.154 -77.6824
L516.646 -77.6824
L518.006 -77.6824
L518.874 -77.6824
L519.645 -79.0558
L521.166 -82.4894
L521.487 -81.8027
L521.815 -81.1159
L522.2 -80.4292
L534.794 -81.1159
L535.185 -80.4292
L535.989 -79.7425
L536.334 -79.7425
L541.535 -76.309
L542.282 -76.9957
L546.814 -82.4894
L547.439 -82.4894
L549.509 -85.2362
L550.445 -85.2362
L556.467 -89.3565
L556.923 -89.3565
L557.246 -89.3565
L558.067 -89.3565
L559.604 -89.3565
L561.128 -89.3565
L562.313 -89.3565
L563.417 -89.3565
L564.881 -88.6698
L567.637 -88.6698
L568.684 -87.9831
L572.231 -85.9229
L573.146 -84.5495
L573.985 -83.1761
L576.488 -80.4292
L577.07 -80.4292
L577.709 -81.1159
L577.969 -81.1159
L586.367 -88.6698
L586.591 -88.6698
L586.821 -88.6698
L587.919 -88.6698
L589.866 -88.6698
L590.401 -87.2964
L594.847 -81.8027
L598.782 -72.1887
L600.621 -68.7551
L600.987 -68.7551
L611.453 -77.6824
L611.887 -77.6824
L613.336 -77.6824
L613.689 -77.6824
L618.814 -73.5621
L621.158 -70.1285
L621.656 -70.1285
L625.018 -70.1285
L626.059 -70.1285
L626.764 -70.1285
L628.775 -70.1285
L633.005 -82.4894
L634.01 -83.1761
L634.623 -83.8628
L634.951 -83.8628
L635.617 -85.2362
L645.367 -66.695
L646.116 -66.695
L647.855 -66.695
L649.45 -64.6348
L652.851 -61.888
L653.647 -61.888
L655.551 -61.888
L656.573 -62.5747
L657.153 -63.2614
L660.095 -67.3817
L664.963 -68.7551
L674.953 -63.2614
L691.965 -72.8754
L694.428 -70.1285
L694.675 -70.1285
L695.18 -70.1285
L696.73 -70.8152
L698.677 -71.502
L699.498 -71.502
L700.549 -71.502
L707.04 -72.8754
L707.04 -42.66
L707.04 -42.66
L700.549 -42.66
L699.498 -42.66
L698.677 -42.66
L696.73 -42.66
L695.18 -42.66
L694.675 -42.66
L694.428 -42.66
L691.965 -42.66
L674.953 -42.66
L664.963 -42.66
L660.095 -42.66
L657.153 -42.66
L656.573 -42.66
L655.551 -42.66
L653.647 -42.66
L652.851 -42.66
L649.45 -42.66
L647.855 -42.66
L646.116 -42.66
L645.367 -42.66
L635.617 -42.66
L634.951 -42.66
L634.623 -42.66
L634.01 -42.66
L633.005 -42.66
L628.775 -42.66
L626.764 -42.66
L626.059 -42.66
L625.018 -42.66
L621.656 -42.66
L621.158 -42.66
L618.814 -42.66
L613.689 -42.66
L613.336 -42.66
L611.887 -42.66
L611.453 -42.66
L600.987 -42.66
L600.621 -42.66
L598.782 -42.66
L594.847 -42.66
L590.401 -42.66
L589.866 -42.66
L587.919 -42.66
L586.821 -42.66
L586.591 -42.66
L586.367 -42.66
L577.969 -42.66
L577.709 -42.66
L577.07 -42.66
L576.488 -42.66
L573.985 -42.66
L573.146 -42.66
L572.231 -42.66
L568.684 -42.66
L567.637 -42.66
L564.881 -42.66
L563.417 -42.66
L562.313 -42.66
L561.128 -42.66
L559.604 -42.66
L558.067 -42.66
L557.246 -42.66
L556.923 -42.66
L556.467 -42.66
L550.445 -42.66
L549.509 -42.66
L547.439 -42.66
L546.814 -42.66
L542.282 -42.66
L541.535 -42.66
L536.334 -42.66
L535.989 -42.66
L535.185 -42.66
L534.794 -42.66
L522.2 -42.66
L521.815 -42.66
L521.487 -42.66
L521.166 -42.66
L519.645 -42.66
L518.874 -42.66
L518.006 -42.66
L516.646 -42.66
L516.154 -42.66
L510.67 -42.66
L506.72 -42.66
L497.148 -42.66
L493.064 -42.66
L490.457 -42.66
L488.167 -42.66
L485.621 -42.66
L484.265 -42.66
L463.468 -42.66
L460.711 -42.66
L458.382 -42.66
L457.83 -42.66
L454.927 -42.66
L454.03 -42.66
L453.112 -42.66
L444.105 -42.66
L440.41 -42.66
L436.359 -42.66
L432.738 -42.66
L428.892 -42.66
L428.126 -42.66
L427.577 -42.66
L426.698 -42.66
L426.151 -42.66
L424.929 -42.66
L424.176 -42.66
L423.418 -42.66
L421.878 -42.66
L421.25 -42.66
L420.469 -42.66
L419.621 -42.66
L417.804 -42.66
L416.473 -42.66
L408.36 -42.66
L407.03 -42.66
L404.901 -42.66
L404.232 -42.66
L392.739 -42.66
L390.796 -42.66
L387.795 -42.66
L387.335 -42.66
L386.638 -42.66
L381.862 -42.66
L374.585 -42.66
L364.512 -42.66
L358.012 -42.66
L357.277 -42.66
L355.843 -42.66
L354.845 -42.66
L353.902 -42.66
L353.107 -42.66
L352.533 -42.66
L351.733 -42.66
L348.843 -42.66
L344.532 -42.66
L342.86 -42.66
L340.872 -42.66
L339.528 -42.66
L338.424 -42.66
L331.962 -42.66
L327.257 -42.66
L325.361 -42.66
L323.231 -42.66
L318.081 -42.66
L310.487 -42.66
L306.409 -42.66
L304.856 -42.66
L303.616 -42.66
L302.683 -42.66
L302.059 -42.66
L300.544 -42.66
L300.113 -42.66
L299.653 -42.66
L293.549 -42.66
L292.09 -42.66
L291.218 -42.66
L290.559 -42.66
L288.674 -42.66
L288.282 -42.66
L287.103 -42.66
L286.371 -42.66
L284.481 -42.66
L283.571 -42.66
L280.865 -42.66
L279.53 -42.66
L278.28 -42.66
L276.901 -42.66
L274.432 -42.66
L272.213 -42.66
L269.61 -42.66
L263.294 -42.66
L262.226 -42.66
L261.231 -42.66
L252.372 -42.66
L238.65 -42.66
L235.934 -42.66
L232.706 -42.66
L223.254 -42.66
L221.871 -42.66
L221.692 -42.66
L210.414 -42.66
L206.836 -42.66
L204.159 -42.66
L203.503 -42.66
L203.064 -42.66
L200.159 -42.66
L199.868 -42.66
L197.581 -42.66
L196.819 -42.66
L195.913 -42.66
L194.05 -42.66
L191.89 -42.66
L191.122 -42.66
L188.965 -42.66
L186.361 -42.66
L182.06 -42.66
L181.782 -42.66
L178.404 -42.66
L177.557 -42.66
L175.712 -42.66
L174.226 -42.66
L173.483 -42.66
L171.684 -42.66
L168.259 -42.66
L164.792 -42.66
L163 -42.66
L161.82 -42.66
L146.994 -42.66
L146.113 -42.66
L141.025 -42.66
L137.28 -42.66
L136.267 -42.66
L135.288 -42.66
L132.901 -42.66
L130.9 -42.66
L128.436 -42.66
L123.188 -42.66
L122.614 -42.66
L122.03 -42.66
L119.52 -42.66
L116.311 -42.66
L114.869 -42.66
L113.288 -42.66
L111.481 -42.66
L108.537 -42.66
L107.87 -42.66
L106.007 -42.66
L103.686 -42.66
L102.482 -42.66
L101.7 -42.66
L99.6831 -42.66
L99.0188 -42.66
L87.8252 -42.66
L87.1549 -42.66
L86.2233 -42.66
L83.8948 -42.66
L82.1199 -42.66
L80.618 -42.66
L79.5138 -42.66
L78.2631 -42.66
L77.3512 -42.66
L71.7612 -42.66
L70.8153 -42.66
L69.147 -42.66
L67.5228 -42.66
L66.8986 -42.66
L66.3762 -42.66
L65.1151 -42.66
L61.102 -42.66
L60.0638 -42.66
L59.136 -42.66
L57.8165 -42.66
L57.214 -42.66
L55.8832 -42.66
L55.3779 -42.66
L54.8865 -42.66
z
" id="C3_0_ece810df97"/>
    </defs>
    <g clip-path="url(#pa8176fee34)">
     <use style="fill:#0000ff;opacity:0.05;stroke:#0000ff;stroke-linecap:butt;" x="0" xlink:href="#C3_0_ece810df97" y="144.0"/>
    </g>
   </g>
   <g id="PolyCollection_5">
    <defs>
     <path d="
M54.8865 -42.66
L54.8865 -72.8754
L55.3779 -72.8754
L55.8832 -73.5621
L57.214 -74.2488
L57.8165 -74.9355
L59.136 -76.309
L60.0638 -77.6824
L61.102 -76.309
L65.1151 -72.1887
L66.3762 -71.502
L66.8986 -71.502
L67.5228 -71.502
L69.147 -70.8152
L70.8153 -70.8152
L71.7612 -70.1285
L77.3512 -69.4418
L78.2631 -69.4418
L79.5138 -69.4418
L80.618 -69.4418
L82.1199 -70.1285
L83.8948 -71.502
L86.2233 -73.5621
L87.1549 -74.2488
L87.8252 -74.9355
L99.0188 -87.2964
L99.6831 -88.6698
L101.7 -92.1034
L102.482 -94.1635
L103.686 -98.2838
L106.007 -105.838
L107.87 -108.584
L108.537 -109.958
L111.481 -111.331
L113.288 -111.331
L114.869 -111.331
L116.311 -110.645
L119.52 -109.271
L122.03 -109.271
L122.614 -108.584
L123.188 -108.584
L128.436 -105.838
L130.9 -105.151
L132.901 -107.898
L135.288 -109.958
L136.267 -107.898
L137.28 -105.838
L141.025 -106.524
L146.113 -111.331
L146.994 -110.645
L161.82 -110.645
L163 -109.958
L164.792 -109.271
L168.259 -111.331
L171.684 -111.331
L173.483 -111.331
L174.226 -111.331
L175.712 -111.331
L177.557 -111.331
L178.404 -111.331
L181.782 -111.331
L182.06 -111.331
L186.361 -111.331
L188.965 -111.331
L191.122 -111.331
L191.89 -111.331
L194.05 -111.331
L195.913 -111.331
L196.819 -111.331
L197.581 -111.331
L199.868 -111.331
L200.159 -111.331
L203.064 -111.331
L203.503 -111.331
L204.159 -111.331
L206.836 -111.331
L210.414 -111.331
L221.692 -96.2236
L221.871 -96.2236
L223.254 -96.9103
L232.706 -103.091
L235.934 -105.151
L238.65 -107.211
L252.372 -106.524
L261.231 -109.958
L262.226 -109.958
L263.294 -109.958
L269.61 -110.645
L272.213 -111.331
L274.432 -109.958
L276.901 -107.898
L278.28 -108.584
L279.53 -109.271
L280.865 -109.271
L283.571 -109.958
L284.481 -108.584
L286.371 -107.211
L287.103 -106.524
L288.282 -105.838
L288.674 -105.838
L290.559 -101.717
L291.218 -100.344
L292.09 -99.6572
L293.549 -98.9705
L299.653 -101.717
L300.113 -100.344
L300.544 -99.6572
L302.059 -96.9103
L302.683 -96.2236
L303.616 -96.2236
L304.856 -96.2236
L306.409 -96.2236
L310.487 -96.2236
L318.081 -97.5971
L323.231 -95.5369
L325.361 -91.4166
L327.257 -89.3565
L331.962 -86.6097
L338.424 -86.6097
L339.528 -85.9229
L340.872 -85.2362
L342.86 -84.5495
L344.532 -82.4894
L348.843 -78.3691
L351.733 -79.0558
L352.533 -79.0558
L353.107 -79.0558
L353.902 -79.0558
L354.845 -79.0558
L355.843 -79.0558
L357.277 -80.4292
L358.012 -82.4894
L364.512 -105.838
L374.585 -111.331
L381.862 -111.331
L386.638 -111.331
L387.335 -109.958
L387.795 -109.271
L390.796 -103.777
L392.739 -98.9705
L404.232 -86.6097
L404.901 -86.6097
L407.03 -88.6698
L408.36 -87.9831
L416.473 -86.6097
L417.804 -85.2362
L419.621 -83.8628
L420.469 -82.4894
L421.25 -81.1159
L421.878 -80.4292
L423.418 -76.9957
L424.176 -75.6222
L424.929 -76.309
L426.151 -79.0558
L426.698 -78.3691
L427.577 -78.3691
L428.126 -78.3691
L428.892 -79.0558
L432.738 -83.8628
L436.359 -87.9831
L440.41 -85.2362
L444.105 -81.1159
L453.112 -85.9229
L454.03 -86.6097
L454.927 -87.9831
L457.83 -88.6698
L458.382 -87.9831
L460.711 -86.6097
L463.468 -82.4894
L484.265 -81.8027
L485.621 -81.8027
L488.167 -81.8027
L490.457 -80.4292
L493.064 -81.1159
L497.148 -79.7425
L506.72 -76.309
L510.67 -78.3691
L516.154 -77.6824
L516.646 -77.6824
L518.006 -77.6824
L518.874 -77.6824
L519.645 -79.0558
L521.166 -82.4894
L521.487 -81.8027
L521.815 -81.1159
L522.2 -80.4292
L534.794 -81.1159
L535.185 -80.4292
L535.989 -79.7425
L536.334 -79.7425
L541.535 -76.309
L542.282 -76.9957
L546.814 -82.4894
L547.439 -82.4894
L549.509 -85.2362
L550.445 -85.2362
L556.467 -89.3565
L556.923 -89.3565
L557.246 -89.3565
L558.067 -89.3565
L559.604 -89.3565
L561.128 -89.3565
L562.313 -89.3565
L563.417 -89.3565
L564.881 -88.6698
L567.637 -88.6698
L568.684 -87.9831
L572.231 -85.9229
L573.146 -84.5495
L573.985 -83.1761
L576.488 -80.4292
L577.07 -80.4292
L577.709 -81.1159
L577.969 -81.1159
L586.367 -88.6698
L586.591 -88.6698
L586.821 -88.6698
L587.919 -88.6698
L589.866 -88.6698
L590.401 -87.2964
L594.847 -81.8027
L598.782 -72.1887
L600.621 -68.7551
L600.987 -68.7551
L611.453 -77.6824
L611.887 -77.6824
L613.336 -77.6824
L613.689 -77.6824
L618.814 -73.5621
L621.158 -70.1285
L621.656 -70.1285
L625.018 -70.1285
L626.059 -70.1285
L626.764 -70.1285
L628.775 -70.1285
L633.005 -82.4894
L634.01 -83.1761
L634.623 -83.8628
L634.951 -83.8628
L635.617 -85.2362
L645.367 -66.695
L646.116 -66.695
L647.855 -66.695
L649.45 -64.6348
L652.851 -61.888
L653.647 -61.888
L655.551 -61.888
L656.573 -62.5747
L657.153 -63.2614
L660.095 -67.3817
L664.963 -68.7551
L674.953 -63.2614
L691.965 -72.8754
L694.428 -70.1285
L694.675 -70.1285
L695.18 -70.1285
L696.73 -70.8152
L698.677 -71.502
L699.498 -71.502
L700.549 -71.502
L707.04 -72.8754
L707.04 -42.66
L707.04 -42.66
L700.549 -42.66
L699.498 -42.66
L698.677 -42.66
L696.73 -42.66
L695.18 -42.66
L694.675 -42.66
L694.428 -42.66
L691.965 -42.66
L674.953 -42.66
L664.963 -42.66
L660.095 -42.66
L657.153 -42.66
L656.573 -42.66
L655.551 -42.66
L653.647 -42.66
L652.851 -42.66
L649.45 -42.66
L647.855 -42.66
L646.116 -42.66
L645.367 -42.66
L635.617 -42.66
L634.951 -42.66
L634.623 -42.66
L634.01 -42.66
L633.005 -42.66
L628.775 -42.66
L626.764 -42.66
L626.059 -42.66
L625.018 -42.66
L621.656 -42.66
L621.158 -42.66
L618.814 -42.66
L613.689 -42.66
L613.336 -42.66
L611.887 -42.66
L611.453 -42.66
L600.987 -42.66
L600.621 -42.66
L598.782 -42.66
L594.847 -42.66
L590.401 -42.66
L589.866 -42.66
L587.919 -42.66
L586.821 -42.66
L586.591 -42.66
L586.367 -42.66
L577.969 -42.66
L577.709 -42.66
L577.07 -42.66
L576.488 -42.66
L573.985 -42.66
L573.146 -42.66
L572.231 -42.66
L568.684 -42.66
L567.637 -42.66
L564.881 -42.66
L563.417 -42.66
L562.313 -42.66
L561.128 -42.66
L559.604 -42.66
L558.067 -42.66
L557.246 -42.66
L556.923 -42.66
L556.467 -42.66
L550.445 -42.66
L549.509 -42.66
L547.439 -42.66
L546.814 -42.66
L542.282 -42.66
L541.535 -42.66
L536.334 -42.66
L535.989 -42.66
L535.185 -42.66
L534.794 -42.66
L522.2 -42.66
L521.815 -42.66
L521.487 -42.66
L521.166 -42.66
L519.645 -42.66
L518.874 -42.66
L518.006 -42.66
L516.646 -42.66
L516.154 -42.66
L510.67 -42.66
L506.72 -42.66
L497.148 -42.66
L493.064 -42.66
L490.457 -42.66
L488.167 -42.66
L485.621 -42.66
L484.265 -42.66
L463.468 -42.66
L460.711 -42.66
L458.382 -42.66
L457.83 -42.66
L454.927 -42.66
L454.03 -42.66
L453.112 -42.66
L444.105 -42.66
L440.41 -42.66
L436.359 -42.66
L432.738 -42.66
L428.892 -42.66
L428.126 -42.66
L427.577 -42.66
L426.698 -42.66
L426.151 -42.66
L424.929 -42.66
L424.176 -42.66
L423.418 -42.66
L421.878 -42.66
L421.25 -42.66
L420.469 -42.66
L419.621 -42.66
L417.804 -42.66
L416.473 -42.66
L408.36 -42.66
L407.03 -42.66
L404.901 -42.66
L404.232 -42.66
L392.739 -42.66
L390.796 -42.66
L387.795 -42.66
L387.335 -42.66
L386.638 -42.66
L381.862 -42.66
L374.585 -42.66
L364.512 -42.66
L358.012 -42.66
L357.277 -42.66
L355.843 -42.66
L354.845 -42.66
L353.902 -42.66
L353.107 -42.66
L352.533 -42.66
L351.733 -42.66
L348.843 -42.66
L344.532 -42.66
L342.86 -42.66
L340.872 -42.66
L339.528 -42.66
L338.424 -42.66
L331.962 -42.66
L327.257 -42.66
L325.361 -42.66
L323.231 -42.66
L318.081 -42.66
L310.487 -42.66
L306.409 -42.66
L304.856 -42.66
L303.616 -42.66
L302.683 -42.66
L302.059 -42.66
L300.544 -42.66
L300.113 -42.66
L299.653 -42.66
L293.549 -42.66
L292.09 -42.66
L291.218 -42.66
L290.559 -42.66
L288.674 -42.66
L288.282 -42.66
L287.103 -42.66
L286.371 -42.66
L284.481 -42.66
L283.571 -42.66
L280.865 -42.66
L279.53 -42.66
L278.28 -42.66
L276.901 -42.66
L274.432 -42.66
L272.213 -42.66
L269.61 -42.66
L263.294 -42.66
L262.226 -42.66
L261.231 -42.66
L252.372 -42.66
L238.65 -42.66
L235.934 -42.66
L232.706 -42.66
L223.254 -42.66
L221.871 -42.66
L221.692 -42.66
L210.414 -42.66
L206.836 -42.66
L204.159 -42.66
L203.503 -42.66
L203.064 -42.66
L200.159 -42.66
L199.868 -42.66
L197.581 -42.66
L196.819 -42.66
L195.913 -42.66
L194.05 -42.66
L191.89 -42.66
L191.122 -42.66
L188.965 -42.66
L186.361 -42.66
L182.06 -42.66
L181.782 -42.66
L178.404 -42.66
L177.557 -42.66
L175.712 -42.66
L174.226 -42.66
L173.483 -42.66
L171.684 -42.66
L168.259 -42.66
L164.792 -42.66
L163 -42.66
L161.82 -42.66
L146.994 -42.66
L146.113 -42.66
L141.025 -42.66
L137.28 -42.66
L136.267 -42.66
L135.288 -42.66
L132.901 -42.66
L130.9 -42.66
L128.436 -42.66
L123.188 -42.66
L122.614 -42.66
L122.03 -42.66
L119.52 -42.66
L116.311 -42.66
L114.869 -42.66
L113.288 -42.66
L111.481 -42.66
L108.537 -42.66
L107.87 -42.66
L106.007 -42.66
L103.686 -42.66
L102.482 -42.66
L101.7 -42.66
L99.6831 -42.66
L99.0188 -42.66
L87.8252 -42.66
L87.1549 -42.66
L86.2233 -42.66
L83.8948 -42.66
L82.1199 -42.66
L80.618 -42.66
L79.5138 -42.66
L78.2631 -42.66
L77.3512 -42.66
L71.7612 -42.66
L70.8153 -42.66
L69.147 -42.66
L67.5228 -42.66
L66.8986 -42.66
L66.3762 -42.66
L65.1151 -42.66
L61.102 -42.66
L60.0638 -42.66
L59.136 -42.66
L57.8165 -42.66
L57.214 -42.66
L55.8832 -42.66
L55.3779 -42.66
L54.8865 -42.66
z
" id="C4_0_589abeb071"/>
    </defs>
    <g clip-path="url(#pa8176fee34)">
     <use style="fill:#0000ff;opacity:0.05;stroke:#0000ff;stroke-linecap:butt;" x="0" xlink:href="#C4_0_589abeb071" y="144.0"/>
    </g>
   </g>
   <g id="PolyCollection_6">
    <defs>
     <path d="
M54.8865 -42.66
L54.8865 -72.8754
L55.3779 -72.8754
L55.8832 -73.5621
L57.214 -74.2488
L57.8165 -74.9355
L59.136 -76.309
L60.0638 -77.6824
L61.102 -76.309
L65.1151 -72.1887
L66.3762 -71.502
L66.8986 -71.502
L67.5228 -71.502
L69.147 -70.8152
L70.8153 -70.8152
L71.7612 -70.1285
L77.3512 -69.4418
L78.2631 -69.4418
L79.5138 -69.4418
L80.618 -69.4418
L82.1199 -70.1285
L83.8948 -71.502
L86.2233 -73.5621
L87.1549 -74.2488
L87.8252 -74.9355
L99.0188 -87.2964
L99.6831 -88.6698
L101.7 -92.1034
L102.482 -94.1635
L103.686 -98.2838
L106.007 -105.838
L107.87 -108.584
L108.537 -109.958
L111.481 -112.018
L113.288 -111.331
L114.869 -111.331
L116.311 -110.645
L119.52 -109.271
L122.03 -109.271
L122.614 -108.584
L123.188 -108.584
L128.436 -105.838
L130.9 -105.151
L132.901 -107.898
L135.288 -109.958
L136.267 -107.898
L137.28 -105.838
L141.025 -106.524
L146.113 -111.331
L146.994 -110.645
L161.82 -110.645
L163 -109.958
L164.792 -109.271
L168.259 -112.018
L171.684 -114.765
L173.483 -114.765
L174.226 -115.452
L175.712 -113.391
L177.557 -111.331
L178.404 -112.018
L181.782 -117.512
L182.06 -117.512
L186.361 -118.885
L188.965 -118.198
L191.122 -116.138
L191.89 -116.825
L194.05 -118.885
L195.913 -121.632
L196.819 -123.005
L197.581 -121.632
L199.868 -117.512
L200.159 -116.825
L203.064 -116.825
L203.503 -116.825
L204.159 -117.512
L206.836 -119.572
L210.414 -114.078
L221.692 -96.2236
L221.871 -96.2236
L223.254 -96.9103
L232.706 -103.091
L235.934 -105.151
L238.65 -107.211
L252.372 -106.524
L261.231 -109.958
L262.226 -109.958
L263.294 -109.958
L269.61 -110.645
L272.213 -111.331
L274.432 -109.958
L276.901 -107.898
L278.28 -108.584
L279.53 -109.271
L280.865 -109.271
L283.571 -109.958
L284.481 -108.584
L286.371 -107.211
L287.103 -106.524
L288.282 -105.838
L288.674 -105.838
L290.559 -101.717
L291.218 -100.344
L292.09 -99.6572
L293.549 -98.9705
L299.653 -101.717
L300.113 -100.344
L300.544 -99.6572
L302.059 -96.9103
L302.683 -96.2236
L303.616 -96.2236
L304.856 -96.2236
L306.409 -96.2236
L310.487 -96.2236
L318.081 -97.5971
L323.231 -95.5369
L325.361 -91.4166
L327.257 -89.3565
L331.962 -86.6097
L338.424 -86.6097
L339.528 -85.9229
L340.872 -85.2362
L342.86 -84.5495
L344.532 -82.4894
L348.843 -78.3691
L351.733 -79.0558
L352.533 -79.0558
L353.107 -79.0558
L353.902 -79.0558
L354.845 -79.0558
L355.843 -79.0558
L357.277 -80.4292
L358.012 -82.4894
L364.512 -105.838
L374.585 -116.825
L381.862 -122.319
L386.638 -112.018
L387.335 -109.958
L387.795 -109.271
L390.796 -103.777
L392.739 -98.9705
L404.232 -86.6097
L404.901 -86.6097
L407.03 -88.6698
L408.36 -87.9831
L416.473 -86.6097
L417.804 -85.2362
L419.621 -83.8628
L420.469 -82.4894
L421.25 -81.1159
L421.878 -80.4292
L423.418 -76.9957
L424.176 -75.6222
L424.929 -76.309
L426.151 -79.0558
L426.698 -78.3691
L427.577 -78.3691
L428.126 -78.3691
L428.892 -79.0558
L432.738 -83.8628
L436.359 -87.9831
L440.41 -85.2362
L444.105 -81.1159
L453.112 -85.9229
L454.03 -86.6097
L454.927 -87.9831
L457.83 -88.6698
L458.382 -87.9831
L460.711 -86.6097
L463.468 -82.4894
L484.265 -81.8027
L485.621 -81.8027
L488.167 -81.8027
L490.457 -80.4292
L493.064 -81.1159
L497.148 -79.7425
L506.72 -76.309
L510.67 -78.3691
L516.154 -77.6824
L516.646 -77.6824
L518.006 -77.6824
L518.874 -77.6824
L519.645 -79.0558
L521.166 -82.4894
L521.487 -81.8027
L521.815 -81.1159
L522.2 -80.4292
L534.794 -81.1159
L535.185 -80.4292
L535.989 -79.7425
L536.334 -79.7425
L541.535 -76.309
L542.282 -76.9957
L546.814 -82.4894
L547.439 -82.4894
L549.509 -85.2362
L550.445 -85.2362
L556.467 -89.3565
L556.923 -89.3565
L557.246 -89.3565
L558.067 -89.3565
L559.604 -89.3565
L561.128 -89.3565
L562.313 -89.3565
L563.417 -89.3565
L564.881 -88.6698
L567.637 -88.6698
L568.684 -87.9831
L572.231 -85.9229
L573.146 -84.5495
L573.985 -83.1761
L576.488 -80.4292
L577.07 -80.4292
L577.709 -81.1159
L577.969 -81.1159
L586.367 -88.6698
L586.591 -88.6698
L586.821 -88.6698
L587.919 -88.6698
L589.866 -88.6698
L590.401 -87.2964
L594.847 -81.8027
L598.782 -72.1887
L600.621 -68.7551
L600.987 -68.7551
L611.453 -77.6824
L611.887 -77.6824
L613.336 -77.6824
L613.689 -77.6824
L618.814 -73.5621
L621.158 -70.1285
L621.656 -70.1285
L625.018 -70.1285
L626.059 -70.1285
L626.764 -70.1285
L628.775 -70.1285
L633.005 -82.4894
L634.01 -83.1761
L634.623 -83.8628
L634.951 -83.8628
L635.617 -85.2362
L645.367 -66.695
L646.116 -66.695
L647.855 -66.695
L649.45 -64.6348
L652.851 -61.888
L653.647 -61.888
L655.551 -61.888
L656.573 -62.5747
L657.153 -63.2614
L660.095 -67.3817
L664.963 -68.7551
L674.953 -63.2614
L691.965 -72.8754
L694.428 -70.1285
L694.675 -70.1285
L695.18 -70.1285
L696.73 -70.8152
L698.677 -71.502
L699.498 -71.502
L700.549 -71.502
L707.04 -72.8754
L707.04 -42.66
L707.04 -42.66
L700.549 -42.66
L699.498 -42.66
L698.677 -42.66
L696.73 -42.66
L695.18 -42.66
L694.675 -42.66
L694.428 -42.66
L691.965 -42.66
L674.953 -42.66
L664.963 -42.66
L660.095 -42.66
L657.153 -42.66
L656.573 -42.66
L655.551 -42.66
L653.647 -42.66
L652.851 -42.66
L649.45 -42.66
L647.855 -42.66
L646.116 -42.66
L645.367 -42.66
L635.617 -42.66
L634.951 -42.66
L634.623 -42.66
L634.01 -42.66
L633.005 -42.66
L628.775 -42.66
L626.764 -42.66
L626.059 -42.66
L625.018 -42.66
L621.656 -42.66
L621.158 -42.66
L618.814 -42.66
L613.689 -42.66
L613.336 -42.66
L611.887 -42.66
L611.453 -42.66
L600.987 -42.66
L600.621 -42.66
L598.782 -42.66
L594.847 -42.66
L590.401 -42.66
L589.866 -42.66
L587.919 -42.66
L586.821 -42.66
L586.591 -42.66
L586.367 -42.66
L577.969 -42.66
L577.709 -42.66
L577.07 -42.66
L576.488 -42.66
L573.985 -42.66
L573.146 -42.66
L572.231 -42.66
L568.684 -42.66
L567.637 -42.66
L564.881 -42.66
L563.417 -42.66
L562.313 -42.66
L561.128 -42.66
L559.604 -42.66
L558.067 -42.66
L557.246 -42.66
L556.923 -42.66
L556.467 -42.66
L550.445 -42.66
L549.509 -42.66
L547.439 -42.66
L546.814 -42.66
L542.282 -42.66
L541.535 -42.66
L536.334 -42.66
L535.989 -42.66
L535.185 -42.66
L534.794 -42.66
L522.2 -42.66
L521.815 -42.66
L521.487 -42.66
L521.166 -42.66
L519.645 -42.66
L518.874 -42.66
L518.006 -42.66
L516.646 -42.66
L516.154 -42.66
L510.67 -42.66
L506.72 -42.66
L497.148 -42.66
L493.064 -42.66
L490.457 -42.66
L488.167 -42.66
L485.621 -42.66
L484.265 -42.66
L463.468 -42.66
L460.711 -42.66
L458.382 -42.66
L457.83 -42.66
L454.927 -42.66
L454.03 -42.66
L453.112 -42.66
L444.105 -42.66
L440.41 -42.66
L436.359 -42.66
L432.738 -42.66
L428.892 -42.66
L428.126 -42.66
L427.577 -42.66
L426.698 -42.66
L426.151 -42.66
L424.929 -42.66
L424.176 -42.66
L423.418 -42.66
L421.878 -42.66
L421.25 -42.66
L420.469 -42.66
L419.621 -42.66
L417.804 -42.66
L416.473 -42.66
L408.36 -42.66
L407.03 -42.66
L404.901 -42.66
L404.232 -42.66
L392.739 -42.66
L390.796 -42.66
L387.795 -42.66
L387.335 -42.66
L386.638 -42.66
L381.862 -42.66
L374.585 -42.66
L364.512 -42.66
L358.012 -42.66
L357.277 -42.66
L355.843 -42.66
L354.845 -42.66
L353.902 -42.66
L353.107 -42.66
L352.533 -42.66
L351.733 -42.66
L348.843 -42.66
L344.532 -42.66
L342.86 -42.66
L340.872 -42.66
L339.528 -42.66
L338.424 -42.66
L331.962 -42.66
L327.257 -42.66
L325.361 -42.66
L323.231 -42.66
L318.081 -42.66
L310.487 -42.66
L306.409 -42.66
L304.856 -42.66
L303.616 -42.66
L302.683 -42.66
L302.059 -42.66
L300.544 -42.66
L300.113 -42.66
L299.653 -42.66
L293.549 -42.66
L292.09 -42.66
L291.218 -42.66
L290.559 -42.66
L288.674 -42.66
L288.282 -42.66
L287.103 -42.66
L286.371 -42.66
L284.481 -42.66
L283.571 -42.66
L280.865 -42.66
L279.53 -42.66
L278.28 -42.66
L276.901 -42.66
L274.432 -42.66
L272.213 -42.66
L269.61 -42.66
L263.294 -42.66
L262.226 -42.66
L261.231 -42.66
L252.372 -42.66
L238.65 -42.66
L235.934 -42.66
L232.706 -42.66
L223.254 -42.66
L221.871 -42.66
L221.692 -42.66
L210.414 -42.66
L206.836 -42.66
L204.159 -42.66
L203.503 -42.66
L203.064 -42.66
L200.159 -42.66
L199.868 -42.66
L197.581 -42.66
L196.819 -42.66
L195.913 -42.66
L194.05 -42.66
L191.89 -42.66
L191.122 -42.66
L188.965 -42.66
L186.361 -42.66
L182.06 -42.66
L181.782 -42.66
L178.404 -42.66
L177.557 -42.66
L175.712 -42.66
L174.226 -42.66
L173.483 -42.66
L171.684 -42.66
L168.259 -42.66
L164.792 -42.66
L163 -42.66
L161.82 -42.66
L146.994 -42.66
L146.113 -42.66
L141.025 -42.66
L137.28 -42.66
L136.267 -42.66
L135.288 -42.66
L132.901 -42.66
L130.9 -42.66
L128.436 -42.66
L123.188 -42.66
L122.614 -42.66
L122.03 -42.66
L119.52 -42.66
L116.311 -42.66
L114.869 -42.66
L113.288 -42.66
L111.481 -42.66
L108.537 -42.66
L107.87 -42.66
L106.007 -42.66
L103.686 -42.66
L102.482 -42.66
L101.7 -42.66
L99.6831 -42.66
L99.0188 -42.66
L87.8252 -42.66
L87.1549 -42.66
L86.2233 -42.66
L83.8948 -42.66
L82.1199 -42.66
L80.618 -42.66
L79.5138 -42.66
L78.2631 -42.66
L77.3512 -42.66
L71.7612 -42.66
L70.8153 -42.66
L69.147 -42.66
L67.5228 -42.66
L66.8986 -42.66
L66.3762 -42.66
L65.1151 -42.66
L61.102 -42.66
L60.0638 -42.66
L59.136 -42.66
L57.8165 -42.66
L57.214 -42.66
L55.8832 -42.66
L55.3779 -42.66
L54.8865 -42.66
z
" id="C5_0_28a0754c6b"/>
    </defs>
    <g clip-path="url(#pa8176fee34)">
     <use style="fill:#0000ff;opacity:0.05;stroke:#0000ff;stroke-linecap:butt;" x="0" xlink:href="#C5_0_28a0754c6b" y="144.0"/>
    </g>
   </g>
   <g id="line2d_1">
    <path clip-path="url(#pa8176fee34)" d="
M54.8865 71.1246
L55.3779 71.1246
L55.8832 70.4379
L57.214 69.7512
L59.136 67.691
L60.0638 66.3176
L61.102 67.691
L65.1151 71.8113
L66.3762 72.498
L67.5228 72.498
L69.147 73.1848
L70.8153 73.1848
L71.7612 73.8715
L77.3512 74.5582
L80.618 74.5582
L82.1199 73.8715
L83.8948 72.498
L87.8252 69.0645
L99.0188 56.7036
L99.6831 55.3302
L101.7 51.8966
L102.482 49.8365
L106.007 38.1624
L107.87 35.4155
L108.537 34.0421
L111.481 31.982
L113.288 32.6687
L114.869 32.6687
L116.311 33.3554
L119.52 34.7288
L122.03 34.7288
L122.614 35.4155
L123.188 35.4155
L128.436 38.1624
L130.9 38.8491
L132.901 36.1022
L135.288 34.0421
L137.28 38.1624
L141.025 37.4757
L146.113 32.6687
L146.994 33.3554
L161.82 33.3554
L163 34.0421
L164.792 34.7288
L171.684 29.2351
L173.483 29.2351
L174.226 28.5484
L175.712 30.6085
L177.557 32.6687
L178.404 31.982
L181.782 26.4883
L182.06 26.4883
L186.361 25.1148
L188.965 25.8015
L191.122 27.8617
L194.05 25.1148
L196.819 20.9945
L200.159 27.175
L203.503 27.175
L204.159 26.4883
L206.836 24.4281
L210.414 29.9218
L221.692 47.7764
L221.871 47.7764
L223.254 47.0897
L235.934 38.8491
L238.65 36.789
L252.372 37.4757
L261.231 34.0421
L263.294 34.0421
L269.61 33.3554
L272.213 32.6687
L274.432 34.0421
L276.901 36.1022
L279.53 34.7288
L280.865 34.7288
L283.571 34.0421
L284.481 35.4155
L286.371 36.789
L287.103 37.4757
L288.282 38.1624
L288.674 38.1624
L291.218 43.6561
L292.09 44.3428
L293.549 45.0295
L299.653 42.2827
L300.113 43.6561
L300.544 44.3428
L302.059 47.0897
L302.683 47.7764
L310.487 47.7764
L318.081 46.4029
L323.231 48.4631
L325.361 52.5834
L327.257 54.6435
L331.962 57.3903
L338.424 57.3903
L339.528 58.0771
L340.872 58.7638
L342.86 59.4505
L344.532 61.5106
L348.843 65.6309
L351.733 64.9442
L355.843 64.9442
L357.277 63.5708
L358.012 61.5106
L364.512 38.1624
L374.585 27.175
L381.862 21.6813
L386.638 31.982
L387.335 34.0421
L387.795 34.7288
L390.796 40.2225
L392.739 45.0295
L404.232 57.3903
L404.901 57.3903
L407.03 55.3302
L408.36 56.0169
L416.473 57.3903
L417.804 58.7638
L419.621 60.1372
L421.25 62.8841
L421.878 63.5708
L423.418 67.0043
L424.176 68.3778
L424.929 67.691
L426.151 64.9442
L426.698 65.6309
L428.126 65.6309
L428.892 64.9442
L432.738 60.1372
L436.359 56.0169
L440.41 58.7638
L444.105 62.8841
L453.112 58.0771
L454.03 57.3903
L454.927 56.0169
L457.83 55.3302
L458.382 56.0169
L460.711 57.3903
L463.468 61.5106
L485.621 62.1973
L488.167 62.1973
L490.457 63.5708
L493.064 62.8841
L497.148 64.2575
L506.72 67.691
L510.67 65.6309
L516.646 66.3176
L518.874 66.3176
L519.645 64.9442
L521.166 61.5106
L522.2 63.5708
L534.794 62.8841
L535.185 63.5708
L535.989 64.2575
L536.334 64.2575
L541.535 67.691
L542.282 67.0043
L546.814 61.5106
L547.439 61.5106
L549.509 58.7638
L550.445 58.7638
L556.467 54.6435
L563.417 54.6435
L564.881 55.3302
L567.637 55.3302
L568.684 56.0169
L572.231 58.0771
L573.985 60.8239
L576.488 63.5708
L577.07 63.5708
L577.709 62.8841
L577.969 62.8841
L586.367 55.3302
L589.866 55.3302
L590.401 56.7036
L594.847 62.1973
L598.782 71.8113
L600.621 75.2449
L600.987 75.2449
L611.453 66.3176
L613.689 66.3176
L618.814 70.4379
L621.158 73.8715
L628.775 73.8715
L633.005 61.5106
L634.01 60.8239
L634.623 60.1372
L634.951 60.1372
L635.617 58.7638
L645.367 77.305
L647.855 77.305
L649.45 79.3652
L652.851 82.112
L655.551 82.112
L656.573 81.4253
L657.153 80.7386
L660.095 76.6183
L664.963 75.2449
L674.953 80.7386
L691.965 71.1246
L694.428 73.8715
L695.18 73.8715
L696.73 73.1848
L698.677 72.498
L700.549 72.498
L707.04 71.1246
L707.04 71.1246" style="fill:none;stroke:#0000ff;stroke-width:2;"/>
   </g>
   <g id="matplotlib.axis_1">
    <g id="xtick_1">
     <g id="line2d_2">
      <defs>
       <path d="
M0 0
L0 -4" id="mcb557df647" style="stroke:#000000;stroke-linecap:butt;stroke-width:0.5;"/>
      </defs>
      <g>
       <use style="stroke:#000000;stroke-linecap:butt;stroke-width:0.5;" x="54.4303125" xlink:href="#mcb557df647" y="101.34"/>
      </g>
     </g>
     <g id="line2d_3">
      <defs>
       <path d="
M0 0
L0 4" id="mdad270ee8e" style="stroke:#000000;stroke-linecap:butt;stroke-width:0.5;"/>
      </defs>
      <g>
       <use style="stroke:#000000;stroke-linecap:butt;stroke-width:0.5;" x="54.4303125" xlink:href="#mdad270ee8e" y="12.96"/>
      </g>
     </g>
     <g id="text_1">
      <!-- 0 -->
      <defs>
       <path d="
M31.7812 66.4062
Q24.1719 66.4062 20.3281 58.9062
Q16.5 51.4219 16.5 36.375
Q16.5 21.3906 20.3281 13.8906
Q24.1719 6.39062 31.7812 6.39062
Q39.4531 6.39062 43.2812 13.8906
Q47.125 21.3906 47.125 36.375
Q47.125 51.4219 43.2812 58.9062
Q39.4531 66.4062 31.7812 66.4062
M31.7812 74.2188
Q44.0469 74.2188 50.5156 64.5156
Q56.9844 54.8281 56.9844 36.375
Q56.9844 17.9688 50.5156 8.26562
Q44.0469 -1.42188 31.7812 -1.42188
Q19.5312 -1.42188 13.0625 8.26562
Q6.59375 17.9688 6.59375 36.375
Q6.59375 54.8281 13.0625 64.5156
Q19.5312 74.2188 31.7812 74.2188" id="BitstreamVeraSans-Roman-30"/>
      </defs>
      <g transform="translate(51.406875 114.24625)scale(0.12 -0.12)">
       <use xlink:href="#BitstreamVeraSans-Roman-30"/>
      </g>
     </g>
    </g>
    <g id="xtick_2">
     <g id="line2d_4">
      <g>
       <use style="stroke:#000000;stroke-linecap:butt;stroke-width:0.5;" x="150.987391196" xlink:href="#mcb557df647" y="101.34"/>
      </g>
     </g>
     <g id="line2d_5">
      <g>
       <use style="stroke:#000000;stroke-linecap:butt;stroke-width:0.5;" x="150.987391196" xlink:href="#mdad270ee8e" y="12.96"/>
      </g>
     </g>
     <g id="text_2">
      <!-- 5 -->
      <defs>
       <path d="
M10.7969 72.9062
L49.5156 72.9062
L49.5156 64.5938
L19.8281 64.5938
L19.8281 46.7344
Q21.9688 47.4688 24.1094 47.8281
Q26.2656 48.1875 28.4219 48.1875
Q40.625 48.1875 47.75 41.5
Q54.8906 34.8125 54.8906 23.3906
Q54.8906 11.625 47.5625 5.09375
Q40.2344 -1.42188 26.9062 -1.42188
Q22.3125 -1.42188 17.5469 -0.640625
Q12.7969 0.140625 7.71875 1.70312
L7.71875 11.625
Q12.1094 9.23438 16.7969 8.0625
Q21.4844 6.89062 26.7031 6.89062
Q35.1562 6.89062 40.0781 11.3281
Q45.0156 15.7656 45.0156 23.3906
Q45.0156 31 40.0781 35.4375
Q35.1562 39.8906 26.7031 39.8906
Q22.75 39.8906 18.8125 39.0156
Q14.8906 38.1406 10.7969 36.2812
z
" id="BitstreamVeraSans-Roman-35"/>
      </defs>
      <g transform="translate(148.157078696 114.08875)scale(0.12 -0.12)">
       <use xlink:href="#BitstreamVeraSans-Roman-35"/>
      </g>
     </g>
    </g>
    <g id="xtick_3">
     <g id="line2d_6">
      <g>
       <use style="stroke:#000000;stroke-linecap:butt;stroke-width:0.5;" x="247.544469893" xlink:href="#mcb557df647" y="101.34"/>
      </g>
     </g>
     <g id="line2d_7">
      <g>
       <use style="stroke:#000000;stroke-linecap:butt;stroke-width:0.5;" x="247.544469893" xlink:href="#mdad270ee8e" y="12.96"/>
      </g>
     </g>
     <g id="text_3">
      <!-- 10 -->
      <defs>
       <path d="
M12.4062 8.29688
L28.5156 8.29688
L28.5156 63.9219
L10.9844 60.4062
L10.9844 69.3906
L28.4219 72.9062
L38.2812 72.9062
L38.2812 8.29688
L54.3906 8.29688
L54.3906 0
L12.4062 0
z
" id="BitstreamVeraSans-Roman-31"/>
      </defs>
      <g transform="translate(240.966969893 114.24625)scale(0.12 -0.12)">
       <use xlink:href="#BitstreamVeraSans-Roman-31"/>
       <use x="63.623046875" xlink:href="#BitstreamVeraSans-Roman-30"/>
      </g>
     </g>
    </g>
    <g id="xtick_4">
     <g id="line2d_8">
      <g>
       <use style="stroke:#000000;stroke-linecap:butt;stroke-width:0.5;" x="344.101548589" xlink:href="#mcb557df647" y="101.34"/>
      </g>
     </g>
     <g id="line2d_9">
      <g>
       <use style="stroke:#000000;stroke-linecap:butt;stroke-width:0.5;" x="344.101548589" xlink:href="#mdad270ee8e" y="12.96"/>
      </g>
     </g>
     <g id="text_4">
      <!-- 15 -->
      <g transform="translate(337.649673589 114.08875)scale(0.12 -0.12)">
       <use xlink:href="#BitstreamVeraSans-Roman-31"/>
       <use x="63.623046875" xlink:href="#BitstreamVeraSans-Roman-35"/>
      </g>
     </g>
    </g>
    <g id="xtick_5">
     <g id="line2d_10">
      <g>
       <use style="stroke:#000000;stroke-linecap:butt;stroke-width:0.5;" x="440.658627286" xlink:href="#mcb557df647" y="101.34"/>
      </g>
     </g>
     <g id="line2d_11">
      <g>
       <use style="stroke:#000000;stroke-linecap:butt;stroke-width:0.5;" x="440.658627286" xlink:href="#mdad270ee8e" y="12.96"/>
      </g>
     </g>
     <g id="text_5">
      <!-- 20 -->
      <defs>
       <path d="
M19.1875 8.29688
L53.6094 8.29688
L53.6094 0
L7.32812 0
L7.32812 8.29688
Q12.9375 14.1094 22.625 23.8906
Q32.3281 33.6875 34.8125 36.5312
Q39.5469 41.8438 41.4219 45.5312
Q43.3125 49.2188 43.3125 52.7812
Q43.3125 58.5938 39.2344 62.25
Q35.1562 65.9219 28.6094 65.9219
Q23.9688 65.9219 18.8125 64.3125
Q13.6719 62.7031 7.8125 59.4219
L7.8125 69.3906
Q13.7656 71.7812 18.9375 73
Q24.125 74.2188 28.4219 74.2188
Q39.75 74.2188 46.4844 68.5469
Q53.2188 62.8906 53.2188 53.4219
Q53.2188 48.9219 51.5312 44.8906
Q49.8594 40.875 45.4062 35.4062
Q44.1875 33.9844 37.6406 27.2188
Q31.1094 20.4531 19.1875 8.29688" id="BitstreamVeraSans-Roman-32"/>
      </defs>
      <g transform="translate(433.861752286 114.24625)scale(0.12 -0.12)">
       <use xlink:href="#BitstreamVeraSans-Roman-32"/>
       <use x="63.623046875" xlink:href="#BitstreamVeraSans-Roman-30"/>
      </g>
     </g>
    </g>
    <g id="xtick_6">
     <g id="line2d_12">
      <g>
       <use style="stroke:#000000;stroke-linecap:butt;stroke-width:0.5;" x="537.215705982" xlink:href="#mcb557df647" y="101.34"/>
      </g>
     </g>
     <g id="line2d_13">
      <g>
       <use style="stroke:#000000;stroke-linecap:butt;stroke-width:0.5;" x="537.215705982" xlink:href="#mdad270ee8e" y="12.96"/>
      </g>
     </g>
     <g id="text_6">
      <!-- 25 -->
      <g transform="translate(530.544455982 114.24625)scale(0.12 -0.12)">
       <use xlink:href="#BitstreamVeraSans-Roman-32"/>
       <use x="63.623046875" xlink:href="#BitstreamVeraSans-Roman-35"/>
      </g>
     </g>
    </g>
    <g id="xtick_7">
     <g id="line2d_14">
      <g>
       <use style="stroke:#000000;stroke-linecap:butt;stroke-width:0.5;" x="633.772784678" xlink:href="#mcb557df647" y="101.34"/>
      </g>
     </g>
     <g id="line2d_15">
      <g>
       <use style="stroke:#000000;stroke-linecap:butt;stroke-width:0.5;" x="633.772784678" xlink:href="#mdad270ee8e" y="12.96"/>
      </g>
     </g>
     <g id="text_7">
      <!-- 30 -->
      <defs>
       <path d="
M40.5781 39.3125
Q47.6562 37.7969 51.625 33
Q55.6094 28.2188 55.6094 21.1875
Q55.6094 10.4062 48.1875 4.48438
Q40.7656 -1.42188 27.0938 -1.42188
Q22.5156 -1.42188 17.6562 -0.515625
Q12.7969 0.390625 7.625 2.20312
L7.625 11.7188
Q11.7188 9.32812 16.5938 8.10938
Q21.4844 6.89062 26.8125 6.89062
Q36.0781 6.89062 40.9375 10.5469
Q45.7969 14.2031 45.7969 21.1875
Q45.7969 27.6406 41.2812 31.2656
Q36.7656 34.9062 28.7188 34.9062
L20.2188 34.9062
L20.2188 43.0156
L29.1094 43.0156
Q36.375 43.0156 40.2344 45.9219
Q44.0938 48.8281 44.0938 54.2969
Q44.0938 59.9062 40.1094 62.9062
Q36.1406 65.9219 28.7188 65.9219
Q24.6562 65.9219 20.0156 65.0312
Q15.375 64.1562 9.8125 62.3125
L9.8125 71.0938
Q15.4375 72.6562 20.3438 73.4375
Q25.25 74.2188 29.5938 74.2188
Q40.8281 74.2188 47.3594 69.1094
Q53.9062 64.0156 53.9062 55.3281
Q53.9062 49.2656 50.4375 45.0938
Q46.9688 40.9219 40.5781 39.3125" id="BitstreamVeraSans-Roman-33"/>
      </defs>
      <g transform="translate(626.993722178 114.24625)scale(0.12 -0.12)">
       <use xlink:href="#BitstreamVeraSans-Roman-33"/>
       <use x="63.623046875" xlink:href="#BitstreamVeraSans-Roman-30"/>
      </g>
     </g>
    </g>
    <g id="text_8">
     <!-- Distance, km -->
     <defs>
      <path id="BitstreamVeraSans-Roman-20"/>
      <path d="
M54.8906 33.0156
L54.8906 0
L45.9062 0
L45.9062 32.7188
Q45.9062 40.4844 42.875 44.3281
Q39.8438 48.1875 33.7969 48.1875
Q26.5156 48.1875 22.3125 43.5469
Q18.1094 38.9219 18.1094 30.9062
L18.1094 0
L9.07812 0
L9.07812 54.6875
L18.1094 54.6875
L18.1094 46.1875
Q21.3438 51.125 25.7031 53.5625
Q30.0781 56 35.7969 56
Q45.2188 56 50.0469 50.1719
Q54.8906 44.3438 54.8906 33.0156" id="BitstreamVeraSans-Roman-6e"/>
      <path d="
M52 44.1875
Q55.375 50.25 60.0625 53.125
Q64.75 56 71.0938 56
Q79.6406 56 84.2812 50.0156
Q88.9219 44.0469 88.9219 33.0156
L88.9219 0
L79.8906 0
L79.8906 32.7188
Q79.8906 40.5781 77.0938 44.375
Q74.3125 48.1875 68.6094 48.1875
Q61.625 48.1875 57.5625 43.5469
Q53.5156 38.9219 53.5156 30.9062
L53.5156 0
L44.4844 0
L44.4844 32.7188
Q44.4844 40.625 41.7031 44.4062
Q38.9219 48.1875 33.1094 48.1875
Q26.2188 48.1875 22.1562 43.5312
Q18.1094 38.875 18.1094 30.9062
L18.1094 0
L9.07812 0
L9.07812 54.6875
L18.1094 54.6875
L18.1094 46.1875
Q21.1875 51.2188 25.4844 53.6094
Q29.7812 56 35.6875 56
Q41.6562 56 45.8281 52.9688
Q50 49.9531 52 44.1875" id="BitstreamVeraSans-Roman-6d"/>
      <path d="
M9.07812 75.9844
L18.1094 75.9844
L18.1094 31.1094
L44.9219 54.6875
L56.3906 54.6875
L27.3906 29.1094
L57.625 0
L45.9062 0
L18.1094 26.7031
L18.1094 0
L9.07812 0
z
" id="BitstreamVeraSans-Roman-6b"/>
      <path d="
M11.7188 12.4062
L22.0156 12.4062
L22.0156 4
L14.0156 -11.625
L7.71875 -11.625
L11.7188 4
z
" id="BitstreamVeraSans-Roman-2c"/>
      <path d="
M19.6719 64.7969
L19.6719 8.10938
L31.5938 8.10938
Q46.6875 8.10938 53.6875 14.9375
Q60.6875 21.7812 60.6875 36.5312
Q60.6875 51.1719 53.6875 57.9844
Q46.6875 64.7969 31.5938 64.7969
z

M9.8125 72.9062
L30.0781 72.9062
Q51.2656 72.9062 61.1719 64.0938
Q71.0938 55.2812 71.0938 36.5312
Q71.0938 17.6719 61.125 8.82812
Q51.1719 0 30.0781 0
L9.8125 0
z
" id="BitstreamVeraSans-Roman-44"/>
      <path d="
M9.42188 54.6875
L18.4062 54.6875
L18.4062 0
L9.42188 0
z

M9.42188 75.9844
L18.4062 75.9844
L18.4062 64.5938
L9.42188 64.5938
z
" id="BitstreamVeraSans-Roman-69"/>
      <path d="
M56.2031 29.5938
L56.2031 25.2031
L14.8906 25.2031
Q15.4844 15.9219 20.4844 11.0625
Q25.4844 6.20312 34.4219 6.20312
Q39.5938 6.20312 44.4531 7.46875
Q49.3125 8.73438 54.1094 11.2812
L54.1094 2.78125
Q49.2656 0.734375 44.1875 -0.34375
Q39.1094 -1.42188 33.8906 -1.42188
Q20.7969 -1.42188 13.1562 6.1875
Q5.51562 13.8125 5.51562 26.8125
Q5.51562 40.2344 12.7656 48.1094
Q20.0156 56 32.3281 56
Q43.3594 56 49.7812 48.8906
Q56.2031 41.7969 56.2031 29.5938
M47.2188 32.2344
Q47.125 39.5938 43.0938 43.9844
Q39.0625 48.3906 32.4219 48.3906
Q24.9062 48.3906 20.3906 44.1406
Q15.875 39.8906 15.1875 32.1719
z
" id="BitstreamVeraSans-Roman-65"/>
      <path d="
M18.3125 70.2188
L18.3125 54.6875
L36.8125 54.6875
L36.8125 47.7031
L18.3125 47.7031
L18.3125 18.0156
Q18.3125 11.3281 20.1406 9.42188
Q21.9688 7.51562 27.5938 7.51562
L36.8125 7.51562
L36.8125 0
L27.5938 0
Q17.1875 0 13.2344 3.875
Q9.28125 7.76562 9.28125 18.0156
L9.28125 47.7031
L2.6875 47.7031
L2.6875 54.6875
L9.28125 54.6875
L9.28125 70.2188
z
" id="BitstreamVeraSans-Roman-74"/>
      <path d="
M34.2812 27.4844
Q23.3906 27.4844 19.1875 25
Q14.9844 22.5156 14.9844 16.5
Q14.9844 11.7188 18.1406 8.90625
Q21.2969 6.10938 26.7031 6.10938
Q34.1875 6.10938 38.7031 11.4062
Q43.2188 16.7031 43.2188 25.4844
L43.2188 27.4844
z

M52.2031 31.2031
L52.2031 0
L43.2188 0
L43.2188 8.29688
Q40.1406 3.32812 35.5469 0.953125
Q30.9531 -1.42188 24.3125 -1.42188
Q15.9219 -1.42188 10.9531 3.29688
Q6 8.01562 6 15.9219
Q6 25.1406 12.1719 29.8281
Q18.3594 34.5156 30.6094 34.5156
L43.2188 34.5156
L43.2188 35.4062
Q43.2188 41.6094 39.1406 45
Q35.0625 48.3906 27.6875 48.3906
Q23 48.3906 18.5469 47.2656
Q14.1094 46.1406 10.0156 43.8906
L10.0156 52.2031
Q14.9375 54.1094 19.5781 55.0469
Q24.2188 56 28.6094 56
Q40.4844 56 46.3438 49.8438
Q52.2031 43.7031 52.2031 31.2031" id="BitstreamVeraSans-Roman-61"/>
      <path d="
M44.2812 53.0781
L44.2812 44.5781
Q40.4844 46.5312 36.375 47.5
Q32.2812 48.4844 27.875 48.4844
Q21.1875 48.4844 17.8438 46.4375
Q14.5 44.3906 14.5 40.2812
Q14.5 37.1562 16.8906 35.375
Q19.2812 33.5938 26.5156 31.9844
L29.5938 31.2969
Q39.1562 29.25 43.1875 25.5156
Q47.2188 21.7812 47.2188 15.0938
Q47.2188 7.46875 41.1875 3.01562
Q35.1562 -1.42188 24.6094 -1.42188
Q20.2188 -1.42188 15.4531 -0.5625
Q10.6875 0.296875 5.42188 2
L5.42188 11.2812
Q10.4062 8.6875 15.2344 7.39062
Q20.0625 6.10938 24.8125 6.10938
Q31.1562 6.10938 34.5625 8.28125
Q37.9844 10.4531 37.9844 14.4062
Q37.9844 18.0625 35.5156 20.0156
Q33.0625 21.9688 24.7031 23.7812
L21.5781 24.5156
Q13.2344 26.2656 9.51562 29.9062
Q5.8125 33.5469 5.8125 39.8906
Q5.8125 47.6094 11.2812 51.7969
Q16.75 56 26.8125 56
Q31.7812 56 36.1719 55.2656
Q40.5781 54.5469 44.2812 53.0781" id="BitstreamVeraSans-Roman-73"/>
      <path d="
M48.7812 52.5938
L48.7812 44.1875
Q44.9688 46.2969 41.1406 47.3438
Q37.3125 48.3906 33.4062 48.3906
Q24.6562 48.3906 19.8125 42.8438
Q14.9844 37.3125 14.9844 27.2969
Q14.9844 17.2812 19.8125 11.7344
Q24.6562 6.20312 33.4062 6.20312
Q37.3125 6.20312 41.1406 7.25
Q44.9688 8.29688 48.7812 10.4062
L48.7812 2.09375
Q45.0156 0.34375 40.9844 -0.53125
Q36.9688 -1.42188 32.4219 -1.42188
Q20.0625 -1.42188 12.7812 6.34375
Q5.51562 14.1094 5.51562 27.2969
Q5.51562 40.6719 12.8594 48.3281
Q20.2188 56 33.0156 56
Q37.1562 56 41.1094 55.1406
Q45.0625 54.2969 48.7812 52.5938" id="BitstreamVeraSans-Roman-63"/>
     </defs>
     <g transform="translate(341.87671875 128.535)scale(0.12 -0.12)">
      <use xlink:href="#BitstreamVeraSans-Roman-44"/>
      <use x="77.001953125" xlink:href="#BitstreamVeraSans-Roman-69"/>
      <use x="104.78515625" xlink:href="#BitstreamVeraSans-Roman-73"/>
      <use x="156.884765625" xlink:href="#BitstreamVeraSans-Roman-74"/>
      <use x="196.09375" xlink:href="#BitstreamVeraSans-Roman-61"/>
      <use x="257.373046875" xlink:href="#BitstreamVeraSans-Roman-6e"/>
      <use x="320.751953125" xlink:href="#BitstreamVeraSans-Roman-63"/>
      <use x="375.732421875" xlink:href="#BitstreamVeraSans-Roman-65"/>
      <use x="437.255859375" xlink:href="#BitstreamVeraSans-Roman-2c"/>
      <use x="469.04296875" xlink:href="#BitstreamVeraSans-Roman-20"/>
      <use x="500.830078125" xlink:href="#BitstreamVeraSans-Roman-6b"/>
      <use x="558.740234375" xlink:href="#BitstreamVeraSans-Roman-6d"/>
     </g>
    </g>
   </g>
   <g id="matplotlib.axis_2">
    <g id="ytick_1">
     <g id="line2d_16">
      <defs>
       <path d="
M0 0
L4 0" id="mc8fcea1516" style="stroke:#000000;stroke-linecap:butt;stroke-width:0.5;"/>
      </defs>
      <g>
       <use style="stroke:#000000;stroke-linecap:butt;stroke-width:0.5;" x="54.4303125" xlink:href="#mc8fcea1516" y="101.34"/>
      </g>
     </g>
     <g id="line2d_17">
      <defs>
       <path d="
M0 0
L-4 0" id="m0d5b0a6425" style="stroke:#000000;stroke-linecap:butt;stroke-width:0.5;"/>
      </defs>
      <g>
       <use style="stroke:#000000;stroke-linecap:butt;stroke-width:0.5;" x="707.04" xlink:href="#m0d5b0a6425" y="101.34"/>
      </g>
     </g>
     <g id="text_9">
      <!-- 0 -->
      <g transform="translate(44.3834375 105.7078125)scale(0.12 -0.12)">
       <use xlink:href="#BitstreamVeraSans-Roman-30"/>
      </g>
     </g>
    </g>
    <g id="ytick_2">
     <g id="line2d_18">
      <g>
       <use style="stroke:#000000;stroke-linecap:butt;stroke-width:0.5;" x="54.4303125" xlink:href="#mc8fcea1516" y="87.6057342657"/>
      </g>
     </g>
     <g id="line2d_19">
      <g>
       <use style="stroke:#000000;stroke-linecap:butt;stroke-width:0.5;" x="707.04" xlink:href="#m0d5b0a6425" y="87.6057342657"/>
      </g>
     </g>
     <g id="text_10">
      <!-- 20 -->
      <g transform="translate(36.8365625 91.9735467657)scale(0.12 -0.12)">
       <use xlink:href="#BitstreamVeraSans-Roman-32"/>
       <use x="63.623046875" xlink:href="#BitstreamVeraSans-Roman-30"/>
      </g>
     </g>
    </g>
    <g id="ytick_3">
     <g id="line2d_20">
      <g>
       <use style="stroke:#000000;stroke-linecap:butt;stroke-width:0.5;" x="54.4303125" xlink:href="#mc8fcea1516" y="73.8714685315"/>
      </g>
     </g>
     <g id="line2d_21">
      <g>
       <use style="stroke:#000000;stroke-linecap:butt;stroke-width:0.5;" x="707.04" xlink:href="#m0d5b0a6425" y="73.8714685315"/>
      </g>
     </g>
     <g id="text_11">
      <!-- 40 -->
      <defs>
       <path d="
M37.7969 64.3125
L12.8906 25.3906
L37.7969 25.3906
z

M35.2031 72.9062
L47.6094 72.9062
L47.6094 25.3906
L58.0156 25.3906
L58.0156 17.1875
L47.6094 17.1875
L47.6094 0
L37.7969 0
L37.7969 17.1875
L4.89062 17.1875
L4.89062 26.7031
z
" id="BitstreamVeraSans-Roman-34"/>
      </defs>
      <g transform="translate(36.5440625 78.2392810315)scale(0.12 -0.12)">
       <use xlink:href="#BitstreamVeraSans-Roman-34"/>
       <use x="63.623046875" xlink:href="#BitstreamVeraSans-Roman-30"/>
      </g>
     </g>
    </g>
    <g id="ytick_4">
     <g id="line2d_22">
      <g>
       <use style="stroke:#000000;stroke-linecap:butt;stroke-width:0.5;" x="54.4303125" xlink:href="#mc8fcea1516" y="60.1372027972"/>
      </g>
     </g>
     <g id="line2d_23">
      <g>
       <use style="stroke:#000000;stroke-linecap:butt;stroke-width:0.5;" x="707.04" xlink:href="#m0d5b0a6425" y="60.1372027972"/>
      </g>
     </g>
     <g id="text_12">
      <!-- 60 -->
      <defs>
       <path d="
M33.0156 40.375
Q26.375 40.375 22.4844 35.8281
Q18.6094 31.2969 18.6094 23.3906
Q18.6094 15.5312 22.4844 10.9531
Q26.375 6.39062 33.0156 6.39062
Q39.6562 6.39062 43.5312 10.9531
Q47.4062 15.5312 47.4062 23.3906
Q47.4062 31.2969 43.5312 35.8281
Q39.6562 40.375 33.0156 40.375
M52.5938 71.2969
L52.5938 62.3125
Q48.875 64.0625 45.0938 64.9844
Q41.3125 65.9219 37.5938 65.9219
Q27.8281 65.9219 22.6719 59.3281
Q17.5312 52.7344 16.7969 39.4062
Q19.6719 43.6562 24.0156 45.9219
Q28.375 48.1875 33.5938 48.1875
Q44.5781 48.1875 50.9531 41.5156
Q57.3281 34.8594 57.3281 23.3906
Q57.3281 12.1562 50.6875 5.35938
Q44.0469 -1.42188 33.0156 -1.42188
Q20.3594 -1.42188 13.6719 8.26562
Q6.98438 17.9688 6.98438 36.375
Q6.98438 53.6562 15.1875 63.9375
Q23.3906 74.2188 37.2031 74.2188
Q40.9219 74.2188 44.7031 73.4844
Q48.4844 72.75 52.5938 71.2969" id="BitstreamVeraSans-Roman-36"/>
      </defs>
      <g transform="translate(36.7953125 64.5050152972)scale(0.12 -0.12)">
       <use xlink:href="#BitstreamVeraSans-Roman-36"/>
       <use x="63.623046875" xlink:href="#BitstreamVeraSans-Roman-30"/>
      </g>
     </g>
    </g>
    <g id="ytick_5">
     <g id="line2d_24">
      <g>
       <use style="stroke:#000000;stroke-linecap:butt;stroke-width:0.5;" x="54.4303125" xlink:href="#mc8fcea1516" y="46.4029370629"/>
      </g>
     </g>
     <g id="line2d_25">
      <g>
       <use style="stroke:#000000;stroke-linecap:butt;stroke-width:0.5;" x="707.04" xlink:href="#m0d5b0a6425" y="46.4029370629"/>
      </g>
     </g>
     <g id="text_13">
      <!-- 80 -->
      <defs>
       <path d="
M31.7812 34.625
Q24.75 34.625 20.7188 30.8594
Q16.7031 27.0938 16.7031 20.5156
Q16.7031 13.9219 20.7188 10.1562
Q24.75 6.39062 31.7812 6.39062
Q38.8125 6.39062 42.8594 10.1719
Q46.9219 13.9688 46.9219 20.5156
Q46.9219 27.0938 42.8906 30.8594
Q38.875 34.625 31.7812 34.625
M21.9219 38.8125
Q15.5781 40.375 12.0312 44.7188
Q8.5 49.0781 8.5 55.3281
Q8.5 64.0625 14.7188 69.1406
Q20.9531 74.2188 31.7812 74.2188
Q42.6719 74.2188 48.875 69.1406
Q55.0781 64.0625 55.0781 55.3281
Q55.0781 49.0781 51.5312 44.7188
Q48 40.375 41.7031 38.8125
Q48.8281 37.1562 52.7969 32.3125
Q56.7812 27.4844 56.7812 20.5156
Q56.7812 9.90625 50.3125 4.23438
Q43.8438 -1.42188 31.7812 -1.42188
Q19.7344 -1.42188 13.25 4.23438
Q6.78125 9.90625 6.78125 20.5156
Q6.78125 27.4844 10.7812 32.3125
Q14.7969 37.1562 21.9219 38.8125
M18.3125 54.3906
Q18.3125 48.7344 21.8438 45.5625
Q25.3906 42.3906 31.7812 42.3906
Q38.1406 42.3906 41.7188 45.5625
Q45.3125 48.7344 45.3125 54.3906
Q45.3125 60.0625 41.7188 63.2344
Q38.1406 66.4062 31.7812 66.4062
Q25.3906 66.4062 21.8438 63.2344
Q18.3125 60.0625 18.3125 54.3906" id="BitstreamVeraSans-Roman-38"/>
      </defs>
      <g transform="translate(36.7709375 50.7707495629)scale(0.12 -0.12)">
       <use xlink:href="#BitstreamVeraSans-Roman-38"/>
       <use x="63.623046875" xlink:href="#BitstreamVeraSans-Roman-30"/>
      </g>
     </g>
    </g>
    <g id="ytick_6">
     <g id="line2d_26">
      <g>
       <use style="stroke:#000000;stroke-linecap:butt;stroke-width:0.5;" x="54.4303125" xlink:href="#mc8fcea1516" y="32.6686713287"/>
      </g>
     </g>
     <g id="line2d_27">
      <g>
       <use style="stroke:#000000;stroke-linecap:butt;stroke-width:0.5;" x="707.04" xlink:href="#m0d5b0a6425" y="32.6686713287"/>
      </g>
     </g>
     <g id="text_14">
      <!-- 100 -->
      <g transform="translate(29.6403125 37.0364838287)scale(0.12 -0.12)">
       <use xlink:href="#BitstreamVeraSans-Roman-31"/>
       <use x="63.623046875" xlink:href="#BitstreamVeraSans-Roman-30"/>
       <use x="127.24609375" xlink:href="#BitstreamVeraSans-Roman-30"/>
      </g>
     </g>
    </g>
    <g id="ytick_7">
     <g id="line2d_28">
      <g>
       <use style="stroke:#000000;stroke-linecap:butt;stroke-width:0.5;" x="54.4303125" xlink:href="#mc8fcea1516" y="18.9344055944"/>
      </g>
     </g>
     <g id="line2d_29">
      <g>
       <use style="stroke:#000000;stroke-linecap:butt;stroke-width:0.5;" x="707.04" xlink:href="#m0d5b0a6425" y="18.9344055944"/>
      </g>
     </g>
     <g id="text_15">
      <!-- 120 -->
      <g transform="translate(29.6403125 23.3022180944)scale(0.12 -0.12)">
       <use xlink:href="#BitstreamVeraSans-Roman-31"/>
       <use x="63.623046875" xlink:href="#BitstreamVeraSans-Roman-32"/>
       <use x="127.24609375" xlink:href="#BitstreamVeraSans-Roman-30"/>
      </g>
     </g>
    </g>
    <g id="text_16">
     <!-- Elevation, m -->
     <defs>
      <path d="
M2.98438 54.6875
L12.5 54.6875
L29.5938 8.79688
L46.6875 54.6875
L56.2031 54.6875
L35.6875 0
L23.4844 0
z
" id="BitstreamVeraSans-Roman-76"/>
      <path d="
M9.8125 72.9062
L55.9062 72.9062
L55.9062 64.5938
L19.6719 64.5938
L19.6719 43.0156
L54.3906 43.0156
L54.3906 34.7188
L19.6719 34.7188
L19.6719 8.29688
L56.7812 8.29688
L56.7812 0
L9.8125 0
z
" id="BitstreamVeraSans-Roman-45"/>
      <path d="
M30.6094 48.3906
Q23.3906 48.3906 19.1875 42.75
Q14.9844 37.1094 14.9844 27.2969
Q14.9844 17.4844 19.1562 11.8438
Q23.3438 6.20312 30.6094 6.20312
Q37.7969 6.20312 41.9844 11.8594
Q46.1875 17.5312 46.1875 27.2969
Q46.1875 37.0156 41.9844 42.7031
Q37.7969 48.3906 30.6094 48.3906
M30.6094 56
Q42.3281 56 49.0156 48.375
Q55.7188 40.7656 55.7188 27.2969
Q55.7188 13.875 49.0156 6.21875
Q42.3281 -1.42188 30.6094 -1.42188
Q18.8438 -1.42188 12.1719 6.21875
Q5.51562 13.875 5.51562 27.2969
Q5.51562 40.7656 12.1719 48.375
Q18.8438 56 30.6094 56" id="BitstreamVeraSans-Roman-6f"/>
      <path d="
M9.42188 75.9844
L18.4062 75.9844
L18.4062 0
L9.42188 0
z
" id="BitstreamVeraSans-Roman-6c"/>
     </defs>
     <g transform="translate(24.6403125 92.775)rotate(-90.0)scale(0.12 -0.12)">
      <use xlink:href="#BitstreamVeraSans-Roman-45"/>
      <use x="63.18359375" xlink:href="#BitstreamVeraSans-Roman-6c"/>
      <use x="90.966796875" xlink:href="#BitstreamVeraSans-Roman-65"/>
      <use x="152.490234375" xlink:href="#BitstreamVeraSans-Roman-76"/>
      <use x="211.669921875" xlink:href="#BitstreamVeraSans-Roman-61"/>
      <use x="272.94921875" xlink:href="#BitstreamVeraSans-Roman-74"/>
      <use x="312.158203125" xlink:href="#BitstreamVeraSans-Roman-69"/>
      <use x="339.94140625" xlink:href="#BitstreamVeraSans-Roman-6f"/>
      <use x="401.123046875" xlink:href="#BitstreamVeraSans-Roman-6e"/>
      <use x="464.501953125" xlink:href="#BitstreamVeraSans-Roman-2c"/>
      <use x="496.2890625" xlink:href="#BitstreamVeraSans-Roman-20"/>
      <use x="528.076171875" xlink:href="#BitstreamVeraSans-Roman-6d"/>
     </g>
    </g>
   </g>
   <g id="patch_3">
    <path d="
M54.4303 12.96
L707.04 12.96" style="fill:none;stroke:#000000;"/>
   </g>
   <g id="patch_4">
    <path d="
M707.04 101.34
L707.04 12.96" style="fill:none;stroke:#000000;"/>
   </g>
   <g id="patch_5">
    <path d="
M54.4303 101.34
L707.04 101.34" style="fill:none;stroke:#000000;"/>
   </g>
   <g id="patch_6">
    <path d="
M54.4303 101.34
L54.4303 12.96" style="fill:none;stroke:#000000;"/>
   </g>
  </g>
 </g>
 <defs>
  <clipPath id="pa8176fee34">
   <rect height="88.38" width="652.6096875" x="54.4303125" y="12.96"/>
  </clipPath>
 </defs>
</svg>
