<?xml version="1.0" encoding="utf-8" standalone="no"?>
<!DOCTYPE svg PUBLIC "-//W3C//DTD SVG 1.1//EN"
  "http://www.w3.org/Graphics/SVG/1.1/DTD/svg11.dtd">
<!-- Created with matplotlib (http://matplotlib.org/) -->
<svg height="144pt" version="1.1" viewBox="0 0 720 144" width="720pt" xmlns="http://www.w3.org/2000/svg" xmlns:xlink="http://www.w3.org/1999/xlink">
 <defs>
  <style type="text/css">
*{stroke-linecap:butt;stroke-linejoin:round;}
  </style>
 </defs>
 <g id="figure_1">
  <g id="patch_1">
   <path d="
M0 144
L720 144
L720 0
L0 0
z
" style="fill:#ffffff;"/>
  </g>
  <g id="axes_1">
   <g id="patch_2">
    <path d="
M51.1234 101.135
L707.04 101.135
L707.04 12.96
L51.1234 12.96
z
" style="fill:#ffffff;"/>
   </g>
   <g id="PolyCollection_1">
    <defs>
     <path d="
M51.5819 -42.8648
L51.5819 -56.5672
L52.0758 -56.5672
L52.5836 -56.5672
L53.9211 -56.5672
L54.5267 -56.5672
L55.8529 -56.5672
L56.7854 -56.5672
L57.8289 -56.5672
L61.8623 -56.5672
L63.1298 -56.5672
L63.6548 -56.5672
L64.2823 -56.5672
L65.9146 -56.5672
L67.5914 -56.5672
L68.5421 -56.5672
L74.1604 -56.5672
L75.0769 -56.5672
L76.3339 -56.5672
L77.4437 -56.5672
L78.9533 -56.5672
L80.7372 -56.5672
L83.0775 -56.5672
L84.0138 -56.5672
L84.6875 -56.5672
L95.9378 -56.5672
L96.6055 -56.5672
L98.6327 -56.5672
L99.419 -56.5672
L100.629 -56.5672
L102.962 -56.5672
L104.834 -56.5672
L105.504 -56.5672
L108.463 -56.5672
L110.279 -56.5672
L111.868 -56.5672
L113.318 -56.5672
L116.543 -56.5672
L119.066 -56.5672
L119.653 -56.5672
L120.23 -56.5672
L125.504 -56.5672
L127.98 -56.5672
L129.992 -56.5672
L132.39 -56.5672
L133.375 -56.5672
L134.393 -56.5672
L138.156 -56.5672
L143.271 -56.5672
L144.156 -56.5672
L159.058 -56.5672
L160.243 -56.5672
L162.045 -56.5672
L165.529 -56.5672
L168.971 -56.5672
L170.779 -56.5672
L171.526 -56.5672
L173.02 -56.5672
L174.874 -56.5672
L175.725 -56.5672
L179.121 -56.5672
L179.399 -56.5672
L183.723 -56.5672
L186.34 -56.5672
L188.508 -56.5672
L189.279 -56.5672
L191.451 -56.5672
L193.323 -56.5672
L194.233 -56.5672
L194.999 -56.5672
L197.298 -56.5672
L197.591 -56.5672
L200.511 -56.5672
L200.951 -56.5672
L201.611 -56.5672
L204.301 -56.5672
L207.897 -56.5672
L219.232 -56.5672
L219.413 -56.5672
L220.802 -56.5672
L230.303 -56.5672
L233.546 -56.5672
L236.277 -56.5672
L250.068 -56.5672
L258.972 -56.5672
L259.972 -56.5672
L261.045 -56.5672
L267.393 -56.5672
L270.009 -56.5672
L272.24 -56.5672
L274.721 -56.5672
L276.107 -56.5672
L277.364 -56.5672
L278.706 -56.5672
L281.425 -56.5672
L282.339 -56.5672
L284.239 -56.5672
L284.975 -56.5672
L286.161 -56.5672
L286.554 -56.5672
L288.449 -56.5672
L289.111 -56.5672
L289.987 -56.5672
L291.454 -56.5672
L297.588 -56.5672
L298.051 -56.5672
L298.484 -56.5672
L300.007 -56.5672
L300.634 -56.5672
L301.572 -56.5672
L302.818 -56.5672
L304.379 -56.5672
L308.478 -56.5672
L316.11 -56.5672
L321.286 -56.5672
L323.427 -56.5672
L325.332 -56.5672
L330.061 -56.5672
L336.556 -56.5672
L337.666 -56.5672
L339.017 -56.5672
L341.015 -56.5672
L342.695 -56.5672
L347.028 -56.5672
L349.932 -56.5672
L350.737 -56.5672
L351.314 -56.5672
L352.112 -56.5672
L353.06 -56.5672
L354.063 -56.5672
L355.504 -56.5672
L356.244 -56.5672
L362.777 -56.5672
L372.9 -56.5672
L380.214 -56.5672
L385.015 -56.5672
L385.715 -56.5672
L386.177 -56.5672
L389.194 -56.5672
L391.146 -56.5672
L402.698 -56.5672
L403.37 -56.5672
L405.51 -56.5672
L406.846 -56.5672
L415.001 -56.5672
L416.338 -56.5672
L418.165 -56.5672
L419.016 -56.5672
L419.801 -56.5672
L420.433 -56.5672
L421.981 -56.5672
L422.743 -56.5672
L423.499 -56.5672
L424.727 -56.5672
L425.277 -56.5672
L426.161 -56.5672
L426.713 -56.5672
L427.482 -56.5672
L431.349 -56.5672
L434.988 -56.5672
L439.059 -56.5672
L442.772 -56.5672
L451.825 -56.5672
L452.748 -56.5672
L453.649 -56.5672
L456.568 -56.5672
L457.122 -56.5672
L459.463 -56.5672
L462.234 -56.5672
L483.136 -56.5672
L484.499 -56.5672
L487.058 -56.5672
L489.36 -56.5672
L491.98 -56.5672
L496.084 -56.5672
L505.705 -56.5672
L509.675 -56.5672
L515.187 -56.5672
L515.682 -56.5672
L517.048 -56.5672
L517.921 -56.5672
L518.695 -56.5672
L520.224 -56.5672
L520.547 -56.5672
L520.876 -56.5672
L521.263 -56.5672
L533.921 -56.5672
L534.315 -56.5672
L535.122 -56.5672
L535.469 -56.5672
L540.697 -56.5672
L541.448 -56.5672
L546.002 -56.5672
L546.631 -56.5672
L548.711 -56.5672
L549.651 -56.5672
L555.704 -56.5672
L556.163 -56.5672
L556.487 -56.5672
L557.312 -56.5672
L558.856 -56.5672
L560.389 -56.5672
L561.58 -56.5672
L562.689 -56.5672
L564.16 -56.5672
L566.931 -56.5672
L567.983 -56.5672
L571.548 -56.5672
L572.468 -56.5672
L573.311 -56.5672
L575.827 -56.5672
L576.411 -56.5672
L577.053 -56.5672
L577.315 -56.5672
L585.755 -56.5672
L585.98 -56.5672
L586.212 -56.5672
L587.315 -56.5672
L589.272 -56.5672
L589.81 -56.5672
L594.278 -56.5672
L598.233 -56.5672
L600.081 -56.5672
L600.449 -56.5672
L610.969 -56.5672
L611.405 -56.5672
L612.861 -56.5672
L613.216 -56.5672
L618.367 -56.5672
L620.723 -56.5672
L621.224 -56.5672
L624.602 -56.5672
L625.649 -56.5672
L626.358 -56.5672
L628.379 -56.5672
L632.63 -56.5672
L633.64 -56.5672
L634.256 -56.5672
L634.586 -56.5672
L635.255 -56.5672
L645.055 -56.5672
L645.807 -56.5672
L647.555 -56.5672
L649.158 -56.5672
L652.576 -56.5672
L653.376 -56.5672
L655.29 -56.5672
L656.318 -56.5672
L656.9 -56.5672
L659.857 -56.5672
L664.75 -56.5672
L674.791 -56.5672
L691.889 -56.5672
L694.364 -56.5672
L694.612 -56.5672
L695.12 -56.5672
L696.678 -56.5672
L698.635 -56.5672
L699.46 -56.5672
L700.517 -56.5672
L707.04 -56.5672
L707.04 -42.8648
L707.04 -42.8648
L700.517 -42.8648
L699.46 -42.8648
L698.635 -42.8648
L696.678 -42.8648
L695.12 -42.8648
L694.612 -42.8648
L694.364 -42.8648
L691.889 -42.8648
L674.791 -42.8648
L664.75 -42.8648
L659.857 -42.8648
L656.9 -42.8648
L656.318 -42.8648
L655.29 -42.8648
L653.376 -42.8648
L652.576 -42.8648
L649.158 -42.8648
L647.555 -42.8648
L645.807 -42.8648
L645.055 -42.8648
L635.255 -42.8648
L634.586 -42.8648
L634.256 -42.8648
L633.64 -42.8648
L632.63 -42.8648
L628.379 -42.8648
L626.358 -42.8648
L625.649 -42.8648
L624.602 -42.8648
L621.224 -42.8648
L620.723 -42.8648
L618.367 -42.8648
L613.216 -42.8648
L612.861 -42.8648
L611.405 -42.8648
L610.969 -42.8648
L600.449 -42.8648
L600.081 -42.8648
L598.233 -42.8648
L594.278 -42.8648
L589.81 -42.8648
L589.272 -42.8648
L587.315 -42.8648
L586.212 -42.8648
L585.98 -42.8648
L585.755 -42.8648
L577.315 -42.8648
L577.053 -42.8648
L576.411 -42.8648
L575.827 -42.8648
L573.311 -42.8648
L572.468 -42.8648
L571.548 -42.8648
L567.983 -42.8648
L566.931 -42.8648
L564.16 -42.8648
L562.689 -42.8648
L561.58 -42.8648
L560.389 -42.8648
L558.856 -42.8648
L557.312 -42.8648
L556.487 -42.8648
L556.163 -42.8648
L555.704 -42.8648
L549.651 -42.8648
L548.711 -42.8648
L546.631 -42.8648
L546.002 -42.8648
L541.448 -42.8648
L540.697 -42.8648
L535.469 -42.8648
L535.122 -42.8648
L534.315 -42.8648
L533.921 -42.8648
L521.263 -42.8648
L520.876 -42.8648
L520.547 -42.8648
L520.224 -42.8648
L518.695 -42.8648
L517.921 -42.8648
L517.048 -42.8648
L515.682 -42.8648
L515.187 -42.8648
L509.675 -42.8648
L505.705 -42.8648
L496.084 -42.8648
L491.98 -42.8648
L489.36 -42.8648
L487.058 -42.8648
L484.499 -42.8648
L483.136 -42.8648
L462.234 -42.8648
L459.463 -42.8648
L457.122 -42.8648
L456.568 -42.8648
L453.649 -42.8648
L452.748 -42.8648
L451.825 -42.8648
L442.772 -42.8648
L439.059 -42.8648
L434.988 -42.8648
L431.349 -42.8648
L427.482 -42.8648
L426.713 -42.8648
L426.161 -42.8648
L425.277 -42.8648
L424.727 -42.8648
L423.499 -42.8648
L422.743 -42.8648
L421.981 -42.8648
L420.433 -42.8648
L419.801 -42.8648
L419.016 -42.8648
L418.165 -42.8648
L416.338 -42.8648
L415.001 -42.8648
L406.846 -42.8648
L405.51 -42.8648
L403.37 -42.8648
L402.698 -42.8648
L391.146 -42.8648
L389.194 -42.8648
L386.177 -42.8648
L385.715 -42.8648
L385.015 -42.8648
L380.214 -42.8648
L372.9 -42.8648
L362.777 -42.8648
L356.244 -42.8648
L355.504 -42.8648
L354.063 -42.8648
L353.06 -42.8648
L352.112 -42.8648
L351.314 -42.8648
L350.737 -42.8648
L349.932 -42.8648
L347.028 -42.8648
L342.695 -42.8648
L341.015 -42.8648
L339.017 -42.8648
L337.666 -42.8648
L336.556 -42.8648
L330.061 -42.8648
L325.332 -42.8648
L323.427 -42.8648
L321.286 -42.8648
L316.11 -42.8648
L308.478 -42.8648
L304.379 -42.8648
L302.818 -42.8648
L301.572 -42.8648
L300.634 -42.8648
L300.007 -42.8648
L298.484 -42.8648
L298.051 -42.8648
L297.588 -42.8648
L291.454 -42.8648
L289.987 -42.8648
L289.111 -42.8648
L288.449 -42.8648
L286.554 -42.8648
L286.161 -42.8648
L284.975 -42.8648
L284.239 -42.8648
L282.339 -42.8648
L281.425 -42.8648
L278.706 -42.8648
L277.364 -42.8648
L276.107 -42.8648
L274.721 -42.8648
L272.24 -42.8648
L270.009 -42.8648
L267.393 -42.8648
L261.045 -42.8648
L259.972 -42.8648
L258.972 -42.8648
L250.068 -42.8648
L236.277 -42.8648
L233.546 -42.8648
L230.303 -42.8648
L220.802 -42.8648
L219.413 -42.8648
L219.232 -42.8648
L207.897 -42.8648
L204.301 -42.8648
L201.611 -42.8648
L200.951 -42.8648
L200.511 -42.8648
L197.591 -42.8648
L197.298 -42.8648
L194.999 -42.8648
L194.233 -42.8648
L193.323 -42.8648
L191.451 -42.8648
L189.279 -42.8648
L188.508 -42.8648
L186.34 -42.8648
L183.723 -42.8648
L179.399 -42.8648
L179.121 -42.8648
L175.725 -42.8648
L174.874 -42.8648
L173.02 -42.8648
L171.526 -42.8648
L170.779 -42.8648
L168.971 -42.8648
L165.529 -42.8648
L162.045 -42.8648
L160.243 -42.8648
L159.058 -42.8648
L144.156 -42.8648
L143.271 -42.8648
L138.156 -42.8648
L134.393 -42.8648
L133.375 -42.8648
L132.39 -42.8648
L129.992 -42.8648
L127.98 -42.8648
L125.504 -42.8648
L120.23 -42.8648
L119.653 -42.8648
L119.066 -42.8648
L116.543 -42.8648
L113.318 -42.8648
L111.868 -42.8648
L110.279 -42.8648
L108.463 -42.8648
L105.504 -42.8648
L104.834 -42.8648
L102.962 -42.8648
L100.629 -42.8648
L99.419 -42.8648
L98.6327 -42.8648
L96.6055 -42.8648
L95.9378 -42.8648
L84.6875 -42.8648
L84.0138 -42.8648
L83.0775 -42.8648
L80.7372 -42.8648
L78.9533 -42.8648
L77.4437 -42.8648
L76.3339 -42.8648
L75.0769 -42.8648
L74.1604 -42.8648
L68.5421 -42.8648
L67.5914 -42.8648
L65.9146 -42.8648
L64.2823 -42.8648
L63.6548 -42.8648
L63.1298 -42.8648
L61.8623 -42.8648
L57.8289 -42.8648
L56.7854 -42.8648
L55.8529 -42.8648
L54.5267 -42.8648
L53.9211 -42.8648
L52.5836 -42.8648
L52.0758 -42.8648
L51.5819 -42.8648
z
" id="C0_0_5dda0ef523"/>
    </defs>
    <g clip-path="url(#p09e0ffbc2e)">
     <use style="fill:#0000ff;fill-opacity:0.05;stroke:#0000ff;stroke-opacity:0.05;" x="0.0" xlink:href="#C0_0_5dda0ef523" y="144.0"/>
    </g>
   </g>
   <g id="PolyCollection_2">
    <defs>
     <path d="
M51.5819 -42.8648
L51.5819 -70.2696
L52.0758 -70.2696
L52.5836 -70.2696
L53.9211 -70.2696
L54.5267 -70.2696
L55.8529 -70.2696
L56.7854 -70.2696
L57.8289 -70.2696
L61.8623 -70.2696
L63.1298 -70.2696
L63.6548 -70.2696
L64.2823 -70.2696
L65.9146 -70.2696
L67.5914 -70.2696
L68.5421 -70.2696
L74.1604 -69.5845
L75.0769 -69.5845
L76.3339 -69.5845
L77.4437 -69.5845
L78.9533 -70.2696
L80.7372 -70.2696
L83.0775 -70.2696
L84.0138 -70.2696
L84.6875 -70.2696
L95.9378 -70.2696
L96.6055 -70.2696
L98.6327 -70.2696
L99.419 -70.2696
L100.629 -70.2696
L102.962 -70.2696
L104.834 -70.2696
L105.504 -70.2696
L108.463 -70.2696
L110.279 -70.2696
L111.868 -70.2696
L113.318 -70.2696
L116.543 -70.2696
L119.066 -70.2696
L119.653 -70.2696
L120.23 -70.2696
L125.504 -70.2696
L127.98 -70.2696
L129.992 -70.2696
L132.39 -70.2696
L133.375 -70.2696
L134.393 -70.2696
L138.156 -70.2696
L143.271 -70.2696
L144.156 -70.2696
L159.058 -70.2696
L160.243 -70.2696
L162.045 -70.2696
L165.529 -70.2696
L168.971 -70.2696
L170.779 -70.2696
L171.526 -70.2696
L173.02 -70.2696
L174.874 -70.2696
L175.725 -70.2696
L179.121 -70.2696
L179.399 -70.2696
L183.723 -70.2696
L186.34 -70.2696
L188.508 -70.2696
L189.279 -70.2696
L191.451 -70.2696
L193.323 -70.2696
L194.233 -70.2696
L194.999 -70.2696
L197.298 -70.2696
L197.591 -70.2696
L200.511 -70.2696
L200.951 -70.2696
L201.611 -70.2696
L204.301 -70.2696
L207.897 -70.2696
L219.232 -70.2696
L219.413 -70.2696
L220.802 -70.2696
L230.303 -70.2696
L233.546 -70.2696
L236.277 -70.2696
L250.068 -70.2696
L258.972 -70.2696
L259.972 -70.2696
L261.045 -70.2696
L267.393 -70.2696
L270.009 -70.2696
L272.24 -70.2696
L274.721 -70.2696
L276.107 -70.2696
L277.364 -70.2696
L278.706 -70.2696
L281.425 -70.2696
L282.339 -70.2696
L284.239 -70.2696
L284.975 -70.2696
L286.161 -70.2696
L286.554 -70.2696
L288.449 -70.2696
L289.111 -70.2696
L289.987 -70.2696
L291.454 -70.2696
L297.588 -70.2696
L298.051 -70.2696
L298.484 -70.2696
L300.007 -70.2696
L300.634 -70.2696
L301.572 -70.2696
L302.818 -70.2696
L304.379 -70.2696
L308.478 -70.2696
L316.11 -70.2696
L321.286 -70.2696
L323.427 -70.2696
L325.332 -70.2696
L330.061 -70.2696
L336.556 -70.2696
L337.666 -70.2696
L339.017 -70.2696
L341.015 -70.2696
L342.695 -70.2696
L347.028 -70.2696
L349.932 -70.2696
L350.737 -70.2696
L351.314 -70.2696
L352.112 -70.2696
L353.06 -70.2696
L354.063 -70.2696
L355.504 -70.2696
L356.244 -70.2696
L362.777 -70.2696
L372.9 -70.2696
L380.214 -70.2696
L385.015 -70.2696
L385.715 -70.2696
L386.177 -70.2696
L389.194 -70.2696
L391.146 -70.2696
L402.698 -70.2696
L403.37 -70.2696
L405.51 -70.2696
L406.846 -70.2696
L415.001 -70.2696
L416.338 -70.2696
L418.165 -70.2696
L419.016 -70.2696
L419.801 -70.2696
L420.433 -70.2696
L421.981 -70.2696
L422.743 -70.2696
L423.499 -70.2696
L424.727 -70.2696
L425.277 -70.2696
L426.161 -70.2696
L426.713 -70.2696
L427.482 -70.2696
L431.349 -70.2696
L434.988 -70.2696
L439.059 -70.2696
L442.772 -70.2696
L451.825 -70.2696
L452.748 -70.2696
L453.649 -70.2696
L456.568 -70.2696
L457.122 -70.2696
L459.463 -70.2696
L462.234 -70.2696
L483.136 -70.2696
L484.499 -70.2696
L487.058 -70.2696
L489.36 -70.2696
L491.98 -70.2696
L496.084 -70.2696
L505.705 -70.2696
L509.675 -70.2696
L515.187 -70.2696
L515.682 -70.2696
L517.048 -70.2696
L517.921 -70.2696
L518.695 -70.2696
L520.224 -70.2696
L520.547 -70.2696
L520.876 -70.2696
L521.263 -70.2696
L533.921 -70.2696
L534.315 -70.2696
L535.122 -70.2696
L535.469 -70.2696
L540.697 -70.2696
L541.448 -70.2696
L546.002 -70.2696
L546.631 -70.2696
L548.711 -70.2696
L549.651 -70.2696
L555.704 -70.2696
L556.163 -70.2696
L556.487 -70.2696
L557.312 -70.2696
L558.856 -70.2696
L560.389 -70.2696
L561.58 -70.2696
L562.689 -70.2696
L564.16 -70.2696
L566.931 -70.2696
L567.983 -70.2696
L571.548 -70.2696
L572.468 -70.2696
L573.311 -70.2696
L575.827 -70.2696
L576.411 -70.2696
L577.053 -70.2696
L577.315 -70.2696
L585.755 -70.2696
L585.98 -70.2696
L586.212 -70.2696
L587.315 -70.2696
L589.272 -70.2696
L589.81 -70.2696
L594.278 -70.2696
L598.233 -70.2696
L600.081 -68.8994
L600.449 -68.8994
L610.969 -70.2696
L611.405 -70.2696
L612.861 -70.2696
L613.216 -70.2696
L618.367 -70.2696
L620.723 -70.2696
L621.224 -70.2696
L624.602 -70.2696
L625.649 -70.2696
L626.358 -70.2696
L628.379 -70.2696
L632.63 -70.2696
L633.64 -70.2696
L634.256 -70.2696
L634.586 -70.2696
L635.255 -70.2696
L645.055 -66.844
L645.807 -66.844
L647.555 -66.844
L649.158 -64.7887
L652.576 -62.0482
L653.376 -62.0482
L655.29 -62.0482
L656.318 -62.7333
L656.9 -63.4184
L659.857 -67.5292
L664.75 -68.8994
L674.791 -63.4184
L691.889 -70.2696
L694.364 -70.2696
L694.612 -70.2696
L695.12 -70.2696
L696.678 -70.2696
L698.635 -70.2696
L699.46 -70.2696
L700.517 -70.2696
L707.04 -70.2696
L707.04 -42.8648
L707.04 -42.8648
L700.517 -42.8648
L699.46 -42.8648
L698.635 -42.8648
L696.678 -42.8648
L695.12 -42.8648
L694.612 -42.8648
L694.364 -42.8648
L691.889 -42.8648
L674.791 -42.8648
L664.75 -42.8648
L659.857 -42.8648
L656.9 -42.8648
L656.318 -42.8648
L655.29 -42.8648
L653.376 -42.8648
L652.576 -42.8648
L649.158 -42.8648
L647.555 -42.8648
L645.807 -42.8648
L645.055 -42.8648
L635.255 -42.8648
L634.586 -42.8648
L634.256 -42.8648
L633.64 -42.8648
L632.63 -42.8648
L628.379 -42.8648
L626.358 -42.8648
L625.649 -42.8648
L624.602 -42.8648
L621.224 -42.8648
L620.723 -42.8648
L618.367 -42.8648
L613.216 -42.8648
L612.861 -42.8648
L611.405 -42.8648
L610.969 -42.8648
L600.449 -42.8648
L600.081 -42.8648
L598.233 -42.8648
L594.278 -42.8648
L589.81 -42.8648
L589.272 -42.8648
L587.315 -42.8648
L586.212 -42.8648
L585.98 -42.8648
L585.755 -42.8648
L577.315 -42.8648
L577.053 -42.8648
L576.411 -42.8648
L575.827 -42.8648
L573.311 -42.8648
L572.468 -42.8648
L571.548 -42.8648
L567.983 -42.8648
L566.931 -42.8648
L564.16 -42.8648
L562.689 -42.8648
L561.58 -42.8648
L560.389 -42.8648
L558.856 -42.8648
L557.312 -42.8648
L556.487 -42.8648
L556.163 -42.8648
L555.704 -42.8648
L549.651 -42.8648
L548.711 -42.8648
L546.631 -42.8648
L546.002 -42.8648
L541.448 -42.8648
L540.697 -42.8648
L535.469 -42.8648
L535.122 -42.8648
L534.315 -42.8648
L533.921 -42.8648
L521.263 -42.8648
L520.876 -42.8648
L520.547 -42.8648
L520.224 -42.8648
L518.695 -42.8648
L517.921 -42.8648
L517.048 -42.8648
L515.682 -42.8648
L515.187 -42.8648
L509.675 -42.8648
L505.705 -42.8648
L496.084 -42.8648
L491.98 -42.8648
L489.36 -42.8648
L487.058 -42.8648
L484.499 -42.8648
L483.136 -42.8648
L462.234 -42.8648
L459.463 -42.8648
L457.122 -42.8648
L456.568 -42.8648
L453.649 -42.8648
L452.748 -42.8648
L451.825 -42.8648
L442.772 -42.8648
L439.059 -42.8648
L434.988 -42.8648
L431.349 -42.8648
L427.482 -42.8648
L426.713 -42.8648
L426.161 -42.8648
L425.277 -42.8648
L424.727 -42.8648
L423.499 -42.8648
L422.743 -42.8648
L421.981 -42.8648
L420.433 -42.8648
L419.801 -42.8648
L419.016 -42.8648
L418.165 -42.8648
L416.338 -42.8648
L415.001 -42.8648
L406.846 -42.8648
L405.51 -42.8648
L403.37 -42.8648
L402.698 -42.8648
L391.146 -42.8648
L389.194 -42.8648
L386.177 -42.8648
L385.715 -42.8648
L385.015 -42.8648
L380.214 -42.8648
L372.9 -42.8648
L362.777 -42.8648
L356.244 -42.8648
L355.504 -42.8648
L354.063 -42.8648
L353.06 -42.8648
L352.112 -42.8648
L351.314 -42.8648
L350.737 -42.8648
L349.932 -42.8648
L347.028 -42.8648
L342.695 -42.8648
L341.015 -42.8648
L339.017 -42.8648
L337.666 -42.8648
L336.556 -42.8648
L330.061 -42.8648
L325.332 -42.8648
L323.427 -42.8648
L321.286 -42.8648
L316.11 -42.8648
L308.478 -42.8648
L304.379 -42.8648
L302.818 -42.8648
L301.572 -42.8648
L300.634 -42.8648
L300.007 -42.8648
L298.484 -42.8648
L298.051 -42.8648
L297.588 -42.8648
L291.454 -42.8648
L289.987 -42.8648
L289.111 -42.8648
L288.449 -42.8648
L286.554 -42.8648
L286.161 -42.8648
L284.975 -42.8648
L284.239 -42.8648
L282.339 -42.8648
L281.425 -42.8648
L278.706 -42.8648
L277.364 -42.8648
L276.107 -42.8648
L274.721 -42.8648
L272.24 -42.8648
L270.009 -42.8648
L267.393 -42.8648
L261.045 -42.8648
L259.972 -42.8648
L258.972 -42.8648
L250.068 -42.8648
L236.277 -42.8648
L233.546 -42.8648
L230.303 -42.8648
L220.802 -42.8648
L219.413 -42.8648
L219.232 -42.8648
L207.897 -42.8648
L204.301 -42.8648
L201.611 -42.8648
L200.951 -42.8648
L200.511 -42.8648
L197.591 -42.8648
L197.298 -42.8648
L194.999 -42.8648
L194.233 -42.8648
L193.323 -42.8648
L191.451 -42.8648
L189.279 -42.8648
L188.508 -42.8648
L186.34 -42.8648
L183.723 -42.8648
L179.399 -42.8648
L179.121 -42.8648
L175.725 -42.8648
L174.874 -42.8648
L173.02 -42.8648
L171.526 -42.8648
L170.779 -42.8648
L168.971 -42.8648
L165.529 -42.8648
L162.045 -42.8648
L160.243 -42.8648
L159.058 -42.8648
L144.156 -42.8648
L143.271 -42.8648
L138.156 -42.8648
L134.393 -42.8648
L133.375 -42.8648
L132.39 -42.8648
L129.992 -42.8648
L127.98 -42.8648
L125.504 -42.8648
L120.23 -42.8648
L119.653 -42.8648
L119.066 -42.8648
L116.543 -42.8648
L113.318 -42.8648
L111.868 -42.8648
L110.279 -42.8648
L108.463 -42.8648
L105.504 -42.8648
L104.834 -42.8648
L102.962 -42.8648
L100.629 -42.8648
L99.419 -42.8648
L98.6327 -42.8648
L96.6055 -42.8648
L95.9378 -42.8648
L84.6875 -42.8648
L84.0138 -42.8648
L83.0775 -42.8648
L80.7372 -42.8648
L78.9533 -42.8648
L77.4437 -42.8648
L76.3339 -42.8648
L75.0769 -42.8648
L74.1604 -42.8648
L68.5421 -42.8648
L67.5914 -42.8648
L65.9146 -42.8648
L64.2823 -42.8648
L63.6548 -42.8648
L63.1298 -42.8648
L61.8623 -42.8648
L57.8289 -42.8648
L56.7854 -42.8648
L55.8529 -42.8648
L54.5267 -42.8648
L53.9211 -42.8648
L52.5836 -42.8648
L52.0758 -42.8648
L51.5819 -42.8648
z
" id="C1_0_a987148b6d"/>
    </defs>
    <g clip-path="url(#p09e0ffbc2e)">
     <use style="fill:#0000ff;fill-opacity:0.05;stroke:#0000ff;stroke-opacity:0.05;" x="0.0" xlink:href="#C1_0_a987148b6d" y="144.0"/>
    </g>
   </g>
   <g id="PolyCollection_3">
    <defs>
     <path d="
M51.5819 -42.8648
L51.5819 -73.0101
L52.0758 -73.0101
L52.5836 -73.6953
L53.9211 -74.3804
L54.5267 -75.0655
L55.8529 -76.4357
L56.7854 -77.806
L57.8289 -76.4357
L61.8623 -72.325
L63.1298 -71.6399
L63.6548 -71.6399
L64.2823 -71.6399
L65.9146 -70.9548
L67.5914 -70.9548
L68.5421 -70.2696
L74.1604 -69.5845
L75.0769 -69.5845
L76.3339 -69.5845
L77.4437 -69.5845
L78.9533 -70.2696
L80.7372 -71.6399
L83.0775 -73.6953
L84.0138 -74.3804
L84.6875 -75.0655
L95.9378 -83.9721
L96.6055 -83.9721
L98.6327 -83.9721
L99.419 -83.9721
L100.629 -83.9721
L102.962 -83.9721
L104.834 -83.9721
L105.504 -83.9721
L108.463 -83.9721
L110.279 -83.9721
L111.868 -83.9721
L113.318 -83.9721
L116.543 -83.9721
L119.066 -83.9721
L119.653 -83.9721
L120.23 -83.9721
L125.504 -83.9721
L127.98 -83.9721
L129.992 -83.9721
L132.39 -83.9721
L133.375 -83.9721
L134.393 -83.9721
L138.156 -83.9721
L143.271 -83.9721
L144.156 -83.9721
L159.058 -83.9721
L160.243 -83.9721
L162.045 -83.9721
L165.529 -83.9721
L168.971 -83.9721
L170.779 -83.9721
L171.526 -83.9721
L173.02 -83.9721
L174.874 -83.9721
L175.725 -83.9721
L179.121 -83.9721
L179.399 -83.9721
L183.723 -83.9721
L186.34 -83.9721
L188.508 -83.9721
L189.279 -83.9721
L191.451 -83.9721
L193.323 -83.9721
L194.233 -83.9721
L194.999 -83.9721
L197.298 -83.9721
L197.591 -83.9721
L200.511 -83.9721
L200.951 -83.9721
L201.611 -83.9721
L204.301 -83.9721
L207.897 -83.9721
L219.232 -83.9721
L219.413 -83.9721
L220.802 -83.9721
L230.303 -83.9721
L233.546 -83.9721
L236.277 -83.9721
L250.068 -83.9721
L258.972 -83.9721
L259.972 -83.9721
L261.045 -83.9721
L267.393 -83.9721
L270.009 -83.9721
L272.24 -83.9721
L274.721 -83.9721
L276.107 -83.9721
L277.364 -83.9721
L278.706 -83.9721
L281.425 -83.9721
L282.339 -83.9721
L284.239 -83.9721
L284.975 -83.9721
L286.161 -83.9721
L286.554 -83.9721
L288.449 -83.9721
L289.111 -83.9721
L289.987 -83.9721
L291.454 -83.9721
L297.588 -83.9721
L298.051 -83.9721
L298.484 -83.9721
L300.007 -83.9721
L300.634 -83.9721
L301.572 -83.9721
L302.818 -83.9721
L304.379 -83.9721
L308.478 -83.9721
L316.11 -83.9721
L321.286 -83.9721
L323.427 -83.9721
L325.332 -83.9721
L330.061 -83.9721
L336.556 -83.9721
L337.666 -83.9721
L339.017 -83.9721
L341.015 -83.9721
L342.695 -82.6018
L347.028 -78.4911
L349.932 -79.1762
L350.737 -79.1762
L351.314 -79.1762
L352.112 -79.1762
L353.06 -79.1762
L354.063 -79.1762
L355.504 -80.5465
L356.244 -82.6018
L362.777 -83.9721
L372.9 -83.9721
L380.214 -83.9721
L385.015 -83.9721
L385.715 -83.9721
L386.177 -83.9721
L389.194 -83.9721
L391.146 -83.9721
L402.698 -83.9721
L403.37 -83.9721
L405.51 -83.9721
L406.846 -83.9721
L415.001 -83.9721
L416.338 -83.9721
L418.165 -83.9721
L419.016 -82.6018
L419.801 -81.2316
L420.433 -80.5465
L421.981 -77.1209
L422.743 -75.7506
L423.499 -76.4357
L424.727 -79.1762
L425.277 -78.4911
L426.161 -78.4911
L426.713 -78.4911
L427.482 -79.1762
L431.349 -83.9721
L434.988 -83.9721
L439.059 -83.9721
L442.772 -81.2316
L451.825 -83.9721
L452.748 -83.9721
L453.649 -83.9721
L456.568 -83.9721
L457.122 -83.9721
L459.463 -83.9721
L462.234 -82.6018
L483.136 -81.9167
L484.499 -81.9167
L487.058 -81.9167
L489.36 -80.5465
L491.98 -81.2316
L496.084 -79.8614
L505.705 -76.4357
L509.675 -78.4911
L515.187 -77.806
L515.682 -77.806
L517.048 -77.806
L517.921 -77.806
L518.695 -79.1762
L520.224 -82.6018
L520.547 -81.9167
L520.876 -81.2316
L521.263 -80.5465
L533.921 -81.2316
L534.315 -80.5465
L535.122 -79.8614
L535.469 -79.8614
L540.697 -76.4357
L541.448 -77.1209
L546.002 -82.6018
L546.631 -82.6018
L548.711 -83.9721
L549.651 -83.9721
L555.704 -83.9721
L556.163 -83.9721
L556.487 -83.9721
L557.312 -83.9721
L558.856 -83.9721
L560.389 -83.9721
L561.58 -83.9721
L562.689 -83.9721
L564.16 -83.9721
L566.931 -83.9721
L567.983 -83.9721
L571.548 -83.9721
L572.468 -83.9721
L573.311 -83.287
L575.827 -80.5465
L576.411 -80.5465
L577.053 -81.2316
L577.315 -81.2316
L585.755 -83.9721
L585.98 -83.9721
L586.212 -83.9721
L587.315 -83.9721
L589.272 -83.9721
L589.81 -83.9721
L594.278 -81.9167
L598.233 -72.325
L600.081 -68.8994
L600.449 -68.8994
L610.969 -77.806
L611.405 -77.806
L612.861 -77.806
L613.216 -77.806
L618.367 -73.6953
L620.723 -70.2696
L621.224 -70.2696
L624.602 -70.2696
L625.649 -70.2696
L626.358 -70.2696
L628.379 -70.2696
L632.63 -82.6018
L633.64 -83.287
L634.256 -83.9721
L634.586 -83.9721
L635.255 -83.9721
L645.055 -66.844
L645.807 -66.844
L647.555 -66.844
L649.158 -64.7887
L652.576 -62.0482
L653.376 -62.0482
L655.29 -62.0482
L656.318 -62.7333
L656.9 -63.4184
L659.857 -67.5292
L664.75 -68.8994
L674.791 -63.4184
L691.889 -73.0101
L694.364 -70.2696
L694.612 -70.2696
L695.12 -70.2696
L696.678 -70.9548
L698.635 -71.6399
L699.46 -71.6399
L700.517 -71.6399
L707.04 -73.0101
L707.04 -42.8648
L707.04 -42.8648
L700.517 -42.8648
L699.46 -42.8648
L698.635 -42.8648
L696.678 -42.8648
L695.12 -42.8648
L694.612 -42.8648
L694.364 -42.8648
L691.889 -42.8648
L674.791 -42.8648
L664.75 -42.8648
L659.857 -42.8648
L656.9 -42.8648
L656.318 -42.8648
L655.29 -42.8648
L653.376 -42.8648
L652.576 -42.8648
L649.158 -42.8648
L647.555 -42.8648
L645.807 -42.8648
L645.055 -42.8648
L635.255 -42.8648
L634.586 -42.8648
L634.256 -42.8648
L633.64 -42.8648
L632.63 -42.8648
L628.379 -42.8648
L626.358 -42.8648
L625.649 -42.8648
L624.602 -42.8648
L621.224 -42.8648
L620.723 -42.8648
L618.367 -42.8648
L613.216 -42.8648
L612.861 -42.8648
L611.405 -42.8648
L610.969 -42.8648
L600.449 -42.8648
L600.081 -42.8648
L598.233 -42.8648
L594.278 -42.8648
L589.81 -42.8648
L589.272 -42.8648
L587.315 -42.8648
L586.212 -42.8648
L585.98 -42.8648
L585.755 -42.8648
L577.315 -42.8648
L577.053 -42.8648
L576.411 -42.8648
L575.827 -42.8648
L573.311 -42.8648
L572.468 -42.8648
L571.548 -42.8648
L567.983 -42.8648
L566.931 -42.8648
L564.16 -42.8648
L562.689 -42.8648
L561.58 -42.8648
L560.389 -42.8648
L558.856 -42.8648
L557.312 -42.8648
L556.487 -42.8648
L556.163 -42.8648
L555.704 -42.8648
L549.651 -42.8648
L548.711 -42.8648
L546.631 -42.8648
L546.002 -42.8648
L541.448 -42.8648
L540.697 -42.8648
L535.469 -42.8648
L535.122 -42.8648
L534.315 -42.8648
L533.921 -42.8648
L521.263 -42.8648
L520.876 -42.8648
L520.547 -42.8648
L520.224 -42.8648
L518.695 -42.8648
L517.921 -42.8648
L517.048 -42.8648
L515.682 -42.8648
L515.187 -42.8648
L509.675 -42.8648
L505.705 -42.8648
L496.084 -42.8648
L491.98 -42.8648
L489.36 -42.8648
L487.058 -42.8648
L484.499 -42.8648
L483.136 -42.8648
L462.234 -42.8648
L459.463 -42.8648
L457.122 -42.8648
L456.568 -42.8648
L453.649 -42.8648
L452.748 -42.8648
L451.825 -42.8648
L442.772 -42.8648
L439.059 -42.8648
L434.988 -42.8648
L431.349 -42.8648
L427.482 -42.8648
L426.713 -42.8648
L426.161 -42.8648
L425.277 -42.8648
L424.727 -42.8648
L423.499 -42.8648
L422.743 -42.8648
L421.981 -42.8648
L420.433 -42.8648
L419.801 -42.8648
L419.016 -42.8648
L418.165 -42.8648
L416.338 -42.8648
L415.001 -42.8648
L406.846 -42.8648
L405.51 -42.8648
L403.37 -42.8648
L402.698 -42.8648
L391.146 -42.8648
L389.194 -42.8648
L386.177 -42.8648
L385.715 -42.8648
L385.015 -42.8648
L380.214 -42.8648
L372.9 -42.8648
L362.777 -42.8648
L356.244 -42.8648
L355.504 -42.8648
L354.063 -42.8648
L353.06 -42.8648
L352.112 -42.8648
L351.314 -42.8648
L350.737 -42.8648
L349.932 -42.8648
L347.028 -42.8648
L342.695 -42.8648
L341.015 -42.8648
L339.017 -42.8648
L337.666 -42.8648
L336.556 -42.8648
L330.061 -42.8648
L325.332 -42.8648
L323.427 -42.8648
L321.286 -42.8648
L316.11 -42.8648
L308.478 -42.8648
L304.379 -42.8648
L302.818 -42.8648
L301.572 -42.8648
L300.634 -42.8648
L300.007 -42.8648
L298.484 -42.8648
L298.051 -42.8648
L297.588 -42.8648
L291.454 -42.8648
L289.987 -42.8648
L289.111 -42.8648
L288.449 -42.8648
L286.554 -42.8648
L286.161 -42.8648
L284.975 -42.8648
L284.239 -42.8648
L282.339 -42.8648
L281.425 -42.8648
L278.706 -42.8648
L277.364 -42.8648
L276.107 -42.8648
L274.721 -42.8648
L272.24 -42.8648
L270.009 -42.8648
L267.393 -42.8648
L261.045 -42.8648
L259.972 -42.8648
L258.972 -42.8648
L250.068 -42.8648
L236.277 -42.8648
L233.546 -42.8648
L230.303 -42.8648
L220.802 -42.8648
L219.413 -42.8648
L219.232 -42.8648
L207.897 -42.8648
L204.301 -42.8648
L201.611 -42.8648
L200.951 -42.8648
L200.511 -42.8648
L197.591 -42.8648
L197.298 -42.8648
L194.999 -42.8648
L194.233 -42.8648
L193.323 -42.8648
L191.451 -42.8648
L189.279 -42.8648
L188.508 -42.8648
L186.34 -42.8648
L183.723 -42.8648
L179.399 -42.8648
L179.121 -42.8648
L175.725 -42.8648
L174.874 -42.8648
L173.02 -42.8648
L171.526 -42.8648
L170.779 -42.8648
L168.971 -42.8648
L165.529 -42.8648
L162.045 -42.8648
L160.243 -42.8648
L159.058 -42.8648
L144.156 -42.8648
L143.271 -42.8648
L138.156 -42.8648
L134.393 -42.8648
L133.375 -42.8648
L132.39 -42.8648
L129.992 -42.8648
L127.98 -42.8648
L125.504 -42.8648
L120.23 -42.8648
L119.653 -42.8648
L119.066 -42.8648
L116.543 -42.8648
L113.318 -42.8648
L111.868 -42.8648
L110.279 -42.8648
L108.463 -42.8648
L105.504 -42.8648
L104.834 -42.8648
L102.962 -42.8648
L100.629 -42.8648
L99.419 -42.8648
L98.6327 -42.8648
L96.6055 -42.8648
L95.9378 -42.8648
L84.6875 -42.8648
L84.0138 -42.8648
L83.0775 -42.8648
L80.7372 -42.8648
L78.9533 -42.8648
L77.4437 -42.8648
L76.3339 -42.8648
L75.0769 -42.8648
L74.1604 -42.8648
L68.5421 -42.8648
L67.5914 -42.8648
L65.9146 -42.8648
L64.2823 -42.8648
L63.6548 -42.8648
L63.1298 -42.8648
L61.8623 -42.8648
L57.8289 -42.8648
L56.7854 -42.8648
L55.8529 -42.8648
L54.5267 -42.8648
L53.9211 -42.8648
L52.5836 -42.8648
L52.0758 -42.8648
L51.5819 -42.8648
z
" id="C2_0_b4764dec77"/>
    </defs>
    <g clip-path="url(#p09e0ffbc2e)">
     <use style="fill:#0000ff;fill-opacity:0.05;stroke:#0000ff;stroke-opacity:0.05;" x="0.0" xlink:href="#C2_0_b4764dec77" y="144.0"/>
    </g>
   </g>
   <g id="PolyCollection_4">
    <defs>
     <path d="
M51.5819 -42.8648
L51.5819 -73.0101
L52.0758 -73.0101
L52.5836 -73.6953
L53.9211 -74.3804
L54.5267 -75.0655
L55.8529 -76.4357
L56.7854 -77.806
L57.8289 -76.4357
L61.8623 -72.325
L63.1298 -71.6399
L63.6548 -71.6399
L64.2823 -71.6399
L65.9146 -70.9548
L67.5914 -70.9548
L68.5421 -70.2696
L74.1604 -69.5845
L75.0769 -69.5845
L76.3339 -69.5845
L77.4437 -69.5845
L78.9533 -70.2696
L80.7372 -71.6399
L83.0775 -73.6953
L84.0138 -74.3804
L84.6875 -75.0655
L95.9378 -87.3977
L96.6055 -88.7679
L98.6327 -92.1936
L99.419 -94.2489
L100.629 -97.6745
L102.962 -97.6745
L104.834 -97.6745
L105.504 -97.6745
L108.463 -97.6745
L110.279 -97.6745
L111.868 -97.6745
L113.318 -97.6745
L116.543 -97.6745
L119.066 -97.6745
L119.653 -97.6745
L120.23 -97.6745
L125.504 -97.6745
L127.98 -97.6745
L129.992 -97.6745
L132.39 -97.6745
L133.375 -97.6745
L134.393 -97.6745
L138.156 -97.6745
L143.271 -97.6745
L144.156 -97.6745
L159.058 -97.6745
L160.243 -97.6745
L162.045 -97.6745
L165.529 -97.6745
L168.971 -97.6745
L170.779 -97.6745
L171.526 -97.6745
L173.02 -97.6745
L174.874 -97.6745
L175.725 -97.6745
L179.121 -97.6745
L179.399 -97.6745
L183.723 -97.6745
L186.34 -97.6745
L188.508 -97.6745
L189.279 -97.6745
L191.451 -97.6745
L193.323 -97.6745
L194.233 -97.6745
L194.999 -97.6745
L197.298 -97.6745
L197.591 -97.6745
L200.511 -97.6745
L200.951 -97.6745
L201.611 -97.6745
L204.301 -97.6745
L207.897 -97.6745
L219.232 -96.3043
L219.413 -96.3043
L220.802 -96.9894
L230.303 -97.6745
L233.546 -97.6745
L236.277 -97.6745
L250.068 -97.6745
L258.972 -97.6745
L259.972 -97.6745
L261.045 -97.6745
L267.393 -97.6745
L270.009 -97.6745
L272.24 -97.6745
L274.721 -97.6745
L276.107 -97.6745
L277.364 -97.6745
L278.706 -97.6745
L281.425 -97.6745
L282.339 -97.6745
L284.239 -97.6745
L284.975 -97.6745
L286.161 -97.6745
L286.554 -97.6745
L288.449 -97.6745
L289.111 -97.6745
L289.987 -97.6745
L291.454 -97.6745
L297.588 -97.6745
L298.051 -97.6745
L298.484 -97.6745
L300.007 -96.9894
L300.634 -96.3043
L301.572 -96.3043
L302.818 -96.3043
L304.379 -96.3043
L308.478 -96.3043
L316.11 -97.6745
L321.286 -95.6192
L323.427 -91.5084
L325.332 -89.4531
L330.061 -86.7126
L336.556 -86.7126
L337.666 -86.0275
L339.017 -85.3423
L341.015 -84.6572
L342.695 -82.6018
L347.028 -78.4911
L349.932 -79.1762
L350.737 -79.1762
L351.314 -79.1762
L352.112 -79.1762
L353.06 -79.1762
L354.063 -79.1762
L355.504 -80.5465
L356.244 -82.6018
L362.777 -97.6745
L372.9 -97.6745
L380.214 -97.6745
L385.015 -97.6745
L385.715 -97.6745
L386.177 -97.6745
L389.194 -97.6745
L391.146 -97.6745
L402.698 -86.7126
L403.37 -86.7126
L405.51 -88.7679
L406.846 -88.0828
L415.001 -86.7126
L416.338 -85.3423
L418.165 -83.9721
L419.016 -82.6018
L419.801 -81.2316
L420.433 -80.5465
L421.981 -77.1209
L422.743 -75.7506
L423.499 -76.4357
L424.727 -79.1762
L425.277 -78.4911
L426.161 -78.4911
L426.713 -78.4911
L427.482 -79.1762
L431.349 -83.9721
L434.988 -88.0828
L439.059 -85.3423
L442.772 -81.2316
L451.825 -86.0275
L452.748 -86.7126
L453.649 -88.0828
L456.568 -88.7679
L457.122 -88.0828
L459.463 -86.7126
L462.234 -82.6018
L483.136 -81.9167
L484.499 -81.9167
L487.058 -81.9167
L489.36 -80.5465
L491.98 -81.2316
L496.084 -79.8614
L505.705 -76.4357
L509.675 -78.4911
L515.187 -77.806
L515.682 -77.806
L517.048 -77.806
L517.921 -77.806
L518.695 -79.1762
L520.224 -82.6018
L520.547 -81.9167
L520.876 -81.2316
L521.263 -80.5465
L533.921 -81.2316
L534.315 -80.5465
L535.122 -79.8614
L535.469 -79.8614
L540.697 -76.4357
L541.448 -77.1209
L546.002 -82.6018
L546.631 -82.6018
L548.711 -85.3423
L549.651 -85.3423
L555.704 -89.4531
L556.163 -89.4531
L556.487 -89.4531
L557.312 -89.4531
L558.856 -89.4531
L560.389 -89.4531
L561.58 -89.4531
L562.689 -89.4531
L564.16 -88.7679
L566.931 -88.7679
L567.983 -88.0828
L571.548 -86.0275
L572.468 -84.6572
L573.311 -83.287
L575.827 -80.5465
L576.411 -80.5465
L577.053 -81.2316
L577.315 -81.2316
L585.755 -88.7679
L585.98 -88.7679
L586.212 -88.7679
L587.315 -88.7679
L589.272 -88.7679
L589.81 -87.3977
L594.278 -81.9167
L598.233 -72.325
L600.081 -68.8994
L600.449 -68.8994
L610.969 -77.806
L611.405 -77.806
L612.861 -77.806
L613.216 -77.806
L618.367 -73.6953
L620.723 -70.2696
L621.224 -70.2696
L624.602 -70.2696
L625.649 -70.2696
L626.358 -70.2696
L628.379 -70.2696
L632.63 -82.6018
L633.64 -83.287
L634.256 -83.9721
L634.586 -83.9721
L635.255 -85.3423
L645.055 -66.844
L645.807 -66.844
L647.555 -66.844
L649.158 -64.7887
L652.576 -62.0482
L653.376 -62.0482
L655.29 -62.0482
L656.318 -62.7333
L656.9 -63.4184
L659.857 -67.5292
L664.75 -68.8994
L674.791 -63.4184
L691.889 -73.0101
L694.364 -70.2696
L694.612 -70.2696
L695.12 -70.2696
L696.678 -70.9548
L698.635 -71.6399
L699.46 -71.6399
L700.517 -71.6399
L707.04 -73.0101
L707.04 -42.8648
L707.04 -42.8648
L700.517 -42.8648
L699.46 -42.8648
L698.635 -42.8648
L696.678 -42.8648
L695.12 -42.8648
L694.612 -42.8648
L694.364 -42.8648
L691.889 -42.8648
L674.791 -42.8648
L664.75 -42.8648
L659.857 -42.8648
L656.9 -42.8648
L656.318 -42.8648
L655.29 -42.8648
L653.376 -42.8648
L652.576 -42.8648
L649.158 -42.8648
L647.555 -42.8648
L645.807 -42.8648
L645.055 -42.8648
L635.255 -42.8648
L634.586 -42.8648
L634.256 -42.8648
L633.64 -42.8648
L632.63 -42.8648
L628.379 -42.8648
L626.358 -42.8648
L625.649 -42.8648
L624.602 -42.8648
L621.224 -42.8648
L620.723 -42.8648
L618.367 -42.8648
L613.216 -42.8648
L612.861 -42.8648
L611.405 -42.8648
L610.969 -42.8648
L600.449 -42.8648
L600.081 -42.8648
L598.233 -42.8648
L594.278 -42.8648
L589.81 -42.8648
L589.272 -42.8648
L587.315 -42.8648
L586.212 -42.8648
L585.98 -42.8648
L585.755 -42.8648
L577.315 -42.8648
L577.053 -42.8648
L576.411 -42.8648
L575.827 -42.8648
L573.311 -42.8648
L572.468 -42.8648
L571.548 -42.8648
L567.983 -42.8648
L566.931 -42.8648
L564.16 -42.8648
L562.689 -42.8648
L561.58 -42.8648
L560.389 -42.8648
L558.856 -42.8648
L557.312 -42.8648
L556.487 -42.8648
L556.163 -42.8648
L555.704 -42.8648
L549.651 -42.8648
L548.711 -42.8648
L546.631 -42.8648
L546.002 -42.8648
L541.448 -42.8648
L540.697 -42.8648
L535.469 -42.8648
L535.122 -42.8648
L534.315 -42.8648
L533.921 -42.8648
L521.263 -42.8648
L520.876 -42.8648
L520.547 -42.8648
L520.224 -42.8648
L518.695 -42.8648
L517.921 -42.8648
L517.048 -42.8648
L515.682 -42.8648
L515.187 -42.8648
L509.675 -42.8648
L505.705 -42.8648
L496.084 -42.8648
L491.98 -42.8648
L489.36 -42.8648
L487.058 -42.8648
L484.499 -42.8648
L483.136 -42.8648
L462.234 -42.8648
L459.463 -42.8648
L457.122 -42.8648
L456.568 -42.8648
L453.649 -42.8648
L452.748 -42.8648
L451.825 -42.8648
L442.772 -42.8648
L439.059 -42.8648
L434.988 -42.8648
L431.349 -42.8648
L427.482 -42.8648
L426.713 -42.8648
L426.161 -42.8648
L425.277 -42.8648
L424.727 -42.8648
L423.499 -42.8648
L422.743 -42.8648
L421.981 -42.8648
L420.433 -42.8648
L419.801 -42.8648
L419.016 -42.8648
L418.165 -42.8648
L416.338 -42.8648
L415.001 -42.8648
L406.846 -42.8648
L405.51 -42.8648
L403.37 -42.8648
L402.698 -42.8648
L391.146 -42.8648
L389.194 -42.8648
L386.177 -42.8648
L385.715 -42.8648
L385.015 -42.8648
L380.214 -42.8648
L372.9 -42.8648
L362.777 -42.8648
L356.244 -42.8648
L355.504 -42.8648
L354.063 -42.8648
L353.06 -42.8648
L352.112 -42.8648
L351.314 -42.8648
L350.737 -42.8648
L349.932 -42.8648
L347.028 -42.8648
L342.695 -42.8648
L341.015 -42.8648
L339.017 -42.8648
L337.666 -42.8648
L336.556 -42.8648
L330.061 -42.8648
L325.332 -42.8648
L323.427 -42.8648
L321.286 -42.8648
L316.11 -42.8648
L308.478 -42.8648
L304.379 -42.8648
L302.818 -42.8648
L301.572 -42.8648
L300.634 -42.8648
L300.007 -42.8648
L298.484 -42.8648
L298.051 -42.8648
L297.588 -42.8648
L291.454 -42.8648
L289.987 -42.8648
L289.111 -42.8648
L288.449 -42.8648
L286.554 -42.8648
L286.161 -42.8648
L284.975 -42.8648
L284.239 -42.8648
L282.339 -42.8648
L281.425 -42.8648
L278.706 -42.8648
L277.364 -42.8648
L276.107 -42.8648
L274.721 -42.8648
L272.24 -42.8648
L270.009 -42.8648
L267.393 -42.8648
L261.045 -42.8648
L259.972 -42.8648
L258.972 -42.8648
L250.068 -42.8648
L236.277 -42.8648
L233.546 -42.8648
L230.303 -42.8648
L220.802 -42.8648
L219.413 -42.8648
L219.232 -42.8648
L207.897 -42.8648
L204.301 -42.8648
L201.611 -42.8648
L200.951 -42.8648
L200.511 -42.8648
L197.591 -42.8648
L197.298 -42.8648
L194.999 -42.8648
L194.233 -42.8648
L193.323 -42.8648
L191.451 -42.8648
L189.279 -42.8648
L188.508 -42.8648
L186.34 -42.8648
L183.723 -42.8648
L179.399 -42.8648
L179.121 -42.8648
L175.725 -42.8648
L174.874 -42.8648
L173.02 -42.8648
L171.526 -42.8648
L170.779 -42.8648
L168.971 -42.8648
L165.529 -42.8648
L162.045 -42.8648
L160.243 -42.8648
L159.058 -42.8648
L144.156 -42.8648
L143.271 -42.8648
L138.156 -42.8648
L134.393 -42.8648
L133.375 -42.8648
L132.39 -42.8648
L129.992 -42.8648
L127.98 -42.8648
L125.504 -42.8648
L120.23 -42.8648
L119.653 -42.8648
L119.066 -42.8648
L116.543 -42.8648
L113.318 -42.8648
L111.868 -42.8648
L110.279 -42.8648
L108.463 -42.8648
L105.504 -42.8648
L104.834 -42.8648
L102.962 -42.8648
L100.629 -42.8648
L99.419 -42.8648
L98.6327 -42.8648
L96.6055 -42.8648
L95.9378 -42.8648
L84.6875 -42.8648
L84.0138 -42.8648
L83.0775 -42.8648
L80.7372 -42.8648
L78.9533 -42.8648
L77.4437 -42.8648
L76.3339 -42.8648
L75.0769 -42.8648
L74.1604 -42.8648
L68.5421 -42.8648
L67.5914 -42.8648
L65.9146 -42.8648
L64.2823 -42.8648
L63.6548 -42.8648
L63.1298 -42.8648
L61.8623 -42.8648
L57.8289 -42.8648
L56.7854 -42.8648
L55.8529 -42.8648
L54.5267 -42.8648
L53.9211 -42.8648
L52.5836 -42.8648
L52.0758 -42.8648
L51.5819 -42.8648
z
" id="C3_0_53d93707e8"/>
    </defs>
    <g clip-path="url(#p09e0ffbc2e)">
     <use style="fill:#0000ff;fill-opacity:0.05;stroke:#0000ff;stroke-opacity:0.05;" x="0.0" xlink:href="#C3_0_53d93707e8" y="144.0"/>
    </g>
   </g>
   <g id="PolyCollection_5">
    <defs>
     <path d="
M51.5819 -42.8648
L51.5819 -73.0101
L52.0758 -73.0101
L52.5836 -73.6953
L53.9211 -74.3804
L54.5267 -75.0655
L55.8529 -76.4357
L56.7854 -77.806
L57.8289 -76.4357
L61.8623 -72.325
L63.1298 -71.6399
L63.6548 -71.6399
L64.2823 -71.6399
L65.9146 -70.9548
L67.5914 -70.9548
L68.5421 -70.2696
L74.1604 -69.5845
L75.0769 -69.5845
L76.3339 -69.5845
L77.4437 -69.5845
L78.9533 -70.2696
L80.7372 -71.6399
L83.0775 -73.6953
L84.0138 -74.3804
L84.6875 -75.0655
L95.9378 -87.3977
L96.6055 -88.7679
L98.6327 -92.1936
L99.419 -94.2489
L100.629 -98.3597
L102.962 -105.896
L104.834 -108.636
L105.504 -110.007
L108.463 -111.377
L110.279 -111.377
L111.868 -111.377
L113.318 -110.692
L116.543 -109.322
L119.066 -109.322
L119.653 -108.636
L120.23 -108.636
L125.504 -105.896
L127.98 -105.211
L129.992 -107.951
L132.39 -110.007
L133.375 -107.951
L134.393 -105.896
L138.156 -106.581
L143.271 -111.377
L144.156 -110.692
L159.058 -110.692
L160.243 -110.007
L162.045 -109.322
L165.529 -111.377
L168.971 -111.377
L170.779 -111.377
L171.526 -111.377
L173.02 -111.377
L174.874 -111.377
L175.725 -111.377
L179.121 -111.377
L179.399 -111.377
L183.723 -111.377
L186.34 -111.377
L188.508 -111.377
L189.279 -111.377
L191.451 -111.377
L193.323 -111.377
L194.233 -111.377
L194.999 -111.377
L197.298 -111.377
L197.591 -111.377
L200.511 -111.377
L200.951 -111.377
L201.611 -111.377
L204.301 -111.377
L207.897 -111.377
L219.232 -96.3043
L219.413 -96.3043
L220.802 -96.9894
L230.303 -103.156
L233.546 -105.211
L236.277 -107.266
L250.068 -106.581
L258.972 -110.007
L259.972 -110.007
L261.045 -110.007
L267.393 -110.692
L270.009 -111.377
L272.24 -110.007
L274.721 -107.951
L276.107 -108.636
L277.364 -109.322
L278.706 -109.322
L281.425 -110.007
L282.339 -108.636
L284.239 -107.266
L284.975 -106.581
L286.161 -105.896
L286.554 -105.896
L288.449 -101.785
L289.111 -100.415
L289.987 -99.7299
L291.454 -99.0448
L297.588 -101.785
L298.051 -100.415
L298.484 -99.7299
L300.007 -96.9894
L300.634 -96.3043
L301.572 -96.3043
L302.818 -96.3043
L304.379 -96.3043
L308.478 -96.3043
L316.11 -97.6745
L321.286 -95.6192
L323.427 -91.5084
L325.332 -89.4531
L330.061 -86.7126
L336.556 -86.7126
L337.666 -86.0275
L339.017 -85.3423
L341.015 -84.6572
L342.695 -82.6018
L347.028 -78.4911
L349.932 -79.1762
L350.737 -79.1762
L351.314 -79.1762
L352.112 -79.1762
L353.06 -79.1762
L354.063 -79.1762
L355.504 -80.5465
L356.244 -82.6018
L362.777 -105.896
L372.9 -111.377
L380.214 -111.377
L385.015 -111.377
L385.715 -110.007
L386.177 -109.322
L389.194 -103.841
L391.146 -99.0448
L402.698 -86.7126
L403.37 -86.7126
L405.51 -88.7679
L406.846 -88.0828
L415.001 -86.7126
L416.338 -85.3423
L418.165 -83.9721
L419.016 -82.6018
L419.801 -81.2316
L420.433 -80.5465
L421.981 -77.1209
L422.743 -75.7506
L423.499 -76.4357
L424.727 -79.1762
L425.277 -78.4911
L426.161 -78.4911
L426.713 -78.4911
L427.482 -79.1762
L431.349 -83.9721
L434.988 -88.0828
L439.059 -85.3423
L442.772 -81.2316
L451.825 -86.0275
L452.748 -86.7126
L453.649 -88.0828
L456.568 -88.7679
L457.122 -88.0828
L459.463 -86.7126
L462.234 -82.6018
L483.136 -81.9167
L484.499 -81.9167
L487.058 -81.9167
L489.36 -80.5465
L491.98 -81.2316
L496.084 -79.8614
L505.705 -76.4357
L509.675 -78.4911
L515.187 -77.806
L515.682 -77.806
L517.048 -77.806
L517.921 -77.806
L518.695 -79.1762
L520.224 -82.6018
L520.547 -81.9167
L520.876 -81.2316
L521.263 -80.5465
L533.921 -81.2316
L534.315 -80.5465
L535.122 -79.8614
L535.469 -79.8614
L540.697 -76.4357
L541.448 -77.1209
L546.002 -82.6018
L546.631 -82.6018
L548.711 -85.3423
L549.651 -85.3423
L555.704 -89.4531
L556.163 -89.4531
L556.487 -89.4531
L557.312 -89.4531
L558.856 -89.4531
L560.389 -89.4531
L561.58 -89.4531
L562.689 -89.4531
L564.16 -88.7679
L566.931 -88.7679
L567.983 -88.0828
L571.548 -86.0275
L572.468 -84.6572
L573.311 -83.287
L575.827 -80.5465
L576.411 -80.5465
L577.053 -81.2316
L577.315 -81.2316
L585.755 -88.7679
L585.98 -88.7679
L586.212 -88.7679
L587.315 -88.7679
L589.272 -88.7679
L589.81 -87.3977
L594.278 -81.9167
L598.233 -72.325
L600.081 -68.8994
L600.449 -68.8994
L610.969 -77.806
L611.405 -77.806
L612.861 -77.806
L613.216 -77.806
L618.367 -73.6953
L620.723 -70.2696
L621.224 -70.2696
L624.602 -70.2696
L625.649 -70.2696
L626.358 -70.2696
L628.379 -70.2696
L632.63 -82.6018
L633.64 -83.287
L634.256 -83.9721
L634.586 -83.9721
L635.255 -85.3423
L645.055 -66.844
L645.807 -66.844
L647.555 -66.844
L649.158 -64.7887
L652.576 -62.0482
L653.376 -62.0482
L655.29 -62.0482
L656.318 -62.7333
L656.9 -63.4184
L659.857 -67.5292
L664.75 -68.8994
L674.791 -63.4184
L691.889 -73.0101
L694.364 -70.2696
L694.612 -70.2696
L695.12 -70.2696
L696.678 -70.9548
L698.635 -71.6399
L699.46 -71.6399
L700.517 -71.6399
L707.04 -73.0101
L707.04 -42.8648
L707.04 -42.8648
L700.517 -42.8648
L699.46 -42.8648
L698.635 -42.8648
L696.678 -42.8648
L695.12 -42.8648
L694.612 -42.8648
L694.364 -42.8648
L691.889 -42.8648
L674.791 -42.8648
L664.75 -42.8648
L659.857 -42.8648
L656.9 -42.8648
L656.318 -42.8648
L655.29 -42.8648
L653.376 -42.8648
L652.576 -42.8648
L649.158 -42.8648
L647.555 -42.8648
L645.807 -42.8648
L645.055 -42.8648
L635.255 -42.8648
L634.586 -42.8648
L634.256 -42.8648
L633.64 -42.8648
L632.63 -42.8648
L628.379 -42.8648
L626.358 -42.8648
L625.649 -42.8648
L624.602 -42.8648
L621.224 -42.8648
L620.723 -42.8648
L618.367 -42.8648
L613.216 -42.8648
L612.861 -42.8648
L611.405 -42.8648
L610.969 -42.8648
L600.449 -42.8648
L600.081 -42.8648
L598.233 -42.8648
L594.278 -42.8648
L589.81 -42.8648
L589.272 -42.8648
L587.315 -42.8648
L586.212 -42.8648
L585.98 -42.8648
L585.755 -42.8648
L577.315 -42.8648
L577.053 -42.8648
L576.411 -42.8648
L575.827 -42.8648
L573.311 -42.8648
L572.468 -42.8648
L571.548 -42.8648
L567.983 -42.8648
L566.931 -42.8648
L564.16 -42.8648
L562.689 -42.8648
L561.58 -42.8648
L560.389 -42.8648
L558.856 -42.8648
L557.312 -42.8648
L556.487 -42.8648
L556.163 -42.8648
L555.704 -42.8648
L549.651 -42.8648
L548.711 -42.8648
L546.631 -42.8648
L546.002 -42.8648
L541.448 -42.8648
L540.697 -42.8648
L535.469 -42.8648
L535.122 -42.8648
L534.315 -42.8648
L533.921 -42.8648
L521.263 -42.8648
L520.876 -42.8648
L520.547 -42.8648
L520.224 -42.8648
L518.695 -42.8648
L517.921 -42.8648
L517.048 -42.8648
L515.682 -42.8648
L515.187 -42.8648
L509.675 -42.8648
L505.705 -42.8648
L496.084 -42.8648
L491.98 -42.8648
L489.36 -42.8648
L487.058 -42.8648
L484.499 -42.8648
L483.136 -42.8648
L462.234 -42.8648
L459.463 -42.8648
L457.122 -42.8648
L456.568 -42.8648
L453.649 -42.8648
L452.748 -42.8648
L451.825 -42.8648
L442.772 -42.8648
L439.059 -42.8648
L434.988 -42.8648
L431.349 -42.8648
L427.482 -42.8648
L426.713 -42.8648
L426.161 -42.8648
L425.277 -42.8648
L424.727 -42.8648
L423.499 -42.8648
L422.743 -42.8648
L421.981 -42.8648
L420.433 -42.8648
L419.801 -42.8648
L419.016 -42.8648
L418.165 -42.8648
L416.338 -42.8648
L415.001 -42.8648
L406.846 -42.8648
L405.51 -42.8648
L403.37 -42.8648
L402.698 -42.8648
L391.146 -42.8648
L389.194 -42.8648
L386.177 -42.8648
L385.715 -42.8648
L385.015 -42.8648
L380.214 -42.8648
L372.9 -42.8648
L362.777 -42.8648
L356.244 -42.8648
L355.504 -42.8648
L354.063 -42.8648
L353.06 -42.8648
L352.112 -42.8648
L351.314 -42.8648
L350.737 -42.8648
L349.932 -42.8648
L347.028 -42.8648
L342.695 -42.8648
L341.015 -42.8648
L339.017 -42.8648
L337.666 -42.8648
L336.556 -42.8648
L330.061 -42.8648
L325.332 -42.8648
L323.427 -42.8648
L321.286 -42.8648
L316.11 -42.8648
L308.478 -42.8648
L304.379 -42.8648
L302.818 -42.8648
L301.572 -42.8648
L300.634 -42.8648
L300.007 -42.8648
L298.484 -42.8648
L298.051 -42.8648
L297.588 -42.8648
L291.454 -42.8648
L289.987 -42.8648
L289.111 -42.8648
L288.449 -42.8648
L286.554 -42.8648
L286.161 -42.8648
L284.975 -42.8648
L284.239 -42.8648
L282.339 -42.8648
L281.425 -42.8648
L278.706 -42.8648
L277.364 -42.8648
L276.107 -42.8648
L274.721 -42.8648
L272.24 -42.8648
L270.009 -42.8648
L267.393 -42.8648
L261.045 -42.8648
L259.972 -42.8648
L258.972 -42.8648
L250.068 -42.8648
L236.277 -42.8648
L233.546 -42.8648
L230.303 -42.8648
L220.802 -42.8648
L219.413 -42.8648
L219.232 -42.8648
L207.897 -42.8648
L204.301 -42.8648
L201.611 -42.8648
L200.951 -42.8648
L200.511 -42.8648
L197.591 -42.8648
L197.298 -42.8648
L194.999 -42.8648
L194.233 -42.8648
L193.323 -42.8648
L191.451 -42.8648
L189.279 -42.8648
L188.508 -42.8648
L186.34 -42.8648
L183.723 -42.8648
L179.399 -42.8648
L179.121 -42.8648
L175.725 -42.8648
L174.874 -42.8648
L173.02 -42.8648
L171.526 -42.8648
L170.779 -42.8648
L168.971 -42.8648
L165.529 -42.8648
L162.045 -42.8648
L160.243 -42.8648
L159.058 -42.8648
L144.156 -42.8648
L143.271 -42.8648
L138.156 -42.8648
L134.393 -42.8648
L133.375 -42.8648
L132.39 -42.8648
L129.992 -42.8648
L127.98 -42.8648
L125.504 -42.8648
L120.23 -42.8648
L119.653 -42.8648
L119.066 -42.8648
L116.543 -42.8648
L113.318 -42.8648
L111.868 -42.8648
L110.279 -42.8648
L108.463 -42.8648
L105.504 -42.8648
L104.834 -42.8648
L102.962 -42.8648
L100.629 -42.8648
L99.419 -42.8648
L98.6327 -42.8648
L96.6055 -42.8648
L95.9378 -42.8648
L84.6875 -42.8648
L84.0138 -42.8648
L83.0775 -42.8648
L80.7372 -42.8648
L78.9533 -42.8648
L77.4437 -42.8648
L76.3339 -42.8648
L75.0769 -42.8648
L74.1604 -42.8648
L68.5421 -42.8648
L67.5914 -42.8648
L65.9146 -42.8648
L64.2823 -42.8648
L63.6548 -42.8648
L63.1298 -42.8648
L61.8623 -42.8648
L57.8289 -42.8648
L56.7854 -42.8648
L55.8529 -42.8648
L54.5267 -42.8648
L53.9211 -42.8648
L52.5836 -42.8648
L52.0758 -42.8648
L51.5819 -42.8648
z
" id="C4_0_636e9bade1"/>
    </defs>
    <g clip-path="url(#p09e0ffbc2e)">
     <use style="fill:#0000ff;fill-opacity:0.05;stroke:#0000ff;stroke-opacity:0.05;" x="0.0" xlink:href="#C4_0_636e9bade1" y="144.0"/>
    </g>
   </g>
   <g id="PolyCollection_6">
    <defs>
     <path d="
M51.5819 -42.8648
L51.5819 -73.0101
L52.0758 -73.0101
L52.5836 -73.6953
L53.9211 -74.3804
L54.5267 -75.0655
L55.8529 -76.4357
L56.7854 -77.806
L57.8289 -76.4357
L61.8623 -72.325
L63.1298 -71.6399
L63.6548 -71.6399
L64.2823 -71.6399
L65.9146 -70.9548
L67.5914 -70.9548
L68.5421 -70.2696
L74.1604 -69.5845
L75.0769 -69.5845
L76.3339 -69.5845
L77.4437 -69.5845
L78.9533 -70.2696
L80.7372 -71.6399
L83.0775 -73.6953
L84.0138 -74.3804
L84.6875 -75.0655
L95.9378 -87.3977
L96.6055 -88.7679
L98.6327 -92.1936
L99.419 -94.2489
L100.629 -98.3597
L102.962 -105.896
L104.834 -108.636
L105.504 -110.007
L108.463 -112.062
L110.279 -111.377
L111.868 -111.377
L113.318 -110.692
L116.543 -109.322
L119.066 -109.322
L119.653 -108.636
L120.23 -108.636
L125.504 -105.896
L127.98 -105.211
L129.992 -107.951
L132.39 -110.007
L133.375 -107.951
L134.393 -105.896
L138.156 -106.581
L143.271 -111.377
L144.156 -110.692
L159.058 -110.692
L160.243 -110.007
L162.045 -109.322
L165.529 -112.062
L168.971 -114.803
L170.779 -114.803
L171.526 -115.488
L173.02 -113.432
L174.874 -111.377
L175.725 -112.062
L179.121 -117.543
L179.399 -117.543
L183.723 -118.913
L186.34 -118.228
L188.508 -116.173
L189.279 -116.858
L191.451 -118.913
L193.323 -121.654
L194.233 -123.024
L194.999 -121.654
L197.298 -117.543
L197.591 -116.858
L200.511 -116.858
L200.951 -116.858
L201.611 -117.543
L204.301 -119.598
L207.897 -114.117
L219.232 -96.3043
L219.413 -96.3043
L220.802 -96.9894
L230.303 -103.156
L233.546 -105.211
L236.277 -107.266
L250.068 -106.581
L258.972 -110.007
L259.972 -110.007
L261.045 -110.007
L267.393 -110.692
L270.009 -111.377
L272.24 -110.007
L274.721 -107.951
L276.107 -108.636
L277.364 -109.322
L278.706 -109.322
L281.425 -110.007
L282.339 -108.636
L284.239 -107.266
L284.975 -106.581
L286.161 -105.896
L286.554 -105.896
L288.449 -101.785
L289.111 -100.415
L289.987 -99.7299
L291.454 -99.0448
L297.588 -101.785
L298.051 -100.415
L298.484 -99.7299
L300.007 -96.9894
L300.634 -96.3043
L301.572 -96.3043
L302.818 -96.3043
L304.379 -96.3043
L308.478 -96.3043
L316.11 -97.6745
L321.286 -95.6192
L323.427 -91.5084
L325.332 -89.4531
L330.061 -86.7126
L336.556 -86.7126
L337.666 -86.0275
L339.017 -85.3423
L341.015 -84.6572
L342.695 -82.6018
L347.028 -78.4911
L349.932 -79.1762
L350.737 -79.1762
L351.314 -79.1762
L352.112 -79.1762
L353.06 -79.1762
L354.063 -79.1762
L355.504 -80.5465
L356.244 -82.6018
L362.777 -105.896
L372.9 -116.858
L380.214 -122.339
L385.015 -112.062
L385.715 -110.007
L386.177 -109.322
L389.194 -103.841
L391.146 -99.0448
L402.698 -86.7126
L403.37 -86.7126
L405.51 -88.7679
L406.846 -88.0828
L415.001 -86.7126
L416.338 -85.3423
L418.165 -83.9721
L419.016 -82.6018
L419.801 -81.2316
L420.433 -80.5465
L421.981 -77.1209
L422.743 -75.7506
L423.499 -76.4357
L424.727 -79.1762
L425.277 -78.4911
L426.161 -78.4911
L426.713 -78.4911
L427.482 -79.1762
L431.349 -83.9721
L434.988 -88.0828
L439.059 -85.3423
L442.772 -81.2316
L451.825 -86.0275
L452.748 -86.7126
L453.649 -88.0828
L456.568 -88.7679
L457.122 -88.0828
L459.463 -86.7126
L462.234 -82.6018
L483.136 -81.9167
L484.499 -81.9167
L487.058 -81.9167
L489.36 -80.5465
L491.98 -81.2316
L496.084 -79.8614
L505.705 -76.4357
L509.675 -78.4911
L515.187 -77.806
L515.682 -77.806
L517.048 -77.806
L517.921 -77.806
L518.695 -79.1762
L520.224 -82.6018
L520.547 -81.9167
L520.876 -81.2316
L521.263 -80.5465
L533.921 -81.2316
L534.315 -80.5465
L535.122 -79.8614
L535.469 -79.8614
L540.697 -76.4357
L541.448 -77.1209
L546.002 -82.6018
L546.631 -82.6018
L548.711 -85.3423
L549.651 -85.3423
L555.704 -89.4531
L556.163 -89.4531
L556.487 -89.4531
L557.312 -89.4531
L558.856 -89.4531
L560.389 -89.4531
L561.58 -89.4531
L562.689 -89.4531
L564.16 -88.7679
L566.931 -88.7679
L567.983 -88.0828
L571.548 -86.0275
L572.468 -84.6572
L573.311 -83.287
L575.827 -80.5465
L576.411 -80.5465
L577.053 -81.2316
L577.315 -81.2316
L585.755 -88.7679
L585.98 -88.7679
L586.212 -88.7679
L587.315 -88.7679
L589.272 -88.7679
L589.81 -87.3977
L594.278 -81.9167
L598.233 -72.325
L600.081 -68.8994
L600.449 -68.8994
L610.969 -77.806
L611.405 -77.806
L612.861 -77.806
L613.216 -77.806
L618.367 -73.6953
L620.723 -70.2696
L621.224 -70.2696
L624.602 -70.2696
L625.649 -70.2696
L626.358 -70.2696
L628.379 -70.2696
L632.63 -82.6018
L633.64 -83.287
L634.256 -83.9721
L634.586 -83.9721
L635.255 -85.3423
L645.055 -66.844
L645.807 -66.844
L647.555 -66.844
L649.158 -64.7887
L652.576 -62.0482
L653.376 -62.0482
L655.29 -62.0482
L656.318 -62.7333
L656.9 -63.4184
L659.857 -67.5292
L664.75 -68.8994
L674.791 -63.4184
L691.889 -73.0101
L694.364 -70.2696
L694.612 -70.2696
L695.12 -70.2696
L696.678 -70.9548
L698.635 -71.6399
L699.46 -71.6399
L700.517 -71.6399
L707.04 -73.0101
L707.04 -42.8648
L707.04 -42.8648
L700.517 -42.8648
L699.46 -42.8648
L698.635 -42.8648
L696.678 -42.8648
L695.12 -42.8648
L694.612 -42.8648
L694.364 -42.8648
L691.889 -42.8648
L674.791 -42.8648
L664.75 -42.8648
L659.857 -42.8648
L656.9 -42.8648
L656.318 -42.8648
L655.29 -42.8648
L653.376 -42.8648
L652.576 -42.8648
L649.158 -42.8648
L647.555 -42.8648
L645.807 -42.8648
L645.055 -42.8648
L635.255 -42.8648
L634.586 -42.8648
L634.256 -42.8648
L633.64 -42.8648
L632.63 -42.8648
L628.379 -42.8648
L626.358 -42.8648
L625.649 -42.8648
L624.602 -42.8648
L621.224 -42.8648
L620.723 -42.8648
L618.367 -42.8648
L613.216 -42.8648
L612.861 -42.8648
L611.405 -42.8648
L610.969 -42.8648
L600.449 -42.8648
L600.081 -42.8648
L598.233 -42.8648
L594.278 -42.8648
L589.81 -42.8648
L589.272 -42.8648
L587.315 -42.8648
L586.212 -42.8648
L585.98 -42.8648
L585.755 -42.8648
L577.315 -42.8648
L577.053 -42.8648
L576.411 -42.8648
L575.827 -42.8648
L573.311 -42.8648
L572.468 -42.8648
L571.548 -42.8648
L567.983 -42.8648
L566.931 -42.8648
L564.16 -42.8648
L562.689 -42.8648
L561.58 -42.8648
L560.389 -42.8648
L558.856 -42.8648
L557.312 -42.8648
L556.487 -42.8648
L556.163 -42.8648
L555.704 -42.8648
L549.651 -42.8648
L548.711 -42.8648
L546.631 -42.8648
L546.002 -42.8648
L541.448 -42.8648
L540.697 -42.8648
L535.469 -42.8648
L535.122 -42.8648
L534.315 -42.8648
L533.921 -42.8648
L521.263 -42.8648
L520.876 -42.8648
L520.547 -42.8648
L520.224 -42.8648
L518.695 -42.8648
L517.921 -42.8648
L517.048 -42.8648
L515.682 -42.8648
L515.187 -42.8648
L509.675 -42.8648
L505.705 -42.8648
L496.084 -42.8648
L491.98 -42.8648
L489.36 -42.8648
L487.058 -42.8648
L484.499 -42.8648
L483.136 -42.8648
L462.234 -42.8648
L459.463 -42.8648
L457.122 -42.8648
L456.568 -42.8648
L453.649 -42.8648
L452.748 -42.8648
L451.825 -42.8648
L442.772 -42.8648
L439.059 -42.8648
L434.988 -42.8648
L431.349 -42.8648
L427.482 -42.8648
L426.713 -42.8648
L426.161 -42.8648
L425.277 -42.8648
L424.727 -42.8648
L423.499 -42.8648
L422.743 -42.8648
L421.981 -42.8648
L420.433 -42.8648
L419.801 -42.8648
L419.016 -42.8648
L418.165 -42.8648
L416.338 -42.8648
L415.001 -42.8648
L406.846 -42.8648
L405.51 -42.8648
L403.37 -42.8648
L402.698 -42.8648
L391.146 -42.8648
L389.194 -42.8648
L386.177 -42.8648
L385.715 -42.8648
L385.015 -42.8648
L380.214 -42.8648
L372.9 -42.8648
L362.777 -42.8648
L356.244 -42.8648
L355.504 -42.8648
L354.063 -42.8648
L353.06 -42.8648
L352.112 -42.8648
L351.314 -42.8648
L350.737 -42.8648
L349.932 -42.8648
L347.028 -42.8648
L342.695 -42.8648
L341.015 -42.8648
L339.017 -42.8648
L337.666 -42.8648
L336.556 -42.8648
L330.061 -42.8648
L325.332 -42.8648
L323.427 -42.8648
L321.286 -42.8648
L316.11 -42.8648
L308.478 -42.8648
L304.379 -42.8648
L302.818 -42.8648
L301.572 -42.8648
L300.634 -42.8648
L300.007 -42.8648
L298.484 -42.8648
L298.051 -42.8648
L297.588 -42.8648
L291.454 -42.8648
L289.987 -42.8648
L289.111 -42.8648
L288.449 -42.8648
L286.554 -42.8648
L286.161 -42.8648
L284.975 -42.8648
L284.239 -42.8648
L282.339 -42.8648
L281.425 -42.8648
L278.706 -42.8648
L277.364 -42.8648
L276.107 -42.8648
L274.721 -42.8648
L272.24 -42.8648
L270.009 -42.8648
L267.393 -42.8648
L261.045 -42.8648
L259.972 -42.8648
L258.972 -42.8648
L250.068 -42.8648
L236.277 -42.8648
L233.546 -42.8648
L230.303 -42.8648
L220.802 -42.8648
L219.413 -42.8648
L219.232 -42.8648
L207.897 -42.8648
L204.301 -42.8648
L201.611 -42.8648
L200.951 -42.8648
L200.511 -42.8648
L197.591 -42.8648
L197.298 -42.8648
L194.999 -42.8648
L194.233 -42.8648
L193.323 -42.8648
L191.451 -42.8648
L189.279 -42.8648
L188.508 -42.8648
L186.34 -42.8648
L183.723 -42.8648
L179.399 -42.8648
L179.121 -42.8648
L175.725 -42.8648
L174.874 -42.8648
L173.02 -42.8648
L171.526 -42.8648
L170.779 -42.8648
L168.971 -42.8648
L165.529 -42.8648
L162.045 -42.8648
L160.243 -42.8648
L159.058 -42.8648
L144.156 -42.8648
L143.271 -42.8648
L138.156 -42.8648
L134.393 -42.8648
L133.375 -42.8648
L132.39 -42.8648
L129.992 -42.8648
L127.98 -42.8648
L125.504 -42.8648
L120.23 -42.8648
L119.653 -42.8648
L119.066 -42.8648
L116.543 -42.8648
L113.318 -42.8648
L111.868 -42.8648
L110.279 -42.8648
L108.463 -42.8648
L105.504 -42.8648
L104.834 -42.8648
L102.962 -42.8648
L100.629 -42.8648
L99.419 -42.8648
L98.6327 -42.8648
L96.6055 -42.8648
L95.9378 -42.8648
L84.6875 -42.8648
L84.0138 -42.8648
L83.0775 -42.8648
L80.7372 -42.8648
L78.9533 -42.8648
L77.4437 -42.8648
L76.3339 -42.8648
L75.0769 -42.8648
L74.1604 -42.8648
L68.5421 -42.8648
L67.5914 -42.8648
L65.9146 -42.8648
L64.2823 -42.8648
L63.6548 -42.8648
L63.1298 -42.8648
L61.8623 -42.8648
L57.8289 -42.8648
L56.7854 -42.8648
L55.8529 -42.8648
L54.5267 -42.8648
L53.9211 -42.8648
L52.5836 -42.8648
L52.0758 -42.8648
L51.5819 -42.8648
z
" id="C5_0_4423cddcdf"/>
    </defs>
    <g clip-path="url(#p09e0ffbc2e)">
     <use style="fill:#0000ff;fill-opacity:0.05;stroke:#0000ff;stroke-opacity:0.05;" x="0.0" xlink:href="#C5_0_4423cddcdf" y="144.0"/>
    </g>
   </g>
   <g id="line2d_1">
    <path clip-path="url(#p09e0ffbc2e)" d="
M51.5819 70.9899
L52.0758 70.9899
L52.5836 70.3047
L53.9211 69.6196
L55.8529 67.5643
L56.7854 66.194
L57.8289 67.5643
L61.8623 71.675
L63.1298 72.3601
L64.2823 72.3601
L65.9146 73.0452
L67.5914 73.0452
L68.5421 73.7304
L75.0769 74.4155
L77.4437 74.4155
L78.9533 73.7304
L80.7372 72.3601
L84.6875 68.9345
L95.9378 56.6023
L96.6055 55.2321
L98.6327 51.8064
L99.419 49.7511
L102.962 38.104
L104.834 35.3635
L105.504 33.9933
L108.463 31.9379
L110.279 32.623
L111.868 32.623
L113.318 33.3081
L116.543 34.6784
L119.066 34.6784
L119.653 35.3635
L120.23 35.3635
L125.504 38.104
L127.98 38.7891
L129.992 36.0486
L132.39 33.9933
L134.393 38.104
L138.156 37.4189
L143.271 32.623
L144.156 33.3081
L159.058 33.3081
L160.243 33.9933
L162.045 34.6784
L168.971 29.1974
L170.779 29.1974
L171.526 28.5123
L173.02 30.5676
L174.874 32.623
L175.725 31.9379
L179.121 26.4569
L179.399 26.4569
L183.723 25.0867
L186.34 25.7718
L188.508 27.8272
L191.451 25.0867
L194.233 20.9759
L197.591 27.142
L200.951 27.142
L201.611 26.4569
L204.301 24.4015
L207.897 29.8825
L219.232 47.6957
L219.413 47.6957
L220.802 47.0106
L233.546 38.7891
L236.277 36.7337
L250.068 37.4189
L258.972 33.9933
L261.045 33.9933
L267.393 33.3081
L270.009 32.623
L272.24 33.9933
L274.721 36.0486
L277.364 34.6784
L278.706 34.6784
L281.425 33.9933
L282.339 35.3635
L284.239 36.7337
L284.975 37.4189
L286.161 38.104
L286.554 38.104
L289.111 43.585
L289.987 44.2701
L291.454 44.9552
L297.588 42.2147
L298.051 43.585
L298.484 44.2701
L300.007 47.0106
L300.634 47.6957
L308.478 47.6957
L316.11 46.3255
L321.286 48.3808
L323.427 52.4916
L325.332 54.5469
L330.061 57.2874
L336.556 57.2874
L337.666 57.9725
L339.017 58.6577
L341.015 59.3428
L342.695 61.3982
L347.028 65.5089
L349.932 64.8238
L354.063 64.8238
L355.504 63.4535
L356.244 61.3982
L362.777 38.104
L372.9 27.142
L380.214 21.6611
L385.015 31.9379
L385.715 33.9933
L386.177 34.6784
L389.194 40.1594
L391.146 44.9552
L402.698 57.2874
L403.37 57.2874
L405.51 55.2321
L406.846 55.9172
L415.001 57.2874
L416.338 58.6577
L418.165 60.0279
L419.801 62.7684
L420.433 63.4535
L421.981 66.8791
L422.743 68.2494
L423.499 67.5643
L424.727 64.8238
L425.277 65.5089
L426.713 65.5089
L427.482 64.8238
L431.349 60.0279
L434.988 55.9172
L439.059 58.6577
L442.772 62.7684
L451.825 57.9725
L452.748 57.2874
L453.649 55.9172
L456.568 55.2321
L457.122 55.9172
L459.463 57.2874
L462.234 61.3982
L484.499 62.0833
L487.058 62.0833
L489.36 63.4535
L491.98 62.7684
L496.084 64.1386
L505.705 67.5643
L509.675 65.5089
L515.682 66.194
L517.921 66.194
L518.695 64.8238
L520.224 61.3982
L521.263 63.4535
L533.921 62.7684
L534.315 63.4535
L535.122 64.1386
L535.469 64.1386
L540.697 67.5643
L541.448 66.8791
L546.002 61.3982
L546.631 61.3982
L548.711 58.6577
L549.651 58.6577
L555.704 54.5469
L562.689 54.5469
L564.16 55.2321
L566.931 55.2321
L567.983 55.9172
L571.548 57.9725
L573.311 60.713
L575.827 63.4535
L576.411 63.4535
L577.053 62.7684
L577.315 62.7684
L585.755 55.2321
L589.272 55.2321
L589.81 56.6023
L594.278 62.0833
L598.233 71.675
L600.081 75.1006
L600.449 75.1006
L610.969 66.194
L613.216 66.194
L618.367 70.3047
L620.723 73.7304
L628.379 73.7304
L632.63 61.3982
L633.64 60.713
L634.256 60.0279
L634.586 60.0279
L635.255 58.6577
L645.055 77.156
L647.555 77.156
L649.158 79.2113
L652.576 81.9518
L655.29 81.9518
L656.318 81.2667
L656.9 80.5816
L659.857 76.4708
L664.75 75.1006
L674.791 80.5816
L691.889 70.9899
L694.364 73.7304
L695.12 73.7304
L696.678 73.0452
L698.635 72.3601
L700.517 72.3601
L707.04 70.9899
L707.04 70.9899" style="fill:none;stroke:#0000ff;stroke-linecap:square;stroke-width:2;"/>
   </g>
   <g id="matplotlib.axis_1">
    <g id="xtick_1">
     <g id="line2d_2">
      <defs>
       <path d="
M0 0
L0 -4" id="m93b0483c22" style="stroke:#000000;stroke-width:0.5;"/>
      </defs>
      <g>
       <use style="stroke:#000000;stroke-width:0.5;" x="51.123375" xlink:href="#m93b0483c22" y="101.13525"/>
      </g>
     </g>
     <g id="line2d_3">
      <defs>
       <path d="
M0 0
L0 4" id="m741efc42ff" style="stroke:#000000;stroke-width:0.5;"/>
      </defs>
      <g>
       <use style="stroke:#000000;stroke-width:0.5;" x="51.123375" xlink:href="#m741efc42ff" y="12.96"/>
      </g>
     </g>
     <g id="text_1">
      <!-- 0 -->
      <defs>
       <path d="
M31.7812 66.4062
Q24.1719 66.4062 20.3281 58.9062
Q16.5 51.4219 16.5 36.375
Q16.5 21.3906 20.3281 13.8906
Q24.1719 6.39062 31.7812 6.39062
Q39.4531 6.39062 43.2812 13.8906
Q47.125 21.3906 47.125 36.375
Q47.125 51.4219 43.2812 58.9062
Q39.4531 66.4062 31.7812 66.4062
M31.7812 74.2188
Q44.0469 74.2188 50.5156 64.5156
Q56.9844 54.8281 56.9844 36.375
Q56.9844 17.9688 50.5156 8.26562
Q44.0469 -1.42188 31.7812 -1.42188
Q19.5312 -1.42188 13.0625 8.26562
Q6.59375 17.9688 6.59375 36.375
Q6.59375 54.8281 13.0625 64.5156
Q19.5312 74.2188 31.7812 74.2188" id="BitstreamVeraSans-Roman-30"/>
      </defs>
      <g transform="translate(48.0999375 114.253375)scale(0.12 -0.12)">
       <use xlink:href="#BitstreamVeraSans-Roman-30"/>
      </g>
     </g>
    </g>
    <g id="xtick_2">
     <g id="line2d_4">
      <g>
       <use style="stroke:#000000;stroke-width:0.5;" x="148.16973271" xlink:href="#m93b0483c22" y="101.13525"/>
      </g>
     </g>
     <g id="line2d_5">
      <g>
       <use style="stroke:#000000;stroke-width:0.5;" x="148.16973271" xlink:href="#m741efc42ff" y="12.96"/>
      </g>
     </g>
     <g id="text_2">
      <!-- 5 -->
      <defs>
       <path d="
M10.7969 72.9062
L49.5156 72.9062
L49.5156 64.5938
L19.8281 64.5938
L19.8281 46.7344
Q21.9688 47.4688 24.1094 47.8281
Q26.2656 48.1875 28.4219 48.1875
Q40.625 48.1875 47.75 41.5
Q54.8906 34.8125 54.8906 23.3906
Q54.8906 11.625 47.5625 5.09375
Q40.2344 -1.42188 26.9062 -1.42188
Q22.3125 -1.42188 17.5469 -0.640625
Q12.7969 0.140625 7.71875 1.70312
L7.71875 11.625
Q12.1094 9.23438 16.7969 8.0625
Q21.4844 6.89062 26.7031 6.89062
Q35.1562 6.89062 40.0781 11.3281
Q45.0156 15.7656 45.0156 23.3906
Q45.0156 31 40.0781 35.4375
Q35.1562 39.8906 26.7031 39.8906
Q22.75 39.8906 18.8125 39.0156
Q14.8906 38.1406 10.7969 36.2812
z
" id="BitstreamVeraSans-Roman-35"/>
      </defs>
      <g transform="translate(145.33942021 114.253375)scale(0.12 -0.12)">
       <use xlink:href="#BitstreamVeraSans-Roman-35"/>
      </g>
     </g>
    </g>
    <g id="xtick_3">
     <g id="line2d_6">
      <g>
       <use style="stroke:#000000;stroke-width:0.5;" x="245.216090421" xlink:href="#m93b0483c22" y="101.13525"/>
      </g>
     </g>
     <g id="line2d_7">
      <g>
       <use style="stroke:#000000;stroke-width:0.5;" x="245.216090421" xlink:href="#m741efc42ff" y="12.96"/>
      </g>
     </g>
     <g id="text_3">
      <!-- 10 -->
      <defs>
       <path d="
M12.4062 8.29688
L28.5156 8.29688
L28.5156 63.9219
L10.9844 60.4062
L10.9844 69.3906
L28.4219 72.9062
L38.2812 72.9062
L38.2812 8.29688
L54.3906 8.29688
L54.3906 0
L12.4062 0
z
" id="BitstreamVeraSans-Roman-31"/>
      </defs>
      <g transform="translate(238.638590421 114.253375)scale(0.12 -0.12)">
       <use xlink:href="#BitstreamVeraSans-Roman-31"/>
       <use x="63.623046875" xlink:href="#BitstreamVeraSans-Roman-30"/>
      </g>
     </g>
    </g>
    <g id="xtick_4">
     <g id="line2d_8">
      <g>
       <use style="stroke:#000000;stroke-width:0.5;" x="342.262448131" xlink:href="#m93b0483c22" y="101.13525"/>
      </g>
     </g>
     <g id="line2d_9">
      <g>
       <use style="stroke:#000000;stroke-width:0.5;" x="342.262448131" xlink:href="#m741efc42ff" y="12.96"/>
      </g>
     </g>
     <g id="text_4">
      <!-- 15 -->
      <g transform="translate(335.810573131 114.253375)scale(0.12 -0.12)">
       <use xlink:href="#BitstreamVeraSans-Roman-31"/>
       <use x="63.623046875" xlink:href="#BitstreamVeraSans-Roman-35"/>
      </g>
     </g>
    </g>
    <g id="xtick_5">
     <g id="line2d_10">
      <g>
       <use style="stroke:#000000;stroke-width:0.5;" x="439.308805842" xlink:href="#m93b0483c22" y="101.13525"/>
      </g>
     </g>
     <g id="line2d_11">
      <g>
       <use style="stroke:#000000;stroke-width:0.5;" x="439.308805842" xlink:href="#m741efc42ff" y="12.96"/>
      </g>
     </g>
     <g id="text_5">
      <!-- 20 -->
      <defs>
       <path d="
M19.1875 8.29688
L53.6094 8.29688
L53.6094 0
L7.32812 0
L7.32812 8.29688
Q12.9375 14.1094 22.625 23.8906
Q32.3281 33.6875 34.8125 36.5312
Q39.5469 41.8438 41.4219 45.5312
Q43.3125 49.2188 43.3125 52.7812
Q43.3125 58.5938 39.2344 62.25
Q35.1562 65.9219 28.6094 65.9219
Q23.9688 65.9219 18.8125 64.3125
Q13.6719 62.7031 7.8125 59.4219
L7.8125 69.3906
Q13.7656 71.7812 18.9375 73
Q24.125 74.2188 28.4219 74.2188
Q39.75 74.2188 46.4844 68.5469
Q53.2188 62.8906 53.2188 53.4219
Q53.2188 48.9219 51.5312 44.8906
Q49.8594 40.875 45.4062 35.4062
Q44.1875 33.9844 37.6406 27.2188
Q31.1094 20.4531 19.1875 8.29688" id="BitstreamVeraSans-Roman-32"/>
      </defs>
      <g transform="translate(432.511930842 114.253375)scale(0.12 -0.12)">
       <use xlink:href="#BitstreamVeraSans-Roman-32"/>
       <use x="63.623046875" xlink:href="#BitstreamVeraSans-Roman-30"/>
      </g>
     </g>
    </g>
    <g id="xtick_6">
     <g id="line2d_12">
      <g>
       <use style="stroke:#000000;stroke-width:0.5;" x="536.355163552" xlink:href="#m93b0483c22" y="101.13525"/>
      </g>
     </g>
     <g id="line2d_13">
      <g>
       <use style="stroke:#000000;stroke-width:0.5;" x="536.355163552" xlink:href="#m741efc42ff" y="12.96"/>
      </g>
     </g>
     <g id="text_6">
      <!-- 25 -->
      <g transform="translate(529.683913552 114.253375)scale(0.12 -0.12)">
       <use xlink:href="#BitstreamVeraSans-Roman-32"/>
       <use x="63.623046875" xlink:href="#BitstreamVeraSans-Roman-35"/>
      </g>
     </g>
    </g>
    <g id="xtick_7">
     <g id="line2d_14">
      <g>
       <use style="stroke:#000000;stroke-width:0.5;" x="633.401521262" xlink:href="#m93b0483c22" y="101.13525"/>
      </g>
     </g>
     <g id="line2d_15">
      <g>
       <use style="stroke:#000000;stroke-width:0.5;" x="633.401521262" xlink:href="#m741efc42ff" y="12.96"/>
      </g>
     </g>
     <g id="text_7">
      <!-- 30 -->
      <defs>
       <path d="
M40.5781 39.3125
Q47.6562 37.7969 51.625 33
Q55.6094 28.2188 55.6094 21.1875
Q55.6094 10.4062 48.1875 4.48438
Q40.7656 -1.42188 27.0938 -1.42188
Q22.5156 -1.42188 17.6562 -0.515625
Q12.7969 0.390625 7.625 2.20312
L7.625 11.7188
Q11.7188 9.32812 16.5938 8.10938
Q21.4844 6.89062 26.8125 6.89062
Q36.0781 6.89062 40.9375 10.5469
Q45.7969 14.2031 45.7969 21.1875
Q45.7969 27.6406 41.2812 31.2656
Q36.7656 34.9062 28.7188 34.9062
L20.2188 34.9062
L20.2188 43.0156
L29.1094 43.0156
Q36.375 43.0156 40.2344 45.9219
Q44.0938 48.8281 44.0938 54.2969
Q44.0938 59.9062 40.1094 62.9062
Q36.1406 65.9219 28.7188 65.9219
Q24.6562 65.9219 20.0156 65.0312
Q15.375 64.1562 9.8125 62.3125
L9.8125 71.0938
Q15.4375 72.6562 20.3438 73.4375
Q25.25 74.2188 29.5938 74.2188
Q40.8281 74.2188 47.3594 69.1094
Q53.9062 64.0156 53.9062 55.3281
Q53.9062 49.2656 50.4375 45.0938
Q46.9688 40.9219 40.5781 39.3125" id="BitstreamVeraSans-Roman-33"/>
      </defs>
      <g transform="translate(626.622458762 114.253375)scale(0.12 -0.12)">
       <use xlink:href="#BitstreamVeraSans-Roman-33"/>
       <use x="63.623046875" xlink:href="#BitstreamVeraSans-Roman-30"/>
      </g>
     </g>
    </g>
    <g id="text_8">
     <!-- Distance, km -->
     <defs>
      <path id="BitstreamVeraSans-Roman-20"/>
      <path d="
M54.8906 33.0156
L54.8906 0
L45.9062 0
L45.9062 32.7188
Q45.9062 40.4844 42.875 44.3281
Q39.8438 48.1875 33.7969 48.1875
Q26.5156 48.1875 22.3125 43.5469
Q18.1094 38.9219 18.1094 30.9062
L18.1094 0
L9.07812 0
L9.07812 54.6875
L18.1094 54.6875
L18.1094 46.1875
Q21.3438 51.125 25.7031 53.5625
Q30.0781 56 35.7969 56
Q45.2188 56 50.0469 50.1719
Q54.8906 44.3438 54.8906 33.0156" id="BitstreamVeraSans-Roman-6e"/>
      <path d="
M52 44.1875
Q55.375 50.25 60.0625 53.125
Q64.75 56 71.0938 56
Q79.6406 56 84.2812 50.0156
Q88.9219 44.0469 88.9219 33.0156
L88.9219 0
L79.8906 0
L79.8906 32.7188
Q79.8906 40.5781 77.0938 44.375
Q74.3125 48.1875 68.6094 48.1875
Q61.625 48.1875 57.5625 43.5469
Q53.5156 38.9219 53.5156 30.9062
L53.5156 0
L44.4844 0
L44.4844 32.7188
Q44.4844 40.625 41.7031 44.4062
Q38.9219 48.1875 33.1094 48.1875
Q26.2188 48.1875 22.1562 43.5312
Q18.1094 38.875 18.1094 30.9062
L18.1094 0
L9.07812 0
L9.07812 54.6875
L18.1094 54.6875
L18.1094 46.1875
Q21.1875 51.2188 25.4844 53.6094
Q29.7812 56 35.6875 56
Q41.6562 56 45.8281 52.9688
Q50 49.9531 52 44.1875" id="BitstreamVeraSans-Roman-6d"/>
      <path d="
M9.07812 75.9844
L18.1094 75.9844
L18.1094 31.1094
L44.9219 54.6875
L56.3906 54.6875
L27.3906 29.1094
L57.625 0
L45.9062 0
L18.1094 26.7031
L18.1094 0
L9.07812 0
z
" id="BitstreamVeraSans-Roman-6b"/>
      <path d="
M11.7188 12.4062
L22.0156 12.4062
L22.0156 4
L14.0156 -11.625
L7.71875 -11.625
L11.7188 4
z
" id="BitstreamVeraSans-Roman-2c"/>
      <path d="
M19.6719 64.7969
L19.6719 8.10938
L31.5938 8.10938
Q46.6875 8.10938 53.6875 14.9375
Q60.6875 21.7812 60.6875 36.5312
Q60.6875 51.1719 53.6875 57.9844
Q46.6875 64.7969 31.5938 64.7969
z

M9.8125 72.9062
L30.0781 72.9062
Q51.2656 72.9062 61.1719 64.0938
Q71.0938 55.2812 71.0938 36.5312
Q71.0938 17.6719 61.125 8.82812
Q51.1719 0 30.0781 0
L9.8125 0
z
" id="BitstreamVeraSans-Roman-44"/>
      <path d="
M9.42188 54.6875
L18.4062 54.6875
L18.4062 0
L9.42188 0
z

M9.42188 75.9844
L18.4062 75.9844
L18.4062 64.5938
L9.42188 64.5938
z
" id="BitstreamVeraSans-Roman-69"/>
      <path d="
M56.2031 29.5938
L56.2031 25.2031
L14.8906 25.2031
Q15.4844 15.9219 20.4844 11.0625
Q25.4844 6.20312 34.4219 6.20312
Q39.5938 6.20312 44.4531 7.46875
Q49.3125 8.73438 54.1094 11.2812
L54.1094 2.78125
Q49.2656 0.734375 44.1875 -0.34375
Q39.1094 -1.42188 33.8906 -1.42188
Q20.7969 -1.42188 13.1562 6.1875
Q5.51562 13.8125 5.51562 26.8125
Q5.51562 40.2344 12.7656 48.1094
Q20.0156 56 32.3281 56
Q43.3594 56 49.7812 48.8906
Q56.2031 41.7969 56.2031 29.5938
M47.2188 32.2344
Q47.125 39.5938 43.0938 43.9844
Q39.0625 48.3906 32.4219 48.3906
Q24.9062 48.3906 20.3906 44.1406
Q15.875 39.8906 15.1875 32.1719
z
" id="BitstreamVeraSans-Roman-65"/>
      <path d="
M18.3125 70.2188
L18.3125 54.6875
L36.8125 54.6875
L36.8125 47.7031
L18.3125 47.7031
L18.3125 18.0156
Q18.3125 11.3281 20.1406 9.42188
Q21.9688 7.51562 27.5938 7.51562
L36.8125 7.51562
L36.8125 0
L27.5938 0
Q17.1875 0 13.2344 3.875
Q9.28125 7.76562 9.28125 18.0156
L9.28125 47.7031
L2.6875 47.7031
L2.6875 54.6875
L9.28125 54.6875
L9.28125 70.2188
z
" id="BitstreamVeraSans-Roman-74"/>
      <path d="
M34.2812 27.4844
Q23.3906 27.4844 19.1875 25
Q14.9844 22.5156 14.9844 16.5
Q14.9844 11.7188 18.1406 8.90625
Q21.2969 6.10938 26.7031 6.10938
Q34.1875 6.10938 38.7031 11.4062
Q43.2188 16.7031 43.2188 25.4844
L43.2188 27.4844
z

M52.2031 31.2031
L52.2031 0
L43.2188 0
L43.2188 8.29688
Q40.1406 3.32812 35.5469 0.953125
Q30.9531 -1.42188 24.3125 -1.42188
Q15.9219 -1.42188 10.9531 3.29688
Q6 8.01562 6 15.9219
Q6 25.1406 12.1719 29.8281
Q18.3594 34.5156 30.6094 34.5156
L43.2188 34.5156
L43.2188 35.4062
Q43.2188 41.6094 39.1406 45
Q35.0625 48.3906 27.6875 48.3906
Q23 48.3906 18.5469 47.2656
Q14.1094 46.1406 10.0156 43.8906
L10.0156 52.2031
Q14.9375 54.1094 19.5781 55.0469
Q24.2188 56 28.6094 56
Q40.4844 56 46.3438 49.8438
Q52.2031 43.7031 52.2031 31.2031" id="BitstreamVeraSans-Roman-61"/>
      <path d="
M44.2812 53.0781
L44.2812 44.5781
Q40.4844 46.5312 36.375 47.5
Q32.2812 48.4844 27.875 48.4844
Q21.1875 48.4844 17.8438 46.4375
Q14.5 44.3906 14.5 40.2812
Q14.5 37.1562 16.8906 35.375
Q19.2812 33.5938 26.5156 31.9844
L29.5938 31.2969
Q39.1562 29.25 43.1875 25.5156
Q47.2188 21.7812 47.2188 15.0938
Q47.2188 7.46875 41.1875 3.01562
Q35.1562 -1.42188 24.6094 -1.42188
Q20.2188 -1.42188 15.4531 -0.5625
Q10.6875 0.296875 5.42188 2
L5.42188 11.2812
Q10.4062 8.6875 15.2344 7.39062
Q20.0625 6.10938 24.8125 6.10938
Q31.1562 6.10938 34.5625 8.28125
Q37.9844 10.4531 37.9844 14.4062
Q37.9844 18.0625 35.5156 20.0156
Q33.0625 21.9688 24.7031 23.7812
L21.5781 24.5156
Q13.2344 26.2656 9.51562 29.9062
Q5.8125 33.5469 5.8125 39.8906
Q5.8125 47.6094 11.2812 51.7969
Q16.75 56 26.8125 56
Q31.7812 56 36.1719 55.2656
Q40.5781 54.5469 44.2812 53.0781" id="BitstreamVeraSans-Roman-73"/>
      <path d="
M48.7812 52.5938
L48.7812 44.1875
Q44.9688 46.2969 41.1406 47.3438
Q37.3125 48.3906 33.4062 48.3906
Q24.6562 48.3906 19.8125 42.8438
Q14.9844 37.3125 14.9844 27.2969
Q14.9844 17.2812 19.8125 11.7344
Q24.6562 6.20312 33.4062 6.20312
Q37.3125 6.20312 41.1406 7.25
Q44.9688 8.29688 48.7812 10.4062
L48.7812 2.09375
Q45.0156 0.34375 40.9844 -0.53125
Q36.9688 -1.42188 32.4219 -1.42188
Q20.0625 -1.42188 12.7812 6.34375
Q5.51562 14.1094 5.51562 27.2969
Q5.51562 40.6719 12.8594 48.3281
Q20.2188 56 33.0156 56
Q37.1562 56 41.1094 55.1406
Q45.0625 54.2969 48.7812 52.5938" id="BitstreamVeraSans-Roman-63"/>
     </defs>
     <g transform="translate(340.22325 130.867125)scale(0.12 -0.12)">
      <use xlink:href="#BitstreamVeraSans-Roman-44"/>
      <use x="77.001953125" xlink:href="#BitstreamVeraSans-Roman-69"/>
      <use x="104.78515625" xlink:href="#BitstreamVeraSans-Roman-73"/>
      <use x="156.884765625" xlink:href="#BitstreamVeraSans-Roman-74"/>
      <use x="196.09375" xlink:href="#BitstreamVeraSans-Roman-61"/>
      <use x="257.373046875" xlink:href="#BitstreamVeraSans-Roman-6e"/>
      <use x="320.751953125" xlink:href="#BitstreamVeraSans-Roman-63"/>
      <use x="375.732421875" xlink:href="#BitstreamVeraSans-Roman-65"/>
      <use x="437.255859375" xlink:href="#BitstreamVeraSans-Roman-2c"/>
      <use x="469.04296875" xlink:href="#BitstreamVeraSans-Roman-20"/>
      <use x="500.830078125" xlink:href="#BitstreamVeraSans-Roman-6b"/>
      <use x="558.740234375" xlink:href="#BitstreamVeraSans-Roman-6d"/>
     </g>
    </g>
   </g>
   <g id="matplotlib.axis_2">
    <g id="ytick_1">
     <g id="line2d_16">
      <defs>
       <path d="
M0 0
L4 0" id="m728421d6d4" style="stroke:#000000;stroke-width:0.5;"/>
      </defs>
      <g>
       <use style="stroke:#000000;stroke-width:0.5;" x="51.123375" xlink:href="#m728421d6d4" y="101.13525"/>
      </g>
     </g>
     <g id="line2d_17">
      <defs>
       <path d="
M0 0
L-4 0" id="mcb0005524f" style="stroke:#000000;stroke-width:0.5;"/>
      </defs>
      <g>
       <use style="stroke:#000000;stroke-width:0.5;" x="707.04" xlink:href="#mcb0005524f" y="101.13525"/>
      </g>
     </g>
     <g id="text_9">
      <!-- 0 -->
      <g transform="translate(41.0765 104.4465)scale(0.12 -0.12)">
       <use xlink:href="#BitstreamVeraSans-Roman-30"/>
      </g>
     </g>
    </g>
    <g id="ytick_2">
     <g id="line2d_18">
      <g>
       <use style="stroke:#000000;stroke-width:0.5;" x="51.123375" xlink:href="#m728421d6d4" y="87.4328024476"/>
      </g>
     </g>
     <g id="line2d_19">
      <g>
       <use style="stroke:#000000;stroke-width:0.5;" x="707.04" xlink:href="#mcb0005524f" y="87.4328024476"/>
      </g>
     </g>
     <g id="text_10">
      <!-- 20 -->
      <g transform="translate(33.529625 90.7440524476)scale(0.12 -0.12)">
       <use xlink:href="#BitstreamVeraSans-Roman-32"/>
       <use x="63.623046875" xlink:href="#BitstreamVeraSans-Roman-30"/>
      </g>
     </g>
    </g>
    <g id="ytick_3">
     <g id="line2d_20">
      <g>
       <use style="stroke:#000000;stroke-width:0.5;" x="51.123375" xlink:href="#m728421d6d4" y="73.7303548951"/>
      </g>
     </g>
     <g id="line2d_21">
      <g>
       <use style="stroke:#000000;stroke-width:0.5;" x="707.04" xlink:href="#mcb0005524f" y="73.7303548951"/>
      </g>
     </g>
     <g id="text_11">
      <!-- 40 -->
      <defs>
       <path d="
M37.7969 64.3125
L12.8906 25.3906
L37.7969 25.3906
z

M35.2031 72.9062
L47.6094 72.9062
L47.6094 25.3906
L58.0156 25.3906
L58.0156 17.1875
L47.6094 17.1875
L47.6094 0
L37.7969 0
L37.7969 17.1875
L4.89062 17.1875
L4.89062 26.7031
z
" id="BitstreamVeraSans-Roman-34"/>
      </defs>
      <g transform="translate(33.237125 77.0416048951)scale(0.12 -0.12)">
       <use xlink:href="#BitstreamVeraSans-Roman-34"/>
       <use x="63.623046875" xlink:href="#BitstreamVeraSans-Roman-30"/>
      </g>
     </g>
    </g>
    <g id="ytick_4">
     <g id="line2d_22">
      <g>
       <use style="stroke:#000000;stroke-width:0.5;" x="51.123375" xlink:href="#m728421d6d4" y="60.0279073427"/>
      </g>
     </g>
     <g id="line2d_23">
      <g>
       <use style="stroke:#000000;stroke-width:0.5;" x="707.04" xlink:href="#mcb0005524f" y="60.0279073427"/>
      </g>
     </g>
     <g id="text_12">
      <!-- 60 -->
      <defs>
       <path d="
M33.0156 40.375
Q26.375 40.375 22.4844 35.8281
Q18.6094 31.2969 18.6094 23.3906
Q18.6094 15.5312 22.4844 10.9531
Q26.375 6.39062 33.0156 6.39062
Q39.6562 6.39062 43.5312 10.9531
Q47.4062 15.5312 47.4062 23.3906
Q47.4062 31.2969 43.5312 35.8281
Q39.6562 40.375 33.0156 40.375
M52.5938 71.2969
L52.5938 62.3125
Q48.875 64.0625 45.0938 64.9844
Q41.3125 65.9219 37.5938 65.9219
Q27.8281 65.9219 22.6719 59.3281
Q17.5312 52.7344 16.7969 39.4062
Q19.6719 43.6562 24.0156 45.9219
Q28.375 48.1875 33.5938 48.1875
Q44.5781 48.1875 50.9531 41.5156
Q57.3281 34.8594 57.3281 23.3906
Q57.3281 12.1562 50.6875 5.35938
Q44.0469 -1.42188 33.0156 -1.42188
Q20.3594 -1.42188 13.6719 8.26562
Q6.98438 17.9688 6.98438 36.375
Q6.98438 53.6562 15.1875 63.9375
Q23.3906 74.2188 37.2031 74.2188
Q40.9219 74.2188 44.7031 73.4844
Q48.4844 72.75 52.5938 71.2969" id="BitstreamVeraSans-Roman-36"/>
      </defs>
      <g transform="translate(33.488375 63.3391573427)scale(0.12 -0.12)">
       <use xlink:href="#BitstreamVeraSans-Roman-36"/>
       <use x="63.623046875" xlink:href="#BitstreamVeraSans-Roman-30"/>
      </g>
     </g>
    </g>
    <g id="ytick_5">
     <g id="line2d_24">
      <g>
       <use style="stroke:#000000;stroke-width:0.5;" x="51.123375" xlink:href="#m728421d6d4" y="46.3254597902"/>
      </g>
     </g>
     <g id="line2d_25">
      <g>
       <use style="stroke:#000000;stroke-width:0.5;" x="707.04" xlink:href="#mcb0005524f" y="46.3254597902"/>
      </g>
     </g>
     <g id="text_13">
      <!-- 80 -->
      <defs>
       <path d="
M31.7812 34.625
Q24.75 34.625 20.7188 30.8594
Q16.7031 27.0938 16.7031 20.5156
Q16.7031 13.9219 20.7188 10.1562
Q24.75 6.39062 31.7812 6.39062
Q38.8125 6.39062 42.8594 10.1719
Q46.9219 13.9688 46.9219 20.5156
Q46.9219 27.0938 42.8906 30.8594
Q38.875 34.625 31.7812 34.625
M21.9219 38.8125
Q15.5781 40.375 12.0312 44.7188
Q8.5 49.0781 8.5 55.3281
Q8.5 64.0625 14.7188 69.1406
Q20.9531 74.2188 31.7812 74.2188
Q42.6719 74.2188 48.875 69.1406
Q55.0781 64.0625 55.0781 55.3281
Q55.0781 49.0781 51.5312 44.7188
Q48 40.375 41.7031 38.8125
Q48.8281 37.1562 52.7969 32.3125
Q56.7812 27.4844 56.7812 20.5156
Q56.7812 9.90625 50.3125 4.23438
Q43.8438 -1.42188 31.7812 -1.42188
Q19.7344 -1.42188 13.25 4.23438
Q6.78125 9.90625 6.78125 20.5156
Q6.78125 27.4844 10.7812 32.3125
Q14.7969 37.1562 21.9219 38.8125
M18.3125 54.3906
Q18.3125 48.7344 21.8438 45.5625
Q25.3906 42.3906 31.7812 42.3906
Q38.1406 42.3906 41.7188 45.5625
Q45.3125 48.7344 45.3125 54.3906
Q45.3125 60.0625 41.7188 63.2344
Q38.1406 66.4062 31.7812 66.4062
Q25.3906 66.4062 21.8438 63.2344
Q18.3125 60.0625 18.3125 54.3906" id="BitstreamVeraSans-Roman-38"/>
      </defs>
      <g transform="translate(33.464 49.6367097902)scale(0.12 -0.12)">
       <use xlink:href="#BitstreamVeraSans-Roman-38"/>
       <use x="63.623046875" xlink:href="#BitstreamVeraSans-Roman-30"/>
      </g>
     </g>
    </g>
    <g id="ytick_6">
     <g id="line2d_26">
      <g>
       <use style="stroke:#000000;stroke-width:0.5;" x="51.123375" xlink:href="#m728421d6d4" y="32.6230122378"/>
      </g>
     </g>
     <g id="line2d_27">
      <g>
       <use style="stroke:#000000;stroke-width:0.5;" x="707.04" xlink:href="#mcb0005524f" y="32.6230122378"/>
      </g>
     </g>
     <g id="text_14">
      <!-- 100 -->
      <g transform="translate(26.333375 35.9342622378)scale(0.12 -0.12)">
       <use xlink:href="#BitstreamVeraSans-Roman-31"/>
       <use x="63.623046875" xlink:href="#BitstreamVeraSans-Roman-30"/>
       <use x="127.24609375" xlink:href="#BitstreamVeraSans-Roman-30"/>
      </g>
     </g>
    </g>
    <g id="ytick_7">
     <g id="line2d_28">
      <g>
       <use style="stroke:#000000;stroke-width:0.5;" x="51.123375" xlink:href="#m728421d6d4" y="18.9205646853"/>
      </g>
     </g>
     <g id="line2d_29">
      <g>
       <use style="stroke:#000000;stroke-width:0.5;" x="707.04" xlink:href="#mcb0005524f" y="18.9205646853"/>
      </g>
     </g>
     <g id="text_15">
      <!-- 120 -->
      <g transform="translate(26.333375 22.2318146853)scale(0.12 -0.12)">
       <use xlink:href="#BitstreamVeraSans-Roman-31"/>
       <use x="63.623046875" xlink:href="#BitstreamVeraSans-Roman-32"/>
       <use x="127.24609375" xlink:href="#BitstreamVeraSans-Roman-30"/>
      </g>
     </g>
    </g>
    <g id="text_16">
     <!-- Elevation, m -->
     <defs>
      <path d="
M2.98438 54.6875
L12.5 54.6875
L29.5938 8.79688
L46.6875 54.6875
L56.2031 54.6875
L35.6875 0
L23.4844 0
z
" id="BitstreamVeraSans-Roman-76"/>
      <path d="
M9.8125 72.9062
L55.9062 72.9062
L55.9062 64.5938
L19.6719 64.5938
L19.6719 43.0156
L54.3906 43.0156
L54.3906 34.7188
L19.6719 34.7188
L19.6719 8.29688
L56.7812 8.29688
L56.7812 0
L9.8125 0
z
" id="BitstreamVeraSans-Roman-45"/>
      <path d="
M30.6094 48.3906
Q23.3906 48.3906 19.1875 42.75
Q14.9844 37.1094 14.9844 27.2969
Q14.9844 17.4844 19.1562 11.8438
Q23.3438 6.20312 30.6094 6.20312
Q37.7969 6.20312 41.9844 11.8594
Q46.1875 17.5312 46.1875 27.2969
Q46.1875 37.0156 41.9844 42.7031
Q37.7969 48.3906 30.6094 48.3906
M30.6094 56
Q42.3281 56 49.0156 48.375
Q55.7188 40.7656 55.7188 27.2969
Q55.7188 13.875 49.0156 6.21875
Q42.3281 -1.42188 30.6094 -1.42188
Q18.8438 -1.42188 12.1719 6.21875
Q5.51562 13.875 5.51562 27.2969
Q5.51562 40.7656 12.1719 48.375
Q18.8438 56 30.6094 56" id="BitstreamVeraSans-Roman-6f"/>
      <path d="
M9.42188 75.9844
L18.4062 75.9844
L18.4062 0
L9.42188 0
z
" id="BitstreamVeraSans-Roman-6c"/>
     </defs>
     <g transform="translate(18.83775 94.067625)rotate(-90.0)scale(0.12 -0.12)">
      <use xlink:href="#BitstreamVeraSans-Roman-45"/>
      <use x="63.18359375" xlink:href="#BitstreamVeraSans-Roman-6c"/>
      <use x="90.966796875" xlink:href="#BitstreamVeraSans-Roman-65"/>
      <use x="152.490234375" xlink:href="#BitstreamVeraSans-Roman-76"/>
      <use x="211.669921875" xlink:href="#BitstreamVeraSans-Roman-61"/>
      <use x="272.94921875" xlink:href="#BitstreamVeraSans-Roman-74"/>
      <use x="312.158203125" xlink:href="#BitstreamVeraSans-Roman-69"/>
      <use x="339.94140625" xlink:href="#BitstreamVeraSans-Roman-6f"/>
      <use x="401.123046875" xlink:href="#BitstreamVeraSans-Roman-6e"/>
      <use x="464.501953125" xlink:href="#BitstreamVeraSans-Roman-2c"/>
      <use x="496.2890625" xlink:href="#BitstreamVeraSans-Roman-20"/>
      <use x="528.076171875" xlink:href="#BitstreamVeraSans-Roman-6d"/>
     </g>
    </g>
   </g>
   <g id="patch_3">
    <path d="
M51.1234 12.96
L707.04 12.96" style="fill:none;stroke:#000000;"/>
   </g>
   <g id="patch_4">
    <path d="
M707.04 101.135
L707.04 12.96" style="fill:none;stroke:#000000;"/>
   </g>
   <g id="patch_5">
    <path d="
M51.1234 101.135
L707.04 101.135" style="fill:none;stroke:#000000;"/>
   </g>
   <g id="patch_6">
    <path d="
M51.1234 101.135
L51.1234 12.96" style="fill:none;stroke:#000000;"/>
   </g>
  </g>
 </g>
 <defs>
  <clipPath id="p09e0ffbc2e">
   <rect height="88.17525" width="655.916625" x="51.123375" y="12.96"/>
  </clipPath>
 </defs>
</svg>
