<?xml version="1.0" encoding="utf-8" standalone="no"?>
<!DOCTYPE svg PUBLIC "-//W3C//DTD SVG 1.1//EN"
  "http://www.w3.org/Graphics/SVG/1.1/DTD/svg11.dtd">
<!-- Created with matplotlib (http://matplotlib.org/) -->
<svg height="144pt" version="1.1" viewBox="0 0 720 144" width="720pt" xmlns="http://www.w3.org/2000/svg" xmlns:xlink="http://www.w3.org/1999/xlink">
 <defs>
  <style type="text/css">
*{stroke-linecap:square;stroke-linejoin:round;}
  </style>
 </defs>
 <g id="figure_1">
  <g id="patch_1">
   <path d="
M0 144
L720 144
L720 0
L0 0
z
" style="fill:#ffffff;"/>
  </g>
  <g id="axes_1">
   <g id="patch_2">
    <path d="
M54.4303 101.34
L707.04 101.34
L707.04 12.96
L54.4303 12.96
z
" style="fill:#ffffff;"/>
   </g>
   <g id="PolyCollection_1">
    <defs>
     <path d="
M54.4303 -42.66
L54.4303 -72.8754
L54.8864 -72.8754
L55.3778 -72.8754
L55.8829 -73.5621
L57.2135 -74.2488
L57.8159 -74.9355
L59.1352 -76.309
L60.0628 -77.6824
L61.1009 -76.309
L65.1133 -72.1887
L66.3741 -71.502
L66.8964 -71.502
L67.5206 -71.502
L69.1445 -70.8152
L70.8125 -70.8152
L71.7582 -70.1285
L77.3473 -69.4418
L78.259 -69.4418
L79.5095 -69.4418
L80.6135 -69.4418
L82.1152 -70.1285
L83.8898 -71.502
L86.2179 -73.5621
L87.1493 -74.2488
L87.8195 -74.9355
L99.0112 -87.2964
L99.6753 -88.6698
L99.6968 -88.6698
L101.734 -92.1034
L102.517 -94.1635
L103.72 -98.2838
L106.041 -105.838
L107.903 -108.584
L108.57 -109.958
L111.513 -112.018
L113.32 -111.331
L114.901 -111.331
L116.343 -110.645
L119.551 -109.271
L122.061 -109.271
L122.645 -108.584
L123.219 -108.584
L128.466 -105.838
L130.929 -105.151
L132.93 -107.898
L132.93 -107.898
L135.316 -109.958
L136.295 -107.898
L137.308 -105.838
L141.052 -106.524
L146.139 -111.331
L147.02 -110.645
L161.844 -110.645
L163.024 -109.958
L164.816 -109.271
L168.282 -112.018
L171.706 -114.765
L173.504 -114.765
L174.247 -115.452
L174.247 -115.452
L175.734 -113.391
L177.578 -111.331
L178.425 -112.018
L181.803 -117.512
L182.08 -117.512
L186.381 -118.885
L188.985 -118.198
L191.141 -116.138
L191.909 -116.825
L194.069 -118.885
L195.931 -121.632
L196.837 -123.005
L197.599 -121.632
L199.885 -117.512
L200.176 -116.825
L203.081 -116.825
L203.519 -116.825
L204.175 -117.512
L206.852 -119.572
L210.429 -114.078
L218.111 -101.717
L218.128 -101.031
L221.728 -96.2236
L221.907 -96.2236
L223.29 -96.9103
L232.74 -103.091
L235.967 -105.151
L238.684 -107.211
L252.403 -106.524
L261.26 -109.958
L261.26 -109.958
L262.255 -109.958
L263.322 -109.958
L269.638 -110.645
L272.24 -111.331
L274.459 -109.958
L276.927 -107.898
L278.306 -108.584
L279.556 -109.271
L280.891 -109.271
L283.596 -109.958
L284.506 -108.584
L286.396 -107.211
L287.128 -106.524
L288.307 -105.838
L288.699 -105.838
L290.584 -101.717
L291.242 -100.344
L292.114 -99.6572
L293.573 -98.9705
L299.675 -101.717
L300.136 -100.344
L300.566 -99.6572
L302.082 -96.9103
L302.705 -96.2236
L303.638 -96.2236
L304.878 -96.2236
L306.43 -96.2236
L310.508 -96.2236
L312.328 -96.2236
L312.328 -96.2236
L318.1 -97.5971
L323.25 -95.5369
L325.38 -91.4166
L327.275 -89.3565
L331.979 -86.6097
L338.44 -86.6097
L339.544 -85.9229
L340.888 -85.2362
L342.876 -84.5495
L344.547 -82.4894
L348.857 -78.3691
L351.747 -79.0558
L352.547 -79.0558
L352.563 -79.0558
L353.153 -79.0558
L353.947 -79.0558
L354.89 -79.0558
L355.888 -79.0558
L357.321 -80.4292
L358.057 -82.4894
L364.556 -105.838
L374.627 -116.825
L374.627 -116.825
L381.903 -122.319
L386.678 -112.018
L387.375 -109.958
L387.835 -109.271
L390.835 -103.777
L392.778 -98.9705
L392.794 -98.2838
L404.27 -86.6097
L404.939 -86.6097
L407.068 -88.6698
L408.397 -87.9831
L416.509 -86.6097
L417.84 -85.2362
L419.657 -83.8628
L420.504 -82.4894
L421.285 -81.1159
L421.913 -80.4292
L423.453 -76.9957
L424.211 -75.6222
L424.211 -75.6222
L424.963 -76.309
L426.185 -79.0558
L426.732 -78.3691
L427.611 -78.3691
L428.16 -78.3691
L428.926 -79.0558
L432.772 -83.8628
L436.392 -87.9831
L440.442 -85.2362
L444.136 -81.1159
L452.482 -85.9229
L453.142 -85.9229
L454.061 -86.6097
L454.957 -87.9831
L457.86 -88.6698
L458.411 -87.9831
L460.741 -86.6097
L463.497 -82.4894
L471.386 -85.2362
L471.402 -84.5495
L484.291 -81.8027
L485.646 -81.8027
L488.192 -81.8027
L490.482 -80.4292
L493.088 -81.1159
L497.171 -79.7425
L506.742 -76.309
L510.691 -78.3691
L516.174 -77.6824
L516.666 -77.6824
L518.026 -77.6824
L518.894 -77.6824
L519.664 -79.0558
L521.185 -82.4894
L521.507 -81.8027
L521.834 -81.1159
L522.219 -80.4292
L526.711 -74.2488
L526.728 -74.2488
L534.815 -81.1159
L535.206 -80.4292
L536.01 -79.7425
L536.355 -79.7425
L541.555 -76.309
L542.302 -76.9957
L546.833 -82.4894
L547.458 -82.4894
L549.528 -85.2362
L550.463 -85.2362
L556.484 -89.3565
L556.941 -89.3565
L557.263 -89.3565
L558.084 -89.3565
L559.62 -89.3565
L561.145 -89.3565
L562.33 -89.3565
L563.433 -89.3565
L564.897 -88.6698
L567.652 -88.6698
L568.699 -87.9831
L572.246 -85.9229
L573.161 -84.5495
L573.999 -83.1761
L576.502 -80.4292
L577.084 -80.4292
L577.722 -81.1159
L577.983 -81.1159
L581.222 -83.8628
L581.222 -83.8628
L586.379 -88.6698
L586.603 -88.6698
L586.833 -88.6698
L587.931 -88.6698
L589.878 -88.6698
L590.412 -87.2964
L594.857 -81.8027
L598.792 -72.1887
L600.631 -68.7551
L600.997 -68.7551
L611.461 -77.6824
L611.895 -77.6824
L613.344 -77.6824
L613.697 -77.6824
L618.821 -73.5621
L621.165 -70.1285
L621.662 -70.1285
L625.024 -70.1285
L626.065 -70.1285
L626.77 -70.1285
L628.78 -70.1285
L633.01 -82.4894
L634.015 -83.1761
L634.627 -83.8628
L634.955 -83.8628
L635.621 -85.2362
L645.37 -66.695
L646.118 -66.695
L647.857 -66.695
L649.451 -64.6348
L652.852 -61.888
L653.647 -61.888
L655.552 -61.888
L656.574 -62.5747
L657.153 -63.2614
L660.095 -67.3817
L664.962 -68.7551
L666.835 -68.7551
L666.852 -68.0684
L674.959 -63.2614
L686.308 -73.5621
L686.308 -73.5621
L691.968 -72.8754
L694.43 -70.1285
L694.677 -70.1285
L695.182 -70.1285
L696.732 -70.8152
L698.679 -71.502
L699.5 -71.502
L700.551 -71.502
L707.04 -72.8754
L707.04 -42.66
L707.04 -42.66
L700.551 -42.66
L699.5 -42.66
L698.679 -42.66
L696.732 -42.66
L695.182 -42.66
L694.677 -42.66
L694.43 -42.66
L691.968 -42.66
L686.308 -42.66
L686.308 -42.66
L674.959 -42.66
L666.852 -42.66
L666.835 -42.66
L664.962 -42.66
L660.095 -42.66
L657.153 -42.66
L656.574 -42.66
L655.552 -42.66
L653.647 -42.66
L652.852 -42.66
L649.451 -42.66
L647.857 -42.66
L646.118 -42.66
L645.37 -42.66
L635.621 -42.66
L634.955 -42.66
L634.627 -42.66
L634.015 -42.66
L633.01 -42.66
L628.78 -42.66
L626.77 -42.66
L626.065 -42.66
L625.024 -42.66
L621.662 -42.66
L621.165 -42.66
L618.821 -42.66
L613.697 -42.66
L613.344 -42.66
L611.895 -42.66
L611.461 -42.66
L600.997 -42.66
L600.631 -42.66
L598.792 -42.66
L594.857 -42.66
L590.412 -42.66
L589.878 -42.66
L587.931 -42.66
L586.833 -42.66
L586.603 -42.66
L586.379 -42.66
L581.222 -42.66
L581.222 -42.66
L577.983 -42.66
L577.722 -42.66
L577.084 -42.66
L576.502 -42.66
L573.999 -42.66
L573.161 -42.66
L572.246 -42.66
L568.699 -42.66
L567.652 -42.66
L564.897 -42.66
L563.433 -42.66
L562.33 -42.66
L561.145 -42.66
L559.62 -42.66
L558.084 -42.66
L557.263 -42.66
L556.941 -42.66
L556.484 -42.66
L550.463 -42.66
L549.528 -42.66
L547.458 -42.66
L546.833 -42.66
L542.302 -42.66
L541.555 -42.66
L536.355 -42.66
L536.01 -42.66
L535.206 -42.66
L534.815 -42.66
L526.728 -42.66
L526.711 -42.66
L522.219 -42.66
L521.834 -42.66
L521.507 -42.66
L521.185 -42.66
L519.664 -42.66
L518.894 -42.66
L518.026 -42.66
L516.666 -42.66
L516.174 -42.66
L510.691 -42.66
L506.742 -42.66
L497.171 -42.66
L493.088 -42.66
L490.482 -42.66
L488.192 -42.66
L485.646 -42.66
L484.291 -42.66
L471.402 -42.66
L471.386 -42.66
L463.497 -42.66
L460.741 -42.66
L458.411 -42.66
L457.86 -42.66
L454.957 -42.66
L454.061 -42.66
L453.142 -42.66
L452.482 -42.66
L444.136 -42.66
L440.442 -42.66
L436.392 -42.66
L432.772 -42.66
L428.926 -42.66
L428.16 -42.66
L427.611 -42.66
L426.732 -42.66
L426.185 -42.66
L424.963 -42.66
L424.211 -42.66
L424.211 -42.66
L423.453 -42.66
L421.913 -42.66
L421.285 -42.66
L420.504 -42.66
L419.657 -42.66
L417.84 -42.66
L416.509 -42.66
L408.397 -42.66
L407.068 -42.66
L404.939 -42.66
L404.27 -42.66
L392.794 -42.66
L392.778 -42.66
L390.835 -42.66
L387.835 -42.66
L387.375 -42.66
L386.678 -42.66
L381.903 -42.66
L374.627 -42.66
L374.627 -42.66
L364.556 -42.66
L358.057 -42.66
L357.321 -42.66
L355.888 -42.66
L354.89 -42.66
L353.947 -42.66
L353.153 -42.66
L352.563 -42.66
L352.547 -42.66
L351.747 -42.66
L348.857 -42.66
L344.547 -42.66
L342.876 -42.66
L340.888 -42.66
L339.544 -42.66
L338.44 -42.66
L331.979 -42.66
L327.275 -42.66
L325.38 -42.66
L323.25 -42.66
L318.1 -42.66
L312.328 -42.66
L312.328 -42.66
L310.508 -42.66
L306.43 -42.66
L304.878 -42.66
L303.638 -42.66
L302.705 -42.66
L302.082 -42.66
L300.566 -42.66
L300.136 -42.66
L299.675 -42.66
L293.573 -42.66
L292.114 -42.66
L291.242 -42.66
L290.584 -42.66
L288.699 -42.66
L288.307 -42.66
L287.128 -42.66
L286.396 -42.66
L284.506 -42.66
L283.596 -42.66
L280.891 -42.66
L279.556 -42.66
L278.306 -42.66
L276.927 -42.66
L274.459 -42.66
L272.24 -42.66
L269.638 -42.66
L263.322 -42.66
L262.255 -42.66
L261.26 -42.66
L261.26 -42.66
L252.403 -42.66
L238.684 -42.66
L235.967 -42.66
L232.74 -42.66
L223.29 -42.66
L221.907 -42.66
L221.728 -42.66
L218.128 -42.66
L218.111 -42.66
L210.429 -42.66
L206.852 -42.66
L204.175 -42.66
L203.519 -42.66
L203.081 -42.66
L200.176 -42.66
L199.885 -42.66
L197.599 -42.66
L196.837 -42.66
L195.931 -42.66
L194.069 -42.66
L191.909 -42.66
L191.141 -42.66
L188.985 -42.66
L186.381 -42.66
L182.08 -42.66
L181.803 -42.66
L178.425 -42.66
L177.578 -42.66
L175.734 -42.66
L174.247 -42.66
L174.247 -42.66
L173.504 -42.66
L171.706 -42.66
L168.282 -42.66
L164.816 -42.66
L163.024 -42.66
L161.844 -42.66
L147.02 -42.66
L146.139 -42.66
L141.052 -42.66
L137.308 -42.66
L136.295 -42.66
L135.316 -42.66
L132.93 -42.66
L132.93 -42.66
L130.929 -42.66
L128.466 -42.66
L123.219 -42.66
L122.645 -42.66
L122.061 -42.66
L119.551 -42.66
L116.343 -42.66
L114.901 -42.66
L113.32 -42.66
L111.513 -42.66
L108.57 -42.66
L107.903 -42.66
L106.041 -42.66
L103.72 -42.66
L102.517 -42.66
L101.734 -42.66
L99.6968 -42.66
L99.6753 -42.66
L99.0112 -42.66
L87.8195 -42.66
L87.1493 -42.66
L86.2179 -42.66
L83.8898 -42.66
L82.1152 -42.66
L80.6135 -42.66
L79.5095 -42.66
L78.259 -42.66
L77.3473 -42.66
L71.7582 -42.66
L70.8125 -42.66
L69.1445 -42.66
L67.5206 -42.66
L66.8964 -42.66
L66.3741 -42.66
L65.1133 -42.66
L61.1009 -42.66
L60.0628 -42.66
L59.1352 -42.66
L57.8159 -42.66
L57.2135 -42.66
L55.8829 -42.66
L55.3778 -42.66
L54.8864 -42.66
L54.4303 -42.66
z
" id="C0_0_8c5a420998"/>
    </defs>
    <g clip-path="url(#pa8176fee34)">
     <use style="fill:#0000ff;opacity:0.3;stroke:#0000ff;stroke-linecap:butt;" x="0" xlink:href="#C0_0_8c5a420998" y="144.0"/>
    </g>
   </g>
   <g id="line2d_1">
    <path clip-path="url(#pa8176fee34)" d="
M54.4303 71.1246
L55.3778 71.1246
L55.8829 70.4379
L57.2135 69.7512
L59.1352 67.691
L60.0628 66.3176
L61.1009 67.691
L65.1133 71.8113
L66.3741 72.498
L67.5206 72.498
L69.1445 73.1848
L70.8125 73.1848
L71.7582 73.8715
L77.3473 74.5582
L80.6135 74.5582
L82.1152 73.8715
L83.8898 72.498
L87.8195 69.0645
L99.0112 56.7036
L99.6968 55.3302
L101.734 51.8966
L102.517 49.8365
L106.041 38.1624
L107.903 35.4155
L108.57 34.0421
L111.513 31.982
L113.32 32.6687
L114.901 32.6687
L116.343 33.3554
L119.551 34.7288
L122.061 34.7288
L122.645 35.4155
L123.219 35.4155
L128.466 38.1624
L130.929 38.8491
L132.93 36.1022
L132.93 36.1022
L135.316 34.0421
L137.308 38.1624
L141.052 37.4757
L146.139 32.6687
L147.02 33.3554
L161.844 33.3554
L163.024 34.0421
L164.816 34.7288
L171.706 29.2351
L173.504 29.2351
L174.247 28.5484
L174.247 28.5484
L175.734 30.6085
L177.578 32.6687
L178.425 31.982
L181.803 26.4883
L182.08 26.4883
L186.381 25.1148
L188.985 25.8015
L191.141 27.8617
L194.069 25.1148
L196.837 20.9945
L200.176 27.175
L203.519 27.175
L204.175 26.4883
L206.852 24.4281
L210.429 29.9218
L218.111 42.2827
L218.128 42.9694
L221.728 47.7764
L221.907 47.7764
L223.29 47.0897
L235.967 38.8491
L238.684 36.789
L252.403 37.4757
L261.26 34.0421
L261.26 34.0421
L263.322 34.0421
L269.638 33.3554
L272.24 32.6687
L274.459 34.0421
L276.927 36.1022
L279.556 34.7288
L280.891 34.7288
L283.596 34.0421
L284.506 35.4155
L286.396 36.789
L287.128 37.4757
L288.307 38.1624
L288.699 38.1624
L291.242 43.6561
L292.114 44.3428
L293.573 45.0295
L299.675 42.2827
L300.136 43.6561
L300.566 44.3428
L302.082 47.0897
L302.705 47.7764
L312.328 47.7764
L312.328 47.7764
L318.1 46.4029
L323.25 48.4631
L325.38 52.5834
L327.275 54.6435
L331.979 57.3903
L338.44 57.3903
L339.544 58.0771
L340.888 58.7638
L342.876 59.4505
L344.547 61.5106
L348.857 65.6309
L351.747 64.9442
L355.888 64.9442
L357.321 63.5708
L358.057 61.5106
L364.556 38.1624
L374.627 27.175
L374.627 27.175
L381.903 21.6813
L386.678 31.982
L387.375 34.0421
L387.835 34.7288
L390.835 40.2225
L392.778 45.0295
L392.794 45.7162
L404.27 57.3903
L404.939 57.3903
L407.068 55.3302
L408.397 56.0169
L416.509 57.3903
L417.84 58.7638
L419.657 60.1372
L421.285 62.8841
L421.913 63.5708
L423.453 67.0043
L424.211 68.3778
L424.211 68.3778
L424.963 67.691
L426.185 64.9442
L426.732 65.6309
L428.16 65.6309
L428.926 64.9442
L432.772 60.1372
L436.392 56.0169
L440.442 58.7638
L444.136 62.8841
L452.482 58.0771
L453.142 58.0771
L454.061 57.3903
L454.957 56.0169
L457.86 55.3302
L458.411 56.0169
L460.741 57.3903
L463.497 61.5106
L471.386 58.7638
L471.402 59.4505
L484.291 62.1973
L488.192 62.1973
L490.482 63.5708
L493.088 62.8841
L497.171 64.2575
L506.742 67.691
L510.691 65.6309
L516.666 66.3176
L518.894 66.3176
L519.664 64.9442
L521.185 61.5106
L522.219 63.5708
L526.728 69.7512
L534.815 62.8841
L535.206 63.5708
L536.01 64.2575
L536.355 64.2575
L541.555 67.691
L542.302 67.0043
L546.833 61.5106
L547.458 61.5106
L549.528 58.7638
L550.463 58.7638
L556.484 54.6435
L563.433 54.6435
L564.897 55.3302
L567.652 55.3302
L568.699 56.0169
L572.246 58.0771
L573.999 60.8239
L576.502 63.5708
L577.084 63.5708
L577.722 62.8841
L577.983 62.8841
L581.222 60.1372
L581.222 60.1372
L586.379 55.3302
L589.878 55.3302
L590.412 56.7036
L594.857 62.1973
L598.792 71.8113
L600.631 75.2449
L600.997 75.2449
L611.461 66.3176
L613.697 66.3176
L618.821 70.4379
L621.165 73.8715
L628.78 73.8715
L633.01 61.5106
L634.015 60.8239
L634.627 60.1372
L634.955 60.1372
L635.621 58.7638
L645.37 77.305
L647.857 77.305
L649.451 79.3652
L652.852 82.112
L655.552 82.112
L656.574 81.4253
L657.153 80.7386
L660.095 76.6183
L664.962 75.2449
L666.835 75.2449
L666.852 75.9316
L674.959 80.7386
L686.308 70.4379
L686.308 70.4379
L691.968 71.1246
L694.43 73.8715
L695.182 73.8715
L696.732 73.1848
L698.679 72.498
L700.551 72.498
L707.04 71.1246
L707.04 71.1246" style="fill:none;stroke:#0000ff;stroke-width:2;"/>
   </g>
   <g id="matplotlib.axis_1">
    <g id="xtick_1">
     <g id="line2d_2">
      <defs>
       <path d="
M0 0
L0 -4" id="mcb557df647" style="stroke:#000000;stroke-linecap:butt;stroke-width:0.5;"/>
      </defs>
      <g>
       <use style="stroke:#000000;stroke-linecap:butt;stroke-width:0.5;" x="54.4303125" xlink:href="#mcb557df647" y="101.34"/>
      </g>
     </g>
     <g id="line2d_3">
      <defs>
       <path d="
M0 0
L0 4" id="mdad270ee8e" style="stroke:#000000;stroke-linecap:butt;stroke-width:0.5;"/>
      </defs>
      <g>
       <use style="stroke:#000000;stroke-linecap:butt;stroke-width:0.5;" x="54.4303125" xlink:href="#mdad270ee8e" y="12.96"/>
      </g>
     </g>
     <g id="text_1">
      <!-- 0 -->
      <defs>
       <path d="
M31.7812 66.4062
Q24.1719 66.4062 20.3281 58.9062
Q16.5 51.4219 16.5 36.375
Q16.5 21.3906 20.3281 13.8906
Q24.1719 6.39062 31.7812 6.39062
Q39.4531 6.39062 43.2812 13.8906
Q47.125 21.3906 47.125 36.375
Q47.125 51.4219 43.2812 58.9062
Q39.4531 66.4062 31.7812 66.4062
M31.7812 74.2188
Q44.0469 74.2188 50.5156 64.5156
Q56.9844 54.8281 56.9844 36.375
Q56.9844 17.9688 50.5156 8.26562
Q44.0469 -1.42188 31.7812 -1.42188
Q19.5312 -1.42188 13.0625 8.26562
Q6.59375 17.9688 6.59375 36.375
Q6.59375 54.8281 13.0625 64.5156
Q19.5312 74.2188 31.7812 74.2188" id="BitstreamVeraSans-Roman-30"/>
      </defs>
      <g transform="translate(51.406875 114.24625)scale(0.12 -0.12)">
       <use xlink:href="#BitstreamVeraSans-Roman-30"/>
      </g>
     </g>
    </g>
    <g id="xtick_2">
     <g id="line2d_4">
      <g>
       <use style="stroke:#000000;stroke-linecap:butt;stroke-width:0.5;" x="151.076911417" xlink:href="#mcb557df647" y="101.34"/>
      </g>
     </g>
     <g id="line2d_5">
      <g>
       <use style="stroke:#000000;stroke-linecap:butt;stroke-width:0.5;" x="151.076911417" xlink:href="#mdad270ee8e" y="12.96"/>
      </g>
     </g>
     <g id="text_2">
      <!-- 5 -->
      <defs>
       <path d="
M10.7969 72.9062
L49.5156 72.9062
L49.5156 64.5938
L19.8281 64.5938
L19.8281 46.7344
Q21.9688 47.4688 24.1094 47.8281
Q26.2656 48.1875 28.4219 48.1875
Q40.625 48.1875 47.75 41.5
Q54.8906 34.8125 54.8906 23.3906
Q54.8906 11.625 47.5625 5.09375
Q40.2344 -1.42188 26.9062 -1.42188
Q22.3125 -1.42188 17.5469 -0.640625
Q12.7969 0.140625 7.71875 1.70312
L7.71875 11.625
Q12.1094 9.23438 16.7969 8.0625
Q21.4844 6.89062 26.7031 6.89062
Q35.1562 6.89062 40.0781 11.3281
Q45.0156 15.7656 45.0156 23.3906
Q45.0156 31 40.0781 35.4375
Q35.1562 39.8906 26.7031 39.8906
Q22.75 39.8906 18.8125 39.0156
Q14.8906 38.1406 10.7969 36.2812
z
" id="BitstreamVeraSans-Roman-35"/>
      </defs>
      <g transform="translate(148.246598917 114.08875)scale(0.12 -0.12)">
       <use xlink:href="#BitstreamVeraSans-Roman-35"/>
      </g>
     </g>
    </g>
    <g id="xtick_3">
     <g id="line2d_6">
      <g>
       <use style="stroke:#000000;stroke-linecap:butt;stroke-width:0.5;" x="247.723510334" xlink:href="#mcb557df647" y="101.34"/>
      </g>
     </g>
     <g id="line2d_7">
      <g>
       <use style="stroke:#000000;stroke-linecap:butt;stroke-width:0.5;" x="247.723510334" xlink:href="#mdad270ee8e" y="12.96"/>
      </g>
     </g>
     <g id="text_3">
      <!-- 10 -->
      <defs>
       <path d="
M12.4062 8.29688
L28.5156 8.29688
L28.5156 63.9219
L10.9844 60.4062
L10.9844 69.3906
L28.4219 72.9062
L38.2812 72.9062
L38.2812 8.29688
L54.3906 8.29688
L54.3906 0
L12.4062 0
z
" id="BitstreamVeraSans-Roman-31"/>
      </defs>
      <g transform="translate(241.146010334 114.24625)scale(0.12 -0.12)">
       <use xlink:href="#BitstreamVeraSans-Roman-31"/>
       <use x="63.623046875" xlink:href="#BitstreamVeraSans-Roman-30"/>
      </g>
     </g>
    </g>
    <g id="xtick_4">
     <g id="line2d_8">
      <g>
       <use style="stroke:#000000;stroke-linecap:butt;stroke-width:0.5;" x="344.370109252" xlink:href="#mcb557df647" y="101.34"/>
      </g>
     </g>
     <g id="line2d_9">
      <g>
       <use style="stroke:#000000;stroke-linecap:butt;stroke-width:0.5;" x="344.370109252" xlink:href="#mdad270ee8e" y="12.96"/>
      </g>
     </g>
     <g id="text_4">
      <!-- 15 -->
      <g transform="translate(337.918234252 114.08875)scale(0.12 -0.12)">
       <use xlink:href="#BitstreamVeraSans-Roman-31"/>
       <use x="63.623046875" xlink:href="#BitstreamVeraSans-Roman-35"/>
      </g>
     </g>
    </g>
    <g id="xtick_5">
     <g id="line2d_10">
      <g>
       <use style="stroke:#000000;stroke-linecap:butt;stroke-width:0.5;" x="441.016708169" xlink:href="#mcb557df647" y="101.34"/>
      </g>
     </g>
     <g id="line2d_11">
      <g>
       <use style="stroke:#000000;stroke-linecap:butt;stroke-width:0.5;" x="441.016708169" xlink:href="#mdad270ee8e" y="12.96"/>
      </g>
     </g>
     <g id="text_5">
      <!-- 20 -->
      <defs>
       <path d="
M19.1875 8.29688
L53.6094 8.29688
L53.6094 0
L7.32812 0
L7.32812 8.29688
Q12.9375 14.1094 22.625 23.8906
Q32.3281 33.6875 34.8125 36.5312
Q39.5469 41.8438 41.4219 45.5312
Q43.3125 49.2188 43.3125 52.7812
Q43.3125 58.5938 39.2344 62.25
Q35.1562 65.9219 28.6094 65.9219
Q23.9688 65.9219 18.8125 64.3125
Q13.6719 62.7031 7.8125 59.4219
L7.8125 69.3906
Q13.7656 71.7812 18.9375 73
Q24.125 74.2188 28.4219 74.2188
Q39.75 74.2188 46.4844 68.5469
Q53.2188 62.8906 53.2188 53.4219
Q53.2188 48.9219 51.5312 44.8906
Q49.8594 40.875 45.4062 35.4062
Q44.1875 33.9844 37.6406 27.2188
Q31.1094 20.4531 19.1875 8.29688" id="BitstreamVeraSans-Roman-32"/>
      </defs>
      <g transform="translate(434.219833169 114.24625)scale(0.12 -0.12)">
       <use xlink:href="#BitstreamVeraSans-Roman-32"/>
       <use x="63.623046875" xlink:href="#BitstreamVeraSans-Roman-30"/>
      </g>
     </g>
    </g>
    <g id="xtick_6">
     <g id="line2d_12">
      <g>
       <use style="stroke:#000000;stroke-linecap:butt;stroke-width:0.5;" x="537.663307086" xlink:href="#mcb557df647" y="101.34"/>
      </g>
     </g>
     <g id="line2d_13">
      <g>
       <use style="stroke:#000000;stroke-linecap:butt;stroke-width:0.5;" x="537.663307086" xlink:href="#mdad270ee8e" y="12.96"/>
      </g>
     </g>
     <g id="text_6">
      <!-- 25 -->
      <g transform="translate(530.992057086 114.24625)scale(0.12 -0.12)">
       <use xlink:href="#BitstreamVeraSans-Roman-32"/>
       <use x="63.623046875" xlink:href="#BitstreamVeraSans-Roman-35"/>
      </g>
     </g>
    </g>
    <g id="xtick_7">
     <g id="line2d_14">
      <g>
       <use style="stroke:#000000;stroke-linecap:butt;stroke-width:0.5;" x="634.309906003" xlink:href="#mcb557df647" y="101.34"/>
      </g>
     </g>
     <g id="line2d_15">
      <g>
       <use style="stroke:#000000;stroke-linecap:butt;stroke-width:0.5;" x="634.309906003" xlink:href="#mdad270ee8e" y="12.96"/>
      </g>
     </g>
     <g id="text_7">
      <!-- 30 -->
      <defs>
       <path d="
M40.5781 39.3125
Q47.6562 37.7969 51.625 33
Q55.6094 28.2188 55.6094 21.1875
Q55.6094 10.4062 48.1875 4.48438
Q40.7656 -1.42188 27.0938 -1.42188
Q22.5156 -1.42188 17.6562 -0.515625
Q12.7969 0.390625 7.625 2.20312
L7.625 11.7188
Q11.7188 9.32812 16.5938 8.10938
Q21.4844 6.89062 26.8125 6.89062
Q36.0781 6.89062 40.9375 10.5469
Q45.7969 14.2031 45.7969 21.1875
Q45.7969 27.6406 41.2812 31.2656
Q36.7656 34.9062 28.7188 34.9062
L20.2188 34.9062
L20.2188 43.0156
L29.1094 43.0156
Q36.375 43.0156 40.2344 45.9219
Q44.0938 48.8281 44.0938 54.2969
Q44.0938 59.9062 40.1094 62.9062
Q36.1406 65.9219 28.7188 65.9219
Q24.6562 65.9219 20.0156 65.0312
Q15.375 64.1562 9.8125 62.3125
L9.8125 71.0938
Q15.4375 72.6562 20.3438 73.4375
Q25.25 74.2188 29.5938 74.2188
Q40.8281 74.2188 47.3594 69.1094
Q53.9062 64.0156 53.9062 55.3281
Q53.9062 49.2656 50.4375 45.0938
Q46.9688 40.9219 40.5781 39.3125" id="BitstreamVeraSans-Roman-33"/>
      </defs>
      <g transform="translate(627.530843503 114.24625)scale(0.12 -0.12)">
       <use xlink:href="#BitstreamVeraSans-Roman-33"/>
       <use x="63.623046875" xlink:href="#BitstreamVeraSans-Roman-30"/>
      </g>
     </g>
    </g>
    <g id="text_8">
     <!-- Distance, km -->
     <defs>
      <path id="BitstreamVeraSans-Roman-20"/>
      <path d="
M54.8906 33.0156
L54.8906 0
L45.9062 0
L45.9062 32.7188
Q45.9062 40.4844 42.875 44.3281
Q39.8438 48.1875 33.7969 48.1875
Q26.5156 48.1875 22.3125 43.5469
Q18.1094 38.9219 18.1094 30.9062
L18.1094 0
L9.07812 0
L9.07812 54.6875
L18.1094 54.6875
L18.1094 46.1875
Q21.3438 51.125 25.7031 53.5625
Q30.0781 56 35.7969 56
Q45.2188 56 50.0469 50.1719
Q54.8906 44.3438 54.8906 33.0156" id="BitstreamVeraSans-Roman-6e"/>
      <path d="
M52 44.1875
Q55.375 50.25 60.0625 53.125
Q64.75 56 71.0938 56
Q79.6406 56 84.2812 50.0156
Q88.9219 44.0469 88.9219 33.0156
L88.9219 0
L79.8906 0
L79.8906 32.7188
Q79.8906 40.5781 77.0938 44.375
Q74.3125 48.1875 68.6094 48.1875
Q61.625 48.1875 57.5625 43.5469
Q53.5156 38.9219 53.5156 30.9062
L53.5156 0
L44.4844 0
L44.4844 32.7188
Q44.4844 40.625 41.7031 44.4062
Q38.9219 48.1875 33.1094 48.1875
Q26.2188 48.1875 22.1562 43.5312
Q18.1094 38.875 18.1094 30.9062
L18.1094 0
L9.07812 0
L9.07812 54.6875
L18.1094 54.6875
L18.1094 46.1875
Q21.1875 51.2188 25.4844 53.6094
Q29.7812 56 35.6875 56
Q41.6562 56 45.8281 52.9688
Q50 49.9531 52 44.1875" id="BitstreamVeraSans-Roman-6d"/>
      <path d="
M9.07812 75.9844
L18.1094 75.9844
L18.1094 31.1094
L44.9219 54.6875
L56.3906 54.6875
L27.3906 29.1094
L57.625 0
L45.9062 0
L18.1094 26.7031
L18.1094 0
L9.07812 0
z
" id="BitstreamVeraSans-Roman-6b"/>
      <path d="
M11.7188 12.4062
L22.0156 12.4062
L22.0156 4
L14.0156 -11.625
L7.71875 -11.625
L11.7188 4
z
" id="BitstreamVeraSans-Roman-2c"/>
      <path d="
M19.6719 64.7969
L19.6719 8.10938
L31.5938 8.10938
Q46.6875 8.10938 53.6875 14.9375
Q60.6875 21.7812 60.6875 36.5312
Q60.6875 51.1719 53.6875 57.9844
Q46.6875 64.7969 31.5938 64.7969
z

M9.8125 72.9062
L30.0781 72.9062
Q51.2656 72.9062 61.1719 64.0938
Q71.0938 55.2812 71.0938 36.5312
Q71.0938 17.6719 61.125 8.82812
Q51.1719 0 30.0781 0
L9.8125 0
z
" id="BitstreamVeraSans-Roman-44"/>
      <path d="
M9.42188 54.6875
L18.4062 54.6875
L18.4062 0
L9.42188 0
z

M9.42188 75.9844
L18.4062 75.9844
L18.4062 64.5938
L9.42188 64.5938
z
" id="BitstreamVeraSans-Roman-69"/>
      <path d="
M56.2031 29.5938
L56.2031 25.2031
L14.8906 25.2031
Q15.4844 15.9219 20.4844 11.0625
Q25.4844 6.20312 34.4219 6.20312
Q39.5938 6.20312 44.4531 7.46875
Q49.3125 8.73438 54.1094 11.2812
L54.1094 2.78125
Q49.2656 0.734375 44.1875 -0.34375
Q39.1094 -1.42188 33.8906 -1.42188
Q20.7969 -1.42188 13.1562 6.1875
Q5.51562 13.8125 5.51562 26.8125
Q5.51562 40.2344 12.7656 48.1094
Q20.0156 56 32.3281 56
Q43.3594 56 49.7812 48.8906
Q56.2031 41.7969 56.2031 29.5938
M47.2188 32.2344
Q47.125 39.5938 43.0938 43.9844
Q39.0625 48.3906 32.4219 48.3906
Q24.9062 48.3906 20.3906 44.1406
Q15.875 39.8906 15.1875 32.1719
z
" id="BitstreamVeraSans-Roman-65"/>
      <path d="
M18.3125 70.2188
L18.3125 54.6875
L36.8125 54.6875
L36.8125 47.7031
L18.3125 47.7031
L18.3125 18.0156
Q18.3125 11.3281 20.1406 9.42188
Q21.9688 7.51562 27.5938 7.51562
L36.8125 7.51562
L36.8125 0
L27.5938 0
Q17.1875 0 13.2344 3.875
Q9.28125 7.76562 9.28125 18.0156
L9.28125 47.7031
L2.6875 47.7031
L2.6875 54.6875
L9.28125 54.6875
L9.28125 70.2188
z
" id="BitstreamVeraSans-Roman-74"/>
      <path d="
M34.2812 27.4844
Q23.3906 27.4844 19.1875 25
Q14.9844 22.5156 14.9844 16.5
Q14.9844 11.7188 18.1406 8.90625
Q21.2969 6.10938 26.7031 6.10938
Q34.1875 6.10938 38.7031 11.4062
Q43.2188 16.7031 43.2188 25.4844
L43.2188 27.4844
z

M52.2031 31.2031
L52.2031 0
L43.2188 0
L43.2188 8.29688
Q40.1406 3.32812 35.5469 0.953125
Q30.9531 -1.42188 24.3125 -1.42188
Q15.9219 -1.42188 10.9531 3.29688
Q6 8.01562 6 15.9219
Q6 25.1406 12.1719 29.8281
Q18.3594 34.5156 30.6094 34.5156
L43.2188 34.5156
L43.2188 35.4062
Q43.2188 41.6094 39.1406 45
Q35.0625 48.3906 27.6875 48.3906
Q23 48.3906 18.5469 47.2656
Q14.1094 46.1406 10.0156 43.8906
L10.0156 52.2031
Q14.9375 54.1094 19.5781 55.0469
Q24.2188 56 28.6094 56
Q40.4844 56 46.3438 49.8438
Q52.2031 43.7031 52.2031 31.2031" id="BitstreamVeraSans-Roman-61"/>
      <path d="
M44.2812 53.0781
L44.2812 44.5781
Q40.4844 46.5312 36.375 47.5
Q32.2812 48.4844 27.875 48.4844
Q21.1875 48.4844 17.8438 46.4375
Q14.5 44.3906 14.5 40.2812
Q14.5 37.1562 16.8906 35.375
Q19.2812 33.5938 26.5156 31.9844
L29.5938 31.2969
Q39.1562 29.25 43.1875 25.5156
Q47.2188 21.7812 47.2188 15.0938
Q47.2188 7.46875 41.1875 3.01562
Q35.1562 -1.42188 24.6094 -1.42188
Q20.2188 -1.42188 15.4531 -0.5625
Q10.6875 0.296875 5.42188 2
L5.42188 11.2812
Q10.4062 8.6875 15.2344 7.39062
Q20.0625 6.10938 24.8125 6.10938
Q31.1562 6.10938 34.5625 8.28125
Q37.9844 10.4531 37.9844 14.4062
Q37.9844 18.0625 35.5156 20.0156
Q33.0625 21.9688 24.7031 23.7812
L21.5781 24.5156
Q13.2344 26.2656 9.51562 29.9062
Q5.8125 33.5469 5.8125 39.8906
Q5.8125 47.6094 11.2812 51.7969
Q16.75 56 26.8125 56
Q31.7812 56 36.1719 55.2656
Q40.5781 54.5469 44.2812 53.0781" id="BitstreamVeraSans-Roman-73"/>
      <path d="
M48.7812 52.5938
L48.7812 44.1875
Q44.9688 46.2969 41.1406 47.3438
Q37.3125 48.3906 33.4062 48.3906
Q24.6562 48.3906 19.8125 42.8438
Q14.9844 37.3125 14.9844 27.2969
Q14.9844 17.2812 19.8125 11.7344
Q24.6562 6.20312 33.4062 6.20312
Q37.3125 6.20312 41.1406 7.25
Q44.9688 8.29688 48.7812 10.4062
L48.7812 2.09375
Q45.0156 0.34375 40.9844 -0.53125
Q36.9688 -1.42188 32.4219 -1.42188
Q20.0625 -1.42188 12.7812 6.34375
Q5.51562 14.1094 5.51562 27.2969
Q5.51562 40.6719 12.8594 48.3281
Q20.2188 56 33.0156 56
Q37.1562 56 41.1094 55.1406
Q45.0625 54.2969 48.7812 52.5938" id="BitstreamVeraSans-Roman-63"/>
     </defs>
     <g transform="translate(341.87671875 128.535)scale(0.12 -0.12)">
      <use xlink:href="#BitstreamVeraSans-Roman-44"/>
      <use x="77.001953125" xlink:href="#BitstreamVeraSans-Roman-69"/>
      <use x="104.78515625" xlink:href="#BitstreamVeraSans-Roman-73"/>
      <use x="156.884765625" xlink:href="#BitstreamVeraSans-Roman-74"/>
      <use x="196.09375" xlink:href="#BitstreamVeraSans-Roman-61"/>
      <use x="257.373046875" xlink:href="#BitstreamVeraSans-Roman-6e"/>
      <use x="320.751953125" xlink:href="#BitstreamVeraSans-Roman-63"/>
      <use x="375.732421875" xlink:href="#BitstreamVeraSans-Roman-65"/>
      <use x="437.255859375" xlink:href="#BitstreamVeraSans-Roman-2c"/>
      <use x="469.04296875" xlink:href="#BitstreamVeraSans-Roman-20"/>
      <use x="500.830078125" xlink:href="#BitstreamVeraSans-Roman-6b"/>
      <use x="558.740234375" xlink:href="#BitstreamVeraSans-Roman-6d"/>
     </g>
    </g>
   </g>
   <g id="matplotlib.axis_2">
    <g id="ytick_1">
     <g id="line2d_16">
      <defs>
       <path d="
M0 0
L4 0" id="mc8fcea1516" style="stroke:#000000;stroke-linecap:butt;stroke-width:0.5;"/>
      </defs>
      <g>
       <use style="stroke:#000000;stroke-linecap:butt;stroke-width:0.5;" x="54.4303125" xlink:href="#mc8fcea1516" y="101.34"/>
      </g>
     </g>
     <g id="line2d_17">
      <defs>
       <path d="
M0 0
L-4 0" id="m0d5b0a6425" style="stroke:#000000;stroke-linecap:butt;stroke-width:0.5;"/>
      </defs>
      <g>
       <use style="stroke:#000000;stroke-linecap:butt;stroke-width:0.5;" x="707.04" xlink:href="#m0d5b0a6425" y="101.34"/>
      </g>
     </g>
     <g id="text_9">
      <!-- 0 -->
      <g transform="translate(44.3834375 105.7078125)scale(0.12 -0.12)">
       <use xlink:href="#BitstreamVeraSans-Roman-30"/>
      </g>
     </g>
    </g>
    <g id="ytick_2">
     <g id="line2d_18">
      <g>
       <use style="stroke:#000000;stroke-linecap:butt;stroke-width:0.5;" x="54.4303125" xlink:href="#mc8fcea1516" y="87.6057342657"/>
      </g>
     </g>
     <g id="line2d_19">
      <g>
       <use style="stroke:#000000;stroke-linecap:butt;stroke-width:0.5;" x="707.04" xlink:href="#m0d5b0a6425" y="87.6057342657"/>
      </g>
     </g>
     <g id="text_10">
      <!-- 20 -->
      <g transform="translate(36.8365625 91.9735467657)scale(0.12 -0.12)">
       <use xlink:href="#BitstreamVeraSans-Roman-32"/>
       <use x="63.623046875" xlink:href="#BitstreamVeraSans-Roman-30"/>
      </g>
     </g>
    </g>
    <g id="ytick_3">
     <g id="line2d_20">
      <g>
       <use style="stroke:#000000;stroke-linecap:butt;stroke-width:0.5;" x="54.4303125" xlink:href="#mc8fcea1516" y="73.8714685315"/>
      </g>
     </g>
     <g id="line2d_21">
      <g>
       <use style="stroke:#000000;stroke-linecap:butt;stroke-width:0.5;" x="707.04" xlink:href="#m0d5b0a6425" y="73.8714685315"/>
      </g>
     </g>
     <g id="text_11">
      <!-- 40 -->
      <defs>
       <path d="
M37.7969 64.3125
L12.8906 25.3906
L37.7969 25.3906
z

M35.2031 72.9062
L47.6094 72.9062
L47.6094 25.3906
L58.0156 25.3906
L58.0156 17.1875
L47.6094 17.1875
L47.6094 0
L37.7969 0
L37.7969 17.1875
L4.89062 17.1875
L4.89062 26.7031
z
" id="BitstreamVeraSans-Roman-34"/>
      </defs>
      <g transform="translate(36.5440625 78.2392810315)scale(0.12 -0.12)">
       <use xlink:href="#BitstreamVeraSans-Roman-34"/>
       <use x="63.623046875" xlink:href="#BitstreamVeraSans-Roman-30"/>
      </g>
     </g>
    </g>
    <g id="ytick_4">
     <g id="line2d_22">
      <g>
       <use style="stroke:#000000;stroke-linecap:butt;stroke-width:0.5;" x="54.4303125" xlink:href="#mc8fcea1516" y="60.1372027972"/>
      </g>
     </g>
     <g id="line2d_23">
      <g>
       <use style="stroke:#000000;stroke-linecap:butt;stroke-width:0.5;" x="707.04" xlink:href="#m0d5b0a6425" y="60.1372027972"/>
      </g>
     </g>
     <g id="text_12">
      <!-- 60 -->
      <defs>
       <path d="
M33.0156 40.375
Q26.375 40.375 22.4844 35.8281
Q18.6094 31.2969 18.6094 23.3906
Q18.6094 15.5312 22.4844 10.9531
Q26.375 6.39062 33.0156 6.39062
Q39.6562 6.39062 43.5312 10.9531
Q47.4062 15.5312 47.4062 23.3906
Q47.4062 31.2969 43.5312 35.8281
Q39.6562 40.375 33.0156 40.375
M52.5938 71.2969
L52.5938 62.3125
Q48.875 64.0625 45.0938 64.9844
Q41.3125 65.9219 37.5938 65.9219
Q27.8281 65.9219 22.6719 59.3281
Q17.5312 52.7344 16.7969 39.4062
Q19.6719 43.6562 24.0156 45.9219
Q28.375 48.1875 33.5938 48.1875
Q44.5781 48.1875 50.9531 41.5156
Q57.3281 34.8594 57.3281 23.3906
Q57.3281 12.1562 50.6875 5.35938
Q44.0469 -1.42188 33.0156 -1.42188
Q20.3594 -1.42188 13.6719 8.26562
Q6.98438 17.9688 6.98438 36.375
Q6.98438 53.6562 15.1875 63.9375
Q23.3906 74.2188 37.2031 74.2188
Q40.9219 74.2188 44.7031 73.4844
Q48.4844 72.75 52.5938 71.2969" id="BitstreamVeraSans-Roman-36"/>
      </defs>
      <g transform="translate(36.7953125 64.5050152972)scale(0.12 -0.12)">
       <use xlink:href="#BitstreamVeraSans-Roman-36"/>
       <use x="63.623046875" xlink:href="#BitstreamVeraSans-Roman-30"/>
      </g>
     </g>
    </g>
    <g id="ytick_5">
     <g id="line2d_24">
      <g>
       <use style="stroke:#000000;stroke-linecap:butt;stroke-width:0.5;" x="54.4303125" xlink:href="#mc8fcea1516" y="46.4029370629"/>
      </g>
     </g>
     <g id="line2d_25">
      <g>
       <use style="stroke:#000000;stroke-linecap:butt;stroke-width:0.5;" x="707.04" xlink:href="#m0d5b0a6425" y="46.4029370629"/>
      </g>
     </g>
     <g id="text_13">
      <!-- 80 -->
      <defs>
       <path d="
M31.7812 34.625
Q24.75 34.625 20.7188 30.8594
Q16.7031 27.0938 16.7031 20.5156
Q16.7031 13.9219 20.7188 10.1562
Q24.75 6.39062 31.7812 6.39062
Q38.8125 6.39062 42.8594 10.1719
Q46.9219 13.9688 46.9219 20.5156
Q46.9219 27.0938 42.8906 30.8594
Q38.875 34.625 31.7812 34.625
M21.9219 38.8125
Q15.5781 40.375 12.0312 44.7188
Q8.5 49.0781 8.5 55.3281
Q8.5 64.0625 14.7188 69.1406
Q20.9531 74.2188 31.7812 74.2188
Q42.6719 74.2188 48.875 69.1406
Q55.0781 64.0625 55.0781 55.3281
Q55.0781 49.0781 51.5312 44.7188
Q48 40.375 41.7031 38.8125
Q48.8281 37.1562 52.7969 32.3125
Q56.7812 27.4844 56.7812 20.5156
Q56.7812 9.90625 50.3125 4.23438
Q43.8438 -1.42188 31.7812 -1.42188
Q19.7344 -1.42188 13.25 4.23438
Q6.78125 9.90625 6.78125 20.5156
Q6.78125 27.4844 10.7812 32.3125
Q14.7969 37.1562 21.9219 38.8125
M18.3125 54.3906
Q18.3125 48.7344 21.8438 45.5625
Q25.3906 42.3906 31.7812 42.3906
Q38.1406 42.3906 41.7188 45.5625
Q45.3125 48.7344 45.3125 54.3906
Q45.3125 60.0625 41.7188 63.2344
Q38.1406 66.4062 31.7812 66.4062
Q25.3906 66.4062 21.8438 63.2344
Q18.3125 60.0625 18.3125 54.3906" id="BitstreamVeraSans-Roman-38"/>
      </defs>
      <g transform="translate(36.7709375 50.7707495629)scale(0.12 -0.12)">
       <use xlink:href="#BitstreamVeraSans-Roman-38"/>
       <use x="63.623046875" xlink:href="#BitstreamVeraSans-Roman-30"/>
      </g>
     </g>
    </g>
    <g id="ytick_6">
     <g id="line2d_26">
      <g>
       <use style="stroke:#000000;stroke-linecap:butt;stroke-width:0.5;" x="54.4303125" xlink:href="#mc8fcea1516" y="32.6686713287"/>
      </g>
     </g>
     <g id="line2d_27">
      <g>
       <use style="stroke:#000000;stroke-linecap:butt;stroke-width:0.5;" x="707.04" xlink:href="#m0d5b0a6425" y="32.6686713287"/>
      </g>
     </g>
     <g id="text_14">
      <!-- 100 -->
      <g transform="translate(29.6403125 37.0364838287)scale(0.12 -0.12)">
       <use xlink:href="#BitstreamVeraSans-Roman-31"/>
       <use x="63.623046875" xlink:href="#BitstreamVeraSans-Roman-30"/>
       <use x="127.24609375" xlink:href="#BitstreamVeraSans-Roman-30"/>
      </g>
     </g>
    </g>
    <g id="ytick_7">
     <g id="line2d_28">
      <g>
       <use style="stroke:#000000;stroke-linecap:butt;stroke-width:0.5;" x="54.4303125" xlink:href="#mc8fcea1516" y="18.9344055944"/>
      </g>
     </g>
     <g id="line2d_29">
      <g>
       <use style="stroke:#000000;stroke-linecap:butt;stroke-width:0.5;" x="707.04" xlink:href="#m0d5b0a6425" y="18.9344055944"/>
      </g>
     </g>
     <g id="text_15">
      <!-- 120 -->
      <g transform="translate(29.6403125 23.3022180944)scale(0.12 -0.12)">
       <use xlink:href="#BitstreamVeraSans-Roman-31"/>
       <use x="63.623046875" xlink:href="#BitstreamVeraSans-Roman-32"/>
       <use x="127.24609375" xlink:href="#BitstreamVeraSans-Roman-30"/>
      </g>
     </g>
    </g>
    <g id="text_16">
     <!-- Elevation, m -->
     <defs>
      <path d="
M2.98438 54.6875
L12.5 54.6875
L29.5938 8.79688
L46.6875 54.6875
L56.2031 54.6875
L35.6875 0
L23.4844 0
z
" id="BitstreamVeraSans-Roman-76"/>
      <path d="
M9.8125 72.9062
L55.9062 72.9062
L55.9062 64.5938
L19.6719 64.5938
L19.6719 43.0156
L54.3906 43.0156
L54.3906 34.7188
L19.6719 34.7188
L19.6719 8.29688
L56.7812 8.29688
L56.7812 0
L9.8125 0
z
" id="BitstreamVeraSans-Roman-45"/>
      <path d="
M30.6094 48.3906
Q23.3906 48.3906 19.1875 42.75
Q14.9844 37.1094 14.9844 27.2969
Q14.9844 17.4844 19.1562 11.8438
Q23.3438 6.20312 30.6094 6.20312
Q37.7969 6.20312 41.9844 11.8594
Q46.1875 17.5312 46.1875 27.2969
Q46.1875 37.0156 41.9844 42.7031
Q37.7969 48.3906 30.6094 48.3906
M30.6094 56
Q42.3281 56 49.0156 48.375
Q55.7188 40.7656 55.7188 27.2969
Q55.7188 13.875 49.0156 6.21875
Q42.3281 -1.42188 30.6094 -1.42188
Q18.8438 -1.42188 12.1719 6.21875
Q5.51562 13.875 5.51562 27.2969
Q5.51562 40.7656 12.1719 48.375
Q18.8438 56 30.6094 56" id="BitstreamVeraSans-Roman-6f"/>
      <path d="
M9.42188 75.9844
L18.4062 75.9844
L18.4062 0
L9.42188 0
z
" id="BitstreamVeraSans-Roman-6c"/>
     </defs>
     <g transform="translate(24.6403125 92.775)rotate(-90.0)scale(0.12 -0.12)">
      <use xlink:href="#BitstreamVeraSans-Roman-45"/>
      <use x="63.18359375" xlink:href="#BitstreamVeraSans-Roman-6c"/>
      <use x="90.966796875" xlink:href="#BitstreamVeraSans-Roman-65"/>
      <use x="152.490234375" xlink:href="#BitstreamVeraSans-Roman-76"/>
      <use x="211.669921875" xlink:href="#BitstreamVeraSans-Roman-61"/>
      <use x="272.94921875" xlink:href="#BitstreamVeraSans-Roman-74"/>
      <use x="312.158203125" xlink:href="#BitstreamVeraSans-Roman-69"/>
      <use x="339.94140625" xlink:href="#BitstreamVeraSans-Roman-6f"/>
      <use x="401.123046875" xlink:href="#BitstreamVeraSans-Roman-6e"/>
      <use x="464.501953125" xlink:href="#BitstreamVeraSans-Roman-2c"/>
      <use x="496.2890625" xlink:href="#BitstreamVeraSans-Roman-20"/>
      <use x="528.076171875" xlink:href="#BitstreamVeraSans-Roman-6d"/>
     </g>
    </g>
   </g>
   <g id="patch_3">
    <path d="
M54.4303 12.96
L707.04 12.96" style="fill:none;stroke:#000000;"/>
   </g>
   <g id="patch_4">
    <path d="
M707.04 101.34
L707.04 12.96" style="fill:none;stroke:#000000;"/>
   </g>
   <g id="patch_5">
    <path d="
M54.4303 101.34
L707.04 101.34" style="fill:none;stroke:#000000;"/>
   </g>
   <g id="patch_6">
    <path d="
M54.4303 101.34
L54.4303 12.96" style="fill:none;stroke:#000000;"/>
   </g>
  </g>
 </g>
 <defs>
  <clipPath id="pa8176fee34">
   <rect height="88.38" width="652.6096875" x="54.4303125" y="12.96"/>
  </clipPath>
 </defs>
</svg>
