<?xml version="1.0" encoding="utf-8" standalone="no"?>
<!DOCTYPE svg PUBLIC "-//W3C//DTD SVG 1.1//EN"
  "http://www.w3.org/Graphics/SVG/1.1/DTD/svg11.dtd">
<!-- Created with matplotlib (http://matplotlib.org/) -->
<svg height="144pt" version="1.1" viewBox="0 0 720 144" width="720pt" xmlns="http://www.w3.org/2000/svg" xmlns:xlink="http://www.w3.org/1999/xlink">
 <defs>
  <style type="text/css">
*{stroke-linecap:square;stroke-linejoin:round;}
  </style>
 </defs>
 <g id="figure_1">
  <g id="patch_1">
   <path d="
M0 144
L720 144
L720 0
L0 0
z
" style="fill:#ffffff;"/>
  </g>
  <g id="axes_1">
   <g id="patch_2">
    <path d="
M50.1328 104.409
L707.04 104.409
L707.04 12.96
L50.1328 12.96
z
" style="fill:#ffffff;"/>
   </g>
   <g id="PolyCollection_1">
    <defs>
     <path d="
M50.592 -39.591
L50.592 -53.8022
L51.0867 -53.8022
L51.5952 -53.8022
L52.9348 -53.8022
L53.5413 -53.8022
L54.8695 -53.8022
L55.8034 -53.8022
L56.8485 -53.8022
L60.888 -53.8022
L62.1574 -53.8022
L62.6832 -53.8022
L63.3116 -53.8022
L64.9464 -53.8022
L66.6257 -53.8022
L67.5778 -53.8022
L73.2046 -53.8022
L74.1225 -53.8022
L75.3814 -53.8022
L76.4929 -53.8022
L78.0048 -53.8022
L79.7913 -53.8022
L82.1352 -53.8022
L83.0729 -53.8022
L83.7476 -53.8022
L95.015 -53.8022
L95.6836 -53.8022
L97.7138 -53.8022
L98.5013 -53.8022
L99.7131 -53.8022
L102.049 -53.8022
L103.925 -53.8022
L104.596 -53.8022
L107.559 -53.8022
L109.378 -53.8022
L110.969 -53.8022
L112.421 -53.8022
L115.651 -53.8022
L118.178 -53.8022
L118.766 -53.8022
L119.344 -53.8022
L124.626 -53.8022
L127.106 -53.8022
L129.12 -53.8022
L131.522 -53.8022
L132.508 -53.8022
L133.528 -53.8022
L137.297 -53.8022
L142.419 -53.8022
L143.306 -53.8022
L158.23 -53.8022
L159.418 -53.8022
L161.222 -53.8022
L164.711 -53.8022
L168.159 -53.8022
L169.969 -53.8022
L170.717 -53.8022
L172.213 -53.8022
L174.07 -53.8022
L174.923 -53.8022
L178.323 -53.8022
L178.603 -53.8022
L182.932 -53.8022
L185.554 -53.8022
L187.725 -53.8022
L188.498 -53.8022
L190.672 -53.8022
L192.547 -53.8022
L193.459 -53.8022
L194.226 -53.8022
L196.528 -53.8022
L196.821 -53.8022
L199.746 -53.8022
L200.187 -53.8022
L200.847 -53.8022
L203.542 -53.8022
L207.144 -53.8022
L218.495 -53.8022
L218.676 -53.8022
L220.068 -53.8022
L229.583 -53.8022
L232.831 -53.8022
L235.566 -53.8022
L249.378 -53.8022
L258.295 -53.8022
L259.296 -53.8022
L260.371 -53.8022
L266.729 -53.8022
L269.349 -53.8022
L271.584 -53.8022
L274.068 -53.8022
L275.457 -53.8022
L276.715 -53.8022
L278.059 -53.8022
L280.782 -53.8022
L281.698 -53.8022
L283.601 -53.8022
L284.338 -53.8022
L285.525 -53.8022
L285.919 -53.8022
L287.817 -53.8022
L288.48 -53.8022
L289.357 -53.8022
L290.826 -53.8022
L296.97 -53.8022
L297.434 -53.8022
L297.867 -53.8022
L299.392 -53.8022
L300.02 -53.8022
L300.96 -53.8022
L302.207 -53.8022
L303.77 -53.8022
L307.876 -53.8022
L315.519 -53.8022
L320.703 -53.8022
L322.848 -53.8022
L324.756 -53.8022
L329.492 -53.8022
L335.996 -53.8022
L337.108 -53.8022
L338.461 -53.8022
L340.462 -53.8022
L342.145 -53.8022
L346.484 -53.8022
L349.393 -53.8022
L350.198 -53.8022
L350.776 -53.8022
L351.576 -53.8022
L352.525 -53.8022
L353.53 -53.8022
L354.973 -53.8022
L355.714 -53.8022
L362.257 -53.8022
L372.395 -53.8022
L379.721 -53.8022
L384.529 -53.8022
L385.23 -53.8022
L385.693 -53.8022
L388.714 -53.8022
L390.669 -53.8022
L402.238 -53.8022
L402.911 -53.8022
L405.055 -53.8022
L406.393 -53.8022
L414.56 -53.8022
L415.899 -53.8022
L417.729 -53.8022
L418.581 -53.8022
L419.368 -53.8022
L420 -53.8022
L421.55 -53.8022
L422.314 -53.8022
L423.071 -53.8022
L424.301 -53.8022
L424.852 -53.8022
L425.737 -53.8022
L426.289 -53.8022
L427.06 -53.8022
L430.932 -53.8022
L434.577 -53.8022
L438.654 -53.8022
L442.373 -53.8022
L451.44 -53.8022
L452.364 -53.8022
L453.266 -53.8022
L456.189 -53.8022
L456.744 -53.8022
L459.089 -53.8022
L461.864 -53.8022
L482.798 -53.8022
L484.163 -53.8022
L486.726 -53.8022
L489.031 -53.8022
L491.655 -53.8022
L495.766 -53.8022
L505.401 -53.8022
L509.377 -53.8022
L514.897 -53.8022
L515.393 -53.8022
L516.761 -53.8022
L517.635 -53.8022
L518.411 -53.8022
L519.942 -53.8022
L520.266 -53.8022
L520.595 -53.8022
L520.982 -53.8022
L533.659 -53.8022
L534.054 -53.8022
L534.863 -53.8022
L535.21 -53.8022
L540.446 -53.8022
L541.197 -53.8022
L545.758 -53.8022
L546.388 -53.8022
L548.472 -53.8022
L549.414 -53.8022
L555.475 -53.8022
L555.935 -53.8022
L556.26 -53.8022
L557.086 -53.8022
L558.633 -53.8022
L560.167 -53.8022
L561.36 -53.8022
L562.471 -53.8022
L563.945 -53.8022
L566.719 -53.8022
L567.773 -53.8022
L571.344 -53.8022
L572.264 -53.8022
L573.109 -53.8022
L575.628 -53.8022
L576.214 -53.8022
L576.857 -53.8022
L577.119 -53.8022
L585.572 -53.8022
L585.798 -53.8022
L586.029 -53.8022
L587.134 -53.8022
L589.094 -53.8022
L589.633 -53.8022
L594.108 -53.8022
L598.069 -53.8022
L599.92 -53.8022
L600.288 -53.8022
L610.824 -53.8022
L611.261 -53.8022
L612.719 -53.8022
L613.074 -53.8022
L618.233 -53.8022
L620.593 -53.8022
L621.094 -53.8022
L624.478 -53.8022
L625.526 -53.8022
L626.236 -53.8022
L628.26 -53.8022
L632.518 -53.8022
L633.53 -53.8022
L634.146 -53.8022
L634.476 -53.8022
L635.146 -53.8022
L644.961 -53.8022
L645.715 -53.8022
L647.466 -53.8022
L649.07 -53.8022
L652.494 -53.8022
L653.295 -53.8022
L655.212 -53.8022
L656.241 -53.8022
L656.825 -53.8022
L659.786 -53.8022
L664.686 -53.8022
L674.742 -53.8022
L691.866 -53.8022
L694.345 -53.8022
L694.594 -53.8022
L695.102 -53.8022
L696.662 -53.8022
L698.622 -53.8022
L699.449 -53.8022
L700.507 -53.8022
L707.04 -53.8022
L707.04 -39.591
L707.04 -39.591
L700.507 -39.591
L699.449 -39.591
L698.622 -39.591
L696.662 -39.591
L695.102 -39.591
L694.594 -39.591
L694.345 -39.591
L691.866 -39.591
L674.742 -39.591
L664.686 -39.591
L659.786 -39.591
L656.825 -39.591
L656.241 -39.591
L655.212 -39.591
L653.295 -39.591
L652.494 -39.591
L649.07 -39.591
L647.466 -39.591
L645.715 -39.591
L644.961 -39.591
L635.146 -39.591
L634.476 -39.591
L634.146 -39.591
L633.53 -39.591
L632.518 -39.591
L628.26 -39.591
L626.236 -39.591
L625.526 -39.591
L624.478 -39.591
L621.094 -39.591
L620.593 -39.591
L618.233 -39.591
L613.074 -39.591
L612.719 -39.591
L611.261 -39.591
L610.824 -39.591
L600.288 -39.591
L599.92 -39.591
L598.069 -39.591
L594.108 -39.591
L589.633 -39.591
L589.094 -39.591
L587.134 -39.591
L586.029 -39.591
L585.798 -39.591
L585.572 -39.591
L577.119 -39.591
L576.857 -39.591
L576.214 -39.591
L575.628 -39.591
L573.109 -39.591
L572.264 -39.591
L571.344 -39.591
L567.773 -39.591
L566.719 -39.591
L563.945 -39.591
L562.471 -39.591
L561.36 -39.591
L560.167 -39.591
L558.633 -39.591
L557.086 -39.591
L556.26 -39.591
L555.935 -39.591
L555.475 -39.591
L549.414 -39.591
L548.472 -39.591
L546.388 -39.591
L545.758 -39.591
L541.197 -39.591
L540.446 -39.591
L535.21 -39.591
L534.863 -39.591
L534.054 -39.591
L533.659 -39.591
L520.982 -39.591
L520.595 -39.591
L520.266 -39.591
L519.942 -39.591
L518.411 -39.591
L517.635 -39.591
L516.761 -39.591
L515.393 -39.591
L514.897 -39.591
L509.377 -39.591
L505.401 -39.591
L495.766 -39.591
L491.655 -39.591
L489.031 -39.591
L486.726 -39.591
L484.163 -39.591
L482.798 -39.591
L461.864 -39.591
L459.089 -39.591
L456.744 -39.591
L456.189 -39.591
L453.266 -39.591
L452.364 -39.591
L451.44 -39.591
L442.373 -39.591
L438.654 -39.591
L434.577 -39.591
L430.932 -39.591
L427.06 -39.591
L426.289 -39.591
L425.737 -39.591
L424.852 -39.591
L424.301 -39.591
L423.071 -39.591
L422.314 -39.591
L421.55 -39.591
L420 -39.591
L419.368 -39.591
L418.581 -39.591
L417.729 -39.591
L415.899 -39.591
L414.56 -39.591
L406.393 -39.591
L405.055 -39.591
L402.911 -39.591
L402.238 -39.591
L390.669 -39.591
L388.714 -39.591
L385.693 -39.591
L385.23 -39.591
L384.529 -39.591
L379.721 -39.591
L372.395 -39.591
L362.257 -39.591
L355.714 -39.591
L354.973 -39.591
L353.53 -39.591
L352.525 -39.591
L351.576 -39.591
L350.776 -39.591
L350.198 -39.591
L349.393 -39.591
L346.484 -39.591
L342.145 -39.591
L340.462 -39.591
L338.461 -39.591
L337.108 -39.591
L335.996 -39.591
L329.492 -39.591
L324.756 -39.591
L322.848 -39.591
L320.703 -39.591
L315.519 -39.591
L307.876 -39.591
L303.77 -39.591
L302.207 -39.591
L300.96 -39.591
L300.02 -39.591
L299.392 -39.591
L297.867 -39.591
L297.434 -39.591
L296.97 -39.591
L290.826 -39.591
L289.357 -39.591
L288.48 -39.591
L287.817 -39.591
L285.919 -39.591
L285.525 -39.591
L284.338 -39.591
L283.601 -39.591
L281.698 -39.591
L280.782 -39.591
L278.059 -39.591
L276.715 -39.591
L275.457 -39.591
L274.068 -39.591
L271.584 -39.591
L269.349 -39.591
L266.729 -39.591
L260.371 -39.591
L259.296 -39.591
L258.295 -39.591
L249.378 -39.591
L235.566 -39.591
L232.831 -39.591
L229.583 -39.591
L220.068 -39.591
L218.676 -39.591
L218.495 -39.591
L207.144 -39.591
L203.542 -39.591
L200.847 -39.591
L200.187 -39.591
L199.746 -39.591
L196.821 -39.591
L196.528 -39.591
L194.226 -39.591
L193.459 -39.591
L192.547 -39.591
L190.672 -39.591
L188.498 -39.591
L187.725 -39.591
L185.554 -39.591
L182.932 -39.591
L178.603 -39.591
L178.323 -39.591
L174.923 -39.591
L174.07 -39.591
L172.213 -39.591
L170.717 -39.591
L169.969 -39.591
L168.159 -39.591
L164.711 -39.591
L161.222 -39.591
L159.418 -39.591
L158.23 -39.591
L143.306 -39.591
L142.419 -39.591
L137.297 -39.591
L133.528 -39.591
L132.508 -39.591
L131.522 -39.591
L129.12 -39.591
L127.106 -39.591
L124.626 -39.591
L119.344 -39.591
L118.766 -39.591
L118.178 -39.591
L115.651 -39.591
L112.421 -39.591
L110.969 -39.591
L109.378 -39.591
L107.559 -39.591
L104.596 -39.591
L103.925 -39.591
L102.049 -39.591
L99.7131 -39.591
L98.5013 -39.591
L97.7138 -39.591
L95.6836 -39.591
L95.015 -39.591
L83.7476 -39.591
L83.0729 -39.591
L82.1352 -39.591
L79.7913 -39.591
L78.0048 -39.591
L76.4929 -39.591
L75.3814 -39.591
L74.1225 -39.591
L73.2046 -39.591
L67.5778 -39.591
L66.6257 -39.591
L64.9464 -39.591
L63.3116 -39.591
L62.6832 -39.591
L62.1574 -39.591
L60.888 -39.591
L56.8485 -39.591
L55.8034 -39.591
L54.8695 -39.591
L53.5413 -39.591
L52.9348 -39.591
L51.5952 -39.591
L51.0867 -39.591
L50.592 -39.591
z
" id="C0_0_5bfca19903"/>
    </defs>
    <g clip-path="url(#p6af9af8d71)">
     <use style="fill:#0000ff;opacity:0.05;stroke:#0000ff;stroke-linecap:butt;" x="0" xlink:href="#C0_0_5bfca19903" y="144.0"/>
    </g>
   </g>
   <g id="PolyCollection_2">
    <defs>
     <path d="
M50.592 -39.591
L50.592 -68.0134
L51.0867 -68.0134
L51.5952 -68.0134
L52.9348 -68.0134
L53.5413 -68.0134
L54.8695 -68.0134
L55.8034 -68.0134
L56.8485 -68.0134
L60.888 -68.0134
L62.1574 -68.0134
L62.6832 -68.0134
L63.3116 -68.0134
L64.9464 -68.0134
L66.6257 -68.0134
L67.5778 -68.0134
L73.2046 -67.3028
L74.1225 -67.3028
L75.3814 -67.3028
L76.4929 -67.3028
L78.0048 -68.0134
L79.7913 -68.0134
L82.1352 -68.0134
L83.0729 -68.0134
L83.7476 -68.0134
L95.015 -68.0134
L95.6836 -68.0134
L97.7138 -68.0134
L98.5013 -68.0134
L99.7131 -68.0134
L102.049 -68.0134
L103.925 -68.0134
L104.596 -68.0134
L107.559 -68.0134
L109.378 -68.0134
L110.969 -68.0134
L112.421 -68.0134
L115.651 -68.0134
L118.178 -68.0134
L118.766 -68.0134
L119.344 -68.0134
L124.626 -68.0134
L127.106 -68.0134
L129.12 -68.0134
L131.522 -68.0134
L132.508 -68.0134
L133.528 -68.0134
L137.297 -68.0134
L142.419 -68.0134
L143.306 -68.0134
L158.23 -68.0134
L159.418 -68.0134
L161.222 -68.0134
L164.711 -68.0134
L168.159 -68.0134
L169.969 -68.0134
L170.717 -68.0134
L172.213 -68.0134
L174.07 -68.0134
L174.923 -68.0134
L178.323 -68.0134
L178.603 -68.0134
L182.932 -68.0134
L185.554 -68.0134
L187.725 -68.0134
L188.498 -68.0134
L190.672 -68.0134
L192.547 -68.0134
L193.459 -68.0134
L194.226 -68.0134
L196.528 -68.0134
L196.821 -68.0134
L199.746 -68.0134
L200.187 -68.0134
L200.847 -68.0134
L203.542 -68.0134
L207.144 -68.0134
L218.495 -68.0134
L218.676 -68.0134
L220.068 -68.0134
L229.583 -68.0134
L232.831 -68.0134
L235.566 -68.0134
L249.378 -68.0134
L258.295 -68.0134
L259.296 -68.0134
L260.371 -68.0134
L266.729 -68.0134
L269.349 -68.0134
L271.584 -68.0134
L274.068 -68.0134
L275.457 -68.0134
L276.715 -68.0134
L278.059 -68.0134
L280.782 -68.0134
L281.698 -68.0134
L283.601 -68.0134
L284.338 -68.0134
L285.525 -68.0134
L285.919 -68.0134
L287.817 -68.0134
L288.48 -68.0134
L289.357 -68.0134
L290.826 -68.0134
L296.97 -68.0134
L297.434 -68.0134
L297.867 -68.0134
L299.392 -68.0134
L300.02 -68.0134
L300.96 -68.0134
L302.207 -68.0134
L303.77 -68.0134
L307.876 -68.0134
L315.519 -68.0134
L320.703 -68.0134
L322.848 -68.0134
L324.756 -68.0134
L329.492 -68.0134
L335.996 -68.0134
L337.108 -68.0134
L338.461 -68.0134
L340.462 -68.0134
L342.145 -68.0134
L346.484 -68.0134
L349.393 -68.0134
L350.198 -68.0134
L350.776 -68.0134
L351.576 -68.0134
L352.525 -68.0134
L353.53 -68.0134
L354.973 -68.0134
L355.714 -68.0134
L362.257 -68.0134
L372.395 -68.0134
L379.721 -68.0134
L384.529 -68.0134
L385.23 -68.0134
L385.693 -68.0134
L388.714 -68.0134
L390.669 -68.0134
L402.238 -68.0134
L402.911 -68.0134
L405.055 -68.0134
L406.393 -68.0134
L414.56 -68.0134
L415.899 -68.0134
L417.729 -68.0134
L418.581 -68.0134
L419.368 -68.0134
L420 -68.0134
L421.55 -68.0134
L422.314 -68.0134
L423.071 -68.0134
L424.301 -68.0134
L424.852 -68.0134
L425.737 -68.0134
L426.289 -68.0134
L427.06 -68.0134
L430.932 -68.0134
L434.577 -68.0134
L438.654 -68.0134
L442.373 -68.0134
L451.44 -68.0134
L452.364 -68.0134
L453.266 -68.0134
L456.189 -68.0134
L456.744 -68.0134
L459.089 -68.0134
L461.864 -68.0134
L482.798 -68.0134
L484.163 -68.0134
L486.726 -68.0134
L489.031 -68.0134
L491.655 -68.0134
L495.766 -68.0134
L505.401 -68.0134
L509.377 -68.0134
L514.897 -68.0134
L515.393 -68.0134
L516.761 -68.0134
L517.635 -68.0134
L518.411 -68.0134
L519.942 -68.0134
L520.266 -68.0134
L520.595 -68.0134
L520.982 -68.0134
L533.659 -68.0134
L534.054 -68.0134
L534.863 -68.0134
L535.21 -68.0134
L540.446 -68.0134
L541.197 -68.0134
L545.758 -68.0134
L546.388 -68.0134
L548.472 -68.0134
L549.414 -68.0134
L555.475 -68.0134
L555.935 -68.0134
L556.26 -68.0134
L557.086 -68.0134
L558.633 -68.0134
L560.167 -68.0134
L561.36 -68.0134
L562.471 -68.0134
L563.945 -68.0134
L566.719 -68.0134
L567.773 -68.0134
L571.344 -68.0134
L572.264 -68.0134
L573.109 -68.0134
L575.628 -68.0134
L576.214 -68.0134
L576.857 -68.0134
L577.119 -68.0134
L585.572 -68.0134
L585.798 -68.0134
L586.029 -68.0134
L587.134 -68.0134
L589.094 -68.0134
L589.633 -68.0134
L594.108 -68.0134
L598.069 -68.0134
L599.92 -66.5923
L600.288 -66.5923
L610.824 -68.0134
L611.261 -68.0134
L612.719 -68.0134
L613.074 -68.0134
L618.233 -68.0134
L620.593 -68.0134
L621.094 -68.0134
L624.478 -68.0134
L625.526 -68.0134
L626.236 -68.0134
L628.26 -68.0134
L632.518 -68.0134
L633.53 -68.0134
L634.146 -68.0134
L634.476 -68.0134
L635.146 -68.0134
L644.961 -64.4606
L645.715 -64.4606
L647.466 -64.4606
L649.07 -62.3289
L652.494 -59.4867
L653.295 -59.4867
L655.212 -59.4867
L656.241 -60.1972
L656.825 -60.9078
L659.786 -65.1711
L664.686 -66.5923
L674.742 -60.9078
L691.866 -68.0134
L694.345 -68.0134
L694.594 -68.0134
L695.102 -68.0134
L696.662 -68.0134
L698.622 -68.0134
L699.449 -68.0134
L700.507 -68.0134
L707.04 -68.0134
L707.04 -39.591
L707.04 -39.591
L700.507 -39.591
L699.449 -39.591
L698.622 -39.591
L696.662 -39.591
L695.102 -39.591
L694.594 -39.591
L694.345 -39.591
L691.866 -39.591
L674.742 -39.591
L664.686 -39.591
L659.786 -39.591
L656.825 -39.591
L656.241 -39.591
L655.212 -39.591
L653.295 -39.591
L652.494 -39.591
L649.07 -39.591
L647.466 -39.591
L645.715 -39.591
L644.961 -39.591
L635.146 -39.591
L634.476 -39.591
L634.146 -39.591
L633.53 -39.591
L632.518 -39.591
L628.26 -39.591
L626.236 -39.591
L625.526 -39.591
L624.478 -39.591
L621.094 -39.591
L620.593 -39.591
L618.233 -39.591
L613.074 -39.591
L612.719 -39.591
L611.261 -39.591
L610.824 -39.591
L600.288 -39.591
L599.92 -39.591
L598.069 -39.591
L594.108 -39.591
L589.633 -39.591
L589.094 -39.591
L587.134 -39.591
L586.029 -39.591
L585.798 -39.591
L585.572 -39.591
L577.119 -39.591
L576.857 -39.591
L576.214 -39.591
L575.628 -39.591
L573.109 -39.591
L572.264 -39.591
L571.344 -39.591
L567.773 -39.591
L566.719 -39.591
L563.945 -39.591
L562.471 -39.591
L561.36 -39.591
L560.167 -39.591
L558.633 -39.591
L557.086 -39.591
L556.26 -39.591
L555.935 -39.591
L555.475 -39.591
L549.414 -39.591
L548.472 -39.591
L546.388 -39.591
L545.758 -39.591
L541.197 -39.591
L540.446 -39.591
L535.21 -39.591
L534.863 -39.591
L534.054 -39.591
L533.659 -39.591
L520.982 -39.591
L520.595 -39.591
L520.266 -39.591
L519.942 -39.591
L518.411 -39.591
L517.635 -39.591
L516.761 -39.591
L515.393 -39.591
L514.897 -39.591
L509.377 -39.591
L505.401 -39.591
L495.766 -39.591
L491.655 -39.591
L489.031 -39.591
L486.726 -39.591
L484.163 -39.591
L482.798 -39.591
L461.864 -39.591
L459.089 -39.591
L456.744 -39.591
L456.189 -39.591
L453.266 -39.591
L452.364 -39.591
L451.44 -39.591
L442.373 -39.591
L438.654 -39.591
L434.577 -39.591
L430.932 -39.591
L427.06 -39.591
L426.289 -39.591
L425.737 -39.591
L424.852 -39.591
L424.301 -39.591
L423.071 -39.591
L422.314 -39.591
L421.55 -39.591
L420 -39.591
L419.368 -39.591
L418.581 -39.591
L417.729 -39.591
L415.899 -39.591
L414.56 -39.591
L406.393 -39.591
L405.055 -39.591
L402.911 -39.591
L402.238 -39.591
L390.669 -39.591
L388.714 -39.591
L385.693 -39.591
L385.23 -39.591
L384.529 -39.591
L379.721 -39.591
L372.395 -39.591
L362.257 -39.591
L355.714 -39.591
L354.973 -39.591
L353.53 -39.591
L352.525 -39.591
L351.576 -39.591
L350.776 -39.591
L350.198 -39.591
L349.393 -39.591
L346.484 -39.591
L342.145 -39.591
L340.462 -39.591
L338.461 -39.591
L337.108 -39.591
L335.996 -39.591
L329.492 -39.591
L324.756 -39.591
L322.848 -39.591
L320.703 -39.591
L315.519 -39.591
L307.876 -39.591
L303.77 -39.591
L302.207 -39.591
L300.96 -39.591
L300.02 -39.591
L299.392 -39.591
L297.867 -39.591
L297.434 -39.591
L296.97 -39.591
L290.826 -39.591
L289.357 -39.591
L288.48 -39.591
L287.817 -39.591
L285.919 -39.591
L285.525 -39.591
L284.338 -39.591
L283.601 -39.591
L281.698 -39.591
L280.782 -39.591
L278.059 -39.591
L276.715 -39.591
L275.457 -39.591
L274.068 -39.591
L271.584 -39.591
L269.349 -39.591
L266.729 -39.591
L260.371 -39.591
L259.296 -39.591
L258.295 -39.591
L249.378 -39.591
L235.566 -39.591
L232.831 -39.591
L229.583 -39.591
L220.068 -39.591
L218.676 -39.591
L218.495 -39.591
L207.144 -39.591
L203.542 -39.591
L200.847 -39.591
L200.187 -39.591
L199.746 -39.591
L196.821 -39.591
L196.528 -39.591
L194.226 -39.591
L193.459 -39.591
L192.547 -39.591
L190.672 -39.591
L188.498 -39.591
L187.725 -39.591
L185.554 -39.591
L182.932 -39.591
L178.603 -39.591
L178.323 -39.591
L174.923 -39.591
L174.07 -39.591
L172.213 -39.591
L170.717 -39.591
L169.969 -39.591
L168.159 -39.591
L164.711 -39.591
L161.222 -39.591
L159.418 -39.591
L158.23 -39.591
L143.306 -39.591
L142.419 -39.591
L137.297 -39.591
L133.528 -39.591
L132.508 -39.591
L131.522 -39.591
L129.12 -39.591
L127.106 -39.591
L124.626 -39.591
L119.344 -39.591
L118.766 -39.591
L118.178 -39.591
L115.651 -39.591
L112.421 -39.591
L110.969 -39.591
L109.378 -39.591
L107.559 -39.591
L104.596 -39.591
L103.925 -39.591
L102.049 -39.591
L99.7131 -39.591
L98.5013 -39.591
L97.7138 -39.591
L95.6836 -39.591
L95.015 -39.591
L83.7476 -39.591
L83.0729 -39.591
L82.1352 -39.591
L79.7913 -39.591
L78.0048 -39.591
L76.4929 -39.591
L75.3814 -39.591
L74.1225 -39.591
L73.2046 -39.591
L67.5778 -39.591
L66.6257 -39.591
L64.9464 -39.591
L63.3116 -39.591
L62.6832 -39.591
L62.1574 -39.591
L60.888 -39.591
L56.8485 -39.591
L55.8034 -39.591
L54.8695 -39.591
L53.5413 -39.591
L52.9348 -39.591
L51.5952 -39.591
L51.0867 -39.591
L50.592 -39.591
z
" id="C1_0_41524c0954"/>
    </defs>
    <g clip-path="url(#p6af9af8d71)">
     <use style="fill:#0000ff;opacity:0.05;stroke:#0000ff;stroke-linecap:butt;" x="0" xlink:href="#C1_0_41524c0954" y="144.0"/>
    </g>
   </g>
   <g id="PolyCollection_3">
    <defs>
     <path d="
M50.592 -39.591
L50.592 -70.8556
L51.0867 -70.8556
L51.5952 -71.5662
L52.9348 -72.2767
L53.5413 -72.9873
L54.8695 -74.4084
L55.8034 -75.8295
L56.8485 -74.4084
L60.888 -70.1451
L62.1574 -69.4345
L62.6832 -69.4345
L63.3116 -69.4345
L64.9464 -68.7239
L66.6257 -68.7239
L67.5778 -68.0134
L73.2046 -67.3028
L74.1225 -67.3028
L75.3814 -67.3028
L76.4929 -67.3028
L78.0048 -68.0134
L79.7913 -69.4345
L82.1352 -71.5662
L83.0729 -72.2767
L83.7476 -72.9873
L95.015 -82.2246
L95.6836 -82.2246
L97.7138 -82.2246
L98.5013 -82.2246
L99.7131 -82.2246
L102.049 -82.2246
L103.925 -82.2246
L104.596 -82.2246
L107.559 -82.2246
L109.378 -82.2246
L110.969 -82.2246
L112.421 -82.2246
L115.651 -82.2246
L118.178 -82.2246
L118.766 -82.2246
L119.344 -82.2246
L124.626 -82.2246
L127.106 -82.2246
L129.12 -82.2246
L131.522 -82.2246
L132.508 -82.2246
L133.528 -82.2246
L137.297 -82.2246
L142.419 -82.2246
L143.306 -82.2246
L158.23 -82.2246
L159.418 -82.2246
L161.222 -82.2246
L164.711 -82.2246
L168.159 -82.2246
L169.969 -82.2246
L170.717 -82.2246
L172.213 -82.2246
L174.07 -82.2246
L174.923 -82.2246
L178.323 -82.2246
L178.603 -82.2246
L182.932 -82.2246
L185.554 -82.2246
L187.725 -82.2246
L188.498 -82.2246
L190.672 -82.2246
L192.547 -82.2246
L193.459 -82.2246
L194.226 -82.2246
L196.528 -82.2246
L196.821 -82.2246
L199.746 -82.2246
L200.187 -82.2246
L200.847 -82.2246
L203.542 -82.2246
L207.144 -82.2246
L218.495 -82.2246
L218.676 -82.2246
L220.068 -82.2246
L229.583 -82.2246
L232.831 -82.2246
L235.566 -82.2246
L249.378 -82.2246
L258.295 -82.2246
L259.296 -82.2246
L260.371 -82.2246
L266.729 -82.2246
L269.349 -82.2246
L271.584 -82.2246
L274.068 -82.2246
L275.457 -82.2246
L276.715 -82.2246
L278.059 -82.2246
L280.782 -82.2246
L281.698 -82.2246
L283.601 -82.2246
L284.338 -82.2246
L285.525 -82.2246
L285.919 -82.2246
L287.817 -82.2246
L288.48 -82.2246
L289.357 -82.2246
L290.826 -82.2246
L296.97 -82.2246
L297.434 -82.2246
L297.867 -82.2246
L299.392 -82.2246
L300.02 -82.2246
L300.96 -82.2246
L302.207 -82.2246
L303.77 -82.2246
L307.876 -82.2246
L315.519 -82.2246
L320.703 -82.2246
L322.848 -82.2246
L324.756 -82.2246
L329.492 -82.2246
L335.996 -82.2246
L337.108 -82.2246
L338.461 -82.2246
L340.462 -82.2246
L342.145 -80.8034
L346.484 -76.5401
L349.393 -77.2507
L350.198 -77.2507
L350.776 -77.2507
L351.576 -77.2507
L352.525 -77.2507
L353.53 -77.2507
L354.973 -78.6718
L355.714 -80.8034
L362.257 -82.2246
L372.395 -82.2246
L379.721 -82.2246
L384.529 -82.2246
L385.23 -82.2246
L385.693 -82.2246
L388.714 -82.2246
L390.669 -82.2246
L402.238 -82.2246
L402.911 -82.2246
L405.055 -82.2246
L406.393 -82.2246
L414.56 -82.2246
L415.899 -82.2246
L417.729 -82.2246
L418.581 -80.8034
L419.368 -79.3823
L420 -78.6718
L421.55 -75.119
L422.314 -73.6979
L423.071 -74.4084
L424.301 -77.2507
L424.852 -76.5401
L425.737 -76.5401
L426.289 -76.5401
L427.06 -77.2507
L430.932 -82.2246
L434.577 -82.2246
L438.654 -82.2246
L442.373 -79.3823
L451.44 -82.2246
L452.364 -82.2246
L453.266 -82.2246
L456.189 -82.2246
L456.744 -82.2246
L459.089 -82.2246
L461.864 -80.8034
L482.798 -80.0929
L484.163 -80.0929
L486.726 -80.0929
L489.031 -78.6718
L491.655 -79.3823
L495.766 -77.9612
L505.401 -74.4084
L509.377 -76.5401
L514.897 -75.8295
L515.393 -75.8295
L516.761 -75.8295
L517.635 -75.8295
L518.411 -77.2507
L519.942 -80.8034
L520.266 -80.0929
L520.595 -79.3823
L520.982 -78.6718
L533.659 -79.3823
L534.054 -78.6718
L534.863 -77.9612
L535.21 -77.9612
L540.446 -74.4084
L541.197 -75.119
L545.758 -80.8034
L546.388 -80.8034
L548.472 -82.2246
L549.414 -82.2246
L555.475 -82.2246
L555.935 -82.2246
L556.26 -82.2246
L557.086 -82.2246
L558.633 -82.2246
L560.167 -82.2246
L561.36 -82.2246
L562.471 -82.2246
L563.945 -82.2246
L566.719 -82.2246
L567.773 -82.2246
L571.344 -82.2246
L572.264 -82.2246
L573.109 -81.514
L575.628 -78.6718
L576.214 -78.6718
L576.857 -79.3823
L577.119 -79.3823
L585.572 -82.2246
L585.798 -82.2246
L586.029 -82.2246
L587.134 -82.2246
L589.094 -82.2246
L589.633 -82.2246
L594.108 -80.0929
L598.069 -70.1451
L599.92 -66.5923
L600.288 -66.5923
L610.824 -75.8295
L611.261 -75.8295
L612.719 -75.8295
L613.074 -75.8295
L618.233 -71.5662
L620.593 -68.0134
L621.094 -68.0134
L624.478 -68.0134
L625.526 -68.0134
L626.236 -68.0134
L628.26 -68.0134
L632.518 -80.8034
L633.53 -81.514
L634.146 -82.2246
L634.476 -82.2246
L635.146 -82.2246
L644.961 -64.4606
L645.715 -64.4606
L647.466 -64.4606
L649.07 -62.3289
L652.494 -59.4867
L653.295 -59.4867
L655.212 -59.4867
L656.241 -60.1972
L656.825 -60.9078
L659.786 -65.1711
L664.686 -66.5923
L674.742 -60.9078
L691.866 -70.8556
L694.345 -68.0134
L694.594 -68.0134
L695.102 -68.0134
L696.662 -68.7239
L698.622 -69.4345
L699.449 -69.4345
L700.507 -69.4345
L707.04 -70.8556
L707.04 -39.591
L707.04 -39.591
L700.507 -39.591
L699.449 -39.591
L698.622 -39.591
L696.662 -39.591
L695.102 -39.591
L694.594 -39.591
L694.345 -39.591
L691.866 -39.591
L674.742 -39.591
L664.686 -39.591
L659.786 -39.591
L656.825 -39.591
L656.241 -39.591
L655.212 -39.591
L653.295 -39.591
L652.494 -39.591
L649.07 -39.591
L647.466 -39.591
L645.715 -39.591
L644.961 -39.591
L635.146 -39.591
L634.476 -39.591
L634.146 -39.591
L633.53 -39.591
L632.518 -39.591
L628.26 -39.591
L626.236 -39.591
L625.526 -39.591
L624.478 -39.591
L621.094 -39.591
L620.593 -39.591
L618.233 -39.591
L613.074 -39.591
L612.719 -39.591
L611.261 -39.591
L610.824 -39.591
L600.288 -39.591
L599.92 -39.591
L598.069 -39.591
L594.108 -39.591
L589.633 -39.591
L589.094 -39.591
L587.134 -39.591
L586.029 -39.591
L585.798 -39.591
L585.572 -39.591
L577.119 -39.591
L576.857 -39.591
L576.214 -39.591
L575.628 -39.591
L573.109 -39.591
L572.264 -39.591
L571.344 -39.591
L567.773 -39.591
L566.719 -39.591
L563.945 -39.591
L562.471 -39.591
L561.36 -39.591
L560.167 -39.591
L558.633 -39.591
L557.086 -39.591
L556.26 -39.591
L555.935 -39.591
L555.475 -39.591
L549.414 -39.591
L548.472 -39.591
L546.388 -39.591
L545.758 -39.591
L541.197 -39.591
L540.446 -39.591
L535.21 -39.591
L534.863 -39.591
L534.054 -39.591
L533.659 -39.591
L520.982 -39.591
L520.595 -39.591
L520.266 -39.591
L519.942 -39.591
L518.411 -39.591
L517.635 -39.591
L516.761 -39.591
L515.393 -39.591
L514.897 -39.591
L509.377 -39.591
L505.401 -39.591
L495.766 -39.591
L491.655 -39.591
L489.031 -39.591
L486.726 -39.591
L484.163 -39.591
L482.798 -39.591
L461.864 -39.591
L459.089 -39.591
L456.744 -39.591
L456.189 -39.591
L453.266 -39.591
L452.364 -39.591
L451.44 -39.591
L442.373 -39.591
L438.654 -39.591
L434.577 -39.591
L430.932 -39.591
L427.06 -39.591
L426.289 -39.591
L425.737 -39.591
L424.852 -39.591
L424.301 -39.591
L423.071 -39.591
L422.314 -39.591
L421.55 -39.591
L420 -39.591
L419.368 -39.591
L418.581 -39.591
L417.729 -39.591
L415.899 -39.591
L414.56 -39.591
L406.393 -39.591
L405.055 -39.591
L402.911 -39.591
L402.238 -39.591
L390.669 -39.591
L388.714 -39.591
L385.693 -39.591
L385.23 -39.591
L384.529 -39.591
L379.721 -39.591
L372.395 -39.591
L362.257 -39.591
L355.714 -39.591
L354.973 -39.591
L353.53 -39.591
L352.525 -39.591
L351.576 -39.591
L350.776 -39.591
L350.198 -39.591
L349.393 -39.591
L346.484 -39.591
L342.145 -39.591
L340.462 -39.591
L338.461 -39.591
L337.108 -39.591
L335.996 -39.591
L329.492 -39.591
L324.756 -39.591
L322.848 -39.591
L320.703 -39.591
L315.519 -39.591
L307.876 -39.591
L303.77 -39.591
L302.207 -39.591
L300.96 -39.591
L300.02 -39.591
L299.392 -39.591
L297.867 -39.591
L297.434 -39.591
L296.97 -39.591
L290.826 -39.591
L289.357 -39.591
L288.48 -39.591
L287.817 -39.591
L285.919 -39.591
L285.525 -39.591
L284.338 -39.591
L283.601 -39.591
L281.698 -39.591
L280.782 -39.591
L278.059 -39.591
L276.715 -39.591
L275.457 -39.591
L274.068 -39.591
L271.584 -39.591
L269.349 -39.591
L266.729 -39.591
L260.371 -39.591
L259.296 -39.591
L258.295 -39.591
L249.378 -39.591
L235.566 -39.591
L232.831 -39.591
L229.583 -39.591
L220.068 -39.591
L218.676 -39.591
L218.495 -39.591
L207.144 -39.591
L203.542 -39.591
L200.847 -39.591
L200.187 -39.591
L199.746 -39.591
L196.821 -39.591
L196.528 -39.591
L194.226 -39.591
L193.459 -39.591
L192.547 -39.591
L190.672 -39.591
L188.498 -39.591
L187.725 -39.591
L185.554 -39.591
L182.932 -39.591
L178.603 -39.591
L178.323 -39.591
L174.923 -39.591
L174.07 -39.591
L172.213 -39.591
L170.717 -39.591
L169.969 -39.591
L168.159 -39.591
L164.711 -39.591
L161.222 -39.591
L159.418 -39.591
L158.23 -39.591
L143.306 -39.591
L142.419 -39.591
L137.297 -39.591
L133.528 -39.591
L132.508 -39.591
L131.522 -39.591
L129.12 -39.591
L127.106 -39.591
L124.626 -39.591
L119.344 -39.591
L118.766 -39.591
L118.178 -39.591
L115.651 -39.591
L112.421 -39.591
L110.969 -39.591
L109.378 -39.591
L107.559 -39.591
L104.596 -39.591
L103.925 -39.591
L102.049 -39.591
L99.7131 -39.591
L98.5013 -39.591
L97.7138 -39.591
L95.6836 -39.591
L95.015 -39.591
L83.7476 -39.591
L83.0729 -39.591
L82.1352 -39.591
L79.7913 -39.591
L78.0048 -39.591
L76.4929 -39.591
L75.3814 -39.591
L74.1225 -39.591
L73.2046 -39.591
L67.5778 -39.591
L66.6257 -39.591
L64.9464 -39.591
L63.3116 -39.591
L62.6832 -39.591
L62.1574 -39.591
L60.888 -39.591
L56.8485 -39.591
L55.8034 -39.591
L54.8695 -39.591
L53.5413 -39.591
L52.9348 -39.591
L51.5952 -39.591
L51.0867 -39.591
L50.592 -39.591
z
" id="C2_0_023bbb4ddd"/>
    </defs>
    <g clip-path="url(#p6af9af8d71)">
     <use style="fill:#0000ff;opacity:0.05;stroke:#0000ff;stroke-linecap:butt;" x="0" xlink:href="#C2_0_023bbb4ddd" y="144.0"/>
    </g>
   </g>
   <g id="PolyCollection_4">
    <defs>
     <path d="
M50.592 -39.591
L50.592 -70.8556
L51.0867 -70.8556
L51.5952 -71.5662
L52.9348 -72.2767
L53.5413 -72.9873
L54.8695 -74.4084
L55.8034 -75.8295
L56.8485 -74.4084
L60.888 -70.1451
L62.1574 -69.4345
L62.6832 -69.4345
L63.3116 -69.4345
L64.9464 -68.7239
L66.6257 -68.7239
L67.5778 -68.0134
L73.2046 -67.3028
L74.1225 -67.3028
L75.3814 -67.3028
L76.4929 -67.3028
L78.0048 -68.0134
L79.7913 -69.4345
L82.1352 -71.5662
L83.0729 -72.2767
L83.7476 -72.9873
L95.015 -85.7774
L95.6836 -87.1985
L97.7138 -90.7513
L98.5013 -92.883
L99.7131 -96.4358
L102.049 -96.4358
L103.925 -96.4358
L104.596 -96.4358
L107.559 -96.4358
L109.378 -96.4358
L110.969 -96.4358
L112.421 -96.4358
L115.651 -96.4358
L118.178 -96.4358
L118.766 -96.4358
L119.344 -96.4358
L124.626 -96.4358
L127.106 -96.4358
L129.12 -96.4358
L131.522 -96.4358
L132.508 -96.4358
L133.528 -96.4358
L137.297 -96.4358
L142.419 -96.4358
L143.306 -96.4358
L158.23 -96.4358
L159.418 -96.4358
L161.222 -96.4358
L164.711 -96.4358
L168.159 -96.4358
L169.969 -96.4358
L170.717 -96.4358
L172.213 -96.4358
L174.07 -96.4358
L174.923 -96.4358
L178.323 -96.4358
L178.603 -96.4358
L182.932 -96.4358
L185.554 -96.4358
L187.725 -96.4358
L188.498 -96.4358
L190.672 -96.4358
L192.547 -96.4358
L193.459 -96.4358
L194.226 -96.4358
L196.528 -96.4358
L196.821 -96.4358
L199.746 -96.4358
L200.187 -96.4358
L200.847 -96.4358
L203.542 -96.4358
L207.144 -96.4358
L218.495 -95.0146
L218.676 -95.0146
L220.068 -95.7252
L229.583 -96.4358
L232.831 -96.4358
L235.566 -96.4358
L249.378 -96.4358
L258.295 -96.4358
L259.296 -96.4358
L260.371 -96.4358
L266.729 -96.4358
L269.349 -96.4358
L271.584 -96.4358
L274.068 -96.4358
L275.457 -96.4358
L276.715 -96.4358
L278.059 -96.4358
L280.782 -96.4358
L281.698 -96.4358
L283.601 -96.4358
L284.338 -96.4358
L285.525 -96.4358
L285.919 -96.4358
L287.817 -96.4358
L288.48 -96.4358
L289.357 -96.4358
L290.826 -96.4358
L296.97 -96.4358
L297.434 -96.4358
L297.867 -96.4358
L299.392 -95.7252
L300.02 -95.0146
L300.96 -95.0146
L302.207 -95.0146
L303.77 -95.0146
L307.876 -95.0146
L315.519 -96.4358
L320.703 -94.3041
L322.848 -90.0407
L324.756 -87.909
L329.492 -85.0668
L335.996 -85.0668
L337.108 -84.3562
L338.461 -83.6457
L340.462 -82.9351
L342.145 -80.8034
L346.484 -76.5401
L349.393 -77.2507
L350.198 -77.2507
L350.776 -77.2507
L351.576 -77.2507
L352.525 -77.2507
L353.53 -77.2507
L354.973 -78.6718
L355.714 -80.8034
L362.257 -96.4358
L372.395 -96.4358
L379.721 -96.4358
L384.529 -96.4358
L385.23 -96.4358
L385.693 -96.4358
L388.714 -96.4358
L390.669 -96.4358
L402.238 -85.0668
L402.911 -85.0668
L405.055 -87.1985
L406.393 -86.4879
L414.56 -85.0668
L415.899 -83.6457
L417.729 -82.2246
L418.581 -80.8034
L419.368 -79.3823
L420 -78.6718
L421.55 -75.119
L422.314 -73.6979
L423.071 -74.4084
L424.301 -77.2507
L424.852 -76.5401
L425.737 -76.5401
L426.289 -76.5401
L427.06 -77.2507
L430.932 -82.2246
L434.577 -86.4879
L438.654 -83.6457
L442.373 -79.3823
L451.44 -84.3562
L452.364 -85.0668
L453.266 -86.4879
L456.189 -87.1985
L456.744 -86.4879
L459.089 -85.0668
L461.864 -80.8034
L482.798 -80.0929
L484.163 -80.0929
L486.726 -80.0929
L489.031 -78.6718
L491.655 -79.3823
L495.766 -77.9612
L505.401 -74.4084
L509.377 -76.5401
L514.897 -75.8295
L515.393 -75.8295
L516.761 -75.8295
L517.635 -75.8295
L518.411 -77.2507
L519.942 -80.8034
L520.266 -80.0929
L520.595 -79.3823
L520.982 -78.6718
L533.659 -79.3823
L534.054 -78.6718
L534.863 -77.9612
L535.21 -77.9612
L540.446 -74.4084
L541.197 -75.119
L545.758 -80.8034
L546.388 -80.8034
L548.472 -83.6457
L549.414 -83.6457
L555.475 -87.909
L555.935 -87.909
L556.26 -87.909
L557.086 -87.909
L558.633 -87.909
L560.167 -87.909
L561.36 -87.909
L562.471 -87.909
L563.945 -87.1985
L566.719 -87.1985
L567.773 -86.4879
L571.344 -84.3562
L572.264 -82.9351
L573.109 -81.514
L575.628 -78.6718
L576.214 -78.6718
L576.857 -79.3823
L577.119 -79.3823
L585.572 -87.1985
L585.798 -87.1985
L586.029 -87.1985
L587.134 -87.1985
L589.094 -87.1985
L589.633 -85.7774
L594.108 -80.0929
L598.069 -70.1451
L599.92 -66.5923
L600.288 -66.5923
L610.824 -75.8295
L611.261 -75.8295
L612.719 -75.8295
L613.074 -75.8295
L618.233 -71.5662
L620.593 -68.0134
L621.094 -68.0134
L624.478 -68.0134
L625.526 -68.0134
L626.236 -68.0134
L628.26 -68.0134
L632.518 -80.8034
L633.53 -81.514
L634.146 -82.2246
L634.476 -82.2246
L635.146 -83.6457
L644.961 -64.4606
L645.715 -64.4606
L647.466 -64.4606
L649.07 -62.3289
L652.494 -59.4867
L653.295 -59.4867
L655.212 -59.4867
L656.241 -60.1972
L656.825 -60.9078
L659.786 -65.1711
L664.686 -66.5923
L674.742 -60.9078
L691.866 -70.8556
L694.345 -68.0134
L694.594 -68.0134
L695.102 -68.0134
L696.662 -68.7239
L698.622 -69.4345
L699.449 -69.4345
L700.507 -69.4345
L707.04 -70.8556
L707.04 -39.591
L707.04 -39.591
L700.507 -39.591
L699.449 -39.591
L698.622 -39.591
L696.662 -39.591
L695.102 -39.591
L694.594 -39.591
L694.345 -39.591
L691.866 -39.591
L674.742 -39.591
L664.686 -39.591
L659.786 -39.591
L656.825 -39.591
L656.241 -39.591
L655.212 -39.591
L653.295 -39.591
L652.494 -39.591
L649.07 -39.591
L647.466 -39.591
L645.715 -39.591
L644.961 -39.591
L635.146 -39.591
L634.476 -39.591
L634.146 -39.591
L633.53 -39.591
L632.518 -39.591
L628.26 -39.591
L626.236 -39.591
L625.526 -39.591
L624.478 -39.591
L621.094 -39.591
L620.593 -39.591
L618.233 -39.591
L613.074 -39.591
L612.719 -39.591
L611.261 -39.591
L610.824 -39.591
L600.288 -39.591
L599.92 -39.591
L598.069 -39.591
L594.108 -39.591
L589.633 -39.591
L589.094 -39.591
L587.134 -39.591
L586.029 -39.591
L585.798 -39.591
L585.572 -39.591
L577.119 -39.591
L576.857 -39.591
L576.214 -39.591
L575.628 -39.591
L573.109 -39.591
L572.264 -39.591
L571.344 -39.591
L567.773 -39.591
L566.719 -39.591
L563.945 -39.591
L562.471 -39.591
L561.36 -39.591
L560.167 -39.591
L558.633 -39.591
L557.086 -39.591
L556.26 -39.591
L555.935 -39.591
L555.475 -39.591
L549.414 -39.591
L548.472 -39.591
L546.388 -39.591
L545.758 -39.591
L541.197 -39.591
L540.446 -39.591
L535.21 -39.591
L534.863 -39.591
L534.054 -39.591
L533.659 -39.591
L520.982 -39.591
L520.595 -39.591
L520.266 -39.591
L519.942 -39.591
L518.411 -39.591
L517.635 -39.591
L516.761 -39.591
L515.393 -39.591
L514.897 -39.591
L509.377 -39.591
L505.401 -39.591
L495.766 -39.591
L491.655 -39.591
L489.031 -39.591
L486.726 -39.591
L484.163 -39.591
L482.798 -39.591
L461.864 -39.591
L459.089 -39.591
L456.744 -39.591
L456.189 -39.591
L453.266 -39.591
L452.364 -39.591
L451.44 -39.591
L442.373 -39.591
L438.654 -39.591
L434.577 -39.591
L430.932 -39.591
L427.06 -39.591
L426.289 -39.591
L425.737 -39.591
L424.852 -39.591
L424.301 -39.591
L423.071 -39.591
L422.314 -39.591
L421.55 -39.591
L420 -39.591
L419.368 -39.591
L418.581 -39.591
L417.729 -39.591
L415.899 -39.591
L414.56 -39.591
L406.393 -39.591
L405.055 -39.591
L402.911 -39.591
L402.238 -39.591
L390.669 -39.591
L388.714 -39.591
L385.693 -39.591
L385.23 -39.591
L384.529 -39.591
L379.721 -39.591
L372.395 -39.591
L362.257 -39.591
L355.714 -39.591
L354.973 -39.591
L353.53 -39.591
L352.525 -39.591
L351.576 -39.591
L350.776 -39.591
L350.198 -39.591
L349.393 -39.591
L346.484 -39.591
L342.145 -39.591
L340.462 -39.591
L338.461 -39.591
L337.108 -39.591
L335.996 -39.591
L329.492 -39.591
L324.756 -39.591
L322.848 -39.591
L320.703 -39.591
L315.519 -39.591
L307.876 -39.591
L303.77 -39.591
L302.207 -39.591
L300.96 -39.591
L300.02 -39.591
L299.392 -39.591
L297.867 -39.591
L297.434 -39.591
L296.97 -39.591
L290.826 -39.591
L289.357 -39.591
L288.48 -39.591
L287.817 -39.591
L285.919 -39.591
L285.525 -39.591
L284.338 -39.591
L283.601 -39.591
L281.698 -39.591
L280.782 -39.591
L278.059 -39.591
L276.715 -39.591
L275.457 -39.591
L274.068 -39.591
L271.584 -39.591
L269.349 -39.591
L266.729 -39.591
L260.371 -39.591
L259.296 -39.591
L258.295 -39.591
L249.378 -39.591
L235.566 -39.591
L232.831 -39.591
L229.583 -39.591
L220.068 -39.591
L218.676 -39.591
L218.495 -39.591
L207.144 -39.591
L203.542 -39.591
L200.847 -39.591
L200.187 -39.591
L199.746 -39.591
L196.821 -39.591
L196.528 -39.591
L194.226 -39.591
L193.459 -39.591
L192.547 -39.591
L190.672 -39.591
L188.498 -39.591
L187.725 -39.591
L185.554 -39.591
L182.932 -39.591
L178.603 -39.591
L178.323 -39.591
L174.923 -39.591
L174.07 -39.591
L172.213 -39.591
L170.717 -39.591
L169.969 -39.591
L168.159 -39.591
L164.711 -39.591
L161.222 -39.591
L159.418 -39.591
L158.23 -39.591
L143.306 -39.591
L142.419 -39.591
L137.297 -39.591
L133.528 -39.591
L132.508 -39.591
L131.522 -39.591
L129.12 -39.591
L127.106 -39.591
L124.626 -39.591
L119.344 -39.591
L118.766 -39.591
L118.178 -39.591
L115.651 -39.591
L112.421 -39.591
L110.969 -39.591
L109.378 -39.591
L107.559 -39.591
L104.596 -39.591
L103.925 -39.591
L102.049 -39.591
L99.7131 -39.591
L98.5013 -39.591
L97.7138 -39.591
L95.6836 -39.591
L95.015 -39.591
L83.7476 -39.591
L83.0729 -39.591
L82.1352 -39.591
L79.7913 -39.591
L78.0048 -39.591
L76.4929 -39.591
L75.3814 -39.591
L74.1225 -39.591
L73.2046 -39.591
L67.5778 -39.591
L66.6257 -39.591
L64.9464 -39.591
L63.3116 -39.591
L62.6832 -39.591
L62.1574 -39.591
L60.888 -39.591
L56.8485 -39.591
L55.8034 -39.591
L54.8695 -39.591
L53.5413 -39.591
L52.9348 -39.591
L51.5952 -39.591
L51.0867 -39.591
L50.592 -39.591
z
" id="C3_0_d338a99143"/>
    </defs>
    <g clip-path="url(#p6af9af8d71)">
     <use style="fill:#0000ff;opacity:0.05;stroke:#0000ff;stroke-linecap:butt;" x="0" xlink:href="#C3_0_d338a99143" y="144.0"/>
    </g>
   </g>
   <g id="PolyCollection_5">
    <defs>
     <path d="
M50.592 -39.591
L50.592 -70.8556
L51.0867 -70.8556
L51.5952 -71.5662
L52.9348 -72.2767
L53.5413 -72.9873
L54.8695 -74.4084
L55.8034 -75.8295
L56.8485 -74.4084
L60.888 -70.1451
L62.1574 -69.4345
L62.6832 -69.4345
L63.3116 -69.4345
L64.9464 -68.7239
L66.6257 -68.7239
L67.5778 -68.0134
L73.2046 -67.3028
L74.1225 -67.3028
L75.3814 -67.3028
L76.4929 -67.3028
L78.0048 -68.0134
L79.7913 -69.4345
L82.1352 -71.5662
L83.0729 -72.2767
L83.7476 -72.9873
L95.015 -85.7774
L95.6836 -87.1985
L97.7138 -90.7513
L98.5013 -92.883
L99.7131 -97.1463
L102.049 -104.962
L103.925 -107.805
L104.596 -109.226
L107.559 -110.647
L109.378 -110.647
L110.969 -110.647
L112.421 -109.936
L115.651 -108.515
L118.178 -108.515
L118.766 -107.805
L119.344 -107.805
L124.626 -104.962
L127.106 -104.252
L129.12 -107.094
L131.522 -109.226
L132.508 -107.094
L133.528 -104.962
L137.297 -105.673
L142.419 -110.647
L143.306 -109.936
L158.23 -109.936
L159.418 -109.226
L161.222 -108.515
L164.711 -110.647
L168.159 -110.647
L169.969 -110.647
L170.717 -110.647
L172.213 -110.647
L174.07 -110.647
L174.923 -110.647
L178.323 -110.647
L178.603 -110.647
L182.932 -110.647
L185.554 -110.647
L187.725 -110.647
L188.498 -110.647
L190.672 -110.647
L192.547 -110.647
L193.459 -110.647
L194.226 -110.647
L196.528 -110.647
L196.821 -110.647
L199.746 -110.647
L200.187 -110.647
L200.847 -110.647
L203.542 -110.647
L207.144 -110.647
L218.495 -95.0146
L218.676 -95.0146
L220.068 -95.7252
L229.583 -102.12
L232.831 -104.252
L235.566 -106.384
L249.378 -105.673
L258.295 -109.226
L259.296 -109.226
L260.371 -109.226
L266.729 -109.936
L269.349 -110.647
L271.584 -109.226
L274.068 -107.094
L275.457 -107.805
L276.715 -108.515
L278.059 -108.515
L280.782 -109.226
L281.698 -107.805
L283.601 -106.384
L284.338 -105.673
L285.525 -104.962
L285.919 -104.962
L287.817 -100.699
L288.48 -99.278
L289.357 -98.5674
L290.826 -97.8569
L296.97 -100.699
L297.434 -99.278
L297.867 -98.5674
L299.392 -95.7252
L300.02 -95.0146
L300.96 -95.0146
L302.207 -95.0146
L303.77 -95.0146
L307.876 -95.0146
L315.519 -96.4358
L320.703 -94.3041
L322.848 -90.0407
L324.756 -87.909
L329.492 -85.0668
L335.996 -85.0668
L337.108 -84.3562
L338.461 -83.6457
L340.462 -82.9351
L342.145 -80.8034
L346.484 -76.5401
L349.393 -77.2507
L350.198 -77.2507
L350.776 -77.2507
L351.576 -77.2507
L352.525 -77.2507
L353.53 -77.2507
L354.973 -78.6718
L355.714 -80.8034
L362.257 -104.962
L372.395 -110.647
L379.721 -110.647
L384.529 -110.647
L385.23 -109.226
L385.693 -108.515
L388.714 -102.831
L390.669 -97.8569
L402.238 -85.0668
L402.911 -85.0668
L405.055 -87.1985
L406.393 -86.4879
L414.56 -85.0668
L415.899 -83.6457
L417.729 -82.2246
L418.581 -80.8034
L419.368 -79.3823
L420 -78.6718
L421.55 -75.119
L422.314 -73.6979
L423.071 -74.4084
L424.301 -77.2507
L424.852 -76.5401
L425.737 -76.5401
L426.289 -76.5401
L427.06 -77.2507
L430.932 -82.2246
L434.577 -86.4879
L438.654 -83.6457
L442.373 -79.3823
L451.44 -84.3562
L452.364 -85.0668
L453.266 -86.4879
L456.189 -87.1985
L456.744 -86.4879
L459.089 -85.0668
L461.864 -80.8034
L482.798 -80.0929
L484.163 -80.0929
L486.726 -80.0929
L489.031 -78.6718
L491.655 -79.3823
L495.766 -77.9612
L505.401 -74.4084
L509.377 -76.5401
L514.897 -75.8295
L515.393 -75.8295
L516.761 -75.8295
L517.635 -75.8295
L518.411 -77.2507
L519.942 -80.8034
L520.266 -80.0929
L520.595 -79.3823
L520.982 -78.6718
L533.659 -79.3823
L534.054 -78.6718
L534.863 -77.9612
L535.21 -77.9612
L540.446 -74.4084
L541.197 -75.119
L545.758 -80.8034
L546.388 -80.8034
L548.472 -83.6457
L549.414 -83.6457
L555.475 -87.909
L555.935 -87.909
L556.26 -87.909
L557.086 -87.909
L558.633 -87.909
L560.167 -87.909
L561.36 -87.909
L562.471 -87.909
L563.945 -87.1985
L566.719 -87.1985
L567.773 -86.4879
L571.344 -84.3562
L572.264 -82.9351
L573.109 -81.514
L575.628 -78.6718
L576.214 -78.6718
L576.857 -79.3823
L577.119 -79.3823
L585.572 -87.1985
L585.798 -87.1985
L586.029 -87.1985
L587.134 -87.1985
L589.094 -87.1985
L589.633 -85.7774
L594.108 -80.0929
L598.069 -70.1451
L599.92 -66.5923
L600.288 -66.5923
L610.824 -75.8295
L611.261 -75.8295
L612.719 -75.8295
L613.074 -75.8295
L618.233 -71.5662
L620.593 -68.0134
L621.094 -68.0134
L624.478 -68.0134
L625.526 -68.0134
L626.236 -68.0134
L628.26 -68.0134
L632.518 -80.8034
L633.53 -81.514
L634.146 -82.2246
L634.476 -82.2246
L635.146 -83.6457
L644.961 -64.4606
L645.715 -64.4606
L647.466 -64.4606
L649.07 -62.3289
L652.494 -59.4867
L653.295 -59.4867
L655.212 -59.4867
L656.241 -60.1972
L656.825 -60.9078
L659.786 -65.1711
L664.686 -66.5923
L674.742 -60.9078
L691.866 -70.8556
L694.345 -68.0134
L694.594 -68.0134
L695.102 -68.0134
L696.662 -68.7239
L698.622 -69.4345
L699.449 -69.4345
L700.507 -69.4345
L707.04 -70.8556
L707.04 -39.591
L707.04 -39.591
L700.507 -39.591
L699.449 -39.591
L698.622 -39.591
L696.662 -39.591
L695.102 -39.591
L694.594 -39.591
L694.345 -39.591
L691.866 -39.591
L674.742 -39.591
L664.686 -39.591
L659.786 -39.591
L656.825 -39.591
L656.241 -39.591
L655.212 -39.591
L653.295 -39.591
L652.494 -39.591
L649.07 -39.591
L647.466 -39.591
L645.715 -39.591
L644.961 -39.591
L635.146 -39.591
L634.476 -39.591
L634.146 -39.591
L633.53 -39.591
L632.518 -39.591
L628.26 -39.591
L626.236 -39.591
L625.526 -39.591
L624.478 -39.591
L621.094 -39.591
L620.593 -39.591
L618.233 -39.591
L613.074 -39.591
L612.719 -39.591
L611.261 -39.591
L610.824 -39.591
L600.288 -39.591
L599.92 -39.591
L598.069 -39.591
L594.108 -39.591
L589.633 -39.591
L589.094 -39.591
L587.134 -39.591
L586.029 -39.591
L585.798 -39.591
L585.572 -39.591
L577.119 -39.591
L576.857 -39.591
L576.214 -39.591
L575.628 -39.591
L573.109 -39.591
L572.264 -39.591
L571.344 -39.591
L567.773 -39.591
L566.719 -39.591
L563.945 -39.591
L562.471 -39.591
L561.36 -39.591
L560.167 -39.591
L558.633 -39.591
L557.086 -39.591
L556.26 -39.591
L555.935 -39.591
L555.475 -39.591
L549.414 -39.591
L548.472 -39.591
L546.388 -39.591
L545.758 -39.591
L541.197 -39.591
L540.446 -39.591
L535.21 -39.591
L534.863 -39.591
L534.054 -39.591
L533.659 -39.591
L520.982 -39.591
L520.595 -39.591
L520.266 -39.591
L519.942 -39.591
L518.411 -39.591
L517.635 -39.591
L516.761 -39.591
L515.393 -39.591
L514.897 -39.591
L509.377 -39.591
L505.401 -39.591
L495.766 -39.591
L491.655 -39.591
L489.031 -39.591
L486.726 -39.591
L484.163 -39.591
L482.798 -39.591
L461.864 -39.591
L459.089 -39.591
L456.744 -39.591
L456.189 -39.591
L453.266 -39.591
L452.364 -39.591
L451.44 -39.591
L442.373 -39.591
L438.654 -39.591
L434.577 -39.591
L430.932 -39.591
L427.06 -39.591
L426.289 -39.591
L425.737 -39.591
L424.852 -39.591
L424.301 -39.591
L423.071 -39.591
L422.314 -39.591
L421.55 -39.591
L420 -39.591
L419.368 -39.591
L418.581 -39.591
L417.729 -39.591
L415.899 -39.591
L414.56 -39.591
L406.393 -39.591
L405.055 -39.591
L402.911 -39.591
L402.238 -39.591
L390.669 -39.591
L388.714 -39.591
L385.693 -39.591
L385.23 -39.591
L384.529 -39.591
L379.721 -39.591
L372.395 -39.591
L362.257 -39.591
L355.714 -39.591
L354.973 -39.591
L353.53 -39.591
L352.525 -39.591
L351.576 -39.591
L350.776 -39.591
L350.198 -39.591
L349.393 -39.591
L346.484 -39.591
L342.145 -39.591
L340.462 -39.591
L338.461 -39.591
L337.108 -39.591
L335.996 -39.591
L329.492 -39.591
L324.756 -39.591
L322.848 -39.591
L320.703 -39.591
L315.519 -39.591
L307.876 -39.591
L303.77 -39.591
L302.207 -39.591
L300.96 -39.591
L300.02 -39.591
L299.392 -39.591
L297.867 -39.591
L297.434 -39.591
L296.97 -39.591
L290.826 -39.591
L289.357 -39.591
L288.48 -39.591
L287.817 -39.591
L285.919 -39.591
L285.525 -39.591
L284.338 -39.591
L283.601 -39.591
L281.698 -39.591
L280.782 -39.591
L278.059 -39.591
L276.715 -39.591
L275.457 -39.591
L274.068 -39.591
L271.584 -39.591
L269.349 -39.591
L266.729 -39.591
L260.371 -39.591
L259.296 -39.591
L258.295 -39.591
L249.378 -39.591
L235.566 -39.591
L232.831 -39.591
L229.583 -39.591
L220.068 -39.591
L218.676 -39.591
L218.495 -39.591
L207.144 -39.591
L203.542 -39.591
L200.847 -39.591
L200.187 -39.591
L199.746 -39.591
L196.821 -39.591
L196.528 -39.591
L194.226 -39.591
L193.459 -39.591
L192.547 -39.591
L190.672 -39.591
L188.498 -39.591
L187.725 -39.591
L185.554 -39.591
L182.932 -39.591
L178.603 -39.591
L178.323 -39.591
L174.923 -39.591
L174.07 -39.591
L172.213 -39.591
L170.717 -39.591
L169.969 -39.591
L168.159 -39.591
L164.711 -39.591
L161.222 -39.591
L159.418 -39.591
L158.23 -39.591
L143.306 -39.591
L142.419 -39.591
L137.297 -39.591
L133.528 -39.591
L132.508 -39.591
L131.522 -39.591
L129.12 -39.591
L127.106 -39.591
L124.626 -39.591
L119.344 -39.591
L118.766 -39.591
L118.178 -39.591
L115.651 -39.591
L112.421 -39.591
L110.969 -39.591
L109.378 -39.591
L107.559 -39.591
L104.596 -39.591
L103.925 -39.591
L102.049 -39.591
L99.7131 -39.591
L98.5013 -39.591
L97.7138 -39.591
L95.6836 -39.591
L95.015 -39.591
L83.7476 -39.591
L83.0729 -39.591
L82.1352 -39.591
L79.7913 -39.591
L78.0048 -39.591
L76.4929 -39.591
L75.3814 -39.591
L74.1225 -39.591
L73.2046 -39.591
L67.5778 -39.591
L66.6257 -39.591
L64.9464 -39.591
L63.3116 -39.591
L62.6832 -39.591
L62.1574 -39.591
L60.888 -39.591
L56.8485 -39.591
L55.8034 -39.591
L54.8695 -39.591
L53.5413 -39.591
L52.9348 -39.591
L51.5952 -39.591
L51.0867 -39.591
L50.592 -39.591
z
" id="C4_0_88ed54110a"/>
    </defs>
    <g clip-path="url(#p6af9af8d71)">
     <use style="fill:#0000ff;opacity:0.05;stroke:#0000ff;stroke-linecap:butt;" x="0" xlink:href="#C4_0_88ed54110a" y="144.0"/>
    </g>
   </g>
   <g id="PolyCollection_6">
    <defs>
     <path d="
M50.592 -39.591
L50.592 -70.8556
L51.0867 -70.8556
L51.5952 -71.5662
L52.9348 -72.2767
L53.5413 -72.9873
L54.8695 -74.4084
L55.8034 -75.8295
L56.8485 -74.4084
L60.888 -70.1451
L62.1574 -69.4345
L62.6832 -69.4345
L63.3116 -69.4345
L64.9464 -68.7239
L66.6257 -68.7239
L67.5778 -68.0134
L73.2046 -67.3028
L74.1225 -67.3028
L75.3814 -67.3028
L76.4929 -67.3028
L78.0048 -68.0134
L79.7913 -69.4345
L82.1352 -71.5662
L83.0729 -72.2767
L83.7476 -72.9873
L95.015 -85.7774
L95.6836 -87.1985
L97.7138 -90.7513
L98.5013 -92.883
L99.7131 -97.1463
L102.049 -104.962
L103.925 -107.805
L104.596 -109.226
L107.559 -111.358
L109.378 -110.647
L110.969 -110.647
L112.421 -109.936
L115.651 -108.515
L118.178 -108.515
L118.766 -107.805
L119.344 -107.805
L124.626 -104.962
L127.106 -104.252
L129.12 -107.094
L131.522 -109.226
L132.508 -107.094
L133.528 -104.962
L137.297 -105.673
L142.419 -110.647
L143.306 -109.936
L158.23 -109.936
L159.418 -109.226
L161.222 -108.515
L164.711 -111.358
L168.159 -114.2
L169.969 -114.2
L170.717 -114.91
L172.213 -112.779
L174.07 -110.647
L174.923 -111.358
L178.323 -117.042
L178.603 -117.042
L182.932 -118.463
L185.554 -117.753
L187.725 -115.621
L188.498 -116.331
L190.672 -118.463
L192.547 -121.305
L193.459 -122.726
L194.226 -121.305
L196.528 -117.042
L196.821 -116.331
L199.746 -116.331
L200.187 -116.331
L200.847 -117.042
L203.542 -119.174
L207.144 -113.489
L218.495 -95.0146
L218.676 -95.0146
L220.068 -95.7252
L229.583 -102.12
L232.831 -104.252
L235.566 -106.384
L249.378 -105.673
L258.295 -109.226
L259.296 -109.226
L260.371 -109.226
L266.729 -109.936
L269.349 -110.647
L271.584 -109.226
L274.068 -107.094
L275.457 -107.805
L276.715 -108.515
L278.059 -108.515
L280.782 -109.226
L281.698 -107.805
L283.601 -106.384
L284.338 -105.673
L285.525 -104.962
L285.919 -104.962
L287.817 -100.699
L288.48 -99.278
L289.357 -98.5674
L290.826 -97.8569
L296.97 -100.699
L297.434 -99.278
L297.867 -98.5674
L299.392 -95.7252
L300.02 -95.0146
L300.96 -95.0146
L302.207 -95.0146
L303.77 -95.0146
L307.876 -95.0146
L315.519 -96.4358
L320.703 -94.3041
L322.848 -90.0407
L324.756 -87.909
L329.492 -85.0668
L335.996 -85.0668
L337.108 -84.3562
L338.461 -83.6457
L340.462 -82.9351
L342.145 -80.8034
L346.484 -76.5401
L349.393 -77.2507
L350.198 -77.2507
L350.776 -77.2507
L351.576 -77.2507
L352.525 -77.2507
L353.53 -77.2507
L354.973 -78.6718
L355.714 -80.8034
L362.257 -104.962
L372.395 -116.331
L379.721 -122.016
L384.529 -111.358
L385.23 -109.226
L385.693 -108.515
L388.714 -102.831
L390.669 -97.8569
L402.238 -85.0668
L402.911 -85.0668
L405.055 -87.1985
L406.393 -86.4879
L414.56 -85.0668
L415.899 -83.6457
L417.729 -82.2246
L418.581 -80.8034
L419.368 -79.3823
L420 -78.6718
L421.55 -75.119
L422.314 -73.6979
L423.071 -74.4084
L424.301 -77.2507
L424.852 -76.5401
L425.737 -76.5401
L426.289 -76.5401
L427.06 -77.2507
L430.932 -82.2246
L434.577 -86.4879
L438.654 -83.6457
L442.373 -79.3823
L451.44 -84.3562
L452.364 -85.0668
L453.266 -86.4879
L456.189 -87.1985
L456.744 -86.4879
L459.089 -85.0668
L461.864 -80.8034
L482.798 -80.0929
L484.163 -80.0929
L486.726 -80.0929
L489.031 -78.6718
L491.655 -79.3823
L495.766 -77.9612
L505.401 -74.4084
L509.377 -76.5401
L514.897 -75.8295
L515.393 -75.8295
L516.761 -75.8295
L517.635 -75.8295
L518.411 -77.2507
L519.942 -80.8034
L520.266 -80.0929
L520.595 -79.3823
L520.982 -78.6718
L533.659 -79.3823
L534.054 -78.6718
L534.863 -77.9612
L535.21 -77.9612
L540.446 -74.4084
L541.197 -75.119
L545.758 -80.8034
L546.388 -80.8034
L548.472 -83.6457
L549.414 -83.6457
L555.475 -87.909
L555.935 -87.909
L556.26 -87.909
L557.086 -87.909
L558.633 -87.909
L560.167 -87.909
L561.36 -87.909
L562.471 -87.909
L563.945 -87.1985
L566.719 -87.1985
L567.773 -86.4879
L571.344 -84.3562
L572.264 -82.9351
L573.109 -81.514
L575.628 -78.6718
L576.214 -78.6718
L576.857 -79.3823
L577.119 -79.3823
L585.572 -87.1985
L585.798 -87.1985
L586.029 -87.1985
L587.134 -87.1985
L589.094 -87.1985
L589.633 -85.7774
L594.108 -80.0929
L598.069 -70.1451
L599.92 -66.5923
L600.288 -66.5923
L610.824 -75.8295
L611.261 -75.8295
L612.719 -75.8295
L613.074 -75.8295
L618.233 -71.5662
L620.593 -68.0134
L621.094 -68.0134
L624.478 -68.0134
L625.526 -68.0134
L626.236 -68.0134
L628.26 -68.0134
L632.518 -80.8034
L633.53 -81.514
L634.146 -82.2246
L634.476 -82.2246
L635.146 -83.6457
L644.961 -64.4606
L645.715 -64.4606
L647.466 -64.4606
L649.07 -62.3289
L652.494 -59.4867
L653.295 -59.4867
L655.212 -59.4867
L656.241 -60.1972
L656.825 -60.9078
L659.786 -65.1711
L664.686 -66.5923
L674.742 -60.9078
L691.866 -70.8556
L694.345 -68.0134
L694.594 -68.0134
L695.102 -68.0134
L696.662 -68.7239
L698.622 -69.4345
L699.449 -69.4345
L700.507 -69.4345
L707.04 -70.8556
L707.04 -39.591
L707.04 -39.591
L700.507 -39.591
L699.449 -39.591
L698.622 -39.591
L696.662 -39.591
L695.102 -39.591
L694.594 -39.591
L694.345 -39.591
L691.866 -39.591
L674.742 -39.591
L664.686 -39.591
L659.786 -39.591
L656.825 -39.591
L656.241 -39.591
L655.212 -39.591
L653.295 -39.591
L652.494 -39.591
L649.07 -39.591
L647.466 -39.591
L645.715 -39.591
L644.961 -39.591
L635.146 -39.591
L634.476 -39.591
L634.146 -39.591
L633.53 -39.591
L632.518 -39.591
L628.26 -39.591
L626.236 -39.591
L625.526 -39.591
L624.478 -39.591
L621.094 -39.591
L620.593 -39.591
L618.233 -39.591
L613.074 -39.591
L612.719 -39.591
L611.261 -39.591
L610.824 -39.591
L600.288 -39.591
L599.92 -39.591
L598.069 -39.591
L594.108 -39.591
L589.633 -39.591
L589.094 -39.591
L587.134 -39.591
L586.029 -39.591
L585.798 -39.591
L585.572 -39.591
L577.119 -39.591
L576.857 -39.591
L576.214 -39.591
L575.628 -39.591
L573.109 -39.591
L572.264 -39.591
L571.344 -39.591
L567.773 -39.591
L566.719 -39.591
L563.945 -39.591
L562.471 -39.591
L561.36 -39.591
L560.167 -39.591
L558.633 -39.591
L557.086 -39.591
L556.26 -39.591
L555.935 -39.591
L555.475 -39.591
L549.414 -39.591
L548.472 -39.591
L546.388 -39.591
L545.758 -39.591
L541.197 -39.591
L540.446 -39.591
L535.21 -39.591
L534.863 -39.591
L534.054 -39.591
L533.659 -39.591
L520.982 -39.591
L520.595 -39.591
L520.266 -39.591
L519.942 -39.591
L518.411 -39.591
L517.635 -39.591
L516.761 -39.591
L515.393 -39.591
L514.897 -39.591
L509.377 -39.591
L505.401 -39.591
L495.766 -39.591
L491.655 -39.591
L489.031 -39.591
L486.726 -39.591
L484.163 -39.591
L482.798 -39.591
L461.864 -39.591
L459.089 -39.591
L456.744 -39.591
L456.189 -39.591
L453.266 -39.591
L452.364 -39.591
L451.44 -39.591
L442.373 -39.591
L438.654 -39.591
L434.577 -39.591
L430.932 -39.591
L427.06 -39.591
L426.289 -39.591
L425.737 -39.591
L424.852 -39.591
L424.301 -39.591
L423.071 -39.591
L422.314 -39.591
L421.55 -39.591
L420 -39.591
L419.368 -39.591
L418.581 -39.591
L417.729 -39.591
L415.899 -39.591
L414.56 -39.591
L406.393 -39.591
L405.055 -39.591
L402.911 -39.591
L402.238 -39.591
L390.669 -39.591
L388.714 -39.591
L385.693 -39.591
L385.23 -39.591
L384.529 -39.591
L379.721 -39.591
L372.395 -39.591
L362.257 -39.591
L355.714 -39.591
L354.973 -39.591
L353.53 -39.591
L352.525 -39.591
L351.576 -39.591
L350.776 -39.591
L350.198 -39.591
L349.393 -39.591
L346.484 -39.591
L342.145 -39.591
L340.462 -39.591
L338.461 -39.591
L337.108 -39.591
L335.996 -39.591
L329.492 -39.591
L324.756 -39.591
L322.848 -39.591
L320.703 -39.591
L315.519 -39.591
L307.876 -39.591
L303.77 -39.591
L302.207 -39.591
L300.96 -39.591
L300.02 -39.591
L299.392 -39.591
L297.867 -39.591
L297.434 -39.591
L296.97 -39.591
L290.826 -39.591
L289.357 -39.591
L288.48 -39.591
L287.817 -39.591
L285.919 -39.591
L285.525 -39.591
L284.338 -39.591
L283.601 -39.591
L281.698 -39.591
L280.782 -39.591
L278.059 -39.591
L276.715 -39.591
L275.457 -39.591
L274.068 -39.591
L271.584 -39.591
L269.349 -39.591
L266.729 -39.591
L260.371 -39.591
L259.296 -39.591
L258.295 -39.591
L249.378 -39.591
L235.566 -39.591
L232.831 -39.591
L229.583 -39.591
L220.068 -39.591
L218.676 -39.591
L218.495 -39.591
L207.144 -39.591
L203.542 -39.591
L200.847 -39.591
L200.187 -39.591
L199.746 -39.591
L196.821 -39.591
L196.528 -39.591
L194.226 -39.591
L193.459 -39.591
L192.547 -39.591
L190.672 -39.591
L188.498 -39.591
L187.725 -39.591
L185.554 -39.591
L182.932 -39.591
L178.603 -39.591
L178.323 -39.591
L174.923 -39.591
L174.07 -39.591
L172.213 -39.591
L170.717 -39.591
L169.969 -39.591
L168.159 -39.591
L164.711 -39.591
L161.222 -39.591
L159.418 -39.591
L158.23 -39.591
L143.306 -39.591
L142.419 -39.591
L137.297 -39.591
L133.528 -39.591
L132.508 -39.591
L131.522 -39.591
L129.12 -39.591
L127.106 -39.591
L124.626 -39.591
L119.344 -39.591
L118.766 -39.591
L118.178 -39.591
L115.651 -39.591
L112.421 -39.591
L110.969 -39.591
L109.378 -39.591
L107.559 -39.591
L104.596 -39.591
L103.925 -39.591
L102.049 -39.591
L99.7131 -39.591
L98.5013 -39.591
L97.7138 -39.591
L95.6836 -39.591
L95.015 -39.591
L83.7476 -39.591
L83.0729 -39.591
L82.1352 -39.591
L79.7913 -39.591
L78.0048 -39.591
L76.4929 -39.591
L75.3814 -39.591
L74.1225 -39.591
L73.2046 -39.591
L67.5778 -39.591
L66.6257 -39.591
L64.9464 -39.591
L63.3116 -39.591
L62.6832 -39.591
L62.1574 -39.591
L60.888 -39.591
L56.8485 -39.591
L55.8034 -39.591
L54.8695 -39.591
L53.5413 -39.591
L52.9348 -39.591
L51.5952 -39.591
L51.0867 -39.591
L50.592 -39.591
z
" id="C5_0_b9ce65a176"/>
    </defs>
    <g clip-path="url(#p6af9af8d71)">
     <use style="fill:#0000ff;opacity:0.05;stroke:#0000ff;stroke-linecap:butt;" x="0" xlink:href="#C5_0_b9ce65a176" y="144.0"/>
    </g>
   </g>
   <g id="line2d_1">
    <path clip-path="url(#p6af9af8d71)" d="
M50.592 73.1444
L51.0867 73.1444
L51.5952 72.4338
L52.9348 71.7233
L54.8695 69.5916
L55.8034 68.1705
L56.8485 69.5916
L60.888 73.8549
L62.1574 74.5655
L63.3116 74.5655
L64.9464 75.2761
L66.6257 75.2761
L67.5778 75.9866
L73.2046 76.6972
L76.4929 76.6972
L78.0048 75.9866
L79.7913 74.5655
L83.7476 71.0127
L95.015 58.2226
L95.6836 56.8015
L97.7138 53.2487
L98.5013 51.117
L102.049 39.0375
L103.925 36.1953
L104.596 34.7742
L107.559 32.6425
L109.378 33.3531
L110.969 33.3531
L112.421 34.0636
L115.651 35.4847
L118.178 35.4847
L118.766 36.1953
L119.344 36.1953
L124.626 39.0375
L127.106 39.7481
L129.12 36.9059
L131.522 34.7742
L133.528 39.0375
L137.297 38.327
L142.419 33.3531
L143.306 34.0636
L158.23 34.0636
L159.418 34.7742
L161.222 35.4847
L168.159 29.8003
L169.969 29.8003
L170.717 29.0897
L172.213 31.2214
L174.07 33.3531
L174.923 32.6425
L178.323 26.958
L178.603 26.958
L182.932 25.5369
L185.554 26.2475
L187.725 28.3791
L190.672 25.5369
L193.459 21.2735
L196.821 27.6686
L200.187 27.6686
L200.847 26.958
L203.542 24.8263
L207.144 30.5108
L218.495 48.9854
L218.676 48.9854
L220.068 48.2748
L232.831 39.7481
L235.566 37.6164
L249.378 38.327
L258.295 34.7742
L260.371 34.7742
L266.729 34.0636
L269.349 33.3531
L271.584 34.7742
L274.068 36.9059
L276.715 35.4847
L278.059 35.4847
L280.782 34.7742
L281.698 36.1953
L283.601 37.6164
L284.338 38.327
L285.525 39.0375
L285.919 39.0375
L288.48 44.722
L289.357 45.4326
L290.826 46.1431
L296.97 43.3009
L297.434 44.722
L297.867 45.4326
L299.392 48.2748
L300.02 48.9854
L307.876 48.9854
L315.519 47.5642
L320.703 49.6959
L322.848 53.9593
L324.756 56.091
L329.492 58.9332
L335.996 58.9332
L337.108 59.6438
L338.461 60.3543
L340.462 61.0649
L342.145 63.1966
L346.484 67.4599
L349.393 66.7493
L353.53 66.7493
L354.973 65.3282
L355.714 63.1966
L362.257 39.0375
L372.395 27.6686
L379.721 21.9841
L384.529 32.6425
L385.23 34.7742
L385.693 35.4847
L388.714 41.1692
L390.669 46.1431
L402.238 58.9332
L402.911 58.9332
L405.055 56.8015
L406.393 57.5121
L414.56 58.9332
L415.899 60.3543
L417.729 61.7754
L419.368 64.6177
L420 65.3282
L421.55 68.881
L422.314 70.3021
L423.071 69.5916
L424.301 66.7493
L424.852 67.4599
L426.289 67.4599
L427.06 66.7493
L430.932 61.7754
L434.577 57.5121
L438.654 60.3543
L442.373 64.6177
L451.44 59.6438
L452.364 58.9332
L453.266 57.5121
L456.189 56.8015
L456.744 57.5121
L459.089 58.9332
L461.864 63.1966
L484.163 63.9071
L486.726 63.9071
L489.031 65.3282
L491.655 64.6177
L495.766 66.0388
L505.401 69.5916
L509.377 67.4599
L515.393 68.1705
L517.635 68.1705
L518.411 66.7493
L519.942 63.1966
L520.982 65.3282
L533.659 64.6177
L534.054 65.3282
L534.863 66.0388
L535.21 66.0388
L540.446 69.5916
L541.197 68.881
L545.758 63.1966
L546.388 63.1966
L548.472 60.3543
L549.414 60.3543
L555.475 56.091
L562.471 56.091
L563.945 56.8015
L566.719 56.8015
L567.773 57.5121
L571.344 59.6438
L573.109 62.486
L575.628 65.3282
L576.214 65.3282
L576.857 64.6177
L577.119 64.6177
L585.572 56.8015
L589.094 56.8015
L589.633 58.2226
L594.108 63.9071
L598.069 73.8549
L599.92 77.4077
L600.288 77.4077
L610.824 68.1705
L613.074 68.1705
L618.233 72.4338
L620.593 75.9866
L628.26 75.9866
L632.518 63.1966
L633.53 62.486
L634.146 61.7754
L634.476 61.7754
L635.146 60.3543
L644.961 79.5394
L647.466 79.5394
L649.07 81.6711
L652.494 84.5133
L655.212 84.5133
L656.241 83.8028
L656.825 83.0922
L659.786 78.8289
L664.686 77.4077
L674.742 83.0922
L691.866 73.1444
L694.345 75.9866
L695.102 75.9866
L696.662 75.2761
L698.622 74.5655
L700.507 74.5655
L707.04 73.1444
L707.04 73.1444" style="fill:none;stroke:#0000ff;stroke-width:2;"/>
   </g>
   <g id="matplotlib.axis_1">
    <g id="xtick_1">
     <g id="line2d_2">
      <defs>
       <path d="
M0 0
L0 -4" id="mcb557df647" style="stroke:#000000;stroke-linecap:butt;stroke-width:0.5;"/>
      </defs>
      <g>
       <use style="stroke:#000000;stroke-linecap:butt;stroke-width:0.5;" x="50.1328125" xlink:href="#mcb557df647" y="104.409"/>
      </g>
     </g>
     <g id="line2d_3">
      <defs>
       <path d="
M0 0
L0 4" id="mdad270ee8e" style="stroke:#000000;stroke-linecap:butt;stroke-width:0.5;"/>
      </defs>
      <g>
       <use style="stroke:#000000;stroke-linecap:butt;stroke-width:0.5;" x="50.1328125" xlink:href="#mdad270ee8e" y="12.96"/>
      </g>
     </g>
     <g id="text_1">
      <!-- 0 -->
      <defs>
       <path d="
M31.7812 66.4062
Q24.1719 66.4062 20.3281 58.9062
Q16.5 51.4219 16.5 36.375
Q16.5 21.3906 20.3281 13.8906
Q24.1719 6.39062 31.7812 6.39062
Q39.4531 6.39062 43.2812 13.8906
Q47.125 21.3906 47.125 36.375
Q47.125 51.4219 43.2812 58.9062
Q39.4531 66.4062 31.7812 66.4062
M31.7812 74.2188
Q44.0469 74.2188 50.5156 64.5156
Q56.9844 54.8281 56.9844 36.375
Q56.9844 17.9688 50.5156 8.26562
Q44.0469 -1.42188 31.7812 -1.42188
Q19.5312 -1.42188 13.0625 8.26562
Q6.59375 17.9688 6.59375 36.375
Q6.59375 54.8281 13.0625 64.5156
Q19.5312 74.2188 31.7812 74.2188" id="BitstreamVeraSans-Roman-30"/>
      </defs>
      <g transform="translate(47.109375 117.31525)scale(0.12 -0.12)">
       <use xlink:href="#BitstreamVeraSans-Roman-30"/>
      </g>
     </g>
    </g>
    <g id="xtick_2">
     <g id="line2d_4">
      <g>
       <use style="stroke:#000000;stroke-linecap:butt;stroke-width:0.5;" x="147.325729207" xlink:href="#mcb557df647" y="104.409"/>
      </g>
     </g>
     <g id="line2d_5">
      <g>
       <use style="stroke:#000000;stroke-linecap:butt;stroke-width:0.5;" x="147.325729207" xlink:href="#mdad270ee8e" y="12.96"/>
      </g>
     </g>
     <g id="text_2">
      <!-- 5 -->
      <defs>
       <path d="
M10.7969 72.9062
L49.5156 72.9062
L49.5156 64.5938
L19.8281 64.5938
L19.8281 46.7344
Q21.9688 47.4688 24.1094 47.8281
Q26.2656 48.1875 28.4219 48.1875
Q40.625 48.1875 47.75 41.5
Q54.8906 34.8125 54.8906 23.3906
Q54.8906 11.625 47.5625 5.09375
Q40.2344 -1.42188 26.9062 -1.42188
Q22.3125 -1.42188 17.5469 -0.640625
Q12.7969 0.140625 7.71875 1.70312
L7.71875 11.625
Q12.1094 9.23438 16.7969 8.0625
Q21.4844 6.89062 26.7031 6.89062
Q35.1562 6.89062 40.0781 11.3281
Q45.0156 15.7656 45.0156 23.3906
Q45.0156 31 40.0781 35.4375
Q35.1562 39.8906 26.7031 39.8906
Q22.75 39.8906 18.8125 39.0156
Q14.8906 38.1406 10.7969 36.2812
z
" id="BitstreamVeraSans-Roman-35"/>
      </defs>
      <g transform="translate(144.495416707 117.15775)scale(0.12 -0.12)">
       <use xlink:href="#BitstreamVeraSans-Roman-35"/>
      </g>
     </g>
    </g>
    <g id="xtick_3">
     <g id="line2d_6">
      <g>
       <use style="stroke:#000000;stroke-linecap:butt;stroke-width:0.5;" x="244.518645915" xlink:href="#mcb557df647" y="104.409"/>
      </g>
     </g>
     <g id="line2d_7">
      <g>
       <use style="stroke:#000000;stroke-linecap:butt;stroke-width:0.5;" x="244.518645915" xlink:href="#mdad270ee8e" y="12.96"/>
      </g>
     </g>
     <g id="text_3">
      <!-- 10 -->
      <defs>
       <path d="
M12.4062 8.29688
L28.5156 8.29688
L28.5156 63.9219
L10.9844 60.4062
L10.9844 69.3906
L28.4219 72.9062
L38.2812 72.9062
L38.2812 8.29688
L54.3906 8.29688
L54.3906 0
L12.4062 0
z
" id="BitstreamVeraSans-Roman-31"/>
      </defs>
      <g transform="translate(237.941145915 117.31525)scale(0.12 -0.12)">
       <use xlink:href="#BitstreamVeraSans-Roman-31"/>
       <use x="63.623046875" xlink:href="#BitstreamVeraSans-Roman-30"/>
      </g>
     </g>
    </g>
    <g id="xtick_4">
     <g id="line2d_8">
      <g>
       <use style="stroke:#000000;stroke-linecap:butt;stroke-width:0.5;" x="341.711562622" xlink:href="#mcb557df647" y="104.409"/>
      </g>
     </g>
     <g id="line2d_9">
      <g>
       <use style="stroke:#000000;stroke-linecap:butt;stroke-width:0.5;" x="341.711562622" xlink:href="#mdad270ee8e" y="12.96"/>
      </g>
     </g>
     <g id="text_4">
      <!-- 15 -->
      <g transform="translate(335.259687622 117.15775)scale(0.12 -0.12)">
       <use xlink:href="#BitstreamVeraSans-Roman-31"/>
       <use x="63.623046875" xlink:href="#BitstreamVeraSans-Roman-35"/>
      </g>
     </g>
    </g>
    <g id="xtick_5">
     <g id="line2d_10">
      <g>
       <use style="stroke:#000000;stroke-linecap:butt;stroke-width:0.5;" x="438.90447933" xlink:href="#mcb557df647" y="104.409"/>
      </g>
     </g>
     <g id="line2d_11">
      <g>
       <use style="stroke:#000000;stroke-linecap:butt;stroke-width:0.5;" x="438.90447933" xlink:href="#mdad270ee8e" y="12.96"/>
      </g>
     </g>
     <g id="text_5">
      <!-- 20 -->
      <defs>
       <path d="
M19.1875 8.29688
L53.6094 8.29688
L53.6094 0
L7.32812 0
L7.32812 8.29688
Q12.9375 14.1094 22.625 23.8906
Q32.3281 33.6875 34.8125 36.5312
Q39.5469 41.8438 41.4219 45.5312
Q43.3125 49.2188 43.3125 52.7812
Q43.3125 58.5938 39.2344 62.25
Q35.1562 65.9219 28.6094 65.9219
Q23.9688 65.9219 18.8125 64.3125
Q13.6719 62.7031 7.8125 59.4219
L7.8125 69.3906
Q13.7656 71.7812 18.9375 73
Q24.125 74.2188 28.4219 74.2188
Q39.75 74.2188 46.4844 68.5469
Q53.2188 62.8906 53.2188 53.4219
Q53.2188 48.9219 51.5312 44.8906
Q49.8594 40.875 45.4062 35.4062
Q44.1875 33.9844 37.6406 27.2188
Q31.1094 20.4531 19.1875 8.29688" id="BitstreamVeraSans-Roman-32"/>
      </defs>
      <g transform="translate(432.10760433 117.31525)scale(0.12 -0.12)">
       <use xlink:href="#BitstreamVeraSans-Roman-32"/>
       <use x="63.623046875" xlink:href="#BitstreamVeraSans-Roman-30"/>
      </g>
     </g>
    </g>
    <g id="xtick_6">
     <g id="line2d_12">
      <g>
       <use style="stroke:#000000;stroke-linecap:butt;stroke-width:0.5;" x="536.097396037" xlink:href="#mcb557df647" y="104.409"/>
      </g>
     </g>
     <g id="line2d_13">
      <g>
       <use style="stroke:#000000;stroke-linecap:butt;stroke-width:0.5;" x="536.097396037" xlink:href="#mdad270ee8e" y="12.96"/>
      </g>
     </g>
     <g id="text_6">
      <!-- 25 -->
      <g transform="translate(529.426146037 117.31525)scale(0.12 -0.12)">
       <use xlink:href="#BitstreamVeraSans-Roman-32"/>
       <use x="63.623046875" xlink:href="#BitstreamVeraSans-Roman-35"/>
      </g>
     </g>
    </g>
    <g id="xtick_7">
     <g id="line2d_14">
      <g>
       <use style="stroke:#000000;stroke-linecap:butt;stroke-width:0.5;" x="633.290312745" xlink:href="#mcb557df647" y="104.409"/>
      </g>
     </g>
     <g id="line2d_15">
      <g>
       <use style="stroke:#000000;stroke-linecap:butt;stroke-width:0.5;" x="633.290312745" xlink:href="#mdad270ee8e" y="12.96"/>
      </g>
     </g>
     <g id="text_7">
      <!-- 30 -->
      <defs>
       <path d="
M40.5781 39.3125
Q47.6562 37.7969 51.625 33
Q55.6094 28.2188 55.6094 21.1875
Q55.6094 10.4062 48.1875 4.48438
Q40.7656 -1.42188 27.0938 -1.42188
Q22.5156 -1.42188 17.6562 -0.515625
Q12.7969 0.390625 7.625 2.20312
L7.625 11.7188
Q11.7188 9.32812 16.5938 8.10938
Q21.4844 6.89062 26.8125 6.89062
Q36.0781 6.89062 40.9375 10.5469
Q45.7969 14.2031 45.7969 21.1875
Q45.7969 27.6406 41.2812 31.2656
Q36.7656 34.9062 28.7188 34.9062
L20.2188 34.9062
L20.2188 43.0156
L29.1094 43.0156
Q36.375 43.0156 40.2344 45.9219
Q44.0938 48.8281 44.0938 54.2969
Q44.0938 59.9062 40.1094 62.9062
Q36.1406 65.9219 28.7188 65.9219
Q24.6562 65.9219 20.0156 65.0312
Q15.375 64.1562 9.8125 62.3125
L9.8125 71.0938
Q15.4375 72.6562 20.3438 73.4375
Q25.25 74.2188 29.5938 74.2188
Q40.8281 74.2188 47.3594 69.1094
Q53.9062 64.0156 53.9062 55.3281
Q53.9062 49.2656 50.4375 45.0938
Q46.9688 40.9219 40.5781 39.3125" id="BitstreamVeraSans-Roman-33"/>
      </defs>
      <g transform="translate(626.511250245 117.31525)scale(0.12 -0.12)">
       <use xlink:href="#BitstreamVeraSans-Roman-33"/>
       <use x="63.623046875" xlink:href="#BitstreamVeraSans-Roman-30"/>
      </g>
     </g>
    </g>
    <g id="text_8">
     <!-- Distance, km -->
     <defs>
      <path id="BitstreamVeraSans-Roman-20"/>
      <path d="
M54.8906 33.0156
L54.8906 0
L45.9062 0
L45.9062 32.7188
Q45.9062 40.4844 42.875 44.3281
Q39.8438 48.1875 33.7969 48.1875
Q26.5156 48.1875 22.3125 43.5469
Q18.1094 38.9219 18.1094 30.9062
L18.1094 0
L9.07812 0
L9.07812 54.6875
L18.1094 54.6875
L18.1094 46.1875
Q21.3438 51.125 25.7031 53.5625
Q30.0781 56 35.7969 56
Q45.2188 56 50.0469 50.1719
Q54.8906 44.3438 54.8906 33.0156" id="BitstreamVeraSans-Roman-6e"/>
      <path d="
M52 44.1875
Q55.375 50.25 60.0625 53.125
Q64.75 56 71.0938 56
Q79.6406 56 84.2812 50.0156
Q88.9219 44.0469 88.9219 33.0156
L88.9219 0
L79.8906 0
L79.8906 32.7188
Q79.8906 40.5781 77.0938 44.375
Q74.3125 48.1875 68.6094 48.1875
Q61.625 48.1875 57.5625 43.5469
Q53.5156 38.9219 53.5156 30.9062
L53.5156 0
L44.4844 0
L44.4844 32.7188
Q44.4844 40.625 41.7031 44.4062
Q38.9219 48.1875 33.1094 48.1875
Q26.2188 48.1875 22.1562 43.5312
Q18.1094 38.875 18.1094 30.9062
L18.1094 0
L9.07812 0
L9.07812 54.6875
L18.1094 54.6875
L18.1094 46.1875
Q21.1875 51.2188 25.4844 53.6094
Q29.7812 56 35.6875 56
Q41.6562 56 45.8281 52.9688
Q50 49.9531 52 44.1875" id="BitstreamVeraSans-Roman-6d"/>
      <path d="
M9.07812 75.9844
L18.1094 75.9844
L18.1094 31.1094
L44.9219 54.6875
L56.3906 54.6875
L27.3906 29.1094
L57.625 0
L45.9062 0
L18.1094 26.7031
L18.1094 0
L9.07812 0
z
" id="BitstreamVeraSans-Roman-6b"/>
      <path d="
M11.7188 12.4062
L22.0156 12.4062
L22.0156 4
L14.0156 -11.625
L7.71875 -11.625
L11.7188 4
z
" id="BitstreamVeraSans-Roman-2c"/>
      <path d="
M19.6719 64.7969
L19.6719 8.10938
L31.5938 8.10938
Q46.6875 8.10938 53.6875 14.9375
Q60.6875 21.7812 60.6875 36.5312
Q60.6875 51.1719 53.6875 57.9844
Q46.6875 64.7969 31.5938 64.7969
z

M9.8125 72.9062
L30.0781 72.9062
Q51.2656 72.9062 61.1719 64.0938
Q71.0938 55.2812 71.0938 36.5312
Q71.0938 17.6719 61.125 8.82812
Q51.1719 0 30.0781 0
L9.8125 0
z
" id="BitstreamVeraSans-Roman-44"/>
      <path d="
M9.42188 54.6875
L18.4062 54.6875
L18.4062 0
L9.42188 0
z

M9.42188 75.9844
L18.4062 75.9844
L18.4062 64.5938
L9.42188 64.5938
z
" id="BitstreamVeraSans-Roman-69"/>
      <path d="
M56.2031 29.5938
L56.2031 25.2031
L14.8906 25.2031
Q15.4844 15.9219 20.4844 11.0625
Q25.4844 6.20312 34.4219 6.20312
Q39.5938 6.20312 44.4531 7.46875
Q49.3125 8.73438 54.1094 11.2812
L54.1094 2.78125
Q49.2656 0.734375 44.1875 -0.34375
Q39.1094 -1.42188 33.8906 -1.42188
Q20.7969 -1.42188 13.1562 6.1875
Q5.51562 13.8125 5.51562 26.8125
Q5.51562 40.2344 12.7656 48.1094
Q20.0156 56 32.3281 56
Q43.3594 56 49.7812 48.8906
Q56.2031 41.7969 56.2031 29.5938
M47.2188 32.2344
Q47.125 39.5938 43.0938 43.9844
Q39.0625 48.3906 32.4219 48.3906
Q24.9062 48.3906 20.3906 44.1406
Q15.875 39.8906 15.1875 32.1719
z
" id="BitstreamVeraSans-Roman-65"/>
      <path d="
M18.3125 70.2188
L18.3125 54.6875
L36.8125 54.6875
L36.8125 47.7031
L18.3125 47.7031
L18.3125 18.0156
Q18.3125 11.3281 20.1406 9.42188
Q21.9688 7.51562 27.5938 7.51562
L36.8125 7.51562
L36.8125 0
L27.5938 0
Q17.1875 0 13.2344 3.875
Q9.28125 7.76562 9.28125 18.0156
L9.28125 47.7031
L2.6875 47.7031
L2.6875 54.6875
L9.28125 54.6875
L9.28125 70.2188
z
" id="BitstreamVeraSans-Roman-74"/>
      <path d="
M34.2812 27.4844
Q23.3906 27.4844 19.1875 25
Q14.9844 22.5156 14.9844 16.5
Q14.9844 11.7188 18.1406 8.90625
Q21.2969 6.10938 26.7031 6.10938
Q34.1875 6.10938 38.7031 11.4062
Q43.2188 16.7031 43.2188 25.4844
L43.2188 27.4844
z

M52.2031 31.2031
L52.2031 0
L43.2188 0
L43.2188 8.29688
Q40.1406 3.32812 35.5469 0.953125
Q30.9531 -1.42188 24.3125 -1.42188
Q15.9219 -1.42188 10.9531 3.29688
Q6 8.01562 6 15.9219
Q6 25.1406 12.1719 29.8281
Q18.3594 34.5156 30.6094 34.5156
L43.2188 34.5156
L43.2188 35.4062
Q43.2188 41.6094 39.1406 45
Q35.0625 48.3906 27.6875 48.3906
Q23 48.3906 18.5469 47.2656
Q14.1094 46.1406 10.0156 43.8906
L10.0156 52.2031
Q14.9375 54.1094 19.5781 55.0469
Q24.2188 56 28.6094 56
Q40.4844 56 46.3438 49.8438
Q52.2031 43.7031 52.2031 31.2031" id="BitstreamVeraSans-Roman-61"/>
      <path d="
M44.2812 53.0781
L44.2812 44.5781
Q40.4844 46.5312 36.375 47.5
Q32.2812 48.4844 27.875 48.4844
Q21.1875 48.4844 17.8438 46.4375
Q14.5 44.3906 14.5 40.2812
Q14.5 37.1562 16.8906 35.375
Q19.2812 33.5938 26.5156 31.9844
L29.5938 31.2969
Q39.1562 29.25 43.1875 25.5156
Q47.2188 21.7812 47.2188 15.0938
Q47.2188 7.46875 41.1875 3.01562
Q35.1562 -1.42188 24.6094 -1.42188
Q20.2188 -1.42188 15.4531 -0.5625
Q10.6875 0.296875 5.42188 2
L5.42188 11.2812
Q10.4062 8.6875 15.2344 7.39062
Q20.0625 6.10938 24.8125 6.10938
Q31.1562 6.10938 34.5625 8.28125
Q37.9844 10.4531 37.9844 14.4062
Q37.9844 18.0625 35.5156 20.0156
Q33.0625 21.9688 24.7031 23.7812
L21.5781 24.5156
Q13.2344 26.2656 9.51562 29.9062
Q5.8125 33.5469 5.8125 39.8906
Q5.8125 47.6094 11.2812 51.7969
Q16.75 56 26.8125 56
Q31.7812 56 36.1719 55.2656
Q40.5781 54.5469 44.2812 53.0781" id="BitstreamVeraSans-Roman-73"/>
      <path d="
M48.7812 52.5938
L48.7812 44.1875
Q44.9688 46.2969 41.1406 47.3438
Q37.3125 48.3906 33.4062 48.3906
Q24.6562 48.3906 19.8125 42.8438
Q14.9844 37.3125 14.9844 27.2969
Q14.9844 17.2812 19.8125 11.7344
Q24.6562 6.20312 33.4062 6.20312
Q37.3125 6.20312 41.1406 7.25
Q44.9688 8.29688 48.7812 10.4062
L48.7812 2.09375
Q45.0156 0.34375 40.9844 -0.53125
Q36.9688 -1.42188 32.4219 -1.42188
Q20.0625 -1.42188 12.7812 6.34375
Q5.51562 14.1094 5.51562 27.2969
Q5.51562 40.6719 12.8594 48.3281
Q20.2188 56 33.0156 56
Q37.1562 56 41.1094 55.1406
Q45.0625 54.2969 48.7812 52.5938" id="BitstreamVeraSans-Roman-63"/>
     </defs>
     <g transform="translate(339.72796875 131.604)scale(0.12 -0.12)">
      <use xlink:href="#BitstreamVeraSans-Roman-44"/>
      <use x="77.001953125" xlink:href="#BitstreamVeraSans-Roman-69"/>
      <use x="104.78515625" xlink:href="#BitstreamVeraSans-Roman-73"/>
      <use x="156.884765625" xlink:href="#BitstreamVeraSans-Roman-74"/>
      <use x="196.09375" xlink:href="#BitstreamVeraSans-Roman-61"/>
      <use x="257.373046875" xlink:href="#BitstreamVeraSans-Roman-6e"/>
      <use x="320.751953125" xlink:href="#BitstreamVeraSans-Roman-63"/>
      <use x="375.732421875" xlink:href="#BitstreamVeraSans-Roman-65"/>
      <use x="437.255859375" xlink:href="#BitstreamVeraSans-Roman-2c"/>
      <use x="469.04296875" xlink:href="#BitstreamVeraSans-Roman-20"/>
      <use x="500.830078125" xlink:href="#BitstreamVeraSans-Roman-6b"/>
      <use x="558.740234375" xlink:href="#BitstreamVeraSans-Roman-6d"/>
     </g>
    </g>
   </g>
   <g id="matplotlib.axis_2">
    <g id="ytick_1">
     <g id="line2d_16">
      <defs>
       <path d="
M0 0
L4 0" id="mc8fcea1516" style="stroke:#000000;stroke-linecap:butt;stroke-width:0.5;"/>
      </defs>
      <g>
       <use style="stroke:#000000;stroke-linecap:butt;stroke-width:0.5;" x="50.1328125" xlink:href="#mc8fcea1516" y="104.409"/>
      </g>
     </g>
     <g id="line2d_17">
      <defs>
       <path d="
M0 0
L-4 0" id="m0d5b0a6425" style="stroke:#000000;stroke-linecap:butt;stroke-width:0.5;"/>
      </defs>
      <g>
       <use style="stroke:#000000;stroke-linecap:butt;stroke-width:0.5;" x="707.04" xlink:href="#m0d5b0a6425" y="104.409"/>
      </g>
     </g>
     <g id="text_9">
      <!-- 0 -->
      <g transform="translate(40.0859375 108.7768125)scale(0.12 -0.12)">
       <use xlink:href="#BitstreamVeraSans-Roman-30"/>
      </g>
     </g>
    </g>
    <g id="ytick_2">
     <g id="line2d_18">
      <g>
       <use style="stroke:#000000;stroke-linecap:butt;stroke-width:0.5;" x="50.1328125" xlink:href="#mc8fcea1516" y="90.1978111888"/>
      </g>
     </g>
     <g id="line2d_19">
      <g>
       <use style="stroke:#000000;stroke-linecap:butt;stroke-width:0.5;" x="707.04" xlink:href="#m0d5b0a6425" y="90.1978111888"/>
      </g>
     </g>
     <g id="text_10">
      <!-- 20 -->
      <g transform="translate(32.5390625 94.5656236888)scale(0.12 -0.12)">
       <use xlink:href="#BitstreamVeraSans-Roman-32"/>
       <use x="63.623046875" xlink:href="#BitstreamVeraSans-Roman-30"/>
      </g>
     </g>
    </g>
    <g id="ytick_3">
     <g id="line2d_20">
      <g>
       <use style="stroke:#000000;stroke-linecap:butt;stroke-width:0.5;" x="50.1328125" xlink:href="#mc8fcea1516" y="75.9866223776"/>
      </g>
     </g>
     <g id="line2d_21">
      <g>
       <use style="stroke:#000000;stroke-linecap:butt;stroke-width:0.5;" x="707.04" xlink:href="#m0d5b0a6425" y="75.9866223776"/>
      </g>
     </g>
     <g id="text_11">
      <!-- 40 -->
      <defs>
       <path d="
M37.7969 64.3125
L12.8906 25.3906
L37.7969 25.3906
z

M35.2031 72.9062
L47.6094 72.9062
L47.6094 25.3906
L58.0156 25.3906
L58.0156 17.1875
L47.6094 17.1875
L47.6094 0
L37.7969 0
L37.7969 17.1875
L4.89062 17.1875
L4.89062 26.7031
z
" id="BitstreamVeraSans-Roman-34"/>
      </defs>
      <g transform="translate(32.2465625 80.3544348776)scale(0.12 -0.12)">
       <use xlink:href="#BitstreamVeraSans-Roman-34"/>
       <use x="63.623046875" xlink:href="#BitstreamVeraSans-Roman-30"/>
      </g>
     </g>
    </g>
    <g id="ytick_4">
     <g id="line2d_22">
      <g>
       <use style="stroke:#000000;stroke-linecap:butt;stroke-width:0.5;" x="50.1328125" xlink:href="#mc8fcea1516" y="61.7754335664"/>
      </g>
     </g>
     <g id="line2d_23">
      <g>
       <use style="stroke:#000000;stroke-linecap:butt;stroke-width:0.5;" x="707.04" xlink:href="#m0d5b0a6425" y="61.7754335664"/>
      </g>
     </g>
     <g id="text_12">
      <!-- 60 -->
      <defs>
       <path d="
M33.0156 40.375
Q26.375 40.375 22.4844 35.8281
Q18.6094 31.2969 18.6094 23.3906
Q18.6094 15.5312 22.4844 10.9531
Q26.375 6.39062 33.0156 6.39062
Q39.6562 6.39062 43.5312 10.9531
Q47.4062 15.5312 47.4062 23.3906
Q47.4062 31.2969 43.5312 35.8281
Q39.6562 40.375 33.0156 40.375
M52.5938 71.2969
L52.5938 62.3125
Q48.875 64.0625 45.0938 64.9844
Q41.3125 65.9219 37.5938 65.9219
Q27.8281 65.9219 22.6719 59.3281
Q17.5312 52.7344 16.7969 39.4062
Q19.6719 43.6562 24.0156 45.9219
Q28.375 48.1875 33.5938 48.1875
Q44.5781 48.1875 50.9531 41.5156
Q57.3281 34.8594 57.3281 23.3906
Q57.3281 12.1562 50.6875 5.35938
Q44.0469 -1.42188 33.0156 -1.42188
Q20.3594 -1.42188 13.6719 8.26562
Q6.98438 17.9688 6.98438 36.375
Q6.98438 53.6562 15.1875 63.9375
Q23.3906 74.2188 37.2031 74.2188
Q40.9219 74.2188 44.7031 73.4844
Q48.4844 72.75 52.5938 71.2969" id="BitstreamVeraSans-Roman-36"/>
      </defs>
      <g transform="translate(32.4978125 66.1432460664)scale(0.12 -0.12)">
       <use xlink:href="#BitstreamVeraSans-Roman-36"/>
       <use x="63.623046875" xlink:href="#BitstreamVeraSans-Roman-30"/>
      </g>
     </g>
    </g>
    <g id="ytick_5">
     <g id="line2d_24">
      <g>
       <use style="stroke:#000000;stroke-linecap:butt;stroke-width:0.5;" x="50.1328125" xlink:href="#mc8fcea1516" y="47.5642447552"/>
      </g>
     </g>
     <g id="line2d_25">
      <g>
       <use style="stroke:#000000;stroke-linecap:butt;stroke-width:0.5;" x="707.04" xlink:href="#m0d5b0a6425" y="47.5642447552"/>
      </g>
     </g>
     <g id="text_13">
      <!-- 80 -->
      <defs>
       <path d="
M31.7812 34.625
Q24.75 34.625 20.7188 30.8594
Q16.7031 27.0938 16.7031 20.5156
Q16.7031 13.9219 20.7188 10.1562
Q24.75 6.39062 31.7812 6.39062
Q38.8125 6.39062 42.8594 10.1719
Q46.9219 13.9688 46.9219 20.5156
Q46.9219 27.0938 42.8906 30.8594
Q38.875 34.625 31.7812 34.625
M21.9219 38.8125
Q15.5781 40.375 12.0312 44.7188
Q8.5 49.0781 8.5 55.3281
Q8.5 64.0625 14.7188 69.1406
Q20.9531 74.2188 31.7812 74.2188
Q42.6719 74.2188 48.875 69.1406
Q55.0781 64.0625 55.0781 55.3281
Q55.0781 49.0781 51.5312 44.7188
Q48 40.375 41.7031 38.8125
Q48.8281 37.1562 52.7969 32.3125
Q56.7812 27.4844 56.7812 20.5156
Q56.7812 9.90625 50.3125 4.23438
Q43.8438 -1.42188 31.7812 -1.42188
Q19.7344 -1.42188 13.25 4.23438
Q6.78125 9.90625 6.78125 20.5156
Q6.78125 27.4844 10.7812 32.3125
Q14.7969 37.1562 21.9219 38.8125
M18.3125 54.3906
Q18.3125 48.7344 21.8438 45.5625
Q25.3906 42.3906 31.7812 42.3906
Q38.1406 42.3906 41.7188 45.5625
Q45.3125 48.7344 45.3125 54.3906
Q45.3125 60.0625 41.7188 63.2344
Q38.1406 66.4062 31.7812 66.4062
Q25.3906 66.4062 21.8438 63.2344
Q18.3125 60.0625 18.3125 54.3906" id="BitstreamVeraSans-Roman-38"/>
      </defs>
      <g transform="translate(32.4734375 51.9320572552)scale(0.12 -0.12)">
       <use xlink:href="#BitstreamVeraSans-Roman-38"/>
       <use x="63.623046875" xlink:href="#BitstreamVeraSans-Roman-30"/>
      </g>
     </g>
    </g>
    <g id="ytick_6">
     <g id="line2d_26">
      <g>
       <use style="stroke:#000000;stroke-linecap:butt;stroke-width:0.5;" x="50.1328125" xlink:href="#mc8fcea1516" y="33.3530559441"/>
      </g>
     </g>
     <g id="line2d_27">
      <g>
       <use style="stroke:#000000;stroke-linecap:butt;stroke-width:0.5;" x="707.04" xlink:href="#m0d5b0a6425" y="33.3530559441"/>
      </g>
     </g>
     <g id="text_14">
      <!-- 100 -->
      <g transform="translate(25.3428125 37.7208684441)scale(0.12 -0.12)">
       <use xlink:href="#BitstreamVeraSans-Roman-31"/>
       <use x="63.623046875" xlink:href="#BitstreamVeraSans-Roman-30"/>
       <use x="127.24609375" xlink:href="#BitstreamVeraSans-Roman-30"/>
      </g>
     </g>
    </g>
    <g id="ytick_7">
     <g id="line2d_28">
      <g>
       <use style="stroke:#000000;stroke-linecap:butt;stroke-width:0.5;" x="50.1328125" xlink:href="#mc8fcea1516" y="19.1418671329"/>
      </g>
     </g>
     <g id="line2d_29">
      <g>
       <use style="stroke:#000000;stroke-linecap:butt;stroke-width:0.5;" x="707.04" xlink:href="#m0d5b0a6425" y="19.1418671329"/>
      </g>
     </g>
     <g id="text_15">
      <!-- 120 -->
      <g transform="translate(25.3428125 23.5096796329)scale(0.12 -0.12)">
       <use xlink:href="#BitstreamVeraSans-Roman-31"/>
       <use x="63.623046875" xlink:href="#BitstreamVeraSans-Roman-32"/>
       <use x="127.24609375" xlink:href="#BitstreamVeraSans-Roman-30"/>
      </g>
     </g>
    </g>
    <g id="text_16">
     <!-- Elevation, m -->
     <defs>
      <path d="
M2.98438 54.6875
L12.5 54.6875
L29.5938 8.79688
L46.6875 54.6875
L56.2031 54.6875
L35.6875 0
L23.4844 0
z
" id="BitstreamVeraSans-Roman-76"/>
      <path d="
M9.8125 72.9062
L55.9062 72.9062
L55.9062 64.5938
L19.6719 64.5938
L19.6719 43.0156
L54.3906 43.0156
L54.3906 34.7188
L19.6719 34.7188
L19.6719 8.29688
L56.7812 8.29688
L56.7812 0
L9.8125 0
z
" id="BitstreamVeraSans-Roman-45"/>
      <path d="
M30.6094 48.3906
Q23.3906 48.3906 19.1875 42.75
Q14.9844 37.1094 14.9844 27.2969
Q14.9844 17.4844 19.1562 11.8438
Q23.3438 6.20312 30.6094 6.20312
Q37.7969 6.20312 41.9844 11.8594
Q46.1875 17.5312 46.1875 27.2969
Q46.1875 37.0156 41.9844 42.7031
Q37.7969 48.3906 30.6094 48.3906
M30.6094 56
Q42.3281 56 49.0156 48.375
Q55.7188 40.7656 55.7188 27.2969
Q55.7188 13.875 49.0156 6.21875
Q42.3281 -1.42188 30.6094 -1.42188
Q18.8438 -1.42188 12.1719 6.21875
Q5.51562 13.875 5.51562 27.2969
Q5.51562 40.7656 12.1719 48.375
Q18.8438 56 30.6094 56" id="BitstreamVeraSans-Roman-6f"/>
      <path d="
M9.42188 75.9844
L18.4062 75.9844
L18.4062 0
L9.42188 0
z
" id="BitstreamVeraSans-Roman-6c"/>
     </defs>
     <g transform="translate(20.3428125 94.3095)rotate(-90.0)scale(0.12 -0.12)">
      <use xlink:href="#BitstreamVeraSans-Roman-45"/>
      <use x="63.18359375" xlink:href="#BitstreamVeraSans-Roman-6c"/>
      <use x="90.966796875" xlink:href="#BitstreamVeraSans-Roman-65"/>
      <use x="152.490234375" xlink:href="#BitstreamVeraSans-Roman-76"/>
      <use x="211.669921875" xlink:href="#BitstreamVeraSans-Roman-61"/>
      <use x="272.94921875" xlink:href="#BitstreamVeraSans-Roman-74"/>
      <use x="312.158203125" xlink:href="#BitstreamVeraSans-Roman-69"/>
      <use x="339.94140625" xlink:href="#BitstreamVeraSans-Roman-6f"/>
      <use x="401.123046875" xlink:href="#BitstreamVeraSans-Roman-6e"/>
      <use x="464.501953125" xlink:href="#BitstreamVeraSans-Roman-2c"/>
      <use x="496.2890625" xlink:href="#BitstreamVeraSans-Roman-20"/>
      <use x="528.076171875" xlink:href="#BitstreamVeraSans-Roman-6d"/>
     </g>
    </g>
   </g>
   <g id="patch_3">
    <path d="
M50.1328 12.96
L707.04 12.96" style="fill:none;stroke:#000000;"/>
   </g>
   <g id="patch_4">
    <path d="
M707.04 104.409
L707.04 12.96" style="fill:none;stroke:#000000;"/>
   </g>
   <g id="patch_5">
    <path d="
M50.1328 104.409
L707.04 104.409" style="fill:none;stroke:#000000;"/>
   </g>
   <g id="patch_6">
    <path d="
M50.1328 104.409
L50.1328 12.96" style="fill:none;stroke:#000000;"/>
   </g>
  </g>
 </g>
 <defs>
  <clipPath id="p6af9af8d71">
   <rect height="91.449" width="656.9071875" x="50.1328125" y="12.96"/>
  </clipPath>
 </defs>
</svg>
