<?xml version="1.0" encoding="utf-8" standalone="no"?>
<!DOCTYPE svg PUBLIC "-//W3C//DTD SVG 1.1//EN"
  "http://www.w3.org/Graphics/SVG/1.1/DTD/svg11.dtd">
<!-- Created with matplotlib (http://matplotlib.org/) -->
<svg height="144pt" version="1.1" viewBox="0 0 720 144" width="720pt" xmlns="http://www.w3.org/2000/svg" xmlns:xlink="http://www.w3.org/1999/xlink">
 <defs>
  <style type="text/css">
*{stroke-linecap:square;stroke-linejoin:round;}
  </style>
 </defs>
 <g id="figure_1">
  <g id="patch_1">
   <path d="
M0 144
L720 144
L720 0
L0 0
z
" style="fill:#ffffff;"/>
  </g>
  <g id="axes_1">
   <g id="patch_2">
    <path d="
M54.4303 101.34
L707.04 101.34
L707.04 12.96
L54.4303 12.96
z
" style="fill:#ffffff;"/>
   </g>
   <g id="PolyCollection_1">
    <defs>
     <path d="
M54.4303 -42.66
L54.4303 -63.4553
L54.6655 -62.9827
L57.0581 -62.9827
L57.5668 -62.5101
L57.9641 -62.5101
L58.639 -62.5101
L59.4718 -62.0374
L59.7133 -62.0374
L60.2936 -61.5648
L62.8768 -61.0922
L63.3181 -61.0922
L63.9233 -61.0922
L64.4576 -61.0922
L65.1844 -61.5648
L66.0433 -62.0374
L67.0293 -63.4553
L67.2996 -64.4005
L67.7789 -65.8184
L68.1027 -67.2363
L73.3638 -73.3803
L73.6532 -73.8529
L74.3837 -75.7434
L74.3837 -75.7434
L74.8732 -77.6339
L75.249 -79.0518
L75.6238 -80.9422
L76.747 -86.1411
L77.6485 -88.0316
L77.971 -88.9768
L79.3957 -90.3947
L80.27 -89.922
L81.0351 -89.922
L81.733 -89.4494
L83.2859 -88.5042
L84.5004 -88.5042
L84.7831 -88.0316
L85.0609 -87.5589
L89.2803 -81.8875
L89.5726 -80.4696
L91.4119 -73.8529
L92.0512 -73.8529
L92.3379 -73.8529
L94.6164 -74.7982
L96.3138 -69.5994
L96.8031 -68.6541
L100.255 -63.4553
L100.255 -63.4553
L113.138 -54.4755
L113.419 -54.0029
L113.524 -54.0029
L114.75 -52.585
L116.345 -53.0576
L117.385 -53.5303
L120.236 -56.366
L125.252 -54.9481
L125.547 -54.0029
L125.952 -53.0576
L126.4 -52.585
L126.6 -52.1124
L127.047 -52.1124
L129.566 -52.1124
L130.14 -53.0576
L130.5 -53.5303
L130.749 -54.4755
L131.213 -54.4755
L134.993 -56.366
L134.993 -56.366
L141.212 -56.366
L141.567 -56.366
L155.771 -60.147
L161.268 -60.147
L163.259 -60.6196
L169.875 -62.5101
L169.875 -62.5101
L173.01 -61.0922
L179.362 -64.4005
L180.134 -63.9279
L180.93 -63.9279
L181.575 -63.9279
L184.281 -65.3458
L184.496 -65.3458
L185.406 -65.8184
L186.632 -66.7636
L187.435 -67.2363
L188.089 -68.1815
L189.073 -69.1267
L190.255 -70.5446
L190.825 -70.5446
L191.511 -71.4898
L192.294 -72.9077
L192.622 -73.8529
L192.951 -73.8529
L193.285 -74.3256
L194.106 -75.2708
L194.484 -75.7434
L194.958 -76.6887
L195.471 -77.6339
L195.481 -77.6339
L196.689 -79.997
L197.06 -79.997
L198.398 -81.8875
L199.53 -81.8875
L200.356 -82.8327
L200.753 -83.3053
L201.067 -83.778
L201.66 -84.7232
L202.169 -85.6684
L202.51 -86.6137
L203.377 -89.4494
L203.472 -89.4494
L203.861 -89.922
L206.189 -93.2304
L213.945 -102.683
L213.945 -102.683
L214.824 -103.628
L215.209 -104.101
L216.114 -105.046
L217.104 -106.464
L217.424 -106.464
L218.06 -106.936
L218.55 -107.409
L218.701 -107.882
L220.715 -111.19
L221.208 -112.608
L221.455 -113.08
L222.322 -115.916
L222.48 -115.916
L222.623 -116.389
L223.772 -120.17
L224.144 -119.697
L225.165 -118.752
L225.997 -118.752
L226.586 -118.752
L228.237 -119.697
L229.297 -117.807
L229.7 -118.279
L230.054 -118.752
L230.61 -120.17
L231.084 -120.642
L232.121 -123.005
L232.655 -122.533
L232.926 -122.06
L233.563 -122.06
L233.727 -121.115
L234.29 -118.752
L234.555 -117.807
L235.01 -116.861
L235.308 -116.389
L235.633 -115.916
L236.743 -114.971
L236.75 -114.498
L238.458 -112.608
L241.158 -111.663
L249.858 -113.08
L250.482 -112.608
L251.647 -112.608
L251.647 -112.608
L252.034 -112.135
L252.312 -112.135
L253.398 -112.135
L253.633 -112.135
L254.49 -112.608
L256.393 -113.08
L257.123 -113.08
L258.049 -113.08
L261.999 -109.772
L262.946 -111.19
L264.167 -111.19
L264.882 -111.19
L265.909 -111.663
L269.908 -110.245
L270.772 -109.772
L271.622 -109.772
L272.84 -108.354
L274.348 -107.882
L274.625 -107.882
L274.896 -108.354
L275.565 -109.772
L275.715 -109.299
L275.9 -109.299
L277.038 -109.299
L278.334 -109.299
L280.481 -109.299
L281.932 -109.299
L283.817 -108.354
L284.907 -107.882
L284.907 -107.882
L286.575 -107.882
L288.008 -108.827
L288.982 -109.772
L289.187 -109.772
L289.921 -110.245
L290.108 -110.717
L290.427 -109.772
L290.996 -108.827
L291.21 -108.827
L291.399 -108.354
L292.095 -108.354
L293.922 -107.409
L294.41 -105.991
L296.118 -102.21
L296.282 -101.738
L297.059 -101.265
L297.191 -100.792
L298.344 -100.32
L300.36 -95.1209
L300.614 -93.703
L301.729 -89.922
L302.332 -90.8673
L304.29 -94.1756
L306.153 -94.6482
L306.694 -94.6482
L307.352 -94.6482
L307.583 -95.1209
L308.726 -99.3744
L308.962 -99.8471
L310.003 -102.21
L310.003 -102.21
L310.858 -101.265
L311.12 -101.265
L312.54 -100.792
L313.068 -100.792
L313.761 -101.265
L316.48 -100.32
L318.276 -102.683
L320.325 -101.265
L321.497 -102.683
L321.897 -102.21
L323.457 -101.265
L323.72 -101.265
L324.169 -101.265
L324.52 -101.265
L325.613 -99.3744
L327.435 -98.9018
L330.031 -98.9018
L330.184 -98.4292
L330.639 -97.9566
L330.948 -97.484
L331.167 -97.484
L331.42 -96.5387
L332.04 -94.1756
L334.72 -85.1958
L335.48 -82.3601
L335.488 -81.8875
L335.948 -81.4149
L337.69 -78.5791
L339.516 -74.3256
L339.812 -73.8529
L339.976 -73.8529
L340.31 -73.8529
L340.511 -73.8529
L341.278 -73.8529
L343.383 -72.9077
L345.974 -71.4898
L346.606 -70.5446
L347.673 -70.072
L351.84 -69.1267
L355.128 -69.1267
L356.101 -67.2363
L357.488 -65.3458
L359.016 -63.9279
L360.106 -62.5101
L361.264 -63.9279
L361.75 -62.9827
L363.119 -61.5648
L363.642 -61.0922
L367.173 -60.147
L367.747 -60.147
L370.492 -61.5648
L370.5 -61.5648
L372.948 -64.4005
L373.354 -62.9827
L373.807 -62.0374
L374.565 -60.6196
L375.048 -60.147
L375.728 -59.6743
L376.687 -57.3112
L377.309 -58.2565
L378.984 -61.5648
L379.854 -60.6196
L380.766 -60.147
L381.662 -58.7291
L382.285 -58.2565
L383.516 -57.7839
L384.99 -57.7839
L385.658 -57.3112
L386.657 -56.8386
L387.332 -58.2565
L387.889 -60.147
L388.754 -60.147
L390.421 -61.0922
L393.41 -59.6743
L397.185 -61.0922
L397.185 -61.0922
L397.992 -59.2017
L399.574 -56.8386
L400.144 -56.8386
L400.589 -57.3112
L401.175 -57.3112
L402.262 -57.7839
L402.764 -57.3112
L403.519 -56.8386
L404.218 -57.3112
L404.773 -58.2565
L405.25 -58.2565
L405.702 -58.7291
L405.971 -59.2017
L407.935 -59.2017
L409.446 -54.4755
L410.03 -54.0029
L410.111 -54.0029
L410.345 -53.5303
L410.851 -53.5303
L411.219 -53.5303
L413.63 -55.8934
L415.266 -52.1124
L416.713 -52.1124
L416.713 -52.1124
L418.596 -53.0576
L420.461 -54.9481
L429.023 -53.0576
L429.635 -53.0576
L429.795 -53.0576
L430.843 -53.5303
L431.058 -53.5303
L431.833 -54.9481
L433.213 -57.3112
L434.409 -61.5648
L435.318 -67.2363
L437.163 -79.5244
L437.725 -80.9422
L438.963 -85.1958
L439.769 -88.0316
L440.579 -91.3399
L440.579 -91.3399
L440.808 -90.8673
L442.711 -90.3947
L444.229 -93.703
L447.345 -93.2304
L450.267 -94.1756
L451.109 -94.6482
L454.998 -97.484
L454.998 -97.484
L456.653 -92.7578
L457.145 -90.8673
L462.883 -73.8529
L463.156 -72.9077
L463.518 -71.9625
L463.638 -71.9625
L465.612 -67.7089
L467.696 -61.0922
L468.599 -59.2017
L469.093 -58.7291
L471.183 -62.0374
L471.962 -61.0922
L472.51 -60.6196
L473.232 -59.2017
L473.911 -58.2565
L474.966 -57.7839
L475.407 -58.7291
L476.245 -61.0922
L476.245 -61.0922
L478.204 -62.0374
L478.435 -61.5648
L478.687 -61.0922
L478.934 -61.0922
L479.811 -60.147
L482.676 -54.4755
L484.121 -54.9481
L485.072 -54.4755
L485.324 -54.4755
L486.68 -57.3112
L488.216 -59.6743
L491.195 -61.0922
L495.043 -67.7089
L495.936 -70.072
L497.311 -73.8529
L500.648 -82.8327
L500.994 -83.778
L501.304 -85.1958
L501.615 -86.6137
L502.108 -88.0316
L502.589 -89.922
L502.963 -91.3399
L503.272 -92.7578
L503.788 -95.5935
L504.544 -98.9018
L504.929 -101.265
L505.297 -100.792
L506.783 -100.792
L507.858 -99.8471
L507.866 -99.8471
L509.089 -101.738
L510.186 -104.573
L510.7 -103.155
L511.12 -102.21
L511.537 -101.738
L512.782 -102.683
L513.915 -99.8471
L515.454 -97.9566
L516.79 -94.1756
L517.794 -93.2304
L518.176 -93.703
L519.621 -95.5935
L519.996 -95.5935
L520.292 -96.0661
L520.606 -96.5387
L522.116 -97.484
L522.426 -97.0113
L522.872 -96.0661
L523.176 -96.0661
L524.063 -93.2304
L528.88 -79.997
L534.23 -73.8529
L534.563 -72.9077
L534.925 -72.4351
L535.43 -71.9625
L536.017 -70.5446
L536.379 -70.072
L537.12 -69.1267
L538.29 -68.6541
L539.269 -68.1815
L539.759 -67.7089
L540.287 -67.2363
L541.011 -67.2363
L547.272 -68.6541
L547.806 -68.6541
L548.74 -68.6541
L549.093 -68.6541
L550.879 -69.1267
L551.569 -69.5994
L554.123 -71.4898
L554.123 -71.4898
L557.086 -72.9077
L565.644 -71.9625
L566.542 -72.9077
L566.542 -72.9077
L570.148 -71.4898
L574.105 -70.5446
L574.105 -70.5446
L574.456 -70.072
L589.06 -66.7636
L595.526 -63.4553
L595.74 -63.4553
L596.901 -63.4553
L597.556 -64.4005
L597.556 -64.4005
L599.159 -63.4553
L600.951 -65.8184
L601.302 -65.3458
L601.625 -65.3458
L606.038 -65.3458
L606.166 -65.3458
L606.349 -65.3458
L610.21 -68.1815
L611.443 -66.7636
L611.917 -66.7636
L613.451 -67.2363
L613.886 -67.2363
L614.351 -67.2363
L620.114 -70.5446
L620.561 -71.0172
L621.379 -72.4351
L623.268 -68.6541
L624.624 -70.5446
L626.846 -74.3256
L627.251 -73.8529
L627.6 -73.8529
L628.03 -73.8529
L628.333 -73.8529
L635.154 -73.8529
L635.426 -73.3803
L635.693 -73.3803
L636.954 -73.3803
L637.446 -72.9077
L637.821 -72.9077
L639.274 -72.4351
L639.274 -72.4351
L640.787 -71.0172
L647.973 -70.5446
L653.337 -68.1815
L662.482 -71.0172
L672.017 -64.8732
L672.903 -62.9827
L679.588 -52.585
L680.399 -53.5303
L682.082 -56.8386
L684.944 -62.5101
L685.481 -63.9279
L686.033 -65.8184
L689.615 -70.5446
L689.615 -70.5446
L691.183 -70.072
L692.016 -69.5994
L692.363 -69.5994
L692.833 -69.1267
L693.618 -68.6541
L694.123 -67.7089
L694.964 -67.2363
L695.273 -66.7636
L695.586 -66.7636
L696.075 -66.7636
L696.17 -66.7636
L696.262 -66.7636
L697.348 -69.1267
L697.868 -69.5994
L698.289 -70.5446
L700.092 -70.5446
L703.603 -62.9827
L707.04 -63.9279
L707.04 -42.66
L707.04 -42.66
L703.603 -42.66
L700.092 -42.66
L698.289 -42.66
L697.868 -42.66
L697.348 -42.66
L696.262 -42.66
L696.17 -42.66
L696.075 -42.66
L695.586 -42.66
L695.273 -42.66
L694.964 -42.66
L694.123 -42.66
L693.618 -42.66
L692.833 -42.66
L692.363 -42.66
L692.016 -42.66
L691.183 -42.66
L689.615 -42.66
L689.615 -42.66
L686.033 -42.66
L685.481 -42.66
L684.944 -42.66
L682.082 -42.66
L680.399 -42.66
L679.588 -42.66
L672.903 -42.66
L672.017 -42.66
L662.482 -42.66
L653.337 -42.66
L647.973 -42.66
L640.787 -42.66
L639.274 -42.66
L639.274 -42.66
L637.821 -42.66
L637.446 -42.66
L636.954 -42.66
L635.693 -42.66
L635.426 -42.66
L635.154 -42.66
L628.333 -42.66
L628.03 -42.66
L627.6 -42.66
L627.251 -42.66
L626.846 -42.66
L624.624 -42.66
L623.268 -42.66
L621.379 -42.66
L620.561 -42.66
L620.114 -42.66
L614.351 -42.66
L613.886 -42.66
L613.451 -42.66
L611.917 -42.66
L611.443 -42.66
L610.21 -42.66
L606.349 -42.66
L606.166 -42.66
L606.038 -42.66
L601.625 -42.66
L601.302 -42.66
L600.951 -42.66
L599.159 -42.66
L597.556 -42.66
L597.556 -42.66
L596.901 -42.66
L595.74 -42.66
L595.526 -42.66
L589.06 -42.66
L574.456 -42.66
L574.105 -42.66
L574.105 -42.66
L570.148 -42.66
L566.542 -42.66
L566.542 -42.66
L565.644 -42.66
L557.086 -42.66
L554.123 -42.66
L554.123 -42.66
L551.569 -42.66
L550.879 -42.66
L549.093 -42.66
L548.74 -42.66
L547.806 -42.66
L547.272 -42.66
L541.011 -42.66
L540.287 -42.66
L539.759 -42.66
L539.269 -42.66
L538.29 -42.66
L537.12 -42.66
L536.379 -42.66
L536.017 -42.66
L535.43 -42.66
L534.925 -42.66
L534.563 -42.66
L534.23 -42.66
L528.88 -42.66
L524.063 -42.66
L523.176 -42.66
L522.872 -42.66
L522.426 -42.66
L522.116 -42.66
L520.606 -42.66
L520.292 -42.66
L519.996 -42.66
L519.621 -42.66
L518.176 -42.66
L517.794 -42.66
L516.79 -42.66
L515.454 -42.66
L513.915 -42.66
L512.782 -42.66
L511.537 -42.66
L511.12 -42.66
L510.7 -42.66
L510.186 -42.66
L509.089 -42.66
L507.866 -42.66
L507.858 -42.66
L506.783 -42.66
L505.297 -42.66
L504.929 -42.66
L504.544 -42.66
L503.788 -42.66
L503.272 -42.66
L502.963 -42.66
L502.589 -42.66
L502.108 -42.66
L501.615 -42.66
L501.304 -42.66
L500.994 -42.66
L500.648 -42.66
L497.311 -42.66
L495.936 -42.66
L495.043 -42.66
L491.195 -42.66
L488.216 -42.66
L486.68 -42.66
L485.324 -42.66
L485.072 -42.66
L484.121 -42.66
L482.676 -42.66
L479.811 -42.66
L478.934 -42.66
L478.687 -42.66
L478.435 -42.66
L478.204 -42.66
L476.245 -42.66
L476.245 -42.66
L475.407 -42.66
L474.966 -42.66
L473.911 -42.66
L473.232 -42.66
L472.51 -42.66
L471.962 -42.66
L471.183 -42.66
L469.093 -42.66
L468.599 -42.66
L467.696 -42.66
L465.612 -42.66
L463.638 -42.66
L463.518 -42.66
L463.156 -42.66
L462.883 -42.66
L457.145 -42.66
L456.653 -42.66
L454.998 -42.66
L454.998 -42.66
L451.109 -42.66
L450.267 -42.66
L447.345 -42.66
L444.229 -42.66
L442.711 -42.66
L440.808 -42.66
L440.579 -42.66
L440.579 -42.66
L439.769 -42.66
L438.963 -42.66
L437.725 -42.66
L437.163 -42.66
L435.318 -42.66
L434.409 -42.66
L433.213 -42.66
L431.833 -42.66
L431.058 -42.66
L430.843 -42.66
L429.795 -42.66
L429.635 -42.66
L429.023 -42.66
L420.461 -42.66
L418.596 -42.66
L416.713 -42.66
L416.713 -42.66
L415.266 -42.66
L413.63 -42.66
L411.219 -42.66
L410.851 -42.66
L410.345 -42.66
L410.111 -42.66
L410.03 -42.66
L409.446 -42.66
L407.935 -42.66
L405.971 -42.66
L405.702 -42.66
L405.25 -42.66
L404.773 -42.66
L404.218 -42.66
L403.519 -42.66
L402.764 -42.66
L402.262 -42.66
L401.175 -42.66
L400.589 -42.66
L400.144 -42.66
L399.574 -42.66
L397.992 -42.66
L397.185 -42.66
L397.185 -42.66
L393.41 -42.66
L390.421 -42.66
L388.754 -42.66
L387.889 -42.66
L387.332 -42.66
L386.657 -42.66
L385.658 -42.66
L384.99 -42.66
L383.516 -42.66
L382.285 -42.66
L381.662 -42.66
L380.766 -42.66
L379.854 -42.66
L378.984 -42.66
L377.309 -42.66
L376.687 -42.66
L375.728 -42.66
L375.048 -42.66
L374.565 -42.66
L373.807 -42.66
L373.354 -42.66
L372.948 -42.66
L370.5 -42.66
L370.492 -42.66
L367.747 -42.66
L367.173 -42.66
L363.642 -42.66
L363.119 -42.66
L361.75 -42.66
L361.264 -42.66
L360.106 -42.66
L359.016 -42.66
L357.488 -42.66
L356.101 -42.66
L355.128 -42.66
L351.84 -42.66
L347.673 -42.66
L346.606 -42.66
L345.974 -42.66
L343.383 -42.66
L341.278 -42.66
L340.511 -42.66
L340.31 -42.66
L339.976 -42.66
L339.812 -42.66
L339.516 -42.66
L337.69 -42.66
L335.948 -42.66
L335.488 -42.66
L335.48 -42.66
L334.72 -42.66
L332.04 -42.66
L331.42 -42.66
L331.167 -42.66
L330.948 -42.66
L330.639 -42.66
L330.184 -42.66
L330.031 -42.66
L327.435 -42.66
L325.613 -42.66
L324.52 -42.66
L324.169 -42.66
L323.72 -42.66
L323.457 -42.66
L321.897 -42.66
L321.497 -42.66
L320.325 -42.66
L318.276 -42.66
L316.48 -42.66
L313.761 -42.66
L313.068 -42.66
L312.54 -42.66
L311.12 -42.66
L310.858 -42.66
L310.003 -42.66
L310.003 -42.66
L308.962 -42.66
L308.726 -42.66
L307.583 -42.66
L307.352 -42.66
L306.694 -42.66
L306.153 -42.66
L304.29 -42.66
L302.332 -42.66
L301.729 -42.66
L300.614 -42.66
L300.36 -42.66
L298.344 -42.66
L297.191 -42.66
L297.059 -42.66
L296.282 -42.66
L296.118 -42.66
L294.41 -42.66
L293.922 -42.66
L292.095 -42.66
L291.399 -42.66
L291.21 -42.66
L290.996 -42.66
L290.427 -42.66
L290.108 -42.66
L289.921 -42.66
L289.187 -42.66
L288.982 -42.66
L288.008 -42.66
L286.575 -42.66
L284.907 -42.66
L284.907 -42.66
L283.817 -42.66
L281.932 -42.66
L280.481 -42.66
L278.334 -42.66
L277.038 -42.66
L275.9 -42.66
L275.715 -42.66
L275.565 -42.66
L274.896 -42.66
L274.625 -42.66
L274.348 -42.66
L272.84 -42.66
L271.622 -42.66
L270.772 -42.66
L269.908 -42.66
L265.909 -42.66
L264.882 -42.66
L264.167 -42.66
L262.946 -42.66
L261.999 -42.66
L258.049 -42.66
L257.123 -42.66
L256.393 -42.66
L254.49 -42.66
L253.633 -42.66
L253.398 -42.66
L252.312 -42.66
L252.034 -42.66
L251.647 -42.66
L251.647 -42.66
L250.482 -42.66
L249.858 -42.66
L241.158 -42.66
L238.458 -42.66
L236.75 -42.66
L236.743 -42.66
L235.633 -42.66
L235.308 -42.66
L235.01 -42.66
L234.555 -42.66
L234.29 -42.66
L233.727 -42.66
L233.563 -42.66
L232.926 -42.66
L232.655 -42.66
L232.121 -42.66
L231.084 -42.66
L230.61 -42.66
L230.054 -42.66
L229.7 -42.66
L229.297 -42.66
L228.237 -42.66
L226.586 -42.66
L225.997 -42.66
L225.165 -42.66
L224.144 -42.66
L223.772 -42.66
L222.623 -42.66
L222.48 -42.66
L222.322 -42.66
L221.455 -42.66
L221.208 -42.66
L220.715 -42.66
L218.701 -42.66
L218.55 -42.66
L218.06 -42.66
L217.424 -42.66
L217.104 -42.66
L216.114 -42.66
L215.209 -42.66
L214.824 -42.66
L213.945 -42.66
L213.945 -42.66
L206.189 -42.66
L203.861 -42.66
L203.472 -42.66
L203.377 -42.66
L202.51 -42.66
L202.169 -42.66
L201.66 -42.66
L201.067 -42.66
L200.753 -42.66
L200.356 -42.66
L199.53 -42.66
L198.398 -42.66
L197.06 -42.66
L196.689 -42.66
L195.481 -42.66
L195.471 -42.66
L194.958 -42.66
L194.484 -42.66
L194.106 -42.66
L193.285 -42.66
L192.951 -42.66
L192.622 -42.66
L192.294 -42.66
L191.511 -42.66
L190.825 -42.66
L190.255 -42.66
L189.073 -42.66
L188.089 -42.66
L187.435 -42.66
L186.632 -42.66
L185.406 -42.66
L184.496 -42.66
L184.281 -42.66
L181.575 -42.66
L180.93 -42.66
L180.134 -42.66
L179.362 -42.66
L173.01 -42.66
L169.875 -42.66
L169.875 -42.66
L163.259 -42.66
L161.268 -42.66
L155.771 -42.66
L141.567 -42.66
L141.212 -42.66
L134.993 -42.66
L134.993 -42.66
L131.213 -42.66
L130.749 -42.66
L130.5 -42.66
L130.14 -42.66
L129.566 -42.66
L127.047 -42.66
L126.6 -42.66
L126.4 -42.66
L125.952 -42.66
L125.547 -42.66
L125.252 -42.66
L120.236 -42.66
L117.385 -42.66
L116.345 -42.66
L114.75 -42.66
L113.524 -42.66
L113.419 -42.66
L113.138 -42.66
L100.255 -42.66
L100.255 -42.66
L96.8031 -42.66
L96.3138 -42.66
L94.6164 -42.66
L92.3379 -42.66
L92.0512 -42.66
L91.4119 -42.66
L89.5726 -42.66
L89.2803 -42.66
L85.0609 -42.66
L84.7831 -42.66
L84.5004 -42.66
L83.2859 -42.66
L81.733 -42.66
L81.0351 -42.66
L80.27 -42.66
L79.3957 -42.66
L77.971 -42.66
L77.6485 -42.66
L76.747 -42.66
L75.6238 -42.66
L75.249 -42.66
L74.8732 -42.66
L74.3837 -42.66
L74.3837 -42.66
L73.6532 -42.66
L73.3638 -42.66
L68.1027 -42.66
L67.7789 -42.66
L67.2996 -42.66
L67.0293 -42.66
L66.0433 -42.66
L65.1844 -42.66
L64.4576 -42.66
L63.9233 -42.66
L63.3181 -42.66
L62.8768 -42.66
L60.2936 -42.66
L59.7133 -42.66
L59.4718 -42.66
L58.639 -42.66
L57.9641 -42.66
L57.5668 -42.66
L57.0581 -42.66
L54.6655 -42.66
L54.4303 -42.66
z
" id="C0_0_00d255cd44"/>
    </defs>
    <g clip-path="url(#pa8176fee34)">
     <use style="fill:#0000ff;opacity:0.3;stroke:#0000ff;stroke-linecap:butt;" x="0" xlink:href="#C0_0_00d255cd44" y="144.0"/>
    </g>
   </g>
   <g id="line2d_1">
    <path clip-path="url(#pa8176fee34)" d="
M54.4303 80.5447
L54.6655 81.0173
L57.0581 81.0173
L57.5668 81.4899
L58.639 81.4899
L59.4718 81.9626
L59.7133 81.9626
L60.2936 82.4352
L63.3181 82.9078
L64.4576 82.9078
L66.0433 81.9626
L67.0293 80.5447
L68.1027 76.7637
L73.6532 70.1471
L74.3837 68.2566
L74.3837 68.2566
L75.6238 63.0578
L76.747 57.8589
L77.6485 55.9684
L77.971 55.0232
L79.3957 53.6053
L80.27 54.078
L81.0351 54.078
L83.2859 55.4958
L84.5004 55.4958
L85.0609 56.4411
L89.2803 62.1125
L89.5726 63.5304
L91.4119 70.1471
L92.3379 70.1471
L94.6164 69.2018
L96.3138 74.4006
L96.8031 75.3459
L100.255 80.5447
L100.255 80.5447
L113.138 89.5245
L113.524 89.9971
L114.75 91.415
L116.345 90.9424
L117.385 90.4697
L120.236 87.634
L125.252 89.0519
L125.952 90.9424
L126.4 91.415
L126.6 91.8876
L129.566 91.8876
L130.5 90.4697
L130.749 89.5245
L131.213 89.5245
L134.993 87.634
L134.993 87.634
L141.567 87.634
L155.771 83.853
L161.268 83.853
L163.259 83.3804
L169.875 81.4899
L169.875 81.4899
L173.01 82.9078
L179.362 79.5995
L180.134 80.0721
L181.575 80.0721
L185.406 78.1816
L186.632 77.2364
L187.435 76.7637
L188.089 75.8185
L189.073 74.8733
L190.255 73.4554
L190.825 73.4554
L191.511 72.5102
L192.294 71.0923
L192.622 70.1471
L192.951 70.1471
L193.285 69.6744
L194.484 68.2566
L196.689 64.003
L197.06 64.003
L198.398 62.1125
L199.53 62.1125
L201.067 60.222
L202.169 58.3316
L202.51 57.3863
L203.472 54.5506
L203.861 54.078
L206.189 50.7696
L215.209 39.8994
L216.114 38.9541
L217.104 37.5363
L217.424 37.5363
L218.55 36.591
L218.701 36.1184
L220.715 32.8101
L222.322 28.0839
L222.48 28.0839
L223.772 23.8303
L224.144 24.3029
L225.165 25.2481
L226.586 25.2481
L228.237 24.3029
L229.297 26.1934
L230.054 25.2481
L230.61 23.8303
L231.084 23.3576
L232.121 20.9945
L232.655 21.4672
L232.926 21.9398
L233.563 21.9398
L233.727 22.885
L234.555 26.1934
L235.308 27.6112
L235.633 28.0839
L236.743 29.0291
L236.75 29.5017
L238.458 31.3922
L241.158 32.3374
L249.858 30.9196
L250.482 31.3922
L251.647 31.3922
L251.647 31.3922
L252.034 31.8648
L253.633 31.8648
L254.49 31.3922
L256.393 30.9196
L258.049 30.9196
L261.999 34.2279
L262.946 32.8101
L264.882 32.8101
L265.909 32.3374
L269.908 33.7553
L270.772 34.2279
L271.622 34.2279
L272.84 35.6458
L274.625 36.1184
L274.896 35.6458
L275.565 34.2279
L275.715 34.7005
L281.932 34.7005
L284.907 36.1184
L284.907 36.1184
L286.575 36.1184
L288.008 35.1732
L288.982 34.2279
L289.187 34.2279
L289.921 33.7553
L290.108 33.2827
L290.427 34.2279
L290.996 35.1732
L291.21 35.1732
L291.399 35.6458
L292.095 35.6458
L293.922 36.591
L294.41 38.0089
L296.282 42.2625
L297.059 42.7351
L297.191 43.2077
L298.344 43.6803
L300.36 48.8791
L300.614 50.297
L301.729 54.078
L302.332 53.1327
L304.29 49.8244
L306.153 49.3518
L307.352 49.3518
L307.583 48.8791
L308.962 44.1529
L310.003 41.7898
L310.003 41.7898
L310.858 42.7351
L311.12 42.7351
L312.54 43.2077
L313.068 43.2077
L313.761 42.7351
L316.48 43.6803
L318.276 41.3172
L320.325 42.7351
L321.497 41.3172
L321.897 41.7898
L323.457 42.7351
L324.52 42.7351
L325.613 44.6256
L327.435 45.0982
L330.031 45.0982
L330.184 45.5708
L331.167 46.516
L332.04 49.8244
L335.48 61.6399
L335.488 62.1125
L335.948 62.5851
L337.69 65.4209
L339.812 70.1471
L341.278 70.1471
L343.383 71.0923
L345.974 72.5102
L346.606 73.4554
L347.673 73.928
L351.84 74.8733
L355.128 74.8733
L356.101 76.7637
L357.488 78.6542
L359.016 80.0721
L360.106 81.4899
L361.264 80.0721
L361.75 81.0173
L363.642 82.9078
L367.173 83.853
L367.747 83.853
L370.5 82.4352
L372.948 79.5995
L373.354 81.0173
L374.565 83.3804
L375.048 83.853
L375.728 84.3257
L376.687 86.6888
L377.309 85.7435
L378.984 82.4352
L379.854 83.3804
L380.766 83.853
L381.662 85.2709
L382.285 85.7435
L383.516 86.2161
L384.99 86.2161
L385.658 86.6888
L386.657 87.1614
L387.332 85.7435
L387.889 83.853
L388.754 83.853
L390.421 82.9078
L393.41 84.3257
L397.185 82.9078
L397.185 82.9078
L397.992 84.7983
L399.574 87.1614
L400.144 87.1614
L400.589 86.6888
L401.175 86.6888
L402.262 86.2161
L402.764 86.6888
L403.519 87.1614
L404.218 86.6888
L404.773 85.7435
L405.25 85.7435
L405.702 85.2709
L405.971 84.7983
L407.935 84.7983
L409.446 89.5245
L410.111 89.9971
L410.345 90.4697
L411.219 90.4697
L413.63 88.1066
L415.266 91.8876
L416.713 91.8876
L416.713 91.8876
L418.596 90.9424
L420.461 89.0519
L429.023 90.9424
L429.795 90.9424
L431.058 90.4697
L433.213 86.6888
L434.409 82.4352
L435.318 76.7637
L437.163 64.4756
L437.725 63.0578
L439.769 55.9684
L440.579 52.6601
L440.808 53.1327
L442.711 53.6053
L444.229 50.297
L447.345 50.7696
L450.267 49.8244
L451.109 49.3518
L454.998 46.516
L456.653 51.2422
L457.145 53.1327
L463.518 72.0375
L463.638 72.0375
L465.612 76.2911
L467.696 82.9078
L468.599 84.7983
L469.093 85.2709
L471.183 81.9626
L471.962 82.9078
L472.51 83.3804
L473.232 84.7983
L473.911 85.7435
L474.966 86.2161
L475.407 85.2709
L476.245 82.9078
L476.245 82.9078
L478.204 81.9626
L478.687 82.9078
L478.934 82.9078
L479.811 83.853
L482.676 89.5245
L484.121 89.0519
L485.072 89.5245
L485.324 89.5245
L486.68 86.6888
L488.216 84.3257
L491.195 82.9078
L495.043 76.2911
L500.648 61.1673
L500.994 60.222
L501.615 57.3863
L502.108 55.9684
L503.272 51.2422
L503.788 48.4065
L504.544 45.0982
L504.929 42.7351
L505.297 43.2077
L506.783 43.2077
L507.866 44.1529
L509.089 42.2625
L510.186 39.4267
L511.12 41.7898
L511.537 42.2625
L512.782 41.3172
L513.915 44.1529
L515.454 46.0434
L516.79 49.8244
L517.794 50.7696
L519.621 48.4065
L519.996 48.4065
L520.606 47.4613
L522.116 46.516
L522.426 46.9887
L522.872 47.9339
L523.176 47.9339
L524.063 50.7696
L528.88 64.003
L534.23 70.1471
L534.563 71.0923
L534.925 71.5649
L535.43 72.0375
L536.017 73.4554
L537.12 74.8733
L539.269 75.8185
L540.287 76.7637
L541.011 76.7637
L547.272 75.3459
L549.093 75.3459
L550.879 74.8733
L551.569 74.4006
L554.123 72.5102
L554.123 72.5102
L557.086 71.0923
L565.644 72.0375
L566.542 71.0923
L566.542 71.0923
L570.148 72.5102
L574.105 73.4554
L574.105 73.4554
L574.456 73.928
L589.06 77.2364
L595.74 80.5447
L596.901 80.5447
L597.556 79.5995
L597.556 79.5995
L599.159 80.5447
L600.951 78.1816
L601.302 78.6542
L606.349 78.6542
L610.21 75.8185
L611.443 77.2364
L611.917 77.2364
L613.451 76.7637
L614.351 76.7637
L620.114 73.4554
L620.561 72.9828
L621.379 71.5649
L623.268 75.3459
L624.624 73.4554
L626.846 69.6744
L627.251 70.1471
L635.154 70.1471
L635.426 70.6197
L636.954 70.6197
L637.446 71.0923
L637.821 71.0923
L639.274 71.5649
L639.274 71.5649
L640.787 72.9828
L647.973 73.4554
L653.337 75.8185
L662.482 72.9828
L672.017 79.1268
L672.903 81.0173
L679.588 91.415
L680.399 90.4697
L684.944 81.4899
L685.481 80.0721
L686.033 78.1816
L689.615 73.4554
L689.615 73.4554
L691.183 73.928
L692.016 74.4006
L692.363 74.4006
L692.833 74.8733
L693.618 75.3459
L694.123 76.2911
L694.964 76.7637
L695.273 77.2364
L696.262 77.2364
L697.348 74.8733
L697.868 74.4006
L698.289 73.4554
L700.092 73.4554
L703.603 81.0173
L707.04 80.0721
L707.04 80.0721" style="fill:none;stroke:#0000ff;stroke-width:2;"/>
   </g>
   <g id="matplotlib.axis_1">
    <g id="xtick_1">
     <g id="line2d_2">
      <defs>
       <path d="
M0 0
L0 -4" id="mcb557df647" style="stroke:#000000;stroke-linecap:butt;stroke-width:0.5;"/>
      </defs>
      <g>
       <use style="stroke:#000000;stroke-linecap:butt;stroke-width:0.5;" x="54.4303125" xlink:href="#mcb557df647" y="101.34"/>
      </g>
     </g>
     <g id="line2d_3">
      <defs>
       <path d="
M0 0
L0 4" id="mdad270ee8e" style="stroke:#000000;stroke-linecap:butt;stroke-width:0.5;"/>
      </defs>
      <g>
       <use style="stroke:#000000;stroke-linecap:butt;stroke-width:0.5;" x="54.4303125" xlink:href="#mdad270ee8e" y="12.96"/>
      </g>
     </g>
     <g id="text_1">
      <!-- 0 -->
      <defs>
       <path d="
M31.7812 66.4062
Q24.1719 66.4062 20.3281 58.9062
Q16.5 51.4219 16.5 36.375
Q16.5 21.3906 20.3281 13.8906
Q24.1719 6.39062 31.7812 6.39062
Q39.4531 6.39062 43.2812 13.8906
Q47.125 21.3906 47.125 36.375
Q47.125 51.4219 43.2812 58.9062
Q39.4531 66.4062 31.7812 66.4062
M31.7812 74.2188
Q44.0469 74.2188 50.5156 64.5156
Q56.9844 54.8281 56.9844 36.375
Q56.9844 17.9688 50.5156 8.26562
Q44.0469 -1.42188 31.7812 -1.42188
Q19.5312 -1.42188 13.0625 8.26562
Q6.59375 17.9688 6.59375 36.375
Q6.59375 54.8281 13.0625 64.5156
Q19.5312 74.2188 31.7812 74.2188" id="BitstreamVeraSans-Roman-30"/>
      </defs>
      <g transform="translate(51.406875 114.24625)scale(0.12 -0.12)">
       <use xlink:href="#BitstreamVeraSans-Roman-30"/>
      </g>
     </g>
    </g>
    <g id="xtick_2">
     <g id="line2d_4">
      <g>
       <use style="stroke:#000000;stroke-linecap:butt;stroke-width:0.5;" x="147.980918243" xlink:href="#mcb557df647" y="101.34"/>
      </g>
     </g>
     <g id="line2d_5">
      <g>
       <use style="stroke:#000000;stroke-linecap:butt;stroke-width:0.5;" x="147.980918243" xlink:href="#mdad270ee8e" y="12.96"/>
      </g>
     </g>
     <g id="text_2">
      <!-- 10 -->
      <defs>
       <path d="
M12.4062 8.29688
L28.5156 8.29688
L28.5156 63.9219
L10.9844 60.4062
L10.9844 69.3906
L28.4219 72.9062
L38.2812 72.9062
L38.2812 8.29688
L54.3906 8.29688
L54.3906 0
L12.4062 0
z
" id="BitstreamVeraSans-Roman-31"/>
      </defs>
      <g transform="translate(141.403418243 114.24625)scale(0.12 -0.12)">
       <use xlink:href="#BitstreamVeraSans-Roman-31"/>
       <use x="63.623046875" xlink:href="#BitstreamVeraSans-Roman-30"/>
      </g>
     </g>
    </g>
    <g id="xtick_3">
     <g id="line2d_6">
      <g>
       <use style="stroke:#000000;stroke-linecap:butt;stroke-width:0.5;" x="241.531523986" xlink:href="#mcb557df647" y="101.34"/>
      </g>
     </g>
     <g id="line2d_7">
      <g>
       <use style="stroke:#000000;stroke-linecap:butt;stroke-width:0.5;" x="241.531523986" xlink:href="#mdad270ee8e" y="12.96"/>
      </g>
     </g>
     <g id="text_3">
      <!-- 20 -->
      <defs>
       <path d="
M19.1875 8.29688
L53.6094 8.29688
L53.6094 0
L7.32812 0
L7.32812 8.29688
Q12.9375 14.1094 22.625 23.8906
Q32.3281 33.6875 34.8125 36.5312
Q39.5469 41.8438 41.4219 45.5312
Q43.3125 49.2188 43.3125 52.7812
Q43.3125 58.5938 39.2344 62.25
Q35.1562 65.9219 28.6094 65.9219
Q23.9688 65.9219 18.8125 64.3125
Q13.6719 62.7031 7.8125 59.4219
L7.8125 69.3906
Q13.7656 71.7812 18.9375 73
Q24.125 74.2188 28.4219 74.2188
Q39.75 74.2188 46.4844 68.5469
Q53.2188 62.8906 53.2188 53.4219
Q53.2188 48.9219 51.5312 44.8906
Q49.8594 40.875 45.4062 35.4062
Q44.1875 33.9844 37.6406 27.2188
Q31.1094 20.4531 19.1875 8.29688" id="BitstreamVeraSans-Roman-32"/>
      </defs>
      <g transform="translate(234.734648986 114.24625)scale(0.12 -0.12)">
       <use xlink:href="#BitstreamVeraSans-Roman-32"/>
       <use x="63.623046875" xlink:href="#BitstreamVeraSans-Roman-30"/>
      </g>
     </g>
    </g>
    <g id="xtick_4">
     <g id="line2d_8">
      <g>
       <use style="stroke:#000000;stroke-linecap:butt;stroke-width:0.5;" x="335.082129729" xlink:href="#mcb557df647" y="101.34"/>
      </g>
     </g>
     <g id="line2d_9">
      <g>
       <use style="stroke:#000000;stroke-linecap:butt;stroke-width:0.5;" x="335.082129729" xlink:href="#mdad270ee8e" y="12.96"/>
      </g>
     </g>
     <g id="text_4">
      <!-- 30 -->
      <defs>
       <path d="
M40.5781 39.3125
Q47.6562 37.7969 51.625 33
Q55.6094 28.2188 55.6094 21.1875
Q55.6094 10.4062 48.1875 4.48438
Q40.7656 -1.42188 27.0938 -1.42188
Q22.5156 -1.42188 17.6562 -0.515625
Q12.7969 0.390625 7.625 2.20312
L7.625 11.7188
Q11.7188 9.32812 16.5938 8.10938
Q21.4844 6.89062 26.8125 6.89062
Q36.0781 6.89062 40.9375 10.5469
Q45.7969 14.2031 45.7969 21.1875
Q45.7969 27.6406 41.2812 31.2656
Q36.7656 34.9062 28.7188 34.9062
L20.2188 34.9062
L20.2188 43.0156
L29.1094 43.0156
Q36.375 43.0156 40.2344 45.9219
Q44.0938 48.8281 44.0938 54.2969
Q44.0938 59.9062 40.1094 62.9062
Q36.1406 65.9219 28.7188 65.9219
Q24.6562 65.9219 20.0156 65.0312
Q15.375 64.1562 9.8125 62.3125
L9.8125 71.0938
Q15.4375 72.6562 20.3438 73.4375
Q25.25 74.2188 29.5938 74.2188
Q40.8281 74.2188 47.3594 69.1094
Q53.9062 64.0156 53.9062 55.3281
Q53.9062 49.2656 50.4375 45.0938
Q46.9688 40.9219 40.5781 39.3125" id="BitstreamVeraSans-Roman-33"/>
      </defs>
      <g transform="translate(328.303067229 114.24625)scale(0.12 -0.12)">
       <use xlink:href="#BitstreamVeraSans-Roman-33"/>
       <use x="63.623046875" xlink:href="#BitstreamVeraSans-Roman-30"/>
      </g>
     </g>
    </g>
    <g id="xtick_5">
     <g id="line2d_10">
      <g>
       <use style="stroke:#000000;stroke-linecap:butt;stroke-width:0.5;" x="428.632735472" xlink:href="#mcb557df647" y="101.34"/>
      </g>
     </g>
     <g id="line2d_11">
      <g>
       <use style="stroke:#000000;stroke-linecap:butt;stroke-width:0.5;" x="428.632735472" xlink:href="#mdad270ee8e" y="12.96"/>
      </g>
     </g>
     <g id="text_5">
      <!-- 40 -->
      <defs>
       <path d="
M37.7969 64.3125
L12.8906 25.3906
L37.7969 25.3906
z

M35.2031 72.9062
L47.6094 72.9062
L47.6094 25.3906
L58.0156 25.3906
L58.0156 17.1875
L47.6094 17.1875
L47.6094 0
L37.7969 0
L37.7969 17.1875
L4.89062 17.1875
L4.89062 26.7031
z
" id="BitstreamVeraSans-Roman-34"/>
      </defs>
      <g transform="translate(421.689610472 114.24625)scale(0.12 -0.12)">
       <use xlink:href="#BitstreamVeraSans-Roman-34"/>
       <use x="63.623046875" xlink:href="#BitstreamVeraSans-Roman-30"/>
      </g>
     </g>
    </g>
    <g id="xtick_6">
     <g id="line2d_12">
      <g>
       <use style="stroke:#000000;stroke-linecap:butt;stroke-width:0.5;" x="522.183341215" xlink:href="#mcb557df647" y="101.34"/>
      </g>
     </g>
     <g id="line2d_13">
      <g>
       <use style="stroke:#000000;stroke-linecap:butt;stroke-width:0.5;" x="522.183341215" xlink:href="#mdad270ee8e" y="12.96"/>
      </g>
     </g>
     <g id="text_6">
      <!-- 50 -->
      <defs>
       <path d="
M10.7969 72.9062
L49.5156 72.9062
L49.5156 64.5938
L19.8281 64.5938
L19.8281 46.7344
Q21.9688 47.4688 24.1094 47.8281
Q26.2656 48.1875 28.4219 48.1875
Q40.625 48.1875 47.75 41.5
Q54.8906 34.8125 54.8906 23.3906
Q54.8906 11.625 47.5625 5.09375
Q40.2344 -1.42188 26.9062 -1.42188
Q22.3125 -1.42188 17.5469 -0.640625
Q12.7969 0.140625 7.71875 1.70312
L7.71875 11.625
Q12.1094 9.23438 16.7969 8.0625
Q21.4844 6.89062 26.7031 6.89062
Q35.1562 6.89062 40.0781 11.3281
Q45.0156 15.7656 45.0156 23.3906
Q45.0156 31 40.0781 35.4375
Q35.1562 39.8906 26.7031 39.8906
Q22.75 39.8906 18.8125 39.0156
Q14.8906 38.1406 10.7969 36.2812
z
" id="BitstreamVeraSans-Roman-35"/>
      </defs>
      <g transform="translate(515.409903715 114.24625)scale(0.12 -0.12)">
       <use xlink:href="#BitstreamVeraSans-Roman-35"/>
       <use x="63.623046875" xlink:href="#BitstreamVeraSans-Roman-30"/>
      </g>
     </g>
    </g>
    <g id="xtick_7">
     <g id="line2d_14">
      <g>
       <use style="stroke:#000000;stroke-linecap:butt;stroke-width:0.5;" x="615.733946958" xlink:href="#mcb557df647" y="101.34"/>
      </g>
     </g>
     <g id="line2d_15">
      <g>
       <use style="stroke:#000000;stroke-linecap:butt;stroke-width:0.5;" x="615.733946958" xlink:href="#mdad270ee8e" y="12.96"/>
      </g>
     </g>
     <g id="text_7">
      <!-- 60 -->
      <defs>
       <path d="
M33.0156 40.375
Q26.375 40.375 22.4844 35.8281
Q18.6094 31.2969 18.6094 23.3906
Q18.6094 15.5312 22.4844 10.9531
Q26.375 6.39062 33.0156 6.39062
Q39.6562 6.39062 43.5312 10.9531
Q47.4062 15.5312 47.4062 23.3906
Q47.4062 31.2969 43.5312 35.8281
Q39.6562 40.375 33.0156 40.375
M52.5938 71.2969
L52.5938 62.3125
Q48.875 64.0625 45.0938 64.9844
Q41.3125 65.9219 37.5938 65.9219
Q27.8281 65.9219 22.6719 59.3281
Q17.5312 52.7344 16.7969 39.4062
Q19.6719 43.6562 24.0156 45.9219
Q28.375 48.1875 33.5938 48.1875
Q44.5781 48.1875 50.9531 41.5156
Q57.3281 34.8594 57.3281 23.3906
Q57.3281 12.1562 50.6875 5.35938
Q44.0469 -1.42188 33.0156 -1.42188
Q20.3594 -1.42188 13.6719 8.26562
Q6.98438 17.9688 6.98438 36.375
Q6.98438 53.6562 15.1875 63.9375
Q23.3906 74.2188 37.2031 74.2188
Q40.9219 74.2188 44.7031 73.4844
Q48.4844 72.75 52.5938 71.2969" id="BitstreamVeraSans-Roman-36"/>
      </defs>
      <g transform="translate(608.916446958 114.24625)scale(0.12 -0.12)">
       <use xlink:href="#BitstreamVeraSans-Roman-36"/>
       <use x="63.623046875" xlink:href="#BitstreamVeraSans-Roman-30"/>
      </g>
     </g>
    </g>
    <g id="text_8">
     <!-- Distance, km -->
     <defs>
      <path id="BitstreamVeraSans-Roman-20"/>
      <path d="
M54.8906 33.0156
L54.8906 0
L45.9062 0
L45.9062 32.7188
Q45.9062 40.4844 42.875 44.3281
Q39.8438 48.1875 33.7969 48.1875
Q26.5156 48.1875 22.3125 43.5469
Q18.1094 38.9219 18.1094 30.9062
L18.1094 0
L9.07812 0
L9.07812 54.6875
L18.1094 54.6875
L18.1094 46.1875
Q21.3438 51.125 25.7031 53.5625
Q30.0781 56 35.7969 56
Q45.2188 56 50.0469 50.1719
Q54.8906 44.3438 54.8906 33.0156" id="BitstreamVeraSans-Roman-6e"/>
      <path d="
M52 44.1875
Q55.375 50.25 60.0625 53.125
Q64.75 56 71.0938 56
Q79.6406 56 84.2812 50.0156
Q88.9219 44.0469 88.9219 33.0156
L88.9219 0
L79.8906 0
L79.8906 32.7188
Q79.8906 40.5781 77.0938 44.375
Q74.3125 48.1875 68.6094 48.1875
Q61.625 48.1875 57.5625 43.5469
Q53.5156 38.9219 53.5156 30.9062
L53.5156 0
L44.4844 0
L44.4844 32.7188
Q44.4844 40.625 41.7031 44.4062
Q38.9219 48.1875 33.1094 48.1875
Q26.2188 48.1875 22.1562 43.5312
Q18.1094 38.875 18.1094 30.9062
L18.1094 0
L9.07812 0
L9.07812 54.6875
L18.1094 54.6875
L18.1094 46.1875
Q21.1875 51.2188 25.4844 53.6094
Q29.7812 56 35.6875 56
Q41.6562 56 45.8281 52.9688
Q50 49.9531 52 44.1875" id="BitstreamVeraSans-Roman-6d"/>
      <path d="
M9.07812 75.9844
L18.1094 75.9844
L18.1094 31.1094
L44.9219 54.6875
L56.3906 54.6875
L27.3906 29.1094
L57.625 0
L45.9062 0
L18.1094 26.7031
L18.1094 0
L9.07812 0
z
" id="BitstreamVeraSans-Roman-6b"/>
      <path d="
M11.7188 12.4062
L22.0156 12.4062
L22.0156 4
L14.0156 -11.625
L7.71875 -11.625
L11.7188 4
z
" id="BitstreamVeraSans-Roman-2c"/>
      <path d="
M19.6719 64.7969
L19.6719 8.10938
L31.5938 8.10938
Q46.6875 8.10938 53.6875 14.9375
Q60.6875 21.7812 60.6875 36.5312
Q60.6875 51.1719 53.6875 57.9844
Q46.6875 64.7969 31.5938 64.7969
z

M9.8125 72.9062
L30.0781 72.9062
Q51.2656 72.9062 61.1719 64.0938
Q71.0938 55.2812 71.0938 36.5312
Q71.0938 17.6719 61.125 8.82812
Q51.1719 0 30.0781 0
L9.8125 0
z
" id="BitstreamVeraSans-Roman-44"/>
      <path d="
M9.42188 54.6875
L18.4062 54.6875
L18.4062 0
L9.42188 0
z

M9.42188 75.9844
L18.4062 75.9844
L18.4062 64.5938
L9.42188 64.5938
z
" id="BitstreamVeraSans-Roman-69"/>
      <path d="
M56.2031 29.5938
L56.2031 25.2031
L14.8906 25.2031
Q15.4844 15.9219 20.4844 11.0625
Q25.4844 6.20312 34.4219 6.20312
Q39.5938 6.20312 44.4531 7.46875
Q49.3125 8.73438 54.1094 11.2812
L54.1094 2.78125
Q49.2656 0.734375 44.1875 -0.34375
Q39.1094 -1.42188 33.8906 -1.42188
Q20.7969 -1.42188 13.1562 6.1875
Q5.51562 13.8125 5.51562 26.8125
Q5.51562 40.2344 12.7656 48.1094
Q20.0156 56 32.3281 56
Q43.3594 56 49.7812 48.8906
Q56.2031 41.7969 56.2031 29.5938
M47.2188 32.2344
Q47.125 39.5938 43.0938 43.9844
Q39.0625 48.3906 32.4219 48.3906
Q24.9062 48.3906 20.3906 44.1406
Q15.875 39.8906 15.1875 32.1719
z
" id="BitstreamVeraSans-Roman-65"/>
      <path d="
M18.3125 70.2188
L18.3125 54.6875
L36.8125 54.6875
L36.8125 47.7031
L18.3125 47.7031
L18.3125 18.0156
Q18.3125 11.3281 20.1406 9.42188
Q21.9688 7.51562 27.5938 7.51562
L36.8125 7.51562
L36.8125 0
L27.5938 0
Q17.1875 0 13.2344 3.875
Q9.28125 7.76562 9.28125 18.0156
L9.28125 47.7031
L2.6875 47.7031
L2.6875 54.6875
L9.28125 54.6875
L9.28125 70.2188
z
" id="BitstreamVeraSans-Roman-74"/>
      <path d="
M34.2812 27.4844
Q23.3906 27.4844 19.1875 25
Q14.9844 22.5156 14.9844 16.5
Q14.9844 11.7188 18.1406 8.90625
Q21.2969 6.10938 26.7031 6.10938
Q34.1875 6.10938 38.7031 11.4062
Q43.2188 16.7031 43.2188 25.4844
L43.2188 27.4844
z

M52.2031 31.2031
L52.2031 0
L43.2188 0
L43.2188 8.29688
Q40.1406 3.32812 35.5469 0.953125
Q30.9531 -1.42188 24.3125 -1.42188
Q15.9219 -1.42188 10.9531 3.29688
Q6 8.01562 6 15.9219
Q6 25.1406 12.1719 29.8281
Q18.3594 34.5156 30.6094 34.5156
L43.2188 34.5156
L43.2188 35.4062
Q43.2188 41.6094 39.1406 45
Q35.0625 48.3906 27.6875 48.3906
Q23 48.3906 18.5469 47.2656
Q14.1094 46.1406 10.0156 43.8906
L10.0156 52.2031
Q14.9375 54.1094 19.5781 55.0469
Q24.2188 56 28.6094 56
Q40.4844 56 46.3438 49.8438
Q52.2031 43.7031 52.2031 31.2031" id="BitstreamVeraSans-Roman-61"/>
      <path d="
M44.2812 53.0781
L44.2812 44.5781
Q40.4844 46.5312 36.375 47.5
Q32.2812 48.4844 27.875 48.4844
Q21.1875 48.4844 17.8438 46.4375
Q14.5 44.3906 14.5 40.2812
Q14.5 37.1562 16.8906 35.375
Q19.2812 33.5938 26.5156 31.9844
L29.5938 31.2969
Q39.1562 29.25 43.1875 25.5156
Q47.2188 21.7812 47.2188 15.0938
Q47.2188 7.46875 41.1875 3.01562
Q35.1562 -1.42188 24.6094 -1.42188
Q20.2188 -1.42188 15.4531 -0.5625
Q10.6875 0.296875 5.42188 2
L5.42188 11.2812
Q10.4062 8.6875 15.2344 7.39062
Q20.0625 6.10938 24.8125 6.10938
Q31.1562 6.10938 34.5625 8.28125
Q37.9844 10.4531 37.9844 14.4062
Q37.9844 18.0625 35.5156 20.0156
Q33.0625 21.9688 24.7031 23.7812
L21.5781 24.5156
Q13.2344 26.2656 9.51562 29.9062
Q5.8125 33.5469 5.8125 39.8906
Q5.8125 47.6094 11.2812 51.7969
Q16.75 56 26.8125 56
Q31.7812 56 36.1719 55.2656
Q40.5781 54.5469 44.2812 53.0781" id="BitstreamVeraSans-Roman-73"/>
      <path d="
M48.7812 52.5938
L48.7812 44.1875
Q44.9688 46.2969 41.1406 47.3438
Q37.3125 48.3906 33.4062 48.3906
Q24.6562 48.3906 19.8125 42.8438
Q14.9844 37.3125 14.9844 27.2969
Q14.9844 17.2812 19.8125 11.7344
Q24.6562 6.20312 33.4062 6.20312
Q37.3125 6.20312 41.1406 7.25
Q44.9688 8.29688 48.7812 10.4062
L48.7812 2.09375
Q45.0156 0.34375 40.9844 -0.53125
Q36.9688 -1.42188 32.4219 -1.42188
Q20.0625 -1.42188 12.7812 6.34375
Q5.51562 14.1094 5.51562 27.2969
Q5.51562 40.6719 12.8594 48.3281
Q20.2188 56 33.0156 56
Q37.1562 56 41.1094 55.1406
Q45.0625 54.2969 48.7812 52.5938" id="BitstreamVeraSans-Roman-63"/>
     </defs>
     <g transform="translate(341.87671875 128.535)scale(0.12 -0.12)">
      <use xlink:href="#BitstreamVeraSans-Roman-44"/>
      <use x="77.001953125" xlink:href="#BitstreamVeraSans-Roman-69"/>
      <use x="104.78515625" xlink:href="#BitstreamVeraSans-Roman-73"/>
      <use x="156.884765625" xlink:href="#BitstreamVeraSans-Roman-74"/>
      <use x="196.09375" xlink:href="#BitstreamVeraSans-Roman-61"/>
      <use x="257.373046875" xlink:href="#BitstreamVeraSans-Roman-6e"/>
      <use x="320.751953125" xlink:href="#BitstreamVeraSans-Roman-63"/>
      <use x="375.732421875" xlink:href="#BitstreamVeraSans-Roman-65"/>
      <use x="437.255859375" xlink:href="#BitstreamVeraSans-Roman-2c"/>
      <use x="469.04296875" xlink:href="#BitstreamVeraSans-Roman-20"/>
      <use x="500.830078125" xlink:href="#BitstreamVeraSans-Roman-6b"/>
      <use x="558.740234375" xlink:href="#BitstreamVeraSans-Roman-6d"/>
     </g>
    </g>
   </g>
   <g id="matplotlib.axis_2">
    <g id="ytick_1">
     <g id="line2d_16">
      <defs>
       <path d="
M0 0
L4 0" id="mc8fcea1516" style="stroke:#000000;stroke-linecap:butt;stroke-width:0.5;"/>
      </defs>
      <g>
       <use style="stroke:#000000;stroke-linecap:butt;stroke-width:0.5;" x="54.4303125" xlink:href="#mc8fcea1516" y="101.34"/>
      </g>
     </g>
     <g id="line2d_17">
      <defs>
       <path d="
M0 0
L-4 0" id="m0d5b0a6425" style="stroke:#000000;stroke-linecap:butt;stroke-width:0.5;"/>
      </defs>
      <g>
       <use style="stroke:#000000;stroke-linecap:butt;stroke-width:0.5;" x="707.04" xlink:href="#m0d5b0a6425" y="101.34"/>
      </g>
     </g>
     <g id="text_9">
      <!-- 0 -->
      <g transform="translate(44.3834375 105.7078125)scale(0.12 -0.12)">
       <use xlink:href="#BitstreamVeraSans-Roman-30"/>
      </g>
     </g>
    </g>
    <g id="ytick_2">
     <g id="line2d_18">
      <g>
       <use style="stroke:#000000;stroke-linecap:butt;stroke-width:0.5;" x="54.4303125" xlink:href="#mc8fcea1516" y="77.7089839572"/>
      </g>
     </g>
     <g id="line2d_19">
      <g>
       <use style="stroke:#000000;stroke-linecap:butt;stroke-width:0.5;" x="707.04" xlink:href="#m0d5b0a6425" y="77.7089839572"/>
      </g>
     </g>
     <g id="text_10">
      <!-- 50 -->
      <g transform="translate(36.8834375 82.0767964572)scale(0.12 -0.12)">
       <use xlink:href="#BitstreamVeraSans-Roman-35"/>
       <use x="63.623046875" xlink:href="#BitstreamVeraSans-Roman-30"/>
      </g>
     </g>
    </g>
    <g id="ytick_3">
     <g id="line2d_20">
      <g>
       <use style="stroke:#000000;stroke-linecap:butt;stroke-width:0.5;" x="54.4303125" xlink:href="#mc8fcea1516" y="54.0779679144"/>
      </g>
     </g>
     <g id="line2d_21">
      <g>
       <use style="stroke:#000000;stroke-linecap:butt;stroke-width:0.5;" x="707.04" xlink:href="#m0d5b0a6425" y="54.0779679144"/>
      </g>
     </g>
     <g id="text_11">
      <!-- 100 -->
      <g transform="translate(29.6403125 58.4457804144)scale(0.12 -0.12)">
       <use xlink:href="#BitstreamVeraSans-Roman-31"/>
       <use x="63.623046875" xlink:href="#BitstreamVeraSans-Roman-30"/>
       <use x="127.24609375" xlink:href="#BitstreamVeraSans-Roman-30"/>
      </g>
     </g>
    </g>
    <g id="ytick_4">
     <g id="line2d_22">
      <g>
       <use style="stroke:#000000;stroke-linecap:butt;stroke-width:0.5;" x="54.4303125" xlink:href="#mc8fcea1516" y="30.4469518717"/>
      </g>
     </g>
     <g id="line2d_23">
      <g>
       <use style="stroke:#000000;stroke-linecap:butt;stroke-width:0.5;" x="707.04" xlink:href="#m0d5b0a6425" y="30.4469518717"/>
      </g>
     </g>
     <g id="text_12">
      <!-- 150 -->
      <g transform="translate(29.6403125 34.8147643717)scale(0.12 -0.12)">
       <use xlink:href="#BitstreamVeraSans-Roman-31"/>
       <use x="63.623046875" xlink:href="#BitstreamVeraSans-Roman-35"/>
       <use x="127.24609375" xlink:href="#BitstreamVeraSans-Roman-30"/>
      </g>
     </g>
    </g>
    <g id="text_13">
     <!-- Elevation, m -->
     <defs>
      <path d="
M2.98438 54.6875
L12.5 54.6875
L29.5938 8.79688
L46.6875 54.6875
L56.2031 54.6875
L35.6875 0
L23.4844 0
z
" id="BitstreamVeraSans-Roman-76"/>
      <path d="
M9.8125 72.9062
L55.9062 72.9062
L55.9062 64.5938
L19.6719 64.5938
L19.6719 43.0156
L54.3906 43.0156
L54.3906 34.7188
L19.6719 34.7188
L19.6719 8.29688
L56.7812 8.29688
L56.7812 0
L9.8125 0
z
" id="BitstreamVeraSans-Roman-45"/>
      <path d="
M30.6094 48.3906
Q23.3906 48.3906 19.1875 42.75
Q14.9844 37.1094 14.9844 27.2969
Q14.9844 17.4844 19.1562 11.8438
Q23.3438 6.20312 30.6094 6.20312
Q37.7969 6.20312 41.9844 11.8594
Q46.1875 17.5312 46.1875 27.2969
Q46.1875 37.0156 41.9844 42.7031
Q37.7969 48.3906 30.6094 48.3906
M30.6094 56
Q42.3281 56 49.0156 48.375
Q55.7188 40.7656 55.7188 27.2969
Q55.7188 13.875 49.0156 6.21875
Q42.3281 -1.42188 30.6094 -1.42188
Q18.8438 -1.42188 12.1719 6.21875
Q5.51562 13.875 5.51562 27.2969
Q5.51562 40.7656 12.1719 48.375
Q18.8438 56 30.6094 56" id="BitstreamVeraSans-Roman-6f"/>
      <path d="
M9.42188 75.9844
L18.4062 75.9844
L18.4062 0
L9.42188 0
z
" id="BitstreamVeraSans-Roman-6c"/>
     </defs>
     <g transform="translate(24.6403125 92.775)rotate(-90.0)scale(0.12 -0.12)">
      <use xlink:href="#BitstreamVeraSans-Roman-45"/>
      <use x="63.18359375" xlink:href="#BitstreamVeraSans-Roman-6c"/>
      <use x="90.966796875" xlink:href="#BitstreamVeraSans-Roman-65"/>
      <use x="152.490234375" xlink:href="#BitstreamVeraSans-Roman-76"/>
      <use x="211.669921875" xlink:href="#BitstreamVeraSans-Roman-61"/>
      <use x="272.94921875" xlink:href="#BitstreamVeraSans-Roman-74"/>
      <use x="312.158203125" xlink:href="#BitstreamVeraSans-Roman-69"/>
      <use x="339.94140625" xlink:href="#BitstreamVeraSans-Roman-6f"/>
      <use x="401.123046875" xlink:href="#BitstreamVeraSans-Roman-6e"/>
      <use x="464.501953125" xlink:href="#BitstreamVeraSans-Roman-2c"/>
      <use x="496.2890625" xlink:href="#BitstreamVeraSans-Roman-20"/>
      <use x="528.076171875" xlink:href="#BitstreamVeraSans-Roman-6d"/>
     </g>
    </g>
   </g>
   <g id="patch_3">
    <path d="
M54.4303 12.96
L707.04 12.96" style="fill:none;stroke:#000000;"/>
   </g>
   <g id="patch_4">
    <path d="
M707.04 101.34
L707.04 12.96" style="fill:none;stroke:#000000;"/>
   </g>
   <g id="patch_5">
    <path d="
M54.4303 101.34
L707.04 101.34" style="fill:none;stroke:#000000;"/>
   </g>
   <g id="patch_6">
    <path d="
M54.4303 101.34
L54.4303 12.96" style="fill:none;stroke:#000000;"/>
   </g>
  </g>
 </g>
 <defs>
  <clipPath id="pa8176fee34">
   <rect height="88.38" width="652.6096875" x="54.4303125" y="12.96"/>
  </clipPath>
 </defs>
</svg>
