<?xml version="1.0" encoding="utf-8" standalone="no"?>
<!DOCTYPE svg PUBLIC "-//W3C//DTD SVG 1.1//EN"
  "http://www.w3.org/Graphics/SVG/1.1/DTD/svg11.dtd">
<!-- Created with matplotlib (http://matplotlib.org/) -->
<svg height="144pt" version="1.1" viewBox="0 0 720 144" width="720pt" xmlns="http://www.w3.org/2000/svg" xmlns:xlink="http://www.w3.org/1999/xlink">
 <defs>
  <style type="text/css">
*{stroke-linecap:butt;stroke-linejoin:round;}
  </style>
 </defs>
 <g id="figure_1">
  <g id="patch_1">
   <path d="
M0 144
L720 144
L720 0
L0 0
z
" style="fill:#ffffff;"/>
  </g>
  <g id="axes_1">
   <g id="patch_2">
    <path d="
M54.5288 98.64
L707.04 98.64
L707.04 12.96
L54.5288 12.96
z
" style="fill:#ffffff;"/>
   </g>
   <g id="PolyCollection_1">
    <defs>
     <path d="
M54.5288 -45.36
L54.5288 -65.52
L54.7639 -65.0618
L57.1562 -65.0618
L57.6648 -64.6036
L58.062 -64.6036
L58.7368 -64.6036
L59.5694 -64.1455
L59.8109 -64.1455
L60.3911 -63.6873
L62.974 -63.2291
L63.4152 -63.2291
L64.0203 -63.2291
L64.5545 -63.2291
L65.2812 -63.6873
L66.14 -64.1455
L67.1258 -65.52
L67.3961 -66.4364
L67.8754 -67.8109
L68.199 -69.1855
L73.4594 -75.1418
L73.7488 -75.6
L74.4791 -77.4327
L74.4791 -77.4327
L74.9685 -79.2655
L75.3443 -80.64
L75.7191 -82.4727
L76.8421 -87.5127
L77.7434 -89.3455
L78.0659 -90.2618
L79.4903 -91.6364
L80.3645 -91.1782
L81.1295 -91.1782
L81.8273 -90.72
L83.38 -89.8036
L84.5943 -89.8036
L84.877 -89.3455
L85.1547 -88.8873
L89.3735 -83.3891
L89.6658 -82.0145
L91.5048 -75.6
L92.144 -75.6
L92.4307 -75.6
L94.7087 -76.5164
L96.4059 -71.4764
L96.8952 -70.56
L100.346 -65.52
L100.346 -65.52
L113.227 -56.8145
L113.508 -56.3564
L113.613 -56.3564
L114.839 -54.9818
L116.434 -55.44
L117.474 -55.8982
L120.325 -58.6473
L125.34 -57.2727
L125.634 -56.3564
L126.04 -55.44
L126.488 -54.9818
L126.688 -54.5236
L127.134 -54.5236
L129.653 -54.5236
L130.227 -55.44
L130.587 -55.8982
L130.836 -56.8145
L131.3 -56.8145
L135.079 -58.6473
L135.079 -58.6473
L141.298 -58.6473
L141.652 -58.6473
L155.854 -62.3127
L161.35 -62.3127
L163.341 -62.7709
L169.956 -64.6036
L169.956 -64.6036
L173.09 -63.2291
L179.441 -66.4364
L180.214 -65.9782
L181.01 -65.9782
L181.655 -65.9782
L184.36 -67.3527
L184.575 -67.3527
L185.485 -67.8109
L186.71 -68.7273
L187.513 -69.1855
L188.167 -70.1018
L189.151 -71.0182
L190.333 -72.3927
L190.903 -72.3927
L191.589 -73.3091
L192.371 -74.6836
L192.7 -75.6
L193.029 -75.6
L193.362 -76.0582
L194.183 -76.9745
L194.562 -77.4327
L195.035 -78.3491
L195.548 -79.2655
L195.558 -79.2655
L196.766 -81.5564
L197.137 -81.5564
L198.475 -83.3891
L199.606 -83.3891
L200.432 -84.3055
L200.83 -84.7636
L201.143 -85.2218
L201.736 -86.1382
L202.245 -87.0545
L202.586 -87.9709
L203.453 -90.72
L203.548 -90.72
L203.936 -91.1782
L206.264 -94.3855
L214.019 -103.549
L214.019 -103.549
L214.898 -104.465
L215.283 -104.924
L216.188 -105.84
L217.178 -107.215
L217.498 -107.215
L218.134 -107.673
L218.624 -108.131
L218.775 -108.589
L220.788 -111.796
L221.281 -113.171
L221.528 -113.629
L222.395 -116.378
L222.553 -116.378
L222.696 -116.836
L223.845 -120.502
L224.217 -120.044
L225.238 -119.127
L226.069 -119.127
L226.659 -119.127
L228.31 -120.044
L229.369 -118.211
L229.772 -118.669
L230.126 -119.127
L230.682 -120.502
L231.156 -120.96
L232.192 -123.251
L232.727 -122.793
L232.998 -122.335
L233.634 -122.335
L233.798 -121.418
L234.362 -119.127
L234.626 -118.211
L235.081 -117.295
L235.379 -116.836
L235.704 -116.378
L236.814 -115.462
L236.821 -115.004
L238.529 -113.171
L241.228 -112.255
L249.927 -113.629
L250.551 -113.171
L251.716 -113.171
L251.716 -113.171
L252.103 -112.713
L252.38 -112.713
L253.466 -112.713
L253.702 -112.713
L254.558 -113.171
L256.461 -113.629
L257.191 -113.629
L258.116 -113.629
L262.066 -110.422
L263.013 -111.796
L264.233 -111.796
L264.949 -111.796
L265.975 -112.255
L269.974 -110.88
L270.838 -110.422
L271.688 -110.422
L272.906 -109.047
L274.413 -108.589
L274.691 -108.589
L274.961 -109.047
L275.63 -110.422
L275.78 -109.964
L275.965 -109.964
L277.103 -109.964
L278.398 -109.964
L280.545 -109.964
L281.996 -109.964
L283.881 -109.047
L284.971 -108.589
L284.971 -108.589
L286.639 -108.589
L288.071 -109.505
L289.045 -110.422
L289.25 -110.422
L289.984 -110.88
L290.171 -111.338
L290.49 -110.422
L291.059 -109.505
L291.273 -109.505
L291.462 -109.047
L292.158 -109.047
L293.985 -108.131
L294.472 -106.756
L296.18 -103.091
L296.344 -102.633
L297.121 -102.175
L297.253 -101.716
L298.406 -101.258
L300.422 -96.2182
L300.675 -94.8436
L301.79 -91.1782
L302.393 -92.0945
L304.351 -95.3018
L306.214 -95.76
L306.754 -95.76
L307.412 -95.76
L307.644 -96.2182
L308.786 -100.342
L309.022 -100.8
L310.063 -103.091
L310.063 -103.091
L310.918 -102.175
L311.179 -102.175
L312.599 -101.716
L313.127 -101.716
L313.82 -102.175
L316.539 -101.258
L318.334 -103.549
L320.384 -102.175
L321.555 -103.549
L321.955 -103.091
L323.514 -102.175
L323.778 -102.175
L324.227 -102.175
L324.578 -102.175
L325.671 -100.342
L327.492 -99.8836
L330.087 -99.8836
L330.241 -99.4255
L330.695 -98.9673
L331.005 -98.5091
L331.224 -98.5091
L331.477 -97.5927
L332.097 -95.3018
L334.776 -86.5964
L335.536 -83.8473
L335.544 -83.3891
L336.004 -82.9309
L337.746 -80.1818
L339.571 -76.0582
L339.868 -75.6
L340.032 -75.6
L340.366 -75.6
L340.566 -75.6
L341.333 -75.6
L343.438 -74.6836
L346.029 -73.3091
L346.661 -72.3927
L347.727 -71.9345
L351.894 -71.0182
L355.181 -71.0182
L356.154 -69.1855
L357.541 -67.3527
L359.068 -65.9782
L360.158 -64.6036
L361.316 -65.9782
L361.802 -65.0618
L363.171 -63.6873
L363.694 -63.2291
L367.224 -62.3127
L367.798 -62.3127
L370.543 -63.6873
L370.551 -63.6873
L372.999 -66.4364
L373.405 -65.0618
L373.857 -64.1455
L374.615 -62.7709
L375.098 -62.3127
L375.778 -61.8545
L376.736 -59.5636
L377.359 -60.48
L379.034 -63.6873
L379.904 -62.7709
L380.815 -62.3127
L381.711 -60.9382
L382.334 -60.48
L383.565 -60.0218
L385.039 -60.0218
L385.707 -59.5636
L386.706 -59.1055
L387.381 -60.48
L387.937 -62.3127
L388.802 -62.3127
L390.469 -63.2291
L393.457 -61.8545
L397.232 -63.2291
L397.232 -63.2291
L398.039 -61.3964
L399.62 -59.1055
L400.19 -59.1055
L400.635 -59.5636
L401.221 -59.5636
L402.308 -60.0218
L402.81 -59.5636
L403.565 -59.1055
L404.263 -59.5636
L404.818 -60.48
L405.296 -60.48
L405.747 -60.9382
L406.017 -61.3964
L407.98 -61.3964
L409.491 -56.8145
L410.074 -56.3564
L410.156 -56.3564
L410.39 -55.8982
L410.895 -55.8982
L411.264 -55.8982
L413.674 -58.1891
L415.31 -54.5236
L416.757 -54.5236
L416.757 -54.5236
L418.64 -55.44
L420.505 -57.2727
L429.065 -55.44
L429.677 -55.44
L429.837 -55.44
L430.885 -55.8982
L431.099 -55.8982
L431.875 -57.2727
L433.254 -59.5636
L434.45 -63.6873
L435.359 -69.1855
L437.204 -81.0982
L437.765 -82.4727
L439.004 -86.5964
L439.809 -89.3455
L440.619 -92.5527
L440.619 -92.5527
L440.848 -92.0945
L442.751 -91.6364
L444.269 -94.8436
L447.384 -94.3855
L450.306 -95.3018
L451.148 -95.76
L455.036 -98.5091
L455.036 -98.5091
L456.69 -93.9273
L457.183 -92.0945
L462.92 -75.6
L463.192 -74.6836
L463.555 -73.7673
L463.675 -73.7673
L465.648 -69.6436
L467.732 -63.2291
L468.635 -61.3964
L469.129 -60.9382
L471.219 -64.1455
L471.998 -63.2291
L472.545 -62.7709
L473.268 -61.3964
L473.947 -60.48
L475.001 -60.0218
L475.442 -60.9382
L476.28 -63.2291
L476.28 -63.2291
L478.239 -64.1455
L478.47 -63.6873
L478.721 -63.2291
L478.969 -63.2291
L479.845 -62.3127
L482.71 -56.8145
L484.154 -57.2727
L485.106 -56.8145
L485.358 -56.8145
L486.713 -59.5636
L488.249 -61.8545
L491.228 -63.2291
L495.075 -69.6436
L495.968 -71.9345
L497.342 -75.6
L500.68 -84.3055
L501.025 -85.2218
L501.335 -86.5964
L501.646 -87.9709
L502.139 -89.3455
L502.619 -91.1782
L502.994 -92.5527
L503.303 -93.9273
L503.819 -96.6764
L504.574 -99.8836
L504.959 -102.175
L505.327 -101.716
L506.813 -101.716
L507.889 -100.8
L507.896 -100.8
L509.119 -102.633
L510.216 -105.382
L510.729 -104.007
L511.149 -103.091
L511.566 -102.633
L512.811 -103.549
L513.944 -100.8
L515.483 -98.9673
L516.818 -95.3018
L517.823 -94.3855
L518.205 -94.8436
L519.649 -96.6764
L520.024 -96.6764
L520.321 -97.1345
L520.634 -97.5927
L522.144 -98.5091
L522.454 -98.0509
L522.899 -97.1345
L523.204 -97.1345
L524.09 -94.3855
L528.907 -81.5564
L534.256 -75.6
L534.589 -74.6836
L534.951 -74.2255
L535.456 -73.7673
L536.043 -72.3927
L536.405 -71.9345
L537.145 -71.0182
L538.316 -70.56
L539.295 -70.1018
L539.784 -69.6436
L540.312 -69.1855
L541.036 -69.1855
L547.296 -70.56
L547.83 -70.56
L548.764 -70.56
L549.116 -70.56
L550.902 -71.0182
L551.593 -71.4764
L554.146 -73.3091
L554.146 -73.3091
L557.108 -74.6836
L565.665 -73.7673
L566.563 -74.6836
L566.563 -74.6836
L570.168 -73.3091
L574.125 -72.3927
L574.125 -72.3927
L574.476 -71.9345
L589.077 -68.7273
L595.543 -65.52
L595.757 -65.52
L596.918 -65.52
L597.572 -66.4364
L597.572 -66.4364
L599.175 -65.52
L600.967 -67.8109
L601.318 -67.3527
L601.641 -67.3527
L606.053 -67.3527
L606.181 -67.3527
L606.364 -67.3527
L610.225 -70.1018
L611.458 -68.7273
L611.932 -68.7273
L613.465 -69.1855
L613.901 -69.1855
L614.365 -69.1855
L620.127 -72.3927
L620.574 -72.8509
L621.392 -74.2255
L623.28 -70.56
L624.637 -72.3927
L626.858 -76.0582
L627.263 -75.6
L627.612 -75.6
L628.042 -75.6
L628.345 -75.6
L635.164 -75.6
L635.437 -75.1418
L635.704 -75.1418
L636.965 -75.1418
L637.457 -74.6836
L637.832 -74.6836
L639.284 -74.2255
L639.284 -74.2255
L640.797 -72.8509
L647.982 -72.3927
L653.346 -70.1018
L662.489 -72.8509
L672.022 -66.8945
L672.909 -65.0618
L679.592 -54.9818
L680.403 -55.8982
L682.085 -59.1055
L684.948 -64.6036
L685.484 -65.9782
L686.036 -67.8109
L689.618 -72.3927
L689.618 -72.3927
L691.185 -71.9345
L692.018 -71.4764
L692.366 -71.4764
L692.835 -71.0182
L693.62 -70.56
L694.125 -69.6436
L694.966 -69.1855
L695.275 -68.7273
L695.588 -68.7273
L696.077 -68.7273
L696.172 -68.7273
L696.263 -68.7273
L697.349 -71.0182
L697.87 -71.4764
L698.29 -72.3927
L700.094 -72.3927
L703.603 -65.0618
L707.04 -65.9782
L707.04 -45.36
L707.04 -45.36
L703.603 -45.36
L700.094 -45.36
L698.29 -45.36
L697.87 -45.36
L697.349 -45.36
L696.263 -45.36
L696.172 -45.36
L696.077 -45.36
L695.588 -45.36
L695.275 -45.36
L694.966 -45.36
L694.125 -45.36
L693.62 -45.36
L692.835 -45.36
L692.366 -45.36
L692.018 -45.36
L691.185 -45.36
L689.618 -45.36
L689.618 -45.36
L686.036 -45.36
L685.484 -45.36
L684.948 -45.36
L682.085 -45.36
L680.403 -45.36
L679.592 -45.36
L672.909 -45.36
L672.022 -45.36
L662.489 -45.36
L653.346 -45.36
L647.982 -45.36
L640.797 -45.36
L639.284 -45.36
L639.284 -45.36
L637.832 -45.36
L637.457 -45.36
L636.965 -45.36
L635.704 -45.36
L635.437 -45.36
L635.164 -45.36
L628.345 -45.36
L628.042 -45.36
L627.612 -45.36
L627.263 -45.36
L626.858 -45.36
L624.637 -45.36
L623.28 -45.36
L621.392 -45.36
L620.574 -45.36
L620.127 -45.36
L614.365 -45.36
L613.901 -45.36
L613.465 -45.36
L611.932 -45.36
L611.458 -45.36
L610.225 -45.36
L606.364 -45.36
L606.181 -45.36
L606.053 -45.36
L601.641 -45.36
L601.318 -45.36
L600.967 -45.36
L599.175 -45.36
L597.572 -45.36
L597.572 -45.36
L596.918 -45.36
L595.757 -45.36
L595.543 -45.36
L589.077 -45.36
L574.476 -45.36
L574.125 -45.36
L574.125 -45.36
L570.168 -45.36
L566.563 -45.36
L566.563 -45.36
L565.665 -45.36
L557.108 -45.36
L554.146 -45.36
L554.146 -45.36
L551.593 -45.36
L550.902 -45.36
L549.116 -45.36
L548.764 -45.36
L547.83 -45.36
L547.296 -45.36
L541.036 -45.36
L540.312 -45.36
L539.784 -45.36
L539.295 -45.36
L538.316 -45.36
L537.145 -45.36
L536.405 -45.36
L536.043 -45.36
L535.456 -45.36
L534.951 -45.36
L534.589 -45.36
L534.256 -45.36
L528.907 -45.36
L524.09 -45.36
L523.204 -45.36
L522.899 -45.36
L522.454 -45.36
L522.144 -45.36
L520.634 -45.36
L520.321 -45.36
L520.024 -45.36
L519.649 -45.36
L518.205 -45.36
L517.823 -45.36
L516.818 -45.36
L515.483 -45.36
L513.944 -45.36
L512.811 -45.36
L511.566 -45.36
L511.149 -45.36
L510.729 -45.36
L510.216 -45.36
L509.119 -45.36
L507.896 -45.36
L507.889 -45.36
L506.813 -45.36
L505.327 -45.36
L504.959 -45.36
L504.574 -45.36
L503.819 -45.36
L503.303 -45.36
L502.994 -45.36
L502.619 -45.36
L502.139 -45.36
L501.646 -45.36
L501.335 -45.36
L501.025 -45.36
L500.68 -45.36
L497.342 -45.36
L495.968 -45.36
L495.075 -45.36
L491.228 -45.36
L488.249 -45.36
L486.713 -45.36
L485.358 -45.36
L485.106 -45.36
L484.154 -45.36
L482.71 -45.36
L479.845 -45.36
L478.969 -45.36
L478.721 -45.36
L478.47 -45.36
L478.239 -45.36
L476.28 -45.36
L476.28 -45.36
L475.442 -45.36
L475.001 -45.36
L473.947 -45.36
L473.268 -45.36
L472.545 -45.36
L471.998 -45.36
L471.219 -45.36
L469.129 -45.36
L468.635 -45.36
L467.732 -45.36
L465.648 -45.36
L463.675 -45.36
L463.555 -45.36
L463.192 -45.36
L462.92 -45.36
L457.183 -45.36
L456.69 -45.36
L455.036 -45.36
L455.036 -45.36
L451.148 -45.36
L450.306 -45.36
L447.384 -45.36
L444.269 -45.36
L442.751 -45.36
L440.848 -45.36
L440.619 -45.36
L440.619 -45.36
L439.809 -45.36
L439.004 -45.36
L437.765 -45.36
L437.204 -45.36
L435.359 -45.36
L434.45 -45.36
L433.254 -45.36
L431.875 -45.36
L431.099 -45.36
L430.885 -45.36
L429.837 -45.36
L429.677 -45.36
L429.065 -45.36
L420.505 -45.36
L418.64 -45.36
L416.757 -45.36
L416.757 -45.36
L415.31 -45.36
L413.674 -45.36
L411.264 -45.36
L410.895 -45.36
L410.39 -45.36
L410.156 -45.36
L410.074 -45.36
L409.491 -45.36
L407.98 -45.36
L406.017 -45.36
L405.747 -45.36
L405.296 -45.36
L404.818 -45.36
L404.263 -45.36
L403.565 -45.36
L402.81 -45.36
L402.308 -45.36
L401.221 -45.36
L400.635 -45.36
L400.19 -45.36
L399.62 -45.36
L398.039 -45.36
L397.232 -45.36
L397.232 -45.36
L393.457 -45.36
L390.469 -45.36
L388.802 -45.36
L387.937 -45.36
L387.381 -45.36
L386.706 -45.36
L385.707 -45.36
L385.039 -45.36
L383.565 -45.36
L382.334 -45.36
L381.711 -45.36
L380.815 -45.36
L379.904 -45.36
L379.034 -45.36
L377.359 -45.36
L376.736 -45.36
L375.778 -45.36
L375.098 -45.36
L374.615 -45.36
L373.857 -45.36
L373.405 -45.36
L372.999 -45.36
L370.551 -45.36
L370.543 -45.36
L367.798 -45.36
L367.224 -45.36
L363.694 -45.36
L363.171 -45.36
L361.802 -45.36
L361.316 -45.36
L360.158 -45.36
L359.068 -45.36
L357.541 -45.36
L356.154 -45.36
L355.181 -45.36
L351.894 -45.36
L347.727 -45.36
L346.661 -45.36
L346.029 -45.36
L343.438 -45.36
L341.333 -45.36
L340.566 -45.36
L340.366 -45.36
L340.032 -45.36
L339.868 -45.36
L339.571 -45.36
L337.746 -45.36
L336.004 -45.36
L335.544 -45.36
L335.536 -45.36
L334.776 -45.36
L332.097 -45.36
L331.477 -45.36
L331.224 -45.36
L331.005 -45.36
L330.695 -45.36
L330.241 -45.36
L330.087 -45.36
L327.492 -45.36
L325.671 -45.36
L324.578 -45.36
L324.227 -45.36
L323.778 -45.36
L323.514 -45.36
L321.955 -45.36
L321.555 -45.36
L320.384 -45.36
L318.334 -45.36
L316.539 -45.36
L313.82 -45.36
L313.127 -45.36
L312.599 -45.36
L311.179 -45.36
L310.918 -45.36
L310.063 -45.36
L310.063 -45.36
L309.022 -45.36
L308.786 -45.36
L307.644 -45.36
L307.412 -45.36
L306.754 -45.36
L306.214 -45.36
L304.351 -45.36
L302.393 -45.36
L301.79 -45.36
L300.675 -45.36
L300.422 -45.36
L298.406 -45.36
L297.253 -45.36
L297.121 -45.36
L296.344 -45.36
L296.18 -45.36
L294.472 -45.36
L293.985 -45.36
L292.158 -45.36
L291.462 -45.36
L291.273 -45.36
L291.059 -45.36
L290.49 -45.36
L290.171 -45.36
L289.984 -45.36
L289.25 -45.36
L289.045 -45.36
L288.071 -45.36
L286.639 -45.36
L284.971 -45.36
L284.971 -45.36
L283.881 -45.36
L281.996 -45.36
L280.545 -45.36
L278.398 -45.36
L277.103 -45.36
L275.965 -45.36
L275.78 -45.36
L275.63 -45.36
L274.961 -45.36
L274.691 -45.36
L274.413 -45.36
L272.906 -45.36
L271.688 -45.36
L270.838 -45.36
L269.974 -45.36
L265.975 -45.36
L264.949 -45.36
L264.233 -45.36
L263.013 -45.36
L262.066 -45.36
L258.116 -45.36
L257.191 -45.36
L256.461 -45.36
L254.558 -45.36
L253.702 -45.36
L253.466 -45.36
L252.38 -45.36
L252.103 -45.36
L251.716 -45.36
L251.716 -45.36
L250.551 -45.36
L249.927 -45.36
L241.228 -45.36
L238.529 -45.36
L236.821 -45.36
L236.814 -45.36
L235.704 -45.36
L235.379 -45.36
L235.081 -45.36
L234.626 -45.36
L234.362 -45.36
L233.798 -45.36
L233.634 -45.36
L232.998 -45.36
L232.727 -45.36
L232.192 -45.36
L231.156 -45.36
L230.682 -45.36
L230.126 -45.36
L229.772 -45.36
L229.369 -45.36
L228.31 -45.36
L226.659 -45.36
L226.069 -45.36
L225.238 -45.36
L224.217 -45.36
L223.845 -45.36
L222.696 -45.36
L222.553 -45.36
L222.395 -45.36
L221.528 -45.36
L221.281 -45.36
L220.788 -45.36
L218.775 -45.36
L218.624 -45.36
L218.134 -45.36
L217.498 -45.36
L217.178 -45.36
L216.188 -45.36
L215.283 -45.36
L214.898 -45.36
L214.019 -45.36
L214.019 -45.36
L206.264 -45.36
L203.936 -45.36
L203.548 -45.36
L203.453 -45.36
L202.586 -45.36
L202.245 -45.36
L201.736 -45.36
L201.143 -45.36
L200.83 -45.36
L200.432 -45.36
L199.606 -45.36
L198.475 -45.36
L197.137 -45.36
L196.766 -45.36
L195.558 -45.36
L195.548 -45.36
L195.035 -45.36
L194.562 -45.36
L194.183 -45.36
L193.362 -45.36
L193.029 -45.36
L192.7 -45.36
L192.371 -45.36
L191.589 -45.36
L190.903 -45.36
L190.333 -45.36
L189.151 -45.36
L188.167 -45.36
L187.513 -45.36
L186.71 -45.36
L185.485 -45.36
L184.575 -45.36
L184.36 -45.36
L181.655 -45.36
L181.01 -45.36
L180.214 -45.36
L179.441 -45.36
L173.09 -45.36
L169.956 -45.36
L169.956 -45.36
L163.341 -45.36
L161.35 -45.36
L155.854 -45.36
L141.652 -45.36
L141.298 -45.36
L135.079 -45.36
L135.079 -45.36
L131.3 -45.36
L130.836 -45.36
L130.587 -45.36
L130.227 -45.36
L129.653 -45.36
L127.134 -45.36
L126.688 -45.36
L126.488 -45.36
L126.04 -45.36
L125.634 -45.36
L125.34 -45.36
L120.325 -45.36
L117.474 -45.36
L116.434 -45.36
L114.839 -45.36
L113.613 -45.36
L113.508 -45.36
L113.227 -45.36
L100.346 -45.36
L100.346 -45.36
L96.8952 -45.36
L96.4059 -45.36
L94.7087 -45.36
L92.4307 -45.36
L92.144 -45.36
L91.5048 -45.36
L89.6658 -45.36
L89.3735 -45.36
L85.1547 -45.36
L84.877 -45.36
L84.5943 -45.36
L83.38 -45.36
L81.8273 -45.36
L81.1295 -45.36
L80.3645 -45.36
L79.4903 -45.36
L78.0659 -45.36
L77.7434 -45.36
L76.8421 -45.36
L75.7191 -45.36
L75.3443 -45.36
L74.9685 -45.36
L74.4791 -45.36
L74.4791 -45.36
L73.7488 -45.36
L73.4594 -45.36
L68.199 -45.36
L67.8754 -45.36
L67.3961 -45.36
L67.1258 -45.36
L66.14 -45.36
L65.2812 -45.36
L64.5545 -45.36
L64.0203 -45.36
L63.4152 -45.36
L62.974 -45.36
L60.3911 -45.36
L59.8109 -45.36
L59.5694 -45.36
L58.7368 -45.36
L58.062 -45.36
L57.6648 -45.36
L57.1562 -45.36
L54.7639 -45.36
L54.5288 -45.36
z
" id="C0_0_c721dd92dc"/>
    </defs>
    <g clip-path="url(#pf0090d736b)">
     <use style="fill:#0000ff;fill-opacity:0.3;stroke:#0000ff;stroke-opacity:0.3;" x="0.0" xlink:href="#C0_0_c721dd92dc" y="144.0"/>
    </g>
   </g>
   <g id="line2d_1">
    <path clip-path="url(#pf0090d736b)" d="
M54.5288 78.48
L54.7639 78.9382
L57.1562 78.9382
L57.6648 79.3964
L58.7368 79.3964
L59.5694 79.8545
L59.8109 79.8545
L60.3911 80.3127
L63.4152 80.7709
L64.5545 80.7709
L66.14 79.8545
L67.1258 78.48
L68.199 74.8145
L73.7488 68.4
L74.4791 66.5673
L74.4791 66.5673
L75.7191 61.5273
L76.8421 56.4873
L77.7434 54.6545
L78.0659 53.7382
L79.4903 52.3636
L80.3645 52.8218
L81.1295 52.8218
L83.38 54.1964
L84.5943 54.1964
L85.1547 55.1127
L89.3735 60.6109
L89.6658 61.9855
L91.5048 68.4
L92.4307 68.4
L94.7087 67.4836
L96.4059 72.5236
L96.8952 73.44
L100.346 78.48
L100.346 78.48
L113.227 87.1855
L113.613 87.6436
L114.839 89.0182
L116.434 88.56
L117.474 88.1018
L120.325 85.3527
L125.34 86.7273
L126.04 88.56
L126.488 89.0182
L126.688 89.4764
L129.653 89.4764
L130.587 88.1018
L130.836 87.1855
L131.3 87.1855
L135.079 85.3527
L135.079 85.3527
L141.652 85.3527
L155.854 81.6873
L161.35 81.6873
L163.341 81.2291
L169.956 79.3964
L169.956 79.3964
L173.09 80.7709
L179.441 77.5636
L180.214 78.0218
L181.655 78.0218
L185.485 76.1891
L186.71 75.2727
L187.513 74.8145
L188.167 73.8982
L189.151 72.9818
L190.333 71.6073
L190.903 71.6073
L191.589 70.6909
L192.371 69.3164
L192.7 68.4
L193.029 68.4
L193.362 67.9418
L194.562 66.5673
L196.766 62.4436
L197.137 62.4436
L198.475 60.6109
L199.606 60.6109
L201.143 58.7782
L202.245 56.9455
L202.586 56.0291
L203.548 53.28
L203.936 52.8218
L206.264 49.6145
L215.283 39.0764
L216.188 38.16
L217.178 36.7855
L217.498 36.7855
L218.624 35.8691
L218.775 35.4109
L220.788 32.2036
L222.395 27.6218
L222.553 27.6218
L223.845 23.4982
L224.217 23.9564
L225.238 24.8727
L226.659 24.8727
L228.31 23.9564
L229.369 25.7891
L230.126 24.8727
L230.682 23.4982
L231.156 23.04
L232.192 20.7491
L232.727 21.2073
L232.998 21.6655
L233.634 21.6655
L233.798 22.5818
L234.626 25.7891
L235.379 27.1636
L235.704 27.6218
L236.814 28.5382
L236.821 28.9964
L238.529 30.8291
L241.228 31.7455
L249.927 30.3709
L250.551 30.8291
L251.716 30.8291
L251.716 30.8291
L252.103 31.2873
L253.702 31.2873
L254.558 30.8291
L256.461 30.3709
L258.116 30.3709
L262.066 33.5782
L263.013 32.2036
L264.949 32.2036
L265.975 31.7455
L269.974 33.12
L270.838 33.5782
L271.688 33.5782
L272.906 34.9527
L274.691 35.4109
L274.961 34.9527
L275.63 33.5782
L275.78 34.0364
L281.996 34.0364
L284.971 35.4109
L284.971 35.4109
L286.639 35.4109
L288.071 34.4945
L289.045 33.5782
L289.25 33.5782
L289.984 33.12
L290.171 32.6618
L290.49 33.5782
L291.059 34.4945
L291.273 34.4945
L291.462 34.9527
L292.158 34.9527
L293.985 35.8691
L294.472 37.2436
L296.344 41.3673
L297.121 41.8255
L297.253 42.2836
L298.406 42.7418
L300.422 47.7818
L300.675 49.1564
L301.79 52.8218
L302.393 51.9055
L304.351 48.6982
L306.214 48.24
L307.412 48.24
L307.644 47.7818
L309.022 43.2
L310.063 40.9091
L310.063 40.9091
L310.918 41.8255
L311.179 41.8255
L312.599 42.2836
L313.127 42.2836
L313.82 41.8255
L316.539 42.7418
L318.334 40.4509
L320.384 41.8255
L321.555 40.4509
L321.955 40.9091
L323.514 41.8255
L324.578 41.8255
L325.671 43.6582
L327.492 44.1164
L330.087 44.1164
L330.241 44.5745
L331.224 45.4909
L332.097 48.6982
L335.536 60.1527
L335.544 60.6109
L336.004 61.0691
L337.746 63.8182
L339.868 68.4
L341.333 68.4
L343.438 69.3164
L346.029 70.6909
L346.661 71.6073
L347.727 72.0655
L351.894 72.9818
L355.181 72.9818
L356.154 74.8145
L357.541 76.6473
L359.068 78.0218
L360.158 79.3964
L361.316 78.0218
L361.802 78.9382
L363.694 80.7709
L367.224 81.6873
L367.798 81.6873
L370.551 80.3127
L372.999 77.5636
L373.405 78.9382
L374.615 81.2291
L375.098 81.6873
L375.778 82.1455
L376.736 84.4364
L377.359 83.52
L379.034 80.3127
L379.904 81.2291
L380.815 81.6873
L381.711 83.0618
L382.334 83.52
L383.565 83.9782
L385.039 83.9782
L385.707 84.4364
L386.706 84.8945
L387.381 83.52
L387.937 81.6873
L388.802 81.6873
L390.469 80.7709
L393.457 82.1455
L397.232 80.7709
L397.232 80.7709
L398.039 82.6036
L399.62 84.8945
L400.19 84.8945
L400.635 84.4364
L401.221 84.4364
L402.308 83.9782
L402.81 84.4364
L403.565 84.8945
L404.263 84.4364
L404.818 83.52
L405.296 83.52
L405.747 83.0618
L406.017 82.6036
L407.98 82.6036
L409.491 87.1855
L410.156 87.6436
L410.39 88.1018
L411.264 88.1018
L413.674 85.8109
L415.31 89.4764
L416.757 89.4764
L416.757 89.4764
L418.64 88.56
L420.505 86.7273
L429.065 88.56
L429.837 88.56
L431.099 88.1018
L433.254 84.4364
L434.45 80.3127
L435.359 74.8145
L437.204 62.9018
L437.765 61.5273
L439.809 54.6545
L440.619 51.4473
L440.619 51.4473
L440.848 51.9055
L442.751 52.3636
L444.269 49.1564
L447.384 49.6145
L450.306 48.6982
L451.148 48.24
L455.036 45.4909
L455.036 45.4909
L456.69 50.0727
L457.183 51.9055
L463.555 70.2327
L463.675 70.2327
L465.648 74.3564
L467.732 80.7709
L468.635 82.6036
L469.129 83.0618
L471.219 79.8545
L471.998 80.7709
L472.545 81.2291
L473.268 82.6036
L473.947 83.52
L475.001 83.9782
L475.442 83.0618
L476.28 80.7709
L476.28 80.7709
L478.239 79.8545
L478.721 80.7709
L478.969 80.7709
L479.845 81.6873
L482.71 87.1855
L484.154 86.7273
L485.358 87.1855
L486.713 84.4364
L488.249 82.1455
L491.228 80.7709
L495.075 74.3564
L500.68 59.6945
L501.025 58.7782
L501.646 56.0291
L502.139 54.6545
L503.303 50.0727
L503.819 47.3236
L504.574 44.1164
L504.959 41.8255
L505.327 42.2836
L506.813 42.2836
L507.896 43.2
L509.119 41.3673
L510.216 38.6182
L511.149 40.9091
L511.566 41.3673
L512.811 40.4509
L513.944 43.2
L515.483 45.0327
L516.818 48.6982
L517.823 49.6145
L519.649 47.3236
L520.024 47.3236
L520.634 46.4073
L522.144 45.4909
L522.454 45.9491
L522.899 46.8655
L523.204 46.8655
L524.09 49.6145
L528.907 62.4436
L534.256 68.4
L534.589 69.3164
L534.951 69.7745
L535.456 70.2327
L536.043 71.6073
L537.145 72.9818
L539.295 73.8982
L540.312 74.8145
L541.036 74.8145
L547.296 73.44
L549.116 73.44
L550.902 72.9818
L551.593 72.5236
L554.146 70.6909
L554.146 70.6909
L557.108 69.3164
L565.665 70.2327
L566.563 69.3164
L566.563 69.3164
L570.168 70.6909
L574.125 71.6073
L574.125 71.6073
L574.476 72.0655
L589.077 75.2727
L595.757 78.48
L596.918 78.48
L597.572 77.5636
L597.572 77.5636
L599.175 78.48
L600.967 76.1891
L601.318 76.6473
L606.364 76.6473
L610.225 73.8982
L611.458 75.2727
L611.932 75.2727
L613.465 74.8145
L614.365 74.8145
L620.127 71.6073
L620.574 71.1491
L621.392 69.7745
L623.28 73.44
L624.637 71.6073
L626.858 67.9418
L627.263 68.4
L635.164 68.4
L635.437 68.8582
L636.965 68.8582
L637.457 69.3164
L637.832 69.3164
L639.284 69.7745
L639.284 69.7745
L640.797 71.1491
L647.982 71.6073
L653.346 73.8982
L662.489 71.1491
L672.022 77.1055
L672.909 78.9382
L679.592 89.0182
L680.403 88.1018
L684.948 79.3964
L685.484 78.0218
L686.036 76.1891
L689.618 71.6073
L689.618 71.6073
L691.185 72.0655
L692.018 72.5236
L692.366 72.5236
L692.835 72.9818
L693.62 73.44
L694.125 74.3564
L694.966 74.8145
L695.275 75.2727
L696.263 75.2727
L697.349 72.9818
L697.87 72.5236
L698.29 71.6073
L700.094 71.6073
L703.603 78.9382
L707.04 78.0218
L707.04 78.0218" style="fill:none;stroke:#0000ff;stroke-linecap:square;stroke-width:2;"/>
   </g>
   <g id="matplotlib.axis_1">
    <g id="xtick_1">
     <g id="line2d_2">
      <defs>
       <path d="
M0 0
L0 -4" id="m93b0483c22" style="stroke:#000000;stroke-width:0.5;"/>
      </defs>
      <g>
       <use style="stroke:#000000;stroke-width:0.5;" x="54.52875" xlink:href="#m93b0483c22" y="98.64"/>
      </g>
     </g>
     <g id="line2d_3">
      <defs>
       <path d="
M0 0
L0 4" id="m741efc42ff" style="stroke:#000000;stroke-width:0.5;"/>
      </defs>
      <g>
       <use style="stroke:#000000;stroke-width:0.5;" x="54.52875" xlink:href="#m741efc42ff" y="12.96"/>
      </g>
     </g>
     <g id="text_1">
      <!-- 0 -->
      <defs>
       <path d="
M31.7812 66.4062
Q24.1719 66.4062 20.3281 58.9062
Q16.5 51.4219 16.5 36.375
Q16.5 21.3906 20.3281 13.8906
Q24.1719 6.39062 31.7812 6.39062
Q39.4531 6.39062 43.2812 13.8906
Q47.125 21.3906 47.125 36.375
Q47.125 51.4219 43.2812 58.9062
Q39.4531 66.4062 31.7812 66.4062
M31.7812 74.2188
Q44.0469 74.2188 50.5156 64.5156
Q56.9844 54.8281 56.9844 36.375
Q56.9844 17.9688 50.5156 8.26562
Q44.0469 -1.42188 31.7812 -1.42188
Q19.5312 -1.42188 13.0625 8.26562
Q6.59375 17.9688 6.59375 36.375
Q6.59375 54.8281 13.0625 64.5156
Q19.5312 74.2188 31.7812 74.2188" id="BitstreamVeraSans-Roman-30"/>
      </defs>
      <g transform="translate(51.5053125 111.758125)scale(0.12 -0.12)">
       <use xlink:href="#BitstreamVeraSans-Roman-30"/>
      </g>
     </g>
    </g>
    <g id="xtick_2">
     <g id="line2d_4">
      <g>
       <use style="stroke:#000000;stroke-width:0.5;" x="148.065244877" xlink:href="#m93b0483c22" y="98.64"/>
      </g>
     </g>
     <g id="line2d_5">
      <g>
       <use style="stroke:#000000;stroke-width:0.5;" x="148.065244877" xlink:href="#m741efc42ff" y="12.96"/>
      </g>
     </g>
     <g id="text_2">
      <!-- 10 -->
      <defs>
       <path d="
M12.4062 8.29688
L28.5156 8.29688
L28.5156 63.9219
L10.9844 60.4062
L10.9844 69.3906
L28.4219 72.9062
L38.2812 72.9062
L38.2812 8.29688
L54.3906 8.29688
L54.3906 0
L12.4062 0
z
" id="BitstreamVeraSans-Roman-31"/>
      </defs>
      <g transform="translate(141.487744877 111.758125)scale(0.12 -0.12)">
       <use xlink:href="#BitstreamVeraSans-Roman-31"/>
       <use x="63.623046875" xlink:href="#BitstreamVeraSans-Roman-30"/>
      </g>
     </g>
    </g>
    <g id="xtick_3">
     <g id="line2d_6">
      <g>
       <use style="stroke:#000000;stroke-width:0.5;" x="241.601739754" xlink:href="#m93b0483c22" y="98.64"/>
      </g>
     </g>
     <g id="line2d_7">
      <g>
       <use style="stroke:#000000;stroke-width:0.5;" x="241.601739754" xlink:href="#m741efc42ff" y="12.96"/>
      </g>
     </g>
     <g id="text_3">
      <!-- 20 -->
      <defs>
       <path d="
M19.1875 8.29688
L53.6094 8.29688
L53.6094 0
L7.32812 0
L7.32812 8.29688
Q12.9375 14.1094 22.625 23.8906
Q32.3281 33.6875 34.8125 36.5312
Q39.5469 41.8438 41.4219 45.5312
Q43.3125 49.2188 43.3125 52.7812
Q43.3125 58.5938 39.2344 62.25
Q35.1562 65.9219 28.6094 65.9219
Q23.9688 65.9219 18.8125 64.3125
Q13.6719 62.7031 7.8125 59.4219
L7.8125 69.3906
Q13.7656 71.7812 18.9375 73
Q24.125 74.2188 28.4219 74.2188
Q39.75 74.2188 46.4844 68.5469
Q53.2188 62.8906 53.2188 53.4219
Q53.2188 48.9219 51.5312 44.8906
Q49.8594 40.875 45.4062 35.4062
Q44.1875 33.9844 37.6406 27.2188
Q31.1094 20.4531 19.1875 8.29688" id="BitstreamVeraSans-Roman-32"/>
      </defs>
      <g transform="translate(234.804864754 111.758125)scale(0.12 -0.12)">
       <use xlink:href="#BitstreamVeraSans-Roman-32"/>
       <use x="63.623046875" xlink:href="#BitstreamVeraSans-Roman-30"/>
      </g>
     </g>
    </g>
    <g id="xtick_4">
     <g id="line2d_8">
      <g>
       <use style="stroke:#000000;stroke-width:0.5;" x="335.138234632" xlink:href="#m93b0483c22" y="98.64"/>
      </g>
     </g>
     <g id="line2d_9">
      <g>
       <use style="stroke:#000000;stroke-width:0.5;" x="335.138234632" xlink:href="#m741efc42ff" y="12.96"/>
      </g>
     </g>
     <g id="text_4">
      <!-- 30 -->
      <defs>
       <path d="
M40.5781 39.3125
Q47.6562 37.7969 51.625 33
Q55.6094 28.2188 55.6094 21.1875
Q55.6094 10.4062 48.1875 4.48438
Q40.7656 -1.42188 27.0938 -1.42188
Q22.5156 -1.42188 17.6562 -0.515625
Q12.7969 0.390625 7.625 2.20312
L7.625 11.7188
Q11.7188 9.32812 16.5938 8.10938
Q21.4844 6.89062 26.8125 6.89062
Q36.0781 6.89062 40.9375 10.5469
Q45.7969 14.2031 45.7969 21.1875
Q45.7969 27.6406 41.2812 31.2656
Q36.7656 34.9062 28.7188 34.9062
L20.2188 34.9062
L20.2188 43.0156
L29.1094 43.0156
Q36.375 43.0156 40.2344 45.9219
Q44.0938 48.8281 44.0938 54.2969
Q44.0938 59.9062 40.1094 62.9062
Q36.1406 65.9219 28.7188 65.9219
Q24.6562 65.9219 20.0156 65.0312
Q15.375 64.1562 9.8125 62.3125
L9.8125 71.0938
Q15.4375 72.6562 20.3438 73.4375
Q25.25 74.2188 29.5938 74.2188
Q40.8281 74.2188 47.3594 69.1094
Q53.9062 64.0156 53.9062 55.3281
Q53.9062 49.2656 50.4375 45.0938
Q46.9688 40.9219 40.5781 39.3125" id="BitstreamVeraSans-Roman-33"/>
      </defs>
      <g transform="translate(328.359172132 111.758125)scale(0.12 -0.12)">
       <use xlink:href="#BitstreamVeraSans-Roman-33"/>
       <use x="63.623046875" xlink:href="#BitstreamVeraSans-Roman-30"/>
      </g>
     </g>
    </g>
    <g id="xtick_5">
     <g id="line2d_10">
      <g>
       <use style="stroke:#000000;stroke-width:0.5;" x="428.674729509" xlink:href="#m93b0483c22" y="98.64"/>
      </g>
     </g>
     <g id="line2d_11">
      <g>
       <use style="stroke:#000000;stroke-width:0.5;" x="428.674729509" xlink:href="#m741efc42ff" y="12.96"/>
      </g>
     </g>
     <g id="text_5">
      <!-- 40 -->
      <defs>
       <path d="
M37.7969 64.3125
L12.8906 25.3906
L37.7969 25.3906
z

M35.2031 72.9062
L47.6094 72.9062
L47.6094 25.3906
L58.0156 25.3906
L58.0156 17.1875
L47.6094 17.1875
L47.6094 0
L37.7969 0
L37.7969 17.1875
L4.89062 17.1875
L4.89062 26.7031
z
" id="BitstreamVeraSans-Roman-34"/>
      </defs>
      <g transform="translate(421.731604509 111.758125)scale(0.12 -0.12)">
       <use xlink:href="#BitstreamVeraSans-Roman-34"/>
       <use x="63.623046875" xlink:href="#BitstreamVeraSans-Roman-30"/>
      </g>
     </g>
    </g>
    <g id="xtick_6">
     <g id="line2d_12">
      <g>
       <use style="stroke:#000000;stroke-width:0.5;" x="522.211224386" xlink:href="#m93b0483c22" y="98.64"/>
      </g>
     </g>
     <g id="line2d_13">
      <g>
       <use style="stroke:#000000;stroke-width:0.5;" x="522.211224386" xlink:href="#m741efc42ff" y="12.96"/>
      </g>
     </g>
     <g id="text_6">
      <!-- 50 -->
      <defs>
       <path d="
M10.7969 72.9062
L49.5156 72.9062
L49.5156 64.5938
L19.8281 64.5938
L19.8281 46.7344
Q21.9688 47.4688 24.1094 47.8281
Q26.2656 48.1875 28.4219 48.1875
Q40.625 48.1875 47.75 41.5
Q54.8906 34.8125 54.8906 23.3906
Q54.8906 11.625 47.5625 5.09375
Q40.2344 -1.42188 26.9062 -1.42188
Q22.3125 -1.42188 17.5469 -0.640625
Q12.7969 0.140625 7.71875 1.70312
L7.71875 11.625
Q12.1094 9.23438 16.7969 8.0625
Q21.4844 6.89062 26.7031 6.89062
Q35.1562 6.89062 40.0781 11.3281
Q45.0156 15.7656 45.0156 23.3906
Q45.0156 31 40.0781 35.4375
Q35.1562 39.8906 26.7031 39.8906
Q22.75 39.8906 18.8125 39.0156
Q14.8906 38.1406 10.7969 36.2812
z
" id="BitstreamVeraSans-Roman-35"/>
      </defs>
      <g transform="translate(515.437786886 111.758125)scale(0.12 -0.12)">
       <use xlink:href="#BitstreamVeraSans-Roman-35"/>
       <use x="63.623046875" xlink:href="#BitstreamVeraSans-Roman-30"/>
      </g>
     </g>
    </g>
    <g id="xtick_7">
     <g id="line2d_14">
      <g>
       <use style="stroke:#000000;stroke-width:0.5;" x="615.747719263" xlink:href="#m93b0483c22" y="98.64"/>
      </g>
     </g>
     <g id="line2d_15">
      <g>
       <use style="stroke:#000000;stroke-width:0.5;" x="615.747719263" xlink:href="#m741efc42ff" y="12.96"/>
      </g>
     </g>
     <g id="text_7">
      <!-- 60 -->
      <defs>
       <path d="
M33.0156 40.375
Q26.375 40.375 22.4844 35.8281
Q18.6094 31.2969 18.6094 23.3906
Q18.6094 15.5312 22.4844 10.9531
Q26.375 6.39062 33.0156 6.39062
Q39.6562 6.39062 43.5312 10.9531
Q47.4062 15.5312 47.4062 23.3906
Q47.4062 31.2969 43.5312 35.8281
Q39.6562 40.375 33.0156 40.375
M52.5938 71.2969
L52.5938 62.3125
Q48.875 64.0625 45.0938 64.9844
Q41.3125 65.9219 37.5938 65.9219
Q27.8281 65.9219 22.6719 59.3281
Q17.5312 52.7344 16.7969 39.4062
Q19.6719 43.6562 24.0156 45.9219
Q28.375 48.1875 33.5938 48.1875
Q44.5781 48.1875 50.9531 41.5156
Q57.3281 34.8594 57.3281 23.3906
Q57.3281 12.1562 50.6875 5.35938
Q44.0469 -1.42188 33.0156 -1.42188
Q20.3594 -1.42188 13.6719 8.26562
Q6.98438 17.9688 6.98438 36.375
Q6.98438 53.6562 15.1875 63.9375
Q23.3906 74.2188 37.2031 74.2188
Q40.9219 74.2188 44.7031 73.4844
Q48.4844 72.75 52.5938 71.2969" id="BitstreamVeraSans-Roman-36"/>
      </defs>
      <g transform="translate(608.930219263 111.758125)scale(0.12 -0.12)">
       <use xlink:href="#BitstreamVeraSans-Roman-36"/>
       <use x="63.623046875" xlink:href="#BitstreamVeraSans-Roman-30"/>
      </g>
     </g>
    </g>
    <g id="text_8">
     <!-- Distance, km -->
     <defs>
      <path id="BitstreamVeraSans-Roman-20"/>
      <path d="
M54.8906 33.0156
L54.8906 0
L45.9062 0
L45.9062 32.7188
Q45.9062 40.4844 42.875 44.3281
Q39.8438 48.1875 33.7969 48.1875
Q26.5156 48.1875 22.3125 43.5469
Q18.1094 38.9219 18.1094 30.9062
L18.1094 0
L9.07812 0
L9.07812 54.6875
L18.1094 54.6875
L18.1094 46.1875
Q21.3438 51.125 25.7031 53.5625
Q30.0781 56 35.7969 56
Q45.2188 56 50.0469 50.1719
Q54.8906 44.3438 54.8906 33.0156" id="BitstreamVeraSans-Roman-6e"/>
      <path d="
M52 44.1875
Q55.375 50.25 60.0625 53.125
Q64.75 56 71.0938 56
Q79.6406 56 84.2812 50.0156
Q88.9219 44.0469 88.9219 33.0156
L88.9219 0
L79.8906 0
L79.8906 32.7188
Q79.8906 40.5781 77.0938 44.375
Q74.3125 48.1875 68.6094 48.1875
Q61.625 48.1875 57.5625 43.5469
Q53.5156 38.9219 53.5156 30.9062
L53.5156 0
L44.4844 0
L44.4844 32.7188
Q44.4844 40.625 41.7031 44.4062
Q38.9219 48.1875 33.1094 48.1875
Q26.2188 48.1875 22.1562 43.5312
Q18.1094 38.875 18.1094 30.9062
L18.1094 0
L9.07812 0
L9.07812 54.6875
L18.1094 54.6875
L18.1094 46.1875
Q21.1875 51.2188 25.4844 53.6094
Q29.7812 56 35.6875 56
Q41.6562 56 45.8281 52.9688
Q50 49.9531 52 44.1875" id="BitstreamVeraSans-Roman-6d"/>
      <path d="
M9.07812 75.9844
L18.1094 75.9844
L18.1094 31.1094
L44.9219 54.6875
L56.3906 54.6875
L27.3906 29.1094
L57.625 0
L45.9062 0
L18.1094 26.7031
L18.1094 0
L9.07812 0
z
" id="BitstreamVeraSans-Roman-6b"/>
      <path d="
M11.7188 12.4062
L22.0156 12.4062
L22.0156 4
L14.0156 -11.625
L7.71875 -11.625
L11.7188 4
z
" id="BitstreamVeraSans-Roman-2c"/>
      <path d="
M19.6719 64.7969
L19.6719 8.10938
L31.5938 8.10938
Q46.6875 8.10938 53.6875 14.9375
Q60.6875 21.7812 60.6875 36.5312
Q60.6875 51.1719 53.6875 57.9844
Q46.6875 64.7969 31.5938 64.7969
z

M9.8125 72.9062
L30.0781 72.9062
Q51.2656 72.9062 61.1719 64.0938
Q71.0938 55.2812 71.0938 36.5312
Q71.0938 17.6719 61.125 8.82812
Q51.1719 0 30.0781 0
L9.8125 0
z
" id="BitstreamVeraSans-Roman-44"/>
      <path d="
M9.42188 54.6875
L18.4062 54.6875
L18.4062 0
L9.42188 0
z

M9.42188 75.9844
L18.4062 75.9844
L18.4062 64.5938
L9.42188 64.5938
z
" id="BitstreamVeraSans-Roman-69"/>
      <path d="
M56.2031 29.5938
L56.2031 25.2031
L14.8906 25.2031
Q15.4844 15.9219 20.4844 11.0625
Q25.4844 6.20312 34.4219 6.20312
Q39.5938 6.20312 44.4531 7.46875
Q49.3125 8.73438 54.1094 11.2812
L54.1094 2.78125
Q49.2656 0.734375 44.1875 -0.34375
Q39.1094 -1.42188 33.8906 -1.42188
Q20.7969 -1.42188 13.1562 6.1875
Q5.51562 13.8125 5.51562 26.8125
Q5.51562 40.2344 12.7656 48.1094
Q20.0156 56 32.3281 56
Q43.3594 56 49.7812 48.8906
Q56.2031 41.7969 56.2031 29.5938
M47.2188 32.2344
Q47.125 39.5938 43.0938 43.9844
Q39.0625 48.3906 32.4219 48.3906
Q24.9062 48.3906 20.3906 44.1406
Q15.875 39.8906 15.1875 32.1719
z
" id="BitstreamVeraSans-Roman-65"/>
      <path d="
M18.3125 70.2188
L18.3125 54.6875
L36.8125 54.6875
L36.8125 47.7031
L18.3125 47.7031
L18.3125 18.0156
Q18.3125 11.3281 20.1406 9.42188
Q21.9688 7.51562 27.5938 7.51562
L36.8125 7.51562
L36.8125 0
L27.5938 0
Q17.1875 0 13.2344 3.875
Q9.28125 7.76562 9.28125 18.0156
L9.28125 47.7031
L2.6875 47.7031
L2.6875 54.6875
L9.28125 54.6875
L9.28125 70.2188
z
" id="BitstreamVeraSans-Roman-74"/>
      <path d="
M34.2812 27.4844
Q23.3906 27.4844 19.1875 25
Q14.9844 22.5156 14.9844 16.5
Q14.9844 11.7188 18.1406 8.90625
Q21.2969 6.10938 26.7031 6.10938
Q34.1875 6.10938 38.7031 11.4062
Q43.2188 16.7031 43.2188 25.4844
L43.2188 27.4844
z

M52.2031 31.2031
L52.2031 0
L43.2188 0
L43.2188 8.29688
Q40.1406 3.32812 35.5469 0.953125
Q30.9531 -1.42188 24.3125 -1.42188
Q15.9219 -1.42188 10.9531 3.29688
Q6 8.01562 6 15.9219
Q6 25.1406 12.1719 29.8281
Q18.3594 34.5156 30.6094 34.5156
L43.2188 34.5156
L43.2188 35.4062
Q43.2188 41.6094 39.1406 45
Q35.0625 48.3906 27.6875 48.3906
Q23 48.3906 18.5469 47.2656
Q14.1094 46.1406 10.0156 43.8906
L10.0156 52.2031
Q14.9375 54.1094 19.5781 55.0469
Q24.2188 56 28.6094 56
Q40.4844 56 46.3438 49.8438
Q52.2031 43.7031 52.2031 31.2031" id="BitstreamVeraSans-Roman-61"/>
      <path d="
M44.2812 53.0781
L44.2812 44.5781
Q40.4844 46.5312 36.375 47.5
Q32.2812 48.4844 27.875 48.4844
Q21.1875 48.4844 17.8438 46.4375
Q14.5 44.3906 14.5 40.2812
Q14.5 37.1562 16.8906 35.375
Q19.2812 33.5938 26.5156 31.9844
L29.5938 31.2969
Q39.1562 29.25 43.1875 25.5156
Q47.2188 21.7812 47.2188 15.0938
Q47.2188 7.46875 41.1875 3.01562
Q35.1562 -1.42188 24.6094 -1.42188
Q20.2188 -1.42188 15.4531 -0.5625
Q10.6875 0.296875 5.42188 2
L5.42188 11.2812
Q10.4062 8.6875 15.2344 7.39062
Q20.0625 6.10938 24.8125 6.10938
Q31.1562 6.10938 34.5625 8.28125
Q37.9844 10.4531 37.9844 14.4062
Q37.9844 18.0625 35.5156 20.0156
Q33.0625 21.9688 24.7031 23.7812
L21.5781 24.5156
Q13.2344 26.2656 9.51562 29.9062
Q5.8125 33.5469 5.8125 39.8906
Q5.8125 47.6094 11.2812 51.7969
Q16.75 56 26.8125 56
Q31.7812 56 36.1719 55.2656
Q40.5781 54.5469 44.2812 53.0781" id="BitstreamVeraSans-Roman-73"/>
      <path d="
M48.7812 52.5938
L48.7812 44.1875
Q44.9688 46.2969 41.1406 47.3438
Q37.3125 48.3906 33.4062 48.3906
Q24.6562 48.3906 19.8125 42.8438
Q14.9844 37.3125 14.9844 27.2969
Q14.9844 17.2812 19.8125 11.7344
Q24.6562 6.20312 33.4062 6.20312
Q37.3125 6.20312 41.1406 7.25
Q44.9688 8.29688 48.7812 10.4062
L48.7812 2.09375
Q45.0156 0.34375 40.9844 -0.53125
Q36.9688 -1.42188 32.4219 -1.42188
Q20.0625 -1.42188 12.7812 6.34375
Q5.51562 14.1094 5.51562 27.2969
Q5.51562 40.6719 12.8594 48.3281
Q20.2188 56 33.0156 56
Q37.1562 56 41.1094 55.1406
Q45.0625 54.2969 48.7812 52.5938" id="BitstreamVeraSans-Roman-63"/>
     </defs>
     <g transform="translate(341.9259375 128.371875)scale(0.12 -0.12)">
      <use xlink:href="#BitstreamVeraSans-Roman-44"/>
      <use x="77.001953125" xlink:href="#BitstreamVeraSans-Roman-69"/>
      <use x="104.78515625" xlink:href="#BitstreamVeraSans-Roman-73"/>
      <use x="156.884765625" xlink:href="#BitstreamVeraSans-Roman-74"/>
      <use x="196.09375" xlink:href="#BitstreamVeraSans-Roman-61"/>
      <use x="257.373046875" xlink:href="#BitstreamVeraSans-Roman-6e"/>
      <use x="320.751953125" xlink:href="#BitstreamVeraSans-Roman-63"/>
      <use x="375.732421875" xlink:href="#BitstreamVeraSans-Roman-65"/>
      <use x="437.255859375" xlink:href="#BitstreamVeraSans-Roman-2c"/>
      <use x="469.04296875" xlink:href="#BitstreamVeraSans-Roman-20"/>
      <use x="500.830078125" xlink:href="#BitstreamVeraSans-Roman-6b"/>
      <use x="558.740234375" xlink:href="#BitstreamVeraSans-Roman-6d"/>
     </g>
    </g>
   </g>
   <g id="matplotlib.axis_2">
    <g id="ytick_1">
     <g id="line2d_16">
      <defs>
       <path d="
M0 0
L4 0" id="m728421d6d4" style="stroke:#000000;stroke-width:0.5;"/>
      </defs>
      <g>
       <use style="stroke:#000000;stroke-width:0.5;" x="54.52875" xlink:href="#m728421d6d4" y="98.64"/>
      </g>
     </g>
     <g id="line2d_17">
      <defs>
       <path d="
M0 0
L-4 0" id="mcb0005524f" style="stroke:#000000;stroke-width:0.5;"/>
      </defs>
      <g>
       <use style="stroke:#000000;stroke-width:0.5;" x="707.04" xlink:href="#mcb0005524f" y="98.64"/>
      </g>
     </g>
     <g id="text_9">
      <!-- 0 -->
      <g transform="translate(44.481875 101.95125)scale(0.12 -0.12)">
       <use xlink:href="#BitstreamVeraSans-Roman-30"/>
      </g>
     </g>
    </g>
    <g id="ytick_2">
     <g id="line2d_18">
      <g>
       <use style="stroke:#000000;stroke-width:0.5;" x="54.52875" xlink:href="#m728421d6d4" y="75.7309090909"/>
      </g>
     </g>
     <g id="line2d_19">
      <g>
       <use style="stroke:#000000;stroke-width:0.5;" x="707.04" xlink:href="#mcb0005524f" y="75.7309090909"/>
      </g>
     </g>
     <g id="text_10">
      <!-- 50 -->
      <g transform="translate(36.981875 79.0421590909)scale(0.12 -0.12)">
       <use xlink:href="#BitstreamVeraSans-Roman-35"/>
       <use x="63.623046875" xlink:href="#BitstreamVeraSans-Roman-30"/>
      </g>
     </g>
    </g>
    <g id="ytick_3">
     <g id="line2d_20">
      <g>
       <use style="stroke:#000000;stroke-width:0.5;" x="54.52875" xlink:href="#m728421d6d4" y="52.8218181818"/>
      </g>
     </g>
     <g id="line2d_21">
      <g>
       <use style="stroke:#000000;stroke-width:0.5;" x="707.04" xlink:href="#mcb0005524f" y="52.8218181818"/>
      </g>
     </g>
     <g id="text_11">
      <!-- 100 -->
      <g transform="translate(29.73875 56.1330681818)scale(0.12 -0.12)">
       <use xlink:href="#BitstreamVeraSans-Roman-31"/>
       <use x="63.623046875" xlink:href="#BitstreamVeraSans-Roman-30"/>
       <use x="127.24609375" xlink:href="#BitstreamVeraSans-Roman-30"/>
      </g>
     </g>
    </g>
    <g id="ytick_4">
     <g id="line2d_22">
      <g>
       <use style="stroke:#000000;stroke-width:0.5;" x="54.52875" xlink:href="#m728421d6d4" y="29.9127272727"/>
      </g>
     </g>
     <g id="line2d_23">
      <g>
       <use style="stroke:#000000;stroke-width:0.5;" x="707.04" xlink:href="#mcb0005524f" y="29.9127272727"/>
      </g>
     </g>
     <g id="text_12">
      <!-- 150 -->
      <g transform="translate(29.73875 33.2239772727)scale(0.12 -0.12)">
       <use xlink:href="#BitstreamVeraSans-Roman-31"/>
       <use x="63.623046875" xlink:href="#BitstreamVeraSans-Roman-35"/>
       <use x="127.24609375" xlink:href="#BitstreamVeraSans-Roman-30"/>
      </g>
     </g>
    </g>
    <g id="text_13">
     <!-- Elevation, m -->
     <defs>
      <path d="
M2.98438 54.6875
L12.5 54.6875
L29.5938 8.79688
L46.6875 54.6875
L56.2031 54.6875
L35.6875 0
L23.4844 0
z
" id="BitstreamVeraSans-Roman-76"/>
      <path d="
M9.8125 72.9062
L55.9062 72.9062
L55.9062 64.5938
L19.6719 64.5938
L19.6719 43.0156
L54.3906 43.0156
L54.3906 34.7188
L19.6719 34.7188
L19.6719 8.29688
L56.7812 8.29688
L56.7812 0
L9.8125 0
z
" id="BitstreamVeraSans-Roman-45"/>
      <path d="
M30.6094 48.3906
Q23.3906 48.3906 19.1875 42.75
Q14.9844 37.1094 14.9844 27.2969
Q14.9844 17.4844 19.1562 11.8438
Q23.3438 6.20312 30.6094 6.20312
Q37.7969 6.20312 41.9844 11.8594
Q46.1875 17.5312 46.1875 27.2969
Q46.1875 37.0156 41.9844 42.7031
Q37.7969 48.3906 30.6094 48.3906
M30.6094 56
Q42.3281 56 49.0156 48.375
Q55.7188 40.7656 55.7188 27.2969
Q55.7188 13.875 49.0156 6.21875
Q42.3281 -1.42188 30.6094 -1.42188
Q18.8438 -1.42188 12.1719 6.21875
Q5.51562 13.875 5.51562 27.2969
Q5.51562 40.7656 12.1719 48.375
Q18.8438 56 30.6094 56" id="BitstreamVeraSans-Roman-6f"/>
      <path d="
M9.42188 75.9844
L18.4062 75.9844
L18.4062 0
L9.42188 0
z
" id="BitstreamVeraSans-Roman-6c"/>
     </defs>
     <g transform="translate(22.243125 92.82)rotate(-90.0)scale(0.12 -0.12)">
      <use xlink:href="#BitstreamVeraSans-Roman-45"/>
      <use x="63.18359375" xlink:href="#BitstreamVeraSans-Roman-6c"/>
      <use x="90.966796875" xlink:href="#BitstreamVeraSans-Roman-65"/>
      <use x="152.490234375" xlink:href="#BitstreamVeraSans-Roman-76"/>
      <use x="211.669921875" xlink:href="#BitstreamVeraSans-Roman-61"/>
      <use x="272.94921875" xlink:href="#BitstreamVeraSans-Roman-74"/>
      <use x="312.158203125" xlink:href="#BitstreamVeraSans-Roman-69"/>
      <use x="339.94140625" xlink:href="#BitstreamVeraSans-Roman-6f"/>
      <use x="401.123046875" xlink:href="#BitstreamVeraSans-Roman-6e"/>
      <use x="464.501953125" xlink:href="#BitstreamVeraSans-Roman-2c"/>
      <use x="496.2890625" xlink:href="#BitstreamVeraSans-Roman-20"/>
      <use x="528.076171875" xlink:href="#BitstreamVeraSans-Roman-6d"/>
     </g>
    </g>
   </g>
   <g id="patch_3">
    <path d="
M54.5288 12.96
L707.04 12.96" style="fill:none;stroke:#000000;"/>
   </g>
   <g id="patch_4">
    <path d="
M707.04 98.64
L707.04 12.96" style="fill:none;stroke:#000000;"/>
   </g>
   <g id="patch_5">
    <path d="
M54.5288 98.64
L707.04 98.64" style="fill:none;stroke:#000000;"/>
   </g>
   <g id="patch_6">
    <path d="
M54.5288 98.64
L54.5288 12.96" style="fill:none;stroke:#000000;"/>
   </g>
  </g>
 </g>
 <defs>
  <clipPath id="pf0090d736b">
   <rect height="85.68" width="652.51125" x="54.52875" y="12.96"/>
  </clipPath>
 </defs>
</svg>
