<?xml version="1.0" encoding="utf-8" standalone="no"?>
<!DOCTYPE svg PUBLIC "-//W3C//DTD SVG 1.1//EN"
  "http://www.w3.org/Graphics/SVG/1.1/DTD/svg11.dtd">
<!-- Created with matplotlib (http://matplotlib.org/) -->
<svg height="144pt" version="1.1" viewBox="0 0 720 144" width="720pt" xmlns="http://www.w3.org/2000/svg" xmlns:xlink="http://www.w3.org/1999/xlink">
 <defs>
  <style type="text/css">
*{stroke-linecap:square;stroke-linejoin:round;}
  </style>
 </defs>
 <g id="figure_1">
  <g id="patch_1">
   <path d="
M0 144
L720 144
L720 0
L0 0
z
" style="fill:#ffffff;"/>
  </g>
  <g id="axes_1">
   <g id="patch_2">
    <path d="
M54.4303 101.34
L707.04 101.34
L707.04 12.96
L54.4303 12.96
z
" style="fill:#ffffff;"/>
   </g>
   <g id="PolyCollection_1">
    <defs>
     <path d="
M54.4303 -42.66
L54.4303 -71.3768
L54.7022 -71.4291
L54.7966 -71.4407
L56.7569 -72.1729
L58.082 -71.2025
L58.6207 -71.1386
L60.3703 -70.2088
L62.2774 -67.6347
L64.0959 -65.5079
L64.0959 -65.5079
L65.693 -65.0314
L68.4901 -69.7963
L69.6446 -69.128
L69.6446 -69.128
L72.3358 -69.3488
L73.2894 -68.7678
L73.7718 -68.361
L73.9529 -68.1867
L74.2734 -67.7858
L74.5108 -67.4836
L74.8372 -67.0536
L74.9816 -66.8851
L75.7301 -65.8391
L76.0268 -65.6474
L76.2962 -65.5254
L76.6813 -65.5254
L77.6673 -66.0077
L78.0418 -66.0425
L78.423 -66.1413
L78.7256 -66.426
L78.9614 -66.6817
L79.2514 -66.9897
L79.7689 -67.6347
L79.95 -67.931
L80.1597 -68.2971
L80.385 -68.7039
L82.0975 -71.8068
L82.5203 -72.8063
L83.9387 -76.7285
L84.9767 -77.728
L86.0049 -78.4834
L86.2858 -78.4485
L86.5216 -78.3846
L86.6417 -78.3497
L86.921 -78.2393
L87.0587 -78.1696
L88.1056 -77.3851
L89.9106 -74.0962
L90.7493 -72.5971
L91.1392 -72.3937
L91.3255 -72.3065
L91.7106 -72.1554
L91.8953 -72.0973
L92.8896 -71.4814
L93.3902 -72.1031
L93.5172 -72.2194
L93.6973 -72.3704
L93.7946 -72.4518
L94.6822 -73.4687
L95.1067 -73.765
L97.9682 -75.3107
L98.1567 -75.2874
L98.9568 -74.933
L98.9568 -74.933
L99.2256 -74.8284
L99.2256 -74.8284
L103.161 -71.6673
L104.94 -71.6441
L105.067 -71.7836
L105.208 -71.9579
L106.211 -73.8173
L106.211 -73.8173
L107.428 -77.2922
L108.387 -79.1458
L108.87 -79.9012
L110.853 -82.3766
L111.148 -82.731
L111.238 -82.8182
L111.253 -82.8298
L112.255 -83.3412
L112.56 -83.44
L112.806 -83.4864
L112.865 -83.4922
L112.984 -83.4981
L113.107 -83.4981
L117.771 -79.8721
L117.903 -79.8838
L118.265 -79.9535
L118.591 -80.0465
L119.996 -81.1331
L119.996 -81.1331
L120.33 -81.29
L120.524 -81.3713
L120.722 -81.441
L122.87 -80.8193
L125.17 -81.4585
L127.347 -83.3586
L128.132 -84.7067
L131.202 -87.8213
L135.112 -94.7419
L136.833 -97.5834
L137.231 -98.24
L137.455 -98.5596
L137.667 -98.7746
L138.455 -99.222
L138.729 -99.466
L138.918 -99.6287
L139.096 -99.7798
L139.283 -99.9367
L142.336 -101.918
L144.797 -104.614
L144.797 -104.614
L147.882 -107.938
L149.727 -108.74
L150.409 -108.664
L150.761 -108.595
L153.401 -107.247
L153.66 -107.136
L153.872 -107.037
L155.562 -106.462
L157.003 -102.935
L157.232 -102.586
L157.918 -101.581
L158.219 -101.186
L158.402 -100.965
L159.135 -100.117
L159.329 -100.001
L159.426 -99.9309
L159.599 -99.8321
L159.754 -99.7391
L159.985 -99.5183
L160.316 -99.1813
L160.762 -98.7339
L160.975 -98.5479
L161.411 -98.1702
L161.892 -97.8274
L162.334 -97.9262
L162.528 -97.9262
L163.072 -97.9088
L163.072 -97.9088
L163.586 -97.6879
L165.078 -96.7059
L165.38 -96.305
L165.688 -95.875
L166.045 -95.3869
L166.51 -94.7477
L166.87 -94.3409
L167.196 -94.0155
L167.521 -93.818
L169.933 -93.8238
L170.136 -93.7599
L170.566 -93.6146
L170.752 -93.5739
L174.302 -93.7599
L178.415 -89.3088
L178.415 -89.3088
L178.872 -88.658
L179.596 -87.5714
L179.952 -87.0659
L180.316 -86.5836
L181.026 -86.2175
L182.505 -85.3807
L183.301 -85.2355
L184.272 -84.6428
L184.829 -84.3348
L185.319 -84.1431
L186.955 -83.6201
L187.268 -83.5097
L187.458 -83.4283
L187.605 -83.3586
L187.605 -83.3586
L188.284 -82.8531
L188.808 -82.5335
L189.329 -82.1848
L191.154 -79.4886
L191.481 -79.2794
L192.729 -78.7507
L192.869 -78.739
L193.015 -78.739
L193.123 -78.7449
L193.67 -78.832
L194.068 -79.0238
L194.273 -79.169
L194.522 -79.4131
L194.99 -79.9825
L195.206 -80.2615
L195.321 -80.4242
L196.315 -82.0279
L196.663 -82.5916
L196.663 -82.5916
L197.112 -83.4051
L197.846 -85.6945
L198.379 -87.5656
L198.379 -87.5656
L201.414 -97.0371
L210.994 -110.774
L210.994 -110.774
L211.673 -111.436
L212.196 -111.686
L213.487 -111.889
L214.307 -112.035
L214.506 -112.163
L214.846 -112.407
L214.846 -112.407
L215.163 -112.639
L215.351 -112.779
L215.516 -112.895
L220.968 -115.417
L221.105 -115.591
L221.372 -115.951
L224.345 -121.901
L227.177 -123.005
L227.345 -123.005
L231.666 -120.292
L231.753 -120.228
L231.858 -120.147
L232.791 -119.13
L232.879 -119.077
L232.974 -119.025
L233.055 -118.984
L235.137 -118.589
L236.678 -118.688
L237.48 -118.2
L239.03 -116.753
L239.579 -116.648
L239.752 -116.614
L239.92 -116.573
L241.199 -116.55
L241.983 -116.126
L247.525 -116.747
L247.827 -116.712
L250.955 -115.957
L251.197 -115.969
L253.314 -116.416
L253.387 -116.428
L253.531 -116.463
L253.603 -116.468
L253.675 -116.48
L254.467 -116.84
L254.552 -116.811
L254.635 -116.776
L254.709 -116.741
L254.789 -116.701
L254.955 -116.602
L255.924 -115.719
L256.559 -114.545
L256.559 -114.545
L257.241 -113.203
L260.662 -100.094
L260.972 -99.5242
L263.94 -96.9151
L264.054 -96.8163
L264.228 -96.6769
L264.961 -96.2411
L265.451 -95.904
L265.451 -95.904
L266.294 -95.3404
L268.296 -93.1904
L268.545 -92.9522
L268.681 -92.8243
L268.948 -92.5687
L269.766 -92.0457
L270.648 -90.5988
L270.83 -90.3722
L272.152 -88.4663
L274.3 -88.1699
L280.104 -82.9983
L286.597 -83.9048
L286.796 -83.9455
L286.897 -83.9687
L287.061 -84.0094
L287.537 -84.1314
L288.547 -84.3987
L289.813 -86.049
L289.918 -86.2001
L290.038 -86.3744
L290.254 -86.723
L290.368 -86.8857
L292.446 -89.2333
L292.92 -89.3437
L293.036 -89.3263
L293.276 -89.1403
L293.405 -89.0415
L293.518 -88.9544
L293.642 -88.8498
L293.773 -88.7684
L294.788 -88.2687
L295.527 -87.3506
L296.17 -86.4964
L296.339 -86.171
L296.59 -85.648
L296.757 -85.2994
L296.757 -85.2994
L297.385 -83.7828
L299.097 -81.3713
L300.113 -79.0005
L300.55 -77.972
L301.019 -76.8854
L305.752 -69.2907
L306.819 -68.2564
L309.457 -67.1872
L311.213 -64.706
L312.819 -63.6252
L312.942 -63.5381
L313.159 -63.3928
L313.35 -63.2708
L313.744 -63.0325
L314.148 -62.8234
L314.148 -62.8234
L315.812 -62.1435
L317.521 -63.4277
L319.086 -64.9617
L320.073 -65.7055
L320.21 -65.7985
L320.49 -66.0077
L320.637 -66.089
L320.9 -66.1471
L322.167 -65.8101
L322.41 -65.781
L323.909 -65.3104
L324.425 -65.0779
L324.599 -65.0721
L325.813 -66.4377
L326.058 -66.5597
L326.59 -66.8154
L327.414 -67.5417
L327.977 -67.8032
L328.574 -67.7393
L328.884 -67.8032
L329.346 -67.9078
L329.464 -67.931
L330.421 -67.8729
L331.3 -68.5063
L331.658 -68.9595
L331.876 -69.2326
L332.093 -69.4709
L332.505 -69.9183
L332.914 -70.5575
L332.914 -70.5575
L333.983 -72.5622
L335.327 -74.7006
L337.574 -80.8542
L337.711 -81.2261
L338.134 -82.3708
L338.343 -82.9751
L338.453 -83.2947
L339.049 -85.1135
L339.058 -85.1425
L339.508 -86.508
L340.379 -89.21
L340.699 -90.2385
L341.327 -92.2956
L342.729 -97.1185
L343.241 -98.8501
L344.09 -101.639
L344.838 -103.319
L345.211 -103.993
L345.581 -104.597
L346.151 -105.591
L348.581 -109.24
L349.434 -109.681
L351.915 -110.443
L352.877 -110.338
L353.264 -110.28
L354.781 -109.867
L355.79 -109.414
L356.203 -109.153
L356.377 -109.054
L357.26 -108.676
L358.379 -107.775
L359.503 -108.089
L359.899 -107.863
L360.779 -107.183
L361.509 -106.445
L362.495 -104.446
L363.684 -102.772
L363.804 -102.499
L364.671 -100.088
L365.05 -99.129
L365.05 -99.129
L365.781 -97.2115
L365.917 -96.8047
L366.026 -96.4735
L366.606 -94.6431
L367.161 -92.5454
L367.713 -90.6279
L368.64 -86.6824
L369.796 -82.1267
L370.951 -77.2573
L370.951 -77.2573
L371.083 -76.7692
L371.694 -74.7122
L372.32 -72.2426
L373.38 -68.2274
L373.38 -68.2274
L373.923 -65.9321
L374.231 -64.9675
L374.902 -63.1197
L374.902 -63.1197
L375.354 -62.2365
L375.629 -61.7774
L376.165 -61.1266
L376.931 -60.7082
L376.931 -60.7082
L377.166 -60.5688
L378.238 -60.3015
L378.238 -60.3015
L378.984 -60.2724
L379.236 -60.2201
L379.236 -60.2201
L379.488 -60.2143
L380.234 -60.2782
L380.234 -60.2782
L381.306 -60.4642
L381.541 -60.5746
L381.541 -60.5746
L382.307 -60.993
L382.843 -61.6089
L383.118 -62.0447
L383.57 -62.8815
L383.57 -62.8815
L384.241 -64.5782
L384.549 -65.5718
L386.152 -72.3588
L386.778 -74.8458
L387.389 -76.9319
L387.52 -77.4374
L387.52 -77.4374
L388.676 -82.1848
L389.832 -86.7405
L390.758 -90.6976
L391.31 -92.621
L391.866 -94.7361
L392.013 -95.23
L392.025 -95.2707
L392.446 -96.6304
L392.555 -96.9732
L392.691 -97.3858
L393.422 -99.437
L393.422 -99.437
L393.801 -100.471
L394.668 -102.714
L394.788 -102.958
L395.977 -104.574
L396.963 -106.538
L397.694 -107.258
L398.573 -108.025
L398.969 -108.124
L400.093 -107.874
L401.212 -108.775
L402.095 -109.164
L402.27 -109.269
L402.682 -109.542
L403.692 -110.036
L405.208 -110.814
L405.595 -110.832
L406.557 -110.704
L409.038 -109.885
L409.891 -109.455
L412.321 -105.933
L412.891 -105.021
L413.261 -104.475
L413.634 -103.882
L414.382 -102.383
L415.232 -100.471
L415.744 -98.7165
L417.145 -92.9173
L417.773 -90.8429
L418.093 -89.7679
L418.964 -86.8683
L420.006 -83.4632
L420.116 -83.1668
L420.325 -82.6323
L420.748 -81.6444
L420.886 -81.2783
L423.132 -74.7296
L424.476 -72.539
L425.545 -70.3076
L425.545 -70.3076
L425.954 -69.8079
L426.366 -69.3663
L426.584 -69.099
L426.801 -68.8375
L427.159 -68.4366
L428.038 -67.838
L428.995 -67.9775
L429.114 -67.9485
L429.575 -67.8555
L429.885 -67.8322
L430.482 -67.8264
L431.045 -67.5533
L431.869 -66.8212
L432.401 -66.5597
L432.646 -66.4377
L433.861 -65.0605
L434.034 -65.0605
L434.551 -65.2871
L436.049 -65.6648
L436.292 -65.7113
L437.56 -66.2343
L437.823 -66.0658
L437.969 -65.9728
L438.249 -65.7404
L438.386 -65.6532
L439.374 -64.9036
L440.938 -63.2998
L442.647 -61.8936
L444.312 -62.2248
L444.312 -62.2248
L444.715 -62.3469
L445.109 -62.5154
L445.3 -62.6258
L445.517 -62.7711
L445.64 -62.8582
L447.246 -64.4678
L449.002 -67.0536
L451.641 -68.1983
L452.707 -69.2501
L457.44 -76.8738
L457.909 -77.9604
L458.346 -78.9947
L459.362 -81.3713
L461.074 -83.7886
L461.702 -85.311
L461.702 -85.311
L461.869 -85.6597
L462.12 -86.1826
L462.289 -86.508
L462.932 -87.368
L463.671 -88.2978
L464.686 -88.7859
L464.817 -88.9021
L464.941 -89.0009
L465.054 -89.088
L465.183 -89.1752
L465.423 -89.3379
L465.539 -89.3495
L466.013 -89.2275
L468.091 -86.8334
L468.205 -86.6707
L468.421 -86.3163
L468.541 -86.1361
L468.646 -85.9793
L469.912 -84.2709
L470.922 -83.9455
L471.398 -83.7537
L471.562 -83.6956
L471.663 -83.6608
L471.863 -83.5968
L478.356 -82.9635
L484.159 -88.0944
L486.307 -88.3152
L487.629 -89.8899
L487.812 -90.1398
L488.693 -91.7435
L489.511 -92.2665
L489.779 -92.5164
L489.914 -92.6442
L490.163 -92.8708
L492.165 -94.8581
L493.009 -95.3462
L493.009 -95.3462
L493.322 -95.5147
L493.849 -95.7472
L497.178 -92.6326
L498.301 -92.8592
L499.62 -92.6965
L499.62 -92.6965
L500.943 -92.9696
L504.015 -87.0601
L505.848 -86.0025
L506.428 -86.049
L508.937 -85.863
L509.312 -86.2466
L509.526 -86.4151
L509.737 -86.4267
L510.117 -86.3628
L510.349 -86.4325
L511.12 -86.6649
L511.215 -86.7288
L511.227 -86.7347
L511.466 -86.9671
L511.712 -87.2286
L512.969 -89.1229
L513.394 -89.6807
L515.377 -92.4292
L515.681 -92.9812
L515.981 -93.5274
L516.282 -94.0039
L516.41 -94.2015
L518.915 -97.9785
L519.22 -98.1993
L520.691 -98.484
L521.318 -99.036
L521.643 -99.3905
L522.765 -100.919
L523.422 -101.581
L523.685 -101.831
L525.041 -103.441
L525.267 -103.255
L525.926 -102.122
L526.041 -102.011
L526.173 -101.883
L529.156 -98.8327
L529.3 -98.5712
L529.454 -98.2806
L529.61 -97.9727
L529.778 -97.6357
L529.877 -97.4439
L530.08 -97.0371
L530.29 -96.613
L532.55 -91.4123
L532.908 -90.7673
L533.586 -89.6226
L533.886 -89.3611
L534.035 -89.2217
L534.205 -89.0822
L535.946 -88.1292
L537.136 -86.7288
L537.502 -86.4674
L537.667 -86.3511
L540.51 -85.096
L540.811 -84.9159
L541.261 -84.637
L543.379 -84.0385
L543.875 -83.8699
L553.164 -81.3306
L553.164 -81.3306
L555.422 -79.3376
L555.422 -79.3376
L557.619 -77.8616
L558.753 -76.7227
L558.762 -76.7169
L563.161 -74.3752
L565.35 -75.0202
L566.463 -75.6245
L567.28 -75.3862
L567.398 -75.392
L567.7 -75.4153
L567.891 -75.4269
L568.282 -75.4037
L568.952 -75.3456
L569.108 -75.3397
L569.328 -75.3281
L569.502 -75.3281
L569.642 -75.3281
L569.741 -75.3339
L569.886 -75.3397
L570.02 -75.3514
L570.548 -75.4211
L570.785 -75.4443
L570.899 -75.4676
L571.004 -75.4908
L571.227 -75.5431
L572.715 -77.0132
L573.071 -77.2515
L573.249 -77.3677
L575.668 -79.1109
L575.826 -79.1865
L575.97 -79.2562
L576.731 -79.57
L577.851 -79.7094
L578.107 -79.7675
L578.23 -79.7908
L578.376 -79.8257
L578.639 -79.8838
L581.461 -80.3661
L586.237 -83.6143
L586.464 -83.5968
L586.756 -83.5562
L587.053 -83.5097
L587.206 -83.5329
L587.343 -83.5504
L587.494 -83.5736
L587.664 -83.6027
L587.943 -83.5852
L588.095 -83.5794
L589.609 -83.1145
L589.816 -83.1262
L590.012 -83.1436
L590.128 -83.161
L590.427 -83.2075
L590.427 -83.2075
L590.625 -83.2889
L590.832 -83.376
L591.227 -83.5852
L591.471 -83.5852
L592.842 -83.1029
L595.873 -81.8362
L596.137 -81.6793
L596.684 -81.3248
L599.573 -77.298
L599.791 -77.1062
L600.006 -76.9319
L601.167 -76.0951
L601.565 -75.8511
L603.163 -75.0143
L603.559 -74.9737
L603.559 -74.9737
L605.723 -75.4618
L608.818 -76.0022
L609.049 -76.0312
L609.511 -76.0777
L609.802 -76.1765
L609.984 -76.2578
L610.293 -76.4089
L610.439 -76.5135
L610.569 -76.6123
L610.821 -76.8273
L611.481 -77.542
L611.56 -77.5827
L611.654 -77.635
L611.821 -77.7105
L611.922 -77.757
L612.1 -77.8268
L616.092 -78.6344
L619.092 -78.2277
L619.151 -78.2277
L619.309 -78.2219
L619.394 -78.2219
L619.699 -78.2103
L619.764 -78.2103
L619.818 -78.2161
L619.95 -78.2219
L620.045 -78.2335
L623.015 -78.5938
L623.138 -78.6635
L623.214 -78.71
L623.296 -78.7623
L624.581 -79.8082
L625.549 -81.3016
L625.794 -81.5747
L625.931 -81.7258
L627.189 -83.0855
L627.363 -83.2831
L627.546 -83.4922
L627.878 -83.8699
L629.86 -84.9856
L631.856 -85.1251
L631.856 -85.1251
L632.182 -85.2297
L632.447 -85.3168
L632.875 -85.3807
L633.094 -85.4272
L633.312 -85.5028
L633.738 -85.6713
L633.957 -85.741
L634.434 -85.8921
L634.874 -85.8572
L635.298 -85.7933
L635.736 -85.7933
L638.086 -85.8689
L638.344 -85.6364
L638.606 -85.3691
L639.48 -84.1779
L640.908 -82.7078
L641.267 -82.3824
L641.505 -82.1732
L641.505 -82.1732
L642.909 -80.7147
L643.235 -80.5462
L643.598 -80.4125
L643.729 -80.3893
L648.393 -83.7014
L648.517 -83.6956
L648.635 -83.6898
L648.694 -83.684
L648.94 -83.6608
L649.245 -83.6027
L650.322 -83.1436
L650.618 -82.8937
L652.6 -80.4067
L653.084 -79.5293
L653.105 -79.4886
L653.105 -79.4886
L654.042 -77.5304
L655.259 -73.9916
L655.259 -73.9916
L656.263 -71.9753
L656.403 -71.83
L656.53 -71.708
L658.31 -71.7138
L662.245 -75.5141
L662.245 -75.5141
L662.513 -75.5606
L662.513 -75.5606
L663.314 -75.6129
L663.502 -75.578
L666.364 -73.8115
L666.788 -73.3641
L667.676 -72.2484
L667.773 -72.1554
L667.953 -71.9811
L668.08 -71.8765
L668.581 -71.3826
L669.575 -72.045
L669.76 -72.1031
L670.145 -72.2717
L670.331 -72.3646
L670.721 -72.5796
L671.56 -74.1021
L673.365 -77.4374
L674.412 -78.4136
L674.549 -78.4776
L674.829 -78.5705
L674.949 -78.5938
L675.184 -78.617
L675.465 -78.5647
L676.494 -77.9488
L677.532 -76.99
L678.95 -73.2885
L679.373 -72.4344
L681.085 -68.8143
L681.311 -68.3843
L681.52 -68.0066
L681.701 -67.6986
L682.219 -67.0245
L682.509 -66.6933
L682.745 -66.426
L683.047 -66.1239
L683.428 -66.0018
L683.803 -65.9437
L684.789 -65.1767
L685.174 -65.3104
L685.443 -65.4498
L685.74 -65.6648
L686.489 -66.4609
L686.633 -66.6236
L686.959 -67.0478
L687.197 -67.3499
L687.517 -67.7393
L687.699 -67.9485
L688.181 -68.5063
L689.135 -69.1687
L691.826 -69.0467
L691.826 -69.0467
L692.98 -69.744
L695.777 -65.0082
L697.374 -65.4963
L697.374 -65.4963
L699.193 -67.6289
L701.1 -70.203
L702.85 -71.1386
L703.388 -71.2025
L704.713 -72.1729
L706.674 -71.4756
L706.768 -71.464
L707.04 -71.4059
L707.04 -42.66
L707.04 -42.66
L706.768 -42.66
L706.674 -42.66
L704.713 -42.66
L703.388 -42.66
L702.85 -42.66
L701.1 -42.66
L699.193 -42.66
L697.374 -42.66
L697.374 -42.66
L695.777 -42.66
L692.98 -42.66
L691.826 -42.66
L691.826 -42.66
L689.135 -42.66
L688.181 -42.66
L687.699 -42.66
L687.517 -42.66
L687.197 -42.66
L686.959 -42.66
L686.633 -42.66
L686.489 -42.66
L685.74 -42.66
L685.443 -42.66
L685.174 -42.66
L684.789 -42.66
L683.803 -42.66
L683.428 -42.66
L683.047 -42.66
L682.745 -42.66
L682.509 -42.66
L682.219 -42.66
L681.701 -42.66
L681.52 -42.66
L681.311 -42.66
L681.085 -42.66
L679.373 -42.66
L678.95 -42.66
L677.532 -42.66
L676.494 -42.66
L675.465 -42.66
L675.184 -42.66
L674.949 -42.66
L674.829 -42.66
L674.549 -42.66
L674.412 -42.66
L673.365 -42.66
L671.56 -42.66
L670.721 -42.66
L670.331 -42.66
L670.145 -42.66
L669.76 -42.66
L669.575 -42.66
L668.581 -42.66
L668.08 -42.66
L667.953 -42.66
L667.773 -42.66
L667.676 -42.66
L666.788 -42.66
L666.364 -42.66
L663.502 -42.66
L663.314 -42.66
L662.513 -42.66
L662.513 -42.66
L662.245 -42.66
L662.245 -42.66
L658.31 -42.66
L656.53 -42.66
L656.403 -42.66
L656.263 -42.66
L655.259 -42.66
L655.259 -42.66
L654.042 -42.66
L653.105 -42.66
L653.105 -42.66
L653.084 -42.66
L652.6 -42.66
L650.618 -42.66
L650.322 -42.66
L649.245 -42.66
L648.94 -42.66
L648.694 -42.66
L648.635 -42.66
L648.517 -42.66
L648.393 -42.66
L643.729 -42.66
L643.598 -42.66
L643.235 -42.66
L642.909 -42.66
L641.505 -42.66
L641.505 -42.66
L641.267 -42.66
L640.908 -42.66
L639.48 -42.66
L638.606 -42.66
L638.344 -42.66
L638.086 -42.66
L635.736 -42.66
L635.298 -42.66
L634.874 -42.66
L634.434 -42.66
L633.957 -42.66
L633.738 -42.66
L633.312 -42.66
L633.094 -42.66
L632.875 -42.66
L632.447 -42.66
L632.182 -42.66
L631.856 -42.66
L631.856 -42.66
L629.86 -42.66
L627.878 -42.66
L627.546 -42.66
L627.363 -42.66
L627.189 -42.66
L625.931 -42.66
L625.794 -42.66
L625.549 -42.66
L624.581 -42.66
L623.296 -42.66
L623.214 -42.66
L623.138 -42.66
L623.015 -42.66
L620.045 -42.66
L619.95 -42.66
L619.818 -42.66
L619.764 -42.66
L619.699 -42.66
L619.394 -42.66
L619.309 -42.66
L619.151 -42.66
L619.092 -42.66
L616.092 -42.66
L612.1 -42.66
L611.922 -42.66
L611.821 -42.66
L611.654 -42.66
L611.56 -42.66
L611.481 -42.66
L610.821 -42.66
L610.569 -42.66
L610.439 -42.66
L610.293 -42.66
L609.984 -42.66
L609.802 -42.66
L609.511 -42.66
L609.049 -42.66
L608.818 -42.66
L605.723 -42.66
L603.559 -42.66
L603.559 -42.66
L603.163 -42.66
L601.565 -42.66
L601.167 -42.66
L600.006 -42.66
L599.791 -42.66
L599.573 -42.66
L596.684 -42.66
L596.137 -42.66
L595.873 -42.66
L592.842 -42.66
L591.471 -42.66
L591.227 -42.66
L590.832 -42.66
L590.625 -42.66
L590.427 -42.66
L590.427 -42.66
L590.128 -42.66
L590.012 -42.66
L589.816 -42.66
L589.609 -42.66
L588.095 -42.66
L587.943 -42.66
L587.664 -42.66
L587.494 -42.66
L587.343 -42.66
L587.206 -42.66
L587.053 -42.66
L586.756 -42.66
L586.464 -42.66
L586.237 -42.66
L581.461 -42.66
L578.639 -42.66
L578.376 -42.66
L578.23 -42.66
L578.107 -42.66
L577.851 -42.66
L576.731 -42.66
L575.97 -42.66
L575.826 -42.66
L575.668 -42.66
L573.249 -42.66
L573.071 -42.66
L572.715 -42.66
L571.227 -42.66
L571.004 -42.66
L570.899 -42.66
L570.785 -42.66
L570.548 -42.66
L570.02 -42.66
L569.886 -42.66
L569.741 -42.66
L569.642 -42.66
L569.502 -42.66
L569.328 -42.66
L569.108 -42.66
L568.952 -42.66
L568.282 -42.66
L567.891 -42.66
L567.7 -42.66
L567.398 -42.66
L567.28 -42.66
L566.463 -42.66
L565.35 -42.66
L563.161 -42.66
L558.762 -42.66
L558.753 -42.66
L557.619 -42.66
L555.422 -42.66
L555.422 -42.66
L553.164 -42.66
L553.164 -42.66
L543.875 -42.66
L543.379 -42.66
L541.261 -42.66
L540.811 -42.66
L540.51 -42.66
L537.667 -42.66
L537.502 -42.66
L537.136 -42.66
L535.946 -42.66
L534.205 -42.66
L534.035 -42.66
L533.886 -42.66
L533.586 -42.66
L532.908 -42.66
L532.55 -42.66
L530.29 -42.66
L530.08 -42.66
L529.877 -42.66
L529.778 -42.66
L529.61 -42.66
L529.454 -42.66
L529.3 -42.66
L529.156 -42.66
L526.173 -42.66
L526.041 -42.66
L525.926 -42.66
L525.267 -42.66
L525.041 -42.66
L523.685 -42.66
L523.422 -42.66
L522.765 -42.66
L521.643 -42.66
L521.318 -42.66
L520.691 -42.66
L519.22 -42.66
L518.915 -42.66
L516.41 -42.66
L516.282 -42.66
L515.981 -42.66
L515.681 -42.66
L515.377 -42.66
L513.394 -42.66
L512.969 -42.66
L511.712 -42.66
L511.466 -42.66
L511.227 -42.66
L511.215 -42.66
L511.12 -42.66
L510.349 -42.66
L510.117 -42.66
L509.737 -42.66
L509.526 -42.66
L509.312 -42.66
L508.937 -42.66
L506.428 -42.66
L505.848 -42.66
L504.015 -42.66
L500.943 -42.66
L499.62 -42.66
L499.62 -42.66
L498.301 -42.66
L497.178 -42.66
L493.849 -42.66
L493.322 -42.66
L493.009 -42.66
L493.009 -42.66
L492.165 -42.66
L490.163 -42.66
L489.914 -42.66
L489.779 -42.66
L489.511 -42.66
L488.693 -42.66
L487.812 -42.66
L487.629 -42.66
L486.307 -42.66
L484.159 -42.66
L478.356 -42.66
L471.863 -42.66
L471.663 -42.66
L471.562 -42.66
L471.398 -42.66
L470.922 -42.66
L469.912 -42.66
L468.646 -42.66
L468.541 -42.66
L468.421 -42.66
L468.205 -42.66
L468.091 -42.66
L466.013 -42.66
L465.539 -42.66
L465.423 -42.66
L465.183 -42.66
L465.054 -42.66
L464.941 -42.66
L464.817 -42.66
L464.686 -42.66
L463.671 -42.66
L462.932 -42.66
L462.289 -42.66
L462.12 -42.66
L461.869 -42.66
L461.702 -42.66
L461.702 -42.66
L461.074 -42.66
L459.362 -42.66
L458.346 -42.66
L457.909 -42.66
L457.44 -42.66
L452.707 -42.66
L451.641 -42.66
L449.002 -42.66
L447.246 -42.66
L445.64 -42.66
L445.517 -42.66
L445.3 -42.66
L445.109 -42.66
L444.715 -42.66
L444.312 -42.66
L444.312 -42.66
L442.647 -42.66
L440.938 -42.66
L439.374 -42.66
L438.386 -42.66
L438.249 -42.66
L437.969 -42.66
L437.823 -42.66
L437.56 -42.66
L436.292 -42.66
L436.049 -42.66
L434.551 -42.66
L434.034 -42.66
L433.861 -42.66
L432.646 -42.66
L432.401 -42.66
L431.869 -42.66
L431.045 -42.66
L430.482 -42.66
L429.885 -42.66
L429.575 -42.66
L429.114 -42.66
L428.995 -42.66
L428.038 -42.66
L427.159 -42.66
L426.801 -42.66
L426.584 -42.66
L426.366 -42.66
L425.954 -42.66
L425.545 -42.66
L425.545 -42.66
L424.476 -42.66
L423.132 -42.66
L420.886 -42.66
L420.748 -42.66
L420.325 -42.66
L420.116 -42.66
L420.006 -42.66
L418.964 -42.66
L418.093 -42.66
L417.773 -42.66
L417.145 -42.66
L415.744 -42.66
L415.232 -42.66
L414.382 -42.66
L413.634 -42.66
L413.261 -42.66
L412.891 -42.66
L412.321 -42.66
L409.891 -42.66
L409.038 -42.66
L406.557 -42.66
L405.595 -42.66
L405.208 -42.66
L403.692 -42.66
L402.682 -42.66
L402.27 -42.66
L402.095 -42.66
L401.212 -42.66
L400.093 -42.66
L398.969 -42.66
L398.573 -42.66
L397.694 -42.66
L396.963 -42.66
L395.977 -42.66
L394.788 -42.66
L394.668 -42.66
L393.801 -42.66
L393.422 -42.66
L393.422 -42.66
L392.691 -42.66
L392.555 -42.66
L392.446 -42.66
L392.025 -42.66
L392.013 -42.66
L391.866 -42.66
L391.31 -42.66
L390.758 -42.66
L389.832 -42.66
L388.676 -42.66
L387.52 -42.66
L387.52 -42.66
L387.389 -42.66
L386.778 -42.66
L386.152 -42.66
L384.549 -42.66
L384.241 -42.66
L383.57 -42.66
L383.57 -42.66
L383.118 -42.66
L382.843 -42.66
L382.307 -42.66
L381.541 -42.66
L381.541 -42.66
L381.306 -42.66
L380.234 -42.66
L380.234 -42.66
L379.488 -42.66
L379.236 -42.66
L379.236 -42.66
L378.984 -42.66
L378.238 -42.66
L378.238 -42.66
L377.166 -42.66
L376.931 -42.66
L376.931 -42.66
L376.165 -42.66
L375.629 -42.66
L375.354 -42.66
L374.902 -42.66
L374.902 -42.66
L374.231 -42.66
L373.923 -42.66
L373.38 -42.66
L373.38 -42.66
L372.32 -42.66
L371.694 -42.66
L371.083 -42.66
L370.951 -42.66
L370.951 -42.66
L369.796 -42.66
L368.64 -42.66
L367.713 -42.66
L367.161 -42.66
L366.606 -42.66
L366.026 -42.66
L365.917 -42.66
L365.781 -42.66
L365.05 -42.66
L365.05 -42.66
L364.671 -42.66
L363.804 -42.66
L363.684 -42.66
L362.495 -42.66
L361.509 -42.66
L360.779 -42.66
L359.899 -42.66
L359.503 -42.66
L358.379 -42.66
L357.26 -42.66
L356.377 -42.66
L356.203 -42.66
L355.79 -42.66
L354.781 -42.66
L353.264 -42.66
L352.877 -42.66
L351.915 -42.66
L349.434 -42.66
L348.581 -42.66
L346.151 -42.66
L345.581 -42.66
L345.211 -42.66
L344.838 -42.66
L344.09 -42.66
L343.241 -42.66
L342.729 -42.66
L341.327 -42.66
L340.699 -42.66
L340.379 -42.66
L339.508 -42.66
L339.058 -42.66
L339.049 -42.66
L338.453 -42.66
L338.343 -42.66
L338.134 -42.66
L337.711 -42.66
L337.574 -42.66
L335.327 -42.66
L333.983 -42.66
L332.914 -42.66
L332.914 -42.66
L332.505 -42.66
L332.093 -42.66
L331.876 -42.66
L331.658 -42.66
L331.3 -42.66
L330.421 -42.66
L329.464 -42.66
L329.346 -42.66
L328.884 -42.66
L328.574 -42.66
L327.977 -42.66
L327.414 -42.66
L326.59 -42.66
L326.058 -42.66
L325.813 -42.66
L324.599 -42.66
L324.425 -42.66
L323.909 -42.66
L322.41 -42.66
L322.167 -42.66
L320.9 -42.66
L320.637 -42.66
L320.49 -42.66
L320.21 -42.66
L320.073 -42.66
L319.086 -42.66
L317.521 -42.66
L315.812 -42.66
L314.148 -42.66
L314.148 -42.66
L313.744 -42.66
L313.35 -42.66
L313.159 -42.66
L312.942 -42.66
L312.819 -42.66
L311.213 -42.66
L309.457 -42.66
L306.819 -42.66
L305.752 -42.66
L301.019 -42.66
L300.55 -42.66
L300.113 -42.66
L299.097 -42.66
L297.385 -42.66
L296.757 -42.66
L296.757 -42.66
L296.59 -42.66
L296.339 -42.66
L296.17 -42.66
L295.527 -42.66
L294.788 -42.66
L293.773 -42.66
L293.642 -42.66
L293.518 -42.66
L293.405 -42.66
L293.276 -42.66
L293.036 -42.66
L292.92 -42.66
L292.446 -42.66
L290.368 -42.66
L290.254 -42.66
L290.038 -42.66
L289.918 -42.66
L289.813 -42.66
L288.547 -42.66
L287.537 -42.66
L287.061 -42.66
L286.897 -42.66
L286.796 -42.66
L286.597 -42.66
L280.104 -42.66
L274.3 -42.66
L272.152 -42.66
L270.83 -42.66
L270.648 -42.66
L269.766 -42.66
L268.948 -42.66
L268.681 -42.66
L268.545 -42.66
L268.296 -42.66
L266.294 -42.66
L265.451 -42.66
L265.451 -42.66
L264.961 -42.66
L264.228 -42.66
L264.054 -42.66
L263.94 -42.66
L260.972 -42.66
L260.662 -42.66
L257.241 -42.66
L256.559 -42.66
L256.559 -42.66
L255.924 -42.66
L254.955 -42.66
L254.789 -42.66
L254.709 -42.66
L254.635 -42.66
L254.552 -42.66
L254.467 -42.66
L253.675 -42.66
L253.603 -42.66
L253.531 -42.66
L253.387 -42.66
L253.314 -42.66
L251.197 -42.66
L250.955 -42.66
L247.827 -42.66
L247.525 -42.66
L241.983 -42.66
L241.199 -42.66
L239.92 -42.66
L239.752 -42.66
L239.579 -42.66
L239.03 -42.66
L237.48 -42.66
L236.678 -42.66
L235.137 -42.66
L233.055 -42.66
L232.974 -42.66
L232.879 -42.66
L232.791 -42.66
L231.858 -42.66
L231.753 -42.66
L231.666 -42.66
L227.345 -42.66
L227.177 -42.66
L224.345 -42.66
L221.372 -42.66
L221.105 -42.66
L220.968 -42.66
L215.516 -42.66
L215.351 -42.66
L215.163 -42.66
L214.846 -42.66
L214.846 -42.66
L214.506 -42.66
L214.307 -42.66
L213.487 -42.66
L212.196 -42.66
L211.673 -42.66
L210.994 -42.66
L210.994 -42.66
L201.414 -42.66
L198.379 -42.66
L198.379 -42.66
L197.846 -42.66
L197.112 -42.66
L196.663 -42.66
L196.663 -42.66
L196.315 -42.66
L195.321 -42.66
L195.206 -42.66
L194.99 -42.66
L194.522 -42.66
L194.273 -42.66
L194.068 -42.66
L193.67 -42.66
L193.123 -42.66
L193.015 -42.66
L192.869 -42.66
L192.729 -42.66
L191.481 -42.66
L191.154 -42.66
L189.329 -42.66
L188.808 -42.66
L188.284 -42.66
L187.605 -42.66
L187.605 -42.66
L187.458 -42.66
L187.268 -42.66
L186.955 -42.66
L185.319 -42.66
L184.829 -42.66
L184.272 -42.66
L183.301 -42.66
L182.505 -42.66
L181.026 -42.66
L180.316 -42.66
L179.952 -42.66
L179.596 -42.66
L178.872 -42.66
L178.415 -42.66
L178.415 -42.66
L174.302 -42.66
L170.752 -42.66
L170.566 -42.66
L170.136 -42.66
L169.933 -42.66
L167.521 -42.66
L167.196 -42.66
L166.87 -42.66
L166.51 -42.66
L166.045 -42.66
L165.688 -42.66
L165.38 -42.66
L165.078 -42.66
L163.586 -42.66
L163.072 -42.66
L163.072 -42.66
L162.528 -42.66
L162.334 -42.66
L161.892 -42.66
L161.411 -42.66
L160.975 -42.66
L160.762 -42.66
L160.316 -42.66
L159.985 -42.66
L159.754 -42.66
L159.599 -42.66
L159.426 -42.66
L159.329 -42.66
L159.135 -42.66
L158.402 -42.66
L158.219 -42.66
L157.918 -42.66
L157.232 -42.66
L157.003 -42.66
L155.562 -42.66
L153.872 -42.66
L153.66 -42.66
L153.401 -42.66
L150.761 -42.66
L150.409 -42.66
L149.727 -42.66
L147.882 -42.66
L144.797 -42.66
L144.797 -42.66
L142.336 -42.66
L139.283 -42.66
L139.096 -42.66
L138.918 -42.66
L138.729 -42.66
L138.455 -42.66
L137.667 -42.66
L137.455 -42.66
L137.231 -42.66
L136.833 -42.66
L135.112 -42.66
L131.202 -42.66
L128.132 -42.66
L127.347 -42.66
L125.17 -42.66
L122.87 -42.66
L120.722 -42.66
L120.524 -42.66
L120.33 -42.66
L119.996 -42.66
L119.996 -42.66
L118.591 -42.66
L118.265 -42.66
L117.903 -42.66
L117.771 -42.66
L113.107 -42.66
L112.984 -42.66
L112.865 -42.66
L112.806 -42.66
L112.56 -42.66
L112.255 -42.66
L111.253 -42.66
L111.238 -42.66
L111.148 -42.66
L110.853 -42.66
L108.87 -42.66
L108.387 -42.66
L107.428 -42.66
L106.211 -42.66
L106.211 -42.66
L105.208 -42.66
L105.067 -42.66
L104.94 -42.66
L103.161 -42.66
L99.2256 -42.66
L99.2256 -42.66
L98.9568 -42.66
L98.9568 -42.66
L98.1567 -42.66
L97.9682 -42.66
L95.1067 -42.66
L94.6822 -42.66
L93.7946 -42.66
L93.6973 -42.66
L93.5172 -42.66
L93.3902 -42.66
L92.8896 -42.66
L91.8953 -42.66
L91.7106 -42.66
L91.3255 -42.66
L91.1392 -42.66
L90.7493 -42.66
L89.9106 -42.66
L88.1056 -42.66
L87.0587 -42.66
L86.921 -42.66
L86.6417 -42.66
L86.5216 -42.66
L86.2858 -42.66
L86.0049 -42.66
L84.9767 -42.66
L83.9387 -42.66
L82.5203 -42.66
L82.0975 -42.66
L80.385 -42.66
L80.1597 -42.66
L79.95 -42.66
L79.7689 -42.66
L79.2514 -42.66
L78.9614 -42.66
L78.7256 -42.66
L78.423 -42.66
L78.0418 -42.66
L77.6673 -42.66
L76.6813 -42.66
L76.2962 -42.66
L76.0268 -42.66
L75.7301 -42.66
L74.9816 -42.66
L74.8372 -42.66
L74.5108 -42.66
L74.2734 -42.66
L73.9529 -42.66
L73.7718 -42.66
L73.2894 -42.66
L72.3358 -42.66
L69.6446 -42.66
L69.6446 -42.66
L68.4901 -42.66
L65.693 -42.66
L64.0959 -42.66
L64.0959 -42.66
L62.2774 -42.66
L60.3703 -42.66
L58.6207 -42.66
L58.082 -42.66
L56.7569 -42.66
L54.7966 -42.66
L54.7022 -42.66
L54.4303 -42.66
z
" id="C0_0_2eefeb20dd"/>
    </defs>
    <g clip-path="url(#pa8176fee34)">
     <use style="fill:#0000ff;opacity:0.3;stroke:#0000ff;stroke-linecap:butt;" x="0" xlink:href="#C0_0_2eefeb20dd" y="144.0"/>
    </g>
   </g>
   <g id="line2d_1">
    <path clip-path="url(#pa8176fee34)" d="
M54.4303 72.6232
L54.7022 72.5709
L54.7966 72.5593
L56.7569 71.8271
L58.082 72.7975
L58.6207 72.8614
L60.3703 73.7912
L62.2774 76.3653
L64.0959 78.4921
L64.0959 78.4921
L65.693 78.9686
L68.4901 74.2037
L69.6446 74.872
L69.6446 74.872
L72.3358 74.6512
L73.7718 75.639
L74.2734 76.2142
L76.0268 78.3526
L76.2962 78.4746
L76.6813 78.4746
L77.6673 77.9923
L78.423 77.8587
L79.2514 77.0103
L80.1597 75.7029
L82.0975 72.1932
L82.5203 71.1937
L83.9387 67.2715
L84.9767 66.272
L86.0049 65.5166
L86.6417 65.6503
L87.0587 65.8304
L88.1056 66.6149
L90.7493 71.4029
L92.8896 72.5186
L93.7946 71.5482
L94.6822 70.5313
L95.1067 70.235
L98.1567 68.7126
L99.2256 69.1716
L99.2256 69.1716
L103.161 72.3327
L104.94 72.3559
L105.208 72.0421
L106.211 70.1827
L106.211 70.1827
L107.428 66.7078
L108.87 64.0988
L111.253 61.1702
L112.56 60.56
L113.107 60.5019
L117.903 64.1162
L118.591 63.9535
L120.33 62.71
L120.722 62.559
L122.87 63.1807
L125.17 62.5415
L127.347 60.6414
L128.132 59.2933
L131.202 56.1787
L136.833 46.4166
L137.667 45.2254
L138.729 44.534
L139.283 44.0633
L142.336 42.0818
L147.882 36.0619
L149.727 35.26
L150.761 35.4052
L153.872 36.9625
L155.562 37.5378
L157.232 41.4136
L158.402 43.0348
L159.426 44.0691
L159.985 44.4817
L161.411 45.8298
L161.892 46.1726
L162.528 46.0738
L163.072 46.0912
L163.072 46.0912
L163.586 46.3121
L165.078 47.2941
L167.196 49.9845
L167.521 50.182
L170.136 50.2401
L170.752 50.4261
L174.302 50.2401
L178.872 55.342
L180.316 57.4164
L182.505 58.6193
L183.301 58.7645
L184.829 59.6652
L186.955 60.3799
L187.605 60.6414
L187.605 60.6414
L189.329 61.8152
L191.154 64.5114
L191.481 64.7206
L193.015 65.261
L193.67 65.168
L194.273 64.831
L194.99 64.0175
L195.321 63.5758
L197.112 60.5949
L201.414 46.9629
L210.994 33.2262
L210.994 33.2262
L211.673 32.5638
L212.196 32.3139
L214.307 31.9653
L215.516 31.1053
L221.105 28.4091
L221.372 28.0488
L224.345 22.0986
L227.345 20.9945
L231.858 23.8534
L233.055 25.0156
L235.137 25.4107
L236.678 25.3119
L237.48 25.8
L239.03 27.2469
L239.92 27.4271
L241.199 27.4503
L241.983 27.8745
L247.827 27.2876
L251.197 28.0314
L253.675 27.52
L254.552 27.1888
L254.955 27.398
L255.924 28.2812
L257.241 30.7973
L260.662 43.9064
L260.972 44.4758
L264.228 47.3231
L266.294 48.6596
L268.948 51.4313
L269.766 51.9543
L270.83 53.6278
L272.152 55.5337
L274.3 55.8301
L280.104 61.0017
L287.537 59.8686
L288.547 59.6013
L290.368 57.1143
L292.446 54.7667
L293.036 54.6737
L293.773 55.2316
L294.788 55.7313
L296.339 57.829
L297.385 60.2172
L299.097 62.6287
L301.019 67.1146
L305.752 74.7093
L306.819 75.7436
L309.457 76.8128
L311.213 79.294
L314.148 81.1766
L314.148 81.1766
L315.812 81.8565
L317.521 80.5723
L319.086 79.0383
L320.637 77.911
L320.9 77.8529
L323.909 78.6896
L324.599 78.9279
L326.058 77.4403
L326.59 77.1846
L327.414 76.4583
L327.977 76.1968
L328.884 76.1968
L329.464 76.069
L330.421 76.1271
L331.3 75.4937
L332.914 73.4425
L332.914 73.4425
L333.983 71.4378
L335.327 69.2994
L339.058 58.8575
L341.327 51.7044
L344.09 42.3607
L345.211 40.0074
L346.151 38.4094
L348.581 34.7602
L349.434 34.3186
L351.915 33.5574
L353.264 33.7201
L354.781 34.1327
L357.26 35.3239
L358.379 36.2246
L359.503 35.9108
L359.899 36.1374
L360.779 36.8173
L361.509 37.5552
L362.495 39.5541
L363.804 41.5007
L366.606 49.3569
L368.64 57.3176
L374.231 79.0325
L374.902 80.8803
L374.902 80.8803
L375.629 82.2226
L376.165 82.8734
L377.166 83.4312
L378.238 83.6985
L378.238 83.6985
L380.234 83.7218
L380.234 83.7218
L381.541 83.4254
L381.541 83.4254
L382.307 83.007
L383.118 81.9553
L383.57 81.1185
L383.57 81.1185
L384.549 78.4282
L386.778 69.1542
L387.52 66.5626
L387.52 66.5626
L391.31 51.379
L392.555 47.0268
L393.801 43.5287
L394.788 41.0417
L395.977 39.4263
L396.963 37.4623
L398.573 35.9747
L398.969 35.8759
L400.093 36.1258
L401.212 35.2251
L402.682 34.4581
L405.208 33.1855
L405.595 33.1681
L406.557 33.2959
L409.038 34.1153
L409.891 34.5453
L413.634 40.1178
L415.232 43.5287
L415.744 45.2835
L417.145 51.0827
L420.325 61.3677
L420.886 62.7217
L423.132 69.2704
L424.476 71.461
L425.545 73.6924
L425.545 73.6924
L427.159 75.5634
L428.038 76.162
L429.114 76.0515
L429.885 76.1678
L430.482 76.1736
L431.045 76.4467
L431.869 77.1788
L432.646 77.5623
L433.861 78.9395
L434.034 78.9395
L434.551 78.7129
L436.292 78.2887
L437.56 77.7657
L438.386 78.3468
L439.374 79.0964
L440.938 80.7002
L442.647 82.1064
L444.715 81.6531
L445.64 81.1418
L447.246 79.5322
L449.002 76.9464
L451.641 75.8017
L452.707 74.7499
L457.44 67.1262
L459.362 62.6287
L461.074 60.2114
L462.289 57.492
L463.671 55.7022
L464.941 54.9991
L465.539 54.6505
L466.013 54.7725
L468.421 57.6837
L469.912 59.7291
L471.863 60.4032
L478.356 61.0365
L484.159 55.9056
L486.307 55.6848
L487.812 53.8602
L488.693 52.2565
L489.914 51.3558
L490.163 51.1292
L492.165 49.1419
L493.849 48.2528
L497.178 51.3674
L498.301 51.1408
L499.62 51.3035
L499.62 51.3035
L500.943 51.0304
L504.015 56.9399
L505.848 57.9975
L506.428 57.951
L508.937 58.137
L509.526 57.5849
L510.349 57.5675
L511.227 57.2653
L511.712 56.7714
L513.394 54.3193
L515.681 51.0188
L516.41 49.7985
L518.915 46.0215
L519.22 45.8007
L520.691 45.516
L521.643 44.6095
L522.765 43.0813
L523.685 42.169
L525.041 40.5594
L525.267 40.7453
L526.173 42.1167
L529.3 45.4288
L530.29 47.387
L532.908 53.2327
L533.586 54.3774
L534.205 54.9178
L535.946 55.8708
L537.502 57.5326
L537.667 57.6489
L540.811 59.0841
L541.261 59.363
L553.164 62.6694
L553.164 62.6694
L555.422 64.6624
L555.422 64.6624
L557.619 66.1384
L558.762 67.2831
L563.161 69.6248
L565.35 68.9798
L566.463 68.3755
L567.398 68.608
L568.282 68.5963
L570.02 68.6486
L571.227 68.4569
L573.071 66.7485
L573.249 66.6323
L575.97 64.7438
L576.731 64.43
L578.639 64.1162
L581.461 63.6339
L586.237 60.3857
L588.095 60.4206
L589.816 60.8738
L590.625 60.7111
L591.471 60.4148
L592.842 60.8971
L596.137 62.3207
L596.684 62.6752
L599.791 66.8938
L601.167 67.9049
L601.565 68.1489
L603.163 68.9857
L603.559 69.0263
L603.559 69.0263
L605.723 68.5382
L609.984 67.7422
L610.569 67.3877
L610.821 67.1727
L611.654 66.365
L612.1 66.1732
L616.092 65.3656
L619.95 65.7781
L623.214 65.29
L623.296 65.2377
L624.581 64.1918
L625.931 62.2742
L627.878 60.1301
L629.86 59.0144
L632.182 58.7703
L634.434 58.1079
L635.736 58.2067
L638.086 58.1311
L638.606 58.6309
L639.48 59.8221
L642.909 63.2853
L643.729 63.6107
L648.517 60.3044
L649.245 60.3973
L650.322 60.8564
L650.618 61.1063
L652.6 63.5933
L653.105 64.5114
L653.105 64.5114
L654.042 66.4696
L655.259 70.0084
L655.259 70.0084
L656.403 72.17
L656.53 72.292
L658.31 72.2862
L662.245 68.4859
L662.245 68.4859
L663.314 68.3871
L663.502 68.422
L666.364 70.1885
L666.788 70.6359
L668.08 72.1235
L668.581 72.6174
L669.76 71.8969
L670.721 71.4204
L673.365 66.5626
L674.549 65.5224
L675.184 65.383
L675.465 65.4353
L676.494 66.0512
L677.532 67.01
L679.373 71.5656
L681.701 76.3014
L683.047 77.8761
L683.803 78.0563
L684.789 78.8233
L685.443 78.5502
L685.74 78.3352
L687.197 76.6501
L688.181 75.4937
L689.135 74.8313
L691.826 74.9533
L691.826 74.9533
L692.98 74.256
L695.777 78.9918
L697.374 78.5037
L697.374 78.5037
L699.193 76.3711
L701.1 73.797
L702.85 72.8614
L703.388 72.7975
L704.713 71.8271
L707.04 72.5941
L707.04 72.5941" style="fill:none;stroke:#0000ff;stroke-width:2;"/>
   </g>
   <g id="matplotlib.axis_1">
    <g id="xtick_1">
     <g id="line2d_2">
      <defs>
       <path d="
M0 0
L0 -4" id="mcb557df647" style="stroke:#000000;stroke-linecap:butt;stroke-width:0.5;"/>
      </defs>
      <g>
       <use style="stroke:#000000;stroke-linecap:butt;stroke-width:0.5;" x="54.4303125" xlink:href="#mcb557df647" y="101.34"/>
      </g>
     </g>
     <g id="line2d_3">
      <defs>
       <path d="
M0 0
L0 4" id="mdad270ee8e" style="stroke:#000000;stroke-linecap:butt;stroke-width:0.5;"/>
      </defs>
      <g>
       <use style="stroke:#000000;stroke-linecap:butt;stroke-width:0.5;" x="54.4303125" xlink:href="#mdad270ee8e" y="12.96"/>
      </g>
     </g>
     <g id="text_1">
      <!-- 0 -->
      <defs>
       <path d="
M31.7812 66.4062
Q24.1719 66.4062 20.3281 58.9062
Q16.5 51.4219 16.5 36.375
Q16.5 21.3906 20.3281 13.8906
Q24.1719 6.39062 31.7812 6.39062
Q39.4531 6.39062 43.2812 13.8906
Q47.125 21.3906 47.125 36.375
Q47.125 51.4219 43.2812 58.9062
Q39.4531 66.4062 31.7812 66.4062
M31.7812 74.2188
Q44.0469 74.2188 50.5156 64.5156
Q56.9844 54.8281 56.9844 36.375
Q56.9844 17.9688 50.5156 8.26562
Q44.0469 -1.42188 31.7812 -1.42188
Q19.5312 -1.42188 13.0625 8.26562
Q6.59375 17.9688 6.59375 36.375
Q6.59375 54.8281 13.0625 64.5156
Q19.5312 74.2188 31.7812 74.2188" id="BitstreamVeraSans-Roman-30"/>
      </defs>
      <g transform="translate(51.406875 114.24625)scale(0.12 -0.12)">
       <use xlink:href="#BitstreamVeraSans-Roman-30"/>
      </g>
     </g>
    </g>
    <g id="xtick_2">
     <g id="line2d_4">
      <g>
       <use style="stroke:#000000;stroke-linecap:butt;stroke-width:0.5;" x="161.318146208" xlink:href="#mcb557df647" y="101.34"/>
      </g>
     </g>
     <g id="line2d_5">
      <g>
       <use style="stroke:#000000;stroke-linecap:butt;stroke-width:0.5;" x="161.318146208" xlink:href="#mdad270ee8e" y="12.96"/>
      </g>
     </g>
     <g id="text_2">
      <!-- 10 -->
      <defs>
       <path d="
M12.4062 8.29688
L28.5156 8.29688
L28.5156 63.9219
L10.9844 60.4062
L10.9844 69.3906
L28.4219 72.9062
L38.2812 72.9062
L38.2812 8.29688
L54.3906 8.29688
L54.3906 0
L12.4062 0
z
" id="BitstreamVeraSans-Roman-31"/>
      </defs>
      <g transform="translate(154.740646208 114.24625)scale(0.12 -0.12)">
       <use xlink:href="#BitstreamVeraSans-Roman-31"/>
       <use x="63.623046875" xlink:href="#BitstreamVeraSans-Roman-30"/>
      </g>
     </g>
    </g>
    <g id="xtick_3">
     <g id="line2d_6">
      <g>
       <use style="stroke:#000000;stroke-linecap:butt;stroke-width:0.5;" x="268.205979915" xlink:href="#mcb557df647" y="101.34"/>
      </g>
     </g>
     <g id="line2d_7">
      <g>
       <use style="stroke:#000000;stroke-linecap:butt;stroke-width:0.5;" x="268.205979915" xlink:href="#mdad270ee8e" y="12.96"/>
      </g>
     </g>
     <g id="text_3">
      <!-- 20 -->
      <defs>
       <path d="
M19.1875 8.29688
L53.6094 8.29688
L53.6094 0
L7.32812 0
L7.32812 8.29688
Q12.9375 14.1094 22.625 23.8906
Q32.3281 33.6875 34.8125 36.5312
Q39.5469 41.8438 41.4219 45.5312
Q43.3125 49.2188 43.3125 52.7812
Q43.3125 58.5938 39.2344 62.25
Q35.1562 65.9219 28.6094 65.9219
Q23.9688 65.9219 18.8125 64.3125
Q13.6719 62.7031 7.8125 59.4219
L7.8125 69.3906
Q13.7656 71.7812 18.9375 73
Q24.125 74.2188 28.4219 74.2188
Q39.75 74.2188 46.4844 68.5469
Q53.2188 62.8906 53.2188 53.4219
Q53.2188 48.9219 51.5312 44.8906
Q49.8594 40.875 45.4062 35.4062
Q44.1875 33.9844 37.6406 27.2188
Q31.1094 20.4531 19.1875 8.29688" id="BitstreamVeraSans-Roman-32"/>
      </defs>
      <g transform="translate(261.409104915 114.24625)scale(0.12 -0.12)">
       <use xlink:href="#BitstreamVeraSans-Roman-32"/>
       <use x="63.623046875" xlink:href="#BitstreamVeraSans-Roman-30"/>
      </g>
     </g>
    </g>
    <g id="xtick_4">
     <g id="line2d_8">
      <g>
       <use style="stroke:#000000;stroke-linecap:butt;stroke-width:0.5;" x="375.093813623" xlink:href="#mcb557df647" y="101.34"/>
      </g>
     </g>
     <g id="line2d_9">
      <g>
       <use style="stroke:#000000;stroke-linecap:butt;stroke-width:0.5;" x="375.093813623" xlink:href="#mdad270ee8e" y="12.96"/>
      </g>
     </g>
     <g id="text_4">
      <!-- 30 -->
      <defs>
       <path d="
M40.5781 39.3125
Q47.6562 37.7969 51.625 33
Q55.6094 28.2188 55.6094 21.1875
Q55.6094 10.4062 48.1875 4.48438
Q40.7656 -1.42188 27.0938 -1.42188
Q22.5156 -1.42188 17.6562 -0.515625
Q12.7969 0.390625 7.625 2.20312
L7.625 11.7188
Q11.7188 9.32812 16.5938 8.10938
Q21.4844 6.89062 26.8125 6.89062
Q36.0781 6.89062 40.9375 10.5469
Q45.7969 14.2031 45.7969 21.1875
Q45.7969 27.6406 41.2812 31.2656
Q36.7656 34.9062 28.7188 34.9062
L20.2188 34.9062
L20.2188 43.0156
L29.1094 43.0156
Q36.375 43.0156 40.2344 45.9219
Q44.0938 48.8281 44.0938 54.2969
Q44.0938 59.9062 40.1094 62.9062
Q36.1406 65.9219 28.7188 65.9219
Q24.6562 65.9219 20.0156 65.0312
Q15.375 64.1562 9.8125 62.3125
L9.8125 71.0938
Q15.4375 72.6562 20.3438 73.4375
Q25.25 74.2188 29.5938 74.2188
Q40.8281 74.2188 47.3594 69.1094
Q53.9062 64.0156 53.9062 55.3281
Q53.9062 49.2656 50.4375 45.0938
Q46.9688 40.9219 40.5781 39.3125" id="BitstreamVeraSans-Roman-33"/>
      </defs>
      <g transform="translate(368.314751123 114.24625)scale(0.12 -0.12)">
       <use xlink:href="#BitstreamVeraSans-Roman-33"/>
       <use x="63.623046875" xlink:href="#BitstreamVeraSans-Roman-30"/>
      </g>
     </g>
    </g>
    <g id="xtick_5">
     <g id="line2d_10">
      <g>
       <use style="stroke:#000000;stroke-linecap:butt;stroke-width:0.5;" x="481.98164733" xlink:href="#mcb557df647" y="101.34"/>
      </g>
     </g>
     <g id="line2d_11">
      <g>
       <use style="stroke:#000000;stroke-linecap:butt;stroke-width:0.5;" x="481.98164733" xlink:href="#mdad270ee8e" y="12.96"/>
      </g>
     </g>
     <g id="text_5">
      <!-- 40 -->
      <defs>
       <path d="
M37.7969 64.3125
L12.8906 25.3906
L37.7969 25.3906
z

M35.2031 72.9062
L47.6094 72.9062
L47.6094 25.3906
L58.0156 25.3906
L58.0156 17.1875
L47.6094 17.1875
L47.6094 0
L37.7969 0
L37.7969 17.1875
L4.89062 17.1875
L4.89062 26.7031
z
" id="BitstreamVeraSans-Roman-34"/>
      </defs>
      <g transform="translate(475.03852233 114.24625)scale(0.12 -0.12)">
       <use xlink:href="#BitstreamVeraSans-Roman-34"/>
       <use x="63.623046875" xlink:href="#BitstreamVeraSans-Roman-30"/>
      </g>
     </g>
    </g>
    <g id="xtick_6">
     <g id="line2d_12">
      <g>
       <use style="stroke:#000000;stroke-linecap:butt;stroke-width:0.5;" x="588.869481038" xlink:href="#mcb557df647" y="101.34"/>
      </g>
     </g>
     <g id="line2d_13">
      <g>
       <use style="stroke:#000000;stroke-linecap:butt;stroke-width:0.5;" x="588.869481038" xlink:href="#mdad270ee8e" y="12.96"/>
      </g>
     </g>
     <g id="text_6">
      <!-- 50 -->
      <defs>
       <path d="
M10.7969 72.9062
L49.5156 72.9062
L49.5156 64.5938
L19.8281 64.5938
L19.8281 46.7344
Q21.9688 47.4688 24.1094 47.8281
Q26.2656 48.1875 28.4219 48.1875
Q40.625 48.1875 47.75 41.5
Q54.8906 34.8125 54.8906 23.3906
Q54.8906 11.625 47.5625 5.09375
Q40.2344 -1.42188 26.9062 -1.42188
Q22.3125 -1.42188 17.5469 -0.640625
Q12.7969 0.140625 7.71875 1.70312
L7.71875 11.625
Q12.1094 9.23438 16.7969 8.0625
Q21.4844 6.89062 26.7031 6.89062
Q35.1562 6.89062 40.0781 11.3281
Q45.0156 15.7656 45.0156 23.3906
Q45.0156 31 40.0781 35.4375
Q35.1562 39.8906 26.7031 39.8906
Q22.75 39.8906 18.8125 39.0156
Q14.8906 38.1406 10.7969 36.2812
z
" id="BitstreamVeraSans-Roman-35"/>
      </defs>
      <g transform="translate(582.096043538 114.24625)scale(0.12 -0.12)">
       <use xlink:href="#BitstreamVeraSans-Roman-35"/>
       <use x="63.623046875" xlink:href="#BitstreamVeraSans-Roman-30"/>
      </g>
     </g>
    </g>
    <g id="xtick_7">
     <g id="line2d_14">
      <g>
       <use style="stroke:#000000;stroke-linecap:butt;stroke-width:0.5;" x="695.757314745" xlink:href="#mcb557df647" y="101.34"/>
      </g>
     </g>
     <g id="line2d_15">
      <g>
       <use style="stroke:#000000;stroke-linecap:butt;stroke-width:0.5;" x="695.757314745" xlink:href="#mdad270ee8e" y="12.96"/>
      </g>
     </g>
     <g id="text_7">
      <!-- 60 -->
      <defs>
       <path d="
M33.0156 40.375
Q26.375 40.375 22.4844 35.8281
Q18.6094 31.2969 18.6094 23.3906
Q18.6094 15.5312 22.4844 10.9531
Q26.375 6.39062 33.0156 6.39062
Q39.6562 6.39062 43.5312 10.9531
Q47.4062 15.5312 47.4062 23.3906
Q47.4062 31.2969 43.5312 35.8281
Q39.6562 40.375 33.0156 40.375
M52.5938 71.2969
L52.5938 62.3125
Q48.875 64.0625 45.0938 64.9844
Q41.3125 65.9219 37.5938 65.9219
Q27.8281 65.9219 22.6719 59.3281
Q17.5312 52.7344 16.7969 39.4062
Q19.6719 43.6562 24.0156 45.9219
Q28.375 48.1875 33.5938 48.1875
Q44.5781 48.1875 50.9531 41.5156
Q57.3281 34.8594 57.3281 23.3906
Q57.3281 12.1562 50.6875 5.35938
Q44.0469 -1.42188 33.0156 -1.42188
Q20.3594 -1.42188 13.6719 8.26562
Q6.98438 17.9688 6.98438 36.375
Q6.98438 53.6562 15.1875 63.9375
Q23.3906 74.2188 37.2031 74.2188
Q40.9219 74.2188 44.7031 73.4844
Q48.4844 72.75 52.5938 71.2969" id="BitstreamVeraSans-Roman-36"/>
      </defs>
      <g transform="translate(688.939814745 114.24625)scale(0.12 -0.12)">
       <use xlink:href="#BitstreamVeraSans-Roman-36"/>
       <use x="63.623046875" xlink:href="#BitstreamVeraSans-Roman-30"/>
      </g>
     </g>
    </g>
    <g id="text_8">
     <!-- Distance, km -->
     <defs>
      <path id="BitstreamVeraSans-Roman-20"/>
      <path d="
M54.8906 33.0156
L54.8906 0
L45.9062 0
L45.9062 32.7188
Q45.9062 40.4844 42.875 44.3281
Q39.8438 48.1875 33.7969 48.1875
Q26.5156 48.1875 22.3125 43.5469
Q18.1094 38.9219 18.1094 30.9062
L18.1094 0
L9.07812 0
L9.07812 54.6875
L18.1094 54.6875
L18.1094 46.1875
Q21.3438 51.125 25.7031 53.5625
Q30.0781 56 35.7969 56
Q45.2188 56 50.0469 50.1719
Q54.8906 44.3438 54.8906 33.0156" id="BitstreamVeraSans-Roman-6e"/>
      <path d="
M52 44.1875
Q55.375 50.25 60.0625 53.125
Q64.75 56 71.0938 56
Q79.6406 56 84.2812 50.0156
Q88.9219 44.0469 88.9219 33.0156
L88.9219 0
L79.8906 0
L79.8906 32.7188
Q79.8906 40.5781 77.0938 44.375
Q74.3125 48.1875 68.6094 48.1875
Q61.625 48.1875 57.5625 43.5469
Q53.5156 38.9219 53.5156 30.9062
L53.5156 0
L44.4844 0
L44.4844 32.7188
Q44.4844 40.625 41.7031 44.4062
Q38.9219 48.1875 33.1094 48.1875
Q26.2188 48.1875 22.1562 43.5312
Q18.1094 38.875 18.1094 30.9062
L18.1094 0
L9.07812 0
L9.07812 54.6875
L18.1094 54.6875
L18.1094 46.1875
Q21.1875 51.2188 25.4844 53.6094
Q29.7812 56 35.6875 56
Q41.6562 56 45.8281 52.9688
Q50 49.9531 52 44.1875" id="BitstreamVeraSans-Roman-6d"/>
      <path d="
M9.07812 75.9844
L18.1094 75.9844
L18.1094 31.1094
L44.9219 54.6875
L56.3906 54.6875
L27.3906 29.1094
L57.625 0
L45.9062 0
L18.1094 26.7031
L18.1094 0
L9.07812 0
z
" id="BitstreamVeraSans-Roman-6b"/>
      <path d="
M11.7188 12.4062
L22.0156 12.4062
L22.0156 4
L14.0156 -11.625
L7.71875 -11.625
L11.7188 4
z
" id="BitstreamVeraSans-Roman-2c"/>
      <path d="
M19.6719 64.7969
L19.6719 8.10938
L31.5938 8.10938
Q46.6875 8.10938 53.6875 14.9375
Q60.6875 21.7812 60.6875 36.5312
Q60.6875 51.1719 53.6875 57.9844
Q46.6875 64.7969 31.5938 64.7969
z

M9.8125 72.9062
L30.0781 72.9062
Q51.2656 72.9062 61.1719 64.0938
Q71.0938 55.2812 71.0938 36.5312
Q71.0938 17.6719 61.125 8.82812
Q51.1719 0 30.0781 0
L9.8125 0
z
" id="BitstreamVeraSans-Roman-44"/>
      <path d="
M9.42188 54.6875
L18.4062 54.6875
L18.4062 0
L9.42188 0
z

M9.42188 75.9844
L18.4062 75.9844
L18.4062 64.5938
L9.42188 64.5938
z
" id="BitstreamVeraSans-Roman-69"/>
      <path d="
M56.2031 29.5938
L56.2031 25.2031
L14.8906 25.2031
Q15.4844 15.9219 20.4844 11.0625
Q25.4844 6.20312 34.4219 6.20312
Q39.5938 6.20312 44.4531 7.46875
Q49.3125 8.73438 54.1094 11.2812
L54.1094 2.78125
Q49.2656 0.734375 44.1875 -0.34375
Q39.1094 -1.42188 33.8906 -1.42188
Q20.7969 -1.42188 13.1562 6.1875
Q5.51562 13.8125 5.51562 26.8125
Q5.51562 40.2344 12.7656 48.1094
Q20.0156 56 32.3281 56
Q43.3594 56 49.7812 48.8906
Q56.2031 41.7969 56.2031 29.5938
M47.2188 32.2344
Q47.125 39.5938 43.0938 43.9844
Q39.0625 48.3906 32.4219 48.3906
Q24.9062 48.3906 20.3906 44.1406
Q15.875 39.8906 15.1875 32.1719
z
" id="BitstreamVeraSans-Roman-65"/>
      <path d="
M18.3125 70.2188
L18.3125 54.6875
L36.8125 54.6875
L36.8125 47.7031
L18.3125 47.7031
L18.3125 18.0156
Q18.3125 11.3281 20.1406 9.42188
Q21.9688 7.51562 27.5938 7.51562
L36.8125 7.51562
L36.8125 0
L27.5938 0
Q17.1875 0 13.2344 3.875
Q9.28125 7.76562 9.28125 18.0156
L9.28125 47.7031
L2.6875 47.7031
L2.6875 54.6875
L9.28125 54.6875
L9.28125 70.2188
z
" id="BitstreamVeraSans-Roman-74"/>
      <path d="
M34.2812 27.4844
Q23.3906 27.4844 19.1875 25
Q14.9844 22.5156 14.9844 16.5
Q14.9844 11.7188 18.1406 8.90625
Q21.2969 6.10938 26.7031 6.10938
Q34.1875 6.10938 38.7031 11.4062
Q43.2188 16.7031 43.2188 25.4844
L43.2188 27.4844
z

M52.2031 31.2031
L52.2031 0
L43.2188 0
L43.2188 8.29688
Q40.1406 3.32812 35.5469 0.953125
Q30.9531 -1.42188 24.3125 -1.42188
Q15.9219 -1.42188 10.9531 3.29688
Q6 8.01562 6 15.9219
Q6 25.1406 12.1719 29.8281
Q18.3594 34.5156 30.6094 34.5156
L43.2188 34.5156
L43.2188 35.4062
Q43.2188 41.6094 39.1406 45
Q35.0625 48.3906 27.6875 48.3906
Q23 48.3906 18.5469 47.2656
Q14.1094 46.1406 10.0156 43.8906
L10.0156 52.2031
Q14.9375 54.1094 19.5781 55.0469
Q24.2188 56 28.6094 56
Q40.4844 56 46.3438 49.8438
Q52.2031 43.7031 52.2031 31.2031" id="BitstreamVeraSans-Roman-61"/>
      <path d="
M44.2812 53.0781
L44.2812 44.5781
Q40.4844 46.5312 36.375 47.5
Q32.2812 48.4844 27.875 48.4844
Q21.1875 48.4844 17.8438 46.4375
Q14.5 44.3906 14.5 40.2812
Q14.5 37.1562 16.8906 35.375
Q19.2812 33.5938 26.5156 31.9844
L29.5938 31.2969
Q39.1562 29.25 43.1875 25.5156
Q47.2188 21.7812 47.2188 15.0938
Q47.2188 7.46875 41.1875 3.01562
Q35.1562 -1.42188 24.6094 -1.42188
Q20.2188 -1.42188 15.4531 -0.5625
Q10.6875 0.296875 5.42188 2
L5.42188 11.2812
Q10.4062 8.6875 15.2344 7.39062
Q20.0625 6.10938 24.8125 6.10938
Q31.1562 6.10938 34.5625 8.28125
Q37.9844 10.4531 37.9844 14.4062
Q37.9844 18.0625 35.5156 20.0156
Q33.0625 21.9688 24.7031 23.7812
L21.5781 24.5156
Q13.2344 26.2656 9.51562 29.9062
Q5.8125 33.5469 5.8125 39.8906
Q5.8125 47.6094 11.2812 51.7969
Q16.75 56 26.8125 56
Q31.7812 56 36.1719 55.2656
Q40.5781 54.5469 44.2812 53.0781" id="BitstreamVeraSans-Roman-73"/>
      <path d="
M48.7812 52.5938
L48.7812 44.1875
Q44.9688 46.2969 41.1406 47.3438
Q37.3125 48.3906 33.4062 48.3906
Q24.6562 48.3906 19.8125 42.8438
Q14.9844 37.3125 14.9844 27.2969
Q14.9844 17.2812 19.8125 11.7344
Q24.6562 6.20312 33.4062 6.20312
Q37.3125 6.20312 41.1406 7.25
Q44.9688 8.29688 48.7812 10.4062
L48.7812 2.09375
Q45.0156 0.34375 40.9844 -0.53125
Q36.9688 -1.42188 32.4219 -1.42188
Q20.0625 -1.42188 12.7812 6.34375
Q5.51562 14.1094 5.51562 27.2969
Q5.51562 40.6719 12.8594 48.3281
Q20.2188 56 33.0156 56
Q37.1562 56 41.1094 55.1406
Q45.0625 54.2969 48.7812 52.5938" id="BitstreamVeraSans-Roman-63"/>
     </defs>
     <g transform="translate(341.87671875 128.535)scale(0.12 -0.12)">
      <use xlink:href="#BitstreamVeraSans-Roman-44"/>
      <use x="77.001953125" xlink:href="#BitstreamVeraSans-Roman-69"/>
      <use x="104.78515625" xlink:href="#BitstreamVeraSans-Roman-73"/>
      <use x="156.884765625" xlink:href="#BitstreamVeraSans-Roman-74"/>
      <use x="196.09375" xlink:href="#BitstreamVeraSans-Roman-61"/>
      <use x="257.373046875" xlink:href="#BitstreamVeraSans-Roman-6e"/>
      <use x="320.751953125" xlink:href="#BitstreamVeraSans-Roman-63"/>
      <use x="375.732421875" xlink:href="#BitstreamVeraSans-Roman-65"/>
      <use x="437.255859375" xlink:href="#BitstreamVeraSans-Roman-2c"/>
      <use x="469.04296875" xlink:href="#BitstreamVeraSans-Roman-20"/>
      <use x="500.830078125" xlink:href="#BitstreamVeraSans-Roman-6b"/>
      <use x="558.740234375" xlink:href="#BitstreamVeraSans-Roman-6d"/>
     </g>
    </g>
   </g>
   <g id="matplotlib.axis_2">
    <g id="ytick_1">
     <g id="line2d_16">
      <defs>
       <path d="
M0 0
L4 0" id="mc8fcea1516" style="stroke:#000000;stroke-linecap:butt;stroke-width:0.5;"/>
      </defs>
      <g>
       <use style="stroke:#000000;stroke-linecap:butt;stroke-width:0.5;" x="54.4303125" xlink:href="#mc8fcea1516" y="101.34"/>
      </g>
     </g>
     <g id="line2d_17">
      <defs>
       <path d="
M0 0
L-4 0" id="m0d5b0a6425" style="stroke:#000000;stroke-linecap:butt;stroke-width:0.5;"/>
      </defs>
      <g>
       <use style="stroke:#000000;stroke-linecap:butt;stroke-width:0.5;" x="707.04" xlink:href="#m0d5b0a6425" y="101.34"/>
      </g>
     </g>
     <g id="text_9">
      <!-- 0 -->
      <g transform="translate(44.3834375 105.7078125)scale(0.12 -0.12)">
       <use xlink:href="#BitstreamVeraSans-Roman-30"/>
      </g>
     </g>
    </g>
    <g id="ytick_2">
     <g id="line2d_18">
      <g>
       <use style="stroke:#000000;stroke-linecap:butt;stroke-width:0.5;" x="54.4303125" xlink:href="#mc8fcea1516" y="89.7184690033"/>
      </g>
     </g>
     <g id="line2d_19">
      <g>
       <use style="stroke:#000000;stroke-linecap:butt;stroke-width:0.5;" x="707.04" xlink:href="#m0d5b0a6425" y="89.7184690033"/>
      </g>
     </g>
     <g id="text_10">
      <!-- 20 -->
      <g transform="translate(36.8365625 94.0862815033)scale(0.12 -0.12)">
       <use xlink:href="#BitstreamVeraSans-Roman-32"/>
       <use x="63.623046875" xlink:href="#BitstreamVeraSans-Roman-30"/>
      </g>
     </g>
    </g>
    <g id="ytick_3">
     <g id="line2d_20">
      <g>
       <use style="stroke:#000000;stroke-linecap:butt;stroke-width:0.5;" x="54.4303125" xlink:href="#mc8fcea1516" y="78.0969380067"/>
      </g>
     </g>
     <g id="line2d_21">
      <g>
       <use style="stroke:#000000;stroke-linecap:butt;stroke-width:0.5;" x="707.04" xlink:href="#m0d5b0a6425" y="78.0969380067"/>
      </g>
     </g>
     <g id="text_11">
      <!-- 40 -->
      <g transform="translate(36.5440625 82.4647505067)scale(0.12 -0.12)">
       <use xlink:href="#BitstreamVeraSans-Roman-34"/>
       <use x="63.623046875" xlink:href="#BitstreamVeraSans-Roman-30"/>
      </g>
     </g>
    </g>
    <g id="ytick_4">
     <g id="line2d_22">
      <g>
       <use style="stroke:#000000;stroke-linecap:butt;stroke-width:0.5;" x="54.4303125" xlink:href="#mc8fcea1516" y="66.47540701"/>
      </g>
     </g>
     <g id="line2d_23">
      <g>
       <use style="stroke:#000000;stroke-linecap:butt;stroke-width:0.5;" x="707.04" xlink:href="#m0d5b0a6425" y="66.47540701"/>
      </g>
     </g>
     <g id="text_12">
      <!-- 60 -->
      <g transform="translate(36.7953125 70.84321951)scale(0.12 -0.12)">
       <use xlink:href="#BitstreamVeraSans-Roman-36"/>
       <use x="63.623046875" xlink:href="#BitstreamVeraSans-Roman-30"/>
      </g>
     </g>
    </g>
    <g id="ytick_5">
     <g id="line2d_24">
      <g>
       <use style="stroke:#000000;stroke-linecap:butt;stroke-width:0.5;" x="54.4303125" xlink:href="#mc8fcea1516" y="54.8538760133"/>
      </g>
     </g>
     <g id="line2d_25">
      <g>
       <use style="stroke:#000000;stroke-linecap:butt;stroke-width:0.5;" x="707.04" xlink:href="#m0d5b0a6425" y="54.8538760133"/>
      </g>
     </g>
     <g id="text_13">
      <!-- 80 -->
      <defs>
       <path d="
M31.7812 34.625
Q24.75 34.625 20.7188 30.8594
Q16.7031 27.0938 16.7031 20.5156
Q16.7031 13.9219 20.7188 10.1562
Q24.75 6.39062 31.7812 6.39062
Q38.8125 6.39062 42.8594 10.1719
Q46.9219 13.9688 46.9219 20.5156
Q46.9219 27.0938 42.8906 30.8594
Q38.875 34.625 31.7812 34.625
M21.9219 38.8125
Q15.5781 40.375 12.0312 44.7188
Q8.5 49.0781 8.5 55.3281
Q8.5 64.0625 14.7188 69.1406
Q20.9531 74.2188 31.7812 74.2188
Q42.6719 74.2188 48.875 69.1406
Q55.0781 64.0625 55.0781 55.3281
Q55.0781 49.0781 51.5312 44.7188
Q48 40.375 41.7031 38.8125
Q48.8281 37.1562 52.7969 32.3125
Q56.7812 27.4844 56.7812 20.5156
Q56.7812 9.90625 50.3125 4.23438
Q43.8438 -1.42188 31.7812 -1.42188
Q19.7344 -1.42188 13.25 4.23438
Q6.78125 9.90625 6.78125 20.5156
Q6.78125 27.4844 10.7812 32.3125
Q14.7969 37.1562 21.9219 38.8125
M18.3125 54.3906
Q18.3125 48.7344 21.8438 45.5625
Q25.3906 42.3906 31.7812 42.3906
Q38.1406 42.3906 41.7188 45.5625
Q45.3125 48.7344 45.3125 54.3906
Q45.3125 60.0625 41.7188 63.2344
Q38.1406 66.4062 31.7812 66.4062
Q25.3906 66.4062 21.8438 63.2344
Q18.3125 60.0625 18.3125 54.3906" id="BitstreamVeraSans-Roman-38"/>
      </defs>
      <g transform="translate(36.7709375 59.2216885133)scale(0.12 -0.12)">
       <use xlink:href="#BitstreamVeraSans-Roman-38"/>
       <use x="63.623046875" xlink:href="#BitstreamVeraSans-Roman-30"/>
      </g>
     </g>
    </g>
    <g id="ytick_6">
     <g id="line2d_26">
      <g>
       <use style="stroke:#000000;stroke-linecap:butt;stroke-width:0.5;" x="54.4303125" xlink:href="#mc8fcea1516" y="43.2323450167"/>
      </g>
     </g>
     <g id="line2d_27">
      <g>
       <use style="stroke:#000000;stroke-linecap:butt;stroke-width:0.5;" x="707.04" xlink:href="#m0d5b0a6425" y="43.2323450167"/>
      </g>
     </g>
     <g id="text_14">
      <!-- 100 -->
      <g transform="translate(29.6403125 47.6001575167)scale(0.12 -0.12)">
       <use xlink:href="#BitstreamVeraSans-Roman-31"/>
       <use x="63.623046875" xlink:href="#BitstreamVeraSans-Roman-30"/>
       <use x="127.24609375" xlink:href="#BitstreamVeraSans-Roman-30"/>
      </g>
     </g>
    </g>
    <g id="ytick_7">
     <g id="line2d_28">
      <g>
       <use style="stroke:#000000;stroke-linecap:butt;stroke-width:0.5;" x="54.4303125" xlink:href="#mc8fcea1516" y="31.61081402"/>
      </g>
     </g>
     <g id="line2d_29">
      <g>
       <use style="stroke:#000000;stroke-linecap:butt;stroke-width:0.5;" x="707.04" xlink:href="#m0d5b0a6425" y="31.61081402"/>
      </g>
     </g>
     <g id="text_15">
      <!-- 120 -->
      <g transform="translate(29.6403125 35.97862652)scale(0.12 -0.12)">
       <use xlink:href="#BitstreamVeraSans-Roman-31"/>
       <use x="63.623046875" xlink:href="#BitstreamVeraSans-Roman-32"/>
       <use x="127.24609375" xlink:href="#BitstreamVeraSans-Roman-30"/>
      </g>
     </g>
    </g>
    <g id="ytick_8">
     <g id="line2d_30">
      <g>
       <use style="stroke:#000000;stroke-linecap:butt;stroke-width:0.5;" x="54.4303125" xlink:href="#mc8fcea1516" y="19.9892830233"/>
      </g>
     </g>
     <g id="line2d_31">
      <g>
       <use style="stroke:#000000;stroke-linecap:butt;stroke-width:0.5;" x="707.04" xlink:href="#m0d5b0a6425" y="19.9892830233"/>
      </g>
     </g>
     <g id="text_16">
      <!-- 140 -->
      <g transform="translate(29.6403125 24.3570955233)scale(0.12 -0.12)">
       <use xlink:href="#BitstreamVeraSans-Roman-31"/>
       <use x="63.623046875" xlink:href="#BitstreamVeraSans-Roman-34"/>
       <use x="127.24609375" xlink:href="#BitstreamVeraSans-Roman-30"/>
      </g>
     </g>
    </g>
    <g id="text_17">
     <!-- Elevation, m -->
     <defs>
      <path d="
M2.98438 54.6875
L12.5 54.6875
L29.5938 8.79688
L46.6875 54.6875
L56.2031 54.6875
L35.6875 0
L23.4844 0
z
" id="BitstreamVeraSans-Roman-76"/>
      <path d="
M9.8125 72.9062
L55.9062 72.9062
L55.9062 64.5938
L19.6719 64.5938
L19.6719 43.0156
L54.3906 43.0156
L54.3906 34.7188
L19.6719 34.7188
L19.6719 8.29688
L56.7812 8.29688
L56.7812 0
L9.8125 0
z
" id="BitstreamVeraSans-Roman-45"/>
      <path d="
M30.6094 48.3906
Q23.3906 48.3906 19.1875 42.75
Q14.9844 37.1094 14.9844 27.2969
Q14.9844 17.4844 19.1562 11.8438
Q23.3438 6.20312 30.6094 6.20312
Q37.7969 6.20312 41.9844 11.8594
Q46.1875 17.5312 46.1875 27.2969
Q46.1875 37.0156 41.9844 42.7031
Q37.7969 48.3906 30.6094 48.3906
M30.6094 56
Q42.3281 56 49.0156 48.375
Q55.7188 40.7656 55.7188 27.2969
Q55.7188 13.875 49.0156 6.21875
Q42.3281 -1.42188 30.6094 -1.42188
Q18.8438 -1.42188 12.1719 6.21875
Q5.51562 13.875 5.51562 27.2969
Q5.51562 40.7656 12.1719 48.375
Q18.8438 56 30.6094 56" id="BitstreamVeraSans-Roman-6f"/>
      <path d="
M9.42188 75.9844
L18.4062 75.9844
L18.4062 0
L9.42188 0
z
" id="BitstreamVeraSans-Roman-6c"/>
     </defs>
     <g transform="translate(24.6403125 92.775)rotate(-90.0)scale(0.12 -0.12)">
      <use xlink:href="#BitstreamVeraSans-Roman-45"/>
      <use x="63.18359375" xlink:href="#BitstreamVeraSans-Roman-6c"/>
      <use x="90.966796875" xlink:href="#BitstreamVeraSans-Roman-65"/>
      <use x="152.490234375" xlink:href="#BitstreamVeraSans-Roman-76"/>
      <use x="211.669921875" xlink:href="#BitstreamVeraSans-Roman-61"/>
      <use x="272.94921875" xlink:href="#BitstreamVeraSans-Roman-74"/>
      <use x="312.158203125" xlink:href="#BitstreamVeraSans-Roman-69"/>
      <use x="339.94140625" xlink:href="#BitstreamVeraSans-Roman-6f"/>
      <use x="401.123046875" xlink:href="#BitstreamVeraSans-Roman-6e"/>
      <use x="464.501953125" xlink:href="#BitstreamVeraSans-Roman-2c"/>
      <use x="496.2890625" xlink:href="#BitstreamVeraSans-Roman-20"/>
      <use x="528.076171875" xlink:href="#BitstreamVeraSans-Roman-6d"/>
     </g>
    </g>
   </g>
   <g id="patch_3">
    <path d="
M54.4303 12.96
L707.04 12.96" style="fill:none;stroke:#000000;"/>
   </g>
   <g id="patch_4">
    <path d="
M707.04 101.34
L707.04 12.96" style="fill:none;stroke:#000000;"/>
   </g>
   <g id="patch_5">
    <path d="
M54.4303 101.34
L707.04 101.34" style="fill:none;stroke:#000000;"/>
   </g>
   <g id="patch_6">
    <path d="
M54.4303 101.34
L54.4303 12.96" style="fill:none;stroke:#000000;"/>
   </g>
  </g>
 </g>
 <defs>
  <clipPath id="pa8176fee34">
   <rect height="88.38" width="652.6096875" x="54.4303125" y="12.96"/>
  </clipPath>
 </defs>
</svg>
