<?xml version="1.0" encoding="utf-8" standalone="no"?>
<!DOCTYPE svg PUBLIC "-//W3C//DTD SVG 1.1//EN"
  "http://www.w3.org/Graphics/SVG/1.1/DTD/svg11.dtd">
<!-- Created with matplotlib (http://matplotlib.org/) -->
<svg height="144pt" version="1.1" viewBox="0 0 720 144" width="720pt" xmlns="http://www.w3.org/2000/svg" xmlns:xlink="http://www.w3.org/1999/xlink">
 <defs>
  <style type="text/css">
*{stroke-linecap:butt;stroke-linejoin:round;}
  </style>
 </defs>
 <g id="figure_1">
  <g id="patch_1">
   <path d="
M0 144
L720 144
L720 0
L0 0
z
" style="fill:#ffffff;"/>
  </g>
  <g id="axes_1">
   <g id="patch_2">
    <path d="
M54.5288 98.64
L706.175 98.64
L706.175 12.96
L54.5288 12.96
z
" style="fill:#ffffff;"/>
   </g>
   <g id="PolyCollection_1">
    <defs>
     <path d="
M54.5288 -45.36
L54.5288 -65.0618
L54.9892 -65.0618
L55.937 -65.52
L57.0209 -65.9782
L60.4456 -65.52
L61.8146 -63.6873
L61.9517 -63.2291
L62.2324 -63.2291
L62.963 -63.2291
L66.1488 -63.2291
L67.1306 -63.2291
L67.7443 -63.2291
L68.579 -63.6873
L69.5654 -64.6036
L70.6978 -65.52
L71.0083 -66.4364
L71.5587 -67.8109
L71.9305 -69.1855
L78.1543 -75.6
L79.4624 -78.3491
L79.8972 -79.7236
L80.5662 -82.4727
L81.8562 -87.5127
L82.7806 -89.3455
L83.0107 -89.8036
L83.2654 -89.8036
L84.9016 -91.6364
L85.9058 -91.1782
L86.6746 -91.1782
L87.5868 -90.72
L89.1037 -90.2618
L89.1128 -89.8036
L89.5978 -89.8036
L90.6048 -89.3455
L90.9499 -88.8873
L91.2507 -88.4291
L96.1097 -83.8473
L96.4309 -82.4727
L98.7132 -75.6
L99.4503 -75.6
L99.8004 -75.6
L102.417 -76.5164
L104.596 -71.0182
L105.17 -70.56
L107.097 -69.6436
L107.097 -69.6436
L123.689 -56.8145
L124.011 -56.3564
L124.132 -56.3564
L125.54 -54.9818
L127.372 -55.44
L128.566 -55.8982
L131.841 -58.6473
L136.412 -61.3964
L136.412 -61.3964
L137.602 -57.2727
L137.94 -56.3564
L138.406 -55.8982
L139.095 -54.9818
L139.295 -54.5236
L139.664 -54.5236
L142.557 -54.5236
L143.217 -55.44
L143.63 -55.8982
L143.916 -56.8145
L144.449 -56.8145
L155.933 -58.6473
L156.34 -58.6473
L167.532 -60.48
L168.392 -60.0218
L169.638 -60.0218
L169.638 -60.0218
L170.884 -60.0218
L171.743 -60.0218
L176.864 -62.3127
L183.177 -62.3127
L185.463 -62.7709
L196.662 -63.2291
L203.957 -66.4364
L204.844 -65.9782
L205.758 -65.9782
L206.499 -65.9782
L209.629 -67.3527
L209.641 -67.3527
L209.641 -67.3527
L209.877 -67.3527
L210.922 -67.8109
L212.329 -68.7273
L213.252 -69.1855
L214.003 -70.1018
L215.133 -71.0182
L216.491 -72.3927
L217.145 -72.3927
L217.933 -73.3091
L218.832 -74.6836
L219.21 -75.6
L219.587 -75.6
L219.97 -76.0582
L220.913 -76.9745
L221.348 -77.4327
L221.892 -77.8909
L222.408 -78.8073
L223.863 -81.5564
L224.29 -81.5564
L225.826 -83.3891
L227.125 -83.3891
L228.074 -84.3055
L228.531 -84.7636
L228.891 -85.2218
L229.572 -86.1382
L230.157 -87.0545
L230.548 -87.9709
L231.544 -90.72
L231.653 -90.72
L232.099 -91.1782
L234.773 -94.3855
L235.513 -92.5527
L235.904 -92.0945
L236.729 -93.0109
L241.794 -101.716
L242.392 -102.175
L242.587 -102.633
L243.711 -104.007
L245.769 -107.673
L246.612 -109.047
L247.197 -110.422
L247.632 -111.338
L248.015 -112.255
L248.279 -112.713
L249.728 -116.378
L249.908 -116.378
L250.106 -116.836
L250.562 -118.211
L251.266 -120.044
L251.523 -120.044
L251.873 -120.044
L252.6 -120.502
L252.933 -120.502
L253.225 -120.502
L253.936 -120.502
L254.62 -120.502
L255.16 -120.96
L255.481 -120.96
L256.057 -120.96
L256.325 -121.418
L257.095 -120.502
L258.139 -119.585
L258.577 -119.127
L259.457 -118.211
L259.976 -118.211
L260.275 -118.211
L260.275 -118.211
L260.275 -118.211
L260.918 -117.295
L262.72 -115.004
L263.007 -113.629
L263.163 -113.171
L263.956 -110.88
L264.351 -109.964
L265.502 -109.047
L265.995 -109.964
L266.558 -110.88
L267.412 -113.171
L273.413 -119.127
L277.105 -117.753
L279.355 -120.502
L283.037 -122.793
L284.737 -121.876
L286.024 -121.418
L292.14 -120.96
L294.634 -122.335
L294.887 -121.876
L295.205 -121.876
L296.333 -121.876
L297.153 -120.96
L297.798 -120.502
L298.398 -120.044
L298.988 -120.044
L300.822 -117.295
L301.073 -116.836
L301.76 -116.378
L302.215 -116.378
L303.5 -114.545
L304.031 -112.713
L304.375 -111.796
L304.722 -111.338
L305.389 -109.047
L305.676 -108.131
L307.172 -104.007
L307.803 -101.716
L308.772 -98.5091
L309.431 -95.76
L310.097 -93.4691
L311.565 -89.3455
L311.565 -89.3455
L312.249 -86.5964
L313.201 -83.8473
L314.532 -78.8073
L316 -76.0582
L317.992 -70.56
L318.277 -69.6436
L319.607 -67.8109
L320.973 -65.9782
L321.692 -64.1455
L322.295 -63.2291
L323.041 -63.2291
L323.611 -63.2291
L323.935 -62.3127
L324.378 -61.3964
L325.063 -60.48
L325.846 -60.48
L326.226 -60.48
L327.3 -60.0218
L327.796 -59.5636
L329.933 -58.1891
L330.543 -57.7309
L330.981 -57.2727
L332.648 -56.8145
L333.234 -57.7309
L333.85 -59.1055
L334.099 -59.5636
L334.694 -60.48
L335.139 -61.8545
L335.952 -60.9382
L336.779 -60.0218
L337.115 -59.1055
L337.765 -58.1891
L339.433 -55.44
L340.596 -55.44
L342.776 -57.2727
L344.008 -57.2727
L344.165 -57.2727
L344.368 -57.2727
L345.144 -57.7309
L345.399 -58.1891
L346.674 -59.5636
L348.276 -59.5636
L349.075 -58.6473
L349.9 -58.1891
L349.9 -58.1891
L350.873 -57.2727
L351.691 -57.2727
L352.075 -57.2727
L368.356 -57.2727
L369.506 -56.3564
L370.895 -56.8145
L371.011 -56.8145
L371.221 -56.8145
L372.858 -58.6473
L379.426 -57.2727
L379.605 -56.8145
L379.825 -56.8145
L383.572 -56.3564
L383.972 -55.8982
L384.536 -55.44
L385.204 -55.44
L385.971 -55.8982
L386.503 -55.8982
L387.411 -56.8145
L387.411 -56.8145
L389.501 -57.7309
L390.782 -57.2727
L391.015 -56.8145
L391.326 -56.8145
L393.23 -56.3564
L394.389 -57.7309
L394.77 -57.2727
L395.64 -57.2727
L397.215 -56.8145
L398.763 -57.2727
L400.048 -58.6473
L400.057 -58.1891
L401.884 -58.1891
L402.925 -59.1055
L404.597 -60.9382
L406.46 -59.5636
L409.311 -60.9382
L410.099 -61.3964
L410.753 -62.3127
L411.395 -64.1455
L414.551 -75.1418
L414.56 -75.1418
L416.004 -77.8909
L416.854 -76.0582
L422.379 -66.4364
L423.928 -62.7709
L425.788 -68.2691
L426.268 -68.2691
L426.509 -68.7273
L429.388 -71.0182
L434.429 -65.0618
L441.79 -64.6036
L441.79 -64.6036
L443.333 -65.0618
L443.625 -64.6036
L443.905 -64.1455
L445.509 -62.3127
L448.838 -65.52
L448.97 -65.0618
L449.52 -63.6873
L450.739 -61.3964
L451.521 -60.0218
L451.681 -60.0218
L452.573 -59.1055
L453.601 -63.6873
L453.865 -65.0618
L454.169 -65.9782
L454.484 -67.3527
L456.18 -75.1418
L456.601 -74.2255
L457.595 -72.8509
L460.53 -66.4364
L462.568 -65.0618
L464.64 -63.6873
L466.255 -64.6036
L466.851 -64.6036
L467.191 -65.0618
L467.707 -65.52
L468.38 -65.0618
L469.148 -64.6036
L470.697 -63.2291
L474.264 -65.0618
L474.636 -65.0618
L475.504 -65.0618
L475.855 -65.0618
L476.302 -65.0618
L477.575 -65.0618
L480.875 -65.0618
L483.287 -66.8945
L483.77 -66.8945
L485.119 -66.8945
L486.388 -68.2691
L493.363 -76.9745
L493.373 -76.9745
L497.815 -81.0982
L499.915 -87.0545
L502.898 -94.8436
L503.793 -96.2182
L504.707 -98.5091
L504.991 -98.9673
L505.889 -101.258
L506.291 -102.175
L506.735 -103.549
L507.867 -107.673
L508.434 -108.589
L509.464 -111.338
L510.661 -112.713
L511.434 -112.713
L512.145 -113.171
L513.983 -115.462
L515.373 -116.378
L515.815 -116.836
L516.623 -118.211
L516.927 -119.127
L517.574 -121.418
L517.762 -122.335
L518.493 -122.335
L518.804 -122.793
L519.418 -123.251
L520.609 -121.876
L521.153 -120.044
L521.791 -118.211
L522.198 -118.211
L522.662 -118.669
L523.878 -120.044
L525.6 -119.127
L526.279 -119.585
L526.576 -119.585
L528.289 -121.418
L528.695 -119.585
L529.716 -115.92
L530.22 -114.087
L530.974 -112.255
L531.467 -111.338
L531.575 -110.88
L532.494 -109.505
L534.484 -107.215
L536.184 -105.382
L538.526 -103.549
L538.863 -102.633
L543.559 -91.6364
L545.285 -88.4291
L548.124 -87.0545
L548.939 -88.4291
L552.304 -94.3855
L553.136 -97.1345
L553.292 -97.5927
L554.618 -102.633
L555.052 -102.175
L557.342 -100.342
L563.127 -83.3891
L563.251 -82.9309
L563.523 -82.4727
L569.167 -71.0182
L569.346 -71.0182
L573.084 -71.0182
L573.096 -70.56
L578.068 -66.8945
L578.897 -65.9782
L584.901 -62.7709
L596.926 -72.8509
L600.031 -75.1418
L602.311 -81.5564
L609.151 -81.0982
L609.246 -81.0982
L613.134 -87.5127
L613.146 -87.5127
L615.558 -93.0109
L617.546 -96.6764
L619.034 -94.8436
L619.399 -94.8436
L619.642 -94.8436
L621.084 -94.8436
L621.276 -95.3018
L621.285 -95.3018
L622.289 -97.5927
L622.881 -98.9673
L623.613 -97.5927
L624.649 -96.2182
L625.849 -94.3855
L626.276 -94.3855
L627.075 -94.8436
L627.757 -95.3018
L628.922 -96.2182
L631.16 -95.3018
L631.469 -94.3855
L633.346 -91.1782
L633.817 -91.6364
L634.842 -93.4691
L635.693 -93.4691
L635.954 -93.9273
L637.081 -93.4691
L639.469 -90.72
L640.913 -89.8036
L641.858 -90.2618
L642.514 -90.72
L645.031 -90.72
L645.031 -90.72
L651.003 -90.72
L654.07 -87.9709
L656.151 -87.5127
L657.257 -90.2618
L659.173 -87.9709
L661.064 -87.5127
L663.98 -90.2618
L664.299 -89.8036
L664.624 -89.8036
L666.019 -89.8036
L667.802 -90.72
L668.604 -90.72
L669.483 -91.6364
L670.487 -90.72
L672.123 -90.2618
L672.493 -89.3455
L673.529 -87.5127
L675.058 -81.5564
L675.922 -78.8073
L677.23 -75.6
L678.728 -72.3927
L679.187 -72.8509
L679.423 -73.3091
L680.139 -74.6836
L680.408 -75.1418
L680.408 -75.1418
L680.678 -74.2255
L681.393 -72.8509
L681.63 -72.8509
L682.088 -72.3927
L686.993 -68.7273
L687.365 -67.8109
L687.883 -66.8945
L689.177 -64.6036
L690.163 -63.6873
L690.998 -63.2291
L691.612 -63.2291
L692.307 -63.2291
L692.814 -63.2291
L695.92 -63.6873
L696.446 -63.6873
L697.373 -64.1455
L698.276 -64.1455
L698.623 -64.6036
L698.913 -64.6036
L699.614 -65.52
L701.844 -68.2691
L702.421 -68.2691
L702.74 -68.2691
L704.695 -68.2691
L705.015 -67.8109
L705.295 -67.8109
L705.701 -67.3527
L706.175 -67.3527
L706.175 -45.36
L706.175 -45.36
L705.701 -45.36
L705.295 -45.36
L705.015 -45.36
L704.695 -45.36
L702.74 -45.36
L702.421 -45.36
L701.844 -45.36
L699.614 -45.36
L698.913 -45.36
L698.623 -45.36
L698.276 -45.36
L697.373 -45.36
L696.446 -45.36
L695.92 -45.36
L692.814 -45.36
L692.307 -45.36
L691.612 -45.36
L690.998 -45.36
L690.163 -45.36
L689.177 -45.36
L687.883 -45.36
L687.365 -45.36
L686.993 -45.36
L682.088 -45.36
L681.63 -45.36
L681.393 -45.36
L680.678 -45.36
L680.408 -45.36
L680.408 -45.36
L680.139 -45.36
L679.423 -45.36
L679.187 -45.36
L678.728 -45.36
L677.23 -45.36
L675.922 -45.36
L675.058 -45.36
L673.529 -45.36
L672.493 -45.36
L672.123 -45.36
L670.487 -45.36
L669.483 -45.36
L668.604 -45.36
L667.802 -45.36
L666.019 -45.36
L664.624 -45.36
L664.299 -45.36
L663.98 -45.36
L661.064 -45.36
L659.173 -45.36
L657.257 -45.36
L656.151 -45.36
L654.07 -45.36
L651.003 -45.36
L645.031 -45.36
L645.031 -45.36
L642.514 -45.36
L641.858 -45.36
L640.913 -45.36
L639.469 -45.36
L637.081 -45.36
L635.954 -45.36
L635.693 -45.36
L634.842 -45.36
L633.817 -45.36
L633.346 -45.36
L631.469 -45.36
L631.16 -45.36
L628.922 -45.36
L627.757 -45.36
L627.075 -45.36
L626.276 -45.36
L625.849 -45.36
L624.649 -45.36
L623.613 -45.36
L622.881 -45.36
L622.289 -45.36
L621.285 -45.36
L621.276 -45.36
L621.084 -45.36
L619.642 -45.36
L619.399 -45.36
L619.034 -45.36
L617.546 -45.36
L615.558 -45.36
L613.146 -45.36
L613.134 -45.36
L609.246 -45.36
L609.151 -45.36
L602.311 -45.36
L600.031 -45.36
L596.926 -45.36
L584.901 -45.36
L578.897 -45.36
L578.068 -45.36
L573.096 -45.36
L573.084 -45.36
L569.346 -45.36
L569.167 -45.36
L563.523 -45.36
L563.251 -45.36
L563.127 -45.36
L557.342 -45.36
L555.052 -45.36
L554.618 -45.36
L553.292 -45.36
L553.136 -45.36
L552.304 -45.36
L548.939 -45.36
L548.124 -45.36
L545.285 -45.36
L543.559 -45.36
L538.863 -45.36
L538.526 -45.36
L536.184 -45.36
L534.484 -45.36
L532.494 -45.36
L531.575 -45.36
L531.467 -45.36
L530.974 -45.36
L530.22 -45.36
L529.716 -45.36
L528.695 -45.36
L528.289 -45.36
L526.576 -45.36
L526.279 -45.36
L525.6 -45.36
L523.878 -45.36
L522.662 -45.36
L522.198 -45.36
L521.791 -45.36
L521.153 -45.36
L520.609 -45.36
L519.418 -45.36
L518.804 -45.36
L518.493 -45.36
L517.762 -45.36
L517.574 -45.36
L516.927 -45.36
L516.623 -45.36
L515.815 -45.36
L515.373 -45.36
L513.983 -45.36
L512.145 -45.36
L511.434 -45.36
L510.661 -45.36
L509.464 -45.36
L508.434 -45.36
L507.867 -45.36
L506.735 -45.36
L506.291 -45.36
L505.889 -45.36
L504.991 -45.36
L504.707 -45.36
L503.793 -45.36
L502.898 -45.36
L499.915 -45.36
L497.815 -45.36
L493.373 -45.36
L493.363 -45.36
L486.388 -45.36
L485.119 -45.36
L483.77 -45.36
L483.287 -45.36
L480.875 -45.36
L477.575 -45.36
L476.302 -45.36
L475.855 -45.36
L475.504 -45.36
L474.636 -45.36
L474.264 -45.36
L470.697 -45.36
L469.148 -45.36
L468.38 -45.36
L467.707 -45.36
L467.191 -45.36
L466.851 -45.36
L466.255 -45.36
L464.64 -45.36
L462.568 -45.36
L460.53 -45.36
L457.595 -45.36
L456.601 -45.36
L456.18 -45.36
L454.484 -45.36
L454.169 -45.36
L453.865 -45.36
L453.601 -45.36
L452.573 -45.36
L451.681 -45.36
L451.521 -45.36
L450.739 -45.36
L449.52 -45.36
L448.97 -45.36
L448.838 -45.36
L445.509 -45.36
L443.905 -45.36
L443.625 -45.36
L443.333 -45.36
L441.79 -45.36
L441.79 -45.36
L434.429 -45.36
L429.388 -45.36
L426.509 -45.36
L426.268 -45.36
L425.788 -45.36
L423.928 -45.36
L422.379 -45.36
L416.854 -45.36
L416.004 -45.36
L414.56 -45.36
L414.551 -45.36
L411.395 -45.36
L410.753 -45.36
L410.099 -45.36
L409.311 -45.36
L406.46 -45.36
L404.597 -45.36
L402.925 -45.36
L401.884 -45.36
L400.057 -45.36
L400.048 -45.36
L398.763 -45.36
L397.215 -45.36
L395.64 -45.36
L394.77 -45.36
L394.389 -45.36
L393.23 -45.36
L391.326 -45.36
L391.015 -45.36
L390.782 -45.36
L389.501 -45.36
L387.411 -45.36
L387.411 -45.36
L386.503 -45.36
L385.971 -45.36
L385.204 -45.36
L384.536 -45.36
L383.972 -45.36
L383.572 -45.36
L379.825 -45.36
L379.605 -45.36
L379.426 -45.36
L372.858 -45.36
L371.221 -45.36
L371.011 -45.36
L370.895 -45.36
L369.506 -45.36
L368.356 -45.36
L352.075 -45.36
L351.691 -45.36
L350.873 -45.36
L349.9 -45.36
L349.9 -45.36
L349.075 -45.36
L348.276 -45.36
L346.674 -45.36
L345.399 -45.36
L345.144 -45.36
L344.368 -45.36
L344.165 -45.36
L344.008 -45.36
L342.776 -45.36
L340.596 -45.36
L339.433 -45.36
L337.765 -45.36
L337.115 -45.36
L336.779 -45.36
L335.952 -45.36
L335.139 -45.36
L334.694 -45.36
L334.099 -45.36
L333.85 -45.36
L333.234 -45.36
L332.648 -45.36
L330.981 -45.36
L330.543 -45.36
L329.933 -45.36
L327.796 -45.36
L327.3 -45.36
L326.226 -45.36
L325.846 -45.36
L325.063 -45.36
L324.378 -45.36
L323.935 -45.36
L323.611 -45.36
L323.041 -45.36
L322.295 -45.36
L321.692 -45.36
L320.973 -45.36
L319.607 -45.36
L318.277 -45.36
L317.992 -45.36
L316 -45.36
L314.532 -45.36
L313.201 -45.36
L312.249 -45.36
L311.565 -45.36
L311.565 -45.36
L310.097 -45.36
L309.431 -45.36
L308.772 -45.36
L307.803 -45.36
L307.172 -45.36
L305.676 -45.36
L305.389 -45.36
L304.722 -45.36
L304.375 -45.36
L304.031 -45.36
L303.5 -45.36
L302.215 -45.36
L301.76 -45.36
L301.073 -45.36
L300.822 -45.36
L298.988 -45.36
L298.398 -45.36
L297.798 -45.36
L297.153 -45.36
L296.333 -45.36
L295.205 -45.36
L294.887 -45.36
L294.634 -45.36
L292.14 -45.36
L286.024 -45.36
L284.737 -45.36
L283.037 -45.36
L279.355 -45.36
L277.105 -45.36
L273.413 -45.36
L267.412 -45.36
L266.558 -45.36
L265.995 -45.36
L265.502 -45.36
L264.351 -45.36
L263.956 -45.36
L263.163 -45.36
L263.007 -45.36
L262.72 -45.36
L260.918 -45.36
L260.275 -45.36
L260.275 -45.36
L260.275 -45.36
L259.976 -45.36
L259.457 -45.36
L258.577 -45.36
L258.139 -45.36
L257.095 -45.36
L256.325 -45.36
L256.057 -45.36
L255.481 -45.36
L255.16 -45.36
L254.62 -45.36
L253.936 -45.36
L253.225 -45.36
L252.933 -45.36
L252.6 -45.36
L251.873 -45.36
L251.523 -45.36
L251.266 -45.36
L250.562 -45.36
L250.106 -45.36
L249.908 -45.36
L249.728 -45.36
L248.279 -45.36
L248.015 -45.36
L247.632 -45.36
L247.197 -45.36
L246.612 -45.36
L245.769 -45.36
L243.711 -45.36
L242.587 -45.36
L242.392 -45.36
L241.794 -45.36
L236.729 -45.36
L235.904 -45.36
L235.513 -45.36
L234.773 -45.36
L232.099 -45.36
L231.653 -45.36
L231.544 -45.36
L230.548 -45.36
L230.157 -45.36
L229.572 -45.36
L228.891 -45.36
L228.531 -45.36
L228.074 -45.36
L227.125 -45.36
L225.826 -45.36
L224.29 -45.36
L223.863 -45.36
L222.408 -45.36
L221.892 -45.36
L221.348 -45.36
L220.913 -45.36
L219.97 -45.36
L219.587 -45.36
L219.21 -45.36
L218.832 -45.36
L217.933 -45.36
L217.145 -45.36
L216.491 -45.36
L215.133 -45.36
L214.003 -45.36
L213.252 -45.36
L212.329 -45.36
L210.922 -45.36
L209.877 -45.36
L209.641 -45.36
L209.641 -45.36
L209.629 -45.36
L206.499 -45.36
L205.758 -45.36
L204.844 -45.36
L203.957 -45.36
L196.662 -45.36
L185.463 -45.36
L183.177 -45.36
L176.864 -45.36
L171.743 -45.36
L170.884 -45.36
L169.638 -45.36
L169.638 -45.36
L168.392 -45.36
L167.532 -45.36
L156.34 -45.36
L155.933 -45.36
L144.449 -45.36
L143.916 -45.36
L143.63 -45.36
L143.217 -45.36
L142.557 -45.36
L139.664 -45.36
L139.295 -45.36
L139.095 -45.36
L138.406 -45.36
L137.94 -45.36
L137.602 -45.36
L136.412 -45.36
L136.412 -45.36
L131.841 -45.36
L128.566 -45.36
L127.372 -45.36
L125.54 -45.36
L124.132 -45.36
L124.011 -45.36
L123.689 -45.36
L107.097 -45.36
L107.097 -45.36
L105.17 -45.36
L104.596 -45.36
L102.417 -45.36
L99.8004 -45.36
L99.4503 -45.36
L98.7132 -45.36
L96.4309 -45.36
L96.1097 -45.36
L91.2507 -45.36
L90.9499 -45.36
L90.6048 -45.36
L89.5978 -45.36
L89.1128 -45.36
L89.1037 -45.36
L87.5868 -45.36
L86.6746 -45.36
L85.9058 -45.36
L84.9016 -45.36
L83.2654 -45.36
L83.0107 -45.36
L82.7806 -45.36
L81.8562 -45.36
L80.5662 -45.36
L79.8972 -45.36
L79.4624 -45.36
L78.1543 -45.36
L71.9305 -45.36
L71.5587 -45.36
L71.0083 -45.36
L70.6978 -45.36
L69.5654 -45.36
L68.579 -45.36
L67.7443 -45.36
L67.1306 -45.36
L66.1488 -45.36
L62.963 -45.36
L62.2324 -45.36
L61.9517 -45.36
L61.8146 -45.36
L60.4456 -45.36
L57.0209 -45.36
L55.937 -45.36
L54.9892 -45.36
L54.5288 -45.36
z
" id="C0_0_79b98f1735"/>
    </defs>
    <g clip-path="url(#p754e2e3ea4)">
     <use style="fill:#0000ff;fill-opacity:0.3;stroke:#0000ff;stroke-opacity:0.3;" x="0.0" xlink:href="#C0_0_79b98f1735" y="144.0"/>
    </g>
   </g>
   <g id="line2d_1">
    <path clip-path="url(#p754e2e3ea4)" d="
M54.5288 78.9382
L54.9892 78.9382
L57.0209 78.0218
L60.4456 78.48
L61.8146 80.3127
L61.9517 80.7709
L67.7443 80.7709
L68.579 80.3127
L70.6978 78.48
L71.9305 74.8145
L78.1543 68.4
L79.4624 65.6509
L79.8972 64.2764
L81.8562 56.4873
L83.0107 54.1964
L83.2654 54.1964
L84.9016 52.3636
L85.9058 52.8218
L86.6746 52.8218
L87.5868 53.28
L89.1037 53.7382
L89.1128 54.1964
L89.5978 54.1964
L90.6048 54.6545
L91.2507 55.5709
L96.1097 60.1527
L96.4309 61.5273
L98.7132 68.4
L99.8004 68.4
L102.417 67.4836
L104.596 72.9818
L105.17 73.44
L107.097 74.3564
L107.097 74.3564
L123.689 87.1855
L124.132 87.6436
L125.54 89.0182
L127.372 88.56
L128.566 88.1018
L131.841 85.3527
L136.412 82.6036
L136.412 82.6036
L137.94 87.6436
L138.406 88.1018
L139.095 89.0182
L139.295 89.4764
L142.557 89.4764
L143.63 88.1018
L143.916 87.1855
L144.449 87.1855
L167.532 83.52
L168.392 83.9782
L171.743 83.9782
L176.864 81.6873
L183.177 81.6873
L185.463 81.2291
L196.662 80.7709
L203.957 77.5636
L204.844 78.0218
L206.499 78.0218
L210.922 76.1891
L212.329 75.2727
L213.252 74.8145
L214.003 73.8982
L215.133 72.9818
L216.491 71.6073
L217.145 71.6073
L217.933 70.6909
L218.832 69.3164
L219.21 68.4
L219.587 68.4
L219.97 67.9418
L221.892 66.1091
L223.863 62.4436
L224.29 62.4436
L225.826 60.6109
L227.125 60.6109
L228.891 58.7782
L230.157 56.9455
L230.548 56.0291
L231.653 53.28
L232.099 52.8218
L234.773 49.6145
L235.513 51.4473
L235.904 51.9055
L236.729 50.9891
L241.794 42.2836
L242.392 41.8255
L242.587 41.3673
L243.711 39.9927
L247.197 33.5782
L248.279 31.2873
L249.728 27.6218
L249.908 27.6218
L250.106 27.1636
L251.266 23.9564
L251.873 23.9564
L252.6 23.4982
L254.62 23.4982
L255.16 23.04
L256.057 23.04
L256.325 22.5818
L257.095 23.4982
L258.577 24.8727
L259.457 25.7891
L260.275 25.7891
L260.275 25.7891
L260.918 26.7055
L262.72 28.9964
L263.163 30.8291
L264.351 34.0364
L265.502 34.9527
L266.558 33.12
L267.412 30.8291
L273.413 24.8727
L277.105 26.2473
L279.355 23.4982
L283.037 21.2073
L284.737 22.1236
L286.024 22.5818
L292.14 23.04
L294.634 21.6655
L294.887 22.1236
L296.333 22.1236
L297.153 23.04
L298.398 23.9564
L298.988 23.9564
L301.073 27.1636
L301.76 27.6218
L302.215 27.6218
L303.5 29.4545
L304.375 32.2036
L304.722 32.6618
L305.676 35.8691
L307.172 39.9927
L310.097 50.5309
L311.565 54.6545
L311.565 54.6545
L312.249 57.4036
L313.201 60.1527
L314.532 65.1927
L316 67.9418
L318.277 74.3564
L320.973 78.0218
L321.692 79.8545
L322.295 80.7709
L323.611 80.7709
L323.935 81.6873
L324.378 82.6036
L325.063 83.52
L326.226 83.52
L327.3 83.9782
L327.796 84.4364
L330.543 86.2691
L330.981 86.7273
L332.648 87.1855
L333.234 86.2691
L334.099 84.4364
L334.694 83.52
L335.139 82.1455
L336.779 83.9782
L337.115 84.8945
L337.765 85.8109
L339.433 88.56
L340.596 88.56
L342.776 86.7273
L344.368 86.7273
L345.144 86.2691
L345.399 85.8109
L346.674 84.4364
L348.276 84.4364
L349.075 85.3527
L349.9 85.8109
L349.9 85.8109
L350.873 86.7273
L368.356 86.7273
L369.506 87.6436
L371.221 87.1855
L372.858 85.3527
L379.426 86.7273
L379.605 87.1855
L379.825 87.1855
L383.572 87.6436
L383.972 88.1018
L384.536 88.56
L385.204 88.56
L385.971 88.1018
L386.503 88.1018
L387.411 87.1855
L387.411 87.1855
L389.501 86.2691
L390.782 86.7273
L391.015 87.1855
L391.326 87.1855
L393.23 87.6436
L394.389 86.2691
L394.77 86.7273
L395.64 86.7273
L397.215 87.1855
L398.763 86.7273
L400.048 85.3527
L400.057 85.8109
L401.884 85.8109
L402.925 84.8945
L404.597 83.0618
L406.46 84.4364
L410.099 82.6036
L410.753 81.6873
L411.395 79.8545
L414.56 68.8582
L416.004 66.1091
L416.854 67.9418
L422.379 77.5636
L423.928 81.2291
L425.788 75.7309
L426.268 75.7309
L426.509 75.2727
L429.388 72.9818
L434.429 78.9382
L441.79 79.3964
L441.79 79.3964
L443.333 78.9382
L443.905 79.8545
L445.509 81.6873
L448.838 78.48
L448.97 78.9382
L449.52 80.3127
L451.521 83.9782
L451.681 83.9782
L452.573 84.8945
L456.18 68.8582
L456.601 69.7745
L457.595 71.1491
L460.53 77.5636
L464.64 80.3127
L466.255 79.3964
L466.851 79.3964
L467.191 78.9382
L467.707 78.48
L469.148 79.3964
L470.697 80.7709
L474.264 78.9382
L480.875 78.9382
L483.287 77.1055
L485.119 77.1055
L486.388 75.7309
L493.373 67.0255
L497.815 62.9018
L499.915 56.9455
L502.898 49.1564
L503.793 47.7818
L505.889 42.7418
L506.291 41.8255
L506.735 40.4509
L507.867 36.3273
L508.434 35.4109
L509.464 32.6618
L510.661 31.2873
L511.434 31.2873
L512.145 30.8291
L513.983 28.5382
L515.373 27.6218
L515.815 27.1636
L516.623 25.7891
L517.574 22.5818
L517.762 21.6655
L518.493 21.6655
L518.804 21.2073
L519.418 20.7491
L520.609 22.1236
L521.791 25.7891
L522.198 25.7891
L522.662 25.3309
L523.878 23.9564
L525.6 24.8727
L526.279 24.4145
L526.576 24.4145
L528.289 22.5818
L528.695 24.4145
L530.22 29.9127
L531.575 33.12
L532.494 34.4945
L536.184 38.6182
L538.526 40.4509
L538.863 41.3673
L543.559 52.3636
L545.285 55.5709
L548.124 56.9455
L548.939 55.5709
L552.304 49.6145
L553.292 46.4073
L554.618 41.3673
L555.052 41.8255
L557.342 43.6582
L563.523 61.5273
L569.167 72.9818
L573.084 72.9818
L573.096 73.44
L578.068 77.1055
L578.897 78.0218
L584.901 81.2291
L596.926 71.1491
L600.031 68.8582
L602.311 62.4436
L609.246 62.9018
L613.146 56.4873
L615.558 50.9891
L617.546 47.3236
L619.034 49.1564
L621.084 49.1564
L622.881 45.0327
L623.613 46.4073
L624.649 47.7818
L625.849 49.6145
L626.276 49.6145
L627.757 48.6982
L628.922 47.7818
L631.16 48.6982
L631.469 49.6145
L633.346 52.8218
L633.817 52.3636
L634.842 50.5309
L635.693 50.5309
L635.954 50.0727
L637.081 50.5309
L639.469 53.28
L640.913 54.1964
L641.858 53.7382
L642.514 53.28
L651.003 53.28
L654.07 56.0291
L656.151 56.4873
L657.257 53.7382
L659.173 56.0291
L661.064 56.4873
L663.98 53.7382
L664.299 54.1964
L666.019 54.1964
L667.802 53.28
L668.604 53.28
L669.483 52.3636
L670.487 53.28
L672.123 53.7382
L672.493 54.6545
L673.529 56.4873
L675.058 62.4436
L675.922 65.1927
L677.23 68.4
L678.728 71.6073
L679.187 71.1491
L680.408 68.8582
L680.408 68.8582
L680.678 69.7745
L681.393 71.1491
L681.63 71.1491
L682.088 71.6073
L686.993 75.2727
L687.365 76.1891
L689.177 79.3964
L690.163 80.3127
L690.998 80.7709
L692.814 80.7709
L696.446 80.3127
L697.373 79.8545
L698.276 79.8545
L698.623 79.3964
L698.913 79.3964
L701.844 75.7309
L704.695 75.7309
L705.015 76.1891
L705.295 76.1891
L705.701 76.6473
L706.175 76.6473
L706.175 76.6473" style="fill:none;stroke:#0000ff;stroke-linecap:square;stroke-width:2;"/>
   </g>
   <g id="matplotlib.axis_1">
    <g id="xtick_1">
     <g id="line2d_2">
      <defs>
       <path d="
M0 0
L0 -4" id="m93b0483c22" style="stroke:#000000;stroke-width:0.5;"/>
      </defs>
      <g>
       <use style="stroke:#000000;stroke-width:0.5;" x="54.52875" xlink:href="#m93b0483c22" y="98.64"/>
      </g>
     </g>
     <g id="line2d_3">
      <defs>
       <path d="
M0 0
L0 4" id="m741efc42ff" style="stroke:#000000;stroke-width:0.5;"/>
      </defs>
      <g>
       <use style="stroke:#000000;stroke-width:0.5;" x="54.52875" xlink:href="#m741efc42ff" y="12.96"/>
      </g>
     </g>
     <g id="text_1">
      <!-- 0 -->
      <defs>
       <path d="
M31.7812 66.4062
Q24.1719 66.4062 20.3281 58.9062
Q16.5 51.4219 16.5 36.375
Q16.5 21.3906 20.3281 13.8906
Q24.1719 6.39062 31.7812 6.39062
Q39.4531 6.39062 43.2812 13.8906
Q47.125 21.3906 47.125 36.375
Q47.125 51.4219 43.2812 58.9062
Q39.4531 66.4062 31.7812 66.4062
M31.7812 74.2188
Q44.0469 74.2188 50.5156 64.5156
Q56.9844 54.8281 56.9844 36.375
Q56.9844 17.9688 50.5156 8.26562
Q44.0469 -1.42188 31.7812 -1.42188
Q19.5312 -1.42188 13.0625 8.26562
Q6.59375 17.9688 6.59375 36.375
Q6.59375 54.8281 13.0625 64.5156
Q19.5312 74.2188 31.7812 74.2188" id="BitstreamVeraSans-Roman-30"/>
      </defs>
      <g transform="translate(51.5053125 111.758125)scale(0.12 -0.12)">
       <use xlink:href="#BitstreamVeraSans-Roman-30"/>
      </g>
     </g>
    </g>
    <g id="xtick_2">
     <g id="line2d_4">
      <g>
       <use style="stroke:#000000;stroke-width:0.5;" x="161.96912408" xlink:href="#m93b0483c22" y="98.64"/>
      </g>
     </g>
     <g id="line2d_5">
      <g>
       <use style="stroke:#000000;stroke-width:0.5;" x="161.96912408" xlink:href="#m741efc42ff" y="12.96"/>
      </g>
     </g>
     <g id="text_2">
      <!-- 10 -->
      <defs>
       <path d="
M12.4062 8.29688
L28.5156 8.29688
L28.5156 63.9219
L10.9844 60.4062
L10.9844 69.3906
L28.4219 72.9062
L38.2812 72.9062
L38.2812 8.29688
L54.3906 8.29688
L54.3906 0
L12.4062 0
z
" id="BitstreamVeraSans-Roman-31"/>
      </defs>
      <g transform="translate(155.39162408 111.758125)scale(0.12 -0.12)">
       <use xlink:href="#BitstreamVeraSans-Roman-31"/>
       <use x="63.623046875" xlink:href="#BitstreamVeraSans-Roman-30"/>
      </g>
     </g>
    </g>
    <g id="xtick_3">
     <g id="line2d_6">
      <g>
       <use style="stroke:#000000;stroke-width:0.5;" x="269.409498161" xlink:href="#m93b0483c22" y="98.64"/>
      </g>
     </g>
     <g id="line2d_7">
      <g>
       <use style="stroke:#000000;stroke-width:0.5;" x="269.409498161" xlink:href="#m741efc42ff" y="12.96"/>
      </g>
     </g>
     <g id="text_3">
      <!-- 20 -->
      <defs>
       <path d="
M19.1875 8.29688
L53.6094 8.29688
L53.6094 0
L7.32812 0
L7.32812 8.29688
Q12.9375 14.1094 22.625 23.8906
Q32.3281 33.6875 34.8125 36.5312
Q39.5469 41.8438 41.4219 45.5312
Q43.3125 49.2188 43.3125 52.7812
Q43.3125 58.5938 39.2344 62.25
Q35.1562 65.9219 28.6094 65.9219
Q23.9688 65.9219 18.8125 64.3125
Q13.6719 62.7031 7.8125 59.4219
L7.8125 69.3906
Q13.7656 71.7812 18.9375 73
Q24.125 74.2188 28.4219 74.2188
Q39.75 74.2188 46.4844 68.5469
Q53.2188 62.8906 53.2188 53.4219
Q53.2188 48.9219 51.5312 44.8906
Q49.8594 40.875 45.4062 35.4062
Q44.1875 33.9844 37.6406 27.2188
Q31.1094 20.4531 19.1875 8.29688" id="BitstreamVeraSans-Roman-32"/>
      </defs>
      <g transform="translate(262.612623161 111.758125)scale(0.12 -0.12)">
       <use xlink:href="#BitstreamVeraSans-Roman-32"/>
       <use x="63.623046875" xlink:href="#BitstreamVeraSans-Roman-30"/>
      </g>
     </g>
    </g>
    <g id="xtick_4">
     <g id="line2d_8">
      <g>
       <use style="stroke:#000000;stroke-width:0.5;" x="376.849872241" xlink:href="#m93b0483c22" y="98.64"/>
      </g>
     </g>
     <g id="line2d_9">
      <g>
       <use style="stroke:#000000;stroke-width:0.5;" x="376.849872241" xlink:href="#m741efc42ff" y="12.96"/>
      </g>
     </g>
     <g id="text_4">
      <!-- 30 -->
      <defs>
       <path d="
M40.5781 39.3125
Q47.6562 37.7969 51.625 33
Q55.6094 28.2188 55.6094 21.1875
Q55.6094 10.4062 48.1875 4.48438
Q40.7656 -1.42188 27.0938 -1.42188
Q22.5156 -1.42188 17.6562 -0.515625
Q12.7969 0.390625 7.625 2.20312
L7.625 11.7188
Q11.7188 9.32812 16.5938 8.10938
Q21.4844 6.89062 26.8125 6.89062
Q36.0781 6.89062 40.9375 10.5469
Q45.7969 14.2031 45.7969 21.1875
Q45.7969 27.6406 41.2812 31.2656
Q36.7656 34.9062 28.7188 34.9062
L20.2188 34.9062
L20.2188 43.0156
L29.1094 43.0156
Q36.375 43.0156 40.2344 45.9219
Q44.0938 48.8281 44.0938 54.2969
Q44.0938 59.9062 40.1094 62.9062
Q36.1406 65.9219 28.7188 65.9219
Q24.6562 65.9219 20.0156 65.0312
Q15.375 64.1562 9.8125 62.3125
L9.8125 71.0938
Q15.4375 72.6562 20.3438 73.4375
Q25.25 74.2188 29.5938 74.2188
Q40.8281 74.2188 47.3594 69.1094
Q53.9062 64.0156 53.9062 55.3281
Q53.9062 49.2656 50.4375 45.0938
Q46.9688 40.9219 40.5781 39.3125" id="BitstreamVeraSans-Roman-33"/>
      </defs>
      <g transform="translate(370.070809741 111.758125)scale(0.12 -0.12)">
       <use xlink:href="#BitstreamVeraSans-Roman-33"/>
       <use x="63.623046875" xlink:href="#BitstreamVeraSans-Roman-30"/>
      </g>
     </g>
    </g>
    <g id="xtick_5">
     <g id="line2d_10">
      <g>
       <use style="stroke:#000000;stroke-width:0.5;" x="484.290246322" xlink:href="#m93b0483c22" y="98.64"/>
      </g>
     </g>
     <g id="line2d_11">
      <g>
       <use style="stroke:#000000;stroke-width:0.5;" x="484.290246322" xlink:href="#m741efc42ff" y="12.96"/>
      </g>
     </g>
     <g id="text_5">
      <!-- 40 -->
      <defs>
       <path d="
M37.7969 64.3125
L12.8906 25.3906
L37.7969 25.3906
z

M35.2031 72.9062
L47.6094 72.9062
L47.6094 25.3906
L58.0156 25.3906
L58.0156 17.1875
L47.6094 17.1875
L47.6094 0
L37.7969 0
L37.7969 17.1875
L4.89062 17.1875
L4.89062 26.7031
z
" id="BitstreamVeraSans-Roman-34"/>
      </defs>
      <g transform="translate(477.347121322 111.758125)scale(0.12 -0.12)">
       <use xlink:href="#BitstreamVeraSans-Roman-34"/>
       <use x="63.623046875" xlink:href="#BitstreamVeraSans-Roman-30"/>
      </g>
     </g>
    </g>
    <g id="xtick_6">
     <g id="line2d_12">
      <g>
       <use style="stroke:#000000;stroke-width:0.5;" x="591.730620402" xlink:href="#m93b0483c22" y="98.64"/>
      </g>
     </g>
     <g id="line2d_13">
      <g>
       <use style="stroke:#000000;stroke-width:0.5;" x="591.730620402" xlink:href="#m741efc42ff" y="12.96"/>
      </g>
     </g>
     <g id="text_6">
      <!-- 50 -->
      <defs>
       <path d="
M10.7969 72.9062
L49.5156 72.9062
L49.5156 64.5938
L19.8281 64.5938
L19.8281 46.7344
Q21.9688 47.4688 24.1094 47.8281
Q26.2656 48.1875 28.4219 48.1875
Q40.625 48.1875 47.75 41.5
Q54.8906 34.8125 54.8906 23.3906
Q54.8906 11.625 47.5625 5.09375
Q40.2344 -1.42188 26.9062 -1.42188
Q22.3125 -1.42188 17.5469 -0.640625
Q12.7969 0.140625 7.71875 1.70312
L7.71875 11.625
Q12.1094 9.23438 16.7969 8.0625
Q21.4844 6.89062 26.7031 6.89062
Q35.1562 6.89062 40.0781 11.3281
Q45.0156 15.7656 45.0156 23.3906
Q45.0156 31 40.0781 35.4375
Q35.1562 39.8906 26.7031 39.8906
Q22.75 39.8906 18.8125 39.0156
Q14.8906 38.1406 10.7969 36.2812
z
" id="BitstreamVeraSans-Roman-35"/>
      </defs>
      <g transform="translate(584.957182902 111.758125)scale(0.12 -0.12)">
       <use xlink:href="#BitstreamVeraSans-Roman-35"/>
       <use x="63.623046875" xlink:href="#BitstreamVeraSans-Roman-30"/>
      </g>
     </g>
    </g>
    <g id="xtick_7">
     <g id="line2d_14">
      <g>
       <use style="stroke:#000000;stroke-width:0.5;" x="699.170994483" xlink:href="#m93b0483c22" y="98.64"/>
      </g>
     </g>
     <g id="line2d_15">
      <g>
       <use style="stroke:#000000;stroke-width:0.5;" x="699.170994483" xlink:href="#m741efc42ff" y="12.96"/>
      </g>
     </g>
     <g id="text_7">
      <!-- 60 -->
      <defs>
       <path d="
M33.0156 40.375
Q26.375 40.375 22.4844 35.8281
Q18.6094 31.2969 18.6094 23.3906
Q18.6094 15.5312 22.4844 10.9531
Q26.375 6.39062 33.0156 6.39062
Q39.6562 6.39062 43.5312 10.9531
Q47.4062 15.5312 47.4062 23.3906
Q47.4062 31.2969 43.5312 35.8281
Q39.6562 40.375 33.0156 40.375
M52.5938 71.2969
L52.5938 62.3125
Q48.875 64.0625 45.0938 64.9844
Q41.3125 65.9219 37.5938 65.9219
Q27.8281 65.9219 22.6719 59.3281
Q17.5312 52.7344 16.7969 39.4062
Q19.6719 43.6562 24.0156 45.9219
Q28.375 48.1875 33.5938 48.1875
Q44.5781 48.1875 50.9531 41.5156
Q57.3281 34.8594 57.3281 23.3906
Q57.3281 12.1562 50.6875 5.35938
Q44.0469 -1.42188 33.0156 -1.42188
Q20.3594 -1.42188 13.6719 8.26562
Q6.98438 17.9688 6.98438 36.375
Q6.98438 53.6562 15.1875 63.9375
Q23.3906 74.2188 37.2031 74.2188
Q40.9219 74.2188 44.7031 73.4844
Q48.4844 72.75 52.5938 71.2969" id="BitstreamVeraSans-Roman-36"/>
      </defs>
      <g transform="translate(692.353494483 111.758125)scale(0.12 -0.12)">
       <use xlink:href="#BitstreamVeraSans-Roman-36"/>
       <use x="63.623046875" xlink:href="#BitstreamVeraSans-Roman-30"/>
      </g>
     </g>
    </g>
    <g id="text_8">
     <!-- Distance, km -->
     <defs>
      <path id="BitstreamVeraSans-Roman-20"/>
      <path d="
M54.8906 33.0156
L54.8906 0
L45.9062 0
L45.9062 32.7188
Q45.9062 40.4844 42.875 44.3281
Q39.8438 48.1875 33.7969 48.1875
Q26.5156 48.1875 22.3125 43.5469
Q18.1094 38.9219 18.1094 30.9062
L18.1094 0
L9.07812 0
L9.07812 54.6875
L18.1094 54.6875
L18.1094 46.1875
Q21.3438 51.125 25.7031 53.5625
Q30.0781 56 35.7969 56
Q45.2188 56 50.0469 50.1719
Q54.8906 44.3438 54.8906 33.0156" id="BitstreamVeraSans-Roman-6e"/>
      <path d="
M52 44.1875
Q55.375 50.25 60.0625 53.125
Q64.75 56 71.0938 56
Q79.6406 56 84.2812 50.0156
Q88.9219 44.0469 88.9219 33.0156
L88.9219 0
L79.8906 0
L79.8906 32.7188
Q79.8906 40.5781 77.0938 44.375
Q74.3125 48.1875 68.6094 48.1875
Q61.625 48.1875 57.5625 43.5469
Q53.5156 38.9219 53.5156 30.9062
L53.5156 0
L44.4844 0
L44.4844 32.7188
Q44.4844 40.625 41.7031 44.4062
Q38.9219 48.1875 33.1094 48.1875
Q26.2188 48.1875 22.1562 43.5312
Q18.1094 38.875 18.1094 30.9062
L18.1094 0
L9.07812 0
L9.07812 54.6875
L18.1094 54.6875
L18.1094 46.1875
Q21.1875 51.2188 25.4844 53.6094
Q29.7812 56 35.6875 56
Q41.6562 56 45.8281 52.9688
Q50 49.9531 52 44.1875" id="BitstreamVeraSans-Roman-6d"/>
      <path d="
M9.07812 75.9844
L18.1094 75.9844
L18.1094 31.1094
L44.9219 54.6875
L56.3906 54.6875
L27.3906 29.1094
L57.625 0
L45.9062 0
L18.1094 26.7031
L18.1094 0
L9.07812 0
z
" id="BitstreamVeraSans-Roman-6b"/>
      <path d="
M11.7188 12.4062
L22.0156 12.4062
L22.0156 4
L14.0156 -11.625
L7.71875 -11.625
L11.7188 4
z
" id="BitstreamVeraSans-Roman-2c"/>
      <path d="
M19.6719 64.7969
L19.6719 8.10938
L31.5938 8.10938
Q46.6875 8.10938 53.6875 14.9375
Q60.6875 21.7812 60.6875 36.5312
Q60.6875 51.1719 53.6875 57.9844
Q46.6875 64.7969 31.5938 64.7969
z

M9.8125 72.9062
L30.0781 72.9062
Q51.2656 72.9062 61.1719 64.0938
Q71.0938 55.2812 71.0938 36.5312
Q71.0938 17.6719 61.125 8.82812
Q51.1719 0 30.0781 0
L9.8125 0
z
" id="BitstreamVeraSans-Roman-44"/>
      <path d="
M9.42188 54.6875
L18.4062 54.6875
L18.4062 0
L9.42188 0
z

M9.42188 75.9844
L18.4062 75.9844
L18.4062 64.5938
L9.42188 64.5938
z
" id="BitstreamVeraSans-Roman-69"/>
      <path d="
M56.2031 29.5938
L56.2031 25.2031
L14.8906 25.2031
Q15.4844 15.9219 20.4844 11.0625
Q25.4844 6.20312 34.4219 6.20312
Q39.5938 6.20312 44.4531 7.46875
Q49.3125 8.73438 54.1094 11.2812
L54.1094 2.78125
Q49.2656 0.734375 44.1875 -0.34375
Q39.1094 -1.42188 33.8906 -1.42188
Q20.7969 -1.42188 13.1562 6.1875
Q5.51562 13.8125 5.51562 26.8125
Q5.51562 40.2344 12.7656 48.1094
Q20.0156 56 32.3281 56
Q43.3594 56 49.7812 48.8906
Q56.2031 41.7969 56.2031 29.5938
M47.2188 32.2344
Q47.125 39.5938 43.0938 43.9844
Q39.0625 48.3906 32.4219 48.3906
Q24.9062 48.3906 20.3906 44.1406
Q15.875 39.8906 15.1875 32.1719
z
" id="BitstreamVeraSans-Roman-65"/>
      <path d="
M18.3125 70.2188
L18.3125 54.6875
L36.8125 54.6875
L36.8125 47.7031
L18.3125 47.7031
L18.3125 18.0156
Q18.3125 11.3281 20.1406 9.42188
Q21.9688 7.51562 27.5938 7.51562
L36.8125 7.51562
L36.8125 0
L27.5938 0
Q17.1875 0 13.2344 3.875
Q9.28125 7.76562 9.28125 18.0156
L9.28125 47.7031
L2.6875 47.7031
L2.6875 54.6875
L9.28125 54.6875
L9.28125 70.2188
z
" id="BitstreamVeraSans-Roman-74"/>
      <path d="
M34.2812 27.4844
Q23.3906 27.4844 19.1875 25
Q14.9844 22.5156 14.9844 16.5
Q14.9844 11.7188 18.1406 8.90625
Q21.2969 6.10938 26.7031 6.10938
Q34.1875 6.10938 38.7031 11.4062
Q43.2188 16.7031 43.2188 25.4844
L43.2188 27.4844
z

M52.2031 31.2031
L52.2031 0
L43.2188 0
L43.2188 8.29688
Q40.1406 3.32812 35.5469 0.953125
Q30.9531 -1.42188 24.3125 -1.42188
Q15.9219 -1.42188 10.9531 3.29688
Q6 8.01562 6 15.9219
Q6 25.1406 12.1719 29.8281
Q18.3594 34.5156 30.6094 34.5156
L43.2188 34.5156
L43.2188 35.4062
Q43.2188 41.6094 39.1406 45
Q35.0625 48.3906 27.6875 48.3906
Q23 48.3906 18.5469 47.2656
Q14.1094 46.1406 10.0156 43.8906
L10.0156 52.2031
Q14.9375 54.1094 19.5781 55.0469
Q24.2188 56 28.6094 56
Q40.4844 56 46.3438 49.8438
Q52.2031 43.7031 52.2031 31.2031" id="BitstreamVeraSans-Roman-61"/>
      <path d="
M44.2812 53.0781
L44.2812 44.5781
Q40.4844 46.5312 36.375 47.5
Q32.2812 48.4844 27.875 48.4844
Q21.1875 48.4844 17.8438 46.4375
Q14.5 44.3906 14.5 40.2812
Q14.5 37.1562 16.8906 35.375
Q19.2812 33.5938 26.5156 31.9844
L29.5938 31.2969
Q39.1562 29.25 43.1875 25.5156
Q47.2188 21.7812 47.2188 15.0938
Q47.2188 7.46875 41.1875 3.01562
Q35.1562 -1.42188 24.6094 -1.42188
Q20.2188 -1.42188 15.4531 -0.5625
Q10.6875 0.296875 5.42188 2
L5.42188 11.2812
Q10.4062 8.6875 15.2344 7.39062
Q20.0625 6.10938 24.8125 6.10938
Q31.1562 6.10938 34.5625 8.28125
Q37.9844 10.4531 37.9844 14.4062
Q37.9844 18.0625 35.5156 20.0156
Q33.0625 21.9688 24.7031 23.7812
L21.5781 24.5156
Q13.2344 26.2656 9.51562 29.9062
Q5.8125 33.5469 5.8125 39.8906
Q5.8125 47.6094 11.2812 51.7969
Q16.75 56 26.8125 56
Q31.7812 56 36.1719 55.2656
Q40.5781 54.5469 44.2812 53.0781" id="BitstreamVeraSans-Roman-73"/>
      <path d="
M48.7812 52.5938
L48.7812 44.1875
Q44.9688 46.2969 41.1406 47.3438
Q37.3125 48.3906 33.4062 48.3906
Q24.6562 48.3906 19.8125 42.8438
Q14.9844 37.3125 14.9844 27.2969
Q14.9844 17.2812 19.8125 11.7344
Q24.6562 6.20312 33.4062 6.20312
Q37.3125 6.20312 41.1406 7.25
Q44.9688 8.29688 48.7812 10.4062
L48.7812 2.09375
Q45.0156 0.34375 40.9844 -0.53125
Q36.9688 -1.42188 32.4219 -1.42188
Q20.0625 -1.42188 12.7812 6.34375
Q5.51562 14.1094 5.51562 27.2969
Q5.51562 40.6719 12.8594 48.3281
Q20.2188 56 33.0156 56
Q37.1562 56 41.1094 55.1406
Q45.0625 54.2969 48.7812 52.5938" id="BitstreamVeraSans-Roman-63"/>
     </defs>
     <g transform="translate(341.493370733 128.371875)scale(0.12 -0.12)">
      <use xlink:href="#BitstreamVeraSans-Roman-44"/>
      <use x="77.001953125" xlink:href="#BitstreamVeraSans-Roman-69"/>
      <use x="104.78515625" xlink:href="#BitstreamVeraSans-Roman-73"/>
      <use x="156.884765625" xlink:href="#BitstreamVeraSans-Roman-74"/>
      <use x="196.09375" xlink:href="#BitstreamVeraSans-Roman-61"/>
      <use x="257.373046875" xlink:href="#BitstreamVeraSans-Roman-6e"/>
      <use x="320.751953125" xlink:href="#BitstreamVeraSans-Roman-63"/>
      <use x="375.732421875" xlink:href="#BitstreamVeraSans-Roman-65"/>
      <use x="437.255859375" xlink:href="#BitstreamVeraSans-Roman-2c"/>
      <use x="469.04296875" xlink:href="#BitstreamVeraSans-Roman-20"/>
      <use x="500.830078125" xlink:href="#BitstreamVeraSans-Roman-6b"/>
      <use x="558.740234375" xlink:href="#BitstreamVeraSans-Roman-6d"/>
     </g>
    </g>
   </g>
   <g id="matplotlib.axis_2">
    <g id="ytick_1">
     <g id="line2d_16">
      <defs>
       <path d="
M0 0
L4 0" id="m728421d6d4" style="stroke:#000000;stroke-width:0.5;"/>
      </defs>
      <g>
       <use style="stroke:#000000;stroke-width:0.5;" x="54.52875" xlink:href="#m728421d6d4" y="98.64"/>
      </g>
     </g>
     <g id="line2d_17">
      <defs>
       <path d="
M0 0
L-4 0" id="mcb0005524f" style="stroke:#000000;stroke-width:0.5;"/>
      </defs>
      <g>
       <use style="stroke:#000000;stroke-width:0.5;" x="706.174866466" xlink:href="#mcb0005524f" y="98.64"/>
      </g>
     </g>
     <g id="text_9">
      <!-- 0 -->
      <g transform="translate(44.481875 101.95125)scale(0.12 -0.12)">
       <use xlink:href="#BitstreamVeraSans-Roman-30"/>
      </g>
     </g>
    </g>
    <g id="ytick_2">
     <g id="line2d_18">
      <g>
       <use style="stroke:#000000;stroke-width:0.5;" x="54.52875" xlink:href="#m728421d6d4" y="75.7309090909"/>
      </g>
     </g>
     <g id="line2d_19">
      <g>
       <use style="stroke:#000000;stroke-width:0.5;" x="706.174866466" xlink:href="#mcb0005524f" y="75.7309090909"/>
      </g>
     </g>
     <g id="text_10">
      <!-- 50 -->
      <g transform="translate(36.981875 79.0421590909)scale(0.12 -0.12)">
       <use xlink:href="#BitstreamVeraSans-Roman-35"/>
       <use x="63.623046875" xlink:href="#BitstreamVeraSans-Roman-30"/>
      </g>
     </g>
    </g>
    <g id="ytick_3">
     <g id="line2d_20">
      <g>
       <use style="stroke:#000000;stroke-width:0.5;" x="54.52875" xlink:href="#m728421d6d4" y="52.8218181818"/>
      </g>
     </g>
     <g id="line2d_21">
      <g>
       <use style="stroke:#000000;stroke-width:0.5;" x="706.174866466" xlink:href="#mcb0005524f" y="52.8218181818"/>
      </g>
     </g>
     <g id="text_11">
      <!-- 100 -->
      <g transform="translate(29.73875 56.1330681818)scale(0.12 -0.12)">
       <use xlink:href="#BitstreamVeraSans-Roman-31"/>
       <use x="63.623046875" xlink:href="#BitstreamVeraSans-Roman-30"/>
       <use x="127.24609375" xlink:href="#BitstreamVeraSans-Roman-30"/>
      </g>
     </g>
    </g>
    <g id="ytick_4">
     <g id="line2d_22">
      <g>
       <use style="stroke:#000000;stroke-width:0.5;" x="54.52875" xlink:href="#m728421d6d4" y="29.9127272727"/>
      </g>
     </g>
     <g id="line2d_23">
      <g>
       <use style="stroke:#000000;stroke-width:0.5;" x="706.174866466" xlink:href="#mcb0005524f" y="29.9127272727"/>
      </g>
     </g>
     <g id="text_12">
      <!-- 150 -->
      <g transform="translate(29.73875 33.2239772727)scale(0.12 -0.12)">
       <use xlink:href="#BitstreamVeraSans-Roman-31"/>
       <use x="63.623046875" xlink:href="#BitstreamVeraSans-Roman-35"/>
       <use x="127.24609375" xlink:href="#BitstreamVeraSans-Roman-30"/>
      </g>
     </g>
    </g>
    <g id="text_13">
     <!-- Elevation, m -->
     <defs>
      <path d="
M2.98438 54.6875
L12.5 54.6875
L29.5938 8.79688
L46.6875 54.6875
L56.2031 54.6875
L35.6875 0
L23.4844 0
z
" id="BitstreamVeraSans-Roman-76"/>
      <path d="
M9.8125 72.9062
L55.9062 72.9062
L55.9062 64.5938
L19.6719 64.5938
L19.6719 43.0156
L54.3906 43.0156
L54.3906 34.7188
L19.6719 34.7188
L19.6719 8.29688
L56.7812 8.29688
L56.7812 0
L9.8125 0
z
" id="BitstreamVeraSans-Roman-45"/>
      <path d="
M30.6094 48.3906
Q23.3906 48.3906 19.1875 42.75
Q14.9844 37.1094 14.9844 27.2969
Q14.9844 17.4844 19.1562 11.8438
Q23.3438 6.20312 30.6094 6.20312
Q37.7969 6.20312 41.9844 11.8594
Q46.1875 17.5312 46.1875 27.2969
Q46.1875 37.0156 41.9844 42.7031
Q37.7969 48.3906 30.6094 48.3906
M30.6094 56
Q42.3281 56 49.0156 48.375
Q55.7188 40.7656 55.7188 27.2969
Q55.7188 13.875 49.0156 6.21875
Q42.3281 -1.42188 30.6094 -1.42188
Q18.8438 -1.42188 12.1719 6.21875
Q5.51562 13.875 5.51562 27.2969
Q5.51562 40.7656 12.1719 48.375
Q18.8438 56 30.6094 56" id="BitstreamVeraSans-Roman-6f"/>
      <path d="
M9.42188 75.9844
L18.4062 75.9844
L18.4062 0
L9.42188 0
z
" id="BitstreamVeraSans-Roman-6c"/>
     </defs>
     <g transform="translate(22.243125 92.82)rotate(-90.0)scale(0.12 -0.12)">
      <use xlink:href="#BitstreamVeraSans-Roman-45"/>
      <use x="63.18359375" xlink:href="#BitstreamVeraSans-Roman-6c"/>
      <use x="90.966796875" xlink:href="#BitstreamVeraSans-Roman-65"/>
      <use x="152.490234375" xlink:href="#BitstreamVeraSans-Roman-76"/>
      <use x="211.669921875" xlink:href="#BitstreamVeraSans-Roman-61"/>
      <use x="272.94921875" xlink:href="#BitstreamVeraSans-Roman-74"/>
      <use x="312.158203125" xlink:href="#BitstreamVeraSans-Roman-69"/>
      <use x="339.94140625" xlink:href="#BitstreamVeraSans-Roman-6f"/>
      <use x="401.123046875" xlink:href="#BitstreamVeraSans-Roman-6e"/>
      <use x="464.501953125" xlink:href="#BitstreamVeraSans-Roman-2c"/>
      <use x="496.2890625" xlink:href="#BitstreamVeraSans-Roman-20"/>
      <use x="528.076171875" xlink:href="#BitstreamVeraSans-Roman-6d"/>
     </g>
    </g>
   </g>
   <g id="patch_3">
    <path d="
M54.5288 12.96
L706.175 12.96" style="fill:none;stroke:#000000;"/>
   </g>
   <g id="patch_4">
    <path d="
M706.175 98.64
L706.175 12.96" style="fill:none;stroke:#000000;"/>
   </g>
   <g id="patch_5">
    <path d="
M54.5288 98.64
L706.175 98.64" style="fill:none;stroke:#000000;"/>
   </g>
   <g id="patch_6">
    <path d="
M54.5288 98.64
L54.5288 12.96" style="fill:none;stroke:#000000;"/>
   </g>
  </g>
 </g>
 <defs>
  <clipPath id="p754e2e3ea4">
   <rect height="85.68" width="651.646116466" x="54.52875" y="12.96"/>
  </clipPath>
 </defs>
</svg>
