<?xml version="1.0" encoding="utf-8" standalone="no"?>
<!DOCTYPE svg PUBLIC "-//W3C//DTD SVG 1.1//EN"
  "http://www.w3.org/Graphics/SVG/1.1/DTD/svg11.dtd">
<!-- Created with matplotlib (http://matplotlib.org/) -->
<svg height="144pt" version="1.1" viewBox="0 0 720 144" width="720pt" xmlns="http://www.w3.org/2000/svg" xmlns:xlink="http://www.w3.org/1999/xlink">
 <defs>
  <style type="text/css">
*{stroke-linecap:square;stroke-linejoin:round;}
  </style>
 </defs>
 <g id="figure_1">
  <g id="patch_1">
   <path d="
M0 144
L720 144
L720 0
L0 0
z
" style="fill:#ffffff;"/>
  </g>
  <g id="axes_1">
   <g id="patch_2">
    <path d="
M54.4303 101.34
L706.224 101.34
L706.224 12.96
L54.4303 12.96
z
" style="fill:#ffffff;"/>
   </g>
   <g id="PolyCollection_1">
    <defs>
     <path d="
M54.4303 -42.66
L54.4303 -62.9827
L54.8908 -62.9827
L55.8389 -63.4553
L56.9231 -63.9279
L60.3485 -63.4553
L61.7178 -61.5648
L61.8549 -61.0922
L62.1358 -61.0922
L62.8664 -61.0922
L66.053 -61.0922
L67.035 -61.0922
L67.6489 -61.0922
L68.4837 -61.5648
L69.4704 -62.5101
L70.603 -63.4553
L70.9136 -64.4005
L71.4642 -65.8184
L71.836 -67.2363
L78.0613 -73.8529
L79.3696 -76.6887
L79.8045 -78.1065
L80.4737 -80.9422
L81.7639 -86.1411
L82.6885 -88.0316
L82.9187 -88.5042
L83.1735 -88.5042
L84.8101 -90.3947
L85.8144 -89.922
L86.5834 -89.922
L87.4959 -89.4494
L89.0131 -88.9768
L89.0222 -88.5042
L89.5073 -88.5042
L90.5145 -88.0316
L90.8597 -87.5589
L91.1606 -87.0863
L96.0207 -82.3601
L96.342 -80.9422
L98.6248 -73.8529
L99.3621 -73.8529
L99.7122 -73.8529
L102.329 -74.7982
L104.509 -69.1267
L105.083 -68.6541
L107.011 -67.7089
L107.011 -67.7089
L123.606 -54.4755
L123.929 -54.0029
L124.049 -54.0029
L125.458 -52.585
L127.29 -53.0576
L128.485 -53.5303
L131.76 -56.366
L136.332 -59.2017
L136.332 -59.2017
L137.523 -54.9481
L137.86 -54.0029
L138.327 -53.5303
L139.016 -52.585
L139.216 -52.1124
L139.585 -52.1124
L142.479 -52.1124
L143.138 -53.0576
L143.552 -53.5303
L143.837 -54.4755
L144.371 -54.4755
L155.857 -56.366
L156.264 -56.366
L167.46 -58.2565
L168.319 -57.7839
L169.565 -57.7839
L169.565 -57.7839
L170.812 -57.7839
L171.671 -57.7839
L176.793 -60.147
L183.107 -60.147
L185.394 -60.6196
L196.596 -61.0922
L203.892 -64.4005
L204.78 -63.9279
L205.694 -63.9279
L206.435 -63.9279
L209.566 -65.3458
L209.578 -65.3458
L209.578 -65.3458
L209.814 -65.3458
L210.859 -65.8184
L212.267 -66.7636
L213.189 -67.2363
L213.941 -68.1815
L215.071 -69.1267
L216.429 -70.5446
L217.083 -70.5446
L217.872 -71.4898
L218.771 -72.9077
L219.149 -73.8529
L219.526 -73.8529
L219.909 -74.3256
L220.853 -75.2708
L221.287 -75.7434
L221.831 -76.216
L222.347 -77.1613
L223.802 -79.997
L224.23 -79.997
L225.766 -81.8875
L227.066 -81.8875
L228.015 -82.8327
L228.472 -83.3053
L228.832 -83.778
L229.514 -84.7232
L230.098 -85.6684
L230.49 -86.6137
L231.486 -89.4494
L231.594 -89.4494
L232.041 -89.922
L234.716 -93.2304
L235.456 -91.3399
L235.846 -90.8673
L236.672 -91.8125
L241.738 -100.792
L242.336 -101.265
L242.531 -101.738
L243.655 -103.155
L245.714 -106.936
L246.557 -108.354
L247.142 -109.772
L247.578 -110.717
L247.961 -111.663
L248.225 -112.135
L249.673 -115.916
L249.854 -115.916
L250.052 -116.389
L250.508 -117.807
L251.212 -119.697
L251.469 -119.697
L251.819 -119.697
L252.547 -120.17
L252.88 -120.17
L253.172 -120.17
L253.883 -120.17
L254.567 -120.17
L255.107 -120.642
L255.428 -120.642
L256.004 -120.642
L256.272 -121.115
L257.043 -120.17
L258.087 -119.224
L258.525 -118.752
L259.405 -117.807
L259.924 -117.807
L260.224 -117.807
L260.224 -117.807
L260.224 -117.807
L260.866 -116.861
L262.669 -114.498
L262.956 -113.08
L263.111 -112.608
L263.905 -110.245
L264.3 -109.299
L265.451 -108.354
L265.944 -109.299
L266.507 -110.245
L267.361 -112.608
L273.364 -118.752
L277.057 -117.334
L279.307 -120.17
L282.991 -122.533
L284.691 -121.588
L285.978 -121.115
L292.095 -120.642
L294.59 -122.06
L294.843 -121.588
L295.161 -121.588
L296.289 -121.588
L297.11 -120.642
L297.755 -120.17
L298.355 -119.697
L298.945 -119.697
L300.779 -116.861
L301.03 -116.389
L301.717 -115.916
L302.173 -115.916
L303.458 -114.026
L303.989 -112.135
L304.333 -111.19
L304.68 -110.717
L305.347 -108.354
L305.634 -107.409
L307.131 -103.155
L307.762 -100.792
L308.731 -97.484
L309.39 -94.6482
L310.056 -92.2851
L311.525 -88.0316
L311.525 -88.0316
L312.209 -85.1958
L313.161 -82.3601
L314.493 -77.1613
L315.961 -74.3256
L317.954 -68.6541
L318.238 -67.7089
L319.569 -65.8184
L320.935 -63.9279
L321.654 -62.0374
L322.257 -61.0922
L323.004 -61.0922
L323.574 -61.0922
L323.897 -60.147
L324.341 -59.2017
L325.026 -58.2565
L325.809 -58.2565
L326.19 -58.2565
L327.263 -57.7839
L327.759 -57.3112
L329.897 -55.8934
L330.507 -55.4207
L330.945 -54.9481
L332.613 -54.4755
L333.199 -55.4207
L333.815 -56.8386
L334.064 -57.3112
L334.659 -58.2565
L335.105 -59.6743
L335.917 -58.7291
L336.745 -57.7839
L337.08 -56.8386
L337.73 -55.8934
L339.399 -53.0576
L340.562 -53.0576
L342.743 -54.9481
L343.976 -54.9481
L344.132 -54.9481
L344.335 -54.9481
L345.111 -55.4207
L345.367 -55.8934
L346.642 -57.3112
L348.244 -57.3112
L349.043 -56.366
L349.868 -55.8934
L349.868 -55.8934
L350.842 -54.9481
L351.66 -54.9481
L352.044 -54.9481
L368.329 -54.9481
L369.478 -54.0029
L370.869 -54.4755
L370.984 -54.4755
L371.195 -54.4755
L372.832 -56.366
L379.402 -54.9481
L379.58 -54.4755
L379.8 -54.4755
L383.549 -54.0029
L383.948 -53.5303
L384.512 -53.0576
L385.18 -53.0576
L385.947 -53.5303
L386.48 -53.5303
L387.388 -54.4755
L387.388 -54.4755
L389.479 -55.4207
L390.76 -54.9481
L390.993 -54.4755
L391.304 -54.4755
L393.209 -54.0029
L394.368 -55.4207
L394.749 -54.9481
L395.619 -54.9481
L397.194 -54.4755
L398.743 -54.9481
L400.028 -56.366
L400.037 -55.8934
L401.864 -55.8934
L402.905 -56.8386
L404.578 -58.7291
L406.441 -57.3112
L409.293 -58.7291
L410.082 -59.2017
L410.735 -60.147
L411.378 -62.0374
L414.534 -73.3803
L414.543 -73.3803
L415.987 -76.216
L416.838 -74.3256
L422.363 -64.4005
L423.913 -60.6196
L425.774 -66.291
L426.254 -66.291
L426.495 -66.7636
L429.375 -69.1267
L434.417 -62.9827
L441.779 -62.5101
L441.779 -62.5101
L443.323 -62.9827
L443.615 -62.5101
L443.895 -62.0374
L445.499 -60.147
L448.829 -63.4553
L448.961 -62.9827
L449.511 -61.5648
L450.73 -59.2017
L451.512 -57.7839
L451.672 -57.7839
L452.565 -56.8386
L453.593 -61.5648
L453.857 -62.9827
L454.161 -63.9279
L454.476 -65.3458
L456.173 -73.3803
L456.594 -72.4351
L457.588 -71.0172
L460.524 -64.4005
L462.562 -62.9827
L464.635 -61.5648
L466.25 -62.5101
L466.846 -62.5101
L467.186 -62.9827
L467.702 -63.4553
L468.375 -62.9827
L469.144 -62.5101
L470.693 -61.0922
L474.261 -62.9827
L474.633 -62.9827
L475.501 -62.9827
L475.852 -62.9827
L476.299 -62.9827
L477.572 -62.9827
L480.873 -62.9827
L483.286 -64.8732
L483.769 -64.8732
L485.118 -64.8732
L486.387 -66.291
L493.364 -75.2708
L493.374 -75.2708
L497.817 -79.5244
L499.918 -85.6684
L502.901 -93.703
L503.797 -95.1209
L504.711 -97.484
L504.995 -97.9566
L505.893 -100.32
L506.295 -101.265
L506.739 -102.683
L507.871 -106.936
L508.438 -107.882
L509.469 -110.717
L510.666 -112.135
L511.439 -112.135
L512.151 -112.608
L513.989 -114.971
L515.379 -115.916
L515.821 -116.389
L516.629 -117.807
L516.933 -118.752
L517.58 -121.115
L517.769 -122.06
L518.5 -122.06
L518.811 -122.533
L519.425 -123.005
L520.616 -121.588
L521.16 -119.697
L521.799 -117.807
L522.206 -117.807
L522.669 -118.279
L523.886 -119.697
L525.609 -118.752
L526.287 -119.224
L526.584 -119.224
L528.298 -121.115
L528.704 -119.224
L529.725 -115.444
L530.229 -113.553
L530.983 -111.663
L531.476 -110.717
L531.584 -110.245
L532.504 -108.827
L534.494 -106.464
L536.194 -104.573
L538.537 -102.683
L538.875 -101.738
L543.571 -90.3947
L545.297 -87.0863
L548.138 -85.6684
L548.953 -87.0863
L552.318 -93.2304
L553.15 -96.0661
L553.307 -96.5387
L554.632 -101.738
L555.067 -101.265
L557.357 -99.3744
L563.144 -81.8875
L563.267 -81.4149
L563.54 -80.9422
L569.185 -69.1267
L569.364 -69.1267
L573.103 -69.1267
L573.115 -68.6541
L578.088 -64.8732
L578.917 -63.9279
L584.923 -60.6196
L596.951 -71.0172
L600.056 -73.3803
L602.337 -79.997
L609.178 -79.5244
L609.273 -79.5244
L613.162 -86.1411
L613.174 -86.1411
L615.586 -91.8125
L617.575 -95.5935
L619.063 -93.703
L619.428 -93.703
L619.672 -93.703
L621.114 -93.703
L621.306 -94.1756
L621.315 -94.1756
L622.319 -96.5387
L622.911 -97.9566
L623.644 -96.5387
L624.679 -95.1209
L625.88 -93.2304
L626.307 -93.2304
L627.106 -93.703
L627.789 -94.1756
L628.954 -95.1209
L631.192 -94.1756
L631.501 -93.2304
L633.379 -89.922
L633.85 -90.3947
L634.875 -92.2851
L635.726 -92.2851
L635.987 -92.7578
L637.115 -92.2851
L639.503 -89.4494
L640.948 -88.5042
L641.893 -88.9768
L642.548 -89.4494
L645.066 -89.4494
L645.066 -89.4494
L651.04 -89.4494
L654.107 -86.6137
L656.189 -86.1411
L657.295 -88.9768
L659.211 -86.6137
L661.103 -86.1411
L664.02 -88.9768
L664.339 -88.5042
L664.664 -88.5042
L666.059 -88.5042
L667.843 -89.4494
L668.645 -89.4494
L669.524 -90.3947
L670.528 -89.4494
L672.165 -88.9768
L672.535 -88.0316
L673.571 -86.1411
L675.1 -79.997
L675.964 -77.1613
L677.273 -73.8529
L678.771 -70.5446
L679.23 -71.0172
L679.467 -71.4898
L680.182 -72.9077
L680.452 -73.3803
L680.452 -73.3803
L680.721 -72.4351
L681.437 -71.0172
L681.673 -71.0172
L682.132 -70.5446
L687.038 -66.7636
L687.41 -65.8184
L687.928 -64.8732
L689.222 -62.5101
L690.209 -61.5648
L691.044 -61.0922
L691.658 -61.0922
L692.353 -61.0922
L692.86 -61.0922
L695.967 -61.5648
L696.493 -61.5648
L697.42 -62.0374
L698.323 -62.0374
L698.67 -62.5101
L698.961 -62.5101
L699.662 -63.4553
L701.892 -66.291
L702.469 -66.291
L702.789 -66.291
L704.744 -66.291
L705.064 -65.8184
L705.344 -65.8184
L705.75 -65.3458
L706.224 -65.3458
L706.224 -42.66
L706.224 -42.66
L705.75 -42.66
L705.344 -42.66
L705.064 -42.66
L704.744 -42.66
L702.789 -42.66
L702.469 -42.66
L701.892 -42.66
L699.662 -42.66
L698.961 -42.66
L698.67 -42.66
L698.323 -42.66
L697.42 -42.66
L696.493 -42.66
L695.967 -42.66
L692.86 -42.66
L692.353 -42.66
L691.658 -42.66
L691.044 -42.66
L690.209 -42.66
L689.222 -42.66
L687.928 -42.66
L687.41 -42.66
L687.038 -42.66
L682.132 -42.66
L681.673 -42.66
L681.437 -42.66
L680.721 -42.66
L680.452 -42.66
L680.452 -42.66
L680.182 -42.66
L679.467 -42.66
L679.23 -42.66
L678.771 -42.66
L677.273 -42.66
L675.964 -42.66
L675.1 -42.66
L673.571 -42.66
L672.535 -42.66
L672.165 -42.66
L670.528 -42.66
L669.524 -42.66
L668.645 -42.66
L667.843 -42.66
L666.059 -42.66
L664.664 -42.66
L664.339 -42.66
L664.02 -42.66
L661.103 -42.66
L659.211 -42.66
L657.295 -42.66
L656.189 -42.66
L654.107 -42.66
L651.04 -42.66
L645.066 -42.66
L645.066 -42.66
L642.548 -42.66
L641.893 -42.66
L640.948 -42.66
L639.503 -42.66
L637.115 -42.66
L635.987 -42.66
L635.726 -42.66
L634.875 -42.66
L633.85 -42.66
L633.379 -42.66
L631.501 -42.66
L631.192 -42.66
L628.954 -42.66
L627.789 -42.66
L627.106 -42.66
L626.307 -42.66
L625.88 -42.66
L624.679 -42.66
L623.644 -42.66
L622.911 -42.66
L622.319 -42.66
L621.315 -42.66
L621.306 -42.66
L621.114 -42.66
L619.672 -42.66
L619.428 -42.66
L619.063 -42.66
L617.575 -42.66
L615.586 -42.66
L613.174 -42.66
L613.162 -42.66
L609.273 -42.66
L609.178 -42.66
L602.337 -42.66
L600.056 -42.66
L596.951 -42.66
L584.923 -42.66
L578.917 -42.66
L578.088 -42.66
L573.115 -42.66
L573.103 -42.66
L569.364 -42.66
L569.185 -42.66
L563.54 -42.66
L563.267 -42.66
L563.144 -42.66
L557.357 -42.66
L555.067 -42.66
L554.632 -42.66
L553.307 -42.66
L553.15 -42.66
L552.318 -42.66
L548.953 -42.66
L548.138 -42.66
L545.297 -42.66
L543.571 -42.66
L538.875 -42.66
L538.537 -42.66
L536.194 -42.66
L534.494 -42.66
L532.504 -42.66
L531.584 -42.66
L531.476 -42.66
L530.983 -42.66
L530.229 -42.66
L529.725 -42.66
L528.704 -42.66
L528.298 -42.66
L526.584 -42.66
L526.287 -42.66
L525.609 -42.66
L523.886 -42.66
L522.669 -42.66
L522.206 -42.66
L521.799 -42.66
L521.16 -42.66
L520.616 -42.66
L519.425 -42.66
L518.811 -42.66
L518.5 -42.66
L517.769 -42.66
L517.58 -42.66
L516.933 -42.66
L516.629 -42.66
L515.821 -42.66
L515.379 -42.66
L513.989 -42.66
L512.151 -42.66
L511.439 -42.66
L510.666 -42.66
L509.469 -42.66
L508.438 -42.66
L507.871 -42.66
L506.739 -42.66
L506.295 -42.66
L505.893 -42.66
L504.995 -42.66
L504.711 -42.66
L503.797 -42.66
L502.901 -42.66
L499.918 -42.66
L497.817 -42.66
L493.374 -42.66
L493.364 -42.66
L486.387 -42.66
L485.118 -42.66
L483.769 -42.66
L483.286 -42.66
L480.873 -42.66
L477.572 -42.66
L476.299 -42.66
L475.852 -42.66
L475.501 -42.66
L474.633 -42.66
L474.261 -42.66
L470.693 -42.66
L469.144 -42.66
L468.375 -42.66
L467.702 -42.66
L467.186 -42.66
L466.846 -42.66
L466.25 -42.66
L464.635 -42.66
L462.562 -42.66
L460.524 -42.66
L457.588 -42.66
L456.594 -42.66
L456.173 -42.66
L454.476 -42.66
L454.161 -42.66
L453.857 -42.66
L453.593 -42.66
L452.565 -42.66
L451.672 -42.66
L451.512 -42.66
L450.73 -42.66
L449.511 -42.66
L448.961 -42.66
L448.829 -42.66
L445.499 -42.66
L443.895 -42.66
L443.615 -42.66
L443.323 -42.66
L441.779 -42.66
L441.779 -42.66
L434.417 -42.66
L429.375 -42.66
L426.495 -42.66
L426.254 -42.66
L425.774 -42.66
L423.913 -42.66
L422.363 -42.66
L416.838 -42.66
L415.987 -42.66
L414.543 -42.66
L414.534 -42.66
L411.378 -42.66
L410.735 -42.66
L410.082 -42.66
L409.293 -42.66
L406.441 -42.66
L404.578 -42.66
L402.905 -42.66
L401.864 -42.66
L400.037 -42.66
L400.028 -42.66
L398.743 -42.66
L397.194 -42.66
L395.619 -42.66
L394.749 -42.66
L394.368 -42.66
L393.209 -42.66
L391.304 -42.66
L390.993 -42.66
L390.76 -42.66
L389.479 -42.66
L387.388 -42.66
L387.388 -42.66
L386.48 -42.66
L385.947 -42.66
L385.18 -42.66
L384.512 -42.66
L383.948 -42.66
L383.549 -42.66
L379.8 -42.66
L379.58 -42.66
L379.402 -42.66
L372.832 -42.66
L371.195 -42.66
L370.984 -42.66
L370.869 -42.66
L369.478 -42.66
L368.329 -42.66
L352.044 -42.66
L351.66 -42.66
L350.842 -42.66
L349.868 -42.66
L349.868 -42.66
L349.043 -42.66
L348.244 -42.66
L346.642 -42.66
L345.367 -42.66
L345.111 -42.66
L344.335 -42.66
L344.132 -42.66
L343.976 -42.66
L342.743 -42.66
L340.562 -42.66
L339.399 -42.66
L337.73 -42.66
L337.08 -42.66
L336.745 -42.66
L335.917 -42.66
L335.105 -42.66
L334.659 -42.66
L334.064 -42.66
L333.815 -42.66
L333.199 -42.66
L332.613 -42.66
L330.945 -42.66
L330.507 -42.66
L329.897 -42.66
L327.759 -42.66
L327.263 -42.66
L326.19 -42.66
L325.809 -42.66
L325.026 -42.66
L324.341 -42.66
L323.897 -42.66
L323.574 -42.66
L323.004 -42.66
L322.257 -42.66
L321.654 -42.66
L320.935 -42.66
L319.569 -42.66
L318.238 -42.66
L317.954 -42.66
L315.961 -42.66
L314.493 -42.66
L313.161 -42.66
L312.209 -42.66
L311.525 -42.66
L311.525 -42.66
L310.056 -42.66
L309.39 -42.66
L308.731 -42.66
L307.762 -42.66
L307.131 -42.66
L305.634 -42.66
L305.347 -42.66
L304.68 -42.66
L304.333 -42.66
L303.989 -42.66
L303.458 -42.66
L302.173 -42.66
L301.717 -42.66
L301.03 -42.66
L300.779 -42.66
L298.945 -42.66
L298.355 -42.66
L297.755 -42.66
L297.11 -42.66
L296.289 -42.66
L295.161 -42.66
L294.843 -42.66
L294.59 -42.66
L292.095 -42.66
L285.978 -42.66
L284.691 -42.66
L282.991 -42.66
L279.307 -42.66
L277.057 -42.66
L273.364 -42.66
L267.361 -42.66
L266.507 -42.66
L265.944 -42.66
L265.451 -42.66
L264.3 -42.66
L263.905 -42.66
L263.111 -42.66
L262.956 -42.66
L262.669 -42.66
L260.866 -42.66
L260.224 -42.66
L260.224 -42.66
L260.224 -42.66
L259.924 -42.66
L259.405 -42.66
L258.525 -42.66
L258.087 -42.66
L257.043 -42.66
L256.272 -42.66
L256.004 -42.66
L255.428 -42.66
L255.107 -42.66
L254.567 -42.66
L253.883 -42.66
L253.172 -42.66
L252.88 -42.66
L252.547 -42.66
L251.819 -42.66
L251.469 -42.66
L251.212 -42.66
L250.508 -42.66
L250.052 -42.66
L249.854 -42.66
L249.673 -42.66
L248.225 -42.66
L247.961 -42.66
L247.578 -42.66
L247.142 -42.66
L246.557 -42.66
L245.714 -42.66
L243.655 -42.66
L242.531 -42.66
L242.336 -42.66
L241.738 -42.66
L236.672 -42.66
L235.846 -42.66
L235.456 -42.66
L234.716 -42.66
L232.041 -42.66
L231.594 -42.66
L231.486 -42.66
L230.49 -42.66
L230.098 -42.66
L229.514 -42.66
L228.832 -42.66
L228.472 -42.66
L228.015 -42.66
L227.066 -42.66
L225.766 -42.66
L224.23 -42.66
L223.802 -42.66
L222.347 -42.66
L221.831 -42.66
L221.287 -42.66
L220.853 -42.66
L219.909 -42.66
L219.526 -42.66
L219.149 -42.66
L218.771 -42.66
L217.872 -42.66
L217.083 -42.66
L216.429 -42.66
L215.071 -42.66
L213.941 -42.66
L213.189 -42.66
L212.267 -42.66
L210.859 -42.66
L209.814 -42.66
L209.578 -42.66
L209.578 -42.66
L209.566 -42.66
L206.435 -42.66
L205.694 -42.66
L204.78 -42.66
L203.892 -42.66
L196.596 -42.66
L185.394 -42.66
L183.107 -42.66
L176.793 -42.66
L171.671 -42.66
L170.812 -42.66
L169.565 -42.66
L169.565 -42.66
L168.319 -42.66
L167.46 -42.66
L156.264 -42.66
L155.857 -42.66
L144.371 -42.66
L143.837 -42.66
L143.552 -42.66
L143.138 -42.66
L142.479 -42.66
L139.585 -42.66
L139.216 -42.66
L139.016 -42.66
L138.327 -42.66
L137.86 -42.66
L137.523 -42.66
L136.332 -42.66
L136.332 -42.66
L131.76 -42.66
L128.485 -42.66
L127.29 -42.66
L125.458 -42.66
L124.049 -42.66
L123.929 -42.66
L123.606 -42.66
L107.011 -42.66
L107.011 -42.66
L105.083 -42.66
L104.509 -42.66
L102.329 -42.66
L99.7122 -42.66
L99.3621 -42.66
L98.6248 -42.66
L96.342 -42.66
L96.0207 -42.66
L91.1606 -42.66
L90.8597 -42.66
L90.5145 -42.66
L89.5073 -42.66
L89.0222 -42.66
L89.0131 -42.66
L87.4959 -42.66
L86.5834 -42.66
L85.8144 -42.66
L84.8101 -42.66
L83.1735 -42.66
L82.9187 -42.66
L82.6885 -42.66
L81.7639 -42.66
L80.4737 -42.66
L79.8045 -42.66
L79.3696 -42.66
L78.0613 -42.66
L71.836 -42.66
L71.4642 -42.66
L70.9136 -42.66
L70.603 -42.66
L69.4704 -42.66
L68.4837 -42.66
L67.6489 -42.66
L67.035 -42.66
L66.053 -42.66
L62.8664 -42.66
L62.1358 -42.66
L61.8549 -42.66
L61.7178 -42.66
L60.3485 -42.66
L56.9231 -42.66
L55.8389 -42.66
L54.8908 -42.66
L54.4303 -42.66
z
" id="C0_0_7e91fa4321"/>
    </defs>
    <g clip-path="url(#p01a9df044e)">
     <use style="fill:#0000ff;opacity:0.3;stroke:#0000ff;stroke-linecap:butt;" x="0" xlink:href="#C0_0_7e91fa4321" y="144.0"/>
    </g>
   </g>
   <g id="line2d_1">
    <path clip-path="url(#p01a9df044e)" d="
M54.4303 81.0173
L54.8908 81.0173
L56.9231 80.0721
L60.3485 80.5447
L61.7178 82.4352
L61.8549 82.9078
L67.6489 82.9078
L68.4837 82.4352
L70.603 80.5447
L71.836 76.7637
L78.0613 70.1471
L79.3696 67.3113
L79.8045 65.8935
L81.7639 57.8589
L82.9187 55.4958
L83.1735 55.4958
L84.8101 53.6053
L85.8144 54.078
L86.5834 54.078
L87.4959 54.5506
L89.0131 55.0232
L89.0222 55.4958
L89.5073 55.4958
L90.5145 55.9684
L91.1606 56.9137
L96.0207 61.6399
L96.342 63.0578
L98.6248 70.1471
L99.7122 70.1471
L102.329 69.2018
L104.509 74.8733
L105.083 75.3459
L107.011 76.2911
L107.011 76.2911
L123.606 89.5245
L124.049 89.9971
L125.458 91.415
L127.29 90.9424
L128.485 90.4697
L131.76 87.634
L136.332 84.7983
L136.332 84.7983
L137.86 89.9971
L138.327 90.4697
L139.016 91.415
L139.216 91.8876
L142.479 91.8876
L143.552 90.4697
L143.837 89.5245
L144.371 89.5245
L167.46 85.7435
L168.319 86.2161
L171.671 86.2161
L176.793 83.853
L183.107 83.853
L185.394 83.3804
L196.596 82.9078
L203.892 79.5995
L204.78 80.0721
L206.435 80.0721
L210.859 78.1816
L212.267 77.2364
L213.189 76.7637
L213.941 75.8185
L215.071 74.8733
L216.429 73.4554
L217.083 73.4554
L217.872 72.5102
L218.771 71.0923
L219.149 70.1471
L219.526 70.1471
L219.909 69.6744
L221.831 67.784
L223.802 64.003
L224.23 64.003
L225.766 62.1125
L227.066 62.1125
L228.832 60.222
L230.098 58.3316
L230.49 57.3863
L231.594 54.5506
L232.041 54.078
L234.716 50.7696
L235.456 52.6601
L235.846 53.1327
L236.672 52.1875
L241.738 43.2077
L242.336 42.7351
L242.531 42.2625
L243.655 40.8446
L247.142 34.2279
L248.225 31.8648
L249.673 28.0839
L249.854 28.0839
L250.052 27.6112
L251.212 24.3029
L251.819 24.3029
L252.547 23.8303
L254.567 23.8303
L255.107 23.3576
L256.004 23.3576
L256.272 22.885
L257.043 23.8303
L258.525 25.2481
L259.405 26.1934
L260.224 26.1934
L260.224 26.1934
L260.866 27.1386
L262.669 29.5017
L263.111 31.3922
L264.3 34.7005
L265.451 35.6458
L266.507 33.7553
L267.361 31.3922
L273.364 25.2481
L277.057 26.666
L279.307 23.8303
L282.991 21.4672
L284.691 22.4124
L285.978 22.885
L292.095 23.3576
L294.59 21.9398
L294.843 22.4124
L296.289 22.4124
L297.11 23.3576
L298.355 24.3029
L298.945 24.3029
L301.03 27.6112
L301.717 28.0839
L302.173 28.0839
L303.458 29.9743
L304.333 32.8101
L304.68 33.2827
L305.634 36.591
L307.131 40.8446
L310.056 51.7149
L311.525 55.9684
L311.525 55.9684
L312.209 58.8042
L313.161 61.6399
L314.493 66.8387
L315.961 69.6744
L318.238 76.2911
L320.935 80.0721
L321.654 81.9626
L322.257 82.9078
L323.574 82.9078
L323.897 83.853
L324.341 84.7983
L325.026 85.7435
L326.19 85.7435
L327.263 86.2161
L327.759 86.6888
L330.507 88.5793
L330.945 89.0519
L332.613 89.5245
L333.199 88.5793
L334.064 86.6888
L334.659 85.7435
L335.105 84.3257
L336.745 86.2161
L337.08 87.1614
L337.73 88.1066
L339.399 90.9424
L340.562 90.9424
L342.743 89.0519
L344.335 89.0519
L345.111 88.5793
L345.367 88.1066
L346.642 86.6888
L348.244 86.6888
L349.043 87.634
L349.868 88.1066
L349.868 88.1066
L350.842 89.0519
L368.329 89.0519
L369.478 89.9971
L371.195 89.5245
L372.832 87.634
L379.402 89.0519
L379.58 89.5245
L379.8 89.5245
L383.549 89.9971
L383.948 90.4697
L384.512 90.9424
L385.18 90.9424
L385.947 90.4697
L386.48 90.4697
L387.388 89.5245
L387.388 89.5245
L389.479 88.5793
L390.76 89.0519
L390.993 89.5245
L391.304 89.5245
L393.209 89.9971
L394.368 88.5793
L394.749 89.0519
L395.619 89.0519
L397.194 89.5245
L398.743 89.0519
L400.028 87.634
L400.037 88.1066
L401.864 88.1066
L402.905 87.1614
L404.578 85.2709
L406.441 86.6888
L410.082 84.7983
L410.735 83.853
L411.378 81.9626
L414.543 70.6197
L415.987 67.784
L416.838 69.6744
L422.363 79.5995
L423.913 83.3804
L425.774 77.709
L426.254 77.709
L426.495 77.2364
L429.375 74.8733
L434.417 81.0173
L441.779 81.4899
L441.779 81.4899
L443.323 81.0173
L443.895 81.9626
L445.499 83.853
L448.829 80.5447
L448.961 81.0173
L449.511 82.4352
L451.512 86.2161
L451.672 86.2161
L452.565 87.1614
L456.173 70.6197
L456.594 71.5649
L457.588 72.9828
L460.524 79.5995
L464.635 82.4352
L466.25 81.4899
L466.846 81.4899
L467.186 81.0173
L467.702 80.5447
L469.144 81.4899
L470.693 82.9078
L474.261 81.0173
L480.873 81.0173
L483.286 79.1268
L485.118 79.1268
L486.387 77.709
L493.374 68.7292
L497.817 64.4756
L499.918 58.3316
L502.901 50.297
L503.797 48.8791
L505.893 43.6803
L506.295 42.7351
L506.739 41.3172
L507.871 37.0636
L508.438 36.1184
L509.469 33.2827
L510.666 31.8648
L511.439 31.8648
L512.151 31.3922
L513.989 29.0291
L515.379 28.0839
L515.821 27.6112
L516.629 26.1934
L517.58 22.885
L517.769 21.9398
L518.5 21.9398
L518.811 21.4672
L519.425 20.9945
L520.616 22.4124
L521.799 26.1934
L522.206 26.1934
L522.669 25.7207
L523.886 24.3029
L525.609 25.2481
L526.287 24.7755
L526.584 24.7755
L528.298 22.885
L528.704 24.7755
L530.229 30.447
L531.584 33.7553
L532.504 35.1732
L536.194 39.4267
L538.537 41.3172
L538.875 42.2625
L543.571 53.6053
L545.297 56.9137
L548.138 58.3316
L548.953 56.9137
L552.318 50.7696
L553.307 47.4613
L554.632 42.2625
L555.067 42.7351
L557.357 44.6256
L563.54 63.0578
L569.185 74.8733
L573.103 74.8733
L573.115 75.3459
L578.088 79.1268
L578.917 80.0721
L584.923 83.3804
L596.951 72.9828
L600.056 70.6197
L602.337 64.003
L609.273 64.4756
L613.174 57.8589
L615.586 52.1875
L617.575 48.4065
L619.063 50.297
L621.114 50.297
L622.911 46.0434
L623.644 47.4613
L624.679 48.8791
L625.88 50.7696
L626.307 50.7696
L627.789 49.8244
L628.954 48.8791
L631.192 49.8244
L631.501 50.7696
L633.379 54.078
L633.85 53.6053
L634.875 51.7149
L635.726 51.7149
L635.987 51.2422
L637.115 51.7149
L639.503 54.5506
L640.948 55.4958
L641.893 55.0232
L642.548 54.5506
L651.04 54.5506
L654.107 57.3863
L656.189 57.8589
L657.295 55.0232
L659.211 57.3863
L661.103 57.8589
L664.02 55.0232
L664.339 55.4958
L666.059 55.4958
L667.843 54.5506
L668.645 54.5506
L669.524 53.6053
L670.528 54.5506
L672.165 55.0232
L672.535 55.9684
L673.571 57.8589
L675.1 64.003
L675.964 66.8387
L677.273 70.1471
L678.771 73.4554
L679.23 72.9828
L680.452 70.6197
L680.452 70.6197
L680.721 71.5649
L681.437 72.9828
L681.673 72.9828
L682.132 73.4554
L687.038 77.2364
L687.41 78.1816
L689.222 81.4899
L690.209 82.4352
L691.044 82.9078
L692.86 82.9078
L696.493 82.4352
L697.42 81.9626
L698.323 81.9626
L698.67 81.4899
L698.961 81.4899
L701.892 77.709
L704.744 77.709
L705.064 78.1816
L705.344 78.1816
L705.75 78.6542
L706.224 78.6542
L706.224 78.6542" style="fill:none;stroke:#0000ff;stroke-width:2;"/>
   </g>
   <g id="matplotlib.axis_1">
    <g id="xtick_1">
     <g id="line2d_2">
      <defs>
       <path d="
M0 0
L0 -4" id="mcb557df647" style="stroke:#000000;stroke-linecap:butt;stroke-width:0.5;"/>
      </defs>
      <g>
       <use style="stroke:#000000;stroke-linecap:butt;stroke-width:0.5;" x="54.4303125" xlink:href="#mcb557df647" y="101.34"/>
      </g>
     </g>
     <g id="line2d_3">
      <defs>
       <path d="
M0 0
L0 4" id="mdad270ee8e" style="stroke:#000000;stroke-linecap:butt;stroke-width:0.5;"/>
      </defs>
      <g>
       <use style="stroke:#000000;stroke-linecap:butt;stroke-width:0.5;" x="54.4303125" xlink:href="#mdad270ee8e" y="12.96"/>
      </g>
     </g>
     <g id="text_1">
      <!-- 0 -->
      <defs>
       <path d="
M31.7812 66.4062
Q24.1719 66.4062 20.3281 58.9062
Q16.5 51.4219 16.5 36.375
Q16.5 21.3906 20.3281 13.8906
Q24.1719 6.39062 31.7812 6.39062
Q39.4531 6.39062 43.2812 13.8906
Q47.125 21.3906 47.125 36.375
Q47.125 51.4219 43.2812 58.9062
Q39.4531 66.4062 31.7812 66.4062
M31.7812 74.2188
Q44.0469 74.2188 50.5156 64.5156
Q56.9844 54.8281 56.9844 36.375
Q56.9844 17.9688 50.5156 8.26562
Q44.0469 -1.42188 31.7812 -1.42188
Q19.5312 -1.42188 13.0625 8.26562
Q6.59375 17.9688 6.59375 36.375
Q6.59375 54.8281 13.0625 64.5156
Q19.5312 74.2188 31.7812 74.2188" id="BitstreamVeraSans-Roman-30"/>
      </defs>
      <g transform="translate(51.406875 114.24625)scale(0.12 -0.12)">
       <use xlink:href="#BitstreamVeraSans-Roman-30"/>
      </g>
     </g>
    </g>
    <g id="xtick_2">
     <g id="line2d_4">
      <g>
       <use style="stroke:#000000;stroke-linecap:butt;stroke-width:0.5;" x="161.895031455" xlink:href="#mcb557df647" y="101.34"/>
      </g>
     </g>
     <g id="line2d_5">
      <g>
       <use style="stroke:#000000;stroke-linecap:butt;stroke-width:0.5;" x="161.895031455" xlink:href="#mdad270ee8e" y="12.96"/>
      </g>
     </g>
     <g id="text_2">
      <!-- 10 -->
      <defs>
       <path d="
M12.4062 8.29688
L28.5156 8.29688
L28.5156 63.9219
L10.9844 60.4062
L10.9844 69.3906
L28.4219 72.9062
L38.2812 72.9062
L38.2812 8.29688
L54.3906 8.29688
L54.3906 0
L12.4062 0
z
" id="BitstreamVeraSans-Roman-31"/>
      </defs>
      <g transform="translate(155.317531455 114.24625)scale(0.12 -0.12)">
       <use xlink:href="#BitstreamVeraSans-Roman-31"/>
       <use x="63.623046875" xlink:href="#BitstreamVeraSans-Roman-30"/>
      </g>
     </g>
    </g>
    <g id="xtick_3">
     <g id="line2d_6">
      <g>
       <use style="stroke:#000000;stroke-linecap:butt;stroke-width:0.5;" x="269.359750409" xlink:href="#mcb557df647" y="101.34"/>
      </g>
     </g>
     <g id="line2d_7">
      <g>
       <use style="stroke:#000000;stroke-linecap:butt;stroke-width:0.5;" x="269.359750409" xlink:href="#mdad270ee8e" y="12.96"/>
      </g>
     </g>
     <g id="text_3">
      <!-- 20 -->
      <defs>
       <path d="
M19.1875 8.29688
L53.6094 8.29688
L53.6094 0
L7.32812 0
L7.32812 8.29688
Q12.9375 14.1094 22.625 23.8906
Q32.3281 33.6875 34.8125 36.5312
Q39.5469 41.8438 41.4219 45.5312
Q43.3125 49.2188 43.3125 52.7812
Q43.3125 58.5938 39.2344 62.25
Q35.1562 65.9219 28.6094 65.9219
Q23.9688 65.9219 18.8125 64.3125
Q13.6719 62.7031 7.8125 59.4219
L7.8125 69.3906
Q13.7656 71.7812 18.9375 73
Q24.125 74.2188 28.4219 74.2188
Q39.75 74.2188 46.4844 68.5469
Q53.2188 62.8906 53.2188 53.4219
Q53.2188 48.9219 51.5312 44.8906
Q49.8594 40.875 45.4062 35.4062
Q44.1875 33.9844 37.6406 27.2188
Q31.1094 20.4531 19.1875 8.29688" id="BitstreamVeraSans-Roman-32"/>
      </defs>
      <g transform="translate(262.562875409 114.24625)scale(0.12 -0.12)">
       <use xlink:href="#BitstreamVeraSans-Roman-32"/>
       <use x="63.623046875" xlink:href="#BitstreamVeraSans-Roman-30"/>
      </g>
     </g>
    </g>
    <g id="xtick_4">
     <g id="line2d_8">
      <g>
       <use style="stroke:#000000;stroke-linecap:butt;stroke-width:0.5;" x="376.824469364" xlink:href="#mcb557df647" y="101.34"/>
      </g>
     </g>
     <g id="line2d_9">
      <g>
       <use style="stroke:#000000;stroke-linecap:butt;stroke-width:0.5;" x="376.824469364" xlink:href="#mdad270ee8e" y="12.96"/>
      </g>
     </g>
     <g id="text_4">
      <!-- 30 -->
      <defs>
       <path d="
M40.5781 39.3125
Q47.6562 37.7969 51.625 33
Q55.6094 28.2188 55.6094 21.1875
Q55.6094 10.4062 48.1875 4.48438
Q40.7656 -1.42188 27.0938 -1.42188
Q22.5156 -1.42188 17.6562 -0.515625
Q12.7969 0.390625 7.625 2.20312
L7.625 11.7188
Q11.7188 9.32812 16.5938 8.10938
Q21.4844 6.89062 26.8125 6.89062
Q36.0781 6.89062 40.9375 10.5469
Q45.7969 14.2031 45.7969 21.1875
Q45.7969 27.6406 41.2812 31.2656
Q36.7656 34.9062 28.7188 34.9062
L20.2188 34.9062
L20.2188 43.0156
L29.1094 43.0156
Q36.375 43.0156 40.2344 45.9219
Q44.0938 48.8281 44.0938 54.2969
Q44.0938 59.9062 40.1094 62.9062
Q36.1406 65.9219 28.7188 65.9219
Q24.6562 65.9219 20.0156 65.0312
Q15.375 64.1562 9.8125 62.3125
L9.8125 71.0938
Q15.4375 72.6562 20.3438 73.4375
Q25.25 74.2188 29.5938 74.2188
Q40.8281 74.2188 47.3594 69.1094
Q53.9062 64.0156 53.9062 55.3281
Q53.9062 49.2656 50.4375 45.0938
Q46.9688 40.9219 40.5781 39.3125" id="BitstreamVeraSans-Roman-33"/>
      </defs>
      <g transform="translate(370.045406864 114.24625)scale(0.12 -0.12)">
       <use xlink:href="#BitstreamVeraSans-Roman-33"/>
       <use x="63.623046875" xlink:href="#BitstreamVeraSans-Roman-30"/>
      </g>
     </g>
    </g>
    <g id="xtick_5">
     <g id="line2d_10">
      <g>
       <use style="stroke:#000000;stroke-linecap:butt;stroke-width:0.5;" x="484.289188319" xlink:href="#mcb557df647" y="101.34"/>
      </g>
     </g>
     <g id="line2d_11">
      <g>
       <use style="stroke:#000000;stroke-linecap:butt;stroke-width:0.5;" x="484.289188319" xlink:href="#mdad270ee8e" y="12.96"/>
      </g>
     </g>
     <g id="text_5">
      <!-- 40 -->
      <defs>
       <path d="
M37.7969 64.3125
L12.8906 25.3906
L37.7969 25.3906
z

M35.2031 72.9062
L47.6094 72.9062
L47.6094 25.3906
L58.0156 25.3906
L58.0156 17.1875
L47.6094 17.1875
L47.6094 0
L37.7969 0
L37.7969 17.1875
L4.89062 17.1875
L4.89062 26.7031
z
" id="BitstreamVeraSans-Roman-34"/>
      </defs>
      <g transform="translate(477.346063319 114.24625)scale(0.12 -0.12)">
       <use xlink:href="#BitstreamVeraSans-Roman-34"/>
       <use x="63.623046875" xlink:href="#BitstreamVeraSans-Roman-30"/>
      </g>
     </g>
    </g>
    <g id="xtick_6">
     <g id="line2d_12">
      <g>
       <use style="stroke:#000000;stroke-linecap:butt;stroke-width:0.5;" x="591.753907273" xlink:href="#mcb557df647" y="101.34"/>
      </g>
     </g>
     <g id="line2d_13">
      <g>
       <use style="stroke:#000000;stroke-linecap:butt;stroke-width:0.5;" x="591.753907273" xlink:href="#mdad270ee8e" y="12.96"/>
      </g>
     </g>
     <g id="text_6">
      <!-- 50 -->
      <defs>
       <path d="
M10.7969 72.9062
L49.5156 72.9062
L49.5156 64.5938
L19.8281 64.5938
L19.8281 46.7344
Q21.9688 47.4688 24.1094 47.8281
Q26.2656 48.1875 28.4219 48.1875
Q40.625 48.1875 47.75 41.5
Q54.8906 34.8125 54.8906 23.3906
Q54.8906 11.625 47.5625 5.09375
Q40.2344 -1.42188 26.9062 -1.42188
Q22.3125 -1.42188 17.5469 -0.640625
Q12.7969 0.140625 7.71875 1.70312
L7.71875 11.625
Q12.1094 9.23438 16.7969 8.0625
Q21.4844 6.89062 26.7031 6.89062
Q35.1562 6.89062 40.0781 11.3281
Q45.0156 15.7656 45.0156 23.3906
Q45.0156 31 40.0781 35.4375
Q35.1562 39.8906 26.7031 39.8906
Q22.75 39.8906 18.8125 39.0156
Q14.8906 38.1406 10.7969 36.2812
z
" id="BitstreamVeraSans-Roman-35"/>
      </defs>
      <g transform="translate(584.980469773 114.24625)scale(0.12 -0.12)">
       <use xlink:href="#BitstreamVeraSans-Roman-35"/>
       <use x="63.623046875" xlink:href="#BitstreamVeraSans-Roman-30"/>
      </g>
     </g>
    </g>
    <g id="xtick_7">
     <g id="line2d_14">
      <g>
       <use style="stroke:#000000;stroke-linecap:butt;stroke-width:0.5;" x="699.218626228" xlink:href="#mcb557df647" y="101.34"/>
      </g>
     </g>
     <g id="line2d_15">
      <g>
       <use style="stroke:#000000;stroke-linecap:butt;stroke-width:0.5;" x="699.218626228" xlink:href="#mdad270ee8e" y="12.96"/>
      </g>
     </g>
     <g id="text_7">
      <!-- 60 -->
      <defs>
       <path d="
M33.0156 40.375
Q26.375 40.375 22.4844 35.8281
Q18.6094 31.2969 18.6094 23.3906
Q18.6094 15.5312 22.4844 10.9531
Q26.375 6.39062 33.0156 6.39062
Q39.6562 6.39062 43.5312 10.9531
Q47.4062 15.5312 47.4062 23.3906
Q47.4062 31.2969 43.5312 35.8281
Q39.6562 40.375 33.0156 40.375
M52.5938 71.2969
L52.5938 62.3125
Q48.875 64.0625 45.0938 64.9844
Q41.3125 65.9219 37.5938 65.9219
Q27.8281 65.9219 22.6719 59.3281
Q17.5312 52.7344 16.7969 39.4062
Q19.6719 43.6562 24.0156 45.9219
Q28.375 48.1875 33.5938 48.1875
Q44.5781 48.1875 50.9531 41.5156
Q57.3281 34.8594 57.3281 23.3906
Q57.3281 12.1562 50.6875 5.35938
Q44.0469 -1.42188 33.0156 -1.42188
Q20.3594 -1.42188 13.6719 8.26562
Q6.98438 17.9688 6.98438 36.375
Q6.98438 53.6562 15.1875 63.9375
Q23.3906 74.2188 37.2031 74.2188
Q40.9219 74.2188 44.7031 73.4844
Q48.4844 72.75 52.5938 71.2969" id="BitstreamVeraSans-Roman-36"/>
      </defs>
      <g transform="translate(692.401126228 114.24625)scale(0.12 -0.12)">
       <use xlink:href="#BitstreamVeraSans-Roman-36"/>
       <use x="63.623046875" xlink:href="#BitstreamVeraSans-Roman-30"/>
      </g>
     </g>
    </g>
    <g id="text_8">
     <!-- Distance, km -->
     <defs>
      <path id="BitstreamVeraSans-Roman-20"/>
      <path d="
M54.8906 33.0156
L54.8906 0
L45.9062 0
L45.9062 32.7188
Q45.9062 40.4844 42.875 44.3281
Q39.8438 48.1875 33.7969 48.1875
Q26.5156 48.1875 22.3125 43.5469
Q18.1094 38.9219 18.1094 30.9062
L18.1094 0
L9.07812 0
L9.07812 54.6875
L18.1094 54.6875
L18.1094 46.1875
Q21.3438 51.125 25.7031 53.5625
Q30.0781 56 35.7969 56
Q45.2188 56 50.0469 50.1719
Q54.8906 44.3438 54.8906 33.0156" id="BitstreamVeraSans-Roman-6e"/>
      <path d="
M52 44.1875
Q55.375 50.25 60.0625 53.125
Q64.75 56 71.0938 56
Q79.6406 56 84.2812 50.0156
Q88.9219 44.0469 88.9219 33.0156
L88.9219 0
L79.8906 0
L79.8906 32.7188
Q79.8906 40.5781 77.0938 44.375
Q74.3125 48.1875 68.6094 48.1875
Q61.625 48.1875 57.5625 43.5469
Q53.5156 38.9219 53.5156 30.9062
L53.5156 0
L44.4844 0
L44.4844 32.7188
Q44.4844 40.625 41.7031 44.4062
Q38.9219 48.1875 33.1094 48.1875
Q26.2188 48.1875 22.1562 43.5312
Q18.1094 38.875 18.1094 30.9062
L18.1094 0
L9.07812 0
L9.07812 54.6875
L18.1094 54.6875
L18.1094 46.1875
Q21.1875 51.2188 25.4844 53.6094
Q29.7812 56 35.6875 56
Q41.6562 56 45.8281 52.9688
Q50 49.9531 52 44.1875" id="BitstreamVeraSans-Roman-6d"/>
      <path d="
M9.07812 75.9844
L18.1094 75.9844
L18.1094 31.1094
L44.9219 54.6875
L56.3906 54.6875
L27.3906 29.1094
L57.625 0
L45.9062 0
L18.1094 26.7031
L18.1094 0
L9.07812 0
z
" id="BitstreamVeraSans-Roman-6b"/>
      <path d="
M11.7188 12.4062
L22.0156 12.4062
L22.0156 4
L14.0156 -11.625
L7.71875 -11.625
L11.7188 4
z
" id="BitstreamVeraSans-Roman-2c"/>
      <path d="
M19.6719 64.7969
L19.6719 8.10938
L31.5938 8.10938
Q46.6875 8.10938 53.6875 14.9375
Q60.6875 21.7812 60.6875 36.5312
Q60.6875 51.1719 53.6875 57.9844
Q46.6875 64.7969 31.5938 64.7969
z

M9.8125 72.9062
L30.0781 72.9062
Q51.2656 72.9062 61.1719 64.0938
Q71.0938 55.2812 71.0938 36.5312
Q71.0938 17.6719 61.125 8.82812
Q51.1719 0 30.0781 0
L9.8125 0
z
" id="BitstreamVeraSans-Roman-44"/>
      <path d="
M9.42188 54.6875
L18.4062 54.6875
L18.4062 0
L9.42188 0
z

M9.42188 75.9844
L18.4062 75.9844
L18.4062 64.5938
L9.42188 64.5938
z
" id="BitstreamVeraSans-Roman-69"/>
      <path d="
M56.2031 29.5938
L56.2031 25.2031
L14.8906 25.2031
Q15.4844 15.9219 20.4844 11.0625
Q25.4844 6.20312 34.4219 6.20312
Q39.5938 6.20312 44.4531 7.46875
Q49.3125 8.73438 54.1094 11.2812
L54.1094 2.78125
Q49.2656 0.734375 44.1875 -0.34375
Q39.1094 -1.42188 33.8906 -1.42188
Q20.7969 -1.42188 13.1562 6.1875
Q5.51562 13.8125 5.51562 26.8125
Q5.51562 40.2344 12.7656 48.1094
Q20.0156 56 32.3281 56
Q43.3594 56 49.7812 48.8906
Q56.2031 41.7969 56.2031 29.5938
M47.2188 32.2344
Q47.125 39.5938 43.0938 43.9844
Q39.0625 48.3906 32.4219 48.3906
Q24.9062 48.3906 20.3906 44.1406
Q15.875 39.8906 15.1875 32.1719
z
" id="BitstreamVeraSans-Roman-65"/>
      <path d="
M18.3125 70.2188
L18.3125 54.6875
L36.8125 54.6875
L36.8125 47.7031
L18.3125 47.7031
L18.3125 18.0156
Q18.3125 11.3281 20.1406 9.42188
Q21.9688 7.51562 27.5938 7.51562
L36.8125 7.51562
L36.8125 0
L27.5938 0
Q17.1875 0 13.2344 3.875
Q9.28125 7.76562 9.28125 18.0156
L9.28125 47.7031
L2.6875 47.7031
L2.6875 54.6875
L9.28125 54.6875
L9.28125 70.2188
z
" id="BitstreamVeraSans-Roman-74"/>
      <path d="
M34.2812 27.4844
Q23.3906 27.4844 19.1875 25
Q14.9844 22.5156 14.9844 16.5
Q14.9844 11.7188 18.1406 8.90625
Q21.2969 6.10938 26.7031 6.10938
Q34.1875 6.10938 38.7031 11.4062
Q43.2188 16.7031 43.2188 25.4844
L43.2188 27.4844
z

M52.2031 31.2031
L52.2031 0
L43.2188 0
L43.2188 8.29688
Q40.1406 3.32812 35.5469 0.953125
Q30.9531 -1.42188 24.3125 -1.42188
Q15.9219 -1.42188 10.9531 3.29688
Q6 8.01562 6 15.9219
Q6 25.1406 12.1719 29.8281
Q18.3594 34.5156 30.6094 34.5156
L43.2188 34.5156
L43.2188 35.4062
Q43.2188 41.6094 39.1406 45
Q35.0625 48.3906 27.6875 48.3906
Q23 48.3906 18.5469 47.2656
Q14.1094 46.1406 10.0156 43.8906
L10.0156 52.2031
Q14.9375 54.1094 19.5781 55.0469
Q24.2188 56 28.6094 56
Q40.4844 56 46.3438 49.8438
Q52.2031 43.7031 52.2031 31.2031" id="BitstreamVeraSans-Roman-61"/>
      <path d="
M44.2812 53.0781
L44.2812 44.5781
Q40.4844 46.5312 36.375 47.5
Q32.2812 48.4844 27.875 48.4844
Q21.1875 48.4844 17.8438 46.4375
Q14.5 44.3906 14.5 40.2812
Q14.5 37.1562 16.8906 35.375
Q19.2812 33.5938 26.5156 31.9844
L29.5938 31.2969
Q39.1562 29.25 43.1875 25.5156
Q47.2188 21.7812 47.2188 15.0938
Q47.2188 7.46875 41.1875 3.01562
Q35.1562 -1.42188 24.6094 -1.42188
Q20.2188 -1.42188 15.4531 -0.5625
Q10.6875 0.296875 5.42188 2
L5.42188 11.2812
Q10.4062 8.6875 15.2344 7.39062
Q20.0625 6.10938 24.8125 6.10938
Q31.1562 6.10938 34.5625 8.28125
Q37.9844 10.4531 37.9844 14.4062
Q37.9844 18.0625 35.5156 20.0156
Q33.0625 21.9688 24.7031 23.7812
L21.5781 24.5156
Q13.2344 26.2656 9.51562 29.9062
Q5.8125 33.5469 5.8125 39.8906
Q5.8125 47.6094 11.2812 51.7969
Q16.75 56 26.8125 56
Q31.7812 56 36.1719 55.2656
Q40.5781 54.5469 44.2812 53.0781" id="BitstreamVeraSans-Roman-73"/>
      <path d="
M48.7812 52.5938
L48.7812 44.1875
Q44.9688 46.2969 41.1406 47.3438
Q37.3125 48.3906 33.4062 48.3906
Q24.6562 48.3906 19.8125 42.8438
Q14.9844 37.3125 14.9844 27.2969
Q14.9844 17.2812 19.8125 11.7344
Q24.6562 6.20312 33.4062 6.20312
Q37.3125 6.20312 41.1406 7.25
Q44.9688 8.29688 48.7812 10.4062
L48.7812 2.09375
Q45.0156 0.34375 40.9844 -0.53125
Q36.9688 -1.42188 32.4219 -1.42188
Q20.0625 -1.42188 12.7812 6.34375
Q5.51562 14.1094 5.51562 27.2969
Q5.51562 40.6719 12.8594 48.3281
Q20.2188 56 33.0156 56
Q37.1562 56 41.1094 55.1406
Q45.0625 54.2969 48.7812 52.5938" id="BitstreamVeraSans-Roman-63"/>
     </defs>
     <g transform="translate(341.468761358 128.535)scale(0.12 -0.12)">
      <use xlink:href="#BitstreamVeraSans-Roman-44"/>
      <use x="77.001953125" xlink:href="#BitstreamVeraSans-Roman-69"/>
      <use x="104.78515625" xlink:href="#BitstreamVeraSans-Roman-73"/>
      <use x="156.884765625" xlink:href="#BitstreamVeraSans-Roman-74"/>
      <use x="196.09375" xlink:href="#BitstreamVeraSans-Roman-61"/>
      <use x="257.373046875" xlink:href="#BitstreamVeraSans-Roman-6e"/>
      <use x="320.751953125" xlink:href="#BitstreamVeraSans-Roman-63"/>
      <use x="375.732421875" xlink:href="#BitstreamVeraSans-Roman-65"/>
      <use x="437.255859375" xlink:href="#BitstreamVeraSans-Roman-2c"/>
      <use x="469.04296875" xlink:href="#BitstreamVeraSans-Roman-20"/>
      <use x="500.830078125" xlink:href="#BitstreamVeraSans-Roman-6b"/>
      <use x="558.740234375" xlink:href="#BitstreamVeraSans-Roman-6d"/>
     </g>
    </g>
   </g>
   <g id="matplotlib.axis_2">
    <g id="ytick_1">
     <g id="line2d_16">
      <defs>
       <path d="
M0 0
L4 0" id="mc8fcea1516" style="stroke:#000000;stroke-linecap:butt;stroke-width:0.5;"/>
      </defs>
      <g>
       <use style="stroke:#000000;stroke-linecap:butt;stroke-width:0.5;" x="54.4303125" xlink:href="#mc8fcea1516" y="101.34"/>
      </g>
     </g>
     <g id="line2d_17">
      <defs>
       <path d="
M0 0
L-4 0" id="m0d5b0a6425" style="stroke:#000000;stroke-linecap:butt;stroke-width:0.5;"/>
      </defs>
      <g>
       <use style="stroke:#000000;stroke-linecap:butt;stroke-width:0.5;" x="706.224085216" xlink:href="#m0d5b0a6425" y="101.34"/>
      </g>
     </g>
     <g id="text_9">
      <!-- 0 -->
      <g transform="translate(44.3834375 105.7078125)scale(0.12 -0.12)">
       <use xlink:href="#BitstreamVeraSans-Roman-30"/>
      </g>
     </g>
    </g>
    <g id="ytick_2">
     <g id="line2d_18">
      <g>
       <use style="stroke:#000000;stroke-linecap:butt;stroke-width:0.5;" x="54.4303125" xlink:href="#mc8fcea1516" y="77.7089839572"/>
      </g>
     </g>
     <g id="line2d_19">
      <g>
       <use style="stroke:#000000;stroke-linecap:butt;stroke-width:0.5;" x="706.224085216" xlink:href="#m0d5b0a6425" y="77.7089839572"/>
      </g>
     </g>
     <g id="text_10">
      <!-- 50 -->
      <g transform="translate(36.8834375 82.0767964572)scale(0.12 -0.12)">
       <use xlink:href="#BitstreamVeraSans-Roman-35"/>
       <use x="63.623046875" xlink:href="#BitstreamVeraSans-Roman-30"/>
      </g>
     </g>
    </g>
    <g id="ytick_3">
     <g id="line2d_20">
      <g>
       <use style="stroke:#000000;stroke-linecap:butt;stroke-width:0.5;" x="54.4303125" xlink:href="#mc8fcea1516" y="54.0779679144"/>
      </g>
     </g>
     <g id="line2d_21">
      <g>
       <use style="stroke:#000000;stroke-linecap:butt;stroke-width:0.5;" x="706.224085216" xlink:href="#m0d5b0a6425" y="54.0779679144"/>
      </g>
     </g>
     <g id="text_11">
      <!-- 100 -->
      <g transform="translate(29.6403125 58.4457804144)scale(0.12 -0.12)">
       <use xlink:href="#BitstreamVeraSans-Roman-31"/>
       <use x="63.623046875" xlink:href="#BitstreamVeraSans-Roman-30"/>
       <use x="127.24609375" xlink:href="#BitstreamVeraSans-Roman-30"/>
      </g>
     </g>
    </g>
    <g id="ytick_4">
     <g id="line2d_22">
      <g>
       <use style="stroke:#000000;stroke-linecap:butt;stroke-width:0.5;" x="54.4303125" xlink:href="#mc8fcea1516" y="30.4469518717"/>
      </g>
     </g>
     <g id="line2d_23">
      <g>
       <use style="stroke:#000000;stroke-linecap:butt;stroke-width:0.5;" x="706.224085216" xlink:href="#m0d5b0a6425" y="30.4469518717"/>
      </g>
     </g>
     <g id="text_12">
      <!-- 150 -->
      <g transform="translate(29.6403125 34.8147643717)scale(0.12 -0.12)">
       <use xlink:href="#BitstreamVeraSans-Roman-31"/>
       <use x="63.623046875" xlink:href="#BitstreamVeraSans-Roman-35"/>
       <use x="127.24609375" xlink:href="#BitstreamVeraSans-Roman-30"/>
      </g>
     </g>
    </g>
    <g id="text_13">
     <!-- Elevation, m -->
     <defs>
      <path d="
M2.98438 54.6875
L12.5 54.6875
L29.5938 8.79688
L46.6875 54.6875
L56.2031 54.6875
L35.6875 0
L23.4844 0
z
" id="BitstreamVeraSans-Roman-76"/>
      <path d="
M9.8125 72.9062
L55.9062 72.9062
L55.9062 64.5938
L19.6719 64.5938
L19.6719 43.0156
L54.3906 43.0156
L54.3906 34.7188
L19.6719 34.7188
L19.6719 8.29688
L56.7812 8.29688
L56.7812 0
L9.8125 0
z
" id="BitstreamVeraSans-Roman-45"/>
      <path d="
M30.6094 48.3906
Q23.3906 48.3906 19.1875 42.75
Q14.9844 37.1094 14.9844 27.2969
Q14.9844 17.4844 19.1562 11.8438
Q23.3438 6.20312 30.6094 6.20312
Q37.7969 6.20312 41.9844 11.8594
Q46.1875 17.5312 46.1875 27.2969
Q46.1875 37.0156 41.9844 42.7031
Q37.7969 48.3906 30.6094 48.3906
M30.6094 56
Q42.3281 56 49.0156 48.375
Q55.7188 40.7656 55.7188 27.2969
Q55.7188 13.875 49.0156 6.21875
Q42.3281 -1.42188 30.6094 -1.42188
Q18.8438 -1.42188 12.1719 6.21875
Q5.51562 13.875 5.51562 27.2969
Q5.51562 40.7656 12.1719 48.375
Q18.8438 56 30.6094 56" id="BitstreamVeraSans-Roman-6f"/>
      <path d="
M9.42188 75.9844
L18.4062 75.9844
L18.4062 0
L9.42188 0
z
" id="BitstreamVeraSans-Roman-6c"/>
     </defs>
     <g transform="translate(24.6403125 92.775)rotate(-90.0)scale(0.12 -0.12)">
      <use xlink:href="#BitstreamVeraSans-Roman-45"/>
      <use x="63.18359375" xlink:href="#BitstreamVeraSans-Roman-6c"/>
      <use x="90.966796875" xlink:href="#BitstreamVeraSans-Roman-65"/>
      <use x="152.490234375" xlink:href="#BitstreamVeraSans-Roman-76"/>
      <use x="211.669921875" xlink:href="#BitstreamVeraSans-Roman-61"/>
      <use x="272.94921875" xlink:href="#BitstreamVeraSans-Roman-74"/>
      <use x="312.158203125" xlink:href="#BitstreamVeraSans-Roman-69"/>
      <use x="339.94140625" xlink:href="#BitstreamVeraSans-Roman-6f"/>
      <use x="401.123046875" xlink:href="#BitstreamVeraSans-Roman-6e"/>
      <use x="464.501953125" xlink:href="#BitstreamVeraSans-Roman-2c"/>
      <use x="496.2890625" xlink:href="#BitstreamVeraSans-Roman-20"/>
      <use x="528.076171875" xlink:href="#BitstreamVeraSans-Roman-6d"/>
     </g>
    </g>
   </g>
   <g id="patch_3">
    <path d="
M54.4303 12.96
L706.224 12.96" style="fill:none;stroke:#000000;"/>
   </g>
   <g id="patch_4">
    <path d="
M706.224 101.34
L706.224 12.96" style="fill:none;stroke:#000000;"/>
   </g>
   <g id="patch_5">
    <path d="
M54.4303 101.34
L706.224 101.34" style="fill:none;stroke:#000000;"/>
   </g>
   <g id="patch_6">
    <path d="
M54.4303 101.34
L54.4303 12.96" style="fill:none;stroke:#000000;"/>
   </g>
  </g>
 </g>
 <defs>
  <clipPath id="p01a9df044e">
   <rect height="88.38" width="651.793772716" x="54.4303125" y="12.96"/>
  </clipPath>
 </defs>
</svg>
